G04 #@! TF.GenerationSoftware,KiCad,Pcbnew,5.1.5+dfsg1-2build2*
G04 #@! TF.CreationDate,2020-09-10T12:50:31-04:00*
G04 #@! TF.ProjectId,multi-avr,6d756c74-692d-4617-9672-2e6b69636164,rev?*
G04 #@! TF.SameCoordinates,Original*
G04 #@! TF.FileFunction,Copper,L2,Bot*
G04 #@! TF.FilePolarity,Positive*
%FSLAX46Y46*%
G04 Gerber Fmt 4.6, Leading zero omitted, Abs format (unit mm)*
G04 Created by KiCad (PCBNEW 5.1.5+dfsg1-2build2) date 2020-09-10 12:50:31*
%MOMM*%
%LPD*%
G04 APERTURE LIST*
%ADD10R,1.600000X2.400000*%
%ADD11O,1.600000X2.400000*%
%ADD12R,1.700000X1.700000*%
%ADD13O,1.700000X1.700000*%
%ADD14C,2.000000*%
%ADD15C,1.500000*%
%ADD16C,0.800000*%
%ADD17C,0.762000*%
%ADD18C,0.381000*%
%ADD19C,0.254000*%
G04 APERTURE END LIST*
D10*
X172551220Y-81948600D03*
D11*
X139531220Y-89568600D03*
X170011220Y-81948600D03*
X142071220Y-89568600D03*
X167471220Y-81948600D03*
X144611220Y-89568600D03*
X164931220Y-81948600D03*
X147151220Y-89568600D03*
X162391220Y-81948600D03*
X149691220Y-89568600D03*
X159851220Y-81948600D03*
X152231220Y-89568600D03*
X157311220Y-81948600D03*
X154771220Y-89568600D03*
X154771220Y-81948600D03*
X157311220Y-89568600D03*
X152231220Y-81948600D03*
X159851220Y-89568600D03*
X149691220Y-81948600D03*
X162391220Y-89568600D03*
X147151220Y-81948600D03*
X164931220Y-89568600D03*
X144611220Y-81948600D03*
X167471220Y-89568600D03*
X142071220Y-81948600D03*
X170011220Y-89568600D03*
X139531220Y-81948600D03*
X172551220Y-89568600D03*
D12*
X176379000Y-68246000D03*
D13*
X178919000Y-68246000D03*
X176379000Y-70786000D03*
X178919000Y-70786000D03*
X176379000Y-73326000D03*
X178919000Y-73326000D03*
X142851000Y-109660000D03*
X142851000Y-107120000D03*
X142851000Y-104580000D03*
X142851000Y-102040000D03*
X142851000Y-99500000D03*
D12*
X142851000Y-96960000D03*
D14*
X181586000Y-117176000D03*
X177086000Y-117176000D03*
X181586000Y-110676000D03*
X177086000Y-110676000D03*
D13*
X140819000Y-73326000D03*
X138279000Y-73326000D03*
X140819000Y-70786000D03*
X138279000Y-70786000D03*
X140819000Y-68246000D03*
D12*
X138279000Y-68246000D03*
X167489000Y-68246000D03*
D13*
X170029000Y-68246000D03*
X167489000Y-70786000D03*
X170029000Y-70786000D03*
X167489000Y-73326000D03*
X170029000Y-73326000D03*
X133961000Y-73326000D03*
X131421000Y-73326000D03*
X133961000Y-70786000D03*
X131421000Y-70786000D03*
X133961000Y-68246000D03*
D12*
X131421000Y-68246000D03*
D15*
X155805000Y-72296000D03*
X150925000Y-72296000D03*
D16*
X146050000Y-70575000D03*
X160556250Y-71531250D03*
X156925000Y-102025000D03*
X159275000Y-107150000D03*
X148662500Y-112262500D03*
X146825000Y-114800000D03*
X158175000Y-116675000D03*
X162925000Y-116800000D03*
X165500000Y-116850000D03*
X160746008Y-112696008D03*
X166650000Y-108025000D03*
X174100000Y-100575000D03*
X175625000Y-100600000D03*
X175625000Y-98575000D03*
X173950000Y-98500000D03*
X169925000Y-105100000D03*
X161775000Y-95500000D03*
X158875000Y-112250000D03*
X150100000Y-103025000D03*
X150500000Y-104950000D03*
X157525000Y-95175000D03*
X163725000Y-94335010D03*
X162778408Y-98553395D03*
X158925000Y-98600000D03*
X169050000Y-95325000D03*
X150275000Y-85275000D03*
X144200000Y-85525000D03*
X164525000Y-66600000D03*
X159075000Y-66600000D03*
X152975000Y-84400000D03*
X172450000Y-71975000D03*
X170249999Y-102375001D03*
X170850000Y-95650000D03*
X174743624Y-91269347D03*
X137175000Y-96875000D03*
X131350000Y-96900000D03*
X150300000Y-107300000D03*
X155918749Y-112993751D03*
D17*
X164931220Y-75883780D02*
X164931220Y-81948600D01*
X167489000Y-73326000D02*
X164931220Y-75883780D01*
X150275000Y-85275000D02*
X144450000Y-85275000D01*
X144450000Y-85275000D02*
X144200000Y-85525000D01*
D18*
X172551220Y-77153780D02*
X176379000Y-73326000D01*
X172551220Y-81948600D02*
X172551220Y-77153780D01*
D17*
X159075000Y-66600000D02*
X164525000Y-66600000D01*
D18*
X170029000Y-74079000D02*
X170029000Y-73326000D01*
D17*
X171306719Y-86743099D02*
X172551220Y-87987600D01*
D18*
X170029000Y-73326000D02*
X171306719Y-74603719D01*
D17*
X171306719Y-74603719D02*
X171306719Y-86743099D01*
X172551220Y-87987600D02*
X172551220Y-89568600D01*
X152231220Y-85143780D02*
X152975000Y-84400000D01*
X152231220Y-89568600D02*
X152231220Y-85143780D01*
X178069001Y-67396001D02*
X178919000Y-68246000D01*
X177348000Y-66675000D02*
X178069001Y-67396001D01*
X174625000Y-66675000D02*
X177348000Y-66675000D01*
X170514000Y-70786000D02*
X174625000Y-66675000D01*
X170029000Y-70786000D02*
X170514000Y-70786000D01*
D18*
X168338999Y-71635999D02*
X167489000Y-70786000D01*
X168656501Y-71953501D02*
X168338999Y-71635999D01*
X175176919Y-70786000D02*
X174009418Y-71953501D01*
X176379000Y-70786000D02*
X175176919Y-70786000D01*
X172450000Y-71975000D02*
X168656501Y-71953501D01*
X174009418Y-71953501D02*
X172450000Y-71975000D01*
X170011220Y-89968600D02*
X170011220Y-89568600D01*
X168830220Y-91149600D02*
X170011220Y-89968600D01*
X161032220Y-91149600D02*
X168830220Y-91149600D01*
X159851220Y-89968600D02*
X161032220Y-91149600D01*
X159851220Y-89568600D02*
X159851220Y-89968600D01*
X149691220Y-91149600D02*
X149691220Y-89568600D01*
X149754730Y-91213110D02*
X149691220Y-91149600D01*
X159787710Y-91213110D02*
X149754730Y-91213110D01*
X159851220Y-91149600D02*
X159787710Y-91213110D01*
X159851220Y-89568600D02*
X159851220Y-91149600D01*
X170011220Y-102136222D02*
X170249999Y-102375001D01*
X170011220Y-89568600D02*
X170011220Y-102136222D01*
D17*
X154771220Y-81948600D02*
X154751400Y-81948600D01*
X154751400Y-81948600D02*
X157725000Y-78975000D01*
X157725000Y-78975000D02*
X161700000Y-78975000D01*
X161700000Y-78975000D02*
X163625000Y-77050000D01*
X165877000Y-68246000D02*
X167489000Y-68246000D01*
X163625000Y-70498000D02*
X165877000Y-68246000D01*
X163625000Y-77050000D02*
X163625000Y-70498000D01*
X157311220Y-89568600D02*
X157311220Y-89413780D01*
X154771220Y-86873780D02*
X154771220Y-81948600D01*
X157311220Y-89413780D02*
X154771220Y-86873780D01*
X167489000Y-67015000D02*
X167489000Y-68246000D01*
X169454000Y-65050000D02*
X167489000Y-67015000D01*
X177920802Y-65050000D02*
X169454000Y-65050000D01*
X180900000Y-72600000D02*
X180900000Y-68029198D01*
X180900000Y-68029198D02*
X177920802Y-65050000D01*
X180174000Y-73326000D02*
X180900000Y-72600000D01*
X178919000Y-73326000D02*
X180174000Y-73326000D01*
D18*
X170850000Y-95650000D02*
X174743624Y-91756376D01*
X174743624Y-91756376D02*
X174743624Y-91269347D01*
X137175000Y-96875000D02*
X131375000Y-96875000D01*
X131375000Y-96875000D02*
X131350000Y-96900000D01*
D17*
X150300000Y-107300000D02*
X155918749Y-112918749D01*
X155918749Y-112918749D02*
X155918749Y-112993751D01*
D19*
X177086000Y-112090213D02*
X177086000Y-117176000D01*
X177086000Y-110676000D02*
X177086000Y-112090213D01*
G36*
X168102259Y-64964900D02*
G01*
X166805872Y-66261288D01*
X166767104Y-66293104D01*
X166640140Y-66447810D01*
X166545798Y-66624314D01*
X166500233Y-66774521D01*
X166394820Y-66806498D01*
X166284506Y-66865463D01*
X166187815Y-66944815D01*
X166108463Y-67041506D01*
X166049498Y-67151820D01*
X166025782Y-67230000D01*
X165926902Y-67230000D01*
X165877000Y-67225085D01*
X165827098Y-67230000D01*
X165677829Y-67244702D01*
X165486313Y-67302798D01*
X165309810Y-67397140D01*
X165155104Y-67524104D01*
X165123294Y-67562865D01*
X162941868Y-69744292D01*
X162903105Y-69776104D01*
X162776141Y-69930810D01*
X162695014Y-70082589D01*
X162681799Y-70107313D01*
X162623702Y-70298830D01*
X162604085Y-70498000D01*
X162609001Y-70547912D01*
X162609000Y-76629159D01*
X161279160Y-77959000D01*
X157774893Y-77959000D01*
X157724999Y-77954086D01*
X157675105Y-77959000D01*
X157675098Y-77959000D01*
X157545177Y-77971796D01*
X157525828Y-77973702D01*
X157494274Y-77983274D01*
X157334313Y-78031798D01*
X157157810Y-78126140D01*
X157003104Y-78253104D01*
X156971293Y-78291866D01*
X155111045Y-80152114D01*
X155052529Y-80134364D01*
X154771220Y-80106657D01*
X154489912Y-80134364D01*
X154219413Y-80216418D01*
X153970120Y-80349668D01*
X153751613Y-80528992D01*
X153572288Y-80747499D01*
X153501220Y-80880458D01*
X153430152Y-80747499D01*
X153250828Y-80528992D01*
X153032321Y-80349668D01*
X152783028Y-80216418D01*
X152512529Y-80134364D01*
X152231220Y-80106657D01*
X151949912Y-80134364D01*
X151679413Y-80216418D01*
X151430120Y-80349668D01*
X151211613Y-80528992D01*
X151032288Y-80747499D01*
X150961220Y-80880458D01*
X150890152Y-80747499D01*
X150710828Y-80528992D01*
X150492321Y-80349668D01*
X150243028Y-80216418D01*
X149972529Y-80134364D01*
X149691220Y-80106657D01*
X149409912Y-80134364D01*
X149139413Y-80216418D01*
X148890120Y-80349668D01*
X148671613Y-80528992D01*
X148492288Y-80747499D01*
X148421220Y-80880458D01*
X148350152Y-80747499D01*
X148170828Y-80528992D01*
X147952321Y-80349668D01*
X147703028Y-80216418D01*
X147432529Y-80134364D01*
X147151220Y-80106657D01*
X146869912Y-80134364D01*
X146599413Y-80216418D01*
X146350120Y-80349668D01*
X146131613Y-80528992D01*
X145952288Y-80747499D01*
X145881220Y-80880458D01*
X145810152Y-80747499D01*
X145630828Y-80528992D01*
X145412321Y-80349668D01*
X145163028Y-80216418D01*
X144892529Y-80134364D01*
X144611220Y-80106657D01*
X144329912Y-80134364D01*
X144059413Y-80216418D01*
X143810120Y-80349668D01*
X143591613Y-80528992D01*
X143412288Y-80747499D01*
X143341220Y-80880458D01*
X143270152Y-80747499D01*
X143090828Y-80528992D01*
X142872321Y-80349668D01*
X142623028Y-80216418D01*
X142352529Y-80134364D01*
X142071220Y-80106657D01*
X141789912Y-80134364D01*
X141519413Y-80216418D01*
X141270120Y-80349668D01*
X141051613Y-80528992D01*
X140872288Y-80747499D01*
X140801220Y-80880458D01*
X140730152Y-80747499D01*
X140550828Y-80528992D01*
X140332321Y-80349668D01*
X140083028Y-80216418D01*
X139812529Y-80134364D01*
X139531220Y-80106657D01*
X139249912Y-80134364D01*
X138979413Y-80216418D01*
X138730120Y-80349668D01*
X138511613Y-80528992D01*
X138332288Y-80747499D01*
X138199038Y-80996792D01*
X138116984Y-81267291D01*
X138096220Y-81478108D01*
X138096220Y-82419091D01*
X138116984Y-82629908D01*
X138199038Y-82900407D01*
X138332288Y-83149700D01*
X138511612Y-83368207D01*
X138730119Y-83547532D01*
X138979412Y-83680782D01*
X139249911Y-83762836D01*
X139531220Y-83790543D01*
X139812528Y-83762836D01*
X140083027Y-83680782D01*
X140332320Y-83547532D01*
X140550827Y-83368208D01*
X140730152Y-83149701D01*
X140801220Y-83016742D01*
X140872288Y-83149700D01*
X141051612Y-83368207D01*
X141270119Y-83547532D01*
X141519412Y-83680782D01*
X141789911Y-83762836D01*
X142071220Y-83790543D01*
X142352528Y-83762836D01*
X142623027Y-83680782D01*
X142872320Y-83547532D01*
X143090827Y-83368208D01*
X143270152Y-83149701D01*
X143341220Y-83016742D01*
X143412288Y-83149700D01*
X143591612Y-83368207D01*
X143810119Y-83547532D01*
X144059412Y-83680782D01*
X144329911Y-83762836D01*
X144611220Y-83790543D01*
X144892528Y-83762836D01*
X145163027Y-83680782D01*
X145412320Y-83547532D01*
X145630827Y-83368208D01*
X145810152Y-83149701D01*
X145881220Y-83016742D01*
X145952288Y-83149700D01*
X146131612Y-83368207D01*
X146350119Y-83547532D01*
X146599412Y-83680782D01*
X146869911Y-83762836D01*
X147151220Y-83790543D01*
X147432528Y-83762836D01*
X147703027Y-83680782D01*
X147952320Y-83547532D01*
X148170827Y-83368208D01*
X148350152Y-83149701D01*
X148421220Y-83016742D01*
X148492288Y-83149700D01*
X148671612Y-83368207D01*
X148890119Y-83547532D01*
X149139412Y-83680782D01*
X149409911Y-83762836D01*
X149691220Y-83790543D01*
X149972528Y-83762836D01*
X150243027Y-83680782D01*
X150492320Y-83547532D01*
X150710827Y-83368208D01*
X150890152Y-83149701D01*
X150961220Y-83016742D01*
X151032288Y-83149700D01*
X151211612Y-83368207D01*
X151430119Y-83547532D01*
X151679412Y-83680782D01*
X151949911Y-83762836D01*
X152143233Y-83781877D01*
X152116956Y-83821204D01*
X151548087Y-84390072D01*
X151509325Y-84421884D01*
X151382361Y-84576590D01*
X151365682Y-84607795D01*
X151288019Y-84753093D01*
X151241971Y-84904890D01*
X151192205Y-84784744D01*
X151078937Y-84615226D01*
X150934774Y-84471063D01*
X150765256Y-84357795D01*
X150576898Y-84279774D01*
X150376939Y-84240000D01*
X150173061Y-84240000D01*
X150077541Y-84259000D01*
X144499893Y-84259000D01*
X144449999Y-84254086D01*
X144400105Y-84259000D01*
X144400098Y-84259000D01*
X144270177Y-84271796D01*
X144250828Y-84273702D01*
X144230812Y-84279774D01*
X144059313Y-84331798D01*
X143882810Y-84426140D01*
X143728104Y-84553104D01*
X143696287Y-84591873D01*
X143621206Y-84666954D01*
X143540226Y-84721063D01*
X143396063Y-84865226D01*
X143282795Y-85034744D01*
X143204774Y-85223102D01*
X143165000Y-85423061D01*
X143165000Y-85626939D01*
X143204774Y-85826898D01*
X143282795Y-86015256D01*
X143396063Y-86184774D01*
X143540226Y-86328937D01*
X143709744Y-86442205D01*
X143898102Y-86520226D01*
X144098061Y-86560000D01*
X144301939Y-86560000D01*
X144501898Y-86520226D01*
X144690256Y-86442205D01*
X144859774Y-86328937D01*
X144897711Y-86291000D01*
X150077541Y-86291000D01*
X150173061Y-86310000D01*
X150376939Y-86310000D01*
X150576898Y-86270226D01*
X150765256Y-86192205D01*
X150934774Y-86078937D01*
X151078937Y-85934774D01*
X151192205Y-85765256D01*
X151215221Y-85709691D01*
X151215220Y-88146032D01*
X151211613Y-88148992D01*
X151032288Y-88367499D01*
X150961220Y-88500458D01*
X150890152Y-88367499D01*
X150710828Y-88148992D01*
X150492321Y-87969668D01*
X150243028Y-87836418D01*
X149972529Y-87754364D01*
X149691220Y-87726657D01*
X149409912Y-87754364D01*
X149139413Y-87836418D01*
X148890120Y-87969668D01*
X148671613Y-88148992D01*
X148492288Y-88367499D01*
X148421220Y-88500458D01*
X148350152Y-88367499D01*
X148170828Y-88148992D01*
X147952321Y-87969668D01*
X147703028Y-87836418D01*
X147432529Y-87754364D01*
X147151220Y-87726657D01*
X146869912Y-87754364D01*
X146599413Y-87836418D01*
X146350120Y-87969668D01*
X146131613Y-88148992D01*
X145952288Y-88367499D01*
X145881220Y-88500458D01*
X145810152Y-88367499D01*
X145630828Y-88148992D01*
X145412321Y-87969668D01*
X145163028Y-87836418D01*
X144892529Y-87754364D01*
X144611220Y-87726657D01*
X144329912Y-87754364D01*
X144059413Y-87836418D01*
X143810120Y-87969668D01*
X143591613Y-88148992D01*
X143412288Y-88367499D01*
X143341220Y-88500458D01*
X143270152Y-88367499D01*
X143090828Y-88148992D01*
X142872321Y-87969668D01*
X142623028Y-87836418D01*
X142352529Y-87754364D01*
X142071220Y-87726657D01*
X141789912Y-87754364D01*
X141519413Y-87836418D01*
X141270120Y-87969668D01*
X141051613Y-88148992D01*
X140872288Y-88367499D01*
X140801220Y-88500458D01*
X140730152Y-88367499D01*
X140550828Y-88148992D01*
X140332321Y-87969668D01*
X140083028Y-87836418D01*
X139812529Y-87754364D01*
X139531220Y-87726657D01*
X139249912Y-87754364D01*
X138979413Y-87836418D01*
X138730120Y-87969668D01*
X138511613Y-88148992D01*
X138332288Y-88367499D01*
X138199038Y-88616792D01*
X138116984Y-88887291D01*
X138096220Y-89098108D01*
X138096220Y-90039091D01*
X138116984Y-90249908D01*
X138199038Y-90520407D01*
X138332288Y-90769700D01*
X138511612Y-90988207D01*
X138730119Y-91167532D01*
X138979412Y-91300782D01*
X139249911Y-91382836D01*
X139531220Y-91410543D01*
X139812528Y-91382836D01*
X140083027Y-91300782D01*
X140332320Y-91167532D01*
X140550827Y-90988208D01*
X140730152Y-90769701D01*
X140801220Y-90636742D01*
X140872288Y-90769700D01*
X141051612Y-90988207D01*
X141270119Y-91167532D01*
X141519412Y-91300782D01*
X141789911Y-91382836D01*
X142071220Y-91410543D01*
X142352528Y-91382836D01*
X142623027Y-91300782D01*
X142872320Y-91167532D01*
X143090827Y-90988208D01*
X143270152Y-90769701D01*
X143341220Y-90636742D01*
X143412288Y-90769700D01*
X143591612Y-90988207D01*
X143810119Y-91167532D01*
X144059412Y-91300782D01*
X144329911Y-91382836D01*
X144611220Y-91410543D01*
X144892528Y-91382836D01*
X145163027Y-91300782D01*
X145412320Y-91167532D01*
X145630827Y-90988208D01*
X145810152Y-90769701D01*
X145881220Y-90636742D01*
X145952288Y-90769700D01*
X146131612Y-90988207D01*
X146350119Y-91167532D01*
X146599412Y-91300782D01*
X146869911Y-91382836D01*
X147151220Y-91410543D01*
X147432528Y-91382836D01*
X147703027Y-91300782D01*
X147952320Y-91167532D01*
X148170827Y-90988208D01*
X148350152Y-90769701D01*
X148421220Y-90636742D01*
X148492288Y-90769700D01*
X148671612Y-90988207D01*
X148862215Y-91144632D01*
X148861726Y-91149600D01*
X148865720Y-91190150D01*
X148865720Y-91190152D01*
X148877664Y-91311425D01*
X148907731Y-91410543D01*
X148924867Y-91467033D01*
X149001521Y-91610442D01*
X149035434Y-91651765D01*
X149104679Y-91736141D01*
X149136183Y-91761996D01*
X149142334Y-91768147D01*
X149168189Y-91799651D01*
X149293888Y-91902809D01*
X149437296Y-91979463D01*
X149592904Y-92026666D01*
X149714177Y-92038610D01*
X149714180Y-92038610D01*
X149754730Y-92042604D01*
X149795280Y-92038610D01*
X159747160Y-92038610D01*
X159787710Y-92042604D01*
X159828260Y-92038610D01*
X159828263Y-92038610D01*
X159949536Y-92026666D01*
X160105144Y-91979463D01*
X160248552Y-91902809D01*
X160374251Y-91799651D01*
X160400106Y-91768147D01*
X160406257Y-91761996D01*
X160437761Y-91736141D01*
X160441720Y-91731317D01*
X160445679Y-91736141D01*
X160509816Y-91788777D01*
X160571377Y-91839299D01*
X160621331Y-91865999D01*
X160714786Y-91915953D01*
X160870394Y-91963156D01*
X160991667Y-91975100D01*
X160991669Y-91975100D01*
X161032219Y-91979094D01*
X161072770Y-91975100D01*
X168789670Y-91975100D01*
X168830220Y-91979094D01*
X168870770Y-91975100D01*
X168870773Y-91975100D01*
X168992046Y-91963156D01*
X169147654Y-91915953D01*
X169185720Y-91895606D01*
X169185721Y-102095661D01*
X169181726Y-102136222D01*
X169197665Y-102298048D01*
X169214999Y-102355192D01*
X169214999Y-102476940D01*
X169254773Y-102676899D01*
X169332794Y-102865257D01*
X169446062Y-103034775D01*
X169590225Y-103178938D01*
X169759743Y-103292206D01*
X169948101Y-103370227D01*
X170148060Y-103410001D01*
X170351938Y-103410001D01*
X170551897Y-103370227D01*
X170740255Y-103292206D01*
X170909773Y-103178938D01*
X171053936Y-103034775D01*
X171167204Y-102865257D01*
X171245225Y-102676899D01*
X171284999Y-102476940D01*
X171284999Y-102273062D01*
X171245225Y-102073103D01*
X171167204Y-101884745D01*
X171053936Y-101715227D01*
X170909773Y-101571064D01*
X170836720Y-101522252D01*
X170836720Y-96685000D01*
X170951939Y-96685000D01*
X171151898Y-96645226D01*
X171340256Y-96567205D01*
X171509774Y-96453937D01*
X171653937Y-96309774D01*
X171767205Y-96140256D01*
X171845226Y-95951898D01*
X171877429Y-95790004D01*
X175298670Y-92368764D01*
X175330165Y-92342917D01*
X175356013Y-92311421D01*
X175356016Y-92311418D01*
X175433323Y-92217219D01*
X175509977Y-92073810D01*
X175524278Y-92026665D01*
X175557180Y-91918202D01*
X175557582Y-91914124D01*
X175660829Y-91759603D01*
X175738850Y-91571245D01*
X175778624Y-91371286D01*
X175778624Y-91167408D01*
X175738850Y-90967449D01*
X175660829Y-90779091D01*
X175547561Y-90609573D01*
X175403398Y-90465410D01*
X175233880Y-90352142D01*
X175045522Y-90274121D01*
X174845563Y-90234347D01*
X174641685Y-90234347D01*
X174441726Y-90274121D01*
X174253368Y-90352142D01*
X174083850Y-90465410D01*
X173939687Y-90609573D01*
X173826419Y-90779091D01*
X173748398Y-90967449D01*
X173708624Y-91167408D01*
X173708624Y-91371286D01*
X173748398Y-91571245D01*
X173752183Y-91580383D01*
X170836720Y-94495848D01*
X170836720Y-91147507D01*
X171030827Y-90988208D01*
X171210152Y-90769701D01*
X171281220Y-90636742D01*
X171352288Y-90769700D01*
X171531612Y-90988207D01*
X171750119Y-91167532D01*
X171999412Y-91300782D01*
X172269911Y-91382836D01*
X172551220Y-91410543D01*
X172832528Y-91382836D01*
X173103027Y-91300782D01*
X173352320Y-91167532D01*
X173570827Y-90988208D01*
X173750152Y-90769701D01*
X173883402Y-90520408D01*
X173965456Y-90249909D01*
X173986220Y-90039092D01*
X173986220Y-89098109D01*
X173965456Y-88887291D01*
X173883402Y-88616792D01*
X173750152Y-88367499D01*
X173570828Y-88148992D01*
X173567220Y-88146031D01*
X173567220Y-88037493D01*
X173572134Y-87987599D01*
X173567220Y-87937705D01*
X173567220Y-87937698D01*
X173552518Y-87788429D01*
X173494422Y-87596913D01*
X173400080Y-87420410D01*
X173273116Y-87265704D01*
X173234353Y-87233892D01*
X172322719Y-86322259D01*
X172322719Y-83786672D01*
X173351220Y-83786672D01*
X173475702Y-83774412D01*
X173595400Y-83738102D01*
X173705714Y-83679137D01*
X173802405Y-83599785D01*
X173881757Y-83503094D01*
X173940722Y-83392780D01*
X173977032Y-83273082D01*
X173989292Y-83148600D01*
X173989292Y-80748600D01*
X173977032Y-80624118D01*
X173940722Y-80504420D01*
X173881757Y-80394106D01*
X173802405Y-80297415D01*
X173705714Y-80218063D01*
X173595400Y-80159098D01*
X173475702Y-80122788D01*
X173376720Y-80113039D01*
X173376720Y-77495712D01*
X176089855Y-74782578D01*
X176232740Y-74811000D01*
X176525260Y-74811000D01*
X176812158Y-74753932D01*
X177082411Y-74641990D01*
X177325632Y-74479475D01*
X177532475Y-74272632D01*
X177649000Y-74098240D01*
X177765525Y-74272632D01*
X177972368Y-74479475D01*
X178215589Y-74641990D01*
X178485842Y-74753932D01*
X178772740Y-74811000D01*
X179065260Y-74811000D01*
X179352158Y-74753932D01*
X179622411Y-74641990D01*
X179865632Y-74479475D01*
X180003107Y-74342000D01*
X180124098Y-74342000D01*
X180174000Y-74346915D01*
X180223902Y-74342000D01*
X180373171Y-74327298D01*
X180564687Y-74269202D01*
X180741190Y-74174860D01*
X180895896Y-74047896D01*
X180927712Y-74009128D01*
X181583133Y-73353708D01*
X181621896Y-73321896D01*
X181748860Y-73167190D01*
X181843202Y-72990687D01*
X181901298Y-72799171D01*
X181916000Y-72649902D01*
X181916000Y-72649901D01*
X181920915Y-72600001D01*
X181916000Y-72550099D01*
X181916000Y-68079091D01*
X181920914Y-68029197D01*
X181916000Y-67979303D01*
X181916000Y-67979296D01*
X181901298Y-67830027D01*
X181843202Y-67638511D01*
X181748860Y-67462008D01*
X181621896Y-67307302D01*
X181583133Y-67275490D01*
X179367163Y-65059521D01*
X183765001Y-65096461D01*
X183765000Y-119540000D01*
X128085000Y-119540000D01*
X128085000Y-109513740D01*
X141366000Y-109513740D01*
X141366000Y-109806260D01*
X141423068Y-110093158D01*
X141535010Y-110363411D01*
X141697525Y-110606632D01*
X141904368Y-110813475D01*
X142147589Y-110975990D01*
X142417842Y-111087932D01*
X142704740Y-111145000D01*
X142997260Y-111145000D01*
X143284158Y-111087932D01*
X143554411Y-110975990D01*
X143797632Y-110813475D01*
X144004475Y-110606632D01*
X144166990Y-110363411D01*
X144278932Y-110093158D01*
X144336000Y-109806260D01*
X144336000Y-109513740D01*
X144278932Y-109226842D01*
X144166990Y-108956589D01*
X144004475Y-108713368D01*
X143797632Y-108506525D01*
X143615466Y-108384805D01*
X143732355Y-108315178D01*
X143948588Y-108120269D01*
X144122641Y-107886920D01*
X144247825Y-107624099D01*
X144292476Y-107476890D01*
X144171155Y-107247000D01*
X142978000Y-107247000D01*
X142978000Y-107267000D01*
X142724000Y-107267000D01*
X142724000Y-107247000D01*
X141530845Y-107247000D01*
X141409524Y-107476890D01*
X141454175Y-107624099D01*
X141579359Y-107886920D01*
X141753412Y-108120269D01*
X141969645Y-108315178D01*
X142086534Y-108384805D01*
X141904368Y-108506525D01*
X141697525Y-108713368D01*
X141535010Y-108956589D01*
X141423068Y-109226842D01*
X141366000Y-109513740D01*
X128085000Y-109513740D01*
X128085000Y-107198061D01*
X149265000Y-107198061D01*
X149265000Y-107401939D01*
X149304774Y-107601898D01*
X149382795Y-107790256D01*
X149496063Y-107959774D01*
X149640226Y-108103937D01*
X149721206Y-108158046D01*
X154969284Y-113406125D01*
X155001544Y-113484007D01*
X155114812Y-113653525D01*
X155258975Y-113797688D01*
X155428493Y-113910956D01*
X155616851Y-113988977D01*
X155816810Y-114028751D01*
X156020688Y-114028751D01*
X156220647Y-113988977D01*
X156409005Y-113910956D01*
X156578523Y-113797688D01*
X156722686Y-113653525D01*
X156835954Y-113484007D01*
X156913975Y-113295649D01*
X156953749Y-113095690D01*
X156953749Y-112891812D01*
X156920594Y-112725127D01*
X156920047Y-112719578D01*
X156918429Y-112714243D01*
X156913975Y-112691853D01*
X156905239Y-112670762D01*
X156861951Y-112528062D01*
X156767609Y-112351559D01*
X156640645Y-112196853D01*
X156601882Y-112165041D01*
X154951808Y-110514967D01*
X175451000Y-110514967D01*
X175451000Y-110837033D01*
X175513832Y-111152912D01*
X175637082Y-111450463D01*
X175816013Y-111718252D01*
X176043748Y-111945987D01*
X176311537Y-112124918D01*
X176324000Y-112130080D01*
X176324001Y-115721919D01*
X176311537Y-115727082D01*
X176043748Y-115906013D01*
X175816013Y-116133748D01*
X175637082Y-116401537D01*
X175513832Y-116699088D01*
X175451000Y-117014967D01*
X175451000Y-117337033D01*
X175513832Y-117652912D01*
X175637082Y-117950463D01*
X175816013Y-118218252D01*
X176043748Y-118445987D01*
X176311537Y-118624918D01*
X176609088Y-118748168D01*
X176924967Y-118811000D01*
X177247033Y-118811000D01*
X177562912Y-118748168D01*
X177860463Y-118624918D01*
X178128252Y-118445987D01*
X178262826Y-118311413D01*
X180630192Y-118311413D01*
X180725956Y-118575814D01*
X181015571Y-118716704D01*
X181327108Y-118798384D01*
X181648595Y-118817718D01*
X181967675Y-118773961D01*
X182272088Y-118668795D01*
X182446044Y-118575814D01*
X182541808Y-118311413D01*
X181586000Y-117355605D01*
X180630192Y-118311413D01*
X178262826Y-118311413D01*
X178355987Y-118218252D01*
X178534918Y-117950463D01*
X178658168Y-117652912D01*
X178721000Y-117337033D01*
X178721000Y-117238595D01*
X179944282Y-117238595D01*
X179988039Y-117557675D01*
X180093205Y-117862088D01*
X180186186Y-118036044D01*
X180450587Y-118131808D01*
X181406395Y-117176000D01*
X181765605Y-117176000D01*
X182721413Y-118131808D01*
X182985814Y-118036044D01*
X183126704Y-117746429D01*
X183208384Y-117434892D01*
X183227718Y-117113405D01*
X183183961Y-116794325D01*
X183078795Y-116489912D01*
X182985814Y-116315956D01*
X182721413Y-116220192D01*
X181765605Y-117176000D01*
X181406395Y-117176000D01*
X180450587Y-116220192D01*
X180186186Y-116315956D01*
X180045296Y-116605571D01*
X179963616Y-116917108D01*
X179944282Y-117238595D01*
X178721000Y-117238595D01*
X178721000Y-117014967D01*
X178658168Y-116699088D01*
X178534918Y-116401537D01*
X178355987Y-116133748D01*
X178262826Y-116040587D01*
X180630192Y-116040587D01*
X181586000Y-116996395D01*
X182541808Y-116040587D01*
X182446044Y-115776186D01*
X182156429Y-115635296D01*
X181844892Y-115553616D01*
X181523405Y-115534282D01*
X181204325Y-115578039D01*
X180899912Y-115683205D01*
X180725956Y-115776186D01*
X180630192Y-116040587D01*
X178262826Y-116040587D01*
X178128252Y-115906013D01*
X177860463Y-115727082D01*
X177848000Y-115721920D01*
X177848000Y-112130080D01*
X177860463Y-112124918D01*
X178128252Y-111945987D01*
X178262826Y-111811413D01*
X180630192Y-111811413D01*
X180725956Y-112075814D01*
X181015571Y-112216704D01*
X181327108Y-112298384D01*
X181648595Y-112317718D01*
X181967675Y-112273961D01*
X182272088Y-112168795D01*
X182446044Y-112075814D01*
X182541808Y-111811413D01*
X181586000Y-110855605D01*
X180630192Y-111811413D01*
X178262826Y-111811413D01*
X178355987Y-111718252D01*
X178534918Y-111450463D01*
X178658168Y-111152912D01*
X178721000Y-110837033D01*
X178721000Y-110738595D01*
X179944282Y-110738595D01*
X179988039Y-111057675D01*
X180093205Y-111362088D01*
X180186186Y-111536044D01*
X180450587Y-111631808D01*
X181406395Y-110676000D01*
X181765605Y-110676000D01*
X182721413Y-111631808D01*
X182985814Y-111536044D01*
X183126704Y-111246429D01*
X183208384Y-110934892D01*
X183227718Y-110613405D01*
X183183961Y-110294325D01*
X183078795Y-109989912D01*
X182985814Y-109815956D01*
X182721413Y-109720192D01*
X181765605Y-110676000D01*
X181406395Y-110676000D01*
X180450587Y-109720192D01*
X180186186Y-109815956D01*
X180045296Y-110105571D01*
X179963616Y-110417108D01*
X179944282Y-110738595D01*
X178721000Y-110738595D01*
X178721000Y-110514967D01*
X178658168Y-110199088D01*
X178534918Y-109901537D01*
X178355987Y-109633748D01*
X178262826Y-109540587D01*
X180630192Y-109540587D01*
X181586000Y-110496395D01*
X182541808Y-109540587D01*
X182446044Y-109276186D01*
X182156429Y-109135296D01*
X181844892Y-109053616D01*
X181523405Y-109034282D01*
X181204325Y-109078039D01*
X180899912Y-109183205D01*
X180725956Y-109276186D01*
X180630192Y-109540587D01*
X178262826Y-109540587D01*
X178128252Y-109406013D01*
X177860463Y-109227082D01*
X177562912Y-109103832D01*
X177247033Y-109041000D01*
X176924967Y-109041000D01*
X176609088Y-109103832D01*
X176311537Y-109227082D01*
X176043748Y-109406013D01*
X175816013Y-109633748D01*
X175637082Y-109901537D01*
X175513832Y-110199088D01*
X175451000Y-110514967D01*
X154951808Y-110514967D01*
X151158046Y-106721206D01*
X151103937Y-106640226D01*
X150959774Y-106496063D01*
X150790256Y-106382795D01*
X150601898Y-106304774D01*
X150401939Y-106265000D01*
X150198061Y-106265000D01*
X149998102Y-106304774D01*
X149809744Y-106382795D01*
X149640226Y-106496063D01*
X149496063Y-106640226D01*
X149382795Y-106809744D01*
X149304774Y-106998102D01*
X149265000Y-107198061D01*
X128085000Y-107198061D01*
X128085000Y-96798061D01*
X130315000Y-96798061D01*
X130315000Y-97001939D01*
X130354774Y-97201898D01*
X130432795Y-97390256D01*
X130546063Y-97559774D01*
X130690226Y-97703937D01*
X130859744Y-97817205D01*
X131048102Y-97895226D01*
X131248061Y-97935000D01*
X131451939Y-97935000D01*
X131651898Y-97895226D01*
X131840256Y-97817205D01*
X132009774Y-97703937D01*
X132013211Y-97700500D01*
X136547497Y-97700500D01*
X136684744Y-97792205D01*
X136873102Y-97870226D01*
X137073061Y-97910000D01*
X137276939Y-97910000D01*
X137476898Y-97870226D01*
X137665256Y-97792205D01*
X137834774Y-97678937D01*
X137978937Y-97534774D01*
X138092205Y-97365256D01*
X138170226Y-97176898D01*
X138210000Y-96976939D01*
X138210000Y-96773061D01*
X138170226Y-96573102D01*
X138092205Y-96384744D01*
X137978937Y-96215226D01*
X137873711Y-96110000D01*
X141362928Y-96110000D01*
X141362928Y-97810000D01*
X141375188Y-97934482D01*
X141411498Y-98054180D01*
X141470463Y-98164494D01*
X141549815Y-98261185D01*
X141646506Y-98340537D01*
X141756820Y-98399502D01*
X141829380Y-98421513D01*
X141697525Y-98553368D01*
X141535010Y-98796589D01*
X141423068Y-99066842D01*
X141366000Y-99353740D01*
X141366000Y-99646260D01*
X141423068Y-99933158D01*
X141535010Y-100203411D01*
X141697525Y-100446632D01*
X141904368Y-100653475D01*
X142078760Y-100770000D01*
X141904368Y-100886525D01*
X141697525Y-101093368D01*
X141535010Y-101336589D01*
X141423068Y-101606842D01*
X141366000Y-101893740D01*
X141366000Y-102186260D01*
X141423068Y-102473158D01*
X141535010Y-102743411D01*
X141697525Y-102986632D01*
X141904368Y-103193475D01*
X142078760Y-103310000D01*
X141904368Y-103426525D01*
X141697525Y-103633368D01*
X141535010Y-103876589D01*
X141423068Y-104146842D01*
X141366000Y-104433740D01*
X141366000Y-104726260D01*
X141423068Y-105013158D01*
X141535010Y-105283411D01*
X141697525Y-105526632D01*
X141904368Y-105733475D01*
X142086534Y-105855195D01*
X141969645Y-105924822D01*
X141753412Y-106119731D01*
X141579359Y-106353080D01*
X141454175Y-106615901D01*
X141409524Y-106763110D01*
X141530845Y-106993000D01*
X142724000Y-106993000D01*
X142724000Y-106973000D01*
X142978000Y-106973000D01*
X142978000Y-106993000D01*
X144171155Y-106993000D01*
X144292476Y-106763110D01*
X144247825Y-106615901D01*
X144122641Y-106353080D01*
X143948588Y-106119731D01*
X143732355Y-105924822D01*
X143615466Y-105855195D01*
X143797632Y-105733475D01*
X144004475Y-105526632D01*
X144166990Y-105283411D01*
X144278932Y-105013158D01*
X144336000Y-104726260D01*
X144336000Y-104433740D01*
X144278932Y-104146842D01*
X144166990Y-103876589D01*
X144004475Y-103633368D01*
X143797632Y-103426525D01*
X143623240Y-103310000D01*
X143797632Y-103193475D01*
X144004475Y-102986632D01*
X144166990Y-102743411D01*
X144278932Y-102473158D01*
X144336000Y-102186260D01*
X144336000Y-101893740D01*
X144278932Y-101606842D01*
X144166990Y-101336589D01*
X144004475Y-101093368D01*
X143797632Y-100886525D01*
X143623240Y-100770000D01*
X143797632Y-100653475D01*
X144004475Y-100446632D01*
X144166990Y-100203411D01*
X144278932Y-99933158D01*
X144336000Y-99646260D01*
X144336000Y-99353740D01*
X144278932Y-99066842D01*
X144166990Y-98796589D01*
X144004475Y-98553368D01*
X143872620Y-98421513D01*
X143945180Y-98399502D01*
X144055494Y-98340537D01*
X144152185Y-98261185D01*
X144231537Y-98164494D01*
X144290502Y-98054180D01*
X144326812Y-97934482D01*
X144339072Y-97810000D01*
X144339072Y-96110000D01*
X144326812Y-95985518D01*
X144290502Y-95865820D01*
X144231537Y-95755506D01*
X144152185Y-95658815D01*
X144055494Y-95579463D01*
X143945180Y-95520498D01*
X143825482Y-95484188D01*
X143701000Y-95471928D01*
X142001000Y-95471928D01*
X141876518Y-95484188D01*
X141756820Y-95520498D01*
X141646506Y-95579463D01*
X141549815Y-95658815D01*
X141470463Y-95755506D01*
X141411498Y-95865820D01*
X141375188Y-95985518D01*
X141362928Y-96110000D01*
X137873711Y-96110000D01*
X137834774Y-96071063D01*
X137665256Y-95957795D01*
X137476898Y-95879774D01*
X137276939Y-95840000D01*
X137073061Y-95840000D01*
X136873102Y-95879774D01*
X136684744Y-95957795D01*
X136547497Y-96049500D01*
X131940087Y-96049500D01*
X131840256Y-95982795D01*
X131651898Y-95904774D01*
X131451939Y-95865000D01*
X131248061Y-95865000D01*
X131048102Y-95904774D01*
X130859744Y-95982795D01*
X130690226Y-96096063D01*
X130546063Y-96240226D01*
X130432795Y-96409744D01*
X130354774Y-96598102D01*
X130315000Y-96798061D01*
X128085000Y-96798061D01*
X128085000Y-67396000D01*
X129932928Y-67396000D01*
X129932928Y-69096000D01*
X129945188Y-69220482D01*
X129981498Y-69340180D01*
X130040463Y-69450494D01*
X130119815Y-69547185D01*
X130216506Y-69626537D01*
X130326820Y-69685502D01*
X130399380Y-69707513D01*
X130267525Y-69839368D01*
X130105010Y-70082589D01*
X129993068Y-70352842D01*
X129936000Y-70639740D01*
X129936000Y-70932260D01*
X129993068Y-71219158D01*
X130105010Y-71489411D01*
X130267525Y-71732632D01*
X130474368Y-71939475D01*
X130648760Y-72056000D01*
X130474368Y-72172525D01*
X130267525Y-72379368D01*
X130105010Y-72622589D01*
X129993068Y-72892842D01*
X129936000Y-73179740D01*
X129936000Y-73472260D01*
X129993068Y-73759158D01*
X130105010Y-74029411D01*
X130267525Y-74272632D01*
X130474368Y-74479475D01*
X130717589Y-74641990D01*
X130987842Y-74753932D01*
X131274740Y-74811000D01*
X131567260Y-74811000D01*
X131854158Y-74753932D01*
X132124411Y-74641990D01*
X132367632Y-74479475D01*
X132574475Y-74272632D01*
X132692100Y-74096594D01*
X132863412Y-74326269D01*
X133079645Y-74521178D01*
X133329748Y-74670157D01*
X133604109Y-74767481D01*
X133834000Y-74646814D01*
X133834000Y-73453000D01*
X134088000Y-73453000D01*
X134088000Y-74646814D01*
X134317891Y-74767481D01*
X134592252Y-74670157D01*
X134842355Y-74521178D01*
X135058588Y-74326269D01*
X135232641Y-74092920D01*
X135357825Y-73830099D01*
X135402476Y-73682890D01*
X135281155Y-73453000D01*
X134088000Y-73453000D01*
X133834000Y-73453000D01*
X133814000Y-73453000D01*
X133814000Y-73199000D01*
X133834000Y-73199000D01*
X133834000Y-73179000D01*
X134088000Y-73179000D01*
X134088000Y-73199000D01*
X135281155Y-73199000D01*
X135402476Y-72969110D01*
X135357825Y-72821901D01*
X135232641Y-72559080D01*
X135058588Y-72325731D01*
X134842355Y-72130822D01*
X134725466Y-72061195D01*
X134907632Y-71939475D01*
X135114475Y-71732632D01*
X135276990Y-71489411D01*
X135388932Y-71219158D01*
X135446000Y-70932260D01*
X135446000Y-70639740D01*
X135388932Y-70352842D01*
X135276990Y-70082589D01*
X135114475Y-69839368D01*
X134907632Y-69632525D01*
X134733240Y-69516000D01*
X134907632Y-69399475D01*
X135114475Y-69192632D01*
X135276990Y-68949411D01*
X135388932Y-68679158D01*
X135446000Y-68392260D01*
X135446000Y-68099740D01*
X135388932Y-67812842D01*
X135276990Y-67542589D01*
X135179043Y-67396000D01*
X136790928Y-67396000D01*
X136790928Y-69096000D01*
X136803188Y-69220482D01*
X136839498Y-69340180D01*
X136898463Y-69450494D01*
X136977815Y-69547185D01*
X137074506Y-69626537D01*
X137184820Y-69685502D01*
X137257380Y-69707513D01*
X137125525Y-69839368D01*
X136963010Y-70082589D01*
X136851068Y-70352842D01*
X136794000Y-70639740D01*
X136794000Y-70932260D01*
X136851068Y-71219158D01*
X136963010Y-71489411D01*
X137125525Y-71732632D01*
X137332368Y-71939475D01*
X137506760Y-72056000D01*
X137332368Y-72172525D01*
X137125525Y-72379368D01*
X136963010Y-72622589D01*
X136851068Y-72892842D01*
X136794000Y-73179740D01*
X136794000Y-73472260D01*
X136851068Y-73759158D01*
X136963010Y-74029411D01*
X137125525Y-74272632D01*
X137332368Y-74479475D01*
X137575589Y-74641990D01*
X137845842Y-74753932D01*
X138132740Y-74811000D01*
X138425260Y-74811000D01*
X138712158Y-74753932D01*
X138982411Y-74641990D01*
X139225632Y-74479475D01*
X139432475Y-74272632D01*
X139549000Y-74098240D01*
X139665525Y-74272632D01*
X139872368Y-74479475D01*
X140115589Y-74641990D01*
X140385842Y-74753932D01*
X140672740Y-74811000D01*
X140965260Y-74811000D01*
X141252158Y-74753932D01*
X141522411Y-74641990D01*
X141765632Y-74479475D01*
X141972475Y-74272632D01*
X142134990Y-74029411D01*
X142246932Y-73759158D01*
X142304000Y-73472260D01*
X142304000Y-73179740D01*
X142246932Y-72892842D01*
X142134990Y-72622589D01*
X141972475Y-72379368D01*
X141765632Y-72172525D01*
X141746272Y-72159589D01*
X149540000Y-72159589D01*
X149540000Y-72432411D01*
X149593225Y-72699989D01*
X149697629Y-72952043D01*
X149849201Y-73178886D01*
X150042114Y-73371799D01*
X150268957Y-73523371D01*
X150521011Y-73627775D01*
X150788589Y-73681000D01*
X151061411Y-73681000D01*
X151328989Y-73627775D01*
X151581043Y-73523371D01*
X151807886Y-73371799D01*
X152000799Y-73178886D01*
X152152371Y-72952043D01*
X152256775Y-72699989D01*
X152310000Y-72432411D01*
X152310000Y-72159589D01*
X154420000Y-72159589D01*
X154420000Y-72432411D01*
X154473225Y-72699989D01*
X154577629Y-72952043D01*
X154729201Y-73178886D01*
X154922114Y-73371799D01*
X155148957Y-73523371D01*
X155401011Y-73627775D01*
X155668589Y-73681000D01*
X155941411Y-73681000D01*
X156208989Y-73627775D01*
X156461043Y-73523371D01*
X156687886Y-73371799D01*
X156880799Y-73178886D01*
X157032371Y-72952043D01*
X157136775Y-72699989D01*
X157190000Y-72432411D01*
X157190000Y-72159589D01*
X157136775Y-71892011D01*
X157032371Y-71639957D01*
X156880799Y-71413114D01*
X156687886Y-71220201D01*
X156461043Y-71068629D01*
X156208989Y-70964225D01*
X155941411Y-70911000D01*
X155668589Y-70911000D01*
X155401011Y-70964225D01*
X155148957Y-71068629D01*
X154922114Y-71220201D01*
X154729201Y-71413114D01*
X154577629Y-71639957D01*
X154473225Y-71892011D01*
X154420000Y-72159589D01*
X152310000Y-72159589D01*
X152256775Y-71892011D01*
X152152371Y-71639957D01*
X152000799Y-71413114D01*
X151807886Y-71220201D01*
X151581043Y-71068629D01*
X151328989Y-70964225D01*
X151061411Y-70911000D01*
X150788589Y-70911000D01*
X150521011Y-70964225D01*
X150268957Y-71068629D01*
X150042114Y-71220201D01*
X149849201Y-71413114D01*
X149697629Y-71639957D01*
X149593225Y-71892011D01*
X149540000Y-72159589D01*
X141746272Y-72159589D01*
X141591240Y-72056000D01*
X141765632Y-71939475D01*
X141972475Y-71732632D01*
X142134990Y-71489411D01*
X142246932Y-71219158D01*
X142304000Y-70932260D01*
X142304000Y-70639740D01*
X142246932Y-70352842D01*
X142134990Y-70082589D01*
X141972475Y-69839368D01*
X141765632Y-69632525D01*
X141591240Y-69516000D01*
X141765632Y-69399475D01*
X141972475Y-69192632D01*
X142134990Y-68949411D01*
X142246932Y-68679158D01*
X142304000Y-68392260D01*
X142304000Y-68099740D01*
X142246932Y-67812842D01*
X142134990Y-67542589D01*
X141972475Y-67299368D01*
X141765632Y-67092525D01*
X141522411Y-66930010D01*
X141252158Y-66818068D01*
X140965260Y-66761000D01*
X140672740Y-66761000D01*
X140385842Y-66818068D01*
X140115589Y-66930010D01*
X139872368Y-67092525D01*
X139740513Y-67224380D01*
X139718502Y-67151820D01*
X139659537Y-67041506D01*
X139580185Y-66944815D01*
X139483494Y-66865463D01*
X139373180Y-66806498D01*
X139253482Y-66770188D01*
X139129000Y-66757928D01*
X137429000Y-66757928D01*
X137304518Y-66770188D01*
X137184820Y-66806498D01*
X137074506Y-66865463D01*
X136977815Y-66944815D01*
X136898463Y-67041506D01*
X136839498Y-67151820D01*
X136803188Y-67271518D01*
X136790928Y-67396000D01*
X135179043Y-67396000D01*
X135114475Y-67299368D01*
X134907632Y-67092525D01*
X134664411Y-66930010D01*
X134394158Y-66818068D01*
X134107260Y-66761000D01*
X133814740Y-66761000D01*
X133527842Y-66818068D01*
X133257589Y-66930010D01*
X133014368Y-67092525D01*
X132882513Y-67224380D01*
X132860502Y-67151820D01*
X132801537Y-67041506D01*
X132722185Y-66944815D01*
X132625494Y-66865463D01*
X132515180Y-66806498D01*
X132395482Y-66770188D01*
X132271000Y-66757928D01*
X130571000Y-66757928D01*
X130446518Y-66770188D01*
X130326820Y-66806498D01*
X130216506Y-66865463D01*
X130119815Y-66944815D01*
X130040463Y-67041506D01*
X129981498Y-67151820D01*
X129945188Y-67271518D01*
X129932928Y-67396000D01*
X128085000Y-67396000D01*
X128085000Y-66498061D01*
X158040000Y-66498061D01*
X158040000Y-66701939D01*
X158079774Y-66901898D01*
X158157795Y-67090256D01*
X158271063Y-67259774D01*
X158415226Y-67403937D01*
X158584744Y-67517205D01*
X158773102Y-67595226D01*
X158973061Y-67635000D01*
X159176939Y-67635000D01*
X159272459Y-67616000D01*
X164327541Y-67616000D01*
X164423061Y-67635000D01*
X164626939Y-67635000D01*
X164826898Y-67595226D01*
X165015256Y-67517205D01*
X165184774Y-67403937D01*
X165328937Y-67259774D01*
X165442205Y-67090256D01*
X165520226Y-66901898D01*
X165560000Y-66701939D01*
X165560000Y-66498061D01*
X165520226Y-66298102D01*
X165442205Y-66109744D01*
X165328937Y-65940226D01*
X165184774Y-65796063D01*
X165015256Y-65682795D01*
X164826898Y-65604774D01*
X164626939Y-65565000D01*
X164423061Y-65565000D01*
X164327541Y-65584000D01*
X159272459Y-65584000D01*
X159176939Y-65565000D01*
X158973061Y-65565000D01*
X158773102Y-65604774D01*
X158584744Y-65682795D01*
X158415226Y-65796063D01*
X158271063Y-65940226D01*
X158157795Y-66109744D01*
X158079774Y-66298102D01*
X158040000Y-66498061D01*
X128085000Y-66498061D01*
X128085000Y-64860000D01*
X155613653Y-64860000D01*
X168102259Y-64964900D01*
G37*
X168102259Y-64964900D02*
X166805872Y-66261288D01*
X166767104Y-66293104D01*
X166640140Y-66447810D01*
X166545798Y-66624314D01*
X166500233Y-66774521D01*
X166394820Y-66806498D01*
X166284506Y-66865463D01*
X166187815Y-66944815D01*
X166108463Y-67041506D01*
X166049498Y-67151820D01*
X166025782Y-67230000D01*
X165926902Y-67230000D01*
X165877000Y-67225085D01*
X165827098Y-67230000D01*
X165677829Y-67244702D01*
X165486313Y-67302798D01*
X165309810Y-67397140D01*
X165155104Y-67524104D01*
X165123294Y-67562865D01*
X162941868Y-69744292D01*
X162903105Y-69776104D01*
X162776141Y-69930810D01*
X162695014Y-70082589D01*
X162681799Y-70107313D01*
X162623702Y-70298830D01*
X162604085Y-70498000D01*
X162609001Y-70547912D01*
X162609000Y-76629159D01*
X161279160Y-77959000D01*
X157774893Y-77959000D01*
X157724999Y-77954086D01*
X157675105Y-77959000D01*
X157675098Y-77959000D01*
X157545177Y-77971796D01*
X157525828Y-77973702D01*
X157494274Y-77983274D01*
X157334313Y-78031798D01*
X157157810Y-78126140D01*
X157003104Y-78253104D01*
X156971293Y-78291866D01*
X155111045Y-80152114D01*
X155052529Y-80134364D01*
X154771220Y-80106657D01*
X154489912Y-80134364D01*
X154219413Y-80216418D01*
X153970120Y-80349668D01*
X153751613Y-80528992D01*
X153572288Y-80747499D01*
X153501220Y-80880458D01*
X153430152Y-80747499D01*
X153250828Y-80528992D01*
X153032321Y-80349668D01*
X152783028Y-80216418D01*
X152512529Y-80134364D01*
X152231220Y-80106657D01*
X151949912Y-80134364D01*
X151679413Y-80216418D01*
X151430120Y-80349668D01*
X151211613Y-80528992D01*
X151032288Y-80747499D01*
X150961220Y-80880458D01*
X150890152Y-80747499D01*
X150710828Y-80528992D01*
X150492321Y-80349668D01*
X150243028Y-80216418D01*
X149972529Y-80134364D01*
X149691220Y-80106657D01*
X149409912Y-80134364D01*
X149139413Y-80216418D01*
X148890120Y-80349668D01*
X148671613Y-80528992D01*
X148492288Y-80747499D01*
X148421220Y-80880458D01*
X148350152Y-80747499D01*
X148170828Y-80528992D01*
X147952321Y-80349668D01*
X147703028Y-80216418D01*
X147432529Y-80134364D01*
X147151220Y-80106657D01*
X146869912Y-80134364D01*
X146599413Y-80216418D01*
X146350120Y-80349668D01*
X146131613Y-80528992D01*
X145952288Y-80747499D01*
X145881220Y-80880458D01*
X145810152Y-80747499D01*
X145630828Y-80528992D01*
X145412321Y-80349668D01*
X145163028Y-80216418D01*
X144892529Y-80134364D01*
X144611220Y-80106657D01*
X144329912Y-80134364D01*
X144059413Y-80216418D01*
X143810120Y-80349668D01*
X143591613Y-80528992D01*
X143412288Y-80747499D01*
X143341220Y-80880458D01*
X143270152Y-80747499D01*
X143090828Y-80528992D01*
X142872321Y-80349668D01*
X142623028Y-80216418D01*
X142352529Y-80134364D01*
X142071220Y-80106657D01*
X141789912Y-80134364D01*
X141519413Y-80216418D01*
X141270120Y-80349668D01*
X141051613Y-80528992D01*
X140872288Y-80747499D01*
X140801220Y-80880458D01*
X140730152Y-80747499D01*
X140550828Y-80528992D01*
X140332321Y-80349668D01*
X140083028Y-80216418D01*
X139812529Y-80134364D01*
X139531220Y-80106657D01*
X139249912Y-80134364D01*
X138979413Y-80216418D01*
X138730120Y-80349668D01*
X138511613Y-80528992D01*
X138332288Y-80747499D01*
X138199038Y-80996792D01*
X138116984Y-81267291D01*
X138096220Y-81478108D01*
X138096220Y-82419091D01*
X138116984Y-82629908D01*
X138199038Y-82900407D01*
X138332288Y-83149700D01*
X138511612Y-83368207D01*
X138730119Y-83547532D01*
X138979412Y-83680782D01*
X139249911Y-83762836D01*
X139531220Y-83790543D01*
X139812528Y-83762836D01*
X140083027Y-83680782D01*
X140332320Y-83547532D01*
X140550827Y-83368208D01*
X140730152Y-83149701D01*
X140801220Y-83016742D01*
X140872288Y-83149700D01*
X141051612Y-83368207D01*
X141270119Y-83547532D01*
X141519412Y-83680782D01*
X141789911Y-83762836D01*
X142071220Y-83790543D01*
X142352528Y-83762836D01*
X142623027Y-83680782D01*
X142872320Y-83547532D01*
X143090827Y-83368208D01*
X143270152Y-83149701D01*
X143341220Y-83016742D01*
X143412288Y-83149700D01*
X143591612Y-83368207D01*
X143810119Y-83547532D01*
X144059412Y-83680782D01*
X144329911Y-83762836D01*
X144611220Y-83790543D01*
X144892528Y-83762836D01*
X145163027Y-83680782D01*
X145412320Y-83547532D01*
X145630827Y-83368208D01*
X145810152Y-83149701D01*
X145881220Y-83016742D01*
X145952288Y-83149700D01*
X146131612Y-83368207D01*
X146350119Y-83547532D01*
X146599412Y-83680782D01*
X146869911Y-83762836D01*
X147151220Y-83790543D01*
X147432528Y-83762836D01*
X147703027Y-83680782D01*
X147952320Y-83547532D01*
X148170827Y-83368208D01*
X148350152Y-83149701D01*
X148421220Y-83016742D01*
X148492288Y-83149700D01*
X148671612Y-83368207D01*
X148890119Y-83547532D01*
X149139412Y-83680782D01*
X149409911Y-83762836D01*
X149691220Y-83790543D01*
X149972528Y-83762836D01*
X150243027Y-83680782D01*
X150492320Y-83547532D01*
X150710827Y-83368208D01*
X150890152Y-83149701D01*
X150961220Y-83016742D01*
X151032288Y-83149700D01*
X151211612Y-83368207D01*
X151430119Y-83547532D01*
X151679412Y-83680782D01*
X151949911Y-83762836D01*
X152143233Y-83781877D01*
X152116956Y-83821204D01*
X151548087Y-84390072D01*
X151509325Y-84421884D01*
X151382361Y-84576590D01*
X151365682Y-84607795D01*
X151288019Y-84753093D01*
X151241971Y-84904890D01*
X151192205Y-84784744D01*
X151078937Y-84615226D01*
X150934774Y-84471063D01*
X150765256Y-84357795D01*
X150576898Y-84279774D01*
X150376939Y-84240000D01*
X150173061Y-84240000D01*
X150077541Y-84259000D01*
X144499893Y-84259000D01*
X144449999Y-84254086D01*
X144400105Y-84259000D01*
X144400098Y-84259000D01*
X144270177Y-84271796D01*
X144250828Y-84273702D01*
X144230812Y-84279774D01*
X144059313Y-84331798D01*
X143882810Y-84426140D01*
X143728104Y-84553104D01*
X143696287Y-84591873D01*
X143621206Y-84666954D01*
X143540226Y-84721063D01*
X143396063Y-84865226D01*
X143282795Y-85034744D01*
X143204774Y-85223102D01*
X143165000Y-85423061D01*
X143165000Y-85626939D01*
X143204774Y-85826898D01*
X143282795Y-86015256D01*
X143396063Y-86184774D01*
X143540226Y-86328937D01*
X143709744Y-86442205D01*
X143898102Y-86520226D01*
X144098061Y-86560000D01*
X144301939Y-86560000D01*
X144501898Y-86520226D01*
X144690256Y-86442205D01*
X144859774Y-86328937D01*
X144897711Y-86291000D01*
X150077541Y-86291000D01*
X150173061Y-86310000D01*
X150376939Y-86310000D01*
X150576898Y-86270226D01*
X150765256Y-86192205D01*
X150934774Y-86078937D01*
X151078937Y-85934774D01*
X151192205Y-85765256D01*
X151215221Y-85709691D01*
X151215220Y-88146032D01*
X151211613Y-88148992D01*
X151032288Y-88367499D01*
X150961220Y-88500458D01*
X150890152Y-88367499D01*
X150710828Y-88148992D01*
X150492321Y-87969668D01*
X150243028Y-87836418D01*
X149972529Y-87754364D01*
X149691220Y-87726657D01*
X149409912Y-87754364D01*
X149139413Y-87836418D01*
X148890120Y-87969668D01*
X148671613Y-88148992D01*
X148492288Y-88367499D01*
X148421220Y-88500458D01*
X148350152Y-88367499D01*
X148170828Y-88148992D01*
X147952321Y-87969668D01*
X147703028Y-87836418D01*
X147432529Y-87754364D01*
X147151220Y-87726657D01*
X146869912Y-87754364D01*
X146599413Y-87836418D01*
X146350120Y-87969668D01*
X146131613Y-88148992D01*
X145952288Y-88367499D01*
X145881220Y-88500458D01*
X145810152Y-88367499D01*
X145630828Y-88148992D01*
X145412321Y-87969668D01*
X145163028Y-87836418D01*
X144892529Y-87754364D01*
X144611220Y-87726657D01*
X144329912Y-87754364D01*
X144059413Y-87836418D01*
X143810120Y-87969668D01*
X143591613Y-88148992D01*
X143412288Y-88367499D01*
X143341220Y-88500458D01*
X143270152Y-88367499D01*
X143090828Y-88148992D01*
X142872321Y-87969668D01*
X142623028Y-87836418D01*
X142352529Y-87754364D01*
X142071220Y-87726657D01*
X141789912Y-87754364D01*
X141519413Y-87836418D01*
X141270120Y-87969668D01*
X141051613Y-88148992D01*
X140872288Y-88367499D01*
X140801220Y-88500458D01*
X140730152Y-88367499D01*
X140550828Y-88148992D01*
X140332321Y-87969668D01*
X140083028Y-87836418D01*
X139812529Y-87754364D01*
X139531220Y-87726657D01*
X139249912Y-87754364D01*
X138979413Y-87836418D01*
X138730120Y-87969668D01*
X138511613Y-88148992D01*
X138332288Y-88367499D01*
X138199038Y-88616792D01*
X138116984Y-88887291D01*
X138096220Y-89098108D01*
X138096220Y-90039091D01*
X138116984Y-90249908D01*
X138199038Y-90520407D01*
X138332288Y-90769700D01*
X138511612Y-90988207D01*
X138730119Y-91167532D01*
X138979412Y-91300782D01*
X139249911Y-91382836D01*
X139531220Y-91410543D01*
X139812528Y-91382836D01*
X140083027Y-91300782D01*
X140332320Y-91167532D01*
X140550827Y-90988208D01*
X140730152Y-90769701D01*
X140801220Y-90636742D01*
X140872288Y-90769700D01*
X141051612Y-90988207D01*
X141270119Y-91167532D01*
X141519412Y-91300782D01*
X141789911Y-91382836D01*
X142071220Y-91410543D01*
X142352528Y-91382836D01*
X142623027Y-91300782D01*
X142872320Y-91167532D01*
X143090827Y-90988208D01*
X143270152Y-90769701D01*
X143341220Y-90636742D01*
X143412288Y-90769700D01*
X143591612Y-90988207D01*
X143810119Y-91167532D01*
X144059412Y-91300782D01*
X144329911Y-91382836D01*
X144611220Y-91410543D01*
X144892528Y-91382836D01*
X145163027Y-91300782D01*
X145412320Y-91167532D01*
X145630827Y-90988208D01*
X145810152Y-90769701D01*
X145881220Y-90636742D01*
X145952288Y-90769700D01*
X146131612Y-90988207D01*
X146350119Y-91167532D01*
X146599412Y-91300782D01*
X146869911Y-91382836D01*
X147151220Y-91410543D01*
X147432528Y-91382836D01*
X147703027Y-91300782D01*
X147952320Y-91167532D01*
X148170827Y-90988208D01*
X148350152Y-90769701D01*
X148421220Y-90636742D01*
X148492288Y-90769700D01*
X148671612Y-90988207D01*
X148862215Y-91144632D01*
X148861726Y-91149600D01*
X148865720Y-91190150D01*
X148865720Y-91190152D01*
X148877664Y-91311425D01*
X148907731Y-91410543D01*
X148924867Y-91467033D01*
X149001521Y-91610442D01*
X149035434Y-91651765D01*
X149104679Y-91736141D01*
X149136183Y-91761996D01*
X149142334Y-91768147D01*
X149168189Y-91799651D01*
X149293888Y-91902809D01*
X149437296Y-91979463D01*
X149592904Y-92026666D01*
X149714177Y-92038610D01*
X149714180Y-92038610D01*
X149754730Y-92042604D01*
X149795280Y-92038610D01*
X159747160Y-92038610D01*
X159787710Y-92042604D01*
X159828260Y-92038610D01*
X159828263Y-92038610D01*
X159949536Y-92026666D01*
X160105144Y-91979463D01*
X160248552Y-91902809D01*
X160374251Y-91799651D01*
X160400106Y-91768147D01*
X160406257Y-91761996D01*
X160437761Y-91736141D01*
X160441720Y-91731317D01*
X160445679Y-91736141D01*
X160509816Y-91788777D01*
X160571377Y-91839299D01*
X160621331Y-91865999D01*
X160714786Y-91915953D01*
X160870394Y-91963156D01*
X160991667Y-91975100D01*
X160991669Y-91975100D01*
X161032219Y-91979094D01*
X161072770Y-91975100D01*
X168789670Y-91975100D01*
X168830220Y-91979094D01*
X168870770Y-91975100D01*
X168870773Y-91975100D01*
X168992046Y-91963156D01*
X169147654Y-91915953D01*
X169185720Y-91895606D01*
X169185721Y-102095661D01*
X169181726Y-102136222D01*
X169197665Y-102298048D01*
X169214999Y-102355192D01*
X169214999Y-102476940D01*
X169254773Y-102676899D01*
X169332794Y-102865257D01*
X169446062Y-103034775D01*
X169590225Y-103178938D01*
X169759743Y-103292206D01*
X169948101Y-103370227D01*
X170148060Y-103410001D01*
X170351938Y-103410001D01*
X170551897Y-103370227D01*
X170740255Y-103292206D01*
X170909773Y-103178938D01*
X171053936Y-103034775D01*
X171167204Y-102865257D01*
X171245225Y-102676899D01*
X171284999Y-102476940D01*
X171284999Y-102273062D01*
X171245225Y-102073103D01*
X171167204Y-101884745D01*
X171053936Y-101715227D01*
X170909773Y-101571064D01*
X170836720Y-101522252D01*
X170836720Y-96685000D01*
X170951939Y-96685000D01*
X171151898Y-96645226D01*
X171340256Y-96567205D01*
X171509774Y-96453937D01*
X171653937Y-96309774D01*
X171767205Y-96140256D01*
X171845226Y-95951898D01*
X171877429Y-95790004D01*
X175298670Y-92368764D01*
X175330165Y-92342917D01*
X175356013Y-92311421D01*
X175356016Y-92311418D01*
X175433323Y-92217219D01*
X175509977Y-92073810D01*
X175524278Y-92026665D01*
X175557180Y-91918202D01*
X175557582Y-91914124D01*
X175660829Y-91759603D01*
X175738850Y-91571245D01*
X175778624Y-91371286D01*
X175778624Y-91167408D01*
X175738850Y-90967449D01*
X175660829Y-90779091D01*
X175547561Y-90609573D01*
X175403398Y-90465410D01*
X175233880Y-90352142D01*
X175045522Y-90274121D01*
X174845563Y-90234347D01*
X174641685Y-90234347D01*
X174441726Y-90274121D01*
X174253368Y-90352142D01*
X174083850Y-90465410D01*
X173939687Y-90609573D01*
X173826419Y-90779091D01*
X173748398Y-90967449D01*
X173708624Y-91167408D01*
X173708624Y-91371286D01*
X173748398Y-91571245D01*
X173752183Y-91580383D01*
X170836720Y-94495848D01*
X170836720Y-91147507D01*
X171030827Y-90988208D01*
X171210152Y-90769701D01*
X171281220Y-90636742D01*
X171352288Y-90769700D01*
X171531612Y-90988207D01*
X171750119Y-91167532D01*
X171999412Y-91300782D01*
X172269911Y-91382836D01*
X172551220Y-91410543D01*
X172832528Y-91382836D01*
X173103027Y-91300782D01*
X173352320Y-91167532D01*
X173570827Y-90988208D01*
X173750152Y-90769701D01*
X173883402Y-90520408D01*
X173965456Y-90249909D01*
X173986220Y-90039092D01*
X173986220Y-89098109D01*
X173965456Y-88887291D01*
X173883402Y-88616792D01*
X173750152Y-88367499D01*
X173570828Y-88148992D01*
X173567220Y-88146031D01*
X173567220Y-88037493D01*
X173572134Y-87987599D01*
X173567220Y-87937705D01*
X173567220Y-87937698D01*
X173552518Y-87788429D01*
X173494422Y-87596913D01*
X173400080Y-87420410D01*
X173273116Y-87265704D01*
X173234353Y-87233892D01*
X172322719Y-86322259D01*
X172322719Y-83786672D01*
X173351220Y-83786672D01*
X173475702Y-83774412D01*
X173595400Y-83738102D01*
X173705714Y-83679137D01*
X173802405Y-83599785D01*
X173881757Y-83503094D01*
X173940722Y-83392780D01*
X173977032Y-83273082D01*
X173989292Y-83148600D01*
X173989292Y-80748600D01*
X173977032Y-80624118D01*
X173940722Y-80504420D01*
X173881757Y-80394106D01*
X173802405Y-80297415D01*
X173705714Y-80218063D01*
X173595400Y-80159098D01*
X173475702Y-80122788D01*
X173376720Y-80113039D01*
X173376720Y-77495712D01*
X176089855Y-74782578D01*
X176232740Y-74811000D01*
X176525260Y-74811000D01*
X176812158Y-74753932D01*
X177082411Y-74641990D01*
X177325632Y-74479475D01*
X177532475Y-74272632D01*
X177649000Y-74098240D01*
X177765525Y-74272632D01*
X177972368Y-74479475D01*
X178215589Y-74641990D01*
X178485842Y-74753932D01*
X178772740Y-74811000D01*
X179065260Y-74811000D01*
X179352158Y-74753932D01*
X179622411Y-74641990D01*
X179865632Y-74479475D01*
X180003107Y-74342000D01*
X180124098Y-74342000D01*
X180174000Y-74346915D01*
X180223902Y-74342000D01*
X180373171Y-74327298D01*
X180564687Y-74269202D01*
X180741190Y-74174860D01*
X180895896Y-74047896D01*
X180927712Y-74009128D01*
X181583133Y-73353708D01*
X181621896Y-73321896D01*
X181748860Y-73167190D01*
X181843202Y-72990687D01*
X181901298Y-72799171D01*
X181916000Y-72649902D01*
X181916000Y-72649901D01*
X181920915Y-72600001D01*
X181916000Y-72550099D01*
X181916000Y-68079091D01*
X181920914Y-68029197D01*
X181916000Y-67979303D01*
X181916000Y-67979296D01*
X181901298Y-67830027D01*
X181843202Y-67638511D01*
X181748860Y-67462008D01*
X181621896Y-67307302D01*
X181583133Y-67275490D01*
X179367163Y-65059521D01*
X183765001Y-65096461D01*
X183765000Y-119540000D01*
X128085000Y-119540000D01*
X128085000Y-109513740D01*
X141366000Y-109513740D01*
X141366000Y-109806260D01*
X141423068Y-110093158D01*
X141535010Y-110363411D01*
X141697525Y-110606632D01*
X141904368Y-110813475D01*
X142147589Y-110975990D01*
X142417842Y-111087932D01*
X142704740Y-111145000D01*
X142997260Y-111145000D01*
X143284158Y-111087932D01*
X143554411Y-110975990D01*
X143797632Y-110813475D01*
X144004475Y-110606632D01*
X144166990Y-110363411D01*
X144278932Y-110093158D01*
X144336000Y-109806260D01*
X144336000Y-109513740D01*
X144278932Y-109226842D01*
X144166990Y-108956589D01*
X144004475Y-108713368D01*
X143797632Y-108506525D01*
X143615466Y-108384805D01*
X143732355Y-108315178D01*
X143948588Y-108120269D01*
X144122641Y-107886920D01*
X144247825Y-107624099D01*
X144292476Y-107476890D01*
X144171155Y-107247000D01*
X142978000Y-107247000D01*
X142978000Y-107267000D01*
X142724000Y-107267000D01*
X142724000Y-107247000D01*
X141530845Y-107247000D01*
X141409524Y-107476890D01*
X141454175Y-107624099D01*
X141579359Y-107886920D01*
X141753412Y-108120269D01*
X141969645Y-108315178D01*
X142086534Y-108384805D01*
X141904368Y-108506525D01*
X141697525Y-108713368D01*
X141535010Y-108956589D01*
X141423068Y-109226842D01*
X141366000Y-109513740D01*
X128085000Y-109513740D01*
X128085000Y-107198061D01*
X149265000Y-107198061D01*
X149265000Y-107401939D01*
X149304774Y-107601898D01*
X149382795Y-107790256D01*
X149496063Y-107959774D01*
X149640226Y-108103937D01*
X149721206Y-108158046D01*
X154969284Y-113406125D01*
X155001544Y-113484007D01*
X155114812Y-113653525D01*
X155258975Y-113797688D01*
X155428493Y-113910956D01*
X155616851Y-113988977D01*
X155816810Y-114028751D01*
X156020688Y-114028751D01*
X156220647Y-113988977D01*
X156409005Y-113910956D01*
X156578523Y-113797688D01*
X156722686Y-113653525D01*
X156835954Y-113484007D01*
X156913975Y-113295649D01*
X156953749Y-113095690D01*
X156953749Y-112891812D01*
X156920594Y-112725127D01*
X156920047Y-112719578D01*
X156918429Y-112714243D01*
X156913975Y-112691853D01*
X156905239Y-112670762D01*
X156861951Y-112528062D01*
X156767609Y-112351559D01*
X156640645Y-112196853D01*
X156601882Y-112165041D01*
X154951808Y-110514967D01*
X175451000Y-110514967D01*
X175451000Y-110837033D01*
X175513832Y-111152912D01*
X175637082Y-111450463D01*
X175816013Y-111718252D01*
X176043748Y-111945987D01*
X176311537Y-112124918D01*
X176324000Y-112130080D01*
X176324001Y-115721919D01*
X176311537Y-115727082D01*
X176043748Y-115906013D01*
X175816013Y-116133748D01*
X175637082Y-116401537D01*
X175513832Y-116699088D01*
X175451000Y-117014967D01*
X175451000Y-117337033D01*
X175513832Y-117652912D01*
X175637082Y-117950463D01*
X175816013Y-118218252D01*
X176043748Y-118445987D01*
X176311537Y-118624918D01*
X176609088Y-118748168D01*
X176924967Y-118811000D01*
X177247033Y-118811000D01*
X177562912Y-118748168D01*
X177860463Y-118624918D01*
X178128252Y-118445987D01*
X178262826Y-118311413D01*
X180630192Y-118311413D01*
X180725956Y-118575814D01*
X181015571Y-118716704D01*
X181327108Y-118798384D01*
X181648595Y-118817718D01*
X181967675Y-118773961D01*
X182272088Y-118668795D01*
X182446044Y-118575814D01*
X182541808Y-118311413D01*
X181586000Y-117355605D01*
X180630192Y-118311413D01*
X178262826Y-118311413D01*
X178355987Y-118218252D01*
X178534918Y-117950463D01*
X178658168Y-117652912D01*
X178721000Y-117337033D01*
X178721000Y-117238595D01*
X179944282Y-117238595D01*
X179988039Y-117557675D01*
X180093205Y-117862088D01*
X180186186Y-118036044D01*
X180450587Y-118131808D01*
X181406395Y-117176000D01*
X181765605Y-117176000D01*
X182721413Y-118131808D01*
X182985814Y-118036044D01*
X183126704Y-117746429D01*
X183208384Y-117434892D01*
X183227718Y-117113405D01*
X183183961Y-116794325D01*
X183078795Y-116489912D01*
X182985814Y-116315956D01*
X182721413Y-116220192D01*
X181765605Y-117176000D01*
X181406395Y-117176000D01*
X180450587Y-116220192D01*
X180186186Y-116315956D01*
X180045296Y-116605571D01*
X179963616Y-116917108D01*
X179944282Y-117238595D01*
X178721000Y-117238595D01*
X178721000Y-117014967D01*
X178658168Y-116699088D01*
X178534918Y-116401537D01*
X178355987Y-116133748D01*
X178262826Y-116040587D01*
X180630192Y-116040587D01*
X181586000Y-116996395D01*
X182541808Y-116040587D01*
X182446044Y-115776186D01*
X182156429Y-115635296D01*
X181844892Y-115553616D01*
X181523405Y-115534282D01*
X181204325Y-115578039D01*
X180899912Y-115683205D01*
X180725956Y-115776186D01*
X180630192Y-116040587D01*
X178262826Y-116040587D01*
X178128252Y-115906013D01*
X177860463Y-115727082D01*
X177848000Y-115721920D01*
X177848000Y-112130080D01*
X177860463Y-112124918D01*
X178128252Y-111945987D01*
X178262826Y-111811413D01*
X180630192Y-111811413D01*
X180725956Y-112075814D01*
X181015571Y-112216704D01*
X181327108Y-112298384D01*
X181648595Y-112317718D01*
X181967675Y-112273961D01*
X182272088Y-112168795D01*
X182446044Y-112075814D01*
X182541808Y-111811413D01*
X181586000Y-110855605D01*
X180630192Y-111811413D01*
X178262826Y-111811413D01*
X178355987Y-111718252D01*
X178534918Y-111450463D01*
X178658168Y-111152912D01*
X178721000Y-110837033D01*
X178721000Y-110738595D01*
X179944282Y-110738595D01*
X179988039Y-111057675D01*
X180093205Y-111362088D01*
X180186186Y-111536044D01*
X180450587Y-111631808D01*
X181406395Y-110676000D01*
X181765605Y-110676000D01*
X182721413Y-111631808D01*
X182985814Y-111536044D01*
X183126704Y-111246429D01*
X183208384Y-110934892D01*
X183227718Y-110613405D01*
X183183961Y-110294325D01*
X183078795Y-109989912D01*
X182985814Y-109815956D01*
X182721413Y-109720192D01*
X181765605Y-110676000D01*
X181406395Y-110676000D01*
X180450587Y-109720192D01*
X180186186Y-109815956D01*
X180045296Y-110105571D01*
X179963616Y-110417108D01*
X179944282Y-110738595D01*
X178721000Y-110738595D01*
X178721000Y-110514967D01*
X178658168Y-110199088D01*
X178534918Y-109901537D01*
X178355987Y-109633748D01*
X178262826Y-109540587D01*
X180630192Y-109540587D01*
X181586000Y-110496395D01*
X182541808Y-109540587D01*
X182446044Y-109276186D01*
X182156429Y-109135296D01*
X181844892Y-109053616D01*
X181523405Y-109034282D01*
X181204325Y-109078039D01*
X180899912Y-109183205D01*
X180725956Y-109276186D01*
X180630192Y-109540587D01*
X178262826Y-109540587D01*
X178128252Y-109406013D01*
X177860463Y-109227082D01*
X177562912Y-109103832D01*
X177247033Y-109041000D01*
X176924967Y-109041000D01*
X176609088Y-109103832D01*
X176311537Y-109227082D01*
X176043748Y-109406013D01*
X175816013Y-109633748D01*
X175637082Y-109901537D01*
X175513832Y-110199088D01*
X175451000Y-110514967D01*
X154951808Y-110514967D01*
X151158046Y-106721206D01*
X151103937Y-106640226D01*
X150959774Y-106496063D01*
X150790256Y-106382795D01*
X150601898Y-106304774D01*
X150401939Y-106265000D01*
X150198061Y-106265000D01*
X149998102Y-106304774D01*
X149809744Y-106382795D01*
X149640226Y-106496063D01*
X149496063Y-106640226D01*
X149382795Y-106809744D01*
X149304774Y-106998102D01*
X149265000Y-107198061D01*
X128085000Y-107198061D01*
X128085000Y-96798061D01*
X130315000Y-96798061D01*
X130315000Y-97001939D01*
X130354774Y-97201898D01*
X130432795Y-97390256D01*
X130546063Y-97559774D01*
X130690226Y-97703937D01*
X130859744Y-97817205D01*
X131048102Y-97895226D01*
X131248061Y-97935000D01*
X131451939Y-97935000D01*
X131651898Y-97895226D01*
X131840256Y-97817205D01*
X132009774Y-97703937D01*
X132013211Y-97700500D01*
X136547497Y-97700500D01*
X136684744Y-97792205D01*
X136873102Y-97870226D01*
X137073061Y-97910000D01*
X137276939Y-97910000D01*
X137476898Y-97870226D01*
X137665256Y-97792205D01*
X137834774Y-97678937D01*
X137978937Y-97534774D01*
X138092205Y-97365256D01*
X138170226Y-97176898D01*
X138210000Y-96976939D01*
X138210000Y-96773061D01*
X138170226Y-96573102D01*
X138092205Y-96384744D01*
X137978937Y-96215226D01*
X137873711Y-96110000D01*
X141362928Y-96110000D01*
X141362928Y-97810000D01*
X141375188Y-97934482D01*
X141411498Y-98054180D01*
X141470463Y-98164494D01*
X141549815Y-98261185D01*
X141646506Y-98340537D01*
X141756820Y-98399502D01*
X141829380Y-98421513D01*
X141697525Y-98553368D01*
X141535010Y-98796589D01*
X141423068Y-99066842D01*
X141366000Y-99353740D01*
X141366000Y-99646260D01*
X141423068Y-99933158D01*
X141535010Y-100203411D01*
X141697525Y-100446632D01*
X141904368Y-100653475D01*
X142078760Y-100770000D01*
X141904368Y-100886525D01*
X141697525Y-101093368D01*
X141535010Y-101336589D01*
X141423068Y-101606842D01*
X141366000Y-101893740D01*
X141366000Y-102186260D01*
X141423068Y-102473158D01*
X141535010Y-102743411D01*
X141697525Y-102986632D01*
X141904368Y-103193475D01*
X142078760Y-103310000D01*
X141904368Y-103426525D01*
X141697525Y-103633368D01*
X141535010Y-103876589D01*
X141423068Y-104146842D01*
X141366000Y-104433740D01*
X141366000Y-104726260D01*
X141423068Y-105013158D01*
X141535010Y-105283411D01*
X141697525Y-105526632D01*
X141904368Y-105733475D01*
X142086534Y-105855195D01*
X141969645Y-105924822D01*
X141753412Y-106119731D01*
X141579359Y-106353080D01*
X141454175Y-106615901D01*
X141409524Y-106763110D01*
X141530845Y-106993000D01*
X142724000Y-106993000D01*
X142724000Y-106973000D01*
X142978000Y-106973000D01*
X142978000Y-106993000D01*
X144171155Y-106993000D01*
X144292476Y-106763110D01*
X144247825Y-106615901D01*
X144122641Y-106353080D01*
X143948588Y-106119731D01*
X143732355Y-105924822D01*
X143615466Y-105855195D01*
X143797632Y-105733475D01*
X144004475Y-105526632D01*
X144166990Y-105283411D01*
X144278932Y-105013158D01*
X144336000Y-104726260D01*
X144336000Y-104433740D01*
X144278932Y-104146842D01*
X144166990Y-103876589D01*
X144004475Y-103633368D01*
X143797632Y-103426525D01*
X143623240Y-103310000D01*
X143797632Y-103193475D01*
X144004475Y-102986632D01*
X144166990Y-102743411D01*
X144278932Y-102473158D01*
X144336000Y-102186260D01*
X144336000Y-101893740D01*
X144278932Y-101606842D01*
X144166990Y-101336589D01*
X144004475Y-101093368D01*
X143797632Y-100886525D01*
X143623240Y-100770000D01*
X143797632Y-100653475D01*
X144004475Y-100446632D01*
X144166990Y-100203411D01*
X144278932Y-99933158D01*
X144336000Y-99646260D01*
X144336000Y-99353740D01*
X144278932Y-99066842D01*
X144166990Y-98796589D01*
X144004475Y-98553368D01*
X143872620Y-98421513D01*
X143945180Y-98399502D01*
X144055494Y-98340537D01*
X144152185Y-98261185D01*
X144231537Y-98164494D01*
X144290502Y-98054180D01*
X144326812Y-97934482D01*
X144339072Y-97810000D01*
X144339072Y-96110000D01*
X144326812Y-95985518D01*
X144290502Y-95865820D01*
X144231537Y-95755506D01*
X144152185Y-95658815D01*
X144055494Y-95579463D01*
X143945180Y-95520498D01*
X143825482Y-95484188D01*
X143701000Y-95471928D01*
X142001000Y-95471928D01*
X141876518Y-95484188D01*
X141756820Y-95520498D01*
X141646506Y-95579463D01*
X141549815Y-95658815D01*
X141470463Y-95755506D01*
X141411498Y-95865820D01*
X141375188Y-95985518D01*
X141362928Y-96110000D01*
X137873711Y-96110000D01*
X137834774Y-96071063D01*
X137665256Y-95957795D01*
X137476898Y-95879774D01*
X137276939Y-95840000D01*
X137073061Y-95840000D01*
X136873102Y-95879774D01*
X136684744Y-95957795D01*
X136547497Y-96049500D01*
X131940087Y-96049500D01*
X131840256Y-95982795D01*
X131651898Y-95904774D01*
X131451939Y-95865000D01*
X131248061Y-95865000D01*
X131048102Y-95904774D01*
X130859744Y-95982795D01*
X130690226Y-96096063D01*
X130546063Y-96240226D01*
X130432795Y-96409744D01*
X130354774Y-96598102D01*
X130315000Y-96798061D01*
X128085000Y-96798061D01*
X128085000Y-67396000D01*
X129932928Y-67396000D01*
X129932928Y-69096000D01*
X129945188Y-69220482D01*
X129981498Y-69340180D01*
X130040463Y-69450494D01*
X130119815Y-69547185D01*
X130216506Y-69626537D01*
X130326820Y-69685502D01*
X130399380Y-69707513D01*
X130267525Y-69839368D01*
X130105010Y-70082589D01*
X129993068Y-70352842D01*
X129936000Y-70639740D01*
X129936000Y-70932260D01*
X129993068Y-71219158D01*
X130105010Y-71489411D01*
X130267525Y-71732632D01*
X130474368Y-71939475D01*
X130648760Y-72056000D01*
X130474368Y-72172525D01*
X130267525Y-72379368D01*
X130105010Y-72622589D01*
X129993068Y-72892842D01*
X129936000Y-73179740D01*
X129936000Y-73472260D01*
X129993068Y-73759158D01*
X130105010Y-74029411D01*
X130267525Y-74272632D01*
X130474368Y-74479475D01*
X130717589Y-74641990D01*
X130987842Y-74753932D01*
X131274740Y-74811000D01*
X131567260Y-74811000D01*
X131854158Y-74753932D01*
X132124411Y-74641990D01*
X132367632Y-74479475D01*
X132574475Y-74272632D01*
X132692100Y-74096594D01*
X132863412Y-74326269D01*
X133079645Y-74521178D01*
X133329748Y-74670157D01*
X133604109Y-74767481D01*
X133834000Y-74646814D01*
X133834000Y-73453000D01*
X134088000Y-73453000D01*
X134088000Y-74646814D01*
X134317891Y-74767481D01*
X134592252Y-74670157D01*
X134842355Y-74521178D01*
X135058588Y-74326269D01*
X135232641Y-74092920D01*
X135357825Y-73830099D01*
X135402476Y-73682890D01*
X135281155Y-73453000D01*
X134088000Y-73453000D01*
X133834000Y-73453000D01*
X133814000Y-73453000D01*
X133814000Y-73199000D01*
X133834000Y-73199000D01*
X133834000Y-73179000D01*
X134088000Y-73179000D01*
X134088000Y-73199000D01*
X135281155Y-73199000D01*
X135402476Y-72969110D01*
X135357825Y-72821901D01*
X135232641Y-72559080D01*
X135058588Y-72325731D01*
X134842355Y-72130822D01*
X134725466Y-72061195D01*
X134907632Y-71939475D01*
X135114475Y-71732632D01*
X135276990Y-71489411D01*
X135388932Y-71219158D01*
X135446000Y-70932260D01*
X135446000Y-70639740D01*
X135388932Y-70352842D01*
X135276990Y-70082589D01*
X135114475Y-69839368D01*
X134907632Y-69632525D01*
X134733240Y-69516000D01*
X134907632Y-69399475D01*
X135114475Y-69192632D01*
X135276990Y-68949411D01*
X135388932Y-68679158D01*
X135446000Y-68392260D01*
X135446000Y-68099740D01*
X135388932Y-67812842D01*
X135276990Y-67542589D01*
X135179043Y-67396000D01*
X136790928Y-67396000D01*
X136790928Y-69096000D01*
X136803188Y-69220482D01*
X136839498Y-69340180D01*
X136898463Y-69450494D01*
X136977815Y-69547185D01*
X137074506Y-69626537D01*
X137184820Y-69685502D01*
X137257380Y-69707513D01*
X137125525Y-69839368D01*
X136963010Y-70082589D01*
X136851068Y-70352842D01*
X136794000Y-70639740D01*
X136794000Y-70932260D01*
X136851068Y-71219158D01*
X136963010Y-71489411D01*
X137125525Y-71732632D01*
X137332368Y-71939475D01*
X137506760Y-72056000D01*
X137332368Y-72172525D01*
X137125525Y-72379368D01*
X136963010Y-72622589D01*
X136851068Y-72892842D01*
X136794000Y-73179740D01*
X136794000Y-73472260D01*
X136851068Y-73759158D01*
X136963010Y-74029411D01*
X137125525Y-74272632D01*
X137332368Y-74479475D01*
X137575589Y-74641990D01*
X137845842Y-74753932D01*
X138132740Y-74811000D01*
X138425260Y-74811000D01*
X138712158Y-74753932D01*
X138982411Y-74641990D01*
X139225632Y-74479475D01*
X139432475Y-74272632D01*
X139549000Y-74098240D01*
X139665525Y-74272632D01*
X139872368Y-74479475D01*
X140115589Y-74641990D01*
X140385842Y-74753932D01*
X140672740Y-74811000D01*
X140965260Y-74811000D01*
X141252158Y-74753932D01*
X141522411Y-74641990D01*
X141765632Y-74479475D01*
X141972475Y-74272632D01*
X142134990Y-74029411D01*
X142246932Y-73759158D01*
X142304000Y-73472260D01*
X142304000Y-73179740D01*
X142246932Y-72892842D01*
X142134990Y-72622589D01*
X141972475Y-72379368D01*
X141765632Y-72172525D01*
X141746272Y-72159589D01*
X149540000Y-72159589D01*
X149540000Y-72432411D01*
X149593225Y-72699989D01*
X149697629Y-72952043D01*
X149849201Y-73178886D01*
X150042114Y-73371799D01*
X150268957Y-73523371D01*
X150521011Y-73627775D01*
X150788589Y-73681000D01*
X151061411Y-73681000D01*
X151328989Y-73627775D01*
X151581043Y-73523371D01*
X151807886Y-73371799D01*
X152000799Y-73178886D01*
X152152371Y-72952043D01*
X152256775Y-72699989D01*
X152310000Y-72432411D01*
X152310000Y-72159589D01*
X154420000Y-72159589D01*
X154420000Y-72432411D01*
X154473225Y-72699989D01*
X154577629Y-72952043D01*
X154729201Y-73178886D01*
X154922114Y-73371799D01*
X155148957Y-73523371D01*
X155401011Y-73627775D01*
X155668589Y-73681000D01*
X155941411Y-73681000D01*
X156208989Y-73627775D01*
X156461043Y-73523371D01*
X156687886Y-73371799D01*
X156880799Y-73178886D01*
X157032371Y-72952043D01*
X157136775Y-72699989D01*
X157190000Y-72432411D01*
X157190000Y-72159589D01*
X157136775Y-71892011D01*
X157032371Y-71639957D01*
X156880799Y-71413114D01*
X156687886Y-71220201D01*
X156461043Y-71068629D01*
X156208989Y-70964225D01*
X155941411Y-70911000D01*
X155668589Y-70911000D01*
X155401011Y-70964225D01*
X155148957Y-71068629D01*
X154922114Y-71220201D01*
X154729201Y-71413114D01*
X154577629Y-71639957D01*
X154473225Y-71892011D01*
X154420000Y-72159589D01*
X152310000Y-72159589D01*
X152256775Y-71892011D01*
X152152371Y-71639957D01*
X152000799Y-71413114D01*
X151807886Y-71220201D01*
X151581043Y-71068629D01*
X151328989Y-70964225D01*
X151061411Y-70911000D01*
X150788589Y-70911000D01*
X150521011Y-70964225D01*
X150268957Y-71068629D01*
X150042114Y-71220201D01*
X149849201Y-71413114D01*
X149697629Y-71639957D01*
X149593225Y-71892011D01*
X149540000Y-72159589D01*
X141746272Y-72159589D01*
X141591240Y-72056000D01*
X141765632Y-71939475D01*
X141972475Y-71732632D01*
X142134990Y-71489411D01*
X142246932Y-71219158D01*
X142304000Y-70932260D01*
X142304000Y-70639740D01*
X142246932Y-70352842D01*
X142134990Y-70082589D01*
X141972475Y-69839368D01*
X141765632Y-69632525D01*
X141591240Y-69516000D01*
X141765632Y-69399475D01*
X141972475Y-69192632D01*
X142134990Y-68949411D01*
X142246932Y-68679158D01*
X142304000Y-68392260D01*
X142304000Y-68099740D01*
X142246932Y-67812842D01*
X142134990Y-67542589D01*
X141972475Y-67299368D01*
X141765632Y-67092525D01*
X141522411Y-66930010D01*
X141252158Y-66818068D01*
X140965260Y-66761000D01*
X140672740Y-66761000D01*
X140385842Y-66818068D01*
X140115589Y-66930010D01*
X139872368Y-67092525D01*
X139740513Y-67224380D01*
X139718502Y-67151820D01*
X139659537Y-67041506D01*
X139580185Y-66944815D01*
X139483494Y-66865463D01*
X139373180Y-66806498D01*
X139253482Y-66770188D01*
X139129000Y-66757928D01*
X137429000Y-66757928D01*
X137304518Y-66770188D01*
X137184820Y-66806498D01*
X137074506Y-66865463D01*
X136977815Y-66944815D01*
X136898463Y-67041506D01*
X136839498Y-67151820D01*
X136803188Y-67271518D01*
X136790928Y-67396000D01*
X135179043Y-67396000D01*
X135114475Y-67299368D01*
X134907632Y-67092525D01*
X134664411Y-66930010D01*
X134394158Y-66818068D01*
X134107260Y-66761000D01*
X133814740Y-66761000D01*
X133527842Y-66818068D01*
X133257589Y-66930010D01*
X133014368Y-67092525D01*
X132882513Y-67224380D01*
X132860502Y-67151820D01*
X132801537Y-67041506D01*
X132722185Y-66944815D01*
X132625494Y-66865463D01*
X132515180Y-66806498D01*
X132395482Y-66770188D01*
X132271000Y-66757928D01*
X130571000Y-66757928D01*
X130446518Y-66770188D01*
X130326820Y-66806498D01*
X130216506Y-66865463D01*
X130119815Y-66944815D01*
X130040463Y-67041506D01*
X129981498Y-67151820D01*
X129945188Y-67271518D01*
X129932928Y-67396000D01*
X128085000Y-67396000D01*
X128085000Y-66498061D01*
X158040000Y-66498061D01*
X158040000Y-66701939D01*
X158079774Y-66901898D01*
X158157795Y-67090256D01*
X158271063Y-67259774D01*
X158415226Y-67403937D01*
X158584744Y-67517205D01*
X158773102Y-67595226D01*
X158973061Y-67635000D01*
X159176939Y-67635000D01*
X159272459Y-67616000D01*
X164327541Y-67616000D01*
X164423061Y-67635000D01*
X164626939Y-67635000D01*
X164826898Y-67595226D01*
X165015256Y-67517205D01*
X165184774Y-67403937D01*
X165328937Y-67259774D01*
X165442205Y-67090256D01*
X165520226Y-66901898D01*
X165560000Y-66701939D01*
X165560000Y-66498061D01*
X165520226Y-66298102D01*
X165442205Y-66109744D01*
X165328937Y-65940226D01*
X165184774Y-65796063D01*
X165015256Y-65682795D01*
X164826898Y-65604774D01*
X164626939Y-65565000D01*
X164423061Y-65565000D01*
X164327541Y-65584000D01*
X159272459Y-65584000D01*
X159176939Y-65565000D01*
X158973061Y-65565000D01*
X158773102Y-65604774D01*
X158584744Y-65682795D01*
X158415226Y-65796063D01*
X158271063Y-65940226D01*
X158157795Y-66109744D01*
X158079774Y-66298102D01*
X158040000Y-66498061D01*
X128085000Y-66498061D01*
X128085000Y-64860000D01*
X155613653Y-64860000D01*
X168102259Y-64964900D01*
M02*
