M48
; DRILL file {KiCad 5.1.5+dfsg1-2build2} date Tue 03 Nov 2020 07:00:08 PM EST
; FORMAT={-:-/ absolute / inch / decimal}
; #@! TF.CreationDate,2020-11-03T19:00:08-05:00
; #@! TF.GenerationSoftware,Kicad,Pcbnew,5.1.5+dfsg1-2build2
; #@! TF.FileFunction,Plated,1,2,PTH
FMAT,2
INCH
T1C0.0157
T2C0.0236
T3C0.0315
T4C0.0394
T5C0.0433
T6C0.0512
%
G90
G05
T1
X5.4094Y-3.8563
X5.4193Y-4.2146
X5.502Y-3.9547
X5.5846Y-4.1781
X5.5925Y-2.5743
X5.6486Y-3.7953
X5.6624Y-2.8701
X5.7224Y-4.3484
X5.7274Y-3.8002
X5.7472Y-4.2067
X5.7795Y-2.69
X5.8258Y-2.7766
X5.8776Y-4.0827
X5.8929Y-4.1228
X5.8996Y-2.8209
X5.9183Y-3.0197
X6.0049Y-4.3376
X6.0482Y-3.0285
X6.0531Y-4.2323
X6.0817Y-4.3602
X6.1024Y-4.2854
X6.1506Y-4.4026
X6.1669Y-4.0169
X6.2079Y-3.8773
X6.2299Y-3.7362
X6.2457Y-4.6272
X6.2713Y-4.2091
X6.3051Y-4.3642
X6.3868Y-4.5561
X6.3937Y-3.7382
X6.461Y-3.8768
X6.4616Y-4.3415
X6.5016Y-4.2063
X6.6201Y-3.7402
X6.6339Y-4.2648
X6.6949Y-3.9803
X6.8494Y-3.8789
X6.9478Y-3.0679
X7.0049Y-3.875
X7.1634Y-3.8848
T4
X6.9343Y-2.6969
X6.9343Y-2.7969
X7.0343Y-2.6969
X7.0343Y-2.7969
X7.1343Y-2.6969
X7.1343Y-2.7969
X6.0571Y-2.6969
X6.0571Y-2.7969
X6.1571Y-2.6969
X6.1571Y-2.7969
X6.2571Y-2.6969
X6.2571Y-2.7969
X6.4957Y-2.6969
X6.4957Y-2.7969
X6.5957Y-2.6969
X6.5957Y-2.7969
X6.6957Y-2.6969
X6.6957Y-2.7969
X5.2618Y-2.6972
X5.2618Y-2.7972
X5.3618Y-2.6972
X5.3618Y-2.7972
X5.4618Y-2.6972
X5.4618Y-2.7972
T5
X6.839Y-4.4622
X6.839Y-4.6394
X7.0949Y-4.4622
X7.0949Y-4.6394
T6
X6.3934Y-3.2263
T2
G00X5.1665Y-3.8622
M15
G01X5.1429Y-3.8622
M16
G05
G00X5.1665Y-4.2024
M15
G01X5.1429Y-4.2024
M16
G05
G00X5.3409Y-3.8622
M15
G01X5.2976Y-3.8622
M16
G05
G00X5.3409Y-4.2024
M15
G01X5.2976Y-4.2024
M16
G05
T3
G00X5.4934Y-3.2165
M15
G01X5.4934Y-3.2362
M16
G05
G00X5.4934Y-3.5165
M15
G01X5.4934Y-3.5362
M16
G05
G00X5.5934Y-3.2165
M15
G01X5.5934Y-3.2362
M16
G05
G00X5.5934Y-3.5165
M15
G01X5.5934Y-3.5362
M16
G05
G00X5.6934Y-3.2165
M15
G01X5.6934Y-3.2362
M16
G05
G00X5.6934Y-3.5165
M15
G01X5.6934Y-3.5362
M16
G05
G00X5.7934Y-3.2165
M15
G01X5.7934Y-3.2362
M16
G05
G00X5.7934Y-3.5165
M15
G01X5.7934Y-3.5362
M16
G05
G00X5.8934Y-3.2165
M15
G01X5.8934Y-3.2362
M16
G05
G00X5.8934Y-3.5165
M15
G01X5.8934Y-3.5362
M16
G05
G00X5.9934Y-3.2165
M15
G01X5.9934Y-3.2362
M16
G05
G00X5.9934Y-3.5165
M15
G01X5.9934Y-3.5362
M16
G05
G00X6.0934Y-3.2165
M15
G01X6.0934Y-3.2362
M16
G05
G00X6.0934Y-3.5165
M15
G01X6.0934Y-3.5362
M16
G05
G00X6.1934Y-3.2165
M15
G01X6.1934Y-3.2362
M16
G05
G00X6.1934Y-3.5165
M15
G01X6.1934Y-3.5362
M16
G05
G00X6.2934Y-3.2165
M15
G01X6.2934Y-3.2362
M16
G05
G00X6.2934Y-3.5165
M15
G01X6.2934Y-3.5362
M16
G05
G00X6.3934Y-3.5165
M15
G01X6.3934Y-3.5362
M16
G05
G00X6.4934Y-3.2165
M15
G01X6.4934Y-3.2362
M16
G05
G00X6.4934Y-3.5165
M15
G01X6.4934Y-3.5362
M16
G05
G00X6.5934Y-3.2165
M15
G01X6.5934Y-3.2362
M16
G05
G00X6.5934Y-3.5165
M15
G01X6.5934Y-3.5362
M16
G05
G00X6.6934Y-3.2165
M15
G01X6.6934Y-3.2362
M16
G05
G00X6.6934Y-3.5165
M15
G01X6.6934Y-3.5362
M16
G05
G00X6.7934Y-3.2165
M15
G01X6.7934Y-3.2362
M16
G05
G00X6.7934Y-3.5165
M15
G01X6.7934Y-3.5362
M16
G05
T0
M30
