G04 #@! TF.GenerationSoftware,KiCad,Pcbnew,5.1.5+dfsg1-2build2*
G04 #@! TF.CreationDate,2020-09-10T12:50:31-04:00*
G04 #@! TF.ProjectId,multi-avr,6d756c74-692d-4617-9672-2e6b69636164,rev?*
G04 #@! TF.SameCoordinates,Original*
G04 #@! TF.FileFunction,Legend,Top*
G04 #@! TF.FilePolarity,Positive*
%FSLAX46Y46*%
G04 Gerber Fmt 4.6, Leading zero omitted, Abs format (unit mm)*
G04 Created by KiCad (PCBNEW 5.1.5+dfsg1-2build2) date 2020-09-10 12:50:31*
%MOMM*%
%LPD*%
G04 APERTURE LIST*
%ADD10C,0.120000*%
%ADD11C,0.127000*%
%ADD12C,0.150000*%
G04 APERTURE END LIST*
D10*
X144925000Y-68850000D02*
X144925000Y-65700000D01*
X145250000Y-68850000D02*
X144925000Y-68850000D01*
X156500000Y-68850000D02*
X145250000Y-68850000D01*
X156500000Y-65775000D02*
X156500000Y-68850000D01*
X144950000Y-65700000D02*
X156500000Y-65775000D01*
D11*
X145670809Y-66492428D02*
X145646619Y-66516619D01*
X145574047Y-66540809D01*
X145525666Y-66540809D01*
X145453095Y-66516619D01*
X145404714Y-66468238D01*
X145380523Y-66419857D01*
X145356333Y-66323095D01*
X145356333Y-66250523D01*
X145380523Y-66153761D01*
X145404714Y-66105380D01*
X145453095Y-66057000D01*
X145525666Y-66032809D01*
X145574047Y-66032809D01*
X145646619Y-66057000D01*
X145670809Y-66081190D01*
X145961095Y-66540809D02*
X145912714Y-66516619D01*
X145888523Y-66492428D01*
X145864333Y-66444047D01*
X145864333Y-66298904D01*
X145888523Y-66250523D01*
X145912714Y-66226333D01*
X145961095Y-66202142D01*
X146033666Y-66202142D01*
X146082047Y-66226333D01*
X146106238Y-66250523D01*
X146130428Y-66298904D01*
X146130428Y-66444047D01*
X146106238Y-66492428D01*
X146082047Y-66516619D01*
X146033666Y-66540809D01*
X145961095Y-66540809D01*
X146348142Y-66202142D02*
X146348142Y-66540809D01*
X146348142Y-66250523D02*
X146372333Y-66226333D01*
X146420714Y-66202142D01*
X146493285Y-66202142D01*
X146541666Y-66226333D01*
X146565857Y-66274714D01*
X146565857Y-66540809D01*
X146807761Y-66202142D02*
X146807761Y-66540809D01*
X146807761Y-66250523D02*
X146831952Y-66226333D01*
X146880333Y-66202142D01*
X146952904Y-66202142D01*
X147001285Y-66226333D01*
X147025476Y-66274714D01*
X147025476Y-66540809D01*
X147460904Y-66516619D02*
X147412523Y-66540809D01*
X147315761Y-66540809D01*
X147267380Y-66516619D01*
X147243190Y-66468238D01*
X147243190Y-66274714D01*
X147267380Y-66226333D01*
X147315761Y-66202142D01*
X147412523Y-66202142D01*
X147460904Y-66226333D01*
X147485095Y-66274714D01*
X147485095Y-66323095D01*
X147243190Y-66371476D01*
X147920523Y-66516619D02*
X147872142Y-66540809D01*
X147775380Y-66540809D01*
X147727000Y-66516619D01*
X147702809Y-66492428D01*
X147678619Y-66444047D01*
X147678619Y-66298904D01*
X147702809Y-66250523D01*
X147727000Y-66226333D01*
X147775380Y-66202142D01*
X147872142Y-66202142D01*
X147920523Y-66226333D01*
X148065666Y-66202142D02*
X148259190Y-66202142D01*
X148138238Y-66032809D02*
X148138238Y-66468238D01*
X148162428Y-66516619D01*
X148210809Y-66540809D01*
X148259190Y-66540809D01*
X149033285Y-66516619D02*
X148984904Y-66540809D01*
X148888142Y-66540809D01*
X148839761Y-66516619D01*
X148815571Y-66492428D01*
X148791380Y-66444047D01*
X148791380Y-66298904D01*
X148815571Y-66250523D01*
X148839761Y-66226333D01*
X148888142Y-66202142D01*
X148984904Y-66202142D01*
X149033285Y-66226333D01*
X149468714Y-66540809D02*
X149468714Y-66274714D01*
X149444523Y-66226333D01*
X149396142Y-66202142D01*
X149299380Y-66202142D01*
X149251000Y-66226333D01*
X149468714Y-66516619D02*
X149420333Y-66540809D01*
X149299380Y-66540809D01*
X149251000Y-66516619D01*
X149226809Y-66468238D01*
X149226809Y-66419857D01*
X149251000Y-66371476D01*
X149299380Y-66347285D01*
X149420333Y-66347285D01*
X149468714Y-66323095D01*
X149710619Y-66540809D02*
X149710619Y-66032809D01*
X149710619Y-66226333D02*
X149759000Y-66202142D01*
X149855761Y-66202142D01*
X149904142Y-66226333D01*
X149928333Y-66250523D01*
X149952523Y-66298904D01*
X149952523Y-66444047D01*
X149928333Y-66492428D01*
X149904142Y-66516619D01*
X149855761Y-66540809D01*
X149759000Y-66540809D01*
X149710619Y-66516619D01*
X150242809Y-66540809D02*
X150194428Y-66516619D01*
X150170238Y-66468238D01*
X150170238Y-66032809D01*
X150629857Y-66516619D02*
X150581476Y-66540809D01*
X150484714Y-66540809D01*
X150436333Y-66516619D01*
X150412142Y-66468238D01*
X150412142Y-66274714D01*
X150436333Y-66226333D01*
X150484714Y-66202142D01*
X150581476Y-66202142D01*
X150629857Y-66226333D01*
X150654047Y-66274714D01*
X150654047Y-66323095D01*
X150412142Y-66371476D01*
X151186238Y-66202142D02*
X151379761Y-66202142D01*
X151258809Y-66540809D02*
X151258809Y-66105380D01*
X151283000Y-66057000D01*
X151331380Y-66032809D01*
X151379761Y-66032809D01*
X151549095Y-66540809D02*
X151549095Y-66202142D01*
X151549095Y-66298904D02*
X151573285Y-66250523D01*
X151597476Y-66226333D01*
X151645857Y-66202142D01*
X151694238Y-66202142D01*
X151936142Y-66540809D02*
X151887761Y-66516619D01*
X151863571Y-66492428D01*
X151839380Y-66444047D01*
X151839380Y-66298904D01*
X151863571Y-66250523D01*
X151887761Y-66226333D01*
X151936142Y-66202142D01*
X152008714Y-66202142D01*
X152057095Y-66226333D01*
X152081285Y-66250523D01*
X152105476Y-66298904D01*
X152105476Y-66444047D01*
X152081285Y-66492428D01*
X152057095Y-66516619D01*
X152008714Y-66540809D01*
X151936142Y-66540809D01*
X152323190Y-66540809D02*
X152323190Y-66202142D01*
X152323190Y-66250523D02*
X152347380Y-66226333D01*
X152395761Y-66202142D01*
X152468333Y-66202142D01*
X152516714Y-66226333D01*
X152540904Y-66274714D01*
X152540904Y-66540809D01*
X152540904Y-66274714D02*
X152565095Y-66226333D01*
X152613476Y-66202142D01*
X152686047Y-66202142D01*
X152734428Y-66226333D01*
X152758619Y-66274714D01*
X152758619Y-66540809D01*
X153363380Y-66516619D02*
X153435952Y-66540809D01*
X153556904Y-66540809D01*
X153605285Y-66516619D01*
X153629476Y-66492428D01*
X153653666Y-66444047D01*
X153653666Y-66395666D01*
X153629476Y-66347285D01*
X153605285Y-66323095D01*
X153556904Y-66298904D01*
X153460142Y-66274714D01*
X153411761Y-66250523D01*
X153387571Y-66226333D01*
X153363380Y-66177952D01*
X153363380Y-66129571D01*
X153387571Y-66081190D01*
X153411761Y-66057000D01*
X153460142Y-66032809D01*
X153581095Y-66032809D01*
X153653666Y-66057000D01*
X153968142Y-66032809D02*
X154064904Y-66032809D01*
X154113285Y-66057000D01*
X154161666Y-66105380D01*
X154185857Y-66202142D01*
X154185857Y-66371476D01*
X154161666Y-66468238D01*
X154113285Y-66516619D01*
X154064904Y-66540809D01*
X153968142Y-66540809D01*
X153919761Y-66516619D01*
X153871380Y-66468238D01*
X153847190Y-66371476D01*
X153847190Y-66202142D01*
X153871380Y-66105380D01*
X153919761Y-66057000D01*
X153968142Y-66032809D01*
X154403571Y-66032809D02*
X154403571Y-66444047D01*
X154427761Y-66492428D01*
X154451952Y-66516619D01*
X154500333Y-66540809D01*
X154597095Y-66540809D01*
X154645476Y-66516619D01*
X154669666Y-66492428D01*
X154693857Y-66444047D01*
X154693857Y-66032809D01*
X155226047Y-66540809D02*
X155056714Y-66298904D01*
X154935761Y-66540809D02*
X154935761Y-66032809D01*
X155129285Y-66032809D01*
X155177666Y-66057000D01*
X155201857Y-66081190D01*
X155226047Y-66129571D01*
X155226047Y-66202142D01*
X155201857Y-66250523D01*
X155177666Y-66274714D01*
X155129285Y-66298904D01*
X154935761Y-66298904D01*
X155734047Y-66492428D02*
X155709857Y-66516619D01*
X155637285Y-66540809D01*
X155588904Y-66540809D01*
X155516333Y-66516619D01*
X155467952Y-66468238D01*
X155443761Y-66419857D01*
X155419571Y-66323095D01*
X155419571Y-66250523D01*
X155443761Y-66153761D01*
X155467952Y-66105380D01*
X155516333Y-66057000D01*
X155588904Y-66032809D01*
X155637285Y-66032809D01*
X155709857Y-66057000D01*
X155734047Y-66081190D01*
X155951761Y-66274714D02*
X156121095Y-66274714D01*
X156193666Y-66540809D02*
X155951761Y-66540809D01*
X155951761Y-66032809D01*
X156193666Y-66032809D01*
X146771476Y-67091142D02*
X146965000Y-67091142D01*
X146844047Y-66921809D02*
X146844047Y-67357238D01*
X146868238Y-67405619D01*
X146916619Y-67429809D01*
X146965000Y-67429809D01*
X147206904Y-67429809D02*
X147158523Y-67405619D01*
X147134333Y-67381428D01*
X147110142Y-67333047D01*
X147110142Y-67187904D01*
X147134333Y-67139523D01*
X147158523Y-67115333D01*
X147206904Y-67091142D01*
X147279476Y-67091142D01*
X147327857Y-67115333D01*
X147352047Y-67139523D01*
X147376238Y-67187904D01*
X147376238Y-67333047D01*
X147352047Y-67381428D01*
X147327857Y-67405619D01*
X147279476Y-67429809D01*
X147206904Y-67429809D01*
X148198714Y-67405619D02*
X148150333Y-67429809D01*
X148053571Y-67429809D01*
X148005190Y-67405619D01*
X147981000Y-67381428D01*
X147956809Y-67333047D01*
X147956809Y-67187904D01*
X147981000Y-67139523D01*
X148005190Y-67115333D01*
X148053571Y-67091142D01*
X148150333Y-67091142D01*
X148198714Y-67115333D01*
X148489000Y-67429809D02*
X148440619Y-67405619D01*
X148416428Y-67381428D01*
X148392238Y-67333047D01*
X148392238Y-67187904D01*
X148416428Y-67139523D01*
X148440619Y-67115333D01*
X148489000Y-67091142D01*
X148561571Y-67091142D01*
X148609952Y-67115333D01*
X148634142Y-67139523D01*
X148658333Y-67187904D01*
X148658333Y-67333047D01*
X148634142Y-67381428D01*
X148609952Y-67405619D01*
X148561571Y-67429809D01*
X148489000Y-67429809D01*
X148876047Y-67429809D02*
X148876047Y-67091142D01*
X148876047Y-67187904D02*
X148900238Y-67139523D01*
X148924428Y-67115333D01*
X148972809Y-67091142D01*
X149021190Y-67091142D01*
X149190523Y-67429809D02*
X149190523Y-67091142D01*
X149190523Y-67187904D02*
X149214714Y-67139523D01*
X149238904Y-67115333D01*
X149287285Y-67091142D01*
X149335666Y-67091142D01*
X149698523Y-67405619D02*
X149650142Y-67429809D01*
X149553380Y-67429809D01*
X149505000Y-67405619D01*
X149480809Y-67357238D01*
X149480809Y-67163714D01*
X149505000Y-67115333D01*
X149553380Y-67091142D01*
X149650142Y-67091142D01*
X149698523Y-67115333D01*
X149722714Y-67163714D01*
X149722714Y-67212095D01*
X149480809Y-67260476D01*
X150158142Y-67405619D02*
X150109761Y-67429809D01*
X150013000Y-67429809D01*
X149964619Y-67405619D01*
X149940428Y-67381428D01*
X149916238Y-67333047D01*
X149916238Y-67187904D01*
X149940428Y-67139523D01*
X149964619Y-67115333D01*
X150013000Y-67091142D01*
X150109761Y-67091142D01*
X150158142Y-67115333D01*
X150303285Y-67091142D02*
X150496809Y-67091142D01*
X150375857Y-66921809D02*
X150375857Y-67357238D01*
X150400047Y-67405619D01*
X150448428Y-67429809D01*
X150496809Y-67429809D01*
X151053190Y-67091142D02*
X151053190Y-67599142D01*
X151053190Y-67115333D02*
X151101571Y-67091142D01*
X151198333Y-67091142D01*
X151246714Y-67115333D01*
X151270904Y-67139523D01*
X151295095Y-67187904D01*
X151295095Y-67333047D01*
X151270904Y-67381428D01*
X151246714Y-67405619D01*
X151198333Y-67429809D01*
X151101571Y-67429809D01*
X151053190Y-67405619D01*
X151512809Y-67429809D02*
X151512809Y-67091142D01*
X151512809Y-66921809D02*
X151488619Y-66946000D01*
X151512809Y-66970190D01*
X151537000Y-66946000D01*
X151512809Y-66921809D01*
X151512809Y-66970190D01*
X151754714Y-67091142D02*
X151754714Y-67429809D01*
X151754714Y-67139523D02*
X151778904Y-67115333D01*
X151827285Y-67091142D01*
X151899857Y-67091142D01*
X151948238Y-67115333D01*
X151972428Y-67163714D01*
X151972428Y-67429809D01*
X152214333Y-67236285D02*
X152601380Y-67236285D01*
X153061000Y-67405619D02*
X153012619Y-67429809D01*
X152915857Y-67429809D01*
X152867476Y-67405619D01*
X152843285Y-67381428D01*
X152819095Y-67333047D01*
X152819095Y-67187904D01*
X152843285Y-67139523D01*
X152867476Y-67115333D01*
X152915857Y-67091142D01*
X153012619Y-67091142D01*
X153061000Y-67115333D01*
X153351285Y-67429809D02*
X153302904Y-67405619D01*
X153278714Y-67381428D01*
X153254523Y-67333047D01*
X153254523Y-67187904D01*
X153278714Y-67139523D01*
X153302904Y-67115333D01*
X153351285Y-67091142D01*
X153423857Y-67091142D01*
X153472238Y-67115333D01*
X153496428Y-67139523D01*
X153520619Y-67187904D01*
X153520619Y-67333047D01*
X153496428Y-67381428D01*
X153472238Y-67405619D01*
X153423857Y-67429809D01*
X153351285Y-67429809D01*
X153956047Y-67091142D02*
X153956047Y-67429809D01*
X153738333Y-67091142D02*
X153738333Y-67357238D01*
X153762523Y-67405619D01*
X153810904Y-67429809D01*
X153883476Y-67429809D01*
X153931857Y-67405619D01*
X153956047Y-67381428D01*
X154197952Y-67091142D02*
X154197952Y-67429809D01*
X154197952Y-67139523D02*
X154222142Y-67115333D01*
X154270523Y-67091142D01*
X154343095Y-67091142D01*
X154391476Y-67115333D01*
X154415666Y-67163714D01*
X154415666Y-67429809D01*
X154585000Y-67091142D02*
X154778523Y-67091142D01*
X154657571Y-66921809D02*
X154657571Y-67357238D01*
X154681761Y-67405619D01*
X154730142Y-67429809D01*
X154778523Y-67429809D01*
X149613857Y-68318809D02*
X149613857Y-67810809D01*
X149831571Y-68318809D02*
X149831571Y-68052714D01*
X149807380Y-68004333D01*
X149759000Y-67980142D01*
X149686428Y-67980142D01*
X149638047Y-68004333D01*
X149613857Y-68028523D01*
X150267000Y-68294619D02*
X150218619Y-68318809D01*
X150121857Y-68318809D01*
X150073476Y-68294619D01*
X150049285Y-68246238D01*
X150049285Y-68052714D01*
X150073476Y-68004333D01*
X150121857Y-67980142D01*
X150218619Y-67980142D01*
X150267000Y-68004333D01*
X150291190Y-68052714D01*
X150291190Y-68101095D01*
X150049285Y-68149476D01*
X150726619Y-68318809D02*
X150726619Y-68052714D01*
X150702428Y-68004333D01*
X150654047Y-67980142D01*
X150557285Y-67980142D01*
X150508904Y-68004333D01*
X150726619Y-68294619D02*
X150678238Y-68318809D01*
X150557285Y-68318809D01*
X150508904Y-68294619D01*
X150484714Y-68246238D01*
X150484714Y-68197857D01*
X150508904Y-68149476D01*
X150557285Y-68125285D01*
X150678238Y-68125285D01*
X150726619Y-68101095D01*
X151186238Y-68318809D02*
X151186238Y-67810809D01*
X151186238Y-68294619D02*
X151137857Y-68318809D01*
X151041095Y-68318809D01*
X150992714Y-68294619D01*
X150968523Y-68270428D01*
X150944333Y-68222047D01*
X150944333Y-68076904D01*
X150968523Y-68028523D01*
X150992714Y-68004333D01*
X151041095Y-67980142D01*
X151137857Y-67980142D01*
X151186238Y-68004333D01*
X151621666Y-68294619D02*
X151573285Y-68318809D01*
X151476523Y-68318809D01*
X151428142Y-68294619D01*
X151403952Y-68246238D01*
X151403952Y-68052714D01*
X151428142Y-68004333D01*
X151476523Y-67980142D01*
X151573285Y-67980142D01*
X151621666Y-68004333D01*
X151645857Y-68052714D01*
X151645857Y-68101095D01*
X151403952Y-68149476D01*
X151863571Y-68318809D02*
X151863571Y-67980142D01*
X151863571Y-68076904D02*
X151887761Y-68028523D01*
X151911952Y-68004333D01*
X151960333Y-67980142D01*
X152008714Y-67980142D01*
D10*
X179800000Y-95550000D02*
X179800000Y-106800000D01*
X171300000Y-106850000D02*
X179800000Y-106850000D01*
X171300000Y-95525000D02*
X171300000Y-106850000D01*
X179800000Y-95550000D02*
X171300000Y-95525000D01*
X173881220Y-86758600D02*
G75*
G02X173881220Y-84758600I0J1000000D01*
G01*
X173881220Y-84758600D02*
X173881220Y-83508600D01*
X173881220Y-83508600D02*
X138201220Y-83508600D01*
X138201220Y-83508600D02*
X138201220Y-88008600D01*
X138201220Y-88008600D02*
X173881220Y-88008600D01*
X173881220Y-88008600D02*
X173881220Y-86758600D01*
X175049000Y-74656000D02*
X180249000Y-74656000D01*
X175049000Y-69516000D02*
X175049000Y-74656000D01*
X180249000Y-66916000D02*
X180249000Y-74656000D01*
X175049000Y-69516000D02*
X177649000Y-69516000D01*
X177649000Y-69516000D02*
X177649000Y-66916000D01*
X177649000Y-66916000D02*
X180249000Y-66916000D01*
X175049000Y-68246000D02*
X175049000Y-66916000D01*
X175049000Y-66916000D02*
X176379000Y-66916000D01*
X163560000Y-70960000D02*
X163560000Y-66750000D01*
X160540000Y-70960000D02*
X163560000Y-70960000D01*
X160540000Y-66750000D02*
X160540000Y-70960000D01*
X147740000Y-116060000D02*
X151950000Y-116060000D01*
X147740000Y-113040000D02*
X147740000Y-116060000D01*
X151950000Y-113040000D02*
X147740000Y-113040000D01*
X172800279Y-104015000D02*
X172474721Y-104015000D01*
X172800279Y-105035000D02*
X172474721Y-105035000D01*
X177402779Y-93815000D02*
X177077221Y-93815000D01*
X177402779Y-94835000D02*
X177077221Y-94835000D01*
X177287221Y-105010000D02*
X177612779Y-105010000D01*
X177287221Y-103990000D02*
X177612779Y-103990000D01*
X172697779Y-93815000D02*
X172372221Y-93815000D01*
X172697779Y-94835000D02*
X172372221Y-94835000D01*
X168490000Y-97237221D02*
X168490000Y-97562779D01*
X169510000Y-97237221D02*
X169510000Y-97562779D01*
X179800279Y-107365000D02*
X179474721Y-107365000D01*
X179800279Y-108385000D02*
X179474721Y-108385000D01*
X147850279Y-99665000D02*
X147524721Y-99665000D01*
X147850279Y-100685000D02*
X147524721Y-100685000D01*
X147825279Y-101565000D02*
X147499721Y-101565000D01*
X147825279Y-102585000D02*
X147499721Y-102585000D01*
X176295000Y-99809000D02*
X176295000Y-102494000D01*
X178215000Y-99809000D02*
X176295000Y-99809000D01*
X178215000Y-102494000D02*
X178215000Y-99809000D01*
X146560000Y-73037779D02*
X146560000Y-72712221D01*
X145540000Y-73037779D02*
X145540000Y-72712221D01*
X160910000Y-73562779D02*
X160910000Y-73237221D01*
X159890000Y-73562779D02*
X159890000Y-73237221D01*
X149999721Y-111410000D02*
X150325279Y-111410000D01*
X149999721Y-110390000D02*
X150325279Y-110390000D01*
X151640000Y-105787221D02*
X151640000Y-106112779D01*
X152660000Y-105787221D02*
X152660000Y-106112779D01*
X152585000Y-102912779D02*
X152585000Y-102587221D01*
X151565000Y-102912779D02*
X151565000Y-102587221D01*
X160012779Y-94690000D02*
X159687221Y-94690000D01*
X160012779Y-95710000D02*
X159687221Y-95710000D01*
X157715000Y-114262221D02*
X157715000Y-114587779D01*
X158735000Y-114262221D02*
X158735000Y-114587779D01*
X165040000Y-114437221D02*
X165040000Y-114762779D01*
X166060000Y-114437221D02*
X166060000Y-114762779D01*
X155462779Y-94690000D02*
X155137221Y-94690000D01*
X155462779Y-95710000D02*
X155137221Y-95710000D01*
X146725279Y-94215000D02*
X146399721Y-94215000D01*
X146725279Y-95235000D02*
X146399721Y-95235000D01*
X168065000Y-105112221D02*
X168065000Y-105437779D01*
X169085000Y-105112221D02*
X169085000Y-105437779D01*
X159400279Y-110390000D02*
X159074721Y-110390000D01*
X159400279Y-111410000D02*
X159074721Y-111410000D01*
X164272221Y-95910000D02*
X164597779Y-95910000D01*
X164272221Y-94890000D02*
X164597779Y-94890000D01*
D12*
X155700000Y-98250000D02*
X154425000Y-98250000D01*
X166050000Y-97675000D02*
X165375000Y-97675000D01*
X166050000Y-108025000D02*
X165375000Y-108025000D01*
X155700000Y-108025000D02*
X156375000Y-108025000D01*
X155700000Y-97675000D02*
X156375000Y-97675000D01*
X155700000Y-108025000D02*
X155700000Y-107350000D01*
X166050000Y-108025000D02*
X166050000Y-107350000D01*
X166050000Y-97675000D02*
X166050000Y-98350000D01*
X155700000Y-97675000D02*
X155700000Y-98250000D01*
D10*
X141521000Y-95630000D02*
X142851000Y-95630000D01*
X141521000Y-96960000D02*
X141521000Y-95630000D01*
X141521000Y-98230000D02*
X144181000Y-98230000D01*
X144181000Y-98230000D02*
X144181000Y-110990000D01*
X141521000Y-98230000D02*
X141521000Y-110990000D01*
X141521000Y-110990000D02*
X144181000Y-110990000D01*
X178586000Y-117426000D02*
X180086000Y-117426000D01*
X182586000Y-116176000D02*
X182586000Y-111676000D01*
X180086000Y-110426000D02*
X178586000Y-110426000D01*
X176086000Y-111676000D02*
X176086000Y-116176000D01*
X171469000Y-99809000D02*
X171469000Y-102494000D01*
X173389000Y-99809000D02*
X171469000Y-99809000D01*
X173389000Y-102494000D02*
X173389000Y-99809000D01*
X173389000Y-99213000D02*
X173389000Y-96528000D01*
X171469000Y-99213000D02*
X173389000Y-99213000D01*
X171469000Y-96528000D02*
X171469000Y-99213000D01*
X178215000Y-99213000D02*
X178215000Y-96528000D01*
X176295000Y-99213000D02*
X178215000Y-99213000D01*
X176295000Y-96528000D02*
X176295000Y-99213000D01*
X136949000Y-66916000D02*
X138279000Y-66916000D01*
X136949000Y-68246000D02*
X136949000Y-66916000D01*
X139549000Y-66916000D02*
X142149000Y-66916000D01*
X139549000Y-69516000D02*
X139549000Y-66916000D01*
X136949000Y-69516000D02*
X139549000Y-69516000D01*
X142149000Y-66916000D02*
X142149000Y-74656000D01*
X136949000Y-69516000D02*
X136949000Y-74656000D01*
X136949000Y-74656000D02*
X142149000Y-74656000D01*
X166159000Y-74656000D02*
X171359000Y-74656000D01*
X166159000Y-69516000D02*
X166159000Y-74656000D01*
X171359000Y-66916000D02*
X171359000Y-74656000D01*
X166159000Y-69516000D02*
X168759000Y-69516000D01*
X168759000Y-69516000D02*
X168759000Y-66916000D01*
X168759000Y-66916000D02*
X171359000Y-66916000D01*
X166159000Y-68246000D02*
X166159000Y-66916000D01*
X166159000Y-66916000D02*
X167489000Y-66916000D01*
X130091000Y-66916000D02*
X131421000Y-66916000D01*
X130091000Y-68246000D02*
X130091000Y-66916000D01*
X132691000Y-66916000D02*
X135291000Y-66916000D01*
X132691000Y-69516000D02*
X132691000Y-66916000D01*
X130091000Y-69516000D02*
X132691000Y-69516000D01*
X135291000Y-66916000D02*
X135291000Y-74656000D01*
X130091000Y-69516000D02*
X130091000Y-74656000D01*
X130091000Y-74656000D02*
X135291000Y-74656000D01*
X148002064Y-98035000D02*
X146797936Y-98035000D01*
X148002064Y-96215000D02*
X146797936Y-96215000D01*
X156565000Y-74821000D02*
X150165000Y-74821000D01*
X156565000Y-69771000D02*
X150165000Y-69771000D01*
X156565000Y-69771000D02*
G75*
G02X156565000Y-74821000I0J-2525000D01*
G01*
X150165000Y-69771000D02*
G75*
G03X150165000Y-74821000I0J-2525000D01*
G01*
X163817000Y-116302000D02*
X163817000Y-113002000D01*
X163817000Y-113002000D02*
X159817000Y-113002000D01*
D12*
X174333600Y-86520504D02*
X175143124Y-86520504D01*
X175238362Y-86472885D01*
X175285981Y-86425266D01*
X175333600Y-86330028D01*
X175333600Y-86139552D01*
X175285981Y-86044314D01*
X175238362Y-85996695D01*
X175143124Y-85949076D01*
X174333600Y-85949076D01*
X174428839Y-85520504D02*
X174381220Y-85472885D01*
X174333600Y-85377647D01*
X174333600Y-85139552D01*
X174381220Y-85044314D01*
X174428839Y-84996695D01*
X174524077Y-84949076D01*
X174619315Y-84949076D01*
X174762172Y-84996695D01*
X175333600Y-85568123D01*
X175333600Y-84949076D01*
X175436904Y-65122619D02*
X175484523Y-65075000D01*
X175579761Y-65027380D01*
X175817857Y-65027380D01*
X175913095Y-65075000D01*
X175960714Y-65122619D01*
X176008333Y-65217857D01*
X176008333Y-65313095D01*
X175960714Y-65455952D01*
X175389285Y-66027380D01*
X176008333Y-66027380D01*
X176627380Y-65027380D02*
X176722619Y-65027380D01*
X176817857Y-65075000D01*
X176865476Y-65122619D01*
X176913095Y-65217857D01*
X176960714Y-65408333D01*
X176960714Y-65646428D01*
X176913095Y-65836904D01*
X176865476Y-65932142D01*
X176817857Y-65979761D01*
X176722619Y-66027380D01*
X176627380Y-66027380D01*
X176532142Y-65979761D01*
X176484523Y-65932142D01*
X176436904Y-65836904D01*
X176389285Y-65646428D01*
X176389285Y-65408333D01*
X176436904Y-65217857D01*
X176484523Y-65122619D01*
X176532142Y-65075000D01*
X176627380Y-65027380D01*
X178103571Y-64979761D02*
X177246428Y-66265476D01*
X178389285Y-65122619D02*
X178436904Y-65075000D01*
X178532142Y-65027380D01*
X178770238Y-65027380D01*
X178865476Y-65075000D01*
X178913095Y-65122619D01*
X178960714Y-65217857D01*
X178960714Y-65313095D01*
X178913095Y-65455952D01*
X178341666Y-66027380D01*
X178960714Y-66027380D01*
X179532142Y-65455952D02*
X179436904Y-65408333D01*
X179389285Y-65360714D01*
X179341666Y-65265476D01*
X179341666Y-65217857D01*
X179389285Y-65122619D01*
X179436904Y-65075000D01*
X179532142Y-65027380D01*
X179722619Y-65027380D01*
X179817857Y-65075000D01*
X179865476Y-65122619D01*
X179913095Y-65217857D01*
X179913095Y-65265476D01*
X179865476Y-65360714D01*
X179817857Y-65408333D01*
X179722619Y-65455952D01*
X179532142Y-65455952D01*
X179436904Y-65503571D01*
X179389285Y-65551190D01*
X179341666Y-65646428D01*
X179341666Y-65836904D01*
X179389285Y-65932142D01*
X179436904Y-65979761D01*
X179532142Y-66027380D01*
X179722619Y-66027380D01*
X179817857Y-65979761D01*
X179865476Y-65932142D01*
X179913095Y-65836904D01*
X179913095Y-65646428D01*
X179865476Y-65551190D01*
X179817857Y-65503571D01*
X179722619Y-65455952D01*
X160057142Y-69142857D02*
X160104761Y-69190476D01*
X160152380Y-69333333D01*
X160152380Y-69428571D01*
X160104761Y-69571428D01*
X160009523Y-69666666D01*
X159914285Y-69714285D01*
X159723809Y-69761904D01*
X159580952Y-69761904D01*
X159390476Y-69714285D01*
X159295238Y-69666666D01*
X159200000Y-69571428D01*
X159152380Y-69428571D01*
X159152380Y-69333333D01*
X159200000Y-69190476D01*
X159247619Y-69142857D01*
X160152380Y-68190476D02*
X160152380Y-68761904D01*
X160152380Y-68476190D02*
X159152380Y-68476190D01*
X159295238Y-68571428D01*
X159390476Y-68666666D01*
X159438095Y-68761904D01*
X159152380Y-67857142D02*
X159152380Y-67238095D01*
X159533333Y-67571428D01*
X159533333Y-67428571D01*
X159580952Y-67333333D01*
X159628571Y-67285714D01*
X159723809Y-67238095D01*
X159961904Y-67238095D01*
X160057142Y-67285714D01*
X160104761Y-67333333D01*
X160152380Y-67428571D01*
X160152380Y-67714285D01*
X160104761Y-67809523D01*
X160057142Y-67857142D01*
X149557142Y-112557142D02*
X149509523Y-112604761D01*
X149366666Y-112652380D01*
X149271428Y-112652380D01*
X149128571Y-112604761D01*
X149033333Y-112509523D01*
X148985714Y-112414285D01*
X148938095Y-112223809D01*
X148938095Y-112080952D01*
X148985714Y-111890476D01*
X149033333Y-111795238D01*
X149128571Y-111700000D01*
X149271428Y-111652380D01*
X149366666Y-111652380D01*
X149509523Y-111700000D01*
X149557142Y-111747619D01*
X150509523Y-112652380D02*
X149938095Y-112652380D01*
X150223809Y-112652380D02*
X150223809Y-111652380D01*
X150128571Y-111795238D01*
X150033333Y-111890476D01*
X149938095Y-111938095D01*
X150890476Y-111747619D02*
X150938095Y-111700000D01*
X151033333Y-111652380D01*
X151271428Y-111652380D01*
X151366666Y-111700000D01*
X151414285Y-111747619D01*
X151461904Y-111842857D01*
X151461904Y-111938095D01*
X151414285Y-112080952D01*
X150842857Y-112652380D01*
X151461904Y-112652380D01*
X172470833Y-106407380D02*
X172137500Y-105931190D01*
X171899404Y-106407380D02*
X171899404Y-105407380D01*
X172280357Y-105407380D01*
X172375595Y-105455000D01*
X172423214Y-105502619D01*
X172470833Y-105597857D01*
X172470833Y-105740714D01*
X172423214Y-105835952D01*
X172375595Y-105883571D01*
X172280357Y-105931190D01*
X171899404Y-105931190D01*
X173042261Y-105835952D02*
X172947023Y-105788333D01*
X172899404Y-105740714D01*
X172851785Y-105645476D01*
X172851785Y-105597857D01*
X172899404Y-105502619D01*
X172947023Y-105455000D01*
X173042261Y-105407380D01*
X173232738Y-105407380D01*
X173327976Y-105455000D01*
X173375595Y-105502619D01*
X173423214Y-105597857D01*
X173423214Y-105645476D01*
X173375595Y-105740714D01*
X173327976Y-105788333D01*
X173232738Y-105835952D01*
X173042261Y-105835952D01*
X172947023Y-105883571D01*
X172899404Y-105931190D01*
X172851785Y-106026428D01*
X172851785Y-106216904D01*
X172899404Y-106312142D01*
X172947023Y-106359761D01*
X173042261Y-106407380D01*
X173232738Y-106407380D01*
X173327976Y-106359761D01*
X173375595Y-106312142D01*
X173423214Y-106216904D01*
X173423214Y-106026428D01*
X173375595Y-105931190D01*
X173327976Y-105883571D01*
X173232738Y-105835952D01*
X177283333Y-93452380D02*
X176950000Y-92976190D01*
X176711904Y-93452380D02*
X176711904Y-92452380D01*
X177092857Y-92452380D01*
X177188095Y-92500000D01*
X177235714Y-92547619D01*
X177283333Y-92642857D01*
X177283333Y-92785714D01*
X177235714Y-92880952D01*
X177188095Y-92928571D01*
X177092857Y-92976190D01*
X176711904Y-92976190D01*
X177616666Y-92452380D02*
X178283333Y-92452380D01*
X177854761Y-93452380D01*
X177358333Y-106402380D02*
X177025000Y-105926190D01*
X176786904Y-106402380D02*
X176786904Y-105402380D01*
X177167857Y-105402380D01*
X177263095Y-105450000D01*
X177310714Y-105497619D01*
X177358333Y-105592857D01*
X177358333Y-105735714D01*
X177310714Y-105830952D01*
X177263095Y-105878571D01*
X177167857Y-105926190D01*
X176786904Y-105926190D01*
X178215476Y-105402380D02*
X178025000Y-105402380D01*
X177929761Y-105450000D01*
X177882142Y-105497619D01*
X177786904Y-105640476D01*
X177739285Y-105830952D01*
X177739285Y-106211904D01*
X177786904Y-106307142D01*
X177834523Y-106354761D01*
X177929761Y-106402380D01*
X178120238Y-106402380D01*
X178215476Y-106354761D01*
X178263095Y-106307142D01*
X178310714Y-106211904D01*
X178310714Y-105973809D01*
X178263095Y-105878571D01*
X178215476Y-105830952D01*
X178120238Y-105783333D01*
X177929761Y-105783333D01*
X177834523Y-105830952D01*
X177786904Y-105878571D01*
X177739285Y-105973809D01*
X172433333Y-93427380D02*
X172100000Y-92951190D01*
X171861904Y-93427380D02*
X171861904Y-92427380D01*
X172242857Y-92427380D01*
X172338095Y-92475000D01*
X172385714Y-92522619D01*
X172433333Y-92617857D01*
X172433333Y-92760714D01*
X172385714Y-92855952D01*
X172338095Y-92903571D01*
X172242857Y-92951190D01*
X171861904Y-92951190D01*
X173338095Y-92427380D02*
X172861904Y-92427380D01*
X172814285Y-92903571D01*
X172861904Y-92855952D01*
X172957142Y-92808333D01*
X173195238Y-92808333D01*
X173290476Y-92855952D01*
X173338095Y-92903571D01*
X173385714Y-92998809D01*
X173385714Y-93236904D01*
X173338095Y-93332142D01*
X173290476Y-93379761D01*
X173195238Y-93427380D01*
X172957142Y-93427380D01*
X172861904Y-93379761D01*
X172814285Y-93332142D01*
X170882380Y-97566666D02*
X170406190Y-97900000D01*
X170882380Y-98138095D02*
X169882380Y-98138095D01*
X169882380Y-97757142D01*
X169930000Y-97661904D01*
X169977619Y-97614285D01*
X170072857Y-97566666D01*
X170215714Y-97566666D01*
X170310952Y-97614285D01*
X170358571Y-97661904D01*
X170406190Y-97757142D01*
X170406190Y-98138095D01*
X170215714Y-96709523D02*
X170882380Y-96709523D01*
X169834761Y-96947619D02*
X170549047Y-97185714D01*
X170549047Y-96566666D01*
X179470833Y-109757380D02*
X179137500Y-109281190D01*
X178899404Y-109757380D02*
X178899404Y-108757380D01*
X179280357Y-108757380D01*
X179375595Y-108805000D01*
X179423214Y-108852619D01*
X179470833Y-108947857D01*
X179470833Y-109090714D01*
X179423214Y-109185952D01*
X179375595Y-109233571D01*
X179280357Y-109281190D01*
X178899404Y-109281190D01*
X179804166Y-108757380D02*
X180423214Y-108757380D01*
X180089880Y-109138333D01*
X180232738Y-109138333D01*
X180327976Y-109185952D01*
X180375595Y-109233571D01*
X180423214Y-109328809D01*
X180423214Y-109566904D01*
X180375595Y-109662142D01*
X180327976Y-109709761D01*
X180232738Y-109757380D01*
X179947023Y-109757380D01*
X179851785Y-109709761D01*
X179804166Y-109662142D01*
X147520833Y-102057380D02*
X147187500Y-101581190D01*
X146949404Y-102057380D02*
X146949404Y-101057380D01*
X147330357Y-101057380D01*
X147425595Y-101105000D01*
X147473214Y-101152619D01*
X147520833Y-101247857D01*
X147520833Y-101390714D01*
X147473214Y-101485952D01*
X147425595Y-101533571D01*
X147330357Y-101581190D01*
X146949404Y-101581190D01*
X147901785Y-101152619D02*
X147949404Y-101105000D01*
X148044642Y-101057380D01*
X148282738Y-101057380D01*
X148377976Y-101105000D01*
X148425595Y-101152619D01*
X148473214Y-101247857D01*
X148473214Y-101343095D01*
X148425595Y-101485952D01*
X147854166Y-102057380D01*
X148473214Y-102057380D01*
X147495833Y-103957380D02*
X147162500Y-103481190D01*
X146924404Y-103957380D02*
X146924404Y-102957380D01*
X147305357Y-102957380D01*
X147400595Y-103005000D01*
X147448214Y-103052619D01*
X147495833Y-103147857D01*
X147495833Y-103290714D01*
X147448214Y-103385952D01*
X147400595Y-103433571D01*
X147305357Y-103481190D01*
X146924404Y-103481190D01*
X148448214Y-103957380D02*
X147876785Y-103957380D01*
X148162500Y-103957380D02*
X148162500Y-102957380D01*
X148067261Y-103100238D01*
X147972023Y-103195476D01*
X147876785Y-103243095D01*
X179502380Y-102335714D02*
X178502380Y-102335714D01*
X178978571Y-102335714D02*
X178978571Y-101764285D01*
X179502380Y-101764285D02*
X178502380Y-101764285D01*
X178978571Y-100954761D02*
X179026190Y-100811904D01*
X179073809Y-100764285D01*
X179169047Y-100716666D01*
X179311904Y-100716666D01*
X179407142Y-100764285D01*
X179454761Y-100811904D01*
X179502380Y-100907142D01*
X179502380Y-101288095D01*
X178502380Y-101288095D01*
X178502380Y-100954761D01*
X178550000Y-100859523D01*
X178597619Y-100811904D01*
X178692857Y-100764285D01*
X178788095Y-100764285D01*
X178883333Y-100811904D01*
X178930952Y-100859523D01*
X178978571Y-100954761D01*
X178978571Y-101288095D01*
X144977142Y-73517857D02*
X145024761Y-73565476D01*
X145072380Y-73708333D01*
X145072380Y-73803571D01*
X145024761Y-73946428D01*
X144929523Y-74041666D01*
X144834285Y-74089285D01*
X144643809Y-74136904D01*
X144500952Y-74136904D01*
X144310476Y-74089285D01*
X144215238Y-74041666D01*
X144120000Y-73946428D01*
X144072380Y-73803571D01*
X144072380Y-73708333D01*
X144120000Y-73565476D01*
X144167619Y-73517857D01*
X145072380Y-72565476D02*
X145072380Y-73136904D01*
X145072380Y-72851190D02*
X144072380Y-72851190D01*
X144215238Y-72946428D01*
X144310476Y-73041666D01*
X144358095Y-73136904D01*
X144072380Y-71660714D02*
X144072380Y-72136904D01*
X144548571Y-72184523D01*
X144500952Y-72136904D01*
X144453333Y-72041666D01*
X144453333Y-71803571D01*
X144500952Y-71708333D01*
X144548571Y-71660714D01*
X144643809Y-71613095D01*
X144881904Y-71613095D01*
X144977142Y-71660714D01*
X145024761Y-71708333D01*
X145072380Y-71803571D01*
X145072380Y-72041666D01*
X145024761Y-72136904D01*
X144977142Y-72184523D01*
X162182142Y-74042857D02*
X162229761Y-74090476D01*
X162277380Y-74233333D01*
X162277380Y-74328571D01*
X162229761Y-74471428D01*
X162134523Y-74566666D01*
X162039285Y-74614285D01*
X161848809Y-74661904D01*
X161705952Y-74661904D01*
X161515476Y-74614285D01*
X161420238Y-74566666D01*
X161325000Y-74471428D01*
X161277380Y-74328571D01*
X161277380Y-74233333D01*
X161325000Y-74090476D01*
X161372619Y-74042857D01*
X162277380Y-73090476D02*
X162277380Y-73661904D01*
X162277380Y-73376190D02*
X161277380Y-73376190D01*
X161420238Y-73471428D01*
X161515476Y-73566666D01*
X161563095Y-73661904D01*
X161610714Y-72233333D02*
X162277380Y-72233333D01*
X161229761Y-72471428D02*
X161944047Y-72709523D01*
X161944047Y-72090476D01*
X149519642Y-109827142D02*
X149472023Y-109874761D01*
X149329166Y-109922380D01*
X149233928Y-109922380D01*
X149091071Y-109874761D01*
X148995833Y-109779523D01*
X148948214Y-109684285D01*
X148900595Y-109493809D01*
X148900595Y-109350952D01*
X148948214Y-109160476D01*
X148995833Y-109065238D01*
X149091071Y-108970000D01*
X149233928Y-108922380D01*
X149329166Y-108922380D01*
X149472023Y-108970000D01*
X149519642Y-109017619D01*
X150472023Y-109922380D02*
X149900595Y-109922380D01*
X150186309Y-109922380D02*
X150186309Y-108922380D01*
X150091071Y-109065238D01*
X149995833Y-109160476D01*
X149900595Y-109208095D01*
X151424404Y-109922380D02*
X150852976Y-109922380D01*
X151138690Y-109922380D02*
X151138690Y-108922380D01*
X151043452Y-109065238D01*
X150948214Y-109160476D01*
X150852976Y-109208095D01*
X153937142Y-106592857D02*
X153984761Y-106640476D01*
X154032380Y-106783333D01*
X154032380Y-106878571D01*
X153984761Y-107021428D01*
X153889523Y-107116666D01*
X153794285Y-107164285D01*
X153603809Y-107211904D01*
X153460952Y-107211904D01*
X153270476Y-107164285D01*
X153175238Y-107116666D01*
X153080000Y-107021428D01*
X153032380Y-106878571D01*
X153032380Y-106783333D01*
X153080000Y-106640476D01*
X153127619Y-106592857D01*
X154032380Y-105640476D02*
X154032380Y-106211904D01*
X154032380Y-105926190D02*
X153032380Y-105926190D01*
X153175238Y-106021428D01*
X153270476Y-106116666D01*
X153318095Y-106211904D01*
X153032380Y-105021428D02*
X153032380Y-104926190D01*
X153080000Y-104830952D01*
X153127619Y-104783333D01*
X153222857Y-104735714D01*
X153413333Y-104688095D01*
X153651428Y-104688095D01*
X153841904Y-104735714D01*
X153937142Y-104783333D01*
X153984761Y-104830952D01*
X154032380Y-104926190D01*
X154032380Y-105021428D01*
X153984761Y-105116666D01*
X153937142Y-105164285D01*
X153841904Y-105211904D01*
X153651428Y-105259523D01*
X153413333Y-105259523D01*
X153222857Y-105211904D01*
X153127619Y-105164285D01*
X153080000Y-105116666D01*
X153032380Y-105021428D01*
X151002142Y-102916666D02*
X151049761Y-102964285D01*
X151097380Y-103107142D01*
X151097380Y-103202380D01*
X151049761Y-103345238D01*
X150954523Y-103440476D01*
X150859285Y-103488095D01*
X150668809Y-103535714D01*
X150525952Y-103535714D01*
X150335476Y-103488095D01*
X150240238Y-103440476D01*
X150145000Y-103345238D01*
X150097380Y-103202380D01*
X150097380Y-103107142D01*
X150145000Y-102964285D01*
X150192619Y-102916666D01*
X151097380Y-102440476D02*
X151097380Y-102250000D01*
X151049761Y-102154761D01*
X151002142Y-102107142D01*
X150859285Y-102011904D01*
X150668809Y-101964285D01*
X150287857Y-101964285D01*
X150192619Y-102011904D01*
X150145000Y-102059523D01*
X150097380Y-102154761D01*
X150097380Y-102345238D01*
X150145000Y-102440476D01*
X150192619Y-102488095D01*
X150287857Y-102535714D01*
X150525952Y-102535714D01*
X150621190Y-102488095D01*
X150668809Y-102440476D01*
X150716428Y-102345238D01*
X150716428Y-102154761D01*
X150668809Y-102059523D01*
X150621190Y-102011904D01*
X150525952Y-101964285D01*
X159683333Y-96987142D02*
X159635714Y-97034761D01*
X159492857Y-97082380D01*
X159397619Y-97082380D01*
X159254761Y-97034761D01*
X159159523Y-96939523D01*
X159111904Y-96844285D01*
X159064285Y-96653809D01*
X159064285Y-96510952D01*
X159111904Y-96320476D01*
X159159523Y-96225238D01*
X159254761Y-96130000D01*
X159397619Y-96082380D01*
X159492857Y-96082380D01*
X159635714Y-96130000D01*
X159683333Y-96177619D01*
X160254761Y-96510952D02*
X160159523Y-96463333D01*
X160111904Y-96415714D01*
X160064285Y-96320476D01*
X160064285Y-96272857D01*
X160111904Y-96177619D01*
X160159523Y-96130000D01*
X160254761Y-96082380D01*
X160445238Y-96082380D01*
X160540476Y-96130000D01*
X160588095Y-96177619D01*
X160635714Y-96272857D01*
X160635714Y-96320476D01*
X160588095Y-96415714D01*
X160540476Y-96463333D01*
X160445238Y-96510952D01*
X160254761Y-96510952D01*
X160159523Y-96558571D01*
X160111904Y-96606190D01*
X160064285Y-96701428D01*
X160064285Y-96891904D01*
X160111904Y-96987142D01*
X160159523Y-97034761D01*
X160254761Y-97082380D01*
X160445238Y-97082380D01*
X160540476Y-97034761D01*
X160588095Y-96987142D01*
X160635714Y-96891904D01*
X160635714Y-96701428D01*
X160588095Y-96606190D01*
X160540476Y-96558571D01*
X160445238Y-96510952D01*
X160012142Y-114591666D02*
X160059761Y-114639285D01*
X160107380Y-114782142D01*
X160107380Y-114877380D01*
X160059761Y-115020238D01*
X159964523Y-115115476D01*
X159869285Y-115163095D01*
X159678809Y-115210714D01*
X159535952Y-115210714D01*
X159345476Y-115163095D01*
X159250238Y-115115476D01*
X159155000Y-115020238D01*
X159107380Y-114877380D01*
X159107380Y-114782142D01*
X159155000Y-114639285D01*
X159202619Y-114591666D01*
X159107380Y-114258333D02*
X159107380Y-113591666D01*
X160107380Y-114020238D01*
X167337142Y-114766666D02*
X167384761Y-114814285D01*
X167432380Y-114957142D01*
X167432380Y-115052380D01*
X167384761Y-115195238D01*
X167289523Y-115290476D01*
X167194285Y-115338095D01*
X167003809Y-115385714D01*
X166860952Y-115385714D01*
X166670476Y-115338095D01*
X166575238Y-115290476D01*
X166480000Y-115195238D01*
X166432380Y-115052380D01*
X166432380Y-114957142D01*
X166480000Y-114814285D01*
X166527619Y-114766666D01*
X166432380Y-113909523D02*
X166432380Y-114100000D01*
X166480000Y-114195238D01*
X166527619Y-114242857D01*
X166670476Y-114338095D01*
X166860952Y-114385714D01*
X167241904Y-114385714D01*
X167337142Y-114338095D01*
X167384761Y-114290476D01*
X167432380Y-114195238D01*
X167432380Y-114004761D01*
X167384761Y-113909523D01*
X167337142Y-113861904D01*
X167241904Y-113814285D01*
X167003809Y-113814285D01*
X166908571Y-113861904D01*
X166860952Y-113909523D01*
X166813333Y-114004761D01*
X166813333Y-114195238D01*
X166860952Y-114290476D01*
X166908571Y-114338095D01*
X167003809Y-114385714D01*
X155133333Y-96987142D02*
X155085714Y-97034761D01*
X154942857Y-97082380D01*
X154847619Y-97082380D01*
X154704761Y-97034761D01*
X154609523Y-96939523D01*
X154561904Y-96844285D01*
X154514285Y-96653809D01*
X154514285Y-96510952D01*
X154561904Y-96320476D01*
X154609523Y-96225238D01*
X154704761Y-96130000D01*
X154847619Y-96082380D01*
X154942857Y-96082380D01*
X155085714Y-96130000D01*
X155133333Y-96177619D01*
X156038095Y-96082380D02*
X155561904Y-96082380D01*
X155514285Y-96558571D01*
X155561904Y-96510952D01*
X155657142Y-96463333D01*
X155895238Y-96463333D01*
X155990476Y-96510952D01*
X156038095Y-96558571D01*
X156085714Y-96653809D01*
X156085714Y-96891904D01*
X156038095Y-96987142D01*
X155990476Y-97034761D01*
X155895238Y-97082380D01*
X155657142Y-97082380D01*
X155561904Y-97034761D01*
X155514285Y-96987142D01*
X146708333Y-92607142D02*
X146660714Y-92654761D01*
X146517857Y-92702380D01*
X146422619Y-92702380D01*
X146279761Y-92654761D01*
X146184523Y-92559523D01*
X146136904Y-92464285D01*
X146089285Y-92273809D01*
X146089285Y-92130952D01*
X146136904Y-91940476D01*
X146184523Y-91845238D01*
X146279761Y-91750000D01*
X146422619Y-91702380D01*
X146517857Y-91702380D01*
X146660714Y-91750000D01*
X146708333Y-91797619D01*
X147565476Y-92035714D02*
X147565476Y-92702380D01*
X147327380Y-91654761D02*
X147089285Y-92369047D01*
X147708333Y-92369047D01*
X168932142Y-103116666D02*
X168979761Y-103164285D01*
X169027380Y-103307142D01*
X169027380Y-103402380D01*
X168979761Y-103545238D01*
X168884523Y-103640476D01*
X168789285Y-103688095D01*
X168598809Y-103735714D01*
X168455952Y-103735714D01*
X168265476Y-103688095D01*
X168170238Y-103640476D01*
X168075000Y-103545238D01*
X168027380Y-103402380D01*
X168027380Y-103307142D01*
X168075000Y-103164285D01*
X168122619Y-103116666D01*
X168027380Y-102783333D02*
X168027380Y-102164285D01*
X168408333Y-102497619D01*
X168408333Y-102354761D01*
X168455952Y-102259523D01*
X168503571Y-102211904D01*
X168598809Y-102164285D01*
X168836904Y-102164285D01*
X168932142Y-102211904D01*
X168979761Y-102259523D01*
X169027380Y-102354761D01*
X169027380Y-102640476D01*
X168979761Y-102735714D01*
X168932142Y-102783333D01*
X159070833Y-112687142D02*
X159023214Y-112734761D01*
X158880357Y-112782380D01*
X158785119Y-112782380D01*
X158642261Y-112734761D01*
X158547023Y-112639523D01*
X158499404Y-112544285D01*
X158451785Y-112353809D01*
X158451785Y-112210952D01*
X158499404Y-112020476D01*
X158547023Y-111925238D01*
X158642261Y-111830000D01*
X158785119Y-111782380D01*
X158880357Y-111782380D01*
X159023214Y-111830000D01*
X159070833Y-111877619D01*
X159451785Y-111877619D02*
X159499404Y-111830000D01*
X159594642Y-111782380D01*
X159832738Y-111782380D01*
X159927976Y-111830000D01*
X159975595Y-111877619D01*
X160023214Y-111972857D01*
X160023214Y-112068095D01*
X159975595Y-112210952D01*
X159404166Y-112782380D01*
X160023214Y-112782380D01*
X164268333Y-94327142D02*
X164220714Y-94374761D01*
X164077857Y-94422380D01*
X163982619Y-94422380D01*
X163839761Y-94374761D01*
X163744523Y-94279523D01*
X163696904Y-94184285D01*
X163649285Y-93993809D01*
X163649285Y-93850952D01*
X163696904Y-93660476D01*
X163744523Y-93565238D01*
X163839761Y-93470000D01*
X163982619Y-93422380D01*
X164077857Y-93422380D01*
X164220714Y-93470000D01*
X164268333Y-93517619D01*
X165220714Y-94422380D02*
X164649285Y-94422380D01*
X164935000Y-94422380D02*
X164935000Y-93422380D01*
X164839761Y-93565238D01*
X164744523Y-93660476D01*
X164649285Y-93708095D01*
X160113095Y-94852380D02*
X160113095Y-95661904D01*
X160160714Y-95757142D01*
X160208333Y-95804761D01*
X160303571Y-95852380D01*
X160494047Y-95852380D01*
X160589285Y-95804761D01*
X160636904Y-95757142D01*
X160684523Y-95661904D01*
X160684523Y-94852380D01*
X161684523Y-95852380D02*
X161113095Y-95852380D01*
X161398809Y-95852380D02*
X161398809Y-94852380D01*
X161303571Y-94995238D01*
X161208333Y-95090476D01*
X161113095Y-95138095D01*
X142517666Y-94082380D02*
X142517666Y-94796666D01*
X142470047Y-94939523D01*
X142374809Y-95034761D01*
X142231952Y-95082380D01*
X142136714Y-95082380D01*
X143517666Y-95082380D02*
X142946238Y-95082380D01*
X143231952Y-95082380D02*
X143231952Y-94082380D01*
X143136714Y-94225238D01*
X143041476Y-94320476D01*
X142946238Y-94368095D01*
X183990761Y-115259333D02*
X184038380Y-115116476D01*
X184038380Y-114878380D01*
X183990761Y-114783142D01*
X183943142Y-114735523D01*
X183847904Y-114687904D01*
X183752666Y-114687904D01*
X183657428Y-114735523D01*
X183609809Y-114783142D01*
X183562190Y-114878380D01*
X183514571Y-115068857D01*
X183466952Y-115164095D01*
X183419333Y-115211714D01*
X183324095Y-115259333D01*
X183228857Y-115259333D01*
X183133619Y-115211714D01*
X183086000Y-115164095D01*
X183038380Y-115068857D01*
X183038380Y-114830761D01*
X183086000Y-114687904D01*
X183038380Y-114354571D02*
X184038380Y-114116476D01*
X183324095Y-113926000D01*
X184038380Y-113735523D01*
X183038380Y-113497428D01*
X184038380Y-112592666D02*
X184038380Y-113164095D01*
X184038380Y-112878380D02*
X183038380Y-112878380D01*
X183181238Y-112973619D01*
X183276476Y-113068857D01*
X183324095Y-113164095D01*
X174778571Y-104770238D02*
X174826190Y-104627380D01*
X174873809Y-104579761D01*
X174969047Y-104532142D01*
X175111904Y-104532142D01*
X175207142Y-104579761D01*
X175254761Y-104627380D01*
X175302380Y-104722619D01*
X175302380Y-105103571D01*
X174302380Y-105103571D01*
X174302380Y-104770238D01*
X174350000Y-104675000D01*
X174397619Y-104627380D01*
X174492857Y-104579761D01*
X174588095Y-104579761D01*
X174683333Y-104627380D01*
X174730952Y-104675000D01*
X174778571Y-104770238D01*
X174778571Y-105103571D01*
X175302380Y-103627380D02*
X175302380Y-104103571D01*
X174302380Y-104103571D01*
X175302380Y-103294047D02*
X174302380Y-103294047D01*
X175302380Y-102817857D02*
X174302380Y-102817857D01*
X175302380Y-102246428D01*
X174302380Y-102246428D01*
X175302380Y-101770238D02*
X174302380Y-101770238D01*
X175302380Y-101198809D02*
X174730952Y-101627380D01*
X174302380Y-101198809D02*
X174873809Y-101770238D01*
X175302380Y-98336904D02*
X174302380Y-98336904D01*
X174302380Y-97955952D01*
X174350000Y-97860714D01*
X174397619Y-97813095D01*
X174492857Y-97765476D01*
X174635714Y-97765476D01*
X174730952Y-97813095D01*
X174778571Y-97860714D01*
X174826190Y-97955952D01*
X174826190Y-98336904D01*
X175302380Y-96765476D02*
X174826190Y-97098809D01*
X175302380Y-97336904D02*
X174302380Y-97336904D01*
X174302380Y-96955952D01*
X174350000Y-96860714D01*
X174397619Y-96813095D01*
X174492857Y-96765476D01*
X174635714Y-96765476D01*
X174730952Y-96813095D01*
X174778571Y-96860714D01*
X174826190Y-96955952D01*
X174826190Y-97336904D01*
X174350000Y-95813095D02*
X174302380Y-95908333D01*
X174302380Y-96051190D01*
X174350000Y-96194047D01*
X174445238Y-96289285D01*
X174540476Y-96336904D01*
X174730952Y-96384523D01*
X174873809Y-96384523D01*
X175064285Y-96336904D01*
X175159523Y-96289285D01*
X175254761Y-96194047D01*
X175302380Y-96051190D01*
X175302380Y-95955952D01*
X175254761Y-95813095D01*
X175207142Y-95765476D01*
X174873809Y-95765476D01*
X174873809Y-95955952D01*
X178928571Y-98614285D02*
X178928571Y-98280952D01*
X179452380Y-98138095D02*
X179452380Y-98614285D01*
X178452380Y-98614285D01*
X178452380Y-98138095D01*
X179452380Y-97138095D02*
X178976190Y-97471428D01*
X179452380Y-97709523D02*
X178452380Y-97709523D01*
X178452380Y-97328571D01*
X178500000Y-97233333D01*
X178547619Y-97185714D01*
X178642857Y-97138095D01*
X178785714Y-97138095D01*
X178880952Y-97185714D01*
X178928571Y-97233333D01*
X178976190Y-97328571D01*
X178976190Y-97709523D01*
X179452380Y-96138095D02*
X178976190Y-96471428D01*
X179452380Y-96709523D02*
X178452380Y-96709523D01*
X178452380Y-96328571D01*
X178500000Y-96233333D01*
X178547619Y-96185714D01*
X178642857Y-96138095D01*
X178785714Y-96138095D01*
X178880952Y-96185714D01*
X178928571Y-96233333D01*
X178976190Y-96328571D01*
X178976190Y-96709523D01*
X136692857Y-65655952D02*
X136597619Y-65608333D01*
X136550000Y-65560714D01*
X136502380Y-65465476D01*
X136502380Y-65417857D01*
X136550000Y-65322619D01*
X136597619Y-65275000D01*
X136692857Y-65227380D01*
X136883333Y-65227380D01*
X136978571Y-65275000D01*
X137026190Y-65322619D01*
X137073809Y-65417857D01*
X137073809Y-65465476D01*
X137026190Y-65560714D01*
X136978571Y-65608333D01*
X136883333Y-65655952D01*
X136692857Y-65655952D01*
X136597619Y-65703571D01*
X136550000Y-65751190D01*
X136502380Y-65846428D01*
X136502380Y-66036904D01*
X136550000Y-66132142D01*
X136597619Y-66179761D01*
X136692857Y-66227380D01*
X136883333Y-66227380D01*
X136978571Y-66179761D01*
X137026190Y-66132142D01*
X137073809Y-66036904D01*
X137073809Y-65846428D01*
X137026190Y-65751190D01*
X136978571Y-65703571D01*
X136883333Y-65655952D01*
X138264285Y-66227380D02*
X138264285Y-65227380D01*
X138645238Y-65227380D01*
X138740476Y-65275000D01*
X138788095Y-65322619D01*
X138835714Y-65417857D01*
X138835714Y-65560714D01*
X138788095Y-65655952D01*
X138740476Y-65703571D01*
X138645238Y-65751190D01*
X138264285Y-65751190D01*
X139264285Y-66227380D02*
X139264285Y-65227380D01*
X139740476Y-66227380D02*
X139740476Y-65227380D01*
X140311904Y-66227380D01*
X140311904Y-65227380D01*
X141550000Y-66227380D02*
X141550000Y-65227380D01*
X142597619Y-66132142D02*
X142550000Y-66179761D01*
X142407142Y-66227380D01*
X142311904Y-66227380D01*
X142169047Y-66179761D01*
X142073809Y-66084523D01*
X142026190Y-65989285D01*
X141978571Y-65798809D01*
X141978571Y-65655952D01*
X142026190Y-65465476D01*
X142073809Y-65370238D01*
X142169047Y-65275000D01*
X142311904Y-65227380D01*
X142407142Y-65227380D01*
X142550000Y-65275000D01*
X142597619Y-65322619D01*
X165806619Y-66052380D02*
X165235190Y-66052380D01*
X165520904Y-66052380D02*
X165520904Y-65052380D01*
X165425666Y-65195238D01*
X165330428Y-65290476D01*
X165235190Y-65338095D01*
X166663761Y-65385714D02*
X166663761Y-66052380D01*
X166425666Y-65004761D02*
X166187571Y-65719047D01*
X166806619Y-65719047D01*
X167949476Y-66052380D02*
X167949476Y-65052380D01*
X168330428Y-65052380D01*
X168425666Y-65100000D01*
X168473285Y-65147619D01*
X168520904Y-65242857D01*
X168520904Y-65385714D01*
X168473285Y-65480952D01*
X168425666Y-65528571D01*
X168330428Y-65576190D01*
X167949476Y-65576190D01*
X168949476Y-66052380D02*
X168949476Y-65052380D01*
X169425666Y-66052380D02*
X169425666Y-65052380D01*
X169997095Y-66052380D01*
X169997095Y-65052380D01*
X171235190Y-66052380D02*
X171235190Y-65052380D01*
X172282809Y-65957142D02*
X172235190Y-66004761D01*
X172092333Y-66052380D01*
X171997095Y-66052380D01*
X171854238Y-66004761D01*
X171759000Y-65909523D01*
X171711380Y-65814285D01*
X171663761Y-65623809D01*
X171663761Y-65480952D01*
X171711380Y-65290476D01*
X171759000Y-65195238D01*
X171854238Y-65100000D01*
X171997095Y-65052380D01*
X172092333Y-65052380D01*
X172235190Y-65100000D01*
X172282809Y-65147619D01*
X129905285Y-66154761D02*
X130048142Y-66202380D01*
X130286238Y-66202380D01*
X130381476Y-66154761D01*
X130429095Y-66107142D01*
X130476714Y-66011904D01*
X130476714Y-65916666D01*
X130429095Y-65821428D01*
X130381476Y-65773809D01*
X130286238Y-65726190D01*
X130095761Y-65678571D01*
X130000523Y-65630952D01*
X129952904Y-65583333D01*
X129905285Y-65488095D01*
X129905285Y-65392857D01*
X129952904Y-65297619D01*
X130000523Y-65250000D01*
X130095761Y-65202380D01*
X130333857Y-65202380D01*
X130476714Y-65250000D01*
X131095761Y-65202380D02*
X131286238Y-65202380D01*
X131381476Y-65250000D01*
X131476714Y-65345238D01*
X131524333Y-65535714D01*
X131524333Y-65869047D01*
X131476714Y-66059523D01*
X131381476Y-66154761D01*
X131286238Y-66202380D01*
X131095761Y-66202380D01*
X131000523Y-66154761D01*
X130905285Y-66059523D01*
X130857666Y-65869047D01*
X130857666Y-65535714D01*
X130905285Y-65345238D01*
X131000523Y-65250000D01*
X131095761Y-65202380D01*
X131952904Y-65202380D02*
X131952904Y-66011904D01*
X132000523Y-66107142D01*
X132048142Y-66154761D01*
X132143380Y-66202380D01*
X132333857Y-66202380D01*
X132429095Y-66154761D01*
X132476714Y-66107142D01*
X132524333Y-66011904D01*
X132524333Y-65202380D01*
X133571952Y-66202380D02*
X133238619Y-65726190D01*
X133000523Y-66202380D02*
X133000523Y-65202380D01*
X133381476Y-65202380D01*
X133476714Y-65250000D01*
X133524333Y-65297619D01*
X133571952Y-65392857D01*
X133571952Y-65535714D01*
X133524333Y-65630952D01*
X133476714Y-65678571D01*
X133381476Y-65726190D01*
X133000523Y-65726190D01*
X134571952Y-66107142D02*
X134524333Y-66154761D01*
X134381476Y-66202380D01*
X134286238Y-66202380D01*
X134143380Y-66154761D01*
X134048142Y-66059523D01*
X134000523Y-65964285D01*
X133952904Y-65773809D01*
X133952904Y-65630952D01*
X134000523Y-65440476D01*
X134048142Y-65345238D01*
X134143380Y-65250000D01*
X134286238Y-65202380D01*
X134381476Y-65202380D01*
X134524333Y-65250000D01*
X134571952Y-65297619D01*
X135000523Y-65678571D02*
X135333857Y-65678571D01*
X135476714Y-66202380D02*
X135000523Y-66202380D01*
X135000523Y-65202380D01*
X135476714Y-65202380D01*
X150441666Y-97178571D02*
X150108333Y-97178571D01*
X150108333Y-97702380D02*
X150108333Y-96702380D01*
X150584523Y-96702380D01*
X151489285Y-97702380D02*
X150917857Y-97702380D01*
X151203571Y-97702380D02*
X151203571Y-96702380D01*
X151108333Y-96845238D01*
X151013095Y-96940476D01*
X150917857Y-96988095D01*
X152888809Y-75797190D02*
X152888809Y-76273380D01*
X152555476Y-75273380D02*
X152888809Y-75797190D01*
X153222142Y-75273380D01*
X153507857Y-75368619D02*
X153555476Y-75321000D01*
X153650714Y-75273380D01*
X153888809Y-75273380D01*
X153984047Y-75321000D01*
X154031666Y-75368619D01*
X154079285Y-75463857D01*
X154079285Y-75559095D01*
X154031666Y-75701952D01*
X153460238Y-76273380D01*
X154079285Y-76273380D01*
X161340809Y-117078190D02*
X161340809Y-117554380D01*
X161007476Y-116554380D02*
X161340809Y-117078190D01*
X161674142Y-116554380D01*
X162531285Y-117554380D02*
X161959857Y-117554380D01*
X162245571Y-117554380D02*
X162245571Y-116554380D01*
X162150333Y-116697238D01*
X162055095Y-116792476D01*
X161959857Y-116840095D01*
M02*
