G04 #@! TF.GenerationSoftware,KiCad,Pcbnew,5.1.5+dfsg1-2build2*
G04 #@! TF.CreationDate,2020-11-03T19:00:10-05:00*
G04 #@! TF.ProjectId,multi-avr,6d756c74-692d-4617-9672-2e6b69636164,rev?*
G04 #@! TF.SameCoordinates,Original*
G04 #@! TF.FileFunction,Legend,Top*
G04 #@! TF.FilePolarity,Positive*
%FSLAX46Y46*%
G04 Gerber Fmt 4.6, Leading zero omitted, Abs format (unit mm)*
G04 Created by KiCad (PCBNEW 5.1.5+dfsg1-2build2) date 2020-11-03 19:00:10*
%MOMM*%
%LPD*%
G04 APERTURE LIST*
%ADD10C,0.120000*%
%ADD11C,0.175000*%
%ADD12C,0.300000*%
%ADD13C,0.250000*%
%ADD14C,0.127000*%
%ADD15C,0.150000*%
G04 APERTURE END LIST*
D10*
X165975000Y-77425000D02*
X178975000Y-77425000D01*
D11*
X168025000Y-74066666D02*
X167791666Y-73733333D01*
X167625000Y-74066666D02*
X167625000Y-73366666D01*
X167891666Y-73366666D01*
X167958333Y-73400000D01*
X167991666Y-73433333D01*
X168025000Y-73500000D01*
X168025000Y-73600000D01*
X167991666Y-73666666D01*
X167958333Y-73700000D01*
X167891666Y-73733333D01*
X167625000Y-73733333D01*
X168625000Y-73600000D02*
X168625000Y-74066666D01*
X168325000Y-73600000D02*
X168325000Y-73966666D01*
X168358333Y-74033333D01*
X168425000Y-74066666D01*
X168525000Y-74066666D01*
X168591666Y-74033333D01*
X168625000Y-74000000D01*
X168958333Y-73600000D02*
X168958333Y-74066666D01*
X168958333Y-73666666D02*
X168991666Y-73633333D01*
X169058333Y-73600000D01*
X169158333Y-73600000D01*
X169225000Y-73633333D01*
X169258333Y-73700000D01*
X169258333Y-74066666D01*
X170125000Y-74066666D02*
X170125000Y-73366666D01*
X170125000Y-73633333D02*
X170191666Y-73600000D01*
X170325000Y-73600000D01*
X170391666Y-73633333D01*
X170425000Y-73666666D01*
X170458333Y-73733333D01*
X170458333Y-73933333D01*
X170425000Y-74000000D01*
X170391666Y-74033333D01*
X170325000Y-74066666D01*
X170191666Y-74066666D01*
X170125000Y-74033333D01*
X170858333Y-74066666D02*
X170791666Y-74033333D01*
X170758333Y-73966666D01*
X170758333Y-73366666D01*
X171125000Y-74066666D02*
X171125000Y-73600000D01*
X171125000Y-73366666D02*
X171091666Y-73400000D01*
X171125000Y-73433333D01*
X171158333Y-73400000D01*
X171125000Y-73366666D01*
X171125000Y-73433333D01*
X171458333Y-73600000D02*
X171458333Y-74066666D01*
X171458333Y-73666666D02*
X171491666Y-73633333D01*
X171558333Y-73600000D01*
X171658333Y-73600000D01*
X171725000Y-73633333D01*
X171758333Y-73700000D01*
X171758333Y-74066666D01*
X172091666Y-74066666D02*
X172091666Y-73366666D01*
X172158333Y-73800000D02*
X172358333Y-74066666D01*
X172358333Y-73600000D02*
X172091666Y-73866666D01*
X173291666Y-74066666D02*
X173225000Y-74033333D01*
X173191666Y-74000000D01*
X173158333Y-73933333D01*
X173158333Y-73733333D01*
X173191666Y-73666666D01*
X173225000Y-73633333D01*
X173291666Y-73600000D01*
X173391666Y-73600000D01*
X173458333Y-73633333D01*
X173491666Y-73666666D01*
X173525000Y-73733333D01*
X173525000Y-73933333D01*
X173491666Y-74000000D01*
X173458333Y-74033333D01*
X173391666Y-74066666D01*
X173291666Y-74066666D01*
X173825000Y-73600000D02*
X173825000Y-74066666D01*
X173825000Y-73666666D02*
X173858333Y-73633333D01*
X173925000Y-73600000D01*
X174025000Y-73600000D01*
X174091666Y-73633333D01*
X174125000Y-73700000D01*
X174125000Y-74066666D01*
X166241666Y-74825000D02*
X166508333Y-74825000D01*
X166341666Y-74591666D02*
X166341666Y-75191666D01*
X166375000Y-75258333D01*
X166441666Y-75291666D01*
X166508333Y-75291666D01*
X167041666Y-75291666D02*
X167041666Y-74925000D01*
X167008333Y-74858333D01*
X166941666Y-74825000D01*
X166808333Y-74825000D01*
X166741666Y-74858333D01*
X167041666Y-75258333D02*
X166975000Y-75291666D01*
X166808333Y-75291666D01*
X166741666Y-75258333D01*
X166708333Y-75191666D01*
X166708333Y-75125000D01*
X166741666Y-75058333D01*
X166808333Y-75025000D01*
X166975000Y-75025000D01*
X167041666Y-74991666D01*
X167375000Y-75291666D02*
X167375000Y-74825000D01*
X167375000Y-74958333D02*
X167408333Y-74891666D01*
X167441666Y-74858333D01*
X167508333Y-74825000D01*
X167575000Y-74825000D01*
X168108333Y-74825000D02*
X168108333Y-75391666D01*
X168075000Y-75458333D01*
X168041666Y-75491666D01*
X167975000Y-75525000D01*
X167875000Y-75525000D01*
X167808333Y-75491666D01*
X168108333Y-75258333D02*
X168041666Y-75291666D01*
X167908333Y-75291666D01*
X167841666Y-75258333D01*
X167808333Y-75225000D01*
X167775000Y-75158333D01*
X167775000Y-74958333D01*
X167808333Y-74891666D01*
X167841666Y-74858333D01*
X167908333Y-74825000D01*
X168041666Y-74825000D01*
X168108333Y-74858333D01*
X168708333Y-75258333D02*
X168641666Y-75291666D01*
X168508333Y-75291666D01*
X168441666Y-75258333D01*
X168408333Y-75191666D01*
X168408333Y-74925000D01*
X168441666Y-74858333D01*
X168508333Y-74825000D01*
X168641666Y-74825000D01*
X168708333Y-74858333D01*
X168741666Y-74925000D01*
X168741666Y-74991666D01*
X168408333Y-75058333D01*
X168941666Y-74825000D02*
X169208333Y-74825000D01*
X169041666Y-74591666D02*
X169041666Y-75191666D01*
X169075000Y-75258333D01*
X169141666Y-75291666D01*
X169208333Y-75291666D01*
X169441666Y-75225000D02*
X169475000Y-75258333D01*
X169441666Y-75291666D01*
X169408333Y-75258333D01*
X169441666Y-75225000D01*
X169441666Y-75291666D01*
X170708333Y-75225000D02*
X170675000Y-75258333D01*
X170575000Y-75291666D01*
X170508333Y-75291666D01*
X170408333Y-75258333D01*
X170341666Y-75191666D01*
X170308333Y-75125000D01*
X170275000Y-74991666D01*
X170275000Y-74891666D01*
X170308333Y-74758333D01*
X170341666Y-74691666D01*
X170408333Y-74625000D01*
X170508333Y-74591666D01*
X170575000Y-74591666D01*
X170675000Y-74625000D01*
X170708333Y-74658333D01*
X171108333Y-75291666D02*
X171041666Y-75258333D01*
X171008333Y-75225000D01*
X170975000Y-75158333D01*
X170975000Y-74958333D01*
X171008333Y-74891666D01*
X171041666Y-74858333D01*
X171108333Y-74825000D01*
X171208333Y-74825000D01*
X171275000Y-74858333D01*
X171308333Y-74891666D01*
X171341666Y-74958333D01*
X171341666Y-75158333D01*
X171308333Y-75225000D01*
X171275000Y-75258333D01*
X171208333Y-75291666D01*
X171108333Y-75291666D01*
X171641666Y-74825000D02*
X171641666Y-75291666D01*
X171641666Y-74891666D02*
X171675000Y-74858333D01*
X171741666Y-74825000D01*
X171841666Y-74825000D01*
X171908333Y-74858333D01*
X171941666Y-74925000D01*
X171941666Y-75291666D01*
X172275000Y-74825000D02*
X172275000Y-75291666D01*
X172275000Y-74891666D02*
X172308333Y-74858333D01*
X172375000Y-74825000D01*
X172475000Y-74825000D01*
X172541666Y-74858333D01*
X172575000Y-74925000D01*
X172575000Y-75291666D01*
X173175000Y-75258333D02*
X173108333Y-75291666D01*
X172975000Y-75291666D01*
X172908333Y-75258333D01*
X172875000Y-75191666D01*
X172875000Y-74925000D01*
X172908333Y-74858333D01*
X172975000Y-74825000D01*
X173108333Y-74825000D01*
X173175000Y-74858333D01*
X173208333Y-74925000D01*
X173208333Y-74991666D01*
X172875000Y-75058333D01*
X173808333Y-75258333D02*
X173741666Y-75291666D01*
X173608333Y-75291666D01*
X173541666Y-75258333D01*
X173508333Y-75225000D01*
X173475000Y-75158333D01*
X173475000Y-74958333D01*
X173508333Y-74891666D01*
X173541666Y-74858333D01*
X173608333Y-74825000D01*
X173741666Y-74825000D01*
X173808333Y-74858333D01*
X174008333Y-74825000D02*
X174275000Y-74825000D01*
X174108333Y-74591666D02*
X174108333Y-75191666D01*
X174141666Y-75258333D01*
X174208333Y-75291666D01*
X174275000Y-75291666D01*
X174775000Y-75258333D02*
X174708333Y-75291666D01*
X174575000Y-75291666D01*
X174508333Y-75258333D01*
X174475000Y-75191666D01*
X174475000Y-74925000D01*
X174508333Y-74858333D01*
X174575000Y-74825000D01*
X174708333Y-74825000D01*
X174775000Y-74858333D01*
X174808333Y-74925000D01*
X174808333Y-74991666D01*
X174475000Y-75058333D01*
X175408333Y-75291666D02*
X175408333Y-74591666D01*
X175408333Y-75258333D02*
X175341666Y-75291666D01*
X175208333Y-75291666D01*
X175141666Y-75258333D01*
X175108333Y-75225000D01*
X175075000Y-75158333D01*
X175075000Y-74958333D01*
X175108333Y-74891666D01*
X175141666Y-74858333D01*
X175208333Y-74825000D01*
X175341666Y-74825000D01*
X175408333Y-74858333D01*
X169391666Y-76050000D02*
X169658333Y-76050000D01*
X169491666Y-75816666D02*
X169491666Y-76416666D01*
X169525000Y-76483333D01*
X169591666Y-76516666D01*
X169658333Y-76516666D01*
X169991666Y-76516666D02*
X169925000Y-76483333D01*
X169891666Y-76450000D01*
X169858333Y-76383333D01*
X169858333Y-76183333D01*
X169891666Y-76116666D01*
X169925000Y-76083333D01*
X169991666Y-76050000D01*
X170091666Y-76050000D01*
X170158333Y-76083333D01*
X170191666Y-76116666D01*
X170225000Y-76183333D01*
X170225000Y-76383333D01*
X170191666Y-76450000D01*
X170158333Y-76483333D01*
X170091666Y-76516666D01*
X169991666Y-76516666D01*
X171025000Y-76483333D02*
X171125000Y-76516666D01*
X171291666Y-76516666D01*
X171358333Y-76483333D01*
X171391666Y-76450000D01*
X171425000Y-76383333D01*
X171425000Y-76316666D01*
X171391666Y-76250000D01*
X171358333Y-76216666D01*
X171291666Y-76183333D01*
X171158333Y-76150000D01*
X171091666Y-76116666D01*
X171058333Y-76083333D01*
X171025000Y-76016666D01*
X171025000Y-75950000D01*
X171058333Y-75883333D01*
X171091666Y-75850000D01*
X171158333Y-75816666D01*
X171325000Y-75816666D01*
X171425000Y-75850000D01*
X172125000Y-76450000D02*
X172091666Y-76483333D01*
X171991666Y-76516666D01*
X171925000Y-76516666D01*
X171825000Y-76483333D01*
X171758333Y-76416666D01*
X171725000Y-76350000D01*
X171691666Y-76216666D01*
X171691666Y-76116666D01*
X171725000Y-75983333D01*
X171758333Y-75916666D01*
X171825000Y-75850000D01*
X171925000Y-75816666D01*
X171991666Y-75816666D01*
X172091666Y-75850000D01*
X172125000Y-75883333D01*
X172425000Y-76516666D02*
X172425000Y-75816666D01*
X172825000Y-76516666D02*
X172525000Y-76116666D01*
X172825000Y-75816666D02*
X172425000Y-76216666D01*
D10*
X183225000Y-103075000D02*
X170225000Y-103075000D01*
X156084070Y-97410000D02*
G75*
G03X156084070Y-97410000I-1034070J0D01*
G01*
X179050000Y-77595000D02*
X179050000Y-73115000D01*
X166010000Y-73085000D02*
X166010000Y-77415000D01*
X144558000Y-73520000D02*
X129318000Y-73520000D01*
X144558000Y-77330000D02*
X144558000Y-73520000D01*
X129318000Y-77330000D02*
X144558000Y-77330000D01*
X129318000Y-73520000D02*
X129318000Y-77330000D01*
X170238000Y-96984000D02*
X170238000Y-100984000D01*
X183238000Y-96984000D02*
X170238000Y-96984000D01*
X183238000Y-102984000D02*
X183238000Y-96984000D01*
X166000000Y-73075000D02*
X179000000Y-73075000D01*
X170238000Y-99984000D02*
X170238000Y-102984000D01*
D12*
X173788000Y-102741142D02*
X174002285Y-102812571D01*
X174359428Y-102812571D01*
X174502285Y-102741142D01*
X174573714Y-102669714D01*
X174645142Y-102526857D01*
X174645142Y-102384000D01*
X174573714Y-102241142D01*
X174502285Y-102169714D01*
X174359428Y-102098285D01*
X174073714Y-102026857D01*
X173930857Y-101955428D01*
X173859428Y-101884000D01*
X173788000Y-101741142D01*
X173788000Y-101598285D01*
X173859428Y-101455428D01*
X173930857Y-101384000D01*
X174073714Y-101312571D01*
X174430857Y-101312571D01*
X174645142Y-101384000D01*
X175073714Y-101812571D02*
X175645142Y-101812571D01*
X175288000Y-101312571D02*
X175288000Y-102598285D01*
X175359428Y-102741142D01*
X175502285Y-102812571D01*
X175645142Y-102812571D01*
X176788000Y-102812571D02*
X176788000Y-102026857D01*
X176716571Y-101884000D01*
X176573714Y-101812571D01*
X176288000Y-101812571D01*
X176145142Y-101884000D01*
X176788000Y-102741142D02*
X176645142Y-102812571D01*
X176288000Y-102812571D01*
X176145142Y-102741142D01*
X176073714Y-102598285D01*
X176073714Y-102455428D01*
X176145142Y-102312571D01*
X176288000Y-102241142D01*
X176645142Y-102241142D01*
X176788000Y-102169714D01*
X177288000Y-101812571D02*
X177859428Y-101812571D01*
X177502285Y-101312571D02*
X177502285Y-102598285D01*
X177573714Y-102741142D01*
X177716571Y-102812571D01*
X177859428Y-102812571D01*
X179002285Y-101812571D02*
X179002285Y-102812571D01*
X178359428Y-101812571D02*
X178359428Y-102598285D01*
X178430857Y-102741142D01*
X178573714Y-102812571D01*
X178788000Y-102812571D01*
X178930857Y-102741142D01*
X179002285Y-102669714D01*
X179645142Y-102741142D02*
X179788000Y-102812571D01*
X180073714Y-102812571D01*
X180216571Y-102741142D01*
X180288000Y-102598285D01*
X180288000Y-102526857D01*
X180216571Y-102384000D01*
X180073714Y-102312571D01*
X179859428Y-102312571D01*
X179716571Y-102241142D01*
X179645142Y-102098285D01*
X179645142Y-102026857D01*
X179716571Y-101884000D01*
X179859428Y-101812571D01*
X180073714Y-101812571D01*
X180216571Y-101884000D01*
D13*
X173587619Y-109637380D02*
X173587619Y-108637380D01*
X173968571Y-108637380D01*
X174063809Y-108685000D01*
X174111428Y-108732619D01*
X174159047Y-108827857D01*
X174159047Y-108970714D01*
X174111428Y-109065952D01*
X174063809Y-109113571D01*
X173968571Y-109161190D01*
X173587619Y-109161190D01*
X175159047Y-109637380D02*
X174825714Y-109161190D01*
X174587619Y-109637380D02*
X174587619Y-108637380D01*
X174968571Y-108637380D01*
X175063809Y-108685000D01*
X175111428Y-108732619D01*
X175159047Y-108827857D01*
X175159047Y-108970714D01*
X175111428Y-109065952D01*
X175063809Y-109113571D01*
X174968571Y-109161190D01*
X174587619Y-109161190D01*
X175587619Y-109113571D02*
X175920952Y-109113571D01*
X176063809Y-109637380D02*
X175587619Y-109637380D01*
X175587619Y-108637380D01*
X176063809Y-108637380D01*
X176444761Y-109589761D02*
X176587619Y-109637380D01*
X176825714Y-109637380D01*
X176920952Y-109589761D01*
X176968571Y-109542142D01*
X177016190Y-109446904D01*
X177016190Y-109351666D01*
X176968571Y-109256428D01*
X176920952Y-109208809D01*
X176825714Y-109161190D01*
X176635238Y-109113571D01*
X176540000Y-109065952D01*
X176492380Y-109018333D01*
X176444761Y-108923095D01*
X176444761Y-108827857D01*
X176492380Y-108732619D01*
X176540000Y-108685000D01*
X176635238Y-108637380D01*
X176873333Y-108637380D01*
X177016190Y-108685000D01*
X177397142Y-109589761D02*
X177540000Y-109637380D01*
X177778095Y-109637380D01*
X177873333Y-109589761D01*
X177920952Y-109542142D01*
X177968571Y-109446904D01*
X177968571Y-109351666D01*
X177920952Y-109256428D01*
X177873333Y-109208809D01*
X177778095Y-109161190D01*
X177587619Y-109113571D01*
X177492380Y-109065952D01*
X177444761Y-109018333D01*
X177397142Y-108923095D01*
X177397142Y-108827857D01*
X177444761Y-108732619D01*
X177492380Y-108685000D01*
X177587619Y-108637380D01*
X177825714Y-108637380D01*
X177968571Y-108685000D01*
X179016190Y-108637380D02*
X179587619Y-108637380D01*
X179301904Y-109637380D02*
X179301904Y-108637380D01*
X180111428Y-108637380D02*
X180301904Y-108637380D01*
X180397142Y-108685000D01*
X180492380Y-108780238D01*
X180540000Y-108970714D01*
X180540000Y-109304047D01*
X180492380Y-109494523D01*
X180397142Y-109589761D01*
X180301904Y-109637380D01*
X180111428Y-109637380D01*
X180016190Y-109589761D01*
X179920952Y-109494523D01*
X179873333Y-109304047D01*
X179873333Y-108970714D01*
X179920952Y-108780238D01*
X180016190Y-108685000D01*
X180111428Y-108637380D01*
X170920952Y-111387380D02*
X170920952Y-110387380D01*
X171301904Y-110387380D01*
X171397142Y-110435000D01*
X171444761Y-110482619D01*
X171492380Y-110577857D01*
X171492380Y-110720714D01*
X171444761Y-110815952D01*
X171397142Y-110863571D01*
X171301904Y-110911190D01*
X170920952Y-110911190D01*
X172492380Y-111387380D02*
X172159047Y-110911190D01*
X171920952Y-111387380D02*
X171920952Y-110387380D01*
X172301904Y-110387380D01*
X172397142Y-110435000D01*
X172444761Y-110482619D01*
X172492380Y-110577857D01*
X172492380Y-110720714D01*
X172444761Y-110815952D01*
X172397142Y-110863571D01*
X172301904Y-110911190D01*
X171920952Y-110911190D01*
X173111428Y-110387380D02*
X173301904Y-110387380D01*
X173397142Y-110435000D01*
X173492380Y-110530238D01*
X173540000Y-110720714D01*
X173540000Y-111054047D01*
X173492380Y-111244523D01*
X173397142Y-111339761D01*
X173301904Y-111387380D01*
X173111428Y-111387380D01*
X173016190Y-111339761D01*
X172920952Y-111244523D01*
X172873333Y-111054047D01*
X172873333Y-110720714D01*
X172920952Y-110530238D01*
X173016190Y-110435000D01*
X173111428Y-110387380D01*
X174492380Y-110435000D02*
X174397142Y-110387380D01*
X174254285Y-110387380D01*
X174111428Y-110435000D01*
X174016190Y-110530238D01*
X173968571Y-110625476D01*
X173920952Y-110815952D01*
X173920952Y-110958809D01*
X173968571Y-111149285D01*
X174016190Y-111244523D01*
X174111428Y-111339761D01*
X174254285Y-111387380D01*
X174349523Y-111387380D01*
X174492380Y-111339761D01*
X174540000Y-111292142D01*
X174540000Y-110958809D01*
X174349523Y-110958809D01*
X175540000Y-111387380D02*
X175206666Y-110911190D01*
X174968571Y-111387380D02*
X174968571Y-110387380D01*
X175349523Y-110387380D01*
X175444761Y-110435000D01*
X175492380Y-110482619D01*
X175540000Y-110577857D01*
X175540000Y-110720714D01*
X175492380Y-110815952D01*
X175444761Y-110863571D01*
X175349523Y-110911190D01*
X174968571Y-110911190D01*
X175920952Y-111101666D02*
X176397142Y-111101666D01*
X175825714Y-111387380D02*
X176159047Y-110387380D01*
X176492380Y-111387380D01*
X176825714Y-111387380D02*
X176825714Y-110387380D01*
X177159047Y-111101666D01*
X177492380Y-110387380D01*
X177492380Y-111387380D01*
X179063809Y-110863571D02*
X179206666Y-110911190D01*
X179254285Y-110958809D01*
X179301904Y-111054047D01*
X179301904Y-111196904D01*
X179254285Y-111292142D01*
X179206666Y-111339761D01*
X179111428Y-111387380D01*
X178730476Y-111387380D01*
X178730476Y-110387380D01*
X179063809Y-110387380D01*
X179159047Y-110435000D01*
X179206666Y-110482619D01*
X179254285Y-110577857D01*
X179254285Y-110673095D01*
X179206666Y-110768333D01*
X179159047Y-110815952D01*
X179063809Y-110863571D01*
X178730476Y-110863571D01*
X179920952Y-110387380D02*
X180111428Y-110387380D01*
X180206666Y-110435000D01*
X180301904Y-110530238D01*
X180349523Y-110720714D01*
X180349523Y-111054047D01*
X180301904Y-111244523D01*
X180206666Y-111339761D01*
X180111428Y-111387380D01*
X179920952Y-111387380D01*
X179825714Y-111339761D01*
X179730476Y-111244523D01*
X179682857Y-111054047D01*
X179682857Y-110720714D01*
X179730476Y-110530238D01*
X179825714Y-110435000D01*
X179920952Y-110387380D01*
X180730476Y-111101666D02*
X181206666Y-111101666D01*
X180635238Y-111387380D02*
X180968571Y-110387380D01*
X181301904Y-111387380D01*
X182206666Y-111387380D02*
X181873333Y-110911190D01*
X181635238Y-111387380D02*
X181635238Y-110387380D01*
X182016190Y-110387380D01*
X182111428Y-110435000D01*
X182159047Y-110482619D01*
X182206666Y-110577857D01*
X182206666Y-110720714D01*
X182159047Y-110815952D01*
X182111428Y-110863571D01*
X182016190Y-110911190D01*
X181635238Y-110911190D01*
X182635238Y-111387380D02*
X182635238Y-110387380D01*
X182873333Y-110387380D01*
X183016190Y-110435000D01*
X183111428Y-110530238D01*
X183159047Y-110625476D01*
X183206666Y-110815952D01*
X183206666Y-110958809D01*
X183159047Y-111149285D01*
X183111428Y-111244523D01*
X183016190Y-111339761D01*
X182873333Y-111387380D01*
X182635238Y-111387380D01*
D12*
X129167857Y-112803571D02*
X129167857Y-113803571D01*
X128810714Y-112232142D02*
X128453571Y-113303571D01*
X129382142Y-113303571D01*
X131025000Y-112232142D02*
X129739285Y-114160714D01*
X131739285Y-112946428D02*
X131596428Y-112875000D01*
X131525000Y-112803571D01*
X131453571Y-112660714D01*
X131453571Y-112589285D01*
X131525000Y-112446428D01*
X131596428Y-112375000D01*
X131739285Y-112303571D01*
X132025000Y-112303571D01*
X132167857Y-112375000D01*
X132239285Y-112446428D01*
X132310714Y-112589285D01*
X132310714Y-112660714D01*
X132239285Y-112803571D01*
X132167857Y-112875000D01*
X132025000Y-112946428D01*
X131739285Y-112946428D01*
X131596428Y-113017857D01*
X131525000Y-113089285D01*
X131453571Y-113232142D01*
X131453571Y-113517857D01*
X131525000Y-113660714D01*
X131596428Y-113732142D01*
X131739285Y-113803571D01*
X132025000Y-113803571D01*
X132167857Y-113732142D01*
X132239285Y-113660714D01*
X132310714Y-113517857D01*
X132310714Y-113232142D01*
X132239285Y-113089285D01*
X132167857Y-113017857D01*
X132025000Y-112946428D01*
X134025000Y-112232142D02*
X132739285Y-114160714D01*
X134453571Y-112446428D02*
X134525000Y-112375000D01*
X134667857Y-112303571D01*
X135025000Y-112303571D01*
X135167857Y-112375000D01*
X135239285Y-112446428D01*
X135310714Y-112589285D01*
X135310714Y-112732142D01*
X135239285Y-112946428D01*
X134382142Y-113803571D01*
X135310714Y-113803571D01*
X136239285Y-112303571D02*
X136382142Y-112303571D01*
X136525000Y-112375000D01*
X136596428Y-112446428D01*
X136667857Y-112589285D01*
X136739285Y-112875000D01*
X136739285Y-113232142D01*
X136667857Y-113517857D01*
X136596428Y-113660714D01*
X136525000Y-113732142D01*
X136382142Y-113803571D01*
X136239285Y-113803571D01*
X136096428Y-113732142D01*
X136025000Y-113660714D01*
X135953571Y-113517857D01*
X135882142Y-113232142D01*
X135882142Y-112875000D01*
X135953571Y-112589285D01*
X136025000Y-112446428D01*
X136096428Y-112375000D01*
X136239285Y-112303571D01*
X138453571Y-112232142D02*
X137167857Y-114160714D01*
X138882142Y-112446428D02*
X138953571Y-112375000D01*
X139096428Y-112303571D01*
X139453571Y-112303571D01*
X139596428Y-112375000D01*
X139667857Y-112446428D01*
X139739285Y-112589285D01*
X139739285Y-112732142D01*
X139667857Y-112946428D01*
X138810714Y-113803571D01*
X139739285Y-113803571D01*
X140596428Y-112946428D02*
X140453571Y-112875000D01*
X140382142Y-112803571D01*
X140310714Y-112660714D01*
X140310714Y-112589285D01*
X140382142Y-112446428D01*
X140453571Y-112375000D01*
X140596428Y-112303571D01*
X140882142Y-112303571D01*
X141025000Y-112375000D01*
X141096428Y-112446428D01*
X141167857Y-112589285D01*
X141167857Y-112660714D01*
X141096428Y-112803571D01*
X141025000Y-112875000D01*
X140882142Y-112946428D01*
X140596428Y-112946428D01*
X140453571Y-113017857D01*
X140382142Y-113089285D01*
X140310714Y-113232142D01*
X140310714Y-113517857D01*
X140382142Y-113660714D01*
X140453571Y-113732142D01*
X140596428Y-113803571D01*
X140882142Y-113803571D01*
X141025000Y-113732142D01*
X141096428Y-113660714D01*
X141167857Y-113517857D01*
X141167857Y-113232142D01*
X141096428Y-113089285D01*
X141025000Y-113017857D01*
X140882142Y-112946428D01*
X142953571Y-113803571D02*
X142953571Y-112303571D01*
X143525000Y-112303571D01*
X143667857Y-112375000D01*
X143739285Y-112446428D01*
X143810714Y-112589285D01*
X143810714Y-112803571D01*
X143739285Y-112946428D01*
X143667857Y-113017857D01*
X143525000Y-113089285D01*
X142953571Y-113089285D01*
X144453571Y-113803571D02*
X144453571Y-112303571D01*
X145167857Y-113803571D02*
X145167857Y-112303571D01*
X146025000Y-113803571D01*
X146025000Y-112303571D01*
X130596428Y-115925000D02*
X131310714Y-115925000D01*
X130453571Y-116353571D02*
X130953571Y-114853571D01*
X131453571Y-116353571D01*
X131739285Y-114853571D02*
X132596428Y-114853571D01*
X132167857Y-116353571D02*
X132167857Y-114853571D01*
X134167857Y-115925000D02*
X134882142Y-115925000D01*
X134025000Y-116353571D02*
X134525000Y-114853571D01*
X135025000Y-116353571D01*
X135310714Y-114853571D02*
X135810714Y-116353571D01*
X136310714Y-114853571D01*
X137667857Y-116353571D02*
X137167857Y-115639285D01*
X136810714Y-116353571D02*
X136810714Y-114853571D01*
X137382142Y-114853571D01*
X137525000Y-114925000D01*
X137596428Y-114996428D01*
X137667857Y-115139285D01*
X137667857Y-115353571D01*
X137596428Y-115496428D01*
X137525000Y-115567857D01*
X137382142Y-115639285D01*
X136810714Y-115639285D01*
X139453571Y-116353571D02*
X139453571Y-114853571D01*
X141025000Y-116210714D02*
X140953571Y-116282142D01*
X140739285Y-116353571D01*
X140596428Y-116353571D01*
X140382142Y-116282142D01*
X140239285Y-116139285D01*
X140167857Y-115996428D01*
X140096428Y-115710714D01*
X140096428Y-115496428D01*
X140167857Y-115210714D01*
X140239285Y-115067857D01*
X140382142Y-114925000D01*
X140596428Y-114853571D01*
X140739285Y-114853571D01*
X140953571Y-114925000D01*
X141025000Y-114996428D01*
X141596428Y-116282142D02*
X141810714Y-116353571D01*
X142167857Y-116353571D01*
X142310714Y-116282142D01*
X142382142Y-116210714D01*
X142453571Y-116067857D01*
X142453571Y-115925000D01*
X142382142Y-115782142D01*
X142310714Y-115710714D01*
X142167857Y-115639285D01*
X141882142Y-115567857D01*
X141739285Y-115496428D01*
X141667857Y-115425000D01*
X141596428Y-115282142D01*
X141596428Y-115139285D01*
X141667857Y-114996428D01*
X141739285Y-114925000D01*
X141882142Y-114853571D01*
X142239285Y-114853571D01*
X142453571Y-114925000D01*
X143096428Y-116353571D02*
X143096428Y-114853571D01*
X143667857Y-114853571D01*
X143810714Y-114925000D01*
X143882142Y-114996428D01*
X143953571Y-115139285D01*
X143953571Y-115353571D01*
X143882142Y-115496428D01*
X143810714Y-115567857D01*
X143667857Y-115639285D01*
X143096428Y-115639285D01*
X130060714Y-118903571D02*
X130060714Y-117403571D01*
X130632142Y-117403571D01*
X130775000Y-117475000D01*
X130846428Y-117546428D01*
X130917857Y-117689285D01*
X130917857Y-117903571D01*
X130846428Y-118046428D01*
X130775000Y-118117857D01*
X130632142Y-118189285D01*
X130060714Y-118189285D01*
X132417857Y-118903571D02*
X131917857Y-118189285D01*
X131560714Y-118903571D02*
X131560714Y-117403571D01*
X132132142Y-117403571D01*
X132275000Y-117475000D01*
X132346428Y-117546428D01*
X132417857Y-117689285D01*
X132417857Y-117903571D01*
X132346428Y-118046428D01*
X132275000Y-118117857D01*
X132132142Y-118189285D01*
X131560714Y-118189285D01*
X133346428Y-117403571D02*
X133632142Y-117403571D01*
X133775000Y-117475000D01*
X133917857Y-117617857D01*
X133989285Y-117903571D01*
X133989285Y-118403571D01*
X133917857Y-118689285D01*
X133775000Y-118832142D01*
X133632142Y-118903571D01*
X133346428Y-118903571D01*
X133203571Y-118832142D01*
X133060714Y-118689285D01*
X132989285Y-118403571D01*
X132989285Y-117903571D01*
X133060714Y-117617857D01*
X133203571Y-117475000D01*
X133346428Y-117403571D01*
X135417857Y-117475000D02*
X135275000Y-117403571D01*
X135060714Y-117403571D01*
X134846428Y-117475000D01*
X134703571Y-117617857D01*
X134632142Y-117760714D01*
X134560714Y-118046428D01*
X134560714Y-118260714D01*
X134632142Y-118546428D01*
X134703571Y-118689285D01*
X134846428Y-118832142D01*
X135060714Y-118903571D01*
X135203571Y-118903571D01*
X135417857Y-118832142D01*
X135489285Y-118760714D01*
X135489285Y-118260714D01*
X135203571Y-118260714D01*
X136989285Y-118903571D02*
X136489285Y-118189285D01*
X136132142Y-118903571D02*
X136132142Y-117403571D01*
X136703571Y-117403571D01*
X136846428Y-117475000D01*
X136917857Y-117546428D01*
X136989285Y-117689285D01*
X136989285Y-117903571D01*
X136917857Y-118046428D01*
X136846428Y-118117857D01*
X136703571Y-118189285D01*
X136132142Y-118189285D01*
X137560714Y-118475000D02*
X138275000Y-118475000D01*
X137417857Y-118903571D02*
X137917857Y-117403571D01*
X138417857Y-118903571D01*
X138917857Y-118903571D02*
X138917857Y-117403571D01*
X139417857Y-118475000D01*
X139917857Y-117403571D01*
X139917857Y-118903571D01*
X140632142Y-118903571D02*
X140632142Y-117403571D01*
X141132142Y-118475000D01*
X141632142Y-117403571D01*
X141632142Y-118903571D01*
X142346428Y-118117857D02*
X142846428Y-118117857D01*
X143060714Y-118903571D02*
X142346428Y-118903571D01*
X142346428Y-117403571D01*
X143060714Y-117403571D01*
X144560714Y-118903571D02*
X144060714Y-118189285D01*
X143703571Y-118903571D02*
X143703571Y-117403571D01*
X144275000Y-117403571D01*
X144417857Y-117475000D01*
X144489285Y-117546428D01*
X144560714Y-117689285D01*
X144560714Y-117903571D01*
X144489285Y-118046428D01*
X144417857Y-118117857D01*
X144275000Y-118189285D01*
X143703571Y-118189285D01*
D14*
X130154342Y-74649228D02*
X130121685Y-74681885D01*
X130023714Y-74714542D01*
X129958400Y-74714542D01*
X129860428Y-74681885D01*
X129795114Y-74616571D01*
X129762457Y-74551257D01*
X129729800Y-74420628D01*
X129729800Y-74322657D01*
X129762457Y-74192028D01*
X129795114Y-74126714D01*
X129860428Y-74061400D01*
X129958400Y-74028742D01*
X130023714Y-74028742D01*
X130121685Y-74061400D01*
X130154342Y-74094057D01*
X130546228Y-74714542D02*
X130480914Y-74681885D01*
X130448257Y-74649228D01*
X130415600Y-74583914D01*
X130415600Y-74387971D01*
X130448257Y-74322657D01*
X130480914Y-74290000D01*
X130546228Y-74257342D01*
X130644200Y-74257342D01*
X130709514Y-74290000D01*
X130742171Y-74322657D01*
X130774828Y-74387971D01*
X130774828Y-74583914D01*
X130742171Y-74649228D01*
X130709514Y-74681885D01*
X130644200Y-74714542D01*
X130546228Y-74714542D01*
X131068742Y-74257342D02*
X131068742Y-74714542D01*
X131068742Y-74322657D02*
X131101400Y-74290000D01*
X131166714Y-74257342D01*
X131264685Y-74257342D01*
X131330000Y-74290000D01*
X131362657Y-74355314D01*
X131362657Y-74714542D01*
X131689228Y-74257342D02*
X131689228Y-74714542D01*
X131689228Y-74322657D02*
X131721885Y-74290000D01*
X131787200Y-74257342D01*
X131885171Y-74257342D01*
X131950485Y-74290000D01*
X131983142Y-74355314D01*
X131983142Y-74714542D01*
X132570971Y-74681885D02*
X132505657Y-74714542D01*
X132375028Y-74714542D01*
X132309714Y-74681885D01*
X132277057Y-74616571D01*
X132277057Y-74355314D01*
X132309714Y-74290000D01*
X132375028Y-74257342D01*
X132505657Y-74257342D01*
X132570971Y-74290000D01*
X132603628Y-74355314D01*
X132603628Y-74420628D01*
X132277057Y-74485942D01*
X133191457Y-74681885D02*
X133126142Y-74714542D01*
X132995514Y-74714542D01*
X132930200Y-74681885D01*
X132897542Y-74649228D01*
X132864885Y-74583914D01*
X132864885Y-74387971D01*
X132897542Y-74322657D01*
X132930200Y-74290000D01*
X132995514Y-74257342D01*
X133126142Y-74257342D01*
X133191457Y-74290000D01*
X133387400Y-74257342D02*
X133648657Y-74257342D01*
X133485371Y-74028742D02*
X133485371Y-74616571D01*
X133518028Y-74681885D01*
X133583342Y-74714542D01*
X133648657Y-74714542D01*
X134693685Y-74681885D02*
X134628371Y-74714542D01*
X134497742Y-74714542D01*
X134432428Y-74681885D01*
X134399771Y-74649228D01*
X134367114Y-74583914D01*
X134367114Y-74387971D01*
X134399771Y-74322657D01*
X134432428Y-74290000D01*
X134497742Y-74257342D01*
X134628371Y-74257342D01*
X134693685Y-74290000D01*
X135281514Y-74714542D02*
X135281514Y-74355314D01*
X135248857Y-74290000D01*
X135183542Y-74257342D01*
X135052914Y-74257342D01*
X134987600Y-74290000D01*
X135281514Y-74681885D02*
X135216200Y-74714542D01*
X135052914Y-74714542D01*
X134987600Y-74681885D01*
X134954942Y-74616571D01*
X134954942Y-74551257D01*
X134987600Y-74485942D01*
X135052914Y-74453285D01*
X135216200Y-74453285D01*
X135281514Y-74420628D01*
X135608085Y-74714542D02*
X135608085Y-74028742D01*
X135608085Y-74290000D02*
X135673400Y-74257342D01*
X135804028Y-74257342D01*
X135869342Y-74290000D01*
X135902000Y-74322657D01*
X135934657Y-74387971D01*
X135934657Y-74583914D01*
X135902000Y-74649228D01*
X135869342Y-74681885D01*
X135804028Y-74714542D01*
X135673400Y-74714542D01*
X135608085Y-74681885D01*
X136326542Y-74714542D02*
X136261228Y-74681885D01*
X136228571Y-74616571D01*
X136228571Y-74028742D01*
X136849057Y-74681885D02*
X136783742Y-74714542D01*
X136653114Y-74714542D01*
X136587800Y-74681885D01*
X136555142Y-74616571D01*
X136555142Y-74355314D01*
X136587800Y-74290000D01*
X136653114Y-74257342D01*
X136783742Y-74257342D01*
X136849057Y-74290000D01*
X136881714Y-74355314D01*
X136881714Y-74420628D01*
X136555142Y-74485942D01*
X137600171Y-74257342D02*
X137861428Y-74257342D01*
X137698142Y-74714542D02*
X137698142Y-74126714D01*
X137730800Y-74061400D01*
X137796114Y-74028742D01*
X137861428Y-74028742D01*
X138090028Y-74714542D02*
X138090028Y-74257342D01*
X138090028Y-74387971D02*
X138122685Y-74322657D01*
X138155342Y-74290000D01*
X138220657Y-74257342D01*
X138285971Y-74257342D01*
X138612542Y-74714542D02*
X138547228Y-74681885D01*
X138514571Y-74649228D01*
X138481914Y-74583914D01*
X138481914Y-74387971D01*
X138514571Y-74322657D01*
X138547228Y-74290000D01*
X138612542Y-74257342D01*
X138710514Y-74257342D01*
X138775828Y-74290000D01*
X138808485Y-74322657D01*
X138841142Y-74387971D01*
X138841142Y-74583914D01*
X138808485Y-74649228D01*
X138775828Y-74681885D01*
X138710514Y-74714542D01*
X138612542Y-74714542D01*
X139135057Y-74714542D02*
X139135057Y-74257342D01*
X139135057Y-74322657D02*
X139167714Y-74290000D01*
X139233028Y-74257342D01*
X139331000Y-74257342D01*
X139396314Y-74290000D01*
X139428971Y-74355314D01*
X139428971Y-74714542D01*
X139428971Y-74355314D02*
X139461628Y-74290000D01*
X139526942Y-74257342D01*
X139624914Y-74257342D01*
X139690228Y-74290000D01*
X139722885Y-74355314D01*
X139722885Y-74714542D01*
X140539314Y-74681885D02*
X140637285Y-74714542D01*
X140800571Y-74714542D01*
X140865885Y-74681885D01*
X140898542Y-74649228D01*
X140931200Y-74583914D01*
X140931200Y-74518600D01*
X140898542Y-74453285D01*
X140865885Y-74420628D01*
X140800571Y-74387971D01*
X140669942Y-74355314D01*
X140604628Y-74322657D01*
X140571971Y-74290000D01*
X140539314Y-74224685D01*
X140539314Y-74159371D01*
X140571971Y-74094057D01*
X140604628Y-74061400D01*
X140669942Y-74028742D01*
X140833228Y-74028742D01*
X140931200Y-74061400D01*
X141355742Y-74028742D02*
X141486371Y-74028742D01*
X141551685Y-74061400D01*
X141617000Y-74126714D01*
X141649657Y-74257342D01*
X141649657Y-74485942D01*
X141617000Y-74616571D01*
X141551685Y-74681885D01*
X141486371Y-74714542D01*
X141355742Y-74714542D01*
X141290428Y-74681885D01*
X141225114Y-74616571D01*
X141192457Y-74485942D01*
X141192457Y-74257342D01*
X141225114Y-74126714D01*
X141290428Y-74061400D01*
X141355742Y-74028742D01*
X141943571Y-74028742D02*
X141943571Y-74583914D01*
X141976228Y-74649228D01*
X142008885Y-74681885D01*
X142074200Y-74714542D01*
X142204828Y-74714542D01*
X142270142Y-74681885D01*
X142302800Y-74649228D01*
X142335457Y-74583914D01*
X142335457Y-74028742D01*
X143053914Y-74714542D02*
X142825314Y-74387971D01*
X142662028Y-74714542D02*
X142662028Y-74028742D01*
X142923285Y-74028742D01*
X142988600Y-74061400D01*
X143021257Y-74094057D01*
X143053914Y-74159371D01*
X143053914Y-74257342D01*
X143021257Y-74322657D01*
X142988600Y-74355314D01*
X142923285Y-74387971D01*
X142662028Y-74387971D01*
X143739714Y-74649228D02*
X143707057Y-74681885D01*
X143609085Y-74714542D01*
X143543771Y-74714542D01*
X143445800Y-74681885D01*
X143380485Y-74616571D01*
X143347828Y-74551257D01*
X143315171Y-74420628D01*
X143315171Y-74322657D01*
X143347828Y-74192028D01*
X143380485Y-74126714D01*
X143445800Y-74061400D01*
X143543771Y-74028742D01*
X143609085Y-74028742D01*
X143707057Y-74061400D01*
X143739714Y-74094057D01*
X144033628Y-74355314D02*
X144262228Y-74355314D01*
X144360200Y-74714542D02*
X144033628Y-74714542D01*
X144033628Y-74028742D01*
X144360200Y-74028742D01*
X131640242Y-75413042D02*
X131901500Y-75413042D01*
X131738214Y-75184442D02*
X131738214Y-75772271D01*
X131770871Y-75837585D01*
X131836185Y-75870242D01*
X131901500Y-75870242D01*
X132228071Y-75870242D02*
X132162757Y-75837585D01*
X132130100Y-75804928D01*
X132097442Y-75739614D01*
X132097442Y-75543671D01*
X132130100Y-75478357D01*
X132162757Y-75445700D01*
X132228071Y-75413042D01*
X132326042Y-75413042D01*
X132391357Y-75445700D01*
X132424014Y-75478357D01*
X132456671Y-75543671D01*
X132456671Y-75739614D01*
X132424014Y-75804928D01*
X132391357Y-75837585D01*
X132326042Y-75870242D01*
X132228071Y-75870242D01*
X133567014Y-75837585D02*
X133501700Y-75870242D01*
X133371071Y-75870242D01*
X133305757Y-75837585D01*
X133273100Y-75804928D01*
X133240442Y-75739614D01*
X133240442Y-75543671D01*
X133273100Y-75478357D01*
X133305757Y-75445700D01*
X133371071Y-75413042D01*
X133501700Y-75413042D01*
X133567014Y-75445700D01*
X133958900Y-75870242D02*
X133893585Y-75837585D01*
X133860928Y-75804928D01*
X133828271Y-75739614D01*
X133828271Y-75543671D01*
X133860928Y-75478357D01*
X133893585Y-75445700D01*
X133958900Y-75413042D01*
X134056871Y-75413042D01*
X134122185Y-75445700D01*
X134154842Y-75478357D01*
X134187500Y-75543671D01*
X134187500Y-75739614D01*
X134154842Y-75804928D01*
X134122185Y-75837585D01*
X134056871Y-75870242D01*
X133958900Y-75870242D01*
X134481414Y-75870242D02*
X134481414Y-75413042D01*
X134481414Y-75543671D02*
X134514071Y-75478357D01*
X134546728Y-75445700D01*
X134612042Y-75413042D01*
X134677357Y-75413042D01*
X134905957Y-75870242D02*
X134905957Y-75413042D01*
X134905957Y-75543671D02*
X134938614Y-75478357D01*
X134971271Y-75445700D01*
X135036585Y-75413042D01*
X135101900Y-75413042D01*
X135591757Y-75837585D02*
X135526442Y-75870242D01*
X135395814Y-75870242D01*
X135330500Y-75837585D01*
X135297842Y-75772271D01*
X135297842Y-75511014D01*
X135330500Y-75445700D01*
X135395814Y-75413042D01*
X135526442Y-75413042D01*
X135591757Y-75445700D01*
X135624414Y-75511014D01*
X135624414Y-75576328D01*
X135297842Y-75641642D01*
X136212242Y-75837585D02*
X136146928Y-75870242D01*
X136016300Y-75870242D01*
X135950985Y-75837585D01*
X135918328Y-75804928D01*
X135885671Y-75739614D01*
X135885671Y-75543671D01*
X135918328Y-75478357D01*
X135950985Y-75445700D01*
X136016300Y-75413042D01*
X136146928Y-75413042D01*
X136212242Y-75445700D01*
X136408185Y-75413042D02*
X136669442Y-75413042D01*
X136506157Y-75184442D02*
X136506157Y-75772271D01*
X136538814Y-75837585D01*
X136604128Y-75870242D01*
X136669442Y-75870242D01*
X137420557Y-75413042D02*
X137420557Y-76098842D01*
X137420557Y-75445700D02*
X137485871Y-75413042D01*
X137616500Y-75413042D01*
X137681814Y-75445700D01*
X137714471Y-75478357D01*
X137747128Y-75543671D01*
X137747128Y-75739614D01*
X137714471Y-75804928D01*
X137681814Y-75837585D01*
X137616500Y-75870242D01*
X137485871Y-75870242D01*
X137420557Y-75837585D01*
X138041042Y-75870242D02*
X138041042Y-75413042D01*
X138041042Y-75184442D02*
X138008385Y-75217100D01*
X138041042Y-75249757D01*
X138073700Y-75217100D01*
X138041042Y-75184442D01*
X138041042Y-75249757D01*
X138367614Y-75413042D02*
X138367614Y-75870242D01*
X138367614Y-75478357D02*
X138400271Y-75445700D01*
X138465585Y-75413042D01*
X138563557Y-75413042D01*
X138628871Y-75445700D01*
X138661528Y-75511014D01*
X138661528Y-75870242D01*
X138988100Y-75608985D02*
X139510614Y-75608985D01*
X140131100Y-75837585D02*
X140065785Y-75870242D01*
X139935157Y-75870242D01*
X139869842Y-75837585D01*
X139837185Y-75804928D01*
X139804528Y-75739614D01*
X139804528Y-75543671D01*
X139837185Y-75478357D01*
X139869842Y-75445700D01*
X139935157Y-75413042D01*
X140065785Y-75413042D01*
X140131100Y-75445700D01*
X140522985Y-75870242D02*
X140457671Y-75837585D01*
X140425014Y-75804928D01*
X140392357Y-75739614D01*
X140392357Y-75543671D01*
X140425014Y-75478357D01*
X140457671Y-75445700D01*
X140522985Y-75413042D01*
X140620957Y-75413042D01*
X140686271Y-75445700D01*
X140718928Y-75478357D01*
X140751585Y-75543671D01*
X140751585Y-75739614D01*
X140718928Y-75804928D01*
X140686271Y-75837585D01*
X140620957Y-75870242D01*
X140522985Y-75870242D01*
X141339414Y-75413042D02*
X141339414Y-75870242D01*
X141045500Y-75413042D02*
X141045500Y-75772271D01*
X141078157Y-75837585D01*
X141143471Y-75870242D01*
X141241442Y-75870242D01*
X141306757Y-75837585D01*
X141339414Y-75804928D01*
X141665985Y-75413042D02*
X141665985Y-75870242D01*
X141665985Y-75478357D02*
X141698642Y-75445700D01*
X141763957Y-75413042D01*
X141861928Y-75413042D01*
X141927242Y-75445700D01*
X141959900Y-75511014D01*
X141959900Y-75870242D01*
X142188500Y-75413042D02*
X142449757Y-75413042D01*
X142286471Y-75184442D02*
X142286471Y-75772271D01*
X142319128Y-75837585D01*
X142384442Y-75870242D01*
X142449757Y-75870242D01*
X135477457Y-77025942D02*
X135477457Y-76340142D01*
X135771371Y-77025942D02*
X135771371Y-76666714D01*
X135738714Y-76601400D01*
X135673400Y-76568742D01*
X135575428Y-76568742D01*
X135510114Y-76601400D01*
X135477457Y-76634057D01*
X136359200Y-76993285D02*
X136293885Y-77025942D01*
X136163257Y-77025942D01*
X136097942Y-76993285D01*
X136065285Y-76927971D01*
X136065285Y-76666714D01*
X136097942Y-76601400D01*
X136163257Y-76568742D01*
X136293885Y-76568742D01*
X136359200Y-76601400D01*
X136391857Y-76666714D01*
X136391857Y-76732028D01*
X136065285Y-76797342D01*
X136979685Y-77025942D02*
X136979685Y-76666714D01*
X136947028Y-76601400D01*
X136881714Y-76568742D01*
X136751085Y-76568742D01*
X136685771Y-76601400D01*
X136979685Y-76993285D02*
X136914371Y-77025942D01*
X136751085Y-77025942D01*
X136685771Y-76993285D01*
X136653114Y-76927971D01*
X136653114Y-76862657D01*
X136685771Y-76797342D01*
X136751085Y-76764685D01*
X136914371Y-76764685D01*
X136979685Y-76732028D01*
X137600171Y-77025942D02*
X137600171Y-76340142D01*
X137600171Y-76993285D02*
X137534857Y-77025942D01*
X137404228Y-77025942D01*
X137338914Y-76993285D01*
X137306257Y-76960628D01*
X137273600Y-76895314D01*
X137273600Y-76699371D01*
X137306257Y-76634057D01*
X137338914Y-76601400D01*
X137404228Y-76568742D01*
X137534857Y-76568742D01*
X137600171Y-76601400D01*
X138188000Y-76993285D02*
X138122685Y-77025942D01*
X137992057Y-77025942D01*
X137926742Y-76993285D01*
X137894085Y-76927971D01*
X137894085Y-76666714D01*
X137926742Y-76601400D01*
X137992057Y-76568742D01*
X138122685Y-76568742D01*
X138188000Y-76601400D01*
X138220657Y-76666714D01*
X138220657Y-76732028D01*
X137894085Y-76797342D01*
X138514571Y-77025942D02*
X138514571Y-76568742D01*
X138514571Y-76699371D02*
X138547228Y-76634057D01*
X138579885Y-76601400D01*
X138645200Y-76568742D01*
X138710514Y-76568742D01*
D10*
X174446078Y-76715000D02*
X173928922Y-76715000D01*
X174446078Y-78135000D02*
X173928922Y-78135000D01*
X174291078Y-94220000D02*
X173773922Y-94220000D01*
X174291078Y-95640000D02*
X173773922Y-95640000D01*
X178181078Y-94220000D02*
X177663922Y-94220000D01*
X178181078Y-95640000D02*
X177663922Y-95640000D01*
X181901078Y-94220000D02*
X181383922Y-94220000D01*
X181901078Y-95640000D02*
X181383922Y-95640000D01*
X170558578Y-94220000D02*
X170041422Y-94220000D01*
X170558578Y-95640000D02*
X170041422Y-95640000D01*
X139750000Y-98111422D02*
X139750000Y-98628578D01*
X141170000Y-98111422D02*
X141170000Y-98628578D01*
X139650000Y-104933922D02*
X139650000Y-105451078D01*
X141070000Y-104933922D02*
X141070000Y-105451078D01*
X147946078Y-99465000D02*
X147428922Y-99465000D01*
X147946078Y-100885000D02*
X147428922Y-100885000D01*
X147921078Y-101365000D02*
X147403922Y-101365000D01*
X147921078Y-102785000D02*
X147403922Y-102785000D01*
X148125922Y-107546000D02*
X148643078Y-107546000D01*
X148125922Y-106126000D02*
X148643078Y-106126000D01*
X151538922Y-104920000D02*
X152056078Y-104920000D01*
X151538922Y-103500000D02*
X152056078Y-103500000D01*
X152056078Y-101390000D02*
X151538922Y-101390000D01*
X152056078Y-102810000D02*
X151538922Y-102810000D01*
X143890000Y-98111422D02*
X143890000Y-98628578D01*
X145310000Y-98111422D02*
X145310000Y-98628578D01*
X156351078Y-94220000D02*
X155833922Y-94220000D01*
X156351078Y-95640000D02*
X155833922Y-95640000D01*
X141970000Y-98111422D02*
X141970000Y-98628578D01*
X143390000Y-98111422D02*
X143390000Y-98628578D01*
X156901422Y-111490000D02*
X157418578Y-111490000D01*
X156901422Y-110070000D02*
X157418578Y-110070000D01*
X164273922Y-95640000D02*
X164791078Y-95640000D01*
X164273922Y-94220000D02*
X164791078Y-94220000D01*
X146544204Y-72934888D02*
X146909888Y-72569204D01*
X145540112Y-71930796D02*
X145905796Y-71565112D01*
X152743709Y-74352199D02*
X152378025Y-74717883D01*
X153747801Y-75356291D02*
X153382117Y-75721975D01*
X158458025Y-116162117D02*
X158823709Y-116527801D01*
X159462117Y-115158025D02*
X159827801Y-115523709D01*
X164481975Y-111497883D02*
X164116291Y-111132199D01*
X163477883Y-112501975D02*
X163112199Y-112136291D01*
X151559798Y-74374264D02*
X148731371Y-71545837D01*
X149226345Y-76707717D02*
X151559798Y-74374264D01*
X138340000Y-96130000D02*
X134440000Y-96130000D01*
X138340000Y-94130000D02*
X134440000Y-94130000D01*
X138340000Y-96130000D02*
X138340000Y-94130000D01*
X173881220Y-86758600D02*
G75*
G02X173881220Y-84758600I0J1000000D01*
G01*
X173881220Y-84758600D02*
X173881220Y-83508600D01*
X173881220Y-83508600D02*
X138201220Y-83508600D01*
X138201220Y-83508600D02*
X138201220Y-88008600D01*
X138201220Y-88008600D02*
X173881220Y-88008600D01*
X173881220Y-88008600D02*
X173881220Y-86758600D01*
X182540000Y-67170000D02*
X182540000Y-68500000D01*
X181210000Y-67170000D02*
X182540000Y-67170000D01*
X182540000Y-69770000D02*
X182540000Y-72370000D01*
X179940000Y-69770000D02*
X182540000Y-69770000D01*
X179940000Y-67170000D02*
X179940000Y-69770000D01*
X182540000Y-72370000D02*
X174800000Y-72370000D01*
X179940000Y-67170000D02*
X174800000Y-67170000D01*
X174800000Y-67170000D02*
X174800000Y-72370000D01*
X140965000Y-69785000D02*
X145175000Y-69785000D01*
X140965000Y-66765000D02*
X140965000Y-69785000D01*
X145175000Y-66765000D02*
X140965000Y-66765000D01*
X150882000Y-108976000D02*
X146672000Y-108976000D01*
X150882000Y-111996000D02*
X150882000Y-108976000D01*
X146672000Y-111996000D02*
X150882000Y-111996000D01*
X178667000Y-98894000D02*
X175982000Y-98894000D01*
X178667000Y-100814000D02*
X178667000Y-98894000D01*
X175982000Y-100814000D02*
X178667000Y-100814000D01*
X168990000Y-106530279D02*
X168990000Y-106204721D01*
X167970000Y-106530279D02*
X167970000Y-106204721D01*
D15*
X155700000Y-98250000D02*
X154425000Y-98250000D01*
X166050000Y-97675000D02*
X165375000Y-97675000D01*
X166050000Y-108025000D02*
X165375000Y-108025000D01*
X155700000Y-108025000D02*
X156375000Y-108025000D01*
X155700000Y-97675000D02*
X156375000Y-97675000D01*
X155700000Y-108025000D02*
X155700000Y-107350000D01*
X166050000Y-108025000D02*
X166050000Y-107350000D01*
X166050000Y-97675000D02*
X166050000Y-98350000D01*
X155700000Y-97675000D02*
X155700000Y-98250000D01*
D10*
X180460000Y-116340000D02*
X180460000Y-114840000D01*
X179210000Y-112340000D02*
X174710000Y-112340000D01*
X173460000Y-114840000D02*
X173460000Y-116340000D01*
X174710000Y-118840000D02*
X179210000Y-118840000D01*
X177760000Y-76897500D02*
X177760000Y-74212500D01*
X175840000Y-76897500D02*
X177760000Y-76897500D01*
X175840000Y-74212500D02*
X175840000Y-76897500D01*
X179941000Y-100840000D02*
X182626000Y-100840000D01*
X182626000Y-100840000D02*
X182626000Y-98920000D01*
X182626000Y-98920000D02*
X179941000Y-98920000D01*
X174701000Y-98894000D02*
X172016000Y-98894000D01*
X174701000Y-100814000D02*
X174701000Y-98894000D01*
X172016000Y-100814000D02*
X174701000Y-100814000D01*
X160260000Y-67170000D02*
X160260000Y-68500000D01*
X158930000Y-67170000D02*
X160260000Y-67170000D01*
X160260000Y-69770000D02*
X160260000Y-72370000D01*
X157660000Y-69770000D02*
X160260000Y-69770000D01*
X157660000Y-67170000D02*
X157660000Y-69770000D01*
X160260000Y-72370000D02*
X152520000Y-72370000D01*
X157660000Y-67170000D02*
X152520000Y-67170000D01*
X152520000Y-67170000D02*
X152520000Y-72370000D01*
X163660000Y-67170000D02*
X163660000Y-72370000D01*
X168800000Y-67170000D02*
X163660000Y-67170000D01*
X171400000Y-72370000D02*
X163660000Y-72370000D01*
X168800000Y-67170000D02*
X168800000Y-69770000D01*
X168800000Y-69770000D02*
X171400000Y-69770000D01*
X171400000Y-69770000D02*
X171400000Y-72370000D01*
X170070000Y-67170000D02*
X171400000Y-67170000D01*
X171400000Y-67170000D02*
X171400000Y-68500000D01*
X140060000Y-67180000D02*
X140060000Y-68510000D01*
X138730000Y-67180000D02*
X140060000Y-67180000D01*
X140060000Y-69780000D02*
X140060000Y-72380000D01*
X137460000Y-69780000D02*
X140060000Y-69780000D01*
X137460000Y-67180000D02*
X137460000Y-69780000D01*
X140060000Y-72380000D02*
X132320000Y-72380000D01*
X137460000Y-67180000D02*
X132320000Y-67180000D01*
X132320000Y-67180000D02*
X132320000Y-72380000D01*
X141722064Y-96010000D02*
X140517936Y-96010000D01*
X141722064Y-94190000D02*
X140517936Y-94190000D01*
X161357487Y-116020940D02*
X163690940Y-113687487D01*
X163690940Y-113687487D02*
X160862513Y-110859060D01*
D15*
X171358333Y-78502380D02*
X171025000Y-78026190D01*
X170786904Y-78502380D02*
X170786904Y-77502380D01*
X171167857Y-77502380D01*
X171263095Y-77550000D01*
X171310714Y-77597619D01*
X171358333Y-77692857D01*
X171358333Y-77835714D01*
X171310714Y-77930952D01*
X171263095Y-77978571D01*
X171167857Y-78026190D01*
X170786904Y-78026190D01*
X171929761Y-77930952D02*
X171834523Y-77883333D01*
X171786904Y-77835714D01*
X171739285Y-77740476D01*
X171739285Y-77692857D01*
X171786904Y-77597619D01*
X171834523Y-77550000D01*
X171929761Y-77502380D01*
X172120238Y-77502380D01*
X172215476Y-77550000D01*
X172263095Y-77597619D01*
X172310714Y-77692857D01*
X172310714Y-77740476D01*
X172263095Y-77835714D01*
X172215476Y-77883333D01*
X172120238Y-77930952D01*
X171929761Y-77930952D01*
X171834523Y-77978571D01*
X171786904Y-78026190D01*
X171739285Y-78121428D01*
X171739285Y-78311904D01*
X171786904Y-78407142D01*
X171834523Y-78454761D01*
X171929761Y-78502380D01*
X172120238Y-78502380D01*
X172215476Y-78454761D01*
X172263095Y-78407142D01*
X172310714Y-78311904D01*
X172310714Y-78121428D01*
X172263095Y-78026190D01*
X172215476Y-77978571D01*
X172120238Y-77930952D01*
X173865833Y-97032380D02*
X173532500Y-96556190D01*
X173294404Y-97032380D02*
X173294404Y-96032380D01*
X173675357Y-96032380D01*
X173770595Y-96080000D01*
X173818214Y-96127619D01*
X173865833Y-96222857D01*
X173865833Y-96365714D01*
X173818214Y-96460952D01*
X173770595Y-96508571D01*
X173675357Y-96556190D01*
X173294404Y-96556190D01*
X174199166Y-96032380D02*
X174865833Y-96032380D01*
X174437261Y-97032380D01*
X177755833Y-97032380D02*
X177422500Y-96556190D01*
X177184404Y-97032380D02*
X177184404Y-96032380D01*
X177565357Y-96032380D01*
X177660595Y-96080000D01*
X177708214Y-96127619D01*
X177755833Y-96222857D01*
X177755833Y-96365714D01*
X177708214Y-96460952D01*
X177660595Y-96508571D01*
X177565357Y-96556190D01*
X177184404Y-96556190D01*
X178612976Y-96032380D02*
X178422500Y-96032380D01*
X178327261Y-96080000D01*
X178279642Y-96127619D01*
X178184404Y-96270476D01*
X178136785Y-96460952D01*
X178136785Y-96841904D01*
X178184404Y-96937142D01*
X178232023Y-96984761D01*
X178327261Y-97032380D01*
X178517738Y-97032380D01*
X178612976Y-96984761D01*
X178660595Y-96937142D01*
X178708214Y-96841904D01*
X178708214Y-96603809D01*
X178660595Y-96508571D01*
X178612976Y-96460952D01*
X178517738Y-96413333D01*
X178327261Y-96413333D01*
X178232023Y-96460952D01*
X178184404Y-96508571D01*
X178136785Y-96603809D01*
X181475833Y-97032380D02*
X181142500Y-96556190D01*
X180904404Y-97032380D02*
X180904404Y-96032380D01*
X181285357Y-96032380D01*
X181380595Y-96080000D01*
X181428214Y-96127619D01*
X181475833Y-96222857D01*
X181475833Y-96365714D01*
X181428214Y-96460952D01*
X181380595Y-96508571D01*
X181285357Y-96556190D01*
X180904404Y-96556190D01*
X182380595Y-96032380D02*
X181904404Y-96032380D01*
X181856785Y-96508571D01*
X181904404Y-96460952D01*
X181999642Y-96413333D01*
X182237738Y-96413333D01*
X182332976Y-96460952D01*
X182380595Y-96508571D01*
X182428214Y-96603809D01*
X182428214Y-96841904D01*
X182380595Y-96937142D01*
X182332976Y-96984761D01*
X182237738Y-97032380D01*
X181999642Y-97032380D01*
X181904404Y-96984761D01*
X181856785Y-96937142D01*
X170133333Y-97032380D02*
X169800000Y-96556190D01*
X169561904Y-97032380D02*
X169561904Y-96032380D01*
X169942857Y-96032380D01*
X170038095Y-96080000D01*
X170085714Y-96127619D01*
X170133333Y-96222857D01*
X170133333Y-96365714D01*
X170085714Y-96460952D01*
X170038095Y-96508571D01*
X169942857Y-96556190D01*
X169561904Y-96556190D01*
X170990476Y-96365714D02*
X170990476Y-97032380D01*
X170752380Y-95984761D02*
X170514285Y-96699047D01*
X171133333Y-96699047D01*
X141052380Y-102105357D02*
X140576190Y-102438690D01*
X141052380Y-102676785D02*
X140052380Y-102676785D01*
X140052380Y-102295833D01*
X140100000Y-102200595D01*
X140147619Y-102152976D01*
X140242857Y-102105357D01*
X140385714Y-102105357D01*
X140480952Y-102152976D01*
X140528571Y-102200595D01*
X140576190Y-102295833D01*
X140576190Y-102676785D01*
X141052380Y-101152976D02*
X141052380Y-101724404D01*
X141052380Y-101438690D02*
X140052380Y-101438690D01*
X140195238Y-101533928D01*
X140290476Y-101629166D01*
X140338095Y-101724404D01*
X140052380Y-100533928D02*
X140052380Y-100438690D01*
X140100000Y-100343452D01*
X140147619Y-100295833D01*
X140242857Y-100248214D01*
X140433333Y-100200595D01*
X140671428Y-100200595D01*
X140861904Y-100248214D01*
X140957142Y-100295833D01*
X141004761Y-100343452D01*
X141052380Y-100438690D01*
X141052380Y-100533928D01*
X141004761Y-100629166D01*
X140957142Y-100676785D01*
X140861904Y-100724404D01*
X140671428Y-100772023D01*
X140433333Y-100772023D01*
X140242857Y-100724404D01*
X140147619Y-100676785D01*
X140100000Y-100629166D01*
X140052380Y-100533928D01*
X140942380Y-108016666D02*
X140466190Y-108350000D01*
X140942380Y-108588095D02*
X139942380Y-108588095D01*
X139942380Y-108207142D01*
X139990000Y-108111904D01*
X140037619Y-108064285D01*
X140132857Y-108016666D01*
X140275714Y-108016666D01*
X140370952Y-108064285D01*
X140418571Y-108111904D01*
X140466190Y-108207142D01*
X140466190Y-108588095D01*
X140942380Y-107540476D02*
X140942380Y-107350000D01*
X140894761Y-107254761D01*
X140847142Y-107207142D01*
X140704285Y-107111904D01*
X140513809Y-107064285D01*
X140132857Y-107064285D01*
X140037619Y-107111904D01*
X139990000Y-107159523D01*
X139942380Y-107254761D01*
X139942380Y-107445238D01*
X139990000Y-107540476D01*
X140037619Y-107588095D01*
X140132857Y-107635714D01*
X140370952Y-107635714D01*
X140466190Y-107588095D01*
X140513809Y-107540476D01*
X140561428Y-107445238D01*
X140561428Y-107254761D01*
X140513809Y-107159523D01*
X140466190Y-107111904D01*
X140370952Y-107064285D01*
X147520833Y-102277380D02*
X147187500Y-101801190D01*
X146949404Y-102277380D02*
X146949404Y-101277380D01*
X147330357Y-101277380D01*
X147425595Y-101325000D01*
X147473214Y-101372619D01*
X147520833Y-101467857D01*
X147520833Y-101610714D01*
X147473214Y-101705952D01*
X147425595Y-101753571D01*
X147330357Y-101801190D01*
X146949404Y-101801190D01*
X147901785Y-101372619D02*
X147949404Y-101325000D01*
X148044642Y-101277380D01*
X148282738Y-101277380D01*
X148377976Y-101325000D01*
X148425595Y-101372619D01*
X148473214Y-101467857D01*
X148473214Y-101563095D01*
X148425595Y-101705952D01*
X147854166Y-102277380D01*
X148473214Y-102277380D01*
X147495833Y-104177380D02*
X147162500Y-103701190D01*
X146924404Y-104177380D02*
X146924404Y-103177380D01*
X147305357Y-103177380D01*
X147400595Y-103225000D01*
X147448214Y-103272619D01*
X147495833Y-103367857D01*
X147495833Y-103510714D01*
X147448214Y-103605952D01*
X147400595Y-103653571D01*
X147305357Y-103701190D01*
X146924404Y-103701190D01*
X148448214Y-104177380D02*
X147876785Y-104177380D01*
X148162500Y-104177380D02*
X148162500Y-103177380D01*
X148067261Y-103320238D01*
X147972023Y-103415476D01*
X147876785Y-103463095D01*
X137982380Y-104158095D02*
X138791904Y-104158095D01*
X138887142Y-104110476D01*
X138934761Y-104062857D01*
X138982380Y-103967619D01*
X138982380Y-103777142D01*
X138934761Y-103681904D01*
X138887142Y-103634285D01*
X138791904Y-103586666D01*
X137982380Y-103586666D01*
X138934761Y-103158095D02*
X138982380Y-103015238D01*
X138982380Y-102777142D01*
X138934761Y-102681904D01*
X138887142Y-102634285D01*
X138791904Y-102586666D01*
X138696666Y-102586666D01*
X138601428Y-102634285D01*
X138553809Y-102681904D01*
X138506190Y-102777142D01*
X138458571Y-102967619D01*
X138410952Y-103062857D01*
X138363333Y-103110476D01*
X138268095Y-103158095D01*
X138172857Y-103158095D01*
X138077619Y-103110476D01*
X138030000Y-103062857D01*
X137982380Y-102967619D01*
X137982380Y-102729523D01*
X138030000Y-102586666D01*
X138458571Y-101824761D02*
X138506190Y-101681904D01*
X138553809Y-101634285D01*
X138649047Y-101586666D01*
X138791904Y-101586666D01*
X138887142Y-101634285D01*
X138934761Y-101681904D01*
X138982380Y-101777142D01*
X138982380Y-102158095D01*
X137982380Y-102158095D01*
X137982380Y-101824761D01*
X138030000Y-101729523D01*
X138077619Y-101681904D01*
X138172857Y-101634285D01*
X138268095Y-101634285D01*
X138363333Y-101681904D01*
X138410952Y-101729523D01*
X138458571Y-101824761D01*
X138458571Y-102158095D01*
X138982380Y-100634285D02*
X138982380Y-101205714D01*
X138982380Y-100920000D02*
X137982380Y-100920000D01*
X138125238Y-101015238D01*
X138220476Y-101110476D01*
X138268095Y-101205714D01*
X147247142Y-105587142D02*
X147199523Y-105634761D01*
X147056666Y-105682380D01*
X146961428Y-105682380D01*
X146818571Y-105634761D01*
X146723333Y-105539523D01*
X146675714Y-105444285D01*
X146628095Y-105253809D01*
X146628095Y-105110952D01*
X146675714Y-104920476D01*
X146723333Y-104825238D01*
X146818571Y-104730000D01*
X146961428Y-104682380D01*
X147056666Y-104682380D01*
X147199523Y-104730000D01*
X147247142Y-104777619D01*
X148199523Y-105682380D02*
X147628095Y-105682380D01*
X147913809Y-105682380D02*
X147913809Y-104682380D01*
X147818571Y-104825238D01*
X147723333Y-104920476D01*
X147628095Y-104968095D01*
X149151904Y-105682380D02*
X148580476Y-105682380D01*
X148866190Y-105682380D02*
X148866190Y-104682380D01*
X148770952Y-104825238D01*
X148675714Y-104920476D01*
X148580476Y-104968095D01*
X151657142Y-106237142D02*
X151609523Y-106284761D01*
X151466666Y-106332380D01*
X151371428Y-106332380D01*
X151228571Y-106284761D01*
X151133333Y-106189523D01*
X151085714Y-106094285D01*
X151038095Y-105903809D01*
X151038095Y-105760952D01*
X151085714Y-105570476D01*
X151133333Y-105475238D01*
X151228571Y-105380000D01*
X151371428Y-105332380D01*
X151466666Y-105332380D01*
X151609523Y-105380000D01*
X151657142Y-105427619D01*
X152609523Y-106332380D02*
X152038095Y-106332380D01*
X152323809Y-106332380D02*
X152323809Y-105332380D01*
X152228571Y-105475238D01*
X152133333Y-105570476D01*
X152038095Y-105618095D01*
X153228571Y-105332380D02*
X153323809Y-105332380D01*
X153419047Y-105380000D01*
X153466666Y-105427619D01*
X153514285Y-105522857D01*
X153561904Y-105713333D01*
X153561904Y-105951428D01*
X153514285Y-106141904D01*
X153466666Y-106237142D01*
X153419047Y-106284761D01*
X153323809Y-106332380D01*
X153228571Y-106332380D01*
X153133333Y-106284761D01*
X153085714Y-106237142D01*
X153038095Y-106141904D01*
X152990476Y-105951428D01*
X152990476Y-105713333D01*
X153038095Y-105522857D01*
X153085714Y-105427619D01*
X153133333Y-105380000D01*
X153228571Y-105332380D01*
X151563333Y-100847142D02*
X151515714Y-100894761D01*
X151372857Y-100942380D01*
X151277619Y-100942380D01*
X151134761Y-100894761D01*
X151039523Y-100799523D01*
X150991904Y-100704285D01*
X150944285Y-100513809D01*
X150944285Y-100370952D01*
X150991904Y-100180476D01*
X151039523Y-100085238D01*
X151134761Y-99990000D01*
X151277619Y-99942380D01*
X151372857Y-99942380D01*
X151515714Y-99990000D01*
X151563333Y-100037619D01*
X152039523Y-100942380D02*
X152230000Y-100942380D01*
X152325238Y-100894761D01*
X152372857Y-100847142D01*
X152468095Y-100704285D01*
X152515714Y-100513809D01*
X152515714Y-100132857D01*
X152468095Y-100037619D01*
X152420476Y-99990000D01*
X152325238Y-99942380D01*
X152134761Y-99942380D01*
X152039523Y-99990000D01*
X151991904Y-100037619D01*
X151944285Y-100132857D01*
X151944285Y-100370952D01*
X151991904Y-100466190D01*
X152039523Y-100513809D01*
X152134761Y-100561428D01*
X152325238Y-100561428D01*
X152420476Y-100513809D01*
X152468095Y-100466190D01*
X152515714Y-100370952D01*
X144897142Y-101279166D02*
X144944761Y-101326785D01*
X144992380Y-101469642D01*
X144992380Y-101564880D01*
X144944761Y-101707738D01*
X144849523Y-101802976D01*
X144754285Y-101850595D01*
X144563809Y-101898214D01*
X144420952Y-101898214D01*
X144230476Y-101850595D01*
X144135238Y-101802976D01*
X144040000Y-101707738D01*
X143992380Y-101564880D01*
X143992380Y-101469642D01*
X144040000Y-101326785D01*
X144087619Y-101279166D01*
X144420952Y-100707738D02*
X144373333Y-100802976D01*
X144325714Y-100850595D01*
X144230476Y-100898214D01*
X144182857Y-100898214D01*
X144087619Y-100850595D01*
X144040000Y-100802976D01*
X143992380Y-100707738D01*
X143992380Y-100517261D01*
X144040000Y-100422023D01*
X144087619Y-100374404D01*
X144182857Y-100326785D01*
X144230476Y-100326785D01*
X144325714Y-100374404D01*
X144373333Y-100422023D01*
X144420952Y-100517261D01*
X144420952Y-100707738D01*
X144468571Y-100802976D01*
X144516190Y-100850595D01*
X144611428Y-100898214D01*
X144801904Y-100898214D01*
X144897142Y-100850595D01*
X144944761Y-100802976D01*
X144992380Y-100707738D01*
X144992380Y-100517261D01*
X144944761Y-100422023D01*
X144897142Y-100374404D01*
X144801904Y-100326785D01*
X144611428Y-100326785D01*
X144516190Y-100374404D01*
X144468571Y-100422023D01*
X144420952Y-100517261D01*
X153253333Y-95247142D02*
X153205714Y-95294761D01*
X153062857Y-95342380D01*
X152967619Y-95342380D01*
X152824761Y-95294761D01*
X152729523Y-95199523D01*
X152681904Y-95104285D01*
X152634285Y-94913809D01*
X152634285Y-94770952D01*
X152681904Y-94580476D01*
X152729523Y-94485238D01*
X152824761Y-94390000D01*
X152967619Y-94342380D01*
X153062857Y-94342380D01*
X153205714Y-94390000D01*
X153253333Y-94437619D01*
X154158095Y-94342380D02*
X153681904Y-94342380D01*
X153634285Y-94818571D01*
X153681904Y-94770952D01*
X153777142Y-94723333D01*
X154015238Y-94723333D01*
X154110476Y-94770952D01*
X154158095Y-94818571D01*
X154205714Y-94913809D01*
X154205714Y-95151904D01*
X154158095Y-95247142D01*
X154110476Y-95294761D01*
X154015238Y-95342380D01*
X153777142Y-95342380D01*
X153681904Y-95294761D01*
X153634285Y-95247142D01*
X142877142Y-101176666D02*
X142924761Y-101224285D01*
X142972380Y-101367142D01*
X142972380Y-101462380D01*
X142924761Y-101605238D01*
X142829523Y-101700476D01*
X142734285Y-101748095D01*
X142543809Y-101795714D01*
X142400952Y-101795714D01*
X142210476Y-101748095D01*
X142115238Y-101700476D01*
X142020000Y-101605238D01*
X141972380Y-101462380D01*
X141972380Y-101367142D01*
X142020000Y-101224285D01*
X142067619Y-101176666D01*
X142305714Y-100319523D02*
X142972380Y-100319523D01*
X141924761Y-100557619D02*
X142639047Y-100795714D01*
X142639047Y-100176666D01*
X156993333Y-109487142D02*
X156945714Y-109534761D01*
X156802857Y-109582380D01*
X156707619Y-109582380D01*
X156564761Y-109534761D01*
X156469523Y-109439523D01*
X156421904Y-109344285D01*
X156374285Y-109153809D01*
X156374285Y-109010952D01*
X156421904Y-108820476D01*
X156469523Y-108725238D01*
X156564761Y-108630000D01*
X156707619Y-108582380D01*
X156802857Y-108582380D01*
X156945714Y-108630000D01*
X156993333Y-108677619D01*
X157374285Y-108677619D02*
X157421904Y-108630000D01*
X157517142Y-108582380D01*
X157755238Y-108582380D01*
X157850476Y-108630000D01*
X157898095Y-108677619D01*
X157945714Y-108772857D01*
X157945714Y-108868095D01*
X157898095Y-109010952D01*
X157326666Y-109582380D01*
X157945714Y-109582380D01*
X161783333Y-95217142D02*
X161735714Y-95264761D01*
X161592857Y-95312380D01*
X161497619Y-95312380D01*
X161354761Y-95264761D01*
X161259523Y-95169523D01*
X161211904Y-95074285D01*
X161164285Y-94883809D01*
X161164285Y-94740952D01*
X161211904Y-94550476D01*
X161259523Y-94455238D01*
X161354761Y-94360000D01*
X161497619Y-94312380D01*
X161592857Y-94312380D01*
X161735714Y-94360000D01*
X161783333Y-94407619D01*
X162735714Y-95312380D02*
X162164285Y-95312380D01*
X162450000Y-95312380D02*
X162450000Y-94312380D01*
X162354761Y-94455238D01*
X162259523Y-94550476D01*
X162164285Y-94598095D01*
X144856243Y-71790380D02*
X144856243Y-71857724D01*
X144788899Y-71992411D01*
X144721556Y-72059754D01*
X144586869Y-72127098D01*
X144452182Y-72127098D01*
X144351167Y-72093426D01*
X144182808Y-71992411D01*
X144081793Y-71891396D01*
X143980777Y-71723037D01*
X143947106Y-71622022D01*
X143947106Y-71487335D01*
X144014449Y-71352648D01*
X144081793Y-71285304D01*
X144216480Y-71217961D01*
X144283823Y-71217961D01*
X145597022Y-71184289D02*
X145192961Y-71588350D01*
X145394991Y-71386319D02*
X144687884Y-70679212D01*
X144721556Y-70847571D01*
X144721556Y-70982258D01*
X144687884Y-71083274D01*
X145529678Y-69837419D02*
X145192961Y-70174136D01*
X145496006Y-70544525D01*
X145496006Y-70477182D01*
X145529678Y-70376167D01*
X145698037Y-70207808D01*
X145799052Y-70174136D01*
X145866396Y-70174136D01*
X145967411Y-70207808D01*
X146135770Y-70376167D01*
X146169441Y-70477182D01*
X146169441Y-70544525D01*
X146135770Y-70645541D01*
X145967411Y-70813899D01*
X145866396Y-70847571D01*
X145799052Y-70847571D01*
X154027608Y-76910919D02*
X154027608Y-76978263D01*
X153960264Y-77112950D01*
X153892921Y-77180293D01*
X153758234Y-77247637D01*
X153623547Y-77247637D01*
X153522532Y-77213965D01*
X153354173Y-77112950D01*
X153253158Y-77011935D01*
X153152142Y-76843576D01*
X153118471Y-76742561D01*
X153118471Y-76607874D01*
X153185814Y-76473187D01*
X153253158Y-76405843D01*
X153387845Y-76338500D01*
X153455188Y-76338500D01*
X154768387Y-76304828D02*
X154364326Y-76708889D01*
X154566356Y-76506858D02*
X153859249Y-75799751D01*
X153892921Y-75968110D01*
X153892921Y-76102797D01*
X153859249Y-76203813D01*
X154903074Y-75227332D02*
X155374478Y-75698736D01*
X154465341Y-75126316D02*
X154802058Y-75799751D01*
X155239791Y-75362019D01*
X160740048Y-117846130D02*
X160672705Y-117846130D01*
X160538018Y-117778786D01*
X160470674Y-117711443D01*
X160403331Y-117576755D01*
X160403331Y-117442068D01*
X160437002Y-117341053D01*
X160538018Y-117172694D01*
X160639033Y-117071679D01*
X160807392Y-116970664D01*
X160908407Y-116936992D01*
X161043094Y-116936992D01*
X161177781Y-117004336D01*
X161245125Y-117071679D01*
X161312468Y-117206366D01*
X161312468Y-117273710D01*
X161615514Y-117442068D02*
X162086918Y-117913473D01*
X161076766Y-118317534D01*
X165266697Y-113901774D02*
X165199354Y-113901774D01*
X165064667Y-113834430D01*
X164997323Y-113767087D01*
X164929980Y-113632399D01*
X164929980Y-113497712D01*
X164963651Y-113396697D01*
X165064667Y-113228338D01*
X165165682Y-113127323D01*
X165334041Y-113026308D01*
X165435056Y-112992636D01*
X165569743Y-112992636D01*
X165704430Y-113059980D01*
X165771774Y-113127323D01*
X165839117Y-113262010D01*
X165839117Y-113329354D01*
X166512552Y-113868102D02*
X166377865Y-113733415D01*
X166276850Y-113699743D01*
X166209506Y-113699743D01*
X166041148Y-113733415D01*
X165872789Y-113834430D01*
X165603415Y-114103804D01*
X165569743Y-114204819D01*
X165569743Y-114272163D01*
X165603415Y-114373178D01*
X165738102Y-114507865D01*
X165839117Y-114541537D01*
X165906461Y-114541537D01*
X166007476Y-114507865D01*
X166175835Y-114339506D01*
X166209506Y-114238491D01*
X166209506Y-114171148D01*
X166175835Y-114070132D01*
X166041148Y-113935445D01*
X165940132Y-113901774D01*
X165872789Y-113901774D01*
X165771774Y-113935445D01*
X146926564Y-75505635D02*
X146589846Y-75842353D01*
X147061251Y-74899544D02*
X146926564Y-75505635D01*
X147532655Y-75370948D01*
X147667342Y-75640322D02*
X147734686Y-75640322D01*
X147835701Y-75673994D01*
X148004060Y-75842353D01*
X148037732Y-75943368D01*
X148037732Y-76010711D01*
X148004060Y-76111727D01*
X147936716Y-76179070D01*
X147802029Y-76246414D01*
X146993907Y-76246414D01*
X147431640Y-76684146D01*
X133620380Y-95934095D02*
X132620380Y-95934095D01*
X132620380Y-95696000D01*
X132668000Y-95553142D01*
X132763238Y-95457904D01*
X132858476Y-95410285D01*
X133048952Y-95362666D01*
X133191809Y-95362666D01*
X133382285Y-95410285D01*
X133477523Y-95457904D01*
X133572761Y-95553142D01*
X133620380Y-95696000D01*
X133620380Y-95934095D01*
X132620380Y-94457904D02*
X132620380Y-94934095D01*
X133096571Y-94981714D01*
X133048952Y-94934095D01*
X133001333Y-94838857D01*
X133001333Y-94600761D01*
X133048952Y-94505523D01*
X133096571Y-94457904D01*
X133191809Y-94410285D01*
X133429904Y-94410285D01*
X133525142Y-94457904D01*
X133572761Y-94505523D01*
X133620380Y-94600761D01*
X133620380Y-94838857D01*
X133572761Y-94934095D01*
X133525142Y-94981714D01*
X174333600Y-86520504D02*
X175143124Y-86520504D01*
X175238362Y-86472885D01*
X175285981Y-86425266D01*
X175333600Y-86330028D01*
X175333600Y-86139552D01*
X175285981Y-86044314D01*
X175238362Y-85996695D01*
X175143124Y-85949076D01*
X174333600Y-85949076D01*
X174428839Y-85520504D02*
X174381220Y-85472885D01*
X174333600Y-85377647D01*
X174333600Y-85139552D01*
X174381220Y-85044314D01*
X174428839Y-84996695D01*
X174524077Y-84949076D01*
X174619315Y-84949076D01*
X174762172Y-84996695D01*
X175333600Y-85568123D01*
X175333600Y-84949076D01*
X174040000Y-65477619D02*
X174087619Y-65430000D01*
X174182857Y-65382380D01*
X174420952Y-65382380D01*
X174516190Y-65430000D01*
X174563809Y-65477619D01*
X174611428Y-65572857D01*
X174611428Y-65668095D01*
X174563809Y-65810952D01*
X173992380Y-66382380D01*
X174611428Y-66382380D01*
X175230476Y-65382380D02*
X175325714Y-65382380D01*
X175420952Y-65430000D01*
X175468571Y-65477619D01*
X175516190Y-65572857D01*
X175563809Y-65763333D01*
X175563809Y-66001428D01*
X175516190Y-66191904D01*
X175468571Y-66287142D01*
X175420952Y-66334761D01*
X175325714Y-66382380D01*
X175230476Y-66382380D01*
X175135238Y-66334761D01*
X175087619Y-66287142D01*
X175040000Y-66191904D01*
X174992380Y-66001428D01*
X174992380Y-65763333D01*
X175040000Y-65572857D01*
X175087619Y-65477619D01*
X175135238Y-65430000D01*
X175230476Y-65382380D01*
X176706666Y-65334761D02*
X175849523Y-66620476D01*
X176992380Y-65477619D02*
X177040000Y-65430000D01*
X177135238Y-65382380D01*
X177373333Y-65382380D01*
X177468571Y-65430000D01*
X177516190Y-65477619D01*
X177563809Y-65572857D01*
X177563809Y-65668095D01*
X177516190Y-65810952D01*
X176944761Y-66382380D01*
X177563809Y-66382380D01*
X178135238Y-65810952D02*
X178040000Y-65763333D01*
X177992380Y-65715714D01*
X177944761Y-65620476D01*
X177944761Y-65572857D01*
X177992380Y-65477619D01*
X178040000Y-65430000D01*
X178135238Y-65382380D01*
X178325714Y-65382380D01*
X178420952Y-65430000D01*
X178468571Y-65477619D01*
X178516190Y-65572857D01*
X178516190Y-65620476D01*
X178468571Y-65715714D01*
X178420952Y-65763333D01*
X178325714Y-65810952D01*
X178135238Y-65810952D01*
X178040000Y-65858571D01*
X177992380Y-65906190D01*
X177944761Y-66001428D01*
X177944761Y-66191904D01*
X177992380Y-66287142D01*
X178040000Y-66334761D01*
X178135238Y-66382380D01*
X178325714Y-66382380D01*
X178420952Y-66334761D01*
X178468571Y-66287142D01*
X178516190Y-66191904D01*
X178516190Y-66001428D01*
X178468571Y-65906190D01*
X178420952Y-65858571D01*
X178325714Y-65810952D01*
X179706666Y-66382380D02*
X179706666Y-65382380D01*
X180087619Y-65382380D01*
X180182857Y-65430000D01*
X180230476Y-65477619D01*
X180278095Y-65572857D01*
X180278095Y-65715714D01*
X180230476Y-65810952D01*
X180182857Y-65858571D01*
X180087619Y-65906190D01*
X179706666Y-65906190D01*
X180706666Y-66382380D02*
X180706666Y-65382380D01*
X181182857Y-66382380D02*
X181182857Y-65382380D01*
X181754285Y-66382380D01*
X181754285Y-65382380D01*
X182992380Y-66382380D02*
X182992380Y-65382380D01*
X184040000Y-66287142D02*
X183992380Y-66334761D01*
X183849523Y-66382380D01*
X183754285Y-66382380D01*
X183611428Y-66334761D01*
X183516190Y-66239523D01*
X183468571Y-66144285D01*
X183420952Y-65953809D01*
X183420952Y-65810952D01*
X183468571Y-65620476D01*
X183516190Y-65525238D01*
X183611428Y-65430000D01*
X183754285Y-65382380D01*
X183849523Y-65382380D01*
X183992380Y-65430000D01*
X184040000Y-65477619D01*
X142782142Y-66282142D02*
X142734523Y-66329761D01*
X142591666Y-66377380D01*
X142496428Y-66377380D01*
X142353571Y-66329761D01*
X142258333Y-66234523D01*
X142210714Y-66139285D01*
X142163095Y-65948809D01*
X142163095Y-65805952D01*
X142210714Y-65615476D01*
X142258333Y-65520238D01*
X142353571Y-65425000D01*
X142496428Y-65377380D01*
X142591666Y-65377380D01*
X142734523Y-65425000D01*
X142782142Y-65472619D01*
X143734523Y-66377380D02*
X143163095Y-66377380D01*
X143448809Y-66377380D02*
X143448809Y-65377380D01*
X143353571Y-65520238D01*
X143258333Y-65615476D01*
X143163095Y-65663095D01*
X144067857Y-65377380D02*
X144686904Y-65377380D01*
X144353571Y-65758333D01*
X144496428Y-65758333D01*
X144591666Y-65805952D01*
X144639285Y-65853571D01*
X144686904Y-65948809D01*
X144686904Y-66186904D01*
X144639285Y-66282142D01*
X144591666Y-66329761D01*
X144496428Y-66377380D01*
X144210714Y-66377380D01*
X144115476Y-66329761D01*
X144067857Y-66282142D01*
X147961142Y-108379142D02*
X147913523Y-108426761D01*
X147770666Y-108474380D01*
X147675428Y-108474380D01*
X147532571Y-108426761D01*
X147437333Y-108331523D01*
X147389714Y-108236285D01*
X147342095Y-108045809D01*
X147342095Y-107902952D01*
X147389714Y-107712476D01*
X147437333Y-107617238D01*
X147532571Y-107522000D01*
X147675428Y-107474380D01*
X147770666Y-107474380D01*
X147913523Y-107522000D01*
X147961142Y-107569619D01*
X148913523Y-108474380D02*
X148342095Y-108474380D01*
X148627809Y-108474380D02*
X148627809Y-107474380D01*
X148532571Y-107617238D01*
X148437333Y-107712476D01*
X148342095Y-107760095D01*
X149294476Y-107569619D02*
X149342095Y-107522000D01*
X149437333Y-107474380D01*
X149675428Y-107474380D01*
X149770666Y-107522000D01*
X149818285Y-107569619D01*
X149865904Y-107664857D01*
X149865904Y-107760095D01*
X149818285Y-107902952D01*
X149246857Y-108474380D01*
X149865904Y-108474380D01*
X176124285Y-98622380D02*
X176124285Y-97622380D01*
X176124285Y-98098571D02*
X176695714Y-98098571D01*
X176695714Y-98622380D02*
X176695714Y-97622380D01*
X177505238Y-98098571D02*
X177648095Y-98146190D01*
X177695714Y-98193809D01*
X177743333Y-98289047D01*
X177743333Y-98431904D01*
X177695714Y-98527142D01*
X177648095Y-98574761D01*
X177552857Y-98622380D01*
X177171904Y-98622380D01*
X177171904Y-97622380D01*
X177505238Y-97622380D01*
X177600476Y-97670000D01*
X177648095Y-97717619D01*
X177695714Y-97812857D01*
X177695714Y-97908095D01*
X177648095Y-98003333D01*
X177600476Y-98050952D01*
X177505238Y-98098571D01*
X177171904Y-98098571D01*
X168109333Y-104650642D02*
X168061714Y-104698261D01*
X167918857Y-104745880D01*
X167823619Y-104745880D01*
X167680761Y-104698261D01*
X167585523Y-104603023D01*
X167537904Y-104507785D01*
X167490285Y-104317309D01*
X167490285Y-104174452D01*
X167537904Y-103983976D01*
X167585523Y-103888738D01*
X167680761Y-103793500D01*
X167823619Y-103745880D01*
X167918857Y-103745880D01*
X168061714Y-103793500D01*
X168109333Y-103841119D01*
X168442666Y-103745880D02*
X169061714Y-103745880D01*
X168728380Y-104126833D01*
X168871238Y-104126833D01*
X168966476Y-104174452D01*
X169014095Y-104222071D01*
X169061714Y-104317309D01*
X169061714Y-104555404D01*
X169014095Y-104650642D01*
X168966476Y-104698261D01*
X168871238Y-104745880D01*
X168585523Y-104745880D01*
X168490285Y-104698261D01*
X168442666Y-104650642D01*
X159304095Y-94838380D02*
X159304095Y-95647904D01*
X159351714Y-95743142D01*
X159399333Y-95790761D01*
X159494571Y-95838380D01*
X159685047Y-95838380D01*
X159780285Y-95790761D01*
X159827904Y-95743142D01*
X159875523Y-95647904D01*
X159875523Y-94838380D01*
X160875523Y-95838380D02*
X160304095Y-95838380D01*
X160589809Y-95838380D02*
X160589809Y-94838380D01*
X160494571Y-94981238D01*
X160399333Y-95076476D01*
X160304095Y-95124095D01*
X181979238Y-114092666D02*
X181931619Y-114235523D01*
X181931619Y-114473619D01*
X181979238Y-114568857D01*
X182026857Y-114616476D01*
X182122095Y-114664095D01*
X182217333Y-114664095D01*
X182312571Y-114616476D01*
X182360190Y-114568857D01*
X182407809Y-114473619D01*
X182455428Y-114283142D01*
X182503047Y-114187904D01*
X182550666Y-114140285D01*
X182645904Y-114092666D01*
X182741142Y-114092666D01*
X182836380Y-114140285D01*
X182884000Y-114187904D01*
X182931619Y-114283142D01*
X182931619Y-114521238D01*
X182884000Y-114664095D01*
X182931619Y-114997428D02*
X181931619Y-115235523D01*
X182645904Y-115426000D01*
X181931619Y-115616476D01*
X182931619Y-115854571D01*
X181931619Y-116759333D02*
X181931619Y-116187904D01*
X181931619Y-116473619D02*
X182931619Y-116473619D01*
X182788761Y-116378380D01*
X182693523Y-116283142D01*
X182645904Y-116187904D01*
X179651095Y-98586380D02*
X179651095Y-97586380D01*
X180032047Y-97586380D01*
X180127285Y-97634000D01*
X180174904Y-97681619D01*
X180222523Y-97776857D01*
X180222523Y-97919714D01*
X180174904Y-98014952D01*
X180127285Y-98062571D01*
X180032047Y-98110190D01*
X179651095Y-98110190D01*
X181222523Y-98586380D02*
X180889190Y-98110190D01*
X180651095Y-98586380D02*
X180651095Y-97586380D01*
X181032047Y-97586380D01*
X181127285Y-97634000D01*
X181174904Y-97681619D01*
X181222523Y-97776857D01*
X181222523Y-97919714D01*
X181174904Y-98014952D01*
X181127285Y-98062571D01*
X181032047Y-98110190D01*
X180651095Y-98110190D01*
X182174904Y-97634000D02*
X182079666Y-97586380D01*
X181936809Y-97586380D01*
X181793952Y-97634000D01*
X181698714Y-97729238D01*
X181651095Y-97824476D01*
X181603476Y-98014952D01*
X181603476Y-98157809D01*
X181651095Y-98348285D01*
X181698714Y-98443523D01*
X181793952Y-98538761D01*
X181936809Y-98586380D01*
X182032047Y-98586380D01*
X182174904Y-98538761D01*
X182222523Y-98491142D01*
X182222523Y-98157809D01*
X182032047Y-98157809D01*
X171673714Y-98037571D02*
X172007047Y-98037571D01*
X172149904Y-98561380D02*
X171673714Y-98561380D01*
X171673714Y-97561380D01*
X172149904Y-97561380D01*
X173149904Y-98561380D02*
X172816571Y-98085190D01*
X172578476Y-98561380D02*
X172578476Y-97561380D01*
X172959428Y-97561380D01*
X173054666Y-97609000D01*
X173102285Y-97656619D01*
X173149904Y-97751857D01*
X173149904Y-97894714D01*
X173102285Y-97989952D01*
X173054666Y-98037571D01*
X172959428Y-98085190D01*
X172578476Y-98085190D01*
X174149904Y-98561380D02*
X173816571Y-98085190D01*
X173578476Y-98561380D02*
X173578476Y-97561380D01*
X173959428Y-97561380D01*
X174054666Y-97609000D01*
X174102285Y-97656619D01*
X174149904Y-97751857D01*
X174149904Y-97894714D01*
X174102285Y-97989952D01*
X174054666Y-98037571D01*
X173959428Y-98085190D01*
X173578476Y-98085190D01*
X153352857Y-65890952D02*
X153257619Y-65843333D01*
X153210000Y-65795714D01*
X153162380Y-65700476D01*
X153162380Y-65652857D01*
X153210000Y-65557619D01*
X153257619Y-65510000D01*
X153352857Y-65462380D01*
X153543333Y-65462380D01*
X153638571Y-65510000D01*
X153686190Y-65557619D01*
X153733809Y-65652857D01*
X153733809Y-65700476D01*
X153686190Y-65795714D01*
X153638571Y-65843333D01*
X153543333Y-65890952D01*
X153352857Y-65890952D01*
X153257619Y-65938571D01*
X153210000Y-65986190D01*
X153162380Y-66081428D01*
X153162380Y-66271904D01*
X153210000Y-66367142D01*
X153257619Y-66414761D01*
X153352857Y-66462380D01*
X153543333Y-66462380D01*
X153638571Y-66414761D01*
X153686190Y-66367142D01*
X153733809Y-66271904D01*
X153733809Y-66081428D01*
X153686190Y-65986190D01*
X153638571Y-65938571D01*
X153543333Y-65890952D01*
X154924285Y-66462380D02*
X154924285Y-65462380D01*
X155305238Y-65462380D01*
X155400476Y-65510000D01*
X155448095Y-65557619D01*
X155495714Y-65652857D01*
X155495714Y-65795714D01*
X155448095Y-65890952D01*
X155400476Y-65938571D01*
X155305238Y-65986190D01*
X154924285Y-65986190D01*
X155924285Y-66462380D02*
X155924285Y-65462380D01*
X156400476Y-66462380D02*
X156400476Y-65462380D01*
X156971904Y-66462380D01*
X156971904Y-65462380D01*
X158210000Y-66462380D02*
X158210000Y-65462380D01*
X159257619Y-66367142D02*
X159210000Y-66414761D01*
X159067142Y-66462380D01*
X158971904Y-66462380D01*
X158829047Y-66414761D01*
X158733809Y-66319523D01*
X158686190Y-66224285D01*
X158638571Y-66033809D01*
X158638571Y-65890952D01*
X158686190Y-65700476D01*
X158733809Y-65605238D01*
X158829047Y-65510000D01*
X158971904Y-65462380D01*
X159067142Y-65462380D01*
X159210000Y-65510000D01*
X159257619Y-65557619D01*
X164757619Y-66342380D02*
X164186190Y-66342380D01*
X164471904Y-66342380D02*
X164471904Y-65342380D01*
X164376666Y-65485238D01*
X164281428Y-65580476D01*
X164186190Y-65628095D01*
X165614761Y-65675714D02*
X165614761Y-66342380D01*
X165376666Y-65294761D02*
X165138571Y-66009047D01*
X165757619Y-66009047D01*
X166900476Y-66342380D02*
X166900476Y-65342380D01*
X167281428Y-65342380D01*
X167376666Y-65390000D01*
X167424285Y-65437619D01*
X167471904Y-65532857D01*
X167471904Y-65675714D01*
X167424285Y-65770952D01*
X167376666Y-65818571D01*
X167281428Y-65866190D01*
X166900476Y-65866190D01*
X167900476Y-66342380D02*
X167900476Y-65342380D01*
X168376666Y-66342380D02*
X168376666Y-65342380D01*
X168948095Y-66342380D01*
X168948095Y-65342380D01*
X170186190Y-66342380D02*
X170186190Y-65342380D01*
X171233809Y-66247142D02*
X171186190Y-66294761D01*
X171043333Y-66342380D01*
X170948095Y-66342380D01*
X170805238Y-66294761D01*
X170710000Y-66199523D01*
X170662380Y-66104285D01*
X170614761Y-65913809D01*
X170614761Y-65770952D01*
X170662380Y-65580476D01*
X170710000Y-65485238D01*
X170805238Y-65390000D01*
X170948095Y-65342380D01*
X171043333Y-65342380D01*
X171186190Y-65390000D01*
X171233809Y-65437619D01*
X133634285Y-66304761D02*
X133777142Y-66352380D01*
X134015238Y-66352380D01*
X134110476Y-66304761D01*
X134158095Y-66257142D01*
X134205714Y-66161904D01*
X134205714Y-66066666D01*
X134158095Y-65971428D01*
X134110476Y-65923809D01*
X134015238Y-65876190D01*
X133824761Y-65828571D01*
X133729523Y-65780952D01*
X133681904Y-65733333D01*
X133634285Y-65638095D01*
X133634285Y-65542857D01*
X133681904Y-65447619D01*
X133729523Y-65400000D01*
X133824761Y-65352380D01*
X134062857Y-65352380D01*
X134205714Y-65400000D01*
X134824761Y-65352380D02*
X135015238Y-65352380D01*
X135110476Y-65400000D01*
X135205714Y-65495238D01*
X135253333Y-65685714D01*
X135253333Y-66019047D01*
X135205714Y-66209523D01*
X135110476Y-66304761D01*
X135015238Y-66352380D01*
X134824761Y-66352380D01*
X134729523Y-66304761D01*
X134634285Y-66209523D01*
X134586666Y-66019047D01*
X134586666Y-65685714D01*
X134634285Y-65495238D01*
X134729523Y-65400000D01*
X134824761Y-65352380D01*
X135681904Y-65352380D02*
X135681904Y-66161904D01*
X135729523Y-66257142D01*
X135777142Y-66304761D01*
X135872380Y-66352380D01*
X136062857Y-66352380D01*
X136158095Y-66304761D01*
X136205714Y-66257142D01*
X136253333Y-66161904D01*
X136253333Y-65352380D01*
X137300952Y-66352380D02*
X136967619Y-65876190D01*
X136729523Y-66352380D02*
X136729523Y-65352380D01*
X137110476Y-65352380D01*
X137205714Y-65400000D01*
X137253333Y-65447619D01*
X137300952Y-65542857D01*
X137300952Y-65685714D01*
X137253333Y-65780952D01*
X137205714Y-65828571D01*
X137110476Y-65876190D01*
X136729523Y-65876190D01*
X138300952Y-66257142D02*
X138253333Y-66304761D01*
X138110476Y-66352380D01*
X138015238Y-66352380D01*
X137872380Y-66304761D01*
X137777142Y-66209523D01*
X137729523Y-66114285D01*
X137681904Y-65923809D01*
X137681904Y-65780952D01*
X137729523Y-65590476D01*
X137777142Y-65495238D01*
X137872380Y-65400000D01*
X138015238Y-65352380D01*
X138110476Y-65352380D01*
X138253333Y-65400000D01*
X138300952Y-65447619D01*
X138729523Y-65828571D02*
X139062857Y-65828571D01*
X139205714Y-66352380D02*
X138729523Y-66352380D01*
X138729523Y-65352380D01*
X139205714Y-65352380D01*
X144034571Y-95421333D02*
X144034571Y-95754666D01*
X144558380Y-95754666D02*
X143558380Y-95754666D01*
X143558380Y-95278476D01*
X144558380Y-94373714D02*
X144558380Y-94945142D01*
X144558380Y-94659428D02*
X143558380Y-94659428D01*
X143701238Y-94754666D01*
X143796476Y-94849904D01*
X143844095Y-94945142D01*
X163100118Y-115146446D02*
X162763400Y-115483164D01*
X163234805Y-114540355D02*
X163100118Y-115146446D01*
X163706209Y-115011759D01*
X163605194Y-116324957D02*
X163201133Y-115920896D01*
X163403164Y-116122927D02*
X164110270Y-115415820D01*
X163941912Y-115449492D01*
X163807225Y-115449492D01*
X163706209Y-115415820D01*
M02*
