G04 #@! TF.GenerationSoftware,KiCad,Pcbnew,5.1.5+dfsg1-2build2*
G04 #@! TF.CreationDate,2020-11-03T19:00:10-05:00*
G04 #@! TF.ProjectId,multi-avr,6d756c74-692d-4617-9672-2e6b69636164,rev?*
G04 #@! TF.SameCoordinates,Original*
G04 #@! TF.FileFunction,Copper,L1,Top*
G04 #@! TF.FilePolarity,Positive*
%FSLAX46Y46*%
G04 Gerber Fmt 4.6, Leading zero omitted, Abs format (unit mm)*
G04 Created by KiCad (PCBNEW 5.1.5+dfsg1-2build2) date 2020-11-03 19:00:10*
%MOMM*%
%LPD*%
G04 APERTURE LIST*
%ADD10C,0.100000*%
%ADD11R,2.450000X0.600000*%
%ADD12R,2.450000X0.300000*%
%ADD13O,2.100000X1.000000*%
%ADD14O,1.600000X1.000000*%
%ADD15R,0.900000X1.200000*%
%ADD16R,1.600000X2.400000*%
%ADD17O,1.600000X2.400000*%
%ADD18O,1.700000X1.700000*%
%ADD19R,1.700000X1.700000*%
%ADD20R,0.550000X1.500000*%
%ADD21R,1.500000X0.550000*%
%ADD22C,2.000000*%
%ADD23C,0.800000*%
%ADD24C,0.508000*%
%ADD25C,0.381000*%
G04 APERTURE END LIST*
G04 #@! TA.AperFunction,SMDPad,CuDef*
D10*
G36*
X173517642Y-76726174D02*
G01*
X173541303Y-76729684D01*
X173564507Y-76735496D01*
X173587029Y-76743554D01*
X173608653Y-76753782D01*
X173629170Y-76766079D01*
X173648383Y-76780329D01*
X173666107Y-76796393D01*
X173682171Y-76814117D01*
X173696421Y-76833330D01*
X173708718Y-76853847D01*
X173718946Y-76875471D01*
X173727004Y-76897993D01*
X173732816Y-76921197D01*
X173736326Y-76944858D01*
X173737500Y-76968750D01*
X173737500Y-77881250D01*
X173736326Y-77905142D01*
X173732816Y-77928803D01*
X173727004Y-77952007D01*
X173718946Y-77974529D01*
X173708718Y-77996153D01*
X173696421Y-78016670D01*
X173682171Y-78035883D01*
X173666107Y-78053607D01*
X173648383Y-78069671D01*
X173629170Y-78083921D01*
X173608653Y-78096218D01*
X173587029Y-78106446D01*
X173564507Y-78114504D01*
X173541303Y-78120316D01*
X173517642Y-78123826D01*
X173493750Y-78125000D01*
X173006250Y-78125000D01*
X172982358Y-78123826D01*
X172958697Y-78120316D01*
X172935493Y-78114504D01*
X172912971Y-78106446D01*
X172891347Y-78096218D01*
X172870830Y-78083921D01*
X172851617Y-78069671D01*
X172833893Y-78053607D01*
X172817829Y-78035883D01*
X172803579Y-78016670D01*
X172791282Y-77996153D01*
X172781054Y-77974529D01*
X172772996Y-77952007D01*
X172767184Y-77928803D01*
X172763674Y-77905142D01*
X172762500Y-77881250D01*
X172762500Y-76968750D01*
X172763674Y-76944858D01*
X172767184Y-76921197D01*
X172772996Y-76897993D01*
X172781054Y-76875471D01*
X172791282Y-76853847D01*
X172803579Y-76833330D01*
X172817829Y-76814117D01*
X172833893Y-76796393D01*
X172851617Y-76780329D01*
X172870830Y-76766079D01*
X172891347Y-76753782D01*
X172912971Y-76743554D01*
X172935493Y-76735496D01*
X172958697Y-76729684D01*
X172982358Y-76726174D01*
X173006250Y-76725000D01*
X173493750Y-76725000D01*
X173517642Y-76726174D01*
G37*
G04 #@! TD.AperFunction*
G04 #@! TA.AperFunction,SMDPad,CuDef*
G36*
X175392642Y-76726174D02*
G01*
X175416303Y-76729684D01*
X175439507Y-76735496D01*
X175462029Y-76743554D01*
X175483653Y-76753782D01*
X175504170Y-76766079D01*
X175523383Y-76780329D01*
X175541107Y-76796393D01*
X175557171Y-76814117D01*
X175571421Y-76833330D01*
X175583718Y-76853847D01*
X175593946Y-76875471D01*
X175602004Y-76897993D01*
X175607816Y-76921197D01*
X175611326Y-76944858D01*
X175612500Y-76968750D01*
X175612500Y-77881250D01*
X175611326Y-77905142D01*
X175607816Y-77928803D01*
X175602004Y-77952007D01*
X175593946Y-77974529D01*
X175583718Y-77996153D01*
X175571421Y-78016670D01*
X175557171Y-78035883D01*
X175541107Y-78053607D01*
X175523383Y-78069671D01*
X175504170Y-78083921D01*
X175483653Y-78096218D01*
X175462029Y-78106446D01*
X175439507Y-78114504D01*
X175416303Y-78120316D01*
X175392642Y-78123826D01*
X175368750Y-78125000D01*
X174881250Y-78125000D01*
X174857358Y-78123826D01*
X174833697Y-78120316D01*
X174810493Y-78114504D01*
X174787971Y-78106446D01*
X174766347Y-78096218D01*
X174745830Y-78083921D01*
X174726617Y-78069671D01*
X174708893Y-78053607D01*
X174692829Y-78035883D01*
X174678579Y-78016670D01*
X174666282Y-77996153D01*
X174656054Y-77974529D01*
X174647996Y-77952007D01*
X174642184Y-77928803D01*
X174638674Y-77905142D01*
X174637500Y-77881250D01*
X174637500Y-76968750D01*
X174638674Y-76944858D01*
X174642184Y-76921197D01*
X174647996Y-76897993D01*
X174656054Y-76875471D01*
X174666282Y-76853847D01*
X174678579Y-76833330D01*
X174692829Y-76814117D01*
X174708893Y-76796393D01*
X174726617Y-76780329D01*
X174745830Y-76766079D01*
X174766347Y-76753782D01*
X174787971Y-76743554D01*
X174810493Y-76735496D01*
X174833697Y-76729684D01*
X174857358Y-76726174D01*
X174881250Y-76725000D01*
X175368750Y-76725000D01*
X175392642Y-76726174D01*
G37*
G04 #@! TD.AperFunction*
G04 #@! TA.AperFunction,SMDPad,CuDef*
G36*
X173362642Y-94231174D02*
G01*
X173386303Y-94234684D01*
X173409507Y-94240496D01*
X173432029Y-94248554D01*
X173453653Y-94258782D01*
X173474170Y-94271079D01*
X173493383Y-94285329D01*
X173511107Y-94301393D01*
X173527171Y-94319117D01*
X173541421Y-94338330D01*
X173553718Y-94358847D01*
X173563946Y-94380471D01*
X173572004Y-94402993D01*
X173577816Y-94426197D01*
X173581326Y-94449858D01*
X173582500Y-94473750D01*
X173582500Y-95386250D01*
X173581326Y-95410142D01*
X173577816Y-95433803D01*
X173572004Y-95457007D01*
X173563946Y-95479529D01*
X173553718Y-95501153D01*
X173541421Y-95521670D01*
X173527171Y-95540883D01*
X173511107Y-95558607D01*
X173493383Y-95574671D01*
X173474170Y-95588921D01*
X173453653Y-95601218D01*
X173432029Y-95611446D01*
X173409507Y-95619504D01*
X173386303Y-95625316D01*
X173362642Y-95628826D01*
X173338750Y-95630000D01*
X172851250Y-95630000D01*
X172827358Y-95628826D01*
X172803697Y-95625316D01*
X172780493Y-95619504D01*
X172757971Y-95611446D01*
X172736347Y-95601218D01*
X172715830Y-95588921D01*
X172696617Y-95574671D01*
X172678893Y-95558607D01*
X172662829Y-95540883D01*
X172648579Y-95521670D01*
X172636282Y-95501153D01*
X172626054Y-95479529D01*
X172617996Y-95457007D01*
X172612184Y-95433803D01*
X172608674Y-95410142D01*
X172607500Y-95386250D01*
X172607500Y-94473750D01*
X172608674Y-94449858D01*
X172612184Y-94426197D01*
X172617996Y-94402993D01*
X172626054Y-94380471D01*
X172636282Y-94358847D01*
X172648579Y-94338330D01*
X172662829Y-94319117D01*
X172678893Y-94301393D01*
X172696617Y-94285329D01*
X172715830Y-94271079D01*
X172736347Y-94258782D01*
X172757971Y-94248554D01*
X172780493Y-94240496D01*
X172803697Y-94234684D01*
X172827358Y-94231174D01*
X172851250Y-94230000D01*
X173338750Y-94230000D01*
X173362642Y-94231174D01*
G37*
G04 #@! TD.AperFunction*
G04 #@! TA.AperFunction,SMDPad,CuDef*
G36*
X175237642Y-94231174D02*
G01*
X175261303Y-94234684D01*
X175284507Y-94240496D01*
X175307029Y-94248554D01*
X175328653Y-94258782D01*
X175349170Y-94271079D01*
X175368383Y-94285329D01*
X175386107Y-94301393D01*
X175402171Y-94319117D01*
X175416421Y-94338330D01*
X175428718Y-94358847D01*
X175438946Y-94380471D01*
X175447004Y-94402993D01*
X175452816Y-94426197D01*
X175456326Y-94449858D01*
X175457500Y-94473750D01*
X175457500Y-95386250D01*
X175456326Y-95410142D01*
X175452816Y-95433803D01*
X175447004Y-95457007D01*
X175438946Y-95479529D01*
X175428718Y-95501153D01*
X175416421Y-95521670D01*
X175402171Y-95540883D01*
X175386107Y-95558607D01*
X175368383Y-95574671D01*
X175349170Y-95588921D01*
X175328653Y-95601218D01*
X175307029Y-95611446D01*
X175284507Y-95619504D01*
X175261303Y-95625316D01*
X175237642Y-95628826D01*
X175213750Y-95630000D01*
X174726250Y-95630000D01*
X174702358Y-95628826D01*
X174678697Y-95625316D01*
X174655493Y-95619504D01*
X174632971Y-95611446D01*
X174611347Y-95601218D01*
X174590830Y-95588921D01*
X174571617Y-95574671D01*
X174553893Y-95558607D01*
X174537829Y-95540883D01*
X174523579Y-95521670D01*
X174511282Y-95501153D01*
X174501054Y-95479529D01*
X174492996Y-95457007D01*
X174487184Y-95433803D01*
X174483674Y-95410142D01*
X174482500Y-95386250D01*
X174482500Y-94473750D01*
X174483674Y-94449858D01*
X174487184Y-94426197D01*
X174492996Y-94402993D01*
X174501054Y-94380471D01*
X174511282Y-94358847D01*
X174523579Y-94338330D01*
X174537829Y-94319117D01*
X174553893Y-94301393D01*
X174571617Y-94285329D01*
X174590830Y-94271079D01*
X174611347Y-94258782D01*
X174632971Y-94248554D01*
X174655493Y-94240496D01*
X174678697Y-94234684D01*
X174702358Y-94231174D01*
X174726250Y-94230000D01*
X175213750Y-94230000D01*
X175237642Y-94231174D01*
G37*
G04 #@! TD.AperFunction*
G04 #@! TA.AperFunction,SMDPad,CuDef*
G36*
X177252642Y-94231174D02*
G01*
X177276303Y-94234684D01*
X177299507Y-94240496D01*
X177322029Y-94248554D01*
X177343653Y-94258782D01*
X177364170Y-94271079D01*
X177383383Y-94285329D01*
X177401107Y-94301393D01*
X177417171Y-94319117D01*
X177431421Y-94338330D01*
X177443718Y-94358847D01*
X177453946Y-94380471D01*
X177462004Y-94402993D01*
X177467816Y-94426197D01*
X177471326Y-94449858D01*
X177472500Y-94473750D01*
X177472500Y-95386250D01*
X177471326Y-95410142D01*
X177467816Y-95433803D01*
X177462004Y-95457007D01*
X177453946Y-95479529D01*
X177443718Y-95501153D01*
X177431421Y-95521670D01*
X177417171Y-95540883D01*
X177401107Y-95558607D01*
X177383383Y-95574671D01*
X177364170Y-95588921D01*
X177343653Y-95601218D01*
X177322029Y-95611446D01*
X177299507Y-95619504D01*
X177276303Y-95625316D01*
X177252642Y-95628826D01*
X177228750Y-95630000D01*
X176741250Y-95630000D01*
X176717358Y-95628826D01*
X176693697Y-95625316D01*
X176670493Y-95619504D01*
X176647971Y-95611446D01*
X176626347Y-95601218D01*
X176605830Y-95588921D01*
X176586617Y-95574671D01*
X176568893Y-95558607D01*
X176552829Y-95540883D01*
X176538579Y-95521670D01*
X176526282Y-95501153D01*
X176516054Y-95479529D01*
X176507996Y-95457007D01*
X176502184Y-95433803D01*
X176498674Y-95410142D01*
X176497500Y-95386250D01*
X176497500Y-94473750D01*
X176498674Y-94449858D01*
X176502184Y-94426197D01*
X176507996Y-94402993D01*
X176516054Y-94380471D01*
X176526282Y-94358847D01*
X176538579Y-94338330D01*
X176552829Y-94319117D01*
X176568893Y-94301393D01*
X176586617Y-94285329D01*
X176605830Y-94271079D01*
X176626347Y-94258782D01*
X176647971Y-94248554D01*
X176670493Y-94240496D01*
X176693697Y-94234684D01*
X176717358Y-94231174D01*
X176741250Y-94230000D01*
X177228750Y-94230000D01*
X177252642Y-94231174D01*
G37*
G04 #@! TD.AperFunction*
G04 #@! TA.AperFunction,SMDPad,CuDef*
G36*
X179127642Y-94231174D02*
G01*
X179151303Y-94234684D01*
X179174507Y-94240496D01*
X179197029Y-94248554D01*
X179218653Y-94258782D01*
X179239170Y-94271079D01*
X179258383Y-94285329D01*
X179276107Y-94301393D01*
X179292171Y-94319117D01*
X179306421Y-94338330D01*
X179318718Y-94358847D01*
X179328946Y-94380471D01*
X179337004Y-94402993D01*
X179342816Y-94426197D01*
X179346326Y-94449858D01*
X179347500Y-94473750D01*
X179347500Y-95386250D01*
X179346326Y-95410142D01*
X179342816Y-95433803D01*
X179337004Y-95457007D01*
X179328946Y-95479529D01*
X179318718Y-95501153D01*
X179306421Y-95521670D01*
X179292171Y-95540883D01*
X179276107Y-95558607D01*
X179258383Y-95574671D01*
X179239170Y-95588921D01*
X179218653Y-95601218D01*
X179197029Y-95611446D01*
X179174507Y-95619504D01*
X179151303Y-95625316D01*
X179127642Y-95628826D01*
X179103750Y-95630000D01*
X178616250Y-95630000D01*
X178592358Y-95628826D01*
X178568697Y-95625316D01*
X178545493Y-95619504D01*
X178522971Y-95611446D01*
X178501347Y-95601218D01*
X178480830Y-95588921D01*
X178461617Y-95574671D01*
X178443893Y-95558607D01*
X178427829Y-95540883D01*
X178413579Y-95521670D01*
X178401282Y-95501153D01*
X178391054Y-95479529D01*
X178382996Y-95457007D01*
X178377184Y-95433803D01*
X178373674Y-95410142D01*
X178372500Y-95386250D01*
X178372500Y-94473750D01*
X178373674Y-94449858D01*
X178377184Y-94426197D01*
X178382996Y-94402993D01*
X178391054Y-94380471D01*
X178401282Y-94358847D01*
X178413579Y-94338330D01*
X178427829Y-94319117D01*
X178443893Y-94301393D01*
X178461617Y-94285329D01*
X178480830Y-94271079D01*
X178501347Y-94258782D01*
X178522971Y-94248554D01*
X178545493Y-94240496D01*
X178568697Y-94234684D01*
X178592358Y-94231174D01*
X178616250Y-94230000D01*
X179103750Y-94230000D01*
X179127642Y-94231174D01*
G37*
G04 #@! TD.AperFunction*
G04 #@! TA.AperFunction,SMDPad,CuDef*
G36*
X180972642Y-94231174D02*
G01*
X180996303Y-94234684D01*
X181019507Y-94240496D01*
X181042029Y-94248554D01*
X181063653Y-94258782D01*
X181084170Y-94271079D01*
X181103383Y-94285329D01*
X181121107Y-94301393D01*
X181137171Y-94319117D01*
X181151421Y-94338330D01*
X181163718Y-94358847D01*
X181173946Y-94380471D01*
X181182004Y-94402993D01*
X181187816Y-94426197D01*
X181191326Y-94449858D01*
X181192500Y-94473750D01*
X181192500Y-95386250D01*
X181191326Y-95410142D01*
X181187816Y-95433803D01*
X181182004Y-95457007D01*
X181173946Y-95479529D01*
X181163718Y-95501153D01*
X181151421Y-95521670D01*
X181137171Y-95540883D01*
X181121107Y-95558607D01*
X181103383Y-95574671D01*
X181084170Y-95588921D01*
X181063653Y-95601218D01*
X181042029Y-95611446D01*
X181019507Y-95619504D01*
X180996303Y-95625316D01*
X180972642Y-95628826D01*
X180948750Y-95630000D01*
X180461250Y-95630000D01*
X180437358Y-95628826D01*
X180413697Y-95625316D01*
X180390493Y-95619504D01*
X180367971Y-95611446D01*
X180346347Y-95601218D01*
X180325830Y-95588921D01*
X180306617Y-95574671D01*
X180288893Y-95558607D01*
X180272829Y-95540883D01*
X180258579Y-95521670D01*
X180246282Y-95501153D01*
X180236054Y-95479529D01*
X180227996Y-95457007D01*
X180222184Y-95433803D01*
X180218674Y-95410142D01*
X180217500Y-95386250D01*
X180217500Y-94473750D01*
X180218674Y-94449858D01*
X180222184Y-94426197D01*
X180227996Y-94402993D01*
X180236054Y-94380471D01*
X180246282Y-94358847D01*
X180258579Y-94338330D01*
X180272829Y-94319117D01*
X180288893Y-94301393D01*
X180306617Y-94285329D01*
X180325830Y-94271079D01*
X180346347Y-94258782D01*
X180367971Y-94248554D01*
X180390493Y-94240496D01*
X180413697Y-94234684D01*
X180437358Y-94231174D01*
X180461250Y-94230000D01*
X180948750Y-94230000D01*
X180972642Y-94231174D01*
G37*
G04 #@! TD.AperFunction*
G04 #@! TA.AperFunction,SMDPad,CuDef*
G36*
X182847642Y-94231174D02*
G01*
X182871303Y-94234684D01*
X182894507Y-94240496D01*
X182917029Y-94248554D01*
X182938653Y-94258782D01*
X182959170Y-94271079D01*
X182978383Y-94285329D01*
X182996107Y-94301393D01*
X183012171Y-94319117D01*
X183026421Y-94338330D01*
X183038718Y-94358847D01*
X183048946Y-94380471D01*
X183057004Y-94402993D01*
X183062816Y-94426197D01*
X183066326Y-94449858D01*
X183067500Y-94473750D01*
X183067500Y-95386250D01*
X183066326Y-95410142D01*
X183062816Y-95433803D01*
X183057004Y-95457007D01*
X183048946Y-95479529D01*
X183038718Y-95501153D01*
X183026421Y-95521670D01*
X183012171Y-95540883D01*
X182996107Y-95558607D01*
X182978383Y-95574671D01*
X182959170Y-95588921D01*
X182938653Y-95601218D01*
X182917029Y-95611446D01*
X182894507Y-95619504D01*
X182871303Y-95625316D01*
X182847642Y-95628826D01*
X182823750Y-95630000D01*
X182336250Y-95630000D01*
X182312358Y-95628826D01*
X182288697Y-95625316D01*
X182265493Y-95619504D01*
X182242971Y-95611446D01*
X182221347Y-95601218D01*
X182200830Y-95588921D01*
X182181617Y-95574671D01*
X182163893Y-95558607D01*
X182147829Y-95540883D01*
X182133579Y-95521670D01*
X182121282Y-95501153D01*
X182111054Y-95479529D01*
X182102996Y-95457007D01*
X182097184Y-95433803D01*
X182093674Y-95410142D01*
X182092500Y-95386250D01*
X182092500Y-94473750D01*
X182093674Y-94449858D01*
X182097184Y-94426197D01*
X182102996Y-94402993D01*
X182111054Y-94380471D01*
X182121282Y-94358847D01*
X182133579Y-94338330D01*
X182147829Y-94319117D01*
X182163893Y-94301393D01*
X182181617Y-94285329D01*
X182200830Y-94271079D01*
X182221347Y-94258782D01*
X182242971Y-94248554D01*
X182265493Y-94240496D01*
X182288697Y-94234684D01*
X182312358Y-94231174D01*
X182336250Y-94230000D01*
X182823750Y-94230000D01*
X182847642Y-94231174D01*
G37*
G04 #@! TD.AperFunction*
G04 #@! TA.AperFunction,SMDPad,CuDef*
G36*
X169630142Y-94231174D02*
G01*
X169653803Y-94234684D01*
X169677007Y-94240496D01*
X169699529Y-94248554D01*
X169721153Y-94258782D01*
X169741670Y-94271079D01*
X169760883Y-94285329D01*
X169778607Y-94301393D01*
X169794671Y-94319117D01*
X169808921Y-94338330D01*
X169821218Y-94358847D01*
X169831446Y-94380471D01*
X169839504Y-94402993D01*
X169845316Y-94426197D01*
X169848826Y-94449858D01*
X169850000Y-94473750D01*
X169850000Y-95386250D01*
X169848826Y-95410142D01*
X169845316Y-95433803D01*
X169839504Y-95457007D01*
X169831446Y-95479529D01*
X169821218Y-95501153D01*
X169808921Y-95521670D01*
X169794671Y-95540883D01*
X169778607Y-95558607D01*
X169760883Y-95574671D01*
X169741670Y-95588921D01*
X169721153Y-95601218D01*
X169699529Y-95611446D01*
X169677007Y-95619504D01*
X169653803Y-95625316D01*
X169630142Y-95628826D01*
X169606250Y-95630000D01*
X169118750Y-95630000D01*
X169094858Y-95628826D01*
X169071197Y-95625316D01*
X169047993Y-95619504D01*
X169025471Y-95611446D01*
X169003847Y-95601218D01*
X168983330Y-95588921D01*
X168964117Y-95574671D01*
X168946393Y-95558607D01*
X168930329Y-95540883D01*
X168916079Y-95521670D01*
X168903782Y-95501153D01*
X168893554Y-95479529D01*
X168885496Y-95457007D01*
X168879684Y-95433803D01*
X168876174Y-95410142D01*
X168875000Y-95386250D01*
X168875000Y-94473750D01*
X168876174Y-94449858D01*
X168879684Y-94426197D01*
X168885496Y-94402993D01*
X168893554Y-94380471D01*
X168903782Y-94358847D01*
X168916079Y-94338330D01*
X168930329Y-94319117D01*
X168946393Y-94301393D01*
X168964117Y-94285329D01*
X168983330Y-94271079D01*
X169003847Y-94258782D01*
X169025471Y-94248554D01*
X169047993Y-94240496D01*
X169071197Y-94234684D01*
X169094858Y-94231174D01*
X169118750Y-94230000D01*
X169606250Y-94230000D01*
X169630142Y-94231174D01*
G37*
G04 #@! TD.AperFunction*
G04 #@! TA.AperFunction,SMDPad,CuDef*
G36*
X171505142Y-94231174D02*
G01*
X171528803Y-94234684D01*
X171552007Y-94240496D01*
X171574529Y-94248554D01*
X171596153Y-94258782D01*
X171616670Y-94271079D01*
X171635883Y-94285329D01*
X171653607Y-94301393D01*
X171669671Y-94319117D01*
X171683921Y-94338330D01*
X171696218Y-94358847D01*
X171706446Y-94380471D01*
X171714504Y-94402993D01*
X171720316Y-94426197D01*
X171723826Y-94449858D01*
X171725000Y-94473750D01*
X171725000Y-95386250D01*
X171723826Y-95410142D01*
X171720316Y-95433803D01*
X171714504Y-95457007D01*
X171706446Y-95479529D01*
X171696218Y-95501153D01*
X171683921Y-95521670D01*
X171669671Y-95540883D01*
X171653607Y-95558607D01*
X171635883Y-95574671D01*
X171616670Y-95588921D01*
X171596153Y-95601218D01*
X171574529Y-95611446D01*
X171552007Y-95619504D01*
X171528803Y-95625316D01*
X171505142Y-95628826D01*
X171481250Y-95630000D01*
X170993750Y-95630000D01*
X170969858Y-95628826D01*
X170946197Y-95625316D01*
X170922993Y-95619504D01*
X170900471Y-95611446D01*
X170878847Y-95601218D01*
X170858330Y-95588921D01*
X170839117Y-95574671D01*
X170821393Y-95558607D01*
X170805329Y-95540883D01*
X170791079Y-95521670D01*
X170778782Y-95501153D01*
X170768554Y-95479529D01*
X170760496Y-95457007D01*
X170754684Y-95433803D01*
X170751174Y-95410142D01*
X170750000Y-95386250D01*
X170750000Y-94473750D01*
X170751174Y-94449858D01*
X170754684Y-94426197D01*
X170760496Y-94402993D01*
X170768554Y-94380471D01*
X170778782Y-94358847D01*
X170791079Y-94338330D01*
X170805329Y-94319117D01*
X170821393Y-94301393D01*
X170839117Y-94285329D01*
X170858330Y-94271079D01*
X170878847Y-94258782D01*
X170900471Y-94248554D01*
X170922993Y-94240496D01*
X170946197Y-94234684D01*
X170969858Y-94231174D01*
X170993750Y-94230000D01*
X171481250Y-94230000D01*
X171505142Y-94231174D01*
G37*
G04 #@! TD.AperFunction*
G04 #@! TA.AperFunction,SMDPad,CuDef*
G36*
X140940142Y-98821174D02*
G01*
X140963803Y-98824684D01*
X140987007Y-98830496D01*
X141009529Y-98838554D01*
X141031153Y-98848782D01*
X141051670Y-98861079D01*
X141070883Y-98875329D01*
X141088607Y-98891393D01*
X141104671Y-98909117D01*
X141118921Y-98928330D01*
X141131218Y-98948847D01*
X141141446Y-98970471D01*
X141149504Y-98992993D01*
X141155316Y-99016197D01*
X141158826Y-99039858D01*
X141160000Y-99063750D01*
X141160000Y-99551250D01*
X141158826Y-99575142D01*
X141155316Y-99598803D01*
X141149504Y-99622007D01*
X141141446Y-99644529D01*
X141131218Y-99666153D01*
X141118921Y-99686670D01*
X141104671Y-99705883D01*
X141088607Y-99723607D01*
X141070883Y-99739671D01*
X141051670Y-99753921D01*
X141031153Y-99766218D01*
X141009529Y-99776446D01*
X140987007Y-99784504D01*
X140963803Y-99790316D01*
X140940142Y-99793826D01*
X140916250Y-99795000D01*
X140003750Y-99795000D01*
X139979858Y-99793826D01*
X139956197Y-99790316D01*
X139932993Y-99784504D01*
X139910471Y-99776446D01*
X139888847Y-99766218D01*
X139868330Y-99753921D01*
X139849117Y-99739671D01*
X139831393Y-99723607D01*
X139815329Y-99705883D01*
X139801079Y-99686670D01*
X139788782Y-99666153D01*
X139778554Y-99644529D01*
X139770496Y-99622007D01*
X139764684Y-99598803D01*
X139761174Y-99575142D01*
X139760000Y-99551250D01*
X139760000Y-99063750D01*
X139761174Y-99039858D01*
X139764684Y-99016197D01*
X139770496Y-98992993D01*
X139778554Y-98970471D01*
X139788782Y-98948847D01*
X139801079Y-98928330D01*
X139815329Y-98909117D01*
X139831393Y-98891393D01*
X139849117Y-98875329D01*
X139868330Y-98861079D01*
X139888847Y-98848782D01*
X139910471Y-98838554D01*
X139932993Y-98830496D01*
X139956197Y-98824684D01*
X139979858Y-98821174D01*
X140003750Y-98820000D01*
X140916250Y-98820000D01*
X140940142Y-98821174D01*
G37*
G04 #@! TD.AperFunction*
G04 #@! TA.AperFunction,SMDPad,CuDef*
G36*
X140940142Y-96946174D02*
G01*
X140963803Y-96949684D01*
X140987007Y-96955496D01*
X141009529Y-96963554D01*
X141031153Y-96973782D01*
X141051670Y-96986079D01*
X141070883Y-97000329D01*
X141088607Y-97016393D01*
X141104671Y-97034117D01*
X141118921Y-97053330D01*
X141131218Y-97073847D01*
X141141446Y-97095471D01*
X141149504Y-97117993D01*
X141155316Y-97141197D01*
X141158826Y-97164858D01*
X141160000Y-97188750D01*
X141160000Y-97676250D01*
X141158826Y-97700142D01*
X141155316Y-97723803D01*
X141149504Y-97747007D01*
X141141446Y-97769529D01*
X141131218Y-97791153D01*
X141118921Y-97811670D01*
X141104671Y-97830883D01*
X141088607Y-97848607D01*
X141070883Y-97864671D01*
X141051670Y-97878921D01*
X141031153Y-97891218D01*
X141009529Y-97901446D01*
X140987007Y-97909504D01*
X140963803Y-97915316D01*
X140940142Y-97918826D01*
X140916250Y-97920000D01*
X140003750Y-97920000D01*
X139979858Y-97918826D01*
X139956197Y-97915316D01*
X139932993Y-97909504D01*
X139910471Y-97901446D01*
X139888847Y-97891218D01*
X139868330Y-97878921D01*
X139849117Y-97864671D01*
X139831393Y-97848607D01*
X139815329Y-97830883D01*
X139801079Y-97811670D01*
X139788782Y-97791153D01*
X139778554Y-97769529D01*
X139770496Y-97747007D01*
X139764684Y-97723803D01*
X139761174Y-97700142D01*
X139760000Y-97676250D01*
X139760000Y-97188750D01*
X139761174Y-97164858D01*
X139764684Y-97141197D01*
X139770496Y-97117993D01*
X139778554Y-97095471D01*
X139788782Y-97073847D01*
X139801079Y-97053330D01*
X139815329Y-97034117D01*
X139831393Y-97016393D01*
X139849117Y-97000329D01*
X139868330Y-96986079D01*
X139888847Y-96973782D01*
X139910471Y-96963554D01*
X139932993Y-96955496D01*
X139956197Y-96949684D01*
X139979858Y-96946174D01*
X140003750Y-96945000D01*
X140916250Y-96945000D01*
X140940142Y-96946174D01*
G37*
G04 #@! TD.AperFunction*
G04 #@! TA.AperFunction,SMDPad,CuDef*
G36*
X140840142Y-105643674D02*
G01*
X140863803Y-105647184D01*
X140887007Y-105652996D01*
X140909529Y-105661054D01*
X140931153Y-105671282D01*
X140951670Y-105683579D01*
X140970883Y-105697829D01*
X140988607Y-105713893D01*
X141004671Y-105731617D01*
X141018921Y-105750830D01*
X141031218Y-105771347D01*
X141041446Y-105792971D01*
X141049504Y-105815493D01*
X141055316Y-105838697D01*
X141058826Y-105862358D01*
X141060000Y-105886250D01*
X141060000Y-106373750D01*
X141058826Y-106397642D01*
X141055316Y-106421303D01*
X141049504Y-106444507D01*
X141041446Y-106467029D01*
X141031218Y-106488653D01*
X141018921Y-106509170D01*
X141004671Y-106528383D01*
X140988607Y-106546107D01*
X140970883Y-106562171D01*
X140951670Y-106576421D01*
X140931153Y-106588718D01*
X140909529Y-106598946D01*
X140887007Y-106607004D01*
X140863803Y-106612816D01*
X140840142Y-106616326D01*
X140816250Y-106617500D01*
X139903750Y-106617500D01*
X139879858Y-106616326D01*
X139856197Y-106612816D01*
X139832993Y-106607004D01*
X139810471Y-106598946D01*
X139788847Y-106588718D01*
X139768330Y-106576421D01*
X139749117Y-106562171D01*
X139731393Y-106546107D01*
X139715329Y-106528383D01*
X139701079Y-106509170D01*
X139688782Y-106488653D01*
X139678554Y-106467029D01*
X139670496Y-106444507D01*
X139664684Y-106421303D01*
X139661174Y-106397642D01*
X139660000Y-106373750D01*
X139660000Y-105886250D01*
X139661174Y-105862358D01*
X139664684Y-105838697D01*
X139670496Y-105815493D01*
X139678554Y-105792971D01*
X139688782Y-105771347D01*
X139701079Y-105750830D01*
X139715329Y-105731617D01*
X139731393Y-105713893D01*
X139749117Y-105697829D01*
X139768330Y-105683579D01*
X139788847Y-105671282D01*
X139810471Y-105661054D01*
X139832993Y-105652996D01*
X139856197Y-105647184D01*
X139879858Y-105643674D01*
X139903750Y-105642500D01*
X140816250Y-105642500D01*
X140840142Y-105643674D01*
G37*
G04 #@! TD.AperFunction*
G04 #@! TA.AperFunction,SMDPad,CuDef*
G36*
X140840142Y-103768674D02*
G01*
X140863803Y-103772184D01*
X140887007Y-103777996D01*
X140909529Y-103786054D01*
X140931153Y-103796282D01*
X140951670Y-103808579D01*
X140970883Y-103822829D01*
X140988607Y-103838893D01*
X141004671Y-103856617D01*
X141018921Y-103875830D01*
X141031218Y-103896347D01*
X141041446Y-103917971D01*
X141049504Y-103940493D01*
X141055316Y-103963697D01*
X141058826Y-103987358D01*
X141060000Y-104011250D01*
X141060000Y-104498750D01*
X141058826Y-104522642D01*
X141055316Y-104546303D01*
X141049504Y-104569507D01*
X141041446Y-104592029D01*
X141031218Y-104613653D01*
X141018921Y-104634170D01*
X141004671Y-104653383D01*
X140988607Y-104671107D01*
X140970883Y-104687171D01*
X140951670Y-104701421D01*
X140931153Y-104713718D01*
X140909529Y-104723946D01*
X140887007Y-104732004D01*
X140863803Y-104737816D01*
X140840142Y-104741326D01*
X140816250Y-104742500D01*
X139903750Y-104742500D01*
X139879858Y-104741326D01*
X139856197Y-104737816D01*
X139832993Y-104732004D01*
X139810471Y-104723946D01*
X139788847Y-104713718D01*
X139768330Y-104701421D01*
X139749117Y-104687171D01*
X139731393Y-104671107D01*
X139715329Y-104653383D01*
X139701079Y-104634170D01*
X139688782Y-104613653D01*
X139678554Y-104592029D01*
X139670496Y-104569507D01*
X139664684Y-104546303D01*
X139661174Y-104522642D01*
X139660000Y-104498750D01*
X139660000Y-104011250D01*
X139661174Y-103987358D01*
X139664684Y-103963697D01*
X139670496Y-103940493D01*
X139678554Y-103917971D01*
X139688782Y-103896347D01*
X139701079Y-103875830D01*
X139715329Y-103856617D01*
X139731393Y-103838893D01*
X139749117Y-103822829D01*
X139768330Y-103808579D01*
X139788847Y-103796282D01*
X139810471Y-103786054D01*
X139832993Y-103777996D01*
X139856197Y-103772184D01*
X139879858Y-103768674D01*
X139903750Y-103767500D01*
X140816250Y-103767500D01*
X140840142Y-103768674D01*
G37*
G04 #@! TD.AperFunction*
G04 #@! TA.AperFunction,SMDPad,CuDef*
G36*
X147017642Y-99476174D02*
G01*
X147041303Y-99479684D01*
X147064507Y-99485496D01*
X147087029Y-99493554D01*
X147108653Y-99503782D01*
X147129170Y-99516079D01*
X147148383Y-99530329D01*
X147166107Y-99546393D01*
X147182171Y-99564117D01*
X147196421Y-99583330D01*
X147208718Y-99603847D01*
X147218946Y-99625471D01*
X147227004Y-99647993D01*
X147232816Y-99671197D01*
X147236326Y-99694858D01*
X147237500Y-99718750D01*
X147237500Y-100631250D01*
X147236326Y-100655142D01*
X147232816Y-100678803D01*
X147227004Y-100702007D01*
X147218946Y-100724529D01*
X147208718Y-100746153D01*
X147196421Y-100766670D01*
X147182171Y-100785883D01*
X147166107Y-100803607D01*
X147148383Y-100819671D01*
X147129170Y-100833921D01*
X147108653Y-100846218D01*
X147087029Y-100856446D01*
X147064507Y-100864504D01*
X147041303Y-100870316D01*
X147017642Y-100873826D01*
X146993750Y-100875000D01*
X146506250Y-100875000D01*
X146482358Y-100873826D01*
X146458697Y-100870316D01*
X146435493Y-100864504D01*
X146412971Y-100856446D01*
X146391347Y-100846218D01*
X146370830Y-100833921D01*
X146351617Y-100819671D01*
X146333893Y-100803607D01*
X146317829Y-100785883D01*
X146303579Y-100766670D01*
X146291282Y-100746153D01*
X146281054Y-100724529D01*
X146272996Y-100702007D01*
X146267184Y-100678803D01*
X146263674Y-100655142D01*
X146262500Y-100631250D01*
X146262500Y-99718750D01*
X146263674Y-99694858D01*
X146267184Y-99671197D01*
X146272996Y-99647993D01*
X146281054Y-99625471D01*
X146291282Y-99603847D01*
X146303579Y-99583330D01*
X146317829Y-99564117D01*
X146333893Y-99546393D01*
X146351617Y-99530329D01*
X146370830Y-99516079D01*
X146391347Y-99503782D01*
X146412971Y-99493554D01*
X146435493Y-99485496D01*
X146458697Y-99479684D01*
X146482358Y-99476174D01*
X146506250Y-99475000D01*
X146993750Y-99475000D01*
X147017642Y-99476174D01*
G37*
G04 #@! TD.AperFunction*
G04 #@! TA.AperFunction,SMDPad,CuDef*
G36*
X148892642Y-99476174D02*
G01*
X148916303Y-99479684D01*
X148939507Y-99485496D01*
X148962029Y-99493554D01*
X148983653Y-99503782D01*
X149004170Y-99516079D01*
X149023383Y-99530329D01*
X149041107Y-99546393D01*
X149057171Y-99564117D01*
X149071421Y-99583330D01*
X149083718Y-99603847D01*
X149093946Y-99625471D01*
X149102004Y-99647993D01*
X149107816Y-99671197D01*
X149111326Y-99694858D01*
X149112500Y-99718750D01*
X149112500Y-100631250D01*
X149111326Y-100655142D01*
X149107816Y-100678803D01*
X149102004Y-100702007D01*
X149093946Y-100724529D01*
X149083718Y-100746153D01*
X149071421Y-100766670D01*
X149057171Y-100785883D01*
X149041107Y-100803607D01*
X149023383Y-100819671D01*
X149004170Y-100833921D01*
X148983653Y-100846218D01*
X148962029Y-100856446D01*
X148939507Y-100864504D01*
X148916303Y-100870316D01*
X148892642Y-100873826D01*
X148868750Y-100875000D01*
X148381250Y-100875000D01*
X148357358Y-100873826D01*
X148333697Y-100870316D01*
X148310493Y-100864504D01*
X148287971Y-100856446D01*
X148266347Y-100846218D01*
X148245830Y-100833921D01*
X148226617Y-100819671D01*
X148208893Y-100803607D01*
X148192829Y-100785883D01*
X148178579Y-100766670D01*
X148166282Y-100746153D01*
X148156054Y-100724529D01*
X148147996Y-100702007D01*
X148142184Y-100678803D01*
X148138674Y-100655142D01*
X148137500Y-100631250D01*
X148137500Y-99718750D01*
X148138674Y-99694858D01*
X148142184Y-99671197D01*
X148147996Y-99647993D01*
X148156054Y-99625471D01*
X148166282Y-99603847D01*
X148178579Y-99583330D01*
X148192829Y-99564117D01*
X148208893Y-99546393D01*
X148226617Y-99530329D01*
X148245830Y-99516079D01*
X148266347Y-99503782D01*
X148287971Y-99493554D01*
X148310493Y-99485496D01*
X148333697Y-99479684D01*
X148357358Y-99476174D01*
X148381250Y-99475000D01*
X148868750Y-99475000D01*
X148892642Y-99476174D01*
G37*
G04 #@! TD.AperFunction*
G04 #@! TA.AperFunction,SMDPad,CuDef*
G36*
X146992642Y-101376174D02*
G01*
X147016303Y-101379684D01*
X147039507Y-101385496D01*
X147062029Y-101393554D01*
X147083653Y-101403782D01*
X147104170Y-101416079D01*
X147123383Y-101430329D01*
X147141107Y-101446393D01*
X147157171Y-101464117D01*
X147171421Y-101483330D01*
X147183718Y-101503847D01*
X147193946Y-101525471D01*
X147202004Y-101547993D01*
X147207816Y-101571197D01*
X147211326Y-101594858D01*
X147212500Y-101618750D01*
X147212500Y-102531250D01*
X147211326Y-102555142D01*
X147207816Y-102578803D01*
X147202004Y-102602007D01*
X147193946Y-102624529D01*
X147183718Y-102646153D01*
X147171421Y-102666670D01*
X147157171Y-102685883D01*
X147141107Y-102703607D01*
X147123383Y-102719671D01*
X147104170Y-102733921D01*
X147083653Y-102746218D01*
X147062029Y-102756446D01*
X147039507Y-102764504D01*
X147016303Y-102770316D01*
X146992642Y-102773826D01*
X146968750Y-102775000D01*
X146481250Y-102775000D01*
X146457358Y-102773826D01*
X146433697Y-102770316D01*
X146410493Y-102764504D01*
X146387971Y-102756446D01*
X146366347Y-102746218D01*
X146345830Y-102733921D01*
X146326617Y-102719671D01*
X146308893Y-102703607D01*
X146292829Y-102685883D01*
X146278579Y-102666670D01*
X146266282Y-102646153D01*
X146256054Y-102624529D01*
X146247996Y-102602007D01*
X146242184Y-102578803D01*
X146238674Y-102555142D01*
X146237500Y-102531250D01*
X146237500Y-101618750D01*
X146238674Y-101594858D01*
X146242184Y-101571197D01*
X146247996Y-101547993D01*
X146256054Y-101525471D01*
X146266282Y-101503847D01*
X146278579Y-101483330D01*
X146292829Y-101464117D01*
X146308893Y-101446393D01*
X146326617Y-101430329D01*
X146345830Y-101416079D01*
X146366347Y-101403782D01*
X146387971Y-101393554D01*
X146410493Y-101385496D01*
X146433697Y-101379684D01*
X146457358Y-101376174D01*
X146481250Y-101375000D01*
X146968750Y-101375000D01*
X146992642Y-101376174D01*
G37*
G04 #@! TD.AperFunction*
G04 #@! TA.AperFunction,SMDPad,CuDef*
G36*
X148867642Y-101376174D02*
G01*
X148891303Y-101379684D01*
X148914507Y-101385496D01*
X148937029Y-101393554D01*
X148958653Y-101403782D01*
X148979170Y-101416079D01*
X148998383Y-101430329D01*
X149016107Y-101446393D01*
X149032171Y-101464117D01*
X149046421Y-101483330D01*
X149058718Y-101503847D01*
X149068946Y-101525471D01*
X149077004Y-101547993D01*
X149082816Y-101571197D01*
X149086326Y-101594858D01*
X149087500Y-101618750D01*
X149087500Y-102531250D01*
X149086326Y-102555142D01*
X149082816Y-102578803D01*
X149077004Y-102602007D01*
X149068946Y-102624529D01*
X149058718Y-102646153D01*
X149046421Y-102666670D01*
X149032171Y-102685883D01*
X149016107Y-102703607D01*
X148998383Y-102719671D01*
X148979170Y-102733921D01*
X148958653Y-102746218D01*
X148937029Y-102756446D01*
X148914507Y-102764504D01*
X148891303Y-102770316D01*
X148867642Y-102773826D01*
X148843750Y-102775000D01*
X148356250Y-102775000D01*
X148332358Y-102773826D01*
X148308697Y-102770316D01*
X148285493Y-102764504D01*
X148262971Y-102756446D01*
X148241347Y-102746218D01*
X148220830Y-102733921D01*
X148201617Y-102719671D01*
X148183893Y-102703607D01*
X148167829Y-102685883D01*
X148153579Y-102666670D01*
X148141282Y-102646153D01*
X148131054Y-102624529D01*
X148122996Y-102602007D01*
X148117184Y-102578803D01*
X148113674Y-102555142D01*
X148112500Y-102531250D01*
X148112500Y-101618750D01*
X148113674Y-101594858D01*
X148117184Y-101571197D01*
X148122996Y-101547993D01*
X148131054Y-101525471D01*
X148141282Y-101503847D01*
X148153579Y-101483330D01*
X148167829Y-101464117D01*
X148183893Y-101446393D01*
X148201617Y-101430329D01*
X148220830Y-101416079D01*
X148241347Y-101403782D01*
X148262971Y-101393554D01*
X148285493Y-101385496D01*
X148308697Y-101379684D01*
X148332358Y-101376174D01*
X148356250Y-101375000D01*
X148843750Y-101375000D01*
X148867642Y-101376174D01*
G37*
G04 #@! TD.AperFunction*
D11*
X136525000Y-105645000D03*
X136525000Y-99195000D03*
X136525000Y-104870000D03*
X136525000Y-99970000D03*
D12*
X136525000Y-100670000D03*
X136525000Y-104170000D03*
X136525000Y-101170000D03*
X136525000Y-103670000D03*
X136525000Y-101670000D03*
X136525000Y-103170000D03*
X136525000Y-102670000D03*
X136525000Y-102170000D03*
D13*
X135110000Y-98100000D03*
X135110000Y-106740000D03*
D14*
X130930000Y-98100000D03*
X130930000Y-106740000D03*
G04 #@! TA.AperFunction,SMDPad,CuDef*
D10*
G36*
X149589642Y-106137174D02*
G01*
X149613303Y-106140684D01*
X149636507Y-106146496D01*
X149659029Y-106154554D01*
X149680653Y-106164782D01*
X149701170Y-106177079D01*
X149720383Y-106191329D01*
X149738107Y-106207393D01*
X149754171Y-106225117D01*
X149768421Y-106244330D01*
X149780718Y-106264847D01*
X149790946Y-106286471D01*
X149799004Y-106308993D01*
X149804816Y-106332197D01*
X149808326Y-106355858D01*
X149809500Y-106379750D01*
X149809500Y-107292250D01*
X149808326Y-107316142D01*
X149804816Y-107339803D01*
X149799004Y-107363007D01*
X149790946Y-107385529D01*
X149780718Y-107407153D01*
X149768421Y-107427670D01*
X149754171Y-107446883D01*
X149738107Y-107464607D01*
X149720383Y-107480671D01*
X149701170Y-107494921D01*
X149680653Y-107507218D01*
X149659029Y-107517446D01*
X149636507Y-107525504D01*
X149613303Y-107531316D01*
X149589642Y-107534826D01*
X149565750Y-107536000D01*
X149078250Y-107536000D01*
X149054358Y-107534826D01*
X149030697Y-107531316D01*
X149007493Y-107525504D01*
X148984971Y-107517446D01*
X148963347Y-107507218D01*
X148942830Y-107494921D01*
X148923617Y-107480671D01*
X148905893Y-107464607D01*
X148889829Y-107446883D01*
X148875579Y-107427670D01*
X148863282Y-107407153D01*
X148853054Y-107385529D01*
X148844996Y-107363007D01*
X148839184Y-107339803D01*
X148835674Y-107316142D01*
X148834500Y-107292250D01*
X148834500Y-106379750D01*
X148835674Y-106355858D01*
X148839184Y-106332197D01*
X148844996Y-106308993D01*
X148853054Y-106286471D01*
X148863282Y-106264847D01*
X148875579Y-106244330D01*
X148889829Y-106225117D01*
X148905893Y-106207393D01*
X148923617Y-106191329D01*
X148942830Y-106177079D01*
X148963347Y-106164782D01*
X148984971Y-106154554D01*
X149007493Y-106146496D01*
X149030697Y-106140684D01*
X149054358Y-106137174D01*
X149078250Y-106136000D01*
X149565750Y-106136000D01*
X149589642Y-106137174D01*
G37*
G04 #@! TD.AperFunction*
G04 #@! TA.AperFunction,SMDPad,CuDef*
G36*
X147714642Y-106137174D02*
G01*
X147738303Y-106140684D01*
X147761507Y-106146496D01*
X147784029Y-106154554D01*
X147805653Y-106164782D01*
X147826170Y-106177079D01*
X147845383Y-106191329D01*
X147863107Y-106207393D01*
X147879171Y-106225117D01*
X147893421Y-106244330D01*
X147905718Y-106264847D01*
X147915946Y-106286471D01*
X147924004Y-106308993D01*
X147929816Y-106332197D01*
X147933326Y-106355858D01*
X147934500Y-106379750D01*
X147934500Y-107292250D01*
X147933326Y-107316142D01*
X147929816Y-107339803D01*
X147924004Y-107363007D01*
X147915946Y-107385529D01*
X147905718Y-107407153D01*
X147893421Y-107427670D01*
X147879171Y-107446883D01*
X147863107Y-107464607D01*
X147845383Y-107480671D01*
X147826170Y-107494921D01*
X147805653Y-107507218D01*
X147784029Y-107517446D01*
X147761507Y-107525504D01*
X147738303Y-107531316D01*
X147714642Y-107534826D01*
X147690750Y-107536000D01*
X147203250Y-107536000D01*
X147179358Y-107534826D01*
X147155697Y-107531316D01*
X147132493Y-107525504D01*
X147109971Y-107517446D01*
X147088347Y-107507218D01*
X147067830Y-107494921D01*
X147048617Y-107480671D01*
X147030893Y-107464607D01*
X147014829Y-107446883D01*
X147000579Y-107427670D01*
X146988282Y-107407153D01*
X146978054Y-107385529D01*
X146969996Y-107363007D01*
X146964184Y-107339803D01*
X146960674Y-107316142D01*
X146959500Y-107292250D01*
X146959500Y-106379750D01*
X146960674Y-106355858D01*
X146964184Y-106332197D01*
X146969996Y-106308993D01*
X146978054Y-106286471D01*
X146988282Y-106264847D01*
X147000579Y-106244330D01*
X147014829Y-106225117D01*
X147030893Y-106207393D01*
X147048617Y-106191329D01*
X147067830Y-106177079D01*
X147088347Y-106164782D01*
X147109971Y-106154554D01*
X147132493Y-106146496D01*
X147155697Y-106140684D01*
X147179358Y-106137174D01*
X147203250Y-106136000D01*
X147690750Y-106136000D01*
X147714642Y-106137174D01*
G37*
G04 #@! TD.AperFunction*
G04 #@! TA.AperFunction,SMDPad,CuDef*
G36*
X153002642Y-103511174D02*
G01*
X153026303Y-103514684D01*
X153049507Y-103520496D01*
X153072029Y-103528554D01*
X153093653Y-103538782D01*
X153114170Y-103551079D01*
X153133383Y-103565329D01*
X153151107Y-103581393D01*
X153167171Y-103599117D01*
X153181421Y-103618330D01*
X153193718Y-103638847D01*
X153203946Y-103660471D01*
X153212004Y-103682993D01*
X153217816Y-103706197D01*
X153221326Y-103729858D01*
X153222500Y-103753750D01*
X153222500Y-104666250D01*
X153221326Y-104690142D01*
X153217816Y-104713803D01*
X153212004Y-104737007D01*
X153203946Y-104759529D01*
X153193718Y-104781153D01*
X153181421Y-104801670D01*
X153167171Y-104820883D01*
X153151107Y-104838607D01*
X153133383Y-104854671D01*
X153114170Y-104868921D01*
X153093653Y-104881218D01*
X153072029Y-104891446D01*
X153049507Y-104899504D01*
X153026303Y-104905316D01*
X153002642Y-104908826D01*
X152978750Y-104910000D01*
X152491250Y-104910000D01*
X152467358Y-104908826D01*
X152443697Y-104905316D01*
X152420493Y-104899504D01*
X152397971Y-104891446D01*
X152376347Y-104881218D01*
X152355830Y-104868921D01*
X152336617Y-104854671D01*
X152318893Y-104838607D01*
X152302829Y-104820883D01*
X152288579Y-104801670D01*
X152276282Y-104781153D01*
X152266054Y-104759529D01*
X152257996Y-104737007D01*
X152252184Y-104713803D01*
X152248674Y-104690142D01*
X152247500Y-104666250D01*
X152247500Y-103753750D01*
X152248674Y-103729858D01*
X152252184Y-103706197D01*
X152257996Y-103682993D01*
X152266054Y-103660471D01*
X152276282Y-103638847D01*
X152288579Y-103618330D01*
X152302829Y-103599117D01*
X152318893Y-103581393D01*
X152336617Y-103565329D01*
X152355830Y-103551079D01*
X152376347Y-103538782D01*
X152397971Y-103528554D01*
X152420493Y-103520496D01*
X152443697Y-103514684D01*
X152467358Y-103511174D01*
X152491250Y-103510000D01*
X152978750Y-103510000D01*
X153002642Y-103511174D01*
G37*
G04 #@! TD.AperFunction*
G04 #@! TA.AperFunction,SMDPad,CuDef*
G36*
X151127642Y-103511174D02*
G01*
X151151303Y-103514684D01*
X151174507Y-103520496D01*
X151197029Y-103528554D01*
X151218653Y-103538782D01*
X151239170Y-103551079D01*
X151258383Y-103565329D01*
X151276107Y-103581393D01*
X151292171Y-103599117D01*
X151306421Y-103618330D01*
X151318718Y-103638847D01*
X151328946Y-103660471D01*
X151337004Y-103682993D01*
X151342816Y-103706197D01*
X151346326Y-103729858D01*
X151347500Y-103753750D01*
X151347500Y-104666250D01*
X151346326Y-104690142D01*
X151342816Y-104713803D01*
X151337004Y-104737007D01*
X151328946Y-104759529D01*
X151318718Y-104781153D01*
X151306421Y-104801670D01*
X151292171Y-104820883D01*
X151276107Y-104838607D01*
X151258383Y-104854671D01*
X151239170Y-104868921D01*
X151218653Y-104881218D01*
X151197029Y-104891446D01*
X151174507Y-104899504D01*
X151151303Y-104905316D01*
X151127642Y-104908826D01*
X151103750Y-104910000D01*
X150616250Y-104910000D01*
X150592358Y-104908826D01*
X150568697Y-104905316D01*
X150545493Y-104899504D01*
X150522971Y-104891446D01*
X150501347Y-104881218D01*
X150480830Y-104868921D01*
X150461617Y-104854671D01*
X150443893Y-104838607D01*
X150427829Y-104820883D01*
X150413579Y-104801670D01*
X150401282Y-104781153D01*
X150391054Y-104759529D01*
X150382996Y-104737007D01*
X150377184Y-104713803D01*
X150373674Y-104690142D01*
X150372500Y-104666250D01*
X150372500Y-103753750D01*
X150373674Y-103729858D01*
X150377184Y-103706197D01*
X150382996Y-103682993D01*
X150391054Y-103660471D01*
X150401282Y-103638847D01*
X150413579Y-103618330D01*
X150427829Y-103599117D01*
X150443893Y-103581393D01*
X150461617Y-103565329D01*
X150480830Y-103551079D01*
X150501347Y-103538782D01*
X150522971Y-103528554D01*
X150545493Y-103520496D01*
X150568697Y-103514684D01*
X150592358Y-103511174D01*
X150616250Y-103510000D01*
X151103750Y-103510000D01*
X151127642Y-103511174D01*
G37*
G04 #@! TD.AperFunction*
G04 #@! TA.AperFunction,SMDPad,CuDef*
G36*
X151127642Y-101401174D02*
G01*
X151151303Y-101404684D01*
X151174507Y-101410496D01*
X151197029Y-101418554D01*
X151218653Y-101428782D01*
X151239170Y-101441079D01*
X151258383Y-101455329D01*
X151276107Y-101471393D01*
X151292171Y-101489117D01*
X151306421Y-101508330D01*
X151318718Y-101528847D01*
X151328946Y-101550471D01*
X151337004Y-101572993D01*
X151342816Y-101596197D01*
X151346326Y-101619858D01*
X151347500Y-101643750D01*
X151347500Y-102556250D01*
X151346326Y-102580142D01*
X151342816Y-102603803D01*
X151337004Y-102627007D01*
X151328946Y-102649529D01*
X151318718Y-102671153D01*
X151306421Y-102691670D01*
X151292171Y-102710883D01*
X151276107Y-102728607D01*
X151258383Y-102744671D01*
X151239170Y-102758921D01*
X151218653Y-102771218D01*
X151197029Y-102781446D01*
X151174507Y-102789504D01*
X151151303Y-102795316D01*
X151127642Y-102798826D01*
X151103750Y-102800000D01*
X150616250Y-102800000D01*
X150592358Y-102798826D01*
X150568697Y-102795316D01*
X150545493Y-102789504D01*
X150522971Y-102781446D01*
X150501347Y-102771218D01*
X150480830Y-102758921D01*
X150461617Y-102744671D01*
X150443893Y-102728607D01*
X150427829Y-102710883D01*
X150413579Y-102691670D01*
X150401282Y-102671153D01*
X150391054Y-102649529D01*
X150382996Y-102627007D01*
X150377184Y-102603803D01*
X150373674Y-102580142D01*
X150372500Y-102556250D01*
X150372500Y-101643750D01*
X150373674Y-101619858D01*
X150377184Y-101596197D01*
X150382996Y-101572993D01*
X150391054Y-101550471D01*
X150401282Y-101528847D01*
X150413579Y-101508330D01*
X150427829Y-101489117D01*
X150443893Y-101471393D01*
X150461617Y-101455329D01*
X150480830Y-101441079D01*
X150501347Y-101428782D01*
X150522971Y-101418554D01*
X150545493Y-101410496D01*
X150568697Y-101404684D01*
X150592358Y-101401174D01*
X150616250Y-101400000D01*
X151103750Y-101400000D01*
X151127642Y-101401174D01*
G37*
G04 #@! TD.AperFunction*
G04 #@! TA.AperFunction,SMDPad,CuDef*
G36*
X153002642Y-101401174D02*
G01*
X153026303Y-101404684D01*
X153049507Y-101410496D01*
X153072029Y-101418554D01*
X153093653Y-101428782D01*
X153114170Y-101441079D01*
X153133383Y-101455329D01*
X153151107Y-101471393D01*
X153167171Y-101489117D01*
X153181421Y-101508330D01*
X153193718Y-101528847D01*
X153203946Y-101550471D01*
X153212004Y-101572993D01*
X153217816Y-101596197D01*
X153221326Y-101619858D01*
X153222500Y-101643750D01*
X153222500Y-102556250D01*
X153221326Y-102580142D01*
X153217816Y-102603803D01*
X153212004Y-102627007D01*
X153203946Y-102649529D01*
X153193718Y-102671153D01*
X153181421Y-102691670D01*
X153167171Y-102710883D01*
X153151107Y-102728607D01*
X153133383Y-102744671D01*
X153114170Y-102758921D01*
X153093653Y-102771218D01*
X153072029Y-102781446D01*
X153049507Y-102789504D01*
X153026303Y-102795316D01*
X153002642Y-102798826D01*
X152978750Y-102800000D01*
X152491250Y-102800000D01*
X152467358Y-102798826D01*
X152443697Y-102795316D01*
X152420493Y-102789504D01*
X152397971Y-102781446D01*
X152376347Y-102771218D01*
X152355830Y-102758921D01*
X152336617Y-102744671D01*
X152318893Y-102728607D01*
X152302829Y-102710883D01*
X152288579Y-102691670D01*
X152276282Y-102671153D01*
X152266054Y-102649529D01*
X152257996Y-102627007D01*
X152252184Y-102603803D01*
X152248674Y-102580142D01*
X152247500Y-102556250D01*
X152247500Y-101643750D01*
X152248674Y-101619858D01*
X152252184Y-101596197D01*
X152257996Y-101572993D01*
X152266054Y-101550471D01*
X152276282Y-101528847D01*
X152288579Y-101508330D01*
X152302829Y-101489117D01*
X152318893Y-101471393D01*
X152336617Y-101455329D01*
X152355830Y-101441079D01*
X152376347Y-101428782D01*
X152397971Y-101418554D01*
X152420493Y-101410496D01*
X152443697Y-101404684D01*
X152467358Y-101401174D01*
X152491250Y-101400000D01*
X152978750Y-101400000D01*
X153002642Y-101401174D01*
G37*
G04 #@! TD.AperFunction*
G04 #@! TA.AperFunction,SMDPad,CuDef*
G36*
X145080142Y-98821174D02*
G01*
X145103803Y-98824684D01*
X145127007Y-98830496D01*
X145149529Y-98838554D01*
X145171153Y-98848782D01*
X145191670Y-98861079D01*
X145210883Y-98875329D01*
X145228607Y-98891393D01*
X145244671Y-98909117D01*
X145258921Y-98928330D01*
X145271218Y-98948847D01*
X145281446Y-98970471D01*
X145289504Y-98992993D01*
X145295316Y-99016197D01*
X145298826Y-99039858D01*
X145300000Y-99063750D01*
X145300000Y-99551250D01*
X145298826Y-99575142D01*
X145295316Y-99598803D01*
X145289504Y-99622007D01*
X145281446Y-99644529D01*
X145271218Y-99666153D01*
X145258921Y-99686670D01*
X145244671Y-99705883D01*
X145228607Y-99723607D01*
X145210883Y-99739671D01*
X145191670Y-99753921D01*
X145171153Y-99766218D01*
X145149529Y-99776446D01*
X145127007Y-99784504D01*
X145103803Y-99790316D01*
X145080142Y-99793826D01*
X145056250Y-99795000D01*
X144143750Y-99795000D01*
X144119858Y-99793826D01*
X144096197Y-99790316D01*
X144072993Y-99784504D01*
X144050471Y-99776446D01*
X144028847Y-99766218D01*
X144008330Y-99753921D01*
X143989117Y-99739671D01*
X143971393Y-99723607D01*
X143955329Y-99705883D01*
X143941079Y-99686670D01*
X143928782Y-99666153D01*
X143918554Y-99644529D01*
X143910496Y-99622007D01*
X143904684Y-99598803D01*
X143901174Y-99575142D01*
X143900000Y-99551250D01*
X143900000Y-99063750D01*
X143901174Y-99039858D01*
X143904684Y-99016197D01*
X143910496Y-98992993D01*
X143918554Y-98970471D01*
X143928782Y-98948847D01*
X143941079Y-98928330D01*
X143955329Y-98909117D01*
X143971393Y-98891393D01*
X143989117Y-98875329D01*
X144008330Y-98861079D01*
X144028847Y-98848782D01*
X144050471Y-98838554D01*
X144072993Y-98830496D01*
X144096197Y-98824684D01*
X144119858Y-98821174D01*
X144143750Y-98820000D01*
X145056250Y-98820000D01*
X145080142Y-98821174D01*
G37*
G04 #@! TD.AperFunction*
G04 #@! TA.AperFunction,SMDPad,CuDef*
G36*
X145080142Y-96946174D02*
G01*
X145103803Y-96949684D01*
X145127007Y-96955496D01*
X145149529Y-96963554D01*
X145171153Y-96973782D01*
X145191670Y-96986079D01*
X145210883Y-97000329D01*
X145228607Y-97016393D01*
X145244671Y-97034117D01*
X145258921Y-97053330D01*
X145271218Y-97073847D01*
X145281446Y-97095471D01*
X145289504Y-97117993D01*
X145295316Y-97141197D01*
X145298826Y-97164858D01*
X145300000Y-97188750D01*
X145300000Y-97676250D01*
X145298826Y-97700142D01*
X145295316Y-97723803D01*
X145289504Y-97747007D01*
X145281446Y-97769529D01*
X145271218Y-97791153D01*
X145258921Y-97811670D01*
X145244671Y-97830883D01*
X145228607Y-97848607D01*
X145210883Y-97864671D01*
X145191670Y-97878921D01*
X145171153Y-97891218D01*
X145149529Y-97901446D01*
X145127007Y-97909504D01*
X145103803Y-97915316D01*
X145080142Y-97918826D01*
X145056250Y-97920000D01*
X144143750Y-97920000D01*
X144119858Y-97918826D01*
X144096197Y-97915316D01*
X144072993Y-97909504D01*
X144050471Y-97901446D01*
X144028847Y-97891218D01*
X144008330Y-97878921D01*
X143989117Y-97864671D01*
X143971393Y-97848607D01*
X143955329Y-97830883D01*
X143941079Y-97811670D01*
X143928782Y-97791153D01*
X143918554Y-97769529D01*
X143910496Y-97747007D01*
X143904684Y-97723803D01*
X143901174Y-97700142D01*
X143900000Y-97676250D01*
X143900000Y-97188750D01*
X143901174Y-97164858D01*
X143904684Y-97141197D01*
X143910496Y-97117993D01*
X143918554Y-97095471D01*
X143928782Y-97073847D01*
X143941079Y-97053330D01*
X143955329Y-97034117D01*
X143971393Y-97016393D01*
X143989117Y-97000329D01*
X144008330Y-96986079D01*
X144028847Y-96973782D01*
X144050471Y-96963554D01*
X144072993Y-96955496D01*
X144096197Y-96949684D01*
X144119858Y-96946174D01*
X144143750Y-96945000D01*
X145056250Y-96945000D01*
X145080142Y-96946174D01*
G37*
G04 #@! TD.AperFunction*
G04 #@! TA.AperFunction,SMDPad,CuDef*
G36*
X155422642Y-94231174D02*
G01*
X155446303Y-94234684D01*
X155469507Y-94240496D01*
X155492029Y-94248554D01*
X155513653Y-94258782D01*
X155534170Y-94271079D01*
X155553383Y-94285329D01*
X155571107Y-94301393D01*
X155587171Y-94319117D01*
X155601421Y-94338330D01*
X155613718Y-94358847D01*
X155623946Y-94380471D01*
X155632004Y-94402993D01*
X155637816Y-94426197D01*
X155641326Y-94449858D01*
X155642500Y-94473750D01*
X155642500Y-95386250D01*
X155641326Y-95410142D01*
X155637816Y-95433803D01*
X155632004Y-95457007D01*
X155623946Y-95479529D01*
X155613718Y-95501153D01*
X155601421Y-95521670D01*
X155587171Y-95540883D01*
X155571107Y-95558607D01*
X155553383Y-95574671D01*
X155534170Y-95588921D01*
X155513653Y-95601218D01*
X155492029Y-95611446D01*
X155469507Y-95619504D01*
X155446303Y-95625316D01*
X155422642Y-95628826D01*
X155398750Y-95630000D01*
X154911250Y-95630000D01*
X154887358Y-95628826D01*
X154863697Y-95625316D01*
X154840493Y-95619504D01*
X154817971Y-95611446D01*
X154796347Y-95601218D01*
X154775830Y-95588921D01*
X154756617Y-95574671D01*
X154738893Y-95558607D01*
X154722829Y-95540883D01*
X154708579Y-95521670D01*
X154696282Y-95501153D01*
X154686054Y-95479529D01*
X154677996Y-95457007D01*
X154672184Y-95433803D01*
X154668674Y-95410142D01*
X154667500Y-95386250D01*
X154667500Y-94473750D01*
X154668674Y-94449858D01*
X154672184Y-94426197D01*
X154677996Y-94402993D01*
X154686054Y-94380471D01*
X154696282Y-94358847D01*
X154708579Y-94338330D01*
X154722829Y-94319117D01*
X154738893Y-94301393D01*
X154756617Y-94285329D01*
X154775830Y-94271079D01*
X154796347Y-94258782D01*
X154817971Y-94248554D01*
X154840493Y-94240496D01*
X154863697Y-94234684D01*
X154887358Y-94231174D01*
X154911250Y-94230000D01*
X155398750Y-94230000D01*
X155422642Y-94231174D01*
G37*
G04 #@! TD.AperFunction*
G04 #@! TA.AperFunction,SMDPad,CuDef*
G36*
X157297642Y-94231174D02*
G01*
X157321303Y-94234684D01*
X157344507Y-94240496D01*
X157367029Y-94248554D01*
X157388653Y-94258782D01*
X157409170Y-94271079D01*
X157428383Y-94285329D01*
X157446107Y-94301393D01*
X157462171Y-94319117D01*
X157476421Y-94338330D01*
X157488718Y-94358847D01*
X157498946Y-94380471D01*
X157507004Y-94402993D01*
X157512816Y-94426197D01*
X157516326Y-94449858D01*
X157517500Y-94473750D01*
X157517500Y-95386250D01*
X157516326Y-95410142D01*
X157512816Y-95433803D01*
X157507004Y-95457007D01*
X157498946Y-95479529D01*
X157488718Y-95501153D01*
X157476421Y-95521670D01*
X157462171Y-95540883D01*
X157446107Y-95558607D01*
X157428383Y-95574671D01*
X157409170Y-95588921D01*
X157388653Y-95601218D01*
X157367029Y-95611446D01*
X157344507Y-95619504D01*
X157321303Y-95625316D01*
X157297642Y-95628826D01*
X157273750Y-95630000D01*
X156786250Y-95630000D01*
X156762358Y-95628826D01*
X156738697Y-95625316D01*
X156715493Y-95619504D01*
X156692971Y-95611446D01*
X156671347Y-95601218D01*
X156650830Y-95588921D01*
X156631617Y-95574671D01*
X156613893Y-95558607D01*
X156597829Y-95540883D01*
X156583579Y-95521670D01*
X156571282Y-95501153D01*
X156561054Y-95479529D01*
X156552996Y-95457007D01*
X156547184Y-95433803D01*
X156543674Y-95410142D01*
X156542500Y-95386250D01*
X156542500Y-94473750D01*
X156543674Y-94449858D01*
X156547184Y-94426197D01*
X156552996Y-94402993D01*
X156561054Y-94380471D01*
X156571282Y-94358847D01*
X156583579Y-94338330D01*
X156597829Y-94319117D01*
X156613893Y-94301393D01*
X156631617Y-94285329D01*
X156650830Y-94271079D01*
X156671347Y-94258782D01*
X156692971Y-94248554D01*
X156715493Y-94240496D01*
X156738697Y-94234684D01*
X156762358Y-94231174D01*
X156786250Y-94230000D01*
X157273750Y-94230000D01*
X157297642Y-94231174D01*
G37*
G04 #@! TD.AperFunction*
G04 #@! TA.AperFunction,SMDPad,CuDef*
G36*
X143160142Y-98821174D02*
G01*
X143183803Y-98824684D01*
X143207007Y-98830496D01*
X143229529Y-98838554D01*
X143251153Y-98848782D01*
X143271670Y-98861079D01*
X143290883Y-98875329D01*
X143308607Y-98891393D01*
X143324671Y-98909117D01*
X143338921Y-98928330D01*
X143351218Y-98948847D01*
X143361446Y-98970471D01*
X143369504Y-98992993D01*
X143375316Y-99016197D01*
X143378826Y-99039858D01*
X143380000Y-99063750D01*
X143380000Y-99551250D01*
X143378826Y-99575142D01*
X143375316Y-99598803D01*
X143369504Y-99622007D01*
X143361446Y-99644529D01*
X143351218Y-99666153D01*
X143338921Y-99686670D01*
X143324671Y-99705883D01*
X143308607Y-99723607D01*
X143290883Y-99739671D01*
X143271670Y-99753921D01*
X143251153Y-99766218D01*
X143229529Y-99776446D01*
X143207007Y-99784504D01*
X143183803Y-99790316D01*
X143160142Y-99793826D01*
X143136250Y-99795000D01*
X142223750Y-99795000D01*
X142199858Y-99793826D01*
X142176197Y-99790316D01*
X142152993Y-99784504D01*
X142130471Y-99776446D01*
X142108847Y-99766218D01*
X142088330Y-99753921D01*
X142069117Y-99739671D01*
X142051393Y-99723607D01*
X142035329Y-99705883D01*
X142021079Y-99686670D01*
X142008782Y-99666153D01*
X141998554Y-99644529D01*
X141990496Y-99622007D01*
X141984684Y-99598803D01*
X141981174Y-99575142D01*
X141980000Y-99551250D01*
X141980000Y-99063750D01*
X141981174Y-99039858D01*
X141984684Y-99016197D01*
X141990496Y-98992993D01*
X141998554Y-98970471D01*
X142008782Y-98948847D01*
X142021079Y-98928330D01*
X142035329Y-98909117D01*
X142051393Y-98891393D01*
X142069117Y-98875329D01*
X142088330Y-98861079D01*
X142108847Y-98848782D01*
X142130471Y-98838554D01*
X142152993Y-98830496D01*
X142176197Y-98824684D01*
X142199858Y-98821174D01*
X142223750Y-98820000D01*
X143136250Y-98820000D01*
X143160142Y-98821174D01*
G37*
G04 #@! TD.AperFunction*
G04 #@! TA.AperFunction,SMDPad,CuDef*
G36*
X143160142Y-96946174D02*
G01*
X143183803Y-96949684D01*
X143207007Y-96955496D01*
X143229529Y-96963554D01*
X143251153Y-96973782D01*
X143271670Y-96986079D01*
X143290883Y-97000329D01*
X143308607Y-97016393D01*
X143324671Y-97034117D01*
X143338921Y-97053330D01*
X143351218Y-97073847D01*
X143361446Y-97095471D01*
X143369504Y-97117993D01*
X143375316Y-97141197D01*
X143378826Y-97164858D01*
X143380000Y-97188750D01*
X143380000Y-97676250D01*
X143378826Y-97700142D01*
X143375316Y-97723803D01*
X143369504Y-97747007D01*
X143361446Y-97769529D01*
X143351218Y-97791153D01*
X143338921Y-97811670D01*
X143324671Y-97830883D01*
X143308607Y-97848607D01*
X143290883Y-97864671D01*
X143271670Y-97878921D01*
X143251153Y-97891218D01*
X143229529Y-97901446D01*
X143207007Y-97909504D01*
X143183803Y-97915316D01*
X143160142Y-97918826D01*
X143136250Y-97920000D01*
X142223750Y-97920000D01*
X142199858Y-97918826D01*
X142176197Y-97915316D01*
X142152993Y-97909504D01*
X142130471Y-97901446D01*
X142108847Y-97891218D01*
X142088330Y-97878921D01*
X142069117Y-97864671D01*
X142051393Y-97848607D01*
X142035329Y-97830883D01*
X142021079Y-97811670D01*
X142008782Y-97791153D01*
X141998554Y-97769529D01*
X141990496Y-97747007D01*
X141984684Y-97723803D01*
X141981174Y-97700142D01*
X141980000Y-97676250D01*
X141980000Y-97188750D01*
X141981174Y-97164858D01*
X141984684Y-97141197D01*
X141990496Y-97117993D01*
X141998554Y-97095471D01*
X142008782Y-97073847D01*
X142021079Y-97053330D01*
X142035329Y-97034117D01*
X142051393Y-97016393D01*
X142069117Y-97000329D01*
X142088330Y-96986079D01*
X142108847Y-96973782D01*
X142130471Y-96963554D01*
X142152993Y-96955496D01*
X142176197Y-96949684D01*
X142199858Y-96946174D01*
X142223750Y-96945000D01*
X143136250Y-96945000D01*
X143160142Y-96946174D01*
G37*
G04 #@! TD.AperFunction*
G04 #@! TA.AperFunction,SMDPad,CuDef*
G36*
X158365142Y-110081174D02*
G01*
X158388803Y-110084684D01*
X158412007Y-110090496D01*
X158434529Y-110098554D01*
X158456153Y-110108782D01*
X158476670Y-110121079D01*
X158495883Y-110135329D01*
X158513607Y-110151393D01*
X158529671Y-110169117D01*
X158543921Y-110188330D01*
X158556218Y-110208847D01*
X158566446Y-110230471D01*
X158574504Y-110252993D01*
X158580316Y-110276197D01*
X158583826Y-110299858D01*
X158585000Y-110323750D01*
X158585000Y-111236250D01*
X158583826Y-111260142D01*
X158580316Y-111283803D01*
X158574504Y-111307007D01*
X158566446Y-111329529D01*
X158556218Y-111351153D01*
X158543921Y-111371670D01*
X158529671Y-111390883D01*
X158513607Y-111408607D01*
X158495883Y-111424671D01*
X158476670Y-111438921D01*
X158456153Y-111451218D01*
X158434529Y-111461446D01*
X158412007Y-111469504D01*
X158388803Y-111475316D01*
X158365142Y-111478826D01*
X158341250Y-111480000D01*
X157853750Y-111480000D01*
X157829858Y-111478826D01*
X157806197Y-111475316D01*
X157782993Y-111469504D01*
X157760471Y-111461446D01*
X157738847Y-111451218D01*
X157718330Y-111438921D01*
X157699117Y-111424671D01*
X157681393Y-111408607D01*
X157665329Y-111390883D01*
X157651079Y-111371670D01*
X157638782Y-111351153D01*
X157628554Y-111329529D01*
X157620496Y-111307007D01*
X157614684Y-111283803D01*
X157611174Y-111260142D01*
X157610000Y-111236250D01*
X157610000Y-110323750D01*
X157611174Y-110299858D01*
X157614684Y-110276197D01*
X157620496Y-110252993D01*
X157628554Y-110230471D01*
X157638782Y-110208847D01*
X157651079Y-110188330D01*
X157665329Y-110169117D01*
X157681393Y-110151393D01*
X157699117Y-110135329D01*
X157718330Y-110121079D01*
X157738847Y-110108782D01*
X157760471Y-110098554D01*
X157782993Y-110090496D01*
X157806197Y-110084684D01*
X157829858Y-110081174D01*
X157853750Y-110080000D01*
X158341250Y-110080000D01*
X158365142Y-110081174D01*
G37*
G04 #@! TD.AperFunction*
G04 #@! TA.AperFunction,SMDPad,CuDef*
G36*
X156490142Y-110081174D02*
G01*
X156513803Y-110084684D01*
X156537007Y-110090496D01*
X156559529Y-110098554D01*
X156581153Y-110108782D01*
X156601670Y-110121079D01*
X156620883Y-110135329D01*
X156638607Y-110151393D01*
X156654671Y-110169117D01*
X156668921Y-110188330D01*
X156681218Y-110208847D01*
X156691446Y-110230471D01*
X156699504Y-110252993D01*
X156705316Y-110276197D01*
X156708826Y-110299858D01*
X156710000Y-110323750D01*
X156710000Y-111236250D01*
X156708826Y-111260142D01*
X156705316Y-111283803D01*
X156699504Y-111307007D01*
X156691446Y-111329529D01*
X156681218Y-111351153D01*
X156668921Y-111371670D01*
X156654671Y-111390883D01*
X156638607Y-111408607D01*
X156620883Y-111424671D01*
X156601670Y-111438921D01*
X156581153Y-111451218D01*
X156559529Y-111461446D01*
X156537007Y-111469504D01*
X156513803Y-111475316D01*
X156490142Y-111478826D01*
X156466250Y-111480000D01*
X155978750Y-111480000D01*
X155954858Y-111478826D01*
X155931197Y-111475316D01*
X155907993Y-111469504D01*
X155885471Y-111461446D01*
X155863847Y-111451218D01*
X155843330Y-111438921D01*
X155824117Y-111424671D01*
X155806393Y-111408607D01*
X155790329Y-111390883D01*
X155776079Y-111371670D01*
X155763782Y-111351153D01*
X155753554Y-111329529D01*
X155745496Y-111307007D01*
X155739684Y-111283803D01*
X155736174Y-111260142D01*
X155735000Y-111236250D01*
X155735000Y-110323750D01*
X155736174Y-110299858D01*
X155739684Y-110276197D01*
X155745496Y-110252993D01*
X155753554Y-110230471D01*
X155763782Y-110208847D01*
X155776079Y-110188330D01*
X155790329Y-110169117D01*
X155806393Y-110151393D01*
X155824117Y-110135329D01*
X155843330Y-110121079D01*
X155863847Y-110108782D01*
X155885471Y-110098554D01*
X155907993Y-110090496D01*
X155931197Y-110084684D01*
X155954858Y-110081174D01*
X155978750Y-110080000D01*
X156466250Y-110080000D01*
X156490142Y-110081174D01*
G37*
G04 #@! TD.AperFunction*
G04 #@! TA.AperFunction,SMDPad,CuDef*
G36*
X165737642Y-94231174D02*
G01*
X165761303Y-94234684D01*
X165784507Y-94240496D01*
X165807029Y-94248554D01*
X165828653Y-94258782D01*
X165849170Y-94271079D01*
X165868383Y-94285329D01*
X165886107Y-94301393D01*
X165902171Y-94319117D01*
X165916421Y-94338330D01*
X165928718Y-94358847D01*
X165938946Y-94380471D01*
X165947004Y-94402993D01*
X165952816Y-94426197D01*
X165956326Y-94449858D01*
X165957500Y-94473750D01*
X165957500Y-95386250D01*
X165956326Y-95410142D01*
X165952816Y-95433803D01*
X165947004Y-95457007D01*
X165938946Y-95479529D01*
X165928718Y-95501153D01*
X165916421Y-95521670D01*
X165902171Y-95540883D01*
X165886107Y-95558607D01*
X165868383Y-95574671D01*
X165849170Y-95588921D01*
X165828653Y-95601218D01*
X165807029Y-95611446D01*
X165784507Y-95619504D01*
X165761303Y-95625316D01*
X165737642Y-95628826D01*
X165713750Y-95630000D01*
X165226250Y-95630000D01*
X165202358Y-95628826D01*
X165178697Y-95625316D01*
X165155493Y-95619504D01*
X165132971Y-95611446D01*
X165111347Y-95601218D01*
X165090830Y-95588921D01*
X165071617Y-95574671D01*
X165053893Y-95558607D01*
X165037829Y-95540883D01*
X165023579Y-95521670D01*
X165011282Y-95501153D01*
X165001054Y-95479529D01*
X164992996Y-95457007D01*
X164987184Y-95433803D01*
X164983674Y-95410142D01*
X164982500Y-95386250D01*
X164982500Y-94473750D01*
X164983674Y-94449858D01*
X164987184Y-94426197D01*
X164992996Y-94402993D01*
X165001054Y-94380471D01*
X165011282Y-94358847D01*
X165023579Y-94338330D01*
X165037829Y-94319117D01*
X165053893Y-94301393D01*
X165071617Y-94285329D01*
X165090830Y-94271079D01*
X165111347Y-94258782D01*
X165132971Y-94248554D01*
X165155493Y-94240496D01*
X165178697Y-94234684D01*
X165202358Y-94231174D01*
X165226250Y-94230000D01*
X165713750Y-94230000D01*
X165737642Y-94231174D01*
G37*
G04 #@! TD.AperFunction*
G04 #@! TA.AperFunction,SMDPad,CuDef*
G36*
X163862642Y-94231174D02*
G01*
X163886303Y-94234684D01*
X163909507Y-94240496D01*
X163932029Y-94248554D01*
X163953653Y-94258782D01*
X163974170Y-94271079D01*
X163993383Y-94285329D01*
X164011107Y-94301393D01*
X164027171Y-94319117D01*
X164041421Y-94338330D01*
X164053718Y-94358847D01*
X164063946Y-94380471D01*
X164072004Y-94402993D01*
X164077816Y-94426197D01*
X164081326Y-94449858D01*
X164082500Y-94473750D01*
X164082500Y-95386250D01*
X164081326Y-95410142D01*
X164077816Y-95433803D01*
X164072004Y-95457007D01*
X164063946Y-95479529D01*
X164053718Y-95501153D01*
X164041421Y-95521670D01*
X164027171Y-95540883D01*
X164011107Y-95558607D01*
X163993383Y-95574671D01*
X163974170Y-95588921D01*
X163953653Y-95601218D01*
X163932029Y-95611446D01*
X163909507Y-95619504D01*
X163886303Y-95625316D01*
X163862642Y-95628826D01*
X163838750Y-95630000D01*
X163351250Y-95630000D01*
X163327358Y-95628826D01*
X163303697Y-95625316D01*
X163280493Y-95619504D01*
X163257971Y-95611446D01*
X163236347Y-95601218D01*
X163215830Y-95588921D01*
X163196617Y-95574671D01*
X163178893Y-95558607D01*
X163162829Y-95540883D01*
X163148579Y-95521670D01*
X163136282Y-95501153D01*
X163126054Y-95479529D01*
X163117996Y-95457007D01*
X163112184Y-95433803D01*
X163108674Y-95410142D01*
X163107500Y-95386250D01*
X163107500Y-94473750D01*
X163108674Y-94449858D01*
X163112184Y-94426197D01*
X163117996Y-94402993D01*
X163126054Y-94380471D01*
X163136282Y-94358847D01*
X163148579Y-94338330D01*
X163162829Y-94319117D01*
X163178893Y-94301393D01*
X163196617Y-94285329D01*
X163215830Y-94271079D01*
X163236347Y-94258782D01*
X163257971Y-94248554D01*
X163280493Y-94240496D01*
X163303697Y-94234684D01*
X163327358Y-94231174D01*
X163351250Y-94230000D01*
X163838750Y-94230000D01*
X163862642Y-94231174D01*
G37*
G04 #@! TD.AperFunction*
G04 #@! TA.AperFunction,SMDPad,CuDef*
G36*
X146761545Y-70849536D02*
G01*
X146785206Y-70853046D01*
X146808410Y-70858858D01*
X146830932Y-70866916D01*
X146852556Y-70877144D01*
X146873073Y-70889441D01*
X146892286Y-70903691D01*
X146910010Y-70919755D01*
X147555245Y-71564990D01*
X147571309Y-71582714D01*
X147585559Y-71601927D01*
X147597856Y-71622444D01*
X147608084Y-71644068D01*
X147616142Y-71666590D01*
X147621954Y-71689794D01*
X147625464Y-71713455D01*
X147626638Y-71737347D01*
X147625464Y-71761239D01*
X147621954Y-71784900D01*
X147616142Y-71808104D01*
X147608084Y-71830626D01*
X147597856Y-71852250D01*
X147585559Y-71872767D01*
X147571309Y-71891980D01*
X147555245Y-71909704D01*
X147210530Y-72254419D01*
X147192806Y-72270483D01*
X147173593Y-72284733D01*
X147153076Y-72297030D01*
X147131452Y-72307258D01*
X147108930Y-72315316D01*
X147085726Y-72321128D01*
X147062065Y-72324638D01*
X147038173Y-72325812D01*
X147014281Y-72324638D01*
X146990620Y-72321128D01*
X146967416Y-72315316D01*
X146944894Y-72307258D01*
X146923270Y-72297030D01*
X146902753Y-72284733D01*
X146883540Y-72270483D01*
X146865816Y-72254419D01*
X146220581Y-71609184D01*
X146204517Y-71591460D01*
X146190267Y-71572247D01*
X146177970Y-71551730D01*
X146167742Y-71530106D01*
X146159684Y-71507584D01*
X146153872Y-71484380D01*
X146150362Y-71460719D01*
X146149188Y-71436827D01*
X146150362Y-71412935D01*
X146153872Y-71389274D01*
X146159684Y-71366070D01*
X146167742Y-71343548D01*
X146177970Y-71321924D01*
X146190267Y-71301407D01*
X146204517Y-71282194D01*
X146220581Y-71264470D01*
X146565296Y-70919755D01*
X146583020Y-70903691D01*
X146602233Y-70889441D01*
X146622750Y-70877144D01*
X146644374Y-70866916D01*
X146666896Y-70858858D01*
X146690100Y-70853046D01*
X146713761Y-70849536D01*
X146737653Y-70848362D01*
X146761545Y-70849536D01*
G37*
G04 #@! TD.AperFunction*
G04 #@! TA.AperFunction,SMDPad,CuDef*
G36*
X145435719Y-72175362D02*
G01*
X145459380Y-72178872D01*
X145482584Y-72184684D01*
X145505106Y-72192742D01*
X145526730Y-72202970D01*
X145547247Y-72215267D01*
X145566460Y-72229517D01*
X145584184Y-72245581D01*
X146229419Y-72890816D01*
X146245483Y-72908540D01*
X146259733Y-72927753D01*
X146272030Y-72948270D01*
X146282258Y-72969894D01*
X146290316Y-72992416D01*
X146296128Y-73015620D01*
X146299638Y-73039281D01*
X146300812Y-73063173D01*
X146299638Y-73087065D01*
X146296128Y-73110726D01*
X146290316Y-73133930D01*
X146282258Y-73156452D01*
X146272030Y-73178076D01*
X146259733Y-73198593D01*
X146245483Y-73217806D01*
X146229419Y-73235530D01*
X145884704Y-73580245D01*
X145866980Y-73596309D01*
X145847767Y-73610559D01*
X145827250Y-73622856D01*
X145805626Y-73633084D01*
X145783104Y-73641142D01*
X145759900Y-73646954D01*
X145736239Y-73650464D01*
X145712347Y-73651638D01*
X145688455Y-73650464D01*
X145664794Y-73646954D01*
X145641590Y-73641142D01*
X145619068Y-73633084D01*
X145597444Y-73622856D01*
X145576927Y-73610559D01*
X145557714Y-73596309D01*
X145539990Y-73580245D01*
X144894755Y-72935010D01*
X144878691Y-72917286D01*
X144864441Y-72898073D01*
X144852144Y-72877556D01*
X144841916Y-72855932D01*
X144833858Y-72833410D01*
X144828046Y-72810206D01*
X144824536Y-72786545D01*
X144823362Y-72762653D01*
X144824536Y-72738761D01*
X144828046Y-72715100D01*
X144833858Y-72691896D01*
X144841916Y-72669374D01*
X144852144Y-72647750D01*
X144864441Y-72627233D01*
X144878691Y-72608020D01*
X144894755Y-72590296D01*
X145239470Y-72245581D01*
X145257194Y-72229517D01*
X145276407Y-72215267D01*
X145296924Y-72202970D01*
X145318548Y-72192742D01*
X145341070Y-72184684D01*
X145364274Y-72178872D01*
X145387935Y-72175362D01*
X145411827Y-72174188D01*
X145435719Y-72175362D01*
G37*
G04 #@! TD.AperFunction*
G04 #@! TA.AperFunction,SMDPad,CuDef*
G36*
X152273632Y-74962449D02*
G01*
X152297293Y-74965959D01*
X152320497Y-74971771D01*
X152343019Y-74979829D01*
X152364643Y-74990057D01*
X152385160Y-75002354D01*
X152404373Y-75016604D01*
X152422097Y-75032668D01*
X153067332Y-75677903D01*
X153083396Y-75695627D01*
X153097646Y-75714840D01*
X153109943Y-75735357D01*
X153120171Y-75756981D01*
X153128229Y-75779503D01*
X153134041Y-75802707D01*
X153137551Y-75826368D01*
X153138725Y-75850260D01*
X153137551Y-75874152D01*
X153134041Y-75897813D01*
X153128229Y-75921017D01*
X153120171Y-75943539D01*
X153109943Y-75965163D01*
X153097646Y-75985680D01*
X153083396Y-76004893D01*
X153067332Y-76022617D01*
X152722617Y-76367332D01*
X152704893Y-76383396D01*
X152685680Y-76397646D01*
X152665163Y-76409943D01*
X152643539Y-76420171D01*
X152621017Y-76428229D01*
X152597813Y-76434041D01*
X152574152Y-76437551D01*
X152550260Y-76438725D01*
X152526368Y-76437551D01*
X152502707Y-76434041D01*
X152479503Y-76428229D01*
X152456981Y-76420171D01*
X152435357Y-76409943D01*
X152414840Y-76397646D01*
X152395627Y-76383396D01*
X152377903Y-76367332D01*
X151732668Y-75722097D01*
X151716604Y-75704373D01*
X151702354Y-75685160D01*
X151690057Y-75664643D01*
X151679829Y-75643019D01*
X151671771Y-75620497D01*
X151665959Y-75597293D01*
X151662449Y-75573632D01*
X151661275Y-75549740D01*
X151662449Y-75525848D01*
X151665959Y-75502187D01*
X151671771Y-75478983D01*
X151679829Y-75456461D01*
X151690057Y-75434837D01*
X151702354Y-75414320D01*
X151716604Y-75395107D01*
X151732668Y-75377383D01*
X152077383Y-75032668D01*
X152095107Y-75016604D01*
X152114320Y-75002354D01*
X152134837Y-74990057D01*
X152156461Y-74979829D01*
X152178983Y-74971771D01*
X152202187Y-74965959D01*
X152225848Y-74962449D01*
X152249740Y-74961275D01*
X152273632Y-74962449D01*
G37*
G04 #@! TD.AperFunction*
G04 #@! TA.AperFunction,SMDPad,CuDef*
G36*
X153599458Y-73636623D02*
G01*
X153623119Y-73640133D01*
X153646323Y-73645945D01*
X153668845Y-73654003D01*
X153690469Y-73664231D01*
X153710986Y-73676528D01*
X153730199Y-73690778D01*
X153747923Y-73706842D01*
X154393158Y-74352077D01*
X154409222Y-74369801D01*
X154423472Y-74389014D01*
X154435769Y-74409531D01*
X154445997Y-74431155D01*
X154454055Y-74453677D01*
X154459867Y-74476881D01*
X154463377Y-74500542D01*
X154464551Y-74524434D01*
X154463377Y-74548326D01*
X154459867Y-74571987D01*
X154454055Y-74595191D01*
X154445997Y-74617713D01*
X154435769Y-74639337D01*
X154423472Y-74659854D01*
X154409222Y-74679067D01*
X154393158Y-74696791D01*
X154048443Y-75041506D01*
X154030719Y-75057570D01*
X154011506Y-75071820D01*
X153990989Y-75084117D01*
X153969365Y-75094345D01*
X153946843Y-75102403D01*
X153923639Y-75108215D01*
X153899978Y-75111725D01*
X153876086Y-75112899D01*
X153852194Y-75111725D01*
X153828533Y-75108215D01*
X153805329Y-75102403D01*
X153782807Y-75094345D01*
X153761183Y-75084117D01*
X153740666Y-75071820D01*
X153721453Y-75057570D01*
X153703729Y-75041506D01*
X153058494Y-74396271D01*
X153042430Y-74378547D01*
X153028180Y-74359334D01*
X153015883Y-74338817D01*
X153005655Y-74317193D01*
X152997597Y-74294671D01*
X152991785Y-74271467D01*
X152988275Y-74247806D01*
X152987101Y-74223914D01*
X152988275Y-74200022D01*
X152991785Y-74176361D01*
X152997597Y-74153157D01*
X153005655Y-74130635D01*
X153015883Y-74109011D01*
X153028180Y-74088494D01*
X153042430Y-74069281D01*
X153058494Y-74051557D01*
X153403209Y-73706842D01*
X153420933Y-73690778D01*
X153440146Y-73676528D01*
X153460663Y-73664231D01*
X153482287Y-73654003D01*
X153504809Y-73645945D01*
X153528013Y-73640133D01*
X153551674Y-73636623D01*
X153575566Y-73635449D01*
X153599458Y-73636623D01*
G37*
G04 #@! TD.AperFunction*
G04 #@! TA.AperFunction,SMDPad,CuDef*
G36*
X159979978Y-115768275D02*
G01*
X160003639Y-115771785D01*
X160026843Y-115777597D01*
X160049365Y-115785655D01*
X160070989Y-115795883D01*
X160091506Y-115808180D01*
X160110719Y-115822430D01*
X160128443Y-115838494D01*
X160473158Y-116183209D01*
X160489222Y-116200933D01*
X160503472Y-116220146D01*
X160515769Y-116240663D01*
X160525997Y-116262287D01*
X160534055Y-116284809D01*
X160539867Y-116308013D01*
X160543377Y-116331674D01*
X160544551Y-116355566D01*
X160543377Y-116379458D01*
X160539867Y-116403119D01*
X160534055Y-116426323D01*
X160525997Y-116448845D01*
X160515769Y-116470469D01*
X160503472Y-116490986D01*
X160489222Y-116510199D01*
X160473158Y-116527923D01*
X159827923Y-117173158D01*
X159810199Y-117189222D01*
X159790986Y-117203472D01*
X159770469Y-117215769D01*
X159748845Y-117225997D01*
X159726323Y-117234055D01*
X159703119Y-117239867D01*
X159679458Y-117243377D01*
X159655566Y-117244551D01*
X159631674Y-117243377D01*
X159608013Y-117239867D01*
X159584809Y-117234055D01*
X159562287Y-117225997D01*
X159540663Y-117215769D01*
X159520146Y-117203472D01*
X159500933Y-117189222D01*
X159483209Y-117173158D01*
X159138494Y-116828443D01*
X159122430Y-116810719D01*
X159108180Y-116791506D01*
X159095883Y-116770989D01*
X159085655Y-116749365D01*
X159077597Y-116726843D01*
X159071785Y-116703639D01*
X159068275Y-116679978D01*
X159067101Y-116656086D01*
X159068275Y-116632194D01*
X159071785Y-116608533D01*
X159077597Y-116585329D01*
X159085655Y-116562807D01*
X159095883Y-116541183D01*
X159108180Y-116520666D01*
X159122430Y-116501453D01*
X159138494Y-116483729D01*
X159783729Y-115838494D01*
X159801453Y-115822430D01*
X159820666Y-115808180D01*
X159841183Y-115795883D01*
X159862807Y-115785655D01*
X159885329Y-115777597D01*
X159908533Y-115771785D01*
X159932194Y-115768275D01*
X159956086Y-115767101D01*
X159979978Y-115768275D01*
G37*
G04 #@! TD.AperFunction*
G04 #@! TA.AperFunction,SMDPad,CuDef*
G36*
X158654152Y-114442449D02*
G01*
X158677813Y-114445959D01*
X158701017Y-114451771D01*
X158723539Y-114459829D01*
X158745163Y-114470057D01*
X158765680Y-114482354D01*
X158784893Y-114496604D01*
X158802617Y-114512668D01*
X159147332Y-114857383D01*
X159163396Y-114875107D01*
X159177646Y-114894320D01*
X159189943Y-114914837D01*
X159200171Y-114936461D01*
X159208229Y-114958983D01*
X159214041Y-114982187D01*
X159217551Y-115005848D01*
X159218725Y-115029740D01*
X159217551Y-115053632D01*
X159214041Y-115077293D01*
X159208229Y-115100497D01*
X159200171Y-115123019D01*
X159189943Y-115144643D01*
X159177646Y-115165160D01*
X159163396Y-115184373D01*
X159147332Y-115202097D01*
X158502097Y-115847332D01*
X158484373Y-115863396D01*
X158465160Y-115877646D01*
X158444643Y-115889943D01*
X158423019Y-115900171D01*
X158400497Y-115908229D01*
X158377293Y-115914041D01*
X158353632Y-115917551D01*
X158329740Y-115918725D01*
X158305848Y-115917551D01*
X158282187Y-115914041D01*
X158258983Y-115908229D01*
X158236461Y-115900171D01*
X158214837Y-115889943D01*
X158194320Y-115877646D01*
X158175107Y-115863396D01*
X158157383Y-115847332D01*
X157812668Y-115502617D01*
X157796604Y-115484893D01*
X157782354Y-115465680D01*
X157770057Y-115445163D01*
X157759829Y-115423539D01*
X157751771Y-115401017D01*
X157745959Y-115377813D01*
X157742449Y-115354152D01*
X157741275Y-115330260D01*
X157742449Y-115306368D01*
X157745959Y-115282707D01*
X157751771Y-115259503D01*
X157759829Y-115236981D01*
X157770057Y-115215357D01*
X157782354Y-115194840D01*
X157796604Y-115175627D01*
X157812668Y-115157903D01*
X158457903Y-114512668D01*
X158475627Y-114496604D01*
X158494840Y-114482354D01*
X158515357Y-114470057D01*
X158536981Y-114459829D01*
X158559503Y-114451771D01*
X158582707Y-114445959D01*
X158606368Y-114442449D01*
X158630260Y-114441275D01*
X158654152Y-114442449D01*
G37*
G04 #@! TD.AperFunction*
G04 #@! TA.AperFunction,SMDPad,CuDef*
G36*
X163308326Y-110416623D02*
G01*
X163331987Y-110420133D01*
X163355191Y-110425945D01*
X163377713Y-110434003D01*
X163399337Y-110444231D01*
X163419854Y-110456528D01*
X163439067Y-110470778D01*
X163456791Y-110486842D01*
X163801506Y-110831557D01*
X163817570Y-110849281D01*
X163831820Y-110868494D01*
X163844117Y-110889011D01*
X163854345Y-110910635D01*
X163862403Y-110933157D01*
X163868215Y-110956361D01*
X163871725Y-110980022D01*
X163872899Y-111003914D01*
X163871725Y-111027806D01*
X163868215Y-111051467D01*
X163862403Y-111074671D01*
X163854345Y-111097193D01*
X163844117Y-111118817D01*
X163831820Y-111139334D01*
X163817570Y-111158547D01*
X163801506Y-111176271D01*
X163156271Y-111821506D01*
X163138547Y-111837570D01*
X163119334Y-111851820D01*
X163098817Y-111864117D01*
X163077193Y-111874345D01*
X163054671Y-111882403D01*
X163031467Y-111888215D01*
X163007806Y-111891725D01*
X162983914Y-111892899D01*
X162960022Y-111891725D01*
X162936361Y-111888215D01*
X162913157Y-111882403D01*
X162890635Y-111874345D01*
X162869011Y-111864117D01*
X162848494Y-111851820D01*
X162829281Y-111837570D01*
X162811557Y-111821506D01*
X162466842Y-111476791D01*
X162450778Y-111459067D01*
X162436528Y-111439854D01*
X162424231Y-111419337D01*
X162414003Y-111397713D01*
X162405945Y-111375191D01*
X162400133Y-111351987D01*
X162396623Y-111328326D01*
X162395449Y-111304434D01*
X162396623Y-111280542D01*
X162400133Y-111256881D01*
X162405945Y-111233677D01*
X162414003Y-111211155D01*
X162424231Y-111189531D01*
X162436528Y-111169014D01*
X162450778Y-111149801D01*
X162466842Y-111132077D01*
X163112077Y-110486842D01*
X163129801Y-110470778D01*
X163149014Y-110456528D01*
X163169531Y-110444231D01*
X163191155Y-110434003D01*
X163213677Y-110425945D01*
X163236881Y-110420133D01*
X163260542Y-110416623D01*
X163284434Y-110415449D01*
X163308326Y-110416623D01*
G37*
G04 #@! TD.AperFunction*
G04 #@! TA.AperFunction,SMDPad,CuDef*
G36*
X164634152Y-111742449D02*
G01*
X164657813Y-111745959D01*
X164681017Y-111751771D01*
X164703539Y-111759829D01*
X164725163Y-111770057D01*
X164745680Y-111782354D01*
X164764893Y-111796604D01*
X164782617Y-111812668D01*
X165127332Y-112157383D01*
X165143396Y-112175107D01*
X165157646Y-112194320D01*
X165169943Y-112214837D01*
X165180171Y-112236461D01*
X165188229Y-112258983D01*
X165194041Y-112282187D01*
X165197551Y-112305848D01*
X165198725Y-112329740D01*
X165197551Y-112353632D01*
X165194041Y-112377293D01*
X165188229Y-112400497D01*
X165180171Y-112423019D01*
X165169943Y-112444643D01*
X165157646Y-112465160D01*
X165143396Y-112484373D01*
X165127332Y-112502097D01*
X164482097Y-113147332D01*
X164464373Y-113163396D01*
X164445160Y-113177646D01*
X164424643Y-113189943D01*
X164403019Y-113200171D01*
X164380497Y-113208229D01*
X164357293Y-113214041D01*
X164333632Y-113217551D01*
X164309740Y-113218725D01*
X164285848Y-113217551D01*
X164262187Y-113214041D01*
X164238983Y-113208229D01*
X164216461Y-113200171D01*
X164194837Y-113189943D01*
X164174320Y-113177646D01*
X164155107Y-113163396D01*
X164137383Y-113147332D01*
X163792668Y-112802617D01*
X163776604Y-112784893D01*
X163762354Y-112765680D01*
X163750057Y-112745163D01*
X163739829Y-112723539D01*
X163731771Y-112701017D01*
X163725959Y-112677813D01*
X163722449Y-112654152D01*
X163721275Y-112630260D01*
X163722449Y-112606368D01*
X163725959Y-112582707D01*
X163731771Y-112559503D01*
X163739829Y-112536981D01*
X163750057Y-112515357D01*
X163762354Y-112494840D01*
X163776604Y-112475627D01*
X163792668Y-112457903D01*
X164437903Y-111812668D01*
X164455627Y-111796604D01*
X164474840Y-111782354D01*
X164495357Y-111770057D01*
X164516981Y-111759829D01*
X164539503Y-111751771D01*
X164562707Y-111745959D01*
X164586368Y-111742449D01*
X164610260Y-111741275D01*
X164634152Y-111742449D01*
G37*
G04 #@! TD.AperFunction*
G04 #@! TA.AperFunction,SMDPad,CuDef*
G36*
X150074874Y-75576346D02*
G01*
X149226346Y-76424874D01*
X148236396Y-75434924D01*
X149084924Y-74586396D01*
X150074874Y-75576346D01*
G37*
G04 #@! TD.AperFunction*
G04 #@! TA.AperFunction,SMDPad,CuDef*
G36*
X148519239Y-74020711D02*
G01*
X147670711Y-74869239D01*
X146680761Y-73879289D01*
X147529289Y-73030761D01*
X148519239Y-74020711D01*
G37*
G04 #@! TD.AperFunction*
G04 #@! TA.AperFunction,SMDPad,CuDef*
G36*
X149721320Y-72818630D02*
G01*
X148872792Y-73667158D01*
X147882842Y-72677208D01*
X148731370Y-71828680D01*
X149721320Y-72818630D01*
G37*
G04 #@! TD.AperFunction*
G04 #@! TA.AperFunction,SMDPad,CuDef*
G36*
X151276955Y-74374265D02*
G01*
X150428427Y-75222793D01*
X149438477Y-74232843D01*
X150287005Y-73384315D01*
X151276955Y-74374265D01*
G37*
G04 #@! TD.AperFunction*
D15*
X134440000Y-95130000D03*
X137740000Y-95130000D03*
D16*
X172551220Y-81948600D03*
D17*
X139531220Y-89568600D03*
X170011220Y-81948600D03*
X142071220Y-89568600D03*
X167471220Y-81948600D03*
X144611220Y-89568600D03*
X164931220Y-81948600D03*
X147151220Y-89568600D03*
X162391220Y-81948600D03*
X149691220Y-89568600D03*
X159851220Y-81948600D03*
X152231220Y-89568600D03*
X157311220Y-81948600D03*
X154771220Y-89568600D03*
X154771220Y-81948600D03*
X157311220Y-89568600D03*
X152231220Y-81948600D03*
X159851220Y-89568600D03*
X149691220Y-81948600D03*
X162391220Y-89568600D03*
X147151220Y-81948600D03*
X164931220Y-89568600D03*
X144611220Y-81948600D03*
X167471220Y-89568600D03*
X142071220Y-81948600D03*
X170011220Y-89568600D03*
X139531220Y-81948600D03*
X172551220Y-89568600D03*
D18*
X176130000Y-71040000D03*
X176130000Y-68500000D03*
X178670000Y-71040000D03*
X178670000Y-68500000D03*
X181210000Y-71040000D03*
D19*
X181210000Y-68500000D03*
G04 #@! TA.AperFunction,SMDPad,CuDef*
D10*
G36*
X145399505Y-67101204D02*
G01*
X145423773Y-67104804D01*
X145447572Y-67110765D01*
X145470671Y-67119030D01*
X145492850Y-67129520D01*
X145513893Y-67142132D01*
X145533599Y-67156747D01*
X145551777Y-67173223D01*
X145568253Y-67191401D01*
X145582868Y-67211107D01*
X145595480Y-67232150D01*
X145605970Y-67254329D01*
X145614235Y-67277428D01*
X145620196Y-67301227D01*
X145623796Y-67325495D01*
X145625000Y-67349999D01*
X145625000Y-69200001D01*
X145623796Y-69224505D01*
X145620196Y-69248773D01*
X145614235Y-69272572D01*
X145605970Y-69295671D01*
X145595480Y-69317850D01*
X145582868Y-69338893D01*
X145568253Y-69358599D01*
X145551777Y-69376777D01*
X145533599Y-69393253D01*
X145513893Y-69407868D01*
X145492850Y-69420480D01*
X145470671Y-69430970D01*
X145447572Y-69439235D01*
X145423773Y-69445196D01*
X145399505Y-69448796D01*
X145375001Y-69450000D01*
X144549999Y-69450000D01*
X144525495Y-69448796D01*
X144501227Y-69445196D01*
X144477428Y-69439235D01*
X144454329Y-69430970D01*
X144432150Y-69420480D01*
X144411107Y-69407868D01*
X144391401Y-69393253D01*
X144373223Y-69376777D01*
X144356747Y-69358599D01*
X144342132Y-69338893D01*
X144329520Y-69317850D01*
X144319030Y-69295671D01*
X144310765Y-69272572D01*
X144304804Y-69248773D01*
X144301204Y-69224505D01*
X144300000Y-69200001D01*
X144300000Y-67349999D01*
X144301204Y-67325495D01*
X144304804Y-67301227D01*
X144310765Y-67277428D01*
X144319030Y-67254329D01*
X144329520Y-67232150D01*
X144342132Y-67211107D01*
X144356747Y-67191401D01*
X144373223Y-67173223D01*
X144391401Y-67156747D01*
X144411107Y-67142132D01*
X144432150Y-67129520D01*
X144454329Y-67119030D01*
X144477428Y-67110765D01*
X144501227Y-67104804D01*
X144525495Y-67101204D01*
X144549999Y-67100000D01*
X145375001Y-67100000D01*
X145399505Y-67101204D01*
G37*
G04 #@! TD.AperFunction*
G04 #@! TA.AperFunction,SMDPad,CuDef*
G36*
X142324505Y-67101204D02*
G01*
X142348773Y-67104804D01*
X142372572Y-67110765D01*
X142395671Y-67119030D01*
X142417850Y-67129520D01*
X142438893Y-67142132D01*
X142458599Y-67156747D01*
X142476777Y-67173223D01*
X142493253Y-67191401D01*
X142507868Y-67211107D01*
X142520480Y-67232150D01*
X142530970Y-67254329D01*
X142539235Y-67277428D01*
X142545196Y-67301227D01*
X142548796Y-67325495D01*
X142550000Y-67349999D01*
X142550000Y-69200001D01*
X142548796Y-69224505D01*
X142545196Y-69248773D01*
X142539235Y-69272572D01*
X142530970Y-69295671D01*
X142520480Y-69317850D01*
X142507868Y-69338893D01*
X142493253Y-69358599D01*
X142476777Y-69376777D01*
X142458599Y-69393253D01*
X142438893Y-69407868D01*
X142417850Y-69420480D01*
X142395671Y-69430970D01*
X142372572Y-69439235D01*
X142348773Y-69445196D01*
X142324505Y-69448796D01*
X142300001Y-69450000D01*
X141474999Y-69450000D01*
X141450495Y-69448796D01*
X141426227Y-69445196D01*
X141402428Y-69439235D01*
X141379329Y-69430970D01*
X141357150Y-69420480D01*
X141336107Y-69407868D01*
X141316401Y-69393253D01*
X141298223Y-69376777D01*
X141281747Y-69358599D01*
X141267132Y-69338893D01*
X141254520Y-69317850D01*
X141244030Y-69295671D01*
X141235765Y-69272572D01*
X141229804Y-69248773D01*
X141226204Y-69224505D01*
X141225000Y-69200001D01*
X141225000Y-67349999D01*
X141226204Y-67325495D01*
X141229804Y-67301227D01*
X141235765Y-67277428D01*
X141244030Y-67254329D01*
X141254520Y-67232150D01*
X141267132Y-67211107D01*
X141281747Y-67191401D01*
X141298223Y-67173223D01*
X141316401Y-67156747D01*
X141336107Y-67142132D01*
X141357150Y-67129520D01*
X141379329Y-67119030D01*
X141402428Y-67110765D01*
X141426227Y-67104804D01*
X141450495Y-67101204D01*
X141474999Y-67100000D01*
X142300001Y-67100000D01*
X142324505Y-67101204D01*
G37*
G04 #@! TD.AperFunction*
G04 #@! TA.AperFunction,SMDPad,CuDef*
G36*
X147321505Y-109312204D02*
G01*
X147345773Y-109315804D01*
X147369572Y-109321765D01*
X147392671Y-109330030D01*
X147414850Y-109340520D01*
X147435893Y-109353132D01*
X147455599Y-109367747D01*
X147473777Y-109384223D01*
X147490253Y-109402401D01*
X147504868Y-109422107D01*
X147517480Y-109443150D01*
X147527970Y-109465329D01*
X147536235Y-109488428D01*
X147542196Y-109512227D01*
X147545796Y-109536495D01*
X147547000Y-109560999D01*
X147547000Y-111411001D01*
X147545796Y-111435505D01*
X147542196Y-111459773D01*
X147536235Y-111483572D01*
X147527970Y-111506671D01*
X147517480Y-111528850D01*
X147504868Y-111549893D01*
X147490253Y-111569599D01*
X147473777Y-111587777D01*
X147455599Y-111604253D01*
X147435893Y-111618868D01*
X147414850Y-111631480D01*
X147392671Y-111641970D01*
X147369572Y-111650235D01*
X147345773Y-111656196D01*
X147321505Y-111659796D01*
X147297001Y-111661000D01*
X146471999Y-111661000D01*
X146447495Y-111659796D01*
X146423227Y-111656196D01*
X146399428Y-111650235D01*
X146376329Y-111641970D01*
X146354150Y-111631480D01*
X146333107Y-111618868D01*
X146313401Y-111604253D01*
X146295223Y-111587777D01*
X146278747Y-111569599D01*
X146264132Y-111549893D01*
X146251520Y-111528850D01*
X146241030Y-111506671D01*
X146232765Y-111483572D01*
X146226804Y-111459773D01*
X146223204Y-111435505D01*
X146222000Y-111411001D01*
X146222000Y-109560999D01*
X146223204Y-109536495D01*
X146226804Y-109512227D01*
X146232765Y-109488428D01*
X146241030Y-109465329D01*
X146251520Y-109443150D01*
X146264132Y-109422107D01*
X146278747Y-109402401D01*
X146295223Y-109384223D01*
X146313401Y-109367747D01*
X146333107Y-109353132D01*
X146354150Y-109340520D01*
X146376329Y-109330030D01*
X146399428Y-109321765D01*
X146423227Y-109315804D01*
X146447495Y-109312204D01*
X146471999Y-109311000D01*
X147297001Y-109311000D01*
X147321505Y-109312204D01*
G37*
G04 #@! TD.AperFunction*
G04 #@! TA.AperFunction,SMDPad,CuDef*
G36*
X150396505Y-109312204D02*
G01*
X150420773Y-109315804D01*
X150444572Y-109321765D01*
X150467671Y-109330030D01*
X150489850Y-109340520D01*
X150510893Y-109353132D01*
X150530599Y-109367747D01*
X150548777Y-109384223D01*
X150565253Y-109402401D01*
X150579868Y-109422107D01*
X150592480Y-109443150D01*
X150602970Y-109465329D01*
X150611235Y-109488428D01*
X150617196Y-109512227D01*
X150620796Y-109536495D01*
X150622000Y-109560999D01*
X150622000Y-111411001D01*
X150620796Y-111435505D01*
X150617196Y-111459773D01*
X150611235Y-111483572D01*
X150602970Y-111506671D01*
X150592480Y-111528850D01*
X150579868Y-111549893D01*
X150565253Y-111569599D01*
X150548777Y-111587777D01*
X150530599Y-111604253D01*
X150510893Y-111618868D01*
X150489850Y-111631480D01*
X150467671Y-111641970D01*
X150444572Y-111650235D01*
X150420773Y-111656196D01*
X150396505Y-111659796D01*
X150372001Y-111661000D01*
X149546999Y-111661000D01*
X149522495Y-111659796D01*
X149498227Y-111656196D01*
X149474428Y-111650235D01*
X149451329Y-111641970D01*
X149429150Y-111631480D01*
X149408107Y-111618868D01*
X149388401Y-111604253D01*
X149370223Y-111587777D01*
X149353747Y-111569599D01*
X149339132Y-111549893D01*
X149326520Y-111528850D01*
X149316030Y-111506671D01*
X149307765Y-111483572D01*
X149301804Y-111459773D01*
X149298204Y-111435505D01*
X149297000Y-111411001D01*
X149297000Y-109560999D01*
X149298204Y-109536495D01*
X149301804Y-109512227D01*
X149307765Y-109488428D01*
X149316030Y-109465329D01*
X149326520Y-109443150D01*
X149339132Y-109422107D01*
X149353747Y-109402401D01*
X149370223Y-109384223D01*
X149388401Y-109367747D01*
X149408107Y-109353132D01*
X149429150Y-109340520D01*
X149451329Y-109330030D01*
X149474428Y-109321765D01*
X149498227Y-109315804D01*
X149522495Y-109312204D01*
X149546999Y-109311000D01*
X150372001Y-109311000D01*
X150396505Y-109312204D01*
G37*
G04 #@! TD.AperFunction*
G04 #@! TA.AperFunction,SMDPad,CuDef*
G36*
X176312142Y-99155174D02*
G01*
X176335803Y-99158684D01*
X176359007Y-99164496D01*
X176381529Y-99172554D01*
X176403153Y-99182782D01*
X176423670Y-99195079D01*
X176442883Y-99209329D01*
X176460607Y-99225393D01*
X176476671Y-99243117D01*
X176490921Y-99262330D01*
X176503218Y-99282847D01*
X176513446Y-99304471D01*
X176521504Y-99326993D01*
X176527316Y-99350197D01*
X176530826Y-99373858D01*
X176532000Y-99397750D01*
X176532000Y-100310250D01*
X176530826Y-100334142D01*
X176527316Y-100357803D01*
X176521504Y-100381007D01*
X176513446Y-100403529D01*
X176503218Y-100425153D01*
X176490921Y-100445670D01*
X176476671Y-100464883D01*
X176460607Y-100482607D01*
X176442883Y-100498671D01*
X176423670Y-100512921D01*
X176403153Y-100525218D01*
X176381529Y-100535446D01*
X176359007Y-100543504D01*
X176335803Y-100549316D01*
X176312142Y-100552826D01*
X176288250Y-100554000D01*
X175800750Y-100554000D01*
X175776858Y-100552826D01*
X175753197Y-100549316D01*
X175729993Y-100543504D01*
X175707471Y-100535446D01*
X175685847Y-100525218D01*
X175665330Y-100512921D01*
X175646117Y-100498671D01*
X175628393Y-100482607D01*
X175612329Y-100464883D01*
X175598079Y-100445670D01*
X175585782Y-100425153D01*
X175575554Y-100403529D01*
X175567496Y-100381007D01*
X175561684Y-100357803D01*
X175558174Y-100334142D01*
X175557000Y-100310250D01*
X175557000Y-99397750D01*
X175558174Y-99373858D01*
X175561684Y-99350197D01*
X175567496Y-99326993D01*
X175575554Y-99304471D01*
X175585782Y-99282847D01*
X175598079Y-99262330D01*
X175612329Y-99243117D01*
X175628393Y-99225393D01*
X175646117Y-99209329D01*
X175665330Y-99195079D01*
X175685847Y-99182782D01*
X175707471Y-99172554D01*
X175729993Y-99164496D01*
X175753197Y-99158684D01*
X175776858Y-99155174D01*
X175800750Y-99154000D01*
X176288250Y-99154000D01*
X176312142Y-99155174D01*
G37*
G04 #@! TD.AperFunction*
G04 #@! TA.AperFunction,SMDPad,CuDef*
G36*
X178187142Y-99155174D02*
G01*
X178210803Y-99158684D01*
X178234007Y-99164496D01*
X178256529Y-99172554D01*
X178278153Y-99182782D01*
X178298670Y-99195079D01*
X178317883Y-99209329D01*
X178335607Y-99225393D01*
X178351671Y-99243117D01*
X178365921Y-99262330D01*
X178378218Y-99282847D01*
X178388446Y-99304471D01*
X178396504Y-99326993D01*
X178402316Y-99350197D01*
X178405826Y-99373858D01*
X178407000Y-99397750D01*
X178407000Y-100310250D01*
X178405826Y-100334142D01*
X178402316Y-100357803D01*
X178396504Y-100381007D01*
X178388446Y-100403529D01*
X178378218Y-100425153D01*
X178365921Y-100445670D01*
X178351671Y-100464883D01*
X178335607Y-100482607D01*
X178317883Y-100498671D01*
X178298670Y-100512921D01*
X178278153Y-100525218D01*
X178256529Y-100535446D01*
X178234007Y-100543504D01*
X178210803Y-100549316D01*
X178187142Y-100552826D01*
X178163250Y-100554000D01*
X177675750Y-100554000D01*
X177651858Y-100552826D01*
X177628197Y-100549316D01*
X177604993Y-100543504D01*
X177582471Y-100535446D01*
X177560847Y-100525218D01*
X177540330Y-100512921D01*
X177521117Y-100498671D01*
X177503393Y-100482607D01*
X177487329Y-100464883D01*
X177473079Y-100445670D01*
X177460782Y-100425153D01*
X177450554Y-100403529D01*
X177442496Y-100381007D01*
X177436684Y-100357803D01*
X177433174Y-100334142D01*
X177432000Y-100310250D01*
X177432000Y-99397750D01*
X177433174Y-99373858D01*
X177436684Y-99350197D01*
X177442496Y-99326993D01*
X177450554Y-99304471D01*
X177460782Y-99282847D01*
X177473079Y-99262330D01*
X177487329Y-99243117D01*
X177503393Y-99225393D01*
X177521117Y-99209329D01*
X177540330Y-99195079D01*
X177560847Y-99182782D01*
X177582471Y-99172554D01*
X177604993Y-99164496D01*
X177628197Y-99158684D01*
X177651858Y-99155174D01*
X177675750Y-99154000D01*
X178163250Y-99154000D01*
X178187142Y-99155174D01*
G37*
G04 #@! TD.AperFunction*
G04 #@! TA.AperFunction,SMDPad,CuDef*
G36*
X168757691Y-105143553D02*
G01*
X168778926Y-105146703D01*
X168799750Y-105151919D01*
X168819962Y-105159151D01*
X168839368Y-105168330D01*
X168857781Y-105179366D01*
X168875024Y-105192154D01*
X168890930Y-105206570D01*
X168905346Y-105222476D01*
X168918134Y-105239719D01*
X168929170Y-105258132D01*
X168938349Y-105277538D01*
X168945581Y-105297750D01*
X168950797Y-105318574D01*
X168953947Y-105339809D01*
X168955000Y-105361250D01*
X168955000Y-105798750D01*
X168953947Y-105820191D01*
X168950797Y-105841426D01*
X168945581Y-105862250D01*
X168938349Y-105882462D01*
X168929170Y-105901868D01*
X168918134Y-105920281D01*
X168905346Y-105937524D01*
X168890930Y-105953430D01*
X168875024Y-105967846D01*
X168857781Y-105980634D01*
X168839368Y-105991670D01*
X168819962Y-106000849D01*
X168799750Y-106008081D01*
X168778926Y-106013297D01*
X168757691Y-106016447D01*
X168736250Y-106017500D01*
X168223750Y-106017500D01*
X168202309Y-106016447D01*
X168181074Y-106013297D01*
X168160250Y-106008081D01*
X168140038Y-106000849D01*
X168120632Y-105991670D01*
X168102219Y-105980634D01*
X168084976Y-105967846D01*
X168069070Y-105953430D01*
X168054654Y-105937524D01*
X168041866Y-105920281D01*
X168030830Y-105901868D01*
X168021651Y-105882462D01*
X168014419Y-105862250D01*
X168009203Y-105841426D01*
X168006053Y-105820191D01*
X168005000Y-105798750D01*
X168005000Y-105361250D01*
X168006053Y-105339809D01*
X168009203Y-105318574D01*
X168014419Y-105297750D01*
X168021651Y-105277538D01*
X168030830Y-105258132D01*
X168041866Y-105239719D01*
X168054654Y-105222476D01*
X168069070Y-105206570D01*
X168084976Y-105192154D01*
X168102219Y-105179366D01*
X168120632Y-105168330D01*
X168140038Y-105159151D01*
X168160250Y-105151919D01*
X168181074Y-105146703D01*
X168202309Y-105143553D01*
X168223750Y-105142500D01*
X168736250Y-105142500D01*
X168757691Y-105143553D01*
G37*
G04 #@! TD.AperFunction*
G04 #@! TA.AperFunction,SMDPad,CuDef*
G36*
X168757691Y-106718553D02*
G01*
X168778926Y-106721703D01*
X168799750Y-106726919D01*
X168819962Y-106734151D01*
X168839368Y-106743330D01*
X168857781Y-106754366D01*
X168875024Y-106767154D01*
X168890930Y-106781570D01*
X168905346Y-106797476D01*
X168918134Y-106814719D01*
X168929170Y-106833132D01*
X168938349Y-106852538D01*
X168945581Y-106872750D01*
X168950797Y-106893574D01*
X168953947Y-106914809D01*
X168955000Y-106936250D01*
X168955000Y-107373750D01*
X168953947Y-107395191D01*
X168950797Y-107416426D01*
X168945581Y-107437250D01*
X168938349Y-107457462D01*
X168929170Y-107476868D01*
X168918134Y-107495281D01*
X168905346Y-107512524D01*
X168890930Y-107528430D01*
X168875024Y-107542846D01*
X168857781Y-107555634D01*
X168839368Y-107566670D01*
X168819962Y-107575849D01*
X168799750Y-107583081D01*
X168778926Y-107588297D01*
X168757691Y-107591447D01*
X168736250Y-107592500D01*
X168223750Y-107592500D01*
X168202309Y-107591447D01*
X168181074Y-107588297D01*
X168160250Y-107583081D01*
X168140038Y-107575849D01*
X168120632Y-107566670D01*
X168102219Y-107555634D01*
X168084976Y-107542846D01*
X168069070Y-107528430D01*
X168054654Y-107512524D01*
X168041866Y-107495281D01*
X168030830Y-107476868D01*
X168021651Y-107457462D01*
X168014419Y-107437250D01*
X168009203Y-107416426D01*
X168006053Y-107395191D01*
X168005000Y-107373750D01*
X168005000Y-106936250D01*
X168006053Y-106914809D01*
X168009203Y-106893574D01*
X168014419Y-106872750D01*
X168021651Y-106852538D01*
X168030830Y-106833132D01*
X168041866Y-106814719D01*
X168054654Y-106797476D01*
X168069070Y-106781570D01*
X168084976Y-106767154D01*
X168102219Y-106754366D01*
X168120632Y-106743330D01*
X168140038Y-106734151D01*
X168160250Y-106726919D01*
X168181074Y-106721703D01*
X168202309Y-106718553D01*
X168223750Y-106717500D01*
X168736250Y-106717500D01*
X168757691Y-106718553D01*
G37*
G04 #@! TD.AperFunction*
D20*
X156875000Y-97150000D03*
X157675000Y-97150000D03*
X158475000Y-97150000D03*
X159275000Y-97150000D03*
X160075000Y-97150000D03*
X160875000Y-97150000D03*
X161675000Y-97150000D03*
X162475000Y-97150000D03*
X163275000Y-97150000D03*
X164075000Y-97150000D03*
X164875000Y-97150000D03*
D21*
X166575000Y-98850000D03*
X166575000Y-99650000D03*
X166575000Y-100450000D03*
X166575000Y-101250000D03*
X166575000Y-102050000D03*
X166575000Y-102850000D03*
X166575000Y-103650000D03*
X166575000Y-104450000D03*
X166575000Y-105250000D03*
X166575000Y-106050000D03*
X166575000Y-106850000D03*
D20*
X164875000Y-108550000D03*
X164075000Y-108550000D03*
X163275000Y-108550000D03*
X162475000Y-108550000D03*
X161675000Y-108550000D03*
X160875000Y-108550000D03*
X160075000Y-108550000D03*
X159275000Y-108550000D03*
X158475000Y-108550000D03*
X157675000Y-108550000D03*
X156875000Y-108550000D03*
D21*
X155175000Y-106850000D03*
X155175000Y-106050000D03*
X155175000Y-105250000D03*
X155175000Y-104450000D03*
X155175000Y-103650000D03*
X155175000Y-102850000D03*
X155175000Y-102050000D03*
X155175000Y-101250000D03*
X155175000Y-100450000D03*
X155175000Y-99650000D03*
X155175000Y-98850000D03*
D22*
X180210000Y-113340000D03*
X180210000Y-117840000D03*
X173710000Y-113340000D03*
X173710000Y-117840000D03*
G04 #@! TA.AperFunction,SMDPad,CuDef*
D10*
G36*
X177280142Y-73788674D02*
G01*
X177303803Y-73792184D01*
X177327007Y-73797996D01*
X177349529Y-73806054D01*
X177371153Y-73816282D01*
X177391670Y-73828579D01*
X177410883Y-73842829D01*
X177428607Y-73858893D01*
X177444671Y-73876617D01*
X177458921Y-73895830D01*
X177471218Y-73916347D01*
X177481446Y-73937971D01*
X177489504Y-73960493D01*
X177495316Y-73983697D01*
X177498826Y-74007358D01*
X177500000Y-74031250D01*
X177500000Y-74518750D01*
X177498826Y-74542642D01*
X177495316Y-74566303D01*
X177489504Y-74589507D01*
X177481446Y-74612029D01*
X177471218Y-74633653D01*
X177458921Y-74654170D01*
X177444671Y-74673383D01*
X177428607Y-74691107D01*
X177410883Y-74707171D01*
X177391670Y-74721421D01*
X177371153Y-74733718D01*
X177349529Y-74743946D01*
X177327007Y-74752004D01*
X177303803Y-74757816D01*
X177280142Y-74761326D01*
X177256250Y-74762500D01*
X176343750Y-74762500D01*
X176319858Y-74761326D01*
X176296197Y-74757816D01*
X176272993Y-74752004D01*
X176250471Y-74743946D01*
X176228847Y-74733718D01*
X176208330Y-74721421D01*
X176189117Y-74707171D01*
X176171393Y-74691107D01*
X176155329Y-74673383D01*
X176141079Y-74654170D01*
X176128782Y-74633653D01*
X176118554Y-74612029D01*
X176110496Y-74589507D01*
X176104684Y-74566303D01*
X176101174Y-74542642D01*
X176100000Y-74518750D01*
X176100000Y-74031250D01*
X176101174Y-74007358D01*
X176104684Y-73983697D01*
X176110496Y-73960493D01*
X176118554Y-73937971D01*
X176128782Y-73916347D01*
X176141079Y-73895830D01*
X176155329Y-73876617D01*
X176171393Y-73858893D01*
X176189117Y-73842829D01*
X176208330Y-73828579D01*
X176228847Y-73816282D01*
X176250471Y-73806054D01*
X176272993Y-73797996D01*
X176296197Y-73792184D01*
X176319858Y-73788674D01*
X176343750Y-73787500D01*
X177256250Y-73787500D01*
X177280142Y-73788674D01*
G37*
G04 #@! TD.AperFunction*
G04 #@! TA.AperFunction,SMDPad,CuDef*
G36*
X177280142Y-75663674D02*
G01*
X177303803Y-75667184D01*
X177327007Y-75672996D01*
X177349529Y-75681054D01*
X177371153Y-75691282D01*
X177391670Y-75703579D01*
X177410883Y-75717829D01*
X177428607Y-75733893D01*
X177444671Y-75751617D01*
X177458921Y-75770830D01*
X177471218Y-75791347D01*
X177481446Y-75812971D01*
X177489504Y-75835493D01*
X177495316Y-75858697D01*
X177498826Y-75882358D01*
X177500000Y-75906250D01*
X177500000Y-76393750D01*
X177498826Y-76417642D01*
X177495316Y-76441303D01*
X177489504Y-76464507D01*
X177481446Y-76487029D01*
X177471218Y-76508653D01*
X177458921Y-76529170D01*
X177444671Y-76548383D01*
X177428607Y-76566107D01*
X177410883Y-76582171D01*
X177391670Y-76596421D01*
X177371153Y-76608718D01*
X177349529Y-76618946D01*
X177327007Y-76627004D01*
X177303803Y-76632816D01*
X177280142Y-76636326D01*
X177256250Y-76637500D01*
X176343750Y-76637500D01*
X176319858Y-76636326D01*
X176296197Y-76632816D01*
X176272993Y-76627004D01*
X176250471Y-76618946D01*
X176228847Y-76608718D01*
X176208330Y-76596421D01*
X176189117Y-76582171D01*
X176171393Y-76566107D01*
X176155329Y-76548383D01*
X176141079Y-76529170D01*
X176128782Y-76508653D01*
X176118554Y-76487029D01*
X176110496Y-76464507D01*
X176104684Y-76441303D01*
X176101174Y-76417642D01*
X176100000Y-76393750D01*
X176100000Y-75906250D01*
X176101174Y-75882358D01*
X176104684Y-75858697D01*
X176110496Y-75835493D01*
X176118554Y-75812971D01*
X176128782Y-75791347D01*
X176141079Y-75770830D01*
X176155329Y-75751617D01*
X176171393Y-75733893D01*
X176189117Y-75717829D01*
X176208330Y-75703579D01*
X176228847Y-75691282D01*
X176250471Y-75681054D01*
X176272993Y-75672996D01*
X176296197Y-75667184D01*
X176319858Y-75663674D01*
X176343750Y-75662500D01*
X177256250Y-75662500D01*
X177280142Y-75663674D01*
G37*
G04 #@! TD.AperFunction*
G04 #@! TA.AperFunction,SMDPad,CuDef*
G36*
X182146142Y-99181174D02*
G01*
X182169803Y-99184684D01*
X182193007Y-99190496D01*
X182215529Y-99198554D01*
X182237153Y-99208782D01*
X182257670Y-99221079D01*
X182276883Y-99235329D01*
X182294607Y-99251393D01*
X182310671Y-99269117D01*
X182324921Y-99288330D01*
X182337218Y-99308847D01*
X182347446Y-99330471D01*
X182355504Y-99352993D01*
X182361316Y-99376197D01*
X182364826Y-99399858D01*
X182366000Y-99423750D01*
X182366000Y-100336250D01*
X182364826Y-100360142D01*
X182361316Y-100383803D01*
X182355504Y-100407007D01*
X182347446Y-100429529D01*
X182337218Y-100451153D01*
X182324921Y-100471670D01*
X182310671Y-100490883D01*
X182294607Y-100508607D01*
X182276883Y-100524671D01*
X182257670Y-100538921D01*
X182237153Y-100551218D01*
X182215529Y-100561446D01*
X182193007Y-100569504D01*
X182169803Y-100575316D01*
X182146142Y-100578826D01*
X182122250Y-100580000D01*
X181634750Y-100580000D01*
X181610858Y-100578826D01*
X181587197Y-100575316D01*
X181563993Y-100569504D01*
X181541471Y-100561446D01*
X181519847Y-100551218D01*
X181499330Y-100538921D01*
X181480117Y-100524671D01*
X181462393Y-100508607D01*
X181446329Y-100490883D01*
X181432079Y-100471670D01*
X181419782Y-100451153D01*
X181409554Y-100429529D01*
X181401496Y-100407007D01*
X181395684Y-100383803D01*
X181392174Y-100360142D01*
X181391000Y-100336250D01*
X181391000Y-99423750D01*
X181392174Y-99399858D01*
X181395684Y-99376197D01*
X181401496Y-99352993D01*
X181409554Y-99330471D01*
X181419782Y-99308847D01*
X181432079Y-99288330D01*
X181446329Y-99269117D01*
X181462393Y-99251393D01*
X181480117Y-99235329D01*
X181499330Y-99221079D01*
X181519847Y-99208782D01*
X181541471Y-99198554D01*
X181563993Y-99190496D01*
X181587197Y-99184684D01*
X181610858Y-99181174D01*
X181634750Y-99180000D01*
X182122250Y-99180000D01*
X182146142Y-99181174D01*
G37*
G04 #@! TD.AperFunction*
G04 #@! TA.AperFunction,SMDPad,CuDef*
G36*
X180271142Y-99181174D02*
G01*
X180294803Y-99184684D01*
X180318007Y-99190496D01*
X180340529Y-99198554D01*
X180362153Y-99208782D01*
X180382670Y-99221079D01*
X180401883Y-99235329D01*
X180419607Y-99251393D01*
X180435671Y-99269117D01*
X180449921Y-99288330D01*
X180462218Y-99308847D01*
X180472446Y-99330471D01*
X180480504Y-99352993D01*
X180486316Y-99376197D01*
X180489826Y-99399858D01*
X180491000Y-99423750D01*
X180491000Y-100336250D01*
X180489826Y-100360142D01*
X180486316Y-100383803D01*
X180480504Y-100407007D01*
X180472446Y-100429529D01*
X180462218Y-100451153D01*
X180449921Y-100471670D01*
X180435671Y-100490883D01*
X180419607Y-100508607D01*
X180401883Y-100524671D01*
X180382670Y-100538921D01*
X180362153Y-100551218D01*
X180340529Y-100561446D01*
X180318007Y-100569504D01*
X180294803Y-100575316D01*
X180271142Y-100578826D01*
X180247250Y-100580000D01*
X179759750Y-100580000D01*
X179735858Y-100578826D01*
X179712197Y-100575316D01*
X179688993Y-100569504D01*
X179666471Y-100561446D01*
X179644847Y-100551218D01*
X179624330Y-100538921D01*
X179605117Y-100524671D01*
X179587393Y-100508607D01*
X179571329Y-100490883D01*
X179557079Y-100471670D01*
X179544782Y-100451153D01*
X179534554Y-100429529D01*
X179526496Y-100407007D01*
X179520684Y-100383803D01*
X179517174Y-100360142D01*
X179516000Y-100336250D01*
X179516000Y-99423750D01*
X179517174Y-99399858D01*
X179520684Y-99376197D01*
X179526496Y-99352993D01*
X179534554Y-99330471D01*
X179544782Y-99308847D01*
X179557079Y-99288330D01*
X179571329Y-99269117D01*
X179587393Y-99251393D01*
X179605117Y-99235329D01*
X179624330Y-99221079D01*
X179644847Y-99208782D01*
X179666471Y-99198554D01*
X179688993Y-99190496D01*
X179712197Y-99184684D01*
X179735858Y-99181174D01*
X179759750Y-99180000D01*
X180247250Y-99180000D01*
X180271142Y-99181174D01*
G37*
G04 #@! TD.AperFunction*
G04 #@! TA.AperFunction,SMDPad,CuDef*
G36*
X172346142Y-99155174D02*
G01*
X172369803Y-99158684D01*
X172393007Y-99164496D01*
X172415529Y-99172554D01*
X172437153Y-99182782D01*
X172457670Y-99195079D01*
X172476883Y-99209329D01*
X172494607Y-99225393D01*
X172510671Y-99243117D01*
X172524921Y-99262330D01*
X172537218Y-99282847D01*
X172547446Y-99304471D01*
X172555504Y-99326993D01*
X172561316Y-99350197D01*
X172564826Y-99373858D01*
X172566000Y-99397750D01*
X172566000Y-100310250D01*
X172564826Y-100334142D01*
X172561316Y-100357803D01*
X172555504Y-100381007D01*
X172547446Y-100403529D01*
X172537218Y-100425153D01*
X172524921Y-100445670D01*
X172510671Y-100464883D01*
X172494607Y-100482607D01*
X172476883Y-100498671D01*
X172457670Y-100512921D01*
X172437153Y-100525218D01*
X172415529Y-100535446D01*
X172393007Y-100543504D01*
X172369803Y-100549316D01*
X172346142Y-100552826D01*
X172322250Y-100554000D01*
X171834750Y-100554000D01*
X171810858Y-100552826D01*
X171787197Y-100549316D01*
X171763993Y-100543504D01*
X171741471Y-100535446D01*
X171719847Y-100525218D01*
X171699330Y-100512921D01*
X171680117Y-100498671D01*
X171662393Y-100482607D01*
X171646329Y-100464883D01*
X171632079Y-100445670D01*
X171619782Y-100425153D01*
X171609554Y-100403529D01*
X171601496Y-100381007D01*
X171595684Y-100357803D01*
X171592174Y-100334142D01*
X171591000Y-100310250D01*
X171591000Y-99397750D01*
X171592174Y-99373858D01*
X171595684Y-99350197D01*
X171601496Y-99326993D01*
X171609554Y-99304471D01*
X171619782Y-99282847D01*
X171632079Y-99262330D01*
X171646329Y-99243117D01*
X171662393Y-99225393D01*
X171680117Y-99209329D01*
X171699330Y-99195079D01*
X171719847Y-99182782D01*
X171741471Y-99172554D01*
X171763993Y-99164496D01*
X171787197Y-99158684D01*
X171810858Y-99155174D01*
X171834750Y-99154000D01*
X172322250Y-99154000D01*
X172346142Y-99155174D01*
G37*
G04 #@! TD.AperFunction*
G04 #@! TA.AperFunction,SMDPad,CuDef*
G36*
X174221142Y-99155174D02*
G01*
X174244803Y-99158684D01*
X174268007Y-99164496D01*
X174290529Y-99172554D01*
X174312153Y-99182782D01*
X174332670Y-99195079D01*
X174351883Y-99209329D01*
X174369607Y-99225393D01*
X174385671Y-99243117D01*
X174399921Y-99262330D01*
X174412218Y-99282847D01*
X174422446Y-99304471D01*
X174430504Y-99326993D01*
X174436316Y-99350197D01*
X174439826Y-99373858D01*
X174441000Y-99397750D01*
X174441000Y-100310250D01*
X174439826Y-100334142D01*
X174436316Y-100357803D01*
X174430504Y-100381007D01*
X174422446Y-100403529D01*
X174412218Y-100425153D01*
X174399921Y-100445670D01*
X174385671Y-100464883D01*
X174369607Y-100482607D01*
X174351883Y-100498671D01*
X174332670Y-100512921D01*
X174312153Y-100525218D01*
X174290529Y-100535446D01*
X174268007Y-100543504D01*
X174244803Y-100549316D01*
X174221142Y-100552826D01*
X174197250Y-100554000D01*
X173709750Y-100554000D01*
X173685858Y-100552826D01*
X173662197Y-100549316D01*
X173638993Y-100543504D01*
X173616471Y-100535446D01*
X173594847Y-100525218D01*
X173574330Y-100512921D01*
X173555117Y-100498671D01*
X173537393Y-100482607D01*
X173521329Y-100464883D01*
X173507079Y-100445670D01*
X173494782Y-100425153D01*
X173484554Y-100403529D01*
X173476496Y-100381007D01*
X173470684Y-100357803D01*
X173467174Y-100334142D01*
X173466000Y-100310250D01*
X173466000Y-99397750D01*
X173467174Y-99373858D01*
X173470684Y-99350197D01*
X173476496Y-99326993D01*
X173484554Y-99304471D01*
X173494782Y-99282847D01*
X173507079Y-99262330D01*
X173521329Y-99243117D01*
X173537393Y-99225393D01*
X173555117Y-99209329D01*
X173574330Y-99195079D01*
X173594847Y-99182782D01*
X173616471Y-99172554D01*
X173638993Y-99164496D01*
X173662197Y-99158684D01*
X173685858Y-99155174D01*
X173709750Y-99154000D01*
X174197250Y-99154000D01*
X174221142Y-99155174D01*
G37*
G04 #@! TD.AperFunction*
D18*
X153850000Y-71040000D03*
X153850000Y-68500000D03*
X156390000Y-71040000D03*
X156390000Y-68500000D03*
X158930000Y-71040000D03*
D19*
X158930000Y-68500000D03*
X170070000Y-68500000D03*
D18*
X170070000Y-71040000D03*
X167530000Y-68500000D03*
X167530000Y-71040000D03*
X164990000Y-68500000D03*
X164990000Y-71040000D03*
X133650000Y-71050000D03*
X133650000Y-68510000D03*
X136190000Y-71050000D03*
X136190000Y-68510000D03*
X138730000Y-71050000D03*
D19*
X138730000Y-68510000D03*
G04 #@! TA.AperFunction,SMDPad,CuDef*
D10*
G36*
X142919504Y-94226204D02*
G01*
X142943773Y-94229804D01*
X142967571Y-94235765D01*
X142990671Y-94244030D01*
X143012849Y-94254520D01*
X143033893Y-94267133D01*
X143053598Y-94281747D01*
X143071777Y-94298223D01*
X143088253Y-94316402D01*
X143102867Y-94336107D01*
X143115480Y-94357151D01*
X143125970Y-94379329D01*
X143134235Y-94402429D01*
X143140196Y-94426227D01*
X143143796Y-94450496D01*
X143145000Y-94475000D01*
X143145000Y-95725000D01*
X143143796Y-95749504D01*
X143140196Y-95773773D01*
X143134235Y-95797571D01*
X143125970Y-95820671D01*
X143115480Y-95842849D01*
X143102867Y-95863893D01*
X143088253Y-95883598D01*
X143071777Y-95901777D01*
X143053598Y-95918253D01*
X143033893Y-95932867D01*
X143012849Y-95945480D01*
X142990671Y-95955970D01*
X142967571Y-95964235D01*
X142943773Y-95970196D01*
X142919504Y-95973796D01*
X142895000Y-95975000D01*
X142145000Y-95975000D01*
X142120496Y-95973796D01*
X142096227Y-95970196D01*
X142072429Y-95964235D01*
X142049329Y-95955970D01*
X142027151Y-95945480D01*
X142006107Y-95932867D01*
X141986402Y-95918253D01*
X141968223Y-95901777D01*
X141951747Y-95883598D01*
X141937133Y-95863893D01*
X141924520Y-95842849D01*
X141914030Y-95820671D01*
X141905765Y-95797571D01*
X141899804Y-95773773D01*
X141896204Y-95749504D01*
X141895000Y-95725000D01*
X141895000Y-94475000D01*
X141896204Y-94450496D01*
X141899804Y-94426227D01*
X141905765Y-94402429D01*
X141914030Y-94379329D01*
X141924520Y-94357151D01*
X141937133Y-94336107D01*
X141951747Y-94316402D01*
X141968223Y-94298223D01*
X141986402Y-94281747D01*
X142006107Y-94267133D01*
X142027151Y-94254520D01*
X142049329Y-94244030D01*
X142072429Y-94235765D01*
X142096227Y-94229804D01*
X142120496Y-94226204D01*
X142145000Y-94225000D01*
X142895000Y-94225000D01*
X142919504Y-94226204D01*
G37*
G04 #@! TD.AperFunction*
G04 #@! TA.AperFunction,SMDPad,CuDef*
G36*
X140119504Y-94226204D02*
G01*
X140143773Y-94229804D01*
X140167571Y-94235765D01*
X140190671Y-94244030D01*
X140212849Y-94254520D01*
X140233893Y-94267133D01*
X140253598Y-94281747D01*
X140271777Y-94298223D01*
X140288253Y-94316402D01*
X140302867Y-94336107D01*
X140315480Y-94357151D01*
X140325970Y-94379329D01*
X140334235Y-94402429D01*
X140340196Y-94426227D01*
X140343796Y-94450496D01*
X140345000Y-94475000D01*
X140345000Y-95725000D01*
X140343796Y-95749504D01*
X140340196Y-95773773D01*
X140334235Y-95797571D01*
X140325970Y-95820671D01*
X140315480Y-95842849D01*
X140302867Y-95863893D01*
X140288253Y-95883598D01*
X140271777Y-95901777D01*
X140253598Y-95918253D01*
X140233893Y-95932867D01*
X140212849Y-95945480D01*
X140190671Y-95955970D01*
X140167571Y-95964235D01*
X140143773Y-95970196D01*
X140119504Y-95973796D01*
X140095000Y-95975000D01*
X139345000Y-95975000D01*
X139320496Y-95973796D01*
X139296227Y-95970196D01*
X139272429Y-95964235D01*
X139249329Y-95955970D01*
X139227151Y-95945480D01*
X139206107Y-95932867D01*
X139186402Y-95918253D01*
X139168223Y-95901777D01*
X139151747Y-95883598D01*
X139137133Y-95863893D01*
X139124520Y-95842849D01*
X139114030Y-95820671D01*
X139105765Y-95797571D01*
X139099804Y-95773773D01*
X139096204Y-95749504D01*
X139095000Y-95725000D01*
X139095000Y-94475000D01*
X139096204Y-94450496D01*
X139099804Y-94426227D01*
X139105765Y-94402429D01*
X139114030Y-94379329D01*
X139124520Y-94357151D01*
X139137133Y-94336107D01*
X139151747Y-94316402D01*
X139168223Y-94298223D01*
X139186402Y-94281747D01*
X139206107Y-94267133D01*
X139227151Y-94254520D01*
X139249329Y-94244030D01*
X139272429Y-94235765D01*
X139296227Y-94229804D01*
X139320496Y-94226204D01*
X139345000Y-94225000D01*
X140095000Y-94225000D01*
X140119504Y-94226204D01*
G37*
G04 #@! TD.AperFunction*
G04 #@! TA.AperFunction,SMDPad,CuDef*
G36*
X163408097Y-113687488D02*
G01*
X162559569Y-114536016D01*
X161569619Y-113546066D01*
X162418147Y-112697538D01*
X163408097Y-113687488D01*
G37*
G04 #@! TD.AperFunction*
G04 #@! TA.AperFunction,SMDPad,CuDef*
G36*
X161852462Y-112131853D02*
G01*
X161003934Y-112980381D01*
X160013984Y-111990431D01*
X160862512Y-111141903D01*
X161852462Y-112131853D01*
G37*
G04 #@! TD.AperFunction*
G04 #@! TA.AperFunction,SMDPad,CuDef*
G36*
X160650381Y-113333934D02*
G01*
X159801853Y-114182462D01*
X158811903Y-113192512D01*
X159660431Y-112343984D01*
X160650381Y-113333934D01*
G37*
G04 #@! TD.AperFunction*
G04 #@! TA.AperFunction,SMDPad,CuDef*
G36*
X162206016Y-114889569D02*
G01*
X161357488Y-115738097D01*
X160367538Y-114748147D01*
X161216066Y-113899619D01*
X162206016Y-114889569D01*
G37*
G04 #@! TD.AperFunction*
D23*
X149290000Y-103700000D03*
X149680000Y-104720000D03*
X145980000Y-106850000D03*
X159290000Y-106910000D03*
X158240000Y-94900000D03*
X164110000Y-98470000D03*
X165140000Y-106840000D03*
X158640000Y-117530000D03*
X156640000Y-102030000D03*
X137650000Y-107050000D03*
X137400000Y-97950000D03*
X141850000Y-106125000D03*
X145350000Y-110450000D03*
X156225000Y-111825000D03*
X160150000Y-110850000D03*
X164125002Y-110275000D03*
X168500000Y-108325000D03*
X162225000Y-115725000D03*
X173975000Y-98525002D03*
X177925000Y-98425000D03*
X181950000Y-98675000D03*
X162400000Y-94950000D03*
X168150000Y-95000000D03*
X143475000Y-96400000D03*
X145475000Y-96525000D03*
X157680000Y-98482490D03*
X139750000Y-100450000D03*
X146800000Y-68325000D03*
X147975000Y-70525000D03*
X149850000Y-71650000D03*
X153625000Y-76925000D03*
X150325000Y-76700000D03*
X176475000Y-77925000D03*
X155000000Y-108850000D03*
X152525000Y-110175000D03*
X153750000Y-107500000D03*
X170050000Y-101100000D03*
X142050000Y-65387020D03*
X143825000Y-72900000D03*
X154475000Y-110750000D03*
D24*
X150860000Y-102130000D02*
X149290000Y-103700000D01*
X150860000Y-102100000D02*
X150860000Y-102130000D01*
X150190000Y-104210000D02*
X149680000Y-104720000D01*
X150860000Y-104210000D02*
X150190000Y-104210000D01*
X145994000Y-106836000D02*
X145980000Y-106850000D01*
X147447000Y-106836000D02*
X145994000Y-106836000D01*
X159275000Y-106925000D02*
X159290000Y-106910000D01*
X159275000Y-108550000D02*
X159275000Y-106925000D01*
X158210000Y-94930000D02*
X158240000Y-94900000D01*
X157030000Y-94930000D02*
X158210000Y-94930000D01*
X164075000Y-98435000D02*
X164110000Y-98470000D01*
X164075000Y-97150000D02*
X164075000Y-98435000D01*
X165150000Y-106850000D02*
X165140000Y-106840000D01*
X166575000Y-106850000D02*
X165150000Y-106850000D01*
X159664174Y-116505826D02*
X158640000Y-117530000D01*
X159805826Y-116505826D02*
X159664174Y-116505826D01*
X156620000Y-102050000D02*
X156640000Y-102030000D01*
X155175000Y-102050000D02*
X156620000Y-102050000D01*
X137645000Y-105645000D02*
X137650000Y-105650000D01*
X137650000Y-105650000D02*
X137650000Y-107050000D01*
X136525000Y-105645000D02*
X137645000Y-105645000D01*
X137400000Y-98875000D02*
X137400000Y-97950000D01*
X137080000Y-99195000D02*
X137400000Y-98875000D01*
X136525000Y-99195000D02*
X137080000Y-99195000D01*
X140360000Y-106130000D02*
X141845000Y-106130000D01*
X141845000Y-106130000D02*
X141850000Y-106125000D01*
X145386000Y-110486000D02*
X145350000Y-110450000D01*
X146884500Y-110486000D02*
X145386000Y-110486000D01*
X156222500Y-111822500D02*
X156225000Y-111825000D01*
X156222500Y-110780000D02*
X156222500Y-111822500D01*
X160933223Y-112061142D02*
X160150000Y-111277919D01*
X160150000Y-111277919D02*
X160150000Y-110850000D01*
X163134174Y-111154174D02*
X164013348Y-110275000D01*
X164013348Y-110275000D02*
X164125002Y-110275000D01*
X168480000Y-108305000D02*
X168500000Y-108325000D01*
X168480000Y-107155000D02*
X168480000Y-108305000D01*
X162192919Y-115725000D02*
X162225000Y-115725000D01*
X161286777Y-114818858D02*
X162192919Y-115725000D01*
X173953500Y-99854000D02*
X173953500Y-98546502D01*
X173953500Y-98546502D02*
X173975000Y-98525002D01*
X177919500Y-99854000D02*
X177919500Y-98430500D01*
X177919500Y-98430500D02*
X177925000Y-98425000D01*
X181878500Y-99880000D02*
X181878500Y-98746500D01*
X181878500Y-98746500D02*
X181950000Y-98675000D01*
X163595000Y-94930000D02*
X162420000Y-94930000D01*
X162420000Y-94930000D02*
X162400000Y-94950000D01*
X169362500Y-94930000D02*
X168220000Y-94930000D01*
X168220000Y-94930000D02*
X168150000Y-95000000D01*
X142680000Y-97432500D02*
X143475000Y-96637500D01*
X143475000Y-96637500D02*
X143475000Y-96400000D01*
X145475000Y-96557500D02*
X145475000Y-96525000D01*
X144600000Y-97432500D02*
X145475000Y-96557500D01*
X157675000Y-97150000D02*
X157675000Y-98477490D01*
X157675000Y-98477490D02*
X157680000Y-98482490D01*
X140460000Y-99795000D02*
X139805000Y-100450000D01*
X140460000Y-99307500D02*
X140460000Y-99795000D01*
X139805000Y-100450000D02*
X139750000Y-100450000D01*
X146750000Y-68275000D02*
X146800000Y-68325000D01*
X144962500Y-68275000D02*
X146750000Y-68275000D01*
D25*
X146912913Y-71587087D02*
X147975000Y-70525000D01*
X146887913Y-71587087D02*
X146912913Y-71587087D01*
X148802081Y-72697919D02*
X149850000Y-71650000D01*
X148802081Y-72747919D02*
X148802081Y-72697919D01*
X152400000Y-75700000D02*
X153625000Y-76925000D01*
X149155635Y-75530635D02*
X150325000Y-76700000D01*
X149155635Y-75505635D02*
X149155635Y-75530635D01*
D24*
X176800000Y-77600000D02*
X176475000Y-77925000D01*
X176800000Y-76150000D02*
X176800000Y-77600000D01*
D25*
X147151220Y-91149600D02*
X147151220Y-89568600D01*
X181210000Y-68500000D02*
X182441000Y-68500000D01*
X147595741Y-91594121D02*
X147151220Y-91149600D01*
X182750000Y-82143436D02*
X173299315Y-91594121D01*
X182441000Y-68500000D02*
X182750000Y-68809000D01*
X173299315Y-91594121D02*
X147595741Y-91594121D01*
X182750000Y-68809000D02*
X182750000Y-82143436D01*
X176985000Y-97419756D02*
X176985000Y-95630000D01*
X175239490Y-99165266D02*
X176985000Y-97419756D01*
X176985000Y-95630000D02*
X176985000Y-94930000D01*
X175239490Y-100061754D02*
X175239490Y-99165266D01*
X173251244Y-102050000D02*
X175239490Y-100061754D01*
X166575000Y-102050000D02*
X173251244Y-102050000D01*
X179198490Y-100876510D02*
X179198490Y-98183074D01*
X179198490Y-98183074D02*
X179827359Y-97554205D01*
X173580527Y-94444473D02*
X173095000Y-94930000D01*
X174345478Y-93679522D02*
X173580527Y-94444473D01*
X166575000Y-102850000D02*
X177225000Y-102850000D01*
X179827359Y-97554205D02*
X179827359Y-94403615D01*
X177225000Y-102850000D02*
X179198490Y-100876510D01*
X179103266Y-93679522D02*
X174345478Y-93679522D01*
X179827359Y-94403615D02*
X179103266Y-93679522D01*
X179646511Y-93171511D02*
X180705000Y-94230000D01*
X167075000Y-94375000D02*
X168278489Y-93171511D01*
X164421502Y-99200000D02*
X167075000Y-96546502D01*
X180705000Y-94230000D02*
X180705000Y-94930000D01*
X168278489Y-93171511D02*
X179646511Y-93171511D01*
X156656000Y-99200000D02*
X164421502Y-99200000D01*
X167075000Y-96546502D02*
X167075000Y-94375000D01*
X156306000Y-98850000D02*
X156656000Y-99200000D01*
X155175000Y-98850000D02*
X156306000Y-98850000D01*
X180003500Y-99880000D02*
X180003500Y-98096500D01*
X182580000Y-95630000D02*
X182580000Y-94930000D01*
X180003500Y-98096500D02*
X182470000Y-95630000D01*
X182470000Y-95630000D02*
X182580000Y-95630000D01*
X176044500Y-99854000D02*
X176044500Y-99154000D01*
X176044500Y-99154000D02*
X178860000Y-96338500D01*
X178860000Y-96338500D02*
X178860000Y-95630000D01*
X178860000Y-95630000D02*
X178860000Y-94930000D01*
X172078500Y-97821500D02*
X174970000Y-94930000D01*
X172078500Y-99854000D02*
X172078500Y-97821500D01*
D24*
X155175000Y-108675000D02*
X155000000Y-108850000D01*
X155175000Y-106850000D02*
X155175000Y-108675000D01*
X152525000Y-109609315D02*
X152500000Y-109584315D01*
X152525000Y-110175000D02*
X152525000Y-109609315D01*
X152500000Y-106667000D02*
X153917000Y-105250000D01*
X153917000Y-105250000D02*
X155175000Y-105250000D01*
X152500000Y-109584315D02*
X152500000Y-106667000D01*
X155175000Y-106050000D02*
X154015040Y-106050000D01*
X154015040Y-106050000D02*
X153750000Y-106315040D01*
X153750000Y-106315040D02*
X153750000Y-106934315D01*
X153750000Y-106934315D02*
X153750000Y-107500000D01*
D25*
X169900000Y-101250000D02*
X170050000Y-101100000D01*
X166575000Y-101250000D02*
X169900000Y-101250000D01*
D24*
X141484315Y-65387020D02*
X142050000Y-65387020D01*
X133650000Y-68510000D02*
X136772980Y-65387020D01*
X136772980Y-65387020D02*
X141484315Y-65387020D01*
X175125000Y-75950000D02*
X176800000Y-74275000D01*
X175125000Y-77425000D02*
X175125000Y-75950000D01*
X154985000Y-95100000D02*
X155155000Y-94930000D01*
X142520000Y-95100000D02*
X154985000Y-95100000D01*
X155155000Y-95430000D02*
X156875000Y-97150000D01*
X155155000Y-94930000D02*
X155155000Y-95430000D01*
X154264198Y-99650000D02*
X155175000Y-99650000D01*
X154043999Y-99429801D02*
X154264198Y-99650000D01*
X154043999Y-98270199D02*
X154043999Y-99429801D01*
X155164198Y-97150000D02*
X154043999Y-98270199D01*
X156875000Y-97150000D02*
X155164198Y-97150000D01*
X164984473Y-94444473D02*
X165470000Y-94930000D01*
X164388990Y-93848990D02*
X164984473Y-94444473D01*
X155155000Y-94230000D02*
X155536010Y-93848990D01*
X155536010Y-93848990D02*
X164388990Y-93848990D01*
X155155000Y-94930000D02*
X155155000Y-94230000D01*
X165470000Y-96555000D02*
X164875000Y-97150000D01*
X165470000Y-94930000D02*
X165470000Y-96555000D01*
X150622000Y-111148500D02*
X149959500Y-110486000D01*
X180872881Y-119221001D02*
X158694501Y-119221001D01*
X183448510Y-116645372D02*
X180872881Y-119221001D01*
X154340000Y-114950000D02*
X150622000Y-111148500D01*
X158694501Y-119221001D02*
X154340000Y-114950000D01*
X149959500Y-107473500D02*
X149322000Y-106836000D01*
X149959500Y-110486000D02*
X149959500Y-107473500D01*
X150109000Y-106836000D02*
X152735000Y-104210000D01*
X149322000Y-106836000D02*
X150109000Y-106836000D01*
X153295000Y-103650000D02*
X155175000Y-103650000D01*
X152735000Y-104210000D02*
X153295000Y-103650000D01*
X158475000Y-110402500D02*
X158475000Y-108550000D01*
X158097500Y-110780000D02*
X158475000Y-110402500D01*
X168010000Y-106050000D02*
X168480000Y-105580000D01*
X166575000Y-106050000D02*
X168010000Y-106050000D01*
X168955000Y-105580000D02*
X171830000Y-108455000D01*
X168480000Y-105580000D02*
X168955000Y-105580000D01*
X171830000Y-113503882D02*
X174456118Y-116130000D01*
X171830000Y-108455000D02*
X171830000Y-113503882D01*
X174456118Y-116130000D02*
X183300000Y-116130000D01*
X183300000Y-116130000D02*
X183448510Y-116645372D01*
X158097500Y-110780000D02*
X158097500Y-111480000D01*
X158097500Y-111480000D02*
X154627500Y-114950000D01*
X154627500Y-114950000D02*
X154340000Y-114950000D01*
X184018990Y-94298990D02*
X184018990Y-115411010D01*
X182320000Y-92600000D02*
X184018990Y-94298990D01*
X167800000Y-92600000D02*
X182320000Y-92600000D01*
X165470000Y-94930000D02*
X167800000Y-92600000D01*
X184018990Y-115411010D02*
X183300000Y-116130000D01*
X141505000Y-68275000D02*
X141887500Y-68275000D01*
X136850000Y-72930000D02*
X141505000Y-68275000D01*
X136850000Y-90055000D02*
X136850000Y-72930000D01*
X141895000Y-95100000D02*
X136850000Y-90055000D01*
X142520000Y-95100000D02*
X141895000Y-95100000D01*
X153485000Y-102850000D02*
X155175000Y-102850000D01*
X152735000Y-102100000D02*
X153485000Y-102850000D01*
X139690000Y-95130000D02*
X139720000Y-95100000D01*
X137740000Y-95130000D02*
X139690000Y-95130000D01*
D25*
X154044000Y-101250000D02*
X155175000Y-101250000D01*
X153876490Y-101082490D02*
X154044000Y-101250000D01*
X149592510Y-101082490D02*
X153876490Y-101082490D01*
X148600000Y-102075000D02*
X149592510Y-101082490D01*
X154044000Y-100450000D02*
X155175000Y-100450000D01*
X149387500Y-100450000D02*
X154044000Y-100450000D01*
X149112500Y-100175000D02*
X149387500Y-100450000D01*
X148625000Y-100175000D02*
X149112500Y-100175000D01*
X150781980Y-73879290D02*
X150781980Y-73693020D01*
X150357716Y-74303554D02*
X150781980Y-73879290D01*
X150781980Y-73693020D02*
X151350000Y-73125000D01*
X151350000Y-73125000D02*
X152525000Y-73125000D01*
X152525000Y-73173348D02*
X153725826Y-74374174D01*
X152525000Y-73125000D02*
X152525000Y-73173348D01*
X150357716Y-74303554D02*
X150357716Y-75152082D01*
X150357716Y-75152082D02*
X152231220Y-77025586D01*
X152231220Y-77025586D02*
X152231220Y-80367600D01*
X152231220Y-80367600D02*
X152231220Y-81948600D01*
X149691220Y-80367600D02*
X149691220Y-81948600D01*
X147175736Y-77852116D02*
X149691220Y-80367600D01*
X147175736Y-74374264D02*
X147175736Y-77852116D01*
X147600000Y-73950000D02*
X147175736Y-74374264D01*
X143837913Y-72912913D02*
X143825000Y-72900000D01*
X145562087Y-72912913D02*
X143837913Y-72912913D01*
X146562913Y-72912913D02*
X147600000Y-73950000D01*
X145562087Y-72912913D02*
X146562913Y-72912913D01*
D24*
X163323223Y-113616777D02*
X164460000Y-112480000D01*
X162488858Y-113616777D02*
X163323223Y-113616777D01*
X160875000Y-109460802D02*
X160875000Y-108550000D01*
X161100000Y-110725000D02*
X161100000Y-109685802D01*
X161100000Y-109685802D02*
X160875000Y-109460802D01*
X162488858Y-112113858D02*
X161100000Y-110725000D01*
X162488858Y-113616777D02*
X162488858Y-112113858D01*
X158480000Y-114514365D02*
X159731142Y-113263223D01*
X158480000Y-115180000D02*
X158480000Y-114514365D01*
X159731142Y-113263223D02*
X159193998Y-112726079D01*
X160075000Y-109619116D02*
X160075000Y-108550000D01*
X159193998Y-110500118D02*
X160075000Y-109619116D01*
X159193998Y-112726079D02*
X159193998Y-110500118D01*
D25*
X173590000Y-68500000D02*
X176130000Y-71040000D01*
X170070000Y-68500000D02*
X173590000Y-68500000D01*
X170070000Y-67269000D02*
X168851000Y-66050000D01*
X170070000Y-68500000D02*
X170070000Y-67269000D01*
X154572098Y-66050000D02*
X151900000Y-68722098D01*
X168851000Y-66050000D02*
X154572098Y-66050000D01*
X151900000Y-70817902D02*
X155432098Y-74350000D01*
X151900000Y-68722098D02*
X151900000Y-70817902D01*
X155432098Y-74350000D02*
X155575000Y-74350000D01*
X156119148Y-81781672D02*
X155952220Y-81948600D01*
X156119148Y-74894148D02*
X156119148Y-81781672D01*
X155952220Y-81948600D02*
X154771220Y-81948600D01*
X155575000Y-74350000D02*
X156119148Y-74894148D01*
X168902499Y-68144597D02*
X168902499Y-69499063D01*
X168902499Y-69499063D02*
X170070000Y-70666564D01*
X153850000Y-68500000D02*
X155708010Y-66641990D01*
X155708010Y-66641990D02*
X167399892Y-66641990D01*
X167399892Y-66641990D02*
X168902499Y-68144597D01*
X170070000Y-70666564D02*
X170070000Y-71040000D01*
X173732220Y-81948600D02*
X172551220Y-81948600D01*
X178000000Y-73100000D02*
X178000000Y-77680820D01*
X177502499Y-72602499D02*
X178000000Y-73100000D01*
X177502499Y-70479599D02*
X177502499Y-72602499D01*
X178000000Y-77680820D02*
X173732220Y-81948600D01*
X177806049Y-70176049D02*
X177502499Y-70479599D01*
X176130000Y-68500000D02*
X177806049Y-70176049D01*
X178670000Y-85430217D02*
X173014107Y-91086110D01*
X178670000Y-71040000D02*
X178670000Y-85430217D01*
X145792220Y-87987600D02*
X144611220Y-89168600D01*
X147550617Y-87987600D02*
X145792220Y-87987600D01*
X144611220Y-89168600D02*
X144611220Y-89568600D01*
X148268730Y-88705713D02*
X147550617Y-87987600D01*
X148268730Y-90126507D02*
X148268730Y-88705713D01*
X149228333Y-91086110D02*
X148268730Y-90126507D01*
X173014107Y-91086110D02*
X149228333Y-91086110D01*
X168379999Y-69694999D02*
X168902499Y-70217499D01*
X171192220Y-86806600D02*
X170011220Y-87987600D01*
X168902499Y-71694063D02*
X171192220Y-73983784D01*
X170011220Y-87987600D02*
X170011220Y-89568600D01*
X168902499Y-70217499D02*
X168902499Y-71694063D01*
X168379999Y-69349999D02*
X168379999Y-69694999D01*
X167530000Y-68500000D02*
X168379999Y-69349999D01*
X166255000Y-67225000D02*
X167530000Y-68500000D01*
X161975000Y-67225000D02*
X166255000Y-67225000D01*
X161950000Y-67250000D02*
X161975000Y-67225000D01*
X157908498Y-67250000D02*
X161950000Y-67250000D01*
X156658498Y-68500000D02*
X157908498Y-67250000D01*
X156390000Y-68500000D02*
X156658498Y-68500000D01*
D24*
X171375000Y-77425000D02*
X171300000Y-77350000D01*
X173250000Y-77425000D02*
X171375000Y-77425000D01*
D25*
X171300000Y-77350000D02*
X171192220Y-86806600D01*
X171192220Y-73983784D02*
X171300000Y-77350000D01*
X157311220Y-82348600D02*
X157311220Y-81948600D01*
X156130220Y-83529600D02*
X157311220Y-82348600D01*
X155730220Y-83529600D02*
X156130220Y-83529600D01*
X152231220Y-87028600D02*
X155730220Y-83529600D01*
X152231220Y-89568600D02*
X152231220Y-87028600D01*
X168379999Y-71889999D02*
X167530000Y-71040000D01*
X168588730Y-72098730D02*
X168379999Y-71889999D01*
X168588730Y-82811487D02*
X168588730Y-72098730D01*
X160968730Y-83466110D02*
X167934107Y-83466110D01*
X159851220Y-82348600D02*
X160968730Y-83466110D01*
X159851220Y-81948600D02*
X159851220Y-82348600D01*
X167934107Y-83466110D02*
X168588730Y-82811487D01*
X164140001Y-69349999D02*
X164990000Y-68500000D01*
X163617501Y-69872499D02*
X164140001Y-69349999D01*
X155017501Y-69872499D02*
X163617501Y-69872499D01*
X153850000Y-71040000D02*
X155017501Y-69872499D01*
X166157501Y-81903319D02*
X166112220Y-81948600D01*
X166157501Y-69667501D02*
X166157501Y-81903319D01*
X166112220Y-81948600D02*
X164931220Y-81948600D01*
X164990000Y-68500000D02*
X166157501Y-69667501D01*
X156390000Y-71040000D02*
X156390000Y-71315000D01*
X164931220Y-89168600D02*
X164931220Y-89568600D01*
X158733710Y-82971090D02*
X164931220Y-89168600D01*
X158733710Y-73383710D02*
X158733710Y-82971090D01*
X156390000Y-71040000D02*
X158733710Y-73383710D01*
X163787919Y-71040000D02*
X158930000Y-71040000D01*
X164990000Y-71040000D02*
X163787919Y-71040000D01*
X136298556Y-102670000D02*
X136314576Y-102686020D01*
X135078498Y-102670000D02*
X136298556Y-102670000D01*
X134800000Y-102391502D02*
X135078498Y-102670000D01*
X136314576Y-102686020D02*
X136525000Y-102686020D01*
X134800000Y-101948498D02*
X134800000Y-102391502D01*
X135078498Y-101670000D02*
X134800000Y-101948498D01*
X136525000Y-101670000D02*
X135078498Y-101670000D01*
X146390000Y-99815000D02*
X146750000Y-100175000D01*
X143165527Y-98821973D02*
X142680000Y-99307500D01*
X143662500Y-98325000D02*
X143165527Y-98821973D01*
X145600000Y-98325000D02*
X143662500Y-98325000D01*
X146750000Y-99475000D02*
X145600000Y-98325000D01*
X146750000Y-100175000D02*
X146750000Y-99475000D01*
X137631564Y-101670000D02*
X136525000Y-101670000D01*
X137639575Y-101661989D02*
X137631564Y-101670000D01*
X140288011Y-101661989D02*
X137639575Y-101661989D01*
X142642500Y-99307500D02*
X140288011Y-101661989D01*
X142680000Y-99307500D02*
X142642500Y-99307500D01*
X144600000Y-99307500D02*
X144192500Y-99307500D01*
X137841988Y-102178010D02*
X136525000Y-102178010D01*
X137849998Y-102170000D02*
X137841988Y-102178010D01*
X144192500Y-99307500D02*
X141330000Y-102170000D01*
X141330000Y-102170000D02*
X138580000Y-102170000D01*
X138580000Y-102170000D02*
X137849998Y-102170000D01*
X136735424Y-103194030D02*
X136525000Y-103194030D01*
X136759454Y-103170000D02*
X136735424Y-103194030D01*
X137930000Y-103170000D02*
X136759454Y-103170000D01*
X138580000Y-102520000D02*
X137930000Y-103170000D01*
X138580000Y-102170000D02*
X138580000Y-102520000D01*
X145432500Y-99307500D02*
X144600000Y-99307500D01*
X145770000Y-99645000D02*
X145432500Y-99307500D01*
X145770000Y-101770000D02*
X145770000Y-99645000D01*
X146075000Y-102075000D02*
X145770000Y-101770000D01*
X146725000Y-102075000D02*
X146075000Y-102075000D01*
X140275000Y-104170000D02*
X140360000Y-104255000D01*
X136525000Y-104170000D02*
X140275000Y-104170000D01*
X140460000Y-97432500D02*
X139442490Y-98450010D01*
X139442490Y-98450010D02*
X139442490Y-99699012D01*
X139442490Y-99699012D02*
X137987524Y-101153978D01*
X137987524Y-101153978D02*
X136533012Y-101153978D01*
X136533012Y-101153978D02*
X136525000Y-101161990D01*
X171237500Y-95318500D02*
X171237500Y-94930000D01*
X167706000Y-98850000D02*
X171237500Y-95318500D01*
X166575000Y-98850000D02*
X167706000Y-98850000D01*
D24*
X157454801Y-109681001D02*
X155543999Y-109681001D01*
X157675000Y-109460802D02*
X157454801Y-109681001D01*
X155543999Y-109681001D02*
X154475000Y-110750000D01*
X157675000Y-108550000D02*
X157675000Y-109460802D01*
X136525000Y-99970000D02*
X137960802Y-99970000D01*
X135398000Y-95130000D02*
X134440000Y-95130000D01*
X137960802Y-99970000D02*
X138181002Y-99749800D01*
X138181002Y-99749800D02*
X138181002Y-97575118D01*
X138181002Y-97575118D02*
X135735884Y-95130000D01*
X135735884Y-95130000D02*
X135398000Y-95130000D01*
X133482000Y-95130000D02*
X134440000Y-95130000D01*
X133075000Y-95537000D02*
X133482000Y-95130000D01*
X138893998Y-107324882D02*
X137393880Y-108825000D01*
X133075000Y-107875000D02*
X133075000Y-95537000D01*
X134025000Y-108825000D02*
X133075000Y-107875000D01*
X137393880Y-108825000D02*
X134025000Y-108825000D01*
X138258000Y-104870000D02*
X138893998Y-105505998D01*
X138893998Y-105505998D02*
X138893998Y-107324882D01*
X136525000Y-104870000D02*
X138258000Y-104870000D01*
M02*
