G04 #@! TF.GenerationSoftware,KiCad,Pcbnew,5.1.5+dfsg1-2build2*
G04 #@! TF.CreationDate,2020-09-10T12:50:31-04:00*
G04 #@! TF.ProjectId,multi-avr,6d756c74-692d-4617-9672-2e6b69636164,rev?*
G04 #@! TF.SameCoordinates,Original*
G04 #@! TF.FileFunction,Soldermask,Top*
G04 #@! TF.FilePolarity,Negative*
%FSLAX46Y46*%
G04 Gerber Fmt 4.6, Leading zero omitted, Abs format (unit mm)*
G04 Created by KiCad (PCBNEW 5.1.5+dfsg1-2build2) date 2020-09-10 12:50:31*
%MOMM*%
%LPD*%
G04 APERTURE LIST*
%ADD10C,0.100000*%
G04 APERTURE END LIST*
D10*
G36*
X181892564Y-116165389D02*
G01*
X182083833Y-116244615D01*
X182083835Y-116244616D01*
X182255973Y-116359635D01*
X182402365Y-116506027D01*
X182517385Y-116678167D01*
X182596611Y-116869436D01*
X182637000Y-117072484D01*
X182637000Y-117279516D01*
X182596611Y-117482564D01*
X182517385Y-117673833D01*
X182517384Y-117673835D01*
X182402365Y-117845973D01*
X182255973Y-117992365D01*
X182083835Y-118107384D01*
X182083834Y-118107385D01*
X182083833Y-118107385D01*
X181892564Y-118186611D01*
X181689516Y-118227000D01*
X181482484Y-118227000D01*
X181279436Y-118186611D01*
X181088167Y-118107385D01*
X181088166Y-118107385D01*
X181088165Y-118107384D01*
X180916027Y-117992365D01*
X180769635Y-117845973D01*
X180654616Y-117673835D01*
X180654615Y-117673833D01*
X180575389Y-117482564D01*
X180535000Y-117279516D01*
X180535000Y-117072484D01*
X180575389Y-116869436D01*
X180654615Y-116678167D01*
X180769635Y-116506027D01*
X180916027Y-116359635D01*
X181088165Y-116244616D01*
X181088167Y-116244615D01*
X181279436Y-116165389D01*
X181482484Y-116125000D01*
X181689516Y-116125000D01*
X181892564Y-116165389D01*
G37*
G36*
X177392564Y-116165389D02*
G01*
X177583833Y-116244615D01*
X177583835Y-116244616D01*
X177755973Y-116359635D01*
X177902365Y-116506027D01*
X178017385Y-116678167D01*
X178096611Y-116869436D01*
X178137000Y-117072484D01*
X178137000Y-117279516D01*
X178096611Y-117482564D01*
X178017385Y-117673833D01*
X178017384Y-117673835D01*
X177902365Y-117845973D01*
X177755973Y-117992365D01*
X177583835Y-118107384D01*
X177583834Y-118107385D01*
X177583833Y-118107385D01*
X177392564Y-118186611D01*
X177189516Y-118227000D01*
X176982484Y-118227000D01*
X176779436Y-118186611D01*
X176588167Y-118107385D01*
X176588166Y-118107385D01*
X176588165Y-118107384D01*
X176416027Y-117992365D01*
X176269635Y-117845973D01*
X176154616Y-117673835D01*
X176154615Y-117673833D01*
X176075389Y-117482564D01*
X176035000Y-117279516D01*
X176035000Y-117072484D01*
X176075389Y-116869436D01*
X176154615Y-116678167D01*
X176269635Y-116506027D01*
X176416027Y-116359635D01*
X176588165Y-116244616D01*
X176588167Y-116244615D01*
X176779436Y-116165389D01*
X176982484Y-116125000D01*
X177189516Y-116125000D01*
X177392564Y-116165389D01*
G37*
G36*
X161468000Y-116153000D02*
G01*
X159966000Y-116153000D01*
X159966000Y-114851000D01*
X161468000Y-114851000D01*
X161468000Y-116153000D01*
G37*
G36*
X163668000Y-116153000D02*
G01*
X162166000Y-116153000D01*
X162166000Y-114851000D01*
X163668000Y-114851000D01*
X163668000Y-116153000D01*
G37*
G36*
X165929591Y-114903085D02*
G01*
X165963569Y-114913393D01*
X165994890Y-114930134D01*
X166022339Y-114952661D01*
X166044866Y-114980110D01*
X166061607Y-115011431D01*
X166071915Y-115045409D01*
X166076000Y-115086890D01*
X166076000Y-115688110D01*
X166071915Y-115729591D01*
X166061607Y-115763569D01*
X166044866Y-115794890D01*
X166022339Y-115822339D01*
X165994890Y-115844866D01*
X165963569Y-115861607D01*
X165929591Y-115871915D01*
X165888110Y-115876000D01*
X165211890Y-115876000D01*
X165170409Y-115871915D01*
X165136431Y-115861607D01*
X165105110Y-115844866D01*
X165077661Y-115822339D01*
X165055134Y-115794890D01*
X165038393Y-115763569D01*
X165028085Y-115729591D01*
X165024000Y-115688110D01*
X165024000Y-115086890D01*
X165028085Y-115045409D01*
X165038393Y-115011431D01*
X165055134Y-114980110D01*
X165077661Y-114952661D01*
X165105110Y-114930134D01*
X165136431Y-114913393D01*
X165170409Y-114903085D01*
X165211890Y-114899000D01*
X165888110Y-114899000D01*
X165929591Y-114903085D01*
G37*
G36*
X149221811Y-113328271D02*
G01*
X149257603Y-113339129D01*
X149290595Y-113356763D01*
X149319508Y-113380492D01*
X149343237Y-113409405D01*
X149360871Y-113442397D01*
X149371729Y-113478189D01*
X149376000Y-113521555D01*
X149376000Y-115578445D01*
X149371729Y-115621811D01*
X149360871Y-115657603D01*
X149343237Y-115690595D01*
X149319508Y-115719508D01*
X149290595Y-115743237D01*
X149257603Y-115760871D01*
X149221811Y-115771729D01*
X149178445Y-115776000D01*
X148146555Y-115776000D01*
X148103189Y-115771729D01*
X148067397Y-115760871D01*
X148034405Y-115743237D01*
X148005492Y-115719508D01*
X147981763Y-115690595D01*
X147964129Y-115657603D01*
X147953271Y-115621811D01*
X147949000Y-115578445D01*
X147949000Y-113521555D01*
X147953271Y-113478189D01*
X147964129Y-113442397D01*
X147981763Y-113409405D01*
X148005492Y-113380492D01*
X148034405Y-113356763D01*
X148067397Y-113339129D01*
X148103189Y-113328271D01*
X148146555Y-113324000D01*
X149178445Y-113324000D01*
X149221811Y-113328271D01*
G37*
G36*
X152296811Y-113328271D02*
G01*
X152332603Y-113339129D01*
X152365595Y-113356763D01*
X152394508Y-113380492D01*
X152418237Y-113409405D01*
X152435871Y-113442397D01*
X152446729Y-113478189D01*
X152451000Y-113521555D01*
X152451000Y-115578445D01*
X152446729Y-115621811D01*
X152435871Y-115657603D01*
X152418237Y-115690595D01*
X152394508Y-115719508D01*
X152365595Y-115743237D01*
X152332603Y-115760871D01*
X152296811Y-115771729D01*
X152253445Y-115776000D01*
X151221555Y-115776000D01*
X151178189Y-115771729D01*
X151142397Y-115760871D01*
X151109405Y-115743237D01*
X151080492Y-115719508D01*
X151056763Y-115690595D01*
X151039129Y-115657603D01*
X151028271Y-115621811D01*
X151024000Y-115578445D01*
X151024000Y-113521555D01*
X151028271Y-113478189D01*
X151039129Y-113442397D01*
X151056763Y-113409405D01*
X151080492Y-113380492D01*
X151109405Y-113356763D01*
X151142397Y-113339129D01*
X151178189Y-113328271D01*
X151221555Y-113324000D01*
X152253445Y-113324000D01*
X152296811Y-113328271D01*
G37*
G36*
X158604591Y-114728085D02*
G01*
X158638569Y-114738393D01*
X158669890Y-114755134D01*
X158697339Y-114777661D01*
X158719866Y-114805110D01*
X158736607Y-114836431D01*
X158746915Y-114870409D01*
X158751000Y-114911890D01*
X158751000Y-115513110D01*
X158746915Y-115554591D01*
X158736607Y-115588569D01*
X158719866Y-115619890D01*
X158697339Y-115647339D01*
X158669890Y-115669866D01*
X158638569Y-115686607D01*
X158604591Y-115696915D01*
X158563110Y-115701000D01*
X157886890Y-115701000D01*
X157845409Y-115696915D01*
X157811431Y-115686607D01*
X157780110Y-115669866D01*
X157752661Y-115647339D01*
X157730134Y-115619890D01*
X157713393Y-115588569D01*
X157703085Y-115554591D01*
X157699000Y-115513110D01*
X157699000Y-114911890D01*
X157703085Y-114870409D01*
X157713393Y-114836431D01*
X157730134Y-114805110D01*
X157752661Y-114777661D01*
X157780110Y-114755134D01*
X157811431Y-114738393D01*
X157845409Y-114728085D01*
X157886890Y-114724000D01*
X158563110Y-114724000D01*
X158604591Y-114728085D01*
G37*
G36*
X163668000Y-114453000D02*
G01*
X162166000Y-114453000D01*
X162166000Y-113151000D01*
X163668000Y-113151000D01*
X163668000Y-114453000D01*
G37*
G36*
X161468000Y-114453000D02*
G01*
X159966000Y-114453000D01*
X159966000Y-113151000D01*
X161468000Y-113151000D01*
X161468000Y-114453000D01*
G37*
G36*
X165929591Y-113328085D02*
G01*
X165963569Y-113338393D01*
X165994890Y-113355134D01*
X166022339Y-113377661D01*
X166044866Y-113405110D01*
X166061607Y-113436431D01*
X166071915Y-113470409D01*
X166076000Y-113511890D01*
X166076000Y-114113110D01*
X166071915Y-114154591D01*
X166061607Y-114188569D01*
X166044866Y-114219890D01*
X166022339Y-114247339D01*
X165994890Y-114269866D01*
X165963569Y-114286607D01*
X165929591Y-114296915D01*
X165888110Y-114301000D01*
X165211890Y-114301000D01*
X165170409Y-114296915D01*
X165136431Y-114286607D01*
X165105110Y-114269866D01*
X165077661Y-114247339D01*
X165055134Y-114219890D01*
X165038393Y-114188569D01*
X165028085Y-114154591D01*
X165024000Y-114113110D01*
X165024000Y-113511890D01*
X165028085Y-113470409D01*
X165038393Y-113436431D01*
X165055134Y-113405110D01*
X165077661Y-113377661D01*
X165105110Y-113355134D01*
X165136431Y-113338393D01*
X165170409Y-113328085D01*
X165211890Y-113324000D01*
X165888110Y-113324000D01*
X165929591Y-113328085D01*
G37*
G36*
X158604591Y-113153085D02*
G01*
X158638569Y-113163393D01*
X158669890Y-113180134D01*
X158697339Y-113202661D01*
X158719866Y-113230110D01*
X158736607Y-113261431D01*
X158746915Y-113295409D01*
X158751000Y-113336890D01*
X158751000Y-113938110D01*
X158746915Y-113979591D01*
X158736607Y-114013569D01*
X158719866Y-114044890D01*
X158697339Y-114072339D01*
X158669890Y-114094866D01*
X158638569Y-114111607D01*
X158604591Y-114121915D01*
X158563110Y-114126000D01*
X157886890Y-114126000D01*
X157845409Y-114121915D01*
X157811431Y-114111607D01*
X157780110Y-114094866D01*
X157752661Y-114072339D01*
X157730134Y-114044890D01*
X157713393Y-114013569D01*
X157703085Y-113979591D01*
X157699000Y-113938110D01*
X157699000Y-113336890D01*
X157703085Y-113295409D01*
X157713393Y-113261431D01*
X157730134Y-113230110D01*
X157752661Y-113202661D01*
X157780110Y-113180134D01*
X157811431Y-113163393D01*
X157845409Y-113153085D01*
X157886890Y-113149000D01*
X158563110Y-113149000D01*
X158604591Y-113153085D01*
G37*
G36*
X177392564Y-109665389D02*
G01*
X177583833Y-109744615D01*
X177583835Y-109744616D01*
X177590008Y-109748741D01*
X177755973Y-109859635D01*
X177902365Y-110006027D01*
X178017385Y-110178167D01*
X178096611Y-110369436D01*
X178137000Y-110572484D01*
X178137000Y-110779516D01*
X178096611Y-110982564D01*
X178017385Y-111173833D01*
X178017384Y-111173835D01*
X177902365Y-111345973D01*
X177755973Y-111492365D01*
X177583835Y-111607384D01*
X177583834Y-111607385D01*
X177583833Y-111607385D01*
X177392564Y-111686611D01*
X177189516Y-111727000D01*
X176982484Y-111727000D01*
X176779436Y-111686611D01*
X176588167Y-111607385D01*
X176588166Y-111607385D01*
X176588165Y-111607384D01*
X176416027Y-111492365D01*
X176269635Y-111345973D01*
X176154616Y-111173835D01*
X176154615Y-111173833D01*
X176075389Y-110982564D01*
X176035000Y-110779516D01*
X176035000Y-110572484D01*
X176075389Y-110369436D01*
X176154615Y-110178167D01*
X176269635Y-110006027D01*
X176416027Y-109859635D01*
X176581992Y-109748741D01*
X176588165Y-109744616D01*
X176588167Y-109744615D01*
X176779436Y-109665389D01*
X176982484Y-109625000D01*
X177189516Y-109625000D01*
X177392564Y-109665389D01*
G37*
G36*
X181892564Y-109665389D02*
G01*
X182083833Y-109744615D01*
X182083835Y-109744616D01*
X182090008Y-109748741D01*
X182255973Y-109859635D01*
X182402365Y-110006027D01*
X182517385Y-110178167D01*
X182596611Y-110369436D01*
X182637000Y-110572484D01*
X182637000Y-110779516D01*
X182596611Y-110982564D01*
X182517385Y-111173833D01*
X182517384Y-111173835D01*
X182402365Y-111345973D01*
X182255973Y-111492365D01*
X182083835Y-111607384D01*
X182083834Y-111607385D01*
X182083833Y-111607385D01*
X181892564Y-111686611D01*
X181689516Y-111727000D01*
X181482484Y-111727000D01*
X181279436Y-111686611D01*
X181088167Y-111607385D01*
X181088166Y-111607385D01*
X181088165Y-111607384D01*
X180916027Y-111492365D01*
X180769635Y-111345973D01*
X180654616Y-111173835D01*
X180654615Y-111173833D01*
X180575389Y-110982564D01*
X180535000Y-110779516D01*
X180535000Y-110572484D01*
X180575389Y-110369436D01*
X180654615Y-110178167D01*
X180769635Y-110006027D01*
X180916027Y-109859635D01*
X181081992Y-109748741D01*
X181088165Y-109744616D01*
X181088167Y-109744615D01*
X181279436Y-109665389D01*
X181482484Y-109625000D01*
X181689516Y-109625000D01*
X181892564Y-109665389D01*
G37*
G36*
X158792091Y-110378085D02*
G01*
X158826069Y-110388393D01*
X158857390Y-110405134D01*
X158884839Y-110427661D01*
X158907366Y-110455110D01*
X158924107Y-110486431D01*
X158934415Y-110520409D01*
X158938500Y-110561890D01*
X158938500Y-111238110D01*
X158934415Y-111279591D01*
X158924107Y-111313569D01*
X158907366Y-111344890D01*
X158884839Y-111372339D01*
X158857390Y-111394866D01*
X158826069Y-111411607D01*
X158792091Y-111421915D01*
X158750610Y-111426000D01*
X158149390Y-111426000D01*
X158107909Y-111421915D01*
X158073931Y-111411607D01*
X158042610Y-111394866D01*
X158015161Y-111372339D01*
X157992634Y-111344890D01*
X157975893Y-111313569D01*
X157965585Y-111279591D01*
X157961500Y-111238110D01*
X157961500Y-110561890D01*
X157965585Y-110520409D01*
X157975893Y-110486431D01*
X157992634Y-110455110D01*
X158015161Y-110427661D01*
X158042610Y-110405134D01*
X158073931Y-110388393D01*
X158107909Y-110378085D01*
X158149390Y-110374000D01*
X158750610Y-110374000D01*
X158792091Y-110378085D01*
G37*
G36*
X149717091Y-110378085D02*
G01*
X149751069Y-110388393D01*
X149782390Y-110405134D01*
X149809839Y-110427661D01*
X149832366Y-110455110D01*
X149849107Y-110486431D01*
X149859415Y-110520409D01*
X149863500Y-110561890D01*
X149863500Y-111238110D01*
X149859415Y-111279591D01*
X149849107Y-111313569D01*
X149832366Y-111344890D01*
X149809839Y-111372339D01*
X149782390Y-111394866D01*
X149751069Y-111411607D01*
X149717091Y-111421915D01*
X149675610Y-111426000D01*
X149074390Y-111426000D01*
X149032909Y-111421915D01*
X148998931Y-111411607D01*
X148967610Y-111394866D01*
X148940161Y-111372339D01*
X148917634Y-111344890D01*
X148900893Y-111313569D01*
X148890585Y-111279591D01*
X148886500Y-111238110D01*
X148886500Y-110561890D01*
X148890585Y-110520409D01*
X148900893Y-110486431D01*
X148917634Y-110455110D01*
X148940161Y-110427661D01*
X148967610Y-110405134D01*
X148998931Y-110388393D01*
X149032909Y-110378085D01*
X149074390Y-110374000D01*
X149675610Y-110374000D01*
X149717091Y-110378085D01*
G37*
G36*
X160367091Y-110378085D02*
G01*
X160401069Y-110388393D01*
X160432390Y-110405134D01*
X160459839Y-110427661D01*
X160482366Y-110455110D01*
X160499107Y-110486431D01*
X160509415Y-110520409D01*
X160513500Y-110561890D01*
X160513500Y-111238110D01*
X160509415Y-111279591D01*
X160499107Y-111313569D01*
X160482366Y-111344890D01*
X160459839Y-111372339D01*
X160432390Y-111394866D01*
X160401069Y-111411607D01*
X160367091Y-111421915D01*
X160325610Y-111426000D01*
X159724390Y-111426000D01*
X159682909Y-111421915D01*
X159648931Y-111411607D01*
X159617610Y-111394866D01*
X159590161Y-111372339D01*
X159567634Y-111344890D01*
X159550893Y-111313569D01*
X159540585Y-111279591D01*
X159536500Y-111238110D01*
X159536500Y-110561890D01*
X159540585Y-110520409D01*
X159550893Y-110486431D01*
X159567634Y-110455110D01*
X159590161Y-110427661D01*
X159617610Y-110405134D01*
X159648931Y-110388393D01*
X159682909Y-110378085D01*
X159724390Y-110374000D01*
X160325610Y-110374000D01*
X160367091Y-110378085D01*
G37*
G36*
X151292091Y-110378085D02*
G01*
X151326069Y-110388393D01*
X151357390Y-110405134D01*
X151384839Y-110427661D01*
X151407366Y-110455110D01*
X151424107Y-110486431D01*
X151434415Y-110520409D01*
X151438500Y-110561890D01*
X151438500Y-111238110D01*
X151434415Y-111279591D01*
X151424107Y-111313569D01*
X151407366Y-111344890D01*
X151384839Y-111372339D01*
X151357390Y-111394866D01*
X151326069Y-111411607D01*
X151292091Y-111421915D01*
X151250610Y-111426000D01*
X150649390Y-111426000D01*
X150607909Y-111421915D01*
X150573931Y-111411607D01*
X150542610Y-111394866D01*
X150515161Y-111372339D01*
X150492634Y-111344890D01*
X150475893Y-111313569D01*
X150465585Y-111279591D01*
X150461500Y-111238110D01*
X150461500Y-110561890D01*
X150465585Y-110520409D01*
X150475893Y-110486431D01*
X150492634Y-110455110D01*
X150515161Y-110427661D01*
X150542610Y-110405134D01*
X150573931Y-110388393D01*
X150607909Y-110378085D01*
X150649390Y-110374000D01*
X151250610Y-110374000D01*
X151292091Y-110378085D01*
G37*
G36*
X142964512Y-108763927D02*
G01*
X143113812Y-108793624D01*
X143277784Y-108861544D01*
X143425354Y-108960147D01*
X143550853Y-109085646D01*
X143649456Y-109233216D01*
X143717376Y-109397188D01*
X143752000Y-109571259D01*
X143752000Y-109748741D01*
X143717376Y-109922812D01*
X143649456Y-110086784D01*
X143550853Y-110234354D01*
X143425354Y-110359853D01*
X143277784Y-110458456D01*
X143113812Y-110526376D01*
X142964512Y-110556073D01*
X142939742Y-110561000D01*
X142762258Y-110561000D01*
X142737488Y-110556073D01*
X142588188Y-110526376D01*
X142424216Y-110458456D01*
X142276646Y-110359853D01*
X142151147Y-110234354D01*
X142052544Y-110086784D01*
X141984624Y-109922812D01*
X141950000Y-109748741D01*
X141950000Y-109571259D01*
X141984624Y-109397188D01*
X142052544Y-109233216D01*
X142151147Y-109085646D01*
X142276646Y-108960147D01*
X142424216Y-108861544D01*
X142588188Y-108793624D01*
X142737488Y-108763927D01*
X142762258Y-108759000D01*
X142939742Y-108759000D01*
X142964512Y-108763927D01*
G37*
G36*
X165201000Y-109351000D02*
G01*
X156549000Y-109351000D01*
X156549000Y-107749000D01*
X165201000Y-107749000D01*
X165201000Y-109351000D01*
G37*
G36*
X179192091Y-107353085D02*
G01*
X179226069Y-107363393D01*
X179257390Y-107380134D01*
X179284839Y-107402661D01*
X179307366Y-107430110D01*
X179324107Y-107461431D01*
X179334415Y-107495409D01*
X179338500Y-107536890D01*
X179338500Y-108213110D01*
X179334415Y-108254591D01*
X179324107Y-108288569D01*
X179307366Y-108319890D01*
X179284839Y-108347339D01*
X179257390Y-108369866D01*
X179226069Y-108386607D01*
X179192091Y-108396915D01*
X179150610Y-108401000D01*
X178549390Y-108401000D01*
X178507909Y-108396915D01*
X178473931Y-108386607D01*
X178442610Y-108369866D01*
X178415161Y-108347339D01*
X178392634Y-108319890D01*
X178375893Y-108288569D01*
X178365585Y-108254591D01*
X178361500Y-108213110D01*
X178361500Y-107536890D01*
X178365585Y-107495409D01*
X178375893Y-107461431D01*
X178392634Y-107430110D01*
X178415161Y-107402661D01*
X178442610Y-107380134D01*
X178473931Y-107363393D01*
X178507909Y-107353085D01*
X178549390Y-107349000D01*
X179150610Y-107349000D01*
X179192091Y-107353085D01*
G37*
G36*
X180767091Y-107353085D02*
G01*
X180801069Y-107363393D01*
X180832390Y-107380134D01*
X180859839Y-107402661D01*
X180882366Y-107430110D01*
X180899107Y-107461431D01*
X180909415Y-107495409D01*
X180913500Y-107536890D01*
X180913500Y-108213110D01*
X180909415Y-108254591D01*
X180899107Y-108288569D01*
X180882366Y-108319890D01*
X180859839Y-108347339D01*
X180832390Y-108369866D01*
X180801069Y-108386607D01*
X180767091Y-108396915D01*
X180725610Y-108401000D01*
X180124390Y-108401000D01*
X180082909Y-108396915D01*
X180048931Y-108386607D01*
X180017610Y-108369866D01*
X179990161Y-108347339D01*
X179967634Y-108319890D01*
X179950893Y-108288569D01*
X179940585Y-108254591D01*
X179936500Y-108213110D01*
X179936500Y-107536890D01*
X179940585Y-107495409D01*
X179950893Y-107461431D01*
X179967634Y-107430110D01*
X179990161Y-107402661D01*
X180017610Y-107380134D01*
X180048931Y-107363393D01*
X180082909Y-107353085D01*
X180124390Y-107349000D01*
X180725610Y-107349000D01*
X180767091Y-107353085D01*
G37*
G36*
X142964512Y-106223927D02*
G01*
X143113812Y-106253624D01*
X143277784Y-106321544D01*
X143425354Y-106420147D01*
X143550853Y-106545646D01*
X143649456Y-106693216D01*
X143717376Y-106857188D01*
X143742152Y-106981750D01*
X143751631Y-107029401D01*
X143752000Y-107031259D01*
X143752000Y-107208741D01*
X143717376Y-107382812D01*
X143649456Y-107546784D01*
X143550853Y-107694354D01*
X143425354Y-107819853D01*
X143277784Y-107918456D01*
X143113812Y-107986376D01*
X142964512Y-108016073D01*
X142939742Y-108021000D01*
X142762258Y-108021000D01*
X142737488Y-108016073D01*
X142588188Y-107986376D01*
X142424216Y-107918456D01*
X142276646Y-107819853D01*
X142151147Y-107694354D01*
X142052544Y-107546784D01*
X141984624Y-107382812D01*
X141950000Y-107208741D01*
X141950000Y-107031259D01*
X141950370Y-107029401D01*
X141959848Y-106981750D01*
X141984624Y-106857188D01*
X142052544Y-106693216D01*
X142151147Y-106545646D01*
X142276646Y-106420147D01*
X142424216Y-106321544D01*
X142588188Y-106253624D01*
X142737488Y-106223927D01*
X142762258Y-106219000D01*
X142939742Y-106219000D01*
X142964512Y-106223927D01*
G37*
G36*
X152529591Y-106253085D02*
G01*
X152563569Y-106263393D01*
X152594890Y-106280134D01*
X152622339Y-106302661D01*
X152644866Y-106330110D01*
X152661607Y-106361431D01*
X152671915Y-106395409D01*
X152676000Y-106436890D01*
X152676000Y-107038110D01*
X152671915Y-107079591D01*
X152661607Y-107113569D01*
X152644866Y-107144890D01*
X152622339Y-107172339D01*
X152594890Y-107194866D01*
X152563569Y-107211607D01*
X152529591Y-107221915D01*
X152488110Y-107226000D01*
X151811890Y-107226000D01*
X151770409Y-107221915D01*
X151736431Y-107211607D01*
X151705110Y-107194866D01*
X151677661Y-107172339D01*
X151655134Y-107144890D01*
X151638393Y-107113569D01*
X151628085Y-107079591D01*
X151624000Y-107038110D01*
X151624000Y-106436890D01*
X151628085Y-106395409D01*
X151638393Y-106361431D01*
X151655134Y-106330110D01*
X151677661Y-106302661D01*
X151705110Y-106280134D01*
X151736431Y-106263393D01*
X151770409Y-106253085D01*
X151811890Y-106249000D01*
X152488110Y-106249000D01*
X152529591Y-106253085D01*
G37*
G36*
X155976000Y-107176000D02*
G01*
X154374000Y-107176000D01*
X154374000Y-98524000D01*
X155976000Y-98524000D01*
X155976000Y-107176000D01*
G37*
G36*
X167376000Y-107176000D02*
G01*
X165774000Y-107176000D01*
X165774000Y-98524000D01*
X167376000Y-98524000D01*
X167376000Y-107176000D01*
G37*
G36*
X168954591Y-105578085D02*
G01*
X168988569Y-105588393D01*
X169019890Y-105605134D01*
X169047339Y-105627661D01*
X169069866Y-105655110D01*
X169086607Y-105686431D01*
X169096915Y-105720409D01*
X169101000Y-105761890D01*
X169101000Y-106363110D01*
X169096915Y-106404591D01*
X169086607Y-106438569D01*
X169069866Y-106469890D01*
X169047339Y-106497339D01*
X169019890Y-106519866D01*
X168988569Y-106536607D01*
X168954591Y-106546915D01*
X168913110Y-106551000D01*
X168236890Y-106551000D01*
X168195409Y-106546915D01*
X168161431Y-106536607D01*
X168130110Y-106519866D01*
X168102661Y-106497339D01*
X168080134Y-106469890D01*
X168063393Y-106438569D01*
X168053085Y-106404591D01*
X168049000Y-106363110D01*
X168049000Y-105761890D01*
X168053085Y-105720409D01*
X168063393Y-105686431D01*
X168080134Y-105655110D01*
X168102661Y-105627661D01*
X168130110Y-105605134D01*
X168161431Y-105588393D01*
X168195409Y-105578085D01*
X168236890Y-105574000D01*
X168913110Y-105574000D01*
X168954591Y-105578085D01*
G37*
G36*
X152529591Y-104678085D02*
G01*
X152563569Y-104688393D01*
X152594890Y-104705134D01*
X152622339Y-104727661D01*
X152644866Y-104755110D01*
X152661607Y-104786431D01*
X152671915Y-104820409D01*
X152676000Y-104861890D01*
X152676000Y-105463110D01*
X152671915Y-105504591D01*
X152661607Y-105538569D01*
X152644866Y-105569890D01*
X152622339Y-105597339D01*
X152594890Y-105619866D01*
X152563569Y-105636607D01*
X152529591Y-105646915D01*
X152488110Y-105651000D01*
X151811890Y-105651000D01*
X151770409Y-105646915D01*
X151736431Y-105636607D01*
X151705110Y-105619866D01*
X151677661Y-105597339D01*
X151655134Y-105569890D01*
X151638393Y-105538569D01*
X151628085Y-105504591D01*
X151624000Y-105463110D01*
X151624000Y-104861890D01*
X151628085Y-104820409D01*
X151638393Y-104786431D01*
X151655134Y-104755110D01*
X151677661Y-104727661D01*
X151705110Y-104705134D01*
X151736431Y-104688393D01*
X151770409Y-104678085D01*
X151811890Y-104674000D01*
X152488110Y-104674000D01*
X152529591Y-104678085D01*
G37*
G36*
X142964512Y-103683927D02*
G01*
X143113812Y-103713624D01*
X143277784Y-103781544D01*
X143425354Y-103880147D01*
X143550853Y-104005646D01*
X143649456Y-104153216D01*
X143717376Y-104317188D01*
X143747073Y-104466488D01*
X143752000Y-104491258D01*
X143752000Y-104668742D01*
X143748091Y-104688393D01*
X143717376Y-104842812D01*
X143649456Y-105006784D01*
X143550853Y-105154354D01*
X143425354Y-105279853D01*
X143277784Y-105378456D01*
X143113812Y-105446376D01*
X142964512Y-105476073D01*
X142939742Y-105481000D01*
X142762258Y-105481000D01*
X142737488Y-105476073D01*
X142588188Y-105446376D01*
X142424216Y-105378456D01*
X142276646Y-105279853D01*
X142151147Y-105154354D01*
X142052544Y-105006784D01*
X141984624Y-104842812D01*
X141953909Y-104688393D01*
X141950000Y-104668742D01*
X141950000Y-104491258D01*
X141954927Y-104466488D01*
X141984624Y-104317188D01*
X142052544Y-104153216D01*
X142151147Y-104005646D01*
X142276646Y-103880147D01*
X142424216Y-103781544D01*
X142588188Y-103713624D01*
X142737488Y-103683927D01*
X142762258Y-103679000D01*
X142939742Y-103679000D01*
X142964512Y-103683927D01*
G37*
G36*
X172192091Y-104003085D02*
G01*
X172226069Y-104013393D01*
X172257390Y-104030134D01*
X172284839Y-104052661D01*
X172307366Y-104080110D01*
X172324107Y-104111431D01*
X172334415Y-104145409D01*
X172338500Y-104186890D01*
X172338500Y-104863110D01*
X172334415Y-104904591D01*
X172324107Y-104938569D01*
X172307366Y-104969890D01*
X172284839Y-104997339D01*
X172257390Y-105019866D01*
X172226069Y-105036607D01*
X172192091Y-105046915D01*
X172150610Y-105051000D01*
X171549390Y-105051000D01*
X171507909Y-105046915D01*
X171473931Y-105036607D01*
X171442610Y-105019866D01*
X171415161Y-104997339D01*
X171392634Y-104969890D01*
X171375893Y-104938569D01*
X171365585Y-104904591D01*
X171361500Y-104863110D01*
X171361500Y-104186890D01*
X171365585Y-104145409D01*
X171375893Y-104111431D01*
X171392634Y-104080110D01*
X171415161Y-104052661D01*
X171442610Y-104030134D01*
X171473931Y-104013393D01*
X171507909Y-104003085D01*
X171549390Y-103999000D01*
X172150610Y-103999000D01*
X172192091Y-104003085D01*
G37*
G36*
X173767091Y-104003085D02*
G01*
X173801069Y-104013393D01*
X173832390Y-104030134D01*
X173859839Y-104052661D01*
X173882366Y-104080110D01*
X173899107Y-104111431D01*
X173909415Y-104145409D01*
X173913500Y-104186890D01*
X173913500Y-104863110D01*
X173909415Y-104904591D01*
X173899107Y-104938569D01*
X173882366Y-104969890D01*
X173859839Y-104997339D01*
X173832390Y-105019866D01*
X173801069Y-105036607D01*
X173767091Y-105046915D01*
X173725610Y-105051000D01*
X173124390Y-105051000D01*
X173082909Y-105046915D01*
X173048931Y-105036607D01*
X173017610Y-105019866D01*
X172990161Y-104997339D01*
X172967634Y-104969890D01*
X172950893Y-104938569D01*
X172940585Y-104904591D01*
X172936500Y-104863110D01*
X172936500Y-104186890D01*
X172940585Y-104145409D01*
X172950893Y-104111431D01*
X172967634Y-104080110D01*
X172990161Y-104052661D01*
X173017610Y-104030134D01*
X173048931Y-104013393D01*
X173082909Y-104003085D01*
X173124390Y-103999000D01*
X173725610Y-103999000D01*
X173767091Y-104003085D01*
G37*
G36*
X178579591Y-103978085D02*
G01*
X178613569Y-103988393D01*
X178644890Y-104005134D01*
X178672339Y-104027661D01*
X178694866Y-104055110D01*
X178711607Y-104086431D01*
X178721915Y-104120409D01*
X178726000Y-104161890D01*
X178726000Y-104838110D01*
X178721915Y-104879591D01*
X178711607Y-104913569D01*
X178694866Y-104944890D01*
X178672339Y-104972339D01*
X178644890Y-104994866D01*
X178613569Y-105011607D01*
X178579591Y-105021915D01*
X178538110Y-105026000D01*
X177936890Y-105026000D01*
X177895409Y-105021915D01*
X177861431Y-105011607D01*
X177830110Y-104994866D01*
X177802661Y-104972339D01*
X177780134Y-104944890D01*
X177763393Y-104913569D01*
X177753085Y-104879591D01*
X177749000Y-104838110D01*
X177749000Y-104161890D01*
X177753085Y-104120409D01*
X177763393Y-104086431D01*
X177780134Y-104055110D01*
X177802661Y-104027661D01*
X177830110Y-104005134D01*
X177861431Y-103988393D01*
X177895409Y-103978085D01*
X177936890Y-103974000D01*
X178538110Y-103974000D01*
X178579591Y-103978085D01*
G37*
G36*
X177004591Y-103978085D02*
G01*
X177038569Y-103988393D01*
X177069890Y-104005134D01*
X177097339Y-104027661D01*
X177119866Y-104055110D01*
X177136607Y-104086431D01*
X177146915Y-104120409D01*
X177151000Y-104161890D01*
X177151000Y-104838110D01*
X177146915Y-104879591D01*
X177136607Y-104913569D01*
X177119866Y-104944890D01*
X177097339Y-104972339D01*
X177069890Y-104994866D01*
X177038569Y-105011607D01*
X177004591Y-105021915D01*
X176963110Y-105026000D01*
X176361890Y-105026000D01*
X176320409Y-105021915D01*
X176286431Y-105011607D01*
X176255110Y-104994866D01*
X176227661Y-104972339D01*
X176205134Y-104944890D01*
X176188393Y-104913569D01*
X176178085Y-104879591D01*
X176174000Y-104838110D01*
X176174000Y-104161890D01*
X176178085Y-104120409D01*
X176188393Y-104086431D01*
X176205134Y-104055110D01*
X176227661Y-104027661D01*
X176255110Y-104005134D01*
X176286431Y-103988393D01*
X176320409Y-103978085D01*
X176361890Y-103974000D01*
X176963110Y-103974000D01*
X177004591Y-103978085D01*
G37*
G36*
X168954591Y-104003085D02*
G01*
X168988569Y-104013393D01*
X169019890Y-104030134D01*
X169047339Y-104052661D01*
X169069866Y-104080110D01*
X169086607Y-104111431D01*
X169096915Y-104145409D01*
X169101000Y-104186890D01*
X169101000Y-104788110D01*
X169096915Y-104829591D01*
X169086607Y-104863569D01*
X169069866Y-104894890D01*
X169047339Y-104922339D01*
X169019890Y-104944866D01*
X168988569Y-104961607D01*
X168954591Y-104971915D01*
X168913110Y-104976000D01*
X168236890Y-104976000D01*
X168195409Y-104971915D01*
X168161431Y-104961607D01*
X168130110Y-104944866D01*
X168102661Y-104922339D01*
X168080134Y-104894890D01*
X168063393Y-104863569D01*
X168053085Y-104829591D01*
X168049000Y-104788110D01*
X168049000Y-104186890D01*
X168053085Y-104145409D01*
X168063393Y-104111431D01*
X168080134Y-104080110D01*
X168102661Y-104052661D01*
X168130110Y-104030134D01*
X168161431Y-104013393D01*
X168195409Y-104003085D01*
X168236890Y-103999000D01*
X168913110Y-103999000D01*
X168954591Y-104003085D01*
G37*
G36*
X152454591Y-103053085D02*
G01*
X152488569Y-103063393D01*
X152519890Y-103080134D01*
X152547339Y-103102661D01*
X152569866Y-103130110D01*
X152586607Y-103161431D01*
X152596915Y-103195409D01*
X152601000Y-103236890D01*
X152601000Y-103838110D01*
X152596915Y-103879591D01*
X152586607Y-103913569D01*
X152569866Y-103944890D01*
X152547339Y-103972339D01*
X152519890Y-103994866D01*
X152488569Y-104011607D01*
X152454591Y-104021915D01*
X152413110Y-104026000D01*
X151736890Y-104026000D01*
X151695409Y-104021915D01*
X151661431Y-104011607D01*
X151630110Y-103994866D01*
X151602661Y-103972339D01*
X151580134Y-103944890D01*
X151563393Y-103913569D01*
X151553085Y-103879591D01*
X151549000Y-103838110D01*
X151549000Y-103236890D01*
X151553085Y-103195409D01*
X151563393Y-103161431D01*
X151580134Y-103130110D01*
X151602661Y-103102661D01*
X151630110Y-103080134D01*
X151661431Y-103063393D01*
X151695409Y-103053085D01*
X151736890Y-103049000D01*
X152413110Y-103049000D01*
X152454591Y-103053085D01*
G37*
G36*
X173013468Y-101897565D02*
G01*
X173052138Y-101909296D01*
X173087777Y-101928346D01*
X173119017Y-101953983D01*
X173144654Y-101985223D01*
X173163704Y-102020862D01*
X173175435Y-102059532D01*
X173180000Y-102105888D01*
X173180000Y-102757112D01*
X173175435Y-102803468D01*
X173163704Y-102842138D01*
X173144654Y-102877777D01*
X173119017Y-102909017D01*
X173087777Y-102934654D01*
X173052138Y-102953704D01*
X173013468Y-102965435D01*
X172967112Y-102970000D01*
X171890888Y-102970000D01*
X171844532Y-102965435D01*
X171805862Y-102953704D01*
X171770223Y-102934654D01*
X171738983Y-102909017D01*
X171713346Y-102877777D01*
X171694296Y-102842138D01*
X171682565Y-102803468D01*
X171678000Y-102757112D01*
X171678000Y-102105888D01*
X171682565Y-102059532D01*
X171694296Y-102020862D01*
X171713346Y-101985223D01*
X171738983Y-101953983D01*
X171770223Y-101928346D01*
X171805862Y-101909296D01*
X171844532Y-101897565D01*
X171890888Y-101893000D01*
X172967112Y-101893000D01*
X173013468Y-101897565D01*
G37*
G36*
X177839468Y-101897565D02*
G01*
X177878138Y-101909296D01*
X177913777Y-101928346D01*
X177945017Y-101953983D01*
X177970654Y-101985223D01*
X177989704Y-102020862D01*
X178001435Y-102059532D01*
X178006000Y-102105888D01*
X178006000Y-102757112D01*
X178001435Y-102803468D01*
X177989704Y-102842138D01*
X177970654Y-102877777D01*
X177945017Y-102909017D01*
X177913777Y-102934654D01*
X177878138Y-102953704D01*
X177839468Y-102965435D01*
X177793112Y-102970000D01*
X176716888Y-102970000D01*
X176670532Y-102965435D01*
X176631862Y-102953704D01*
X176596223Y-102934654D01*
X176564983Y-102909017D01*
X176539346Y-102877777D01*
X176520296Y-102842138D01*
X176508565Y-102803468D01*
X176504000Y-102757112D01*
X176504000Y-102105888D01*
X176508565Y-102059532D01*
X176520296Y-102020862D01*
X176539346Y-101985223D01*
X176564983Y-101953983D01*
X176596223Y-101928346D01*
X176631862Y-101909296D01*
X176670532Y-101897565D01*
X176716888Y-101893000D01*
X177793112Y-101893000D01*
X177839468Y-101897565D01*
G37*
G36*
X142964512Y-101143927D02*
G01*
X143113812Y-101173624D01*
X143277784Y-101241544D01*
X143425354Y-101340147D01*
X143550853Y-101465646D01*
X143649456Y-101613216D01*
X143717376Y-101777188D01*
X143752000Y-101951259D01*
X143752000Y-102128741D01*
X143717376Y-102302812D01*
X143649456Y-102466784D01*
X143550853Y-102614354D01*
X143425354Y-102739853D01*
X143277784Y-102838456D01*
X143113812Y-102906376D01*
X142971645Y-102934654D01*
X142939742Y-102941000D01*
X142762258Y-102941000D01*
X142730355Y-102934654D01*
X142588188Y-102906376D01*
X142424216Y-102838456D01*
X142276646Y-102739853D01*
X142151147Y-102614354D01*
X142052544Y-102466784D01*
X141984624Y-102302812D01*
X141950000Y-102128741D01*
X141950000Y-101951259D01*
X141984624Y-101777188D01*
X142052544Y-101613216D01*
X142151147Y-101465646D01*
X142276646Y-101340147D01*
X142424216Y-101241544D01*
X142588188Y-101173624D01*
X142737488Y-101143927D01*
X142762258Y-101139000D01*
X142939742Y-101139000D01*
X142964512Y-101143927D01*
G37*
G36*
X147217091Y-101553085D02*
G01*
X147251069Y-101563393D01*
X147282390Y-101580134D01*
X147309839Y-101602661D01*
X147332366Y-101630110D01*
X147349107Y-101661431D01*
X147359415Y-101695409D01*
X147363500Y-101736890D01*
X147363500Y-102413110D01*
X147359415Y-102454591D01*
X147349107Y-102488569D01*
X147332366Y-102519890D01*
X147309839Y-102547339D01*
X147282390Y-102569866D01*
X147251069Y-102586607D01*
X147217091Y-102596915D01*
X147175610Y-102601000D01*
X146574390Y-102601000D01*
X146532909Y-102596915D01*
X146498931Y-102586607D01*
X146467610Y-102569866D01*
X146440161Y-102547339D01*
X146417634Y-102519890D01*
X146400893Y-102488569D01*
X146390585Y-102454591D01*
X146386500Y-102413110D01*
X146386500Y-101736890D01*
X146390585Y-101695409D01*
X146400893Y-101661431D01*
X146417634Y-101630110D01*
X146440161Y-101602661D01*
X146467610Y-101580134D01*
X146498931Y-101563393D01*
X146532909Y-101553085D01*
X146574390Y-101549000D01*
X147175610Y-101549000D01*
X147217091Y-101553085D01*
G37*
G36*
X148792091Y-101553085D02*
G01*
X148826069Y-101563393D01*
X148857390Y-101580134D01*
X148884839Y-101602661D01*
X148907366Y-101630110D01*
X148924107Y-101661431D01*
X148934415Y-101695409D01*
X148938500Y-101736890D01*
X148938500Y-102413110D01*
X148934415Y-102454591D01*
X148924107Y-102488569D01*
X148907366Y-102519890D01*
X148884839Y-102547339D01*
X148857390Y-102569866D01*
X148826069Y-102586607D01*
X148792091Y-102596915D01*
X148750610Y-102601000D01*
X148149390Y-102601000D01*
X148107909Y-102596915D01*
X148073931Y-102586607D01*
X148042610Y-102569866D01*
X148015161Y-102547339D01*
X147992634Y-102519890D01*
X147975893Y-102488569D01*
X147965585Y-102454591D01*
X147961500Y-102413110D01*
X147961500Y-101736890D01*
X147965585Y-101695409D01*
X147975893Y-101661431D01*
X147992634Y-101630110D01*
X148015161Y-101602661D01*
X148042610Y-101580134D01*
X148073931Y-101563393D01*
X148107909Y-101553085D01*
X148149390Y-101549000D01*
X148750610Y-101549000D01*
X148792091Y-101553085D01*
G37*
G36*
X152454591Y-101478085D02*
G01*
X152488569Y-101488393D01*
X152519890Y-101505134D01*
X152547339Y-101527661D01*
X152569866Y-101555110D01*
X152586607Y-101586431D01*
X152596915Y-101620409D01*
X152601000Y-101661890D01*
X152601000Y-102263110D01*
X152596915Y-102304591D01*
X152586607Y-102338569D01*
X152569866Y-102369890D01*
X152547339Y-102397339D01*
X152519890Y-102419866D01*
X152488569Y-102436607D01*
X152454591Y-102446915D01*
X152413110Y-102451000D01*
X151736890Y-102451000D01*
X151695409Y-102446915D01*
X151661431Y-102436607D01*
X151630110Y-102419866D01*
X151602661Y-102397339D01*
X151580134Y-102369890D01*
X151563393Y-102338569D01*
X151553085Y-102304591D01*
X151549000Y-102263110D01*
X151549000Y-101661890D01*
X151553085Y-101620409D01*
X151563393Y-101586431D01*
X151580134Y-101555110D01*
X151602661Y-101527661D01*
X151630110Y-101505134D01*
X151661431Y-101488393D01*
X151695409Y-101478085D01*
X151736890Y-101474000D01*
X152413110Y-101474000D01*
X152454591Y-101478085D01*
G37*
G36*
X177839468Y-100022565D02*
G01*
X177878138Y-100034296D01*
X177913777Y-100053346D01*
X177945017Y-100078983D01*
X177970654Y-100110223D01*
X177989704Y-100145862D01*
X178001435Y-100184532D01*
X178006000Y-100230888D01*
X178006000Y-100882112D01*
X178001435Y-100928468D01*
X177989704Y-100967138D01*
X177970654Y-101002777D01*
X177945017Y-101034017D01*
X177913777Y-101059654D01*
X177878138Y-101078704D01*
X177839468Y-101090435D01*
X177793112Y-101095000D01*
X176716888Y-101095000D01*
X176670532Y-101090435D01*
X176631862Y-101078704D01*
X176596223Y-101059654D01*
X176564983Y-101034017D01*
X176539346Y-101002777D01*
X176520296Y-100967138D01*
X176508565Y-100928468D01*
X176504000Y-100882112D01*
X176504000Y-100230888D01*
X176508565Y-100184532D01*
X176520296Y-100145862D01*
X176539346Y-100110223D01*
X176564983Y-100078983D01*
X176596223Y-100053346D01*
X176631862Y-100034296D01*
X176670532Y-100022565D01*
X176716888Y-100018000D01*
X177793112Y-100018000D01*
X177839468Y-100022565D01*
G37*
G36*
X173013468Y-100022565D02*
G01*
X173052138Y-100034296D01*
X173087777Y-100053346D01*
X173119017Y-100078983D01*
X173144654Y-100110223D01*
X173163704Y-100145862D01*
X173175435Y-100184532D01*
X173180000Y-100230888D01*
X173180000Y-100882112D01*
X173175435Y-100928468D01*
X173163704Y-100967138D01*
X173144654Y-101002777D01*
X173119017Y-101034017D01*
X173087777Y-101059654D01*
X173052138Y-101078704D01*
X173013468Y-101090435D01*
X172967112Y-101095000D01*
X171890888Y-101095000D01*
X171844532Y-101090435D01*
X171805862Y-101078704D01*
X171770223Y-101059654D01*
X171738983Y-101034017D01*
X171713346Y-101002777D01*
X171694296Y-100967138D01*
X171682565Y-100928468D01*
X171678000Y-100882112D01*
X171678000Y-100230888D01*
X171682565Y-100184532D01*
X171694296Y-100145862D01*
X171713346Y-100110223D01*
X171738983Y-100078983D01*
X171770223Y-100053346D01*
X171805862Y-100034296D01*
X171844532Y-100022565D01*
X171890888Y-100018000D01*
X172967112Y-100018000D01*
X173013468Y-100022565D01*
G37*
G36*
X148817091Y-99653085D02*
G01*
X148851069Y-99663393D01*
X148882390Y-99680134D01*
X148909839Y-99702661D01*
X148932366Y-99730110D01*
X148949107Y-99761431D01*
X148959415Y-99795409D01*
X148963500Y-99836890D01*
X148963500Y-100513110D01*
X148959415Y-100554591D01*
X148949107Y-100588569D01*
X148932366Y-100619890D01*
X148909839Y-100647339D01*
X148882390Y-100669866D01*
X148851069Y-100686607D01*
X148817091Y-100696915D01*
X148775610Y-100701000D01*
X148174390Y-100701000D01*
X148132909Y-100696915D01*
X148098931Y-100686607D01*
X148067610Y-100669866D01*
X148040161Y-100647339D01*
X148017634Y-100619890D01*
X148000893Y-100588569D01*
X147990585Y-100554591D01*
X147986500Y-100513110D01*
X147986500Y-99836890D01*
X147990585Y-99795409D01*
X148000893Y-99761431D01*
X148017634Y-99730110D01*
X148040161Y-99702661D01*
X148067610Y-99680134D01*
X148098931Y-99663393D01*
X148132909Y-99653085D01*
X148174390Y-99649000D01*
X148775610Y-99649000D01*
X148817091Y-99653085D01*
G37*
G36*
X147242091Y-99653085D02*
G01*
X147276069Y-99663393D01*
X147307390Y-99680134D01*
X147334839Y-99702661D01*
X147357366Y-99730110D01*
X147374107Y-99761431D01*
X147384415Y-99795409D01*
X147388500Y-99836890D01*
X147388500Y-100513110D01*
X147384415Y-100554591D01*
X147374107Y-100588569D01*
X147357366Y-100619890D01*
X147334839Y-100647339D01*
X147307390Y-100669866D01*
X147276069Y-100686607D01*
X147242091Y-100696915D01*
X147200610Y-100701000D01*
X146599390Y-100701000D01*
X146557909Y-100696915D01*
X146523931Y-100686607D01*
X146492610Y-100669866D01*
X146465161Y-100647339D01*
X146442634Y-100619890D01*
X146425893Y-100588569D01*
X146415585Y-100554591D01*
X146411500Y-100513110D01*
X146411500Y-99836890D01*
X146415585Y-99795409D01*
X146425893Y-99761431D01*
X146442634Y-99730110D01*
X146465161Y-99702661D01*
X146492610Y-99680134D01*
X146523931Y-99663393D01*
X146557909Y-99653085D01*
X146599390Y-99649000D01*
X147200610Y-99649000D01*
X147242091Y-99653085D01*
G37*
G36*
X142964512Y-98603927D02*
G01*
X143113812Y-98633624D01*
X143277784Y-98701544D01*
X143425354Y-98800147D01*
X143550853Y-98925646D01*
X143649456Y-99073216D01*
X143717376Y-99237188D01*
X143752000Y-99411259D01*
X143752000Y-99588741D01*
X143717376Y-99762812D01*
X143649456Y-99926784D01*
X143550853Y-100074354D01*
X143425354Y-100199853D01*
X143277784Y-100298456D01*
X143113812Y-100366376D01*
X142964512Y-100396073D01*
X142939742Y-100401000D01*
X142762258Y-100401000D01*
X142737488Y-100396073D01*
X142588188Y-100366376D01*
X142424216Y-100298456D01*
X142276646Y-100199853D01*
X142151147Y-100074354D01*
X142052544Y-99926784D01*
X141984624Y-99762812D01*
X141950000Y-99588741D01*
X141950000Y-99411259D01*
X141984624Y-99237188D01*
X142052544Y-99073216D01*
X142151147Y-98925646D01*
X142276646Y-98800147D01*
X142424216Y-98701544D01*
X142588188Y-98633624D01*
X142737488Y-98603927D01*
X142762258Y-98599000D01*
X142939742Y-98599000D01*
X142964512Y-98603927D01*
G37*
G36*
X177839468Y-97931565D02*
G01*
X177878138Y-97943296D01*
X177913777Y-97962346D01*
X177945017Y-97987983D01*
X177970654Y-98019223D01*
X177989704Y-98054862D01*
X178001435Y-98093532D01*
X178006000Y-98139888D01*
X178006000Y-98791112D01*
X178001435Y-98837468D01*
X177989704Y-98876138D01*
X177970654Y-98911777D01*
X177945017Y-98943017D01*
X177913777Y-98968654D01*
X177878138Y-98987704D01*
X177839468Y-98999435D01*
X177793112Y-99004000D01*
X176716888Y-99004000D01*
X176670532Y-98999435D01*
X176631862Y-98987704D01*
X176596223Y-98968654D01*
X176564983Y-98943017D01*
X176539346Y-98911777D01*
X176520296Y-98876138D01*
X176508565Y-98837468D01*
X176504000Y-98791112D01*
X176504000Y-98139888D01*
X176508565Y-98093532D01*
X176520296Y-98054862D01*
X176539346Y-98019223D01*
X176564983Y-97987983D01*
X176596223Y-97962346D01*
X176631862Y-97943296D01*
X176670532Y-97931565D01*
X176716888Y-97927000D01*
X177793112Y-97927000D01*
X177839468Y-97931565D01*
G37*
G36*
X173013468Y-97931565D02*
G01*
X173052138Y-97943296D01*
X173087777Y-97962346D01*
X173119017Y-97987983D01*
X173144654Y-98019223D01*
X173163704Y-98054862D01*
X173175435Y-98093532D01*
X173180000Y-98139888D01*
X173180000Y-98791112D01*
X173175435Y-98837468D01*
X173163704Y-98876138D01*
X173144654Y-98911777D01*
X173119017Y-98943017D01*
X173087777Y-98968654D01*
X173052138Y-98987704D01*
X173013468Y-98999435D01*
X172967112Y-99004000D01*
X171890888Y-99004000D01*
X171844532Y-98999435D01*
X171805862Y-98987704D01*
X171770223Y-98968654D01*
X171738983Y-98943017D01*
X171713346Y-98911777D01*
X171694296Y-98876138D01*
X171682565Y-98837468D01*
X171678000Y-98791112D01*
X171678000Y-98139888D01*
X171682565Y-98093532D01*
X171694296Y-98054862D01*
X171713346Y-98019223D01*
X171738983Y-97987983D01*
X171770223Y-97962346D01*
X171805862Y-97943296D01*
X171844532Y-97931565D01*
X171890888Y-97927000D01*
X172967112Y-97927000D01*
X173013468Y-97931565D01*
G37*
G36*
X169379591Y-97703085D02*
G01*
X169413569Y-97713393D01*
X169444890Y-97730134D01*
X169472339Y-97752661D01*
X169494866Y-97780110D01*
X169511607Y-97811431D01*
X169521915Y-97845409D01*
X169526000Y-97886890D01*
X169526000Y-98488110D01*
X169521915Y-98529591D01*
X169511607Y-98563569D01*
X169494866Y-98594890D01*
X169472339Y-98622339D01*
X169444890Y-98644866D01*
X169413569Y-98661607D01*
X169379591Y-98671915D01*
X169338110Y-98676000D01*
X168661890Y-98676000D01*
X168620409Y-98671915D01*
X168586431Y-98661607D01*
X168555110Y-98644866D01*
X168527661Y-98622339D01*
X168505134Y-98594890D01*
X168488393Y-98563569D01*
X168478085Y-98529591D01*
X168474000Y-98488110D01*
X168474000Y-97886890D01*
X168478085Y-97845409D01*
X168488393Y-97811431D01*
X168505134Y-97780110D01*
X168527661Y-97752661D01*
X168555110Y-97730134D01*
X168586431Y-97713393D01*
X168620409Y-97703085D01*
X168661890Y-97699000D01*
X169338110Y-97699000D01*
X169379591Y-97703085D01*
G37*
G36*
X149318604Y-96203347D02*
G01*
X149355144Y-96214432D01*
X149388821Y-96232433D01*
X149418341Y-96256659D01*
X149442567Y-96286179D01*
X149460568Y-96319856D01*
X149471653Y-96356396D01*
X149476000Y-96400538D01*
X149476000Y-97849462D01*
X149471653Y-97893604D01*
X149460568Y-97930144D01*
X149442567Y-97963821D01*
X149418341Y-97993341D01*
X149388821Y-98017567D01*
X149355144Y-98035568D01*
X149318604Y-98046653D01*
X149274462Y-98051000D01*
X148325538Y-98051000D01*
X148281396Y-98046653D01*
X148244856Y-98035568D01*
X148211179Y-98017567D01*
X148181659Y-97993341D01*
X148157433Y-97963821D01*
X148139432Y-97930144D01*
X148128347Y-97893604D01*
X148124000Y-97849462D01*
X148124000Y-96400538D01*
X148128347Y-96356396D01*
X148139432Y-96319856D01*
X148157433Y-96286179D01*
X148181659Y-96256659D01*
X148211179Y-96232433D01*
X148244856Y-96214432D01*
X148281396Y-96203347D01*
X148325538Y-96199000D01*
X149274462Y-96199000D01*
X149318604Y-96203347D01*
G37*
G36*
X146518604Y-96203347D02*
G01*
X146555144Y-96214432D01*
X146588821Y-96232433D01*
X146618341Y-96256659D01*
X146642567Y-96286179D01*
X146660568Y-96319856D01*
X146671653Y-96356396D01*
X146676000Y-96400538D01*
X146676000Y-97849462D01*
X146671653Y-97893604D01*
X146660568Y-97930144D01*
X146642567Y-97963821D01*
X146618341Y-97993341D01*
X146588821Y-98017567D01*
X146555144Y-98035568D01*
X146518604Y-98046653D01*
X146474462Y-98051000D01*
X145525538Y-98051000D01*
X145481396Y-98046653D01*
X145444856Y-98035568D01*
X145411179Y-98017567D01*
X145381659Y-97993341D01*
X145357433Y-97963821D01*
X145339432Y-97930144D01*
X145328347Y-97893604D01*
X145324000Y-97849462D01*
X145324000Y-96400538D01*
X145328347Y-96356396D01*
X145339432Y-96319856D01*
X145357433Y-96286179D01*
X145381659Y-96256659D01*
X145411179Y-96232433D01*
X145444856Y-96214432D01*
X145481396Y-96203347D01*
X145525538Y-96199000D01*
X146474462Y-96199000D01*
X146518604Y-96203347D01*
G37*
G36*
X165201000Y-97951000D02*
G01*
X156549000Y-97951000D01*
X156549000Y-96349000D01*
X165201000Y-96349000D01*
X165201000Y-97951000D01*
G37*
G36*
X143752000Y-97861000D02*
G01*
X141950000Y-97861000D01*
X141950000Y-96059000D01*
X143752000Y-96059000D01*
X143752000Y-97861000D01*
G37*
G36*
X177839468Y-96056565D02*
G01*
X177878138Y-96068296D01*
X177913777Y-96087346D01*
X177945017Y-96112983D01*
X177970654Y-96144223D01*
X177989704Y-96179862D01*
X178001435Y-96218532D01*
X178006000Y-96264888D01*
X178006000Y-96916112D01*
X178001435Y-96962468D01*
X177989704Y-97001138D01*
X177970654Y-97036777D01*
X177945017Y-97068017D01*
X177913777Y-97093654D01*
X177878138Y-97112704D01*
X177839468Y-97124435D01*
X177793112Y-97129000D01*
X176716888Y-97129000D01*
X176670532Y-97124435D01*
X176631862Y-97112704D01*
X176596223Y-97093654D01*
X176564983Y-97068017D01*
X176539346Y-97036777D01*
X176520296Y-97001138D01*
X176508565Y-96962468D01*
X176504000Y-96916112D01*
X176504000Y-96264888D01*
X176508565Y-96218532D01*
X176520296Y-96179862D01*
X176539346Y-96144223D01*
X176564983Y-96112983D01*
X176596223Y-96087346D01*
X176631862Y-96068296D01*
X176670532Y-96056565D01*
X176716888Y-96052000D01*
X177793112Y-96052000D01*
X177839468Y-96056565D01*
G37*
G36*
X173013468Y-96056565D02*
G01*
X173052138Y-96068296D01*
X173087777Y-96087346D01*
X173119017Y-96112983D01*
X173144654Y-96144223D01*
X173163704Y-96179862D01*
X173175435Y-96218532D01*
X173180000Y-96264888D01*
X173180000Y-96916112D01*
X173175435Y-96962468D01*
X173163704Y-97001138D01*
X173144654Y-97036777D01*
X173119017Y-97068017D01*
X173087777Y-97093654D01*
X173052138Y-97112704D01*
X173013468Y-97124435D01*
X172967112Y-97129000D01*
X171890888Y-97129000D01*
X171844532Y-97124435D01*
X171805862Y-97112704D01*
X171770223Y-97093654D01*
X171738983Y-97068017D01*
X171713346Y-97036777D01*
X171694296Y-97001138D01*
X171682565Y-96962468D01*
X171678000Y-96916112D01*
X171678000Y-96264888D01*
X171682565Y-96218532D01*
X171694296Y-96179862D01*
X171713346Y-96144223D01*
X171738983Y-96112983D01*
X171770223Y-96087346D01*
X171805862Y-96068296D01*
X171844532Y-96056565D01*
X171890888Y-96052000D01*
X172967112Y-96052000D01*
X173013468Y-96056565D01*
G37*
G36*
X169379591Y-96128085D02*
G01*
X169413569Y-96138393D01*
X169444890Y-96155134D01*
X169472339Y-96177661D01*
X169494866Y-96205110D01*
X169511607Y-96236431D01*
X169521915Y-96270409D01*
X169526000Y-96311890D01*
X169526000Y-96913110D01*
X169521915Y-96954591D01*
X169511607Y-96988569D01*
X169494866Y-97019890D01*
X169472339Y-97047339D01*
X169444890Y-97069866D01*
X169413569Y-97086607D01*
X169379591Y-97096915D01*
X169338110Y-97101000D01*
X168661890Y-97101000D01*
X168620409Y-97096915D01*
X168586431Y-97086607D01*
X168555110Y-97069866D01*
X168527661Y-97047339D01*
X168505134Y-97019890D01*
X168488393Y-96988569D01*
X168478085Y-96954591D01*
X168474000Y-96913110D01*
X168474000Y-96311890D01*
X168478085Y-96270409D01*
X168488393Y-96236431D01*
X168505134Y-96205110D01*
X168527661Y-96177661D01*
X168555110Y-96155134D01*
X168586431Y-96138393D01*
X168620409Y-96128085D01*
X168661890Y-96124000D01*
X169338110Y-96124000D01*
X169379591Y-96128085D01*
G37*
G36*
X163989591Y-94878085D02*
G01*
X164023569Y-94888393D01*
X164054890Y-94905134D01*
X164082339Y-94927661D01*
X164104866Y-94955110D01*
X164121607Y-94986431D01*
X164131915Y-95020409D01*
X164136000Y-95061890D01*
X164136000Y-95738110D01*
X164131915Y-95779591D01*
X164121607Y-95813569D01*
X164104866Y-95844890D01*
X164082339Y-95872339D01*
X164054890Y-95894866D01*
X164023569Y-95911607D01*
X163989591Y-95921915D01*
X163948110Y-95926000D01*
X163346890Y-95926000D01*
X163305409Y-95921915D01*
X163271431Y-95911607D01*
X163240110Y-95894866D01*
X163212661Y-95872339D01*
X163190134Y-95844890D01*
X163173393Y-95813569D01*
X163163085Y-95779591D01*
X163159000Y-95738110D01*
X163159000Y-95061890D01*
X163163085Y-95020409D01*
X163173393Y-94986431D01*
X163190134Y-94955110D01*
X163212661Y-94927661D01*
X163240110Y-94905134D01*
X163271431Y-94888393D01*
X163305409Y-94878085D01*
X163346890Y-94874000D01*
X163948110Y-94874000D01*
X163989591Y-94878085D01*
G37*
G36*
X165564591Y-94878085D02*
G01*
X165598569Y-94888393D01*
X165629890Y-94905134D01*
X165657339Y-94927661D01*
X165679866Y-94955110D01*
X165696607Y-94986431D01*
X165706915Y-95020409D01*
X165711000Y-95061890D01*
X165711000Y-95738110D01*
X165706915Y-95779591D01*
X165696607Y-95813569D01*
X165679866Y-95844890D01*
X165657339Y-95872339D01*
X165629890Y-95894866D01*
X165598569Y-95911607D01*
X165564591Y-95921915D01*
X165523110Y-95926000D01*
X164921890Y-95926000D01*
X164880409Y-95921915D01*
X164846431Y-95911607D01*
X164815110Y-95894866D01*
X164787661Y-95872339D01*
X164765134Y-95844890D01*
X164748393Y-95813569D01*
X164738085Y-95779591D01*
X164734000Y-95738110D01*
X164734000Y-95061890D01*
X164738085Y-95020409D01*
X164748393Y-94986431D01*
X164765134Y-94955110D01*
X164787661Y-94927661D01*
X164815110Y-94905134D01*
X164846431Y-94888393D01*
X164880409Y-94878085D01*
X164921890Y-94874000D01*
X165523110Y-94874000D01*
X165564591Y-94878085D01*
G37*
G36*
X156429591Y-94678085D02*
G01*
X156463569Y-94688393D01*
X156494890Y-94705134D01*
X156522339Y-94727661D01*
X156544866Y-94755110D01*
X156561607Y-94786431D01*
X156571915Y-94820409D01*
X156576000Y-94861890D01*
X156576000Y-95538110D01*
X156571915Y-95579591D01*
X156561607Y-95613569D01*
X156544866Y-95644890D01*
X156522339Y-95672339D01*
X156494890Y-95694866D01*
X156463569Y-95711607D01*
X156429591Y-95721915D01*
X156388110Y-95726000D01*
X155786890Y-95726000D01*
X155745409Y-95721915D01*
X155711431Y-95711607D01*
X155680110Y-95694866D01*
X155652661Y-95672339D01*
X155630134Y-95644890D01*
X155613393Y-95613569D01*
X155603085Y-95579591D01*
X155599000Y-95538110D01*
X155599000Y-94861890D01*
X155603085Y-94820409D01*
X155613393Y-94786431D01*
X155630134Y-94755110D01*
X155652661Y-94727661D01*
X155680110Y-94705134D01*
X155711431Y-94688393D01*
X155745409Y-94678085D01*
X155786890Y-94674000D01*
X156388110Y-94674000D01*
X156429591Y-94678085D01*
G37*
G36*
X154854591Y-94678085D02*
G01*
X154888569Y-94688393D01*
X154919890Y-94705134D01*
X154947339Y-94727661D01*
X154969866Y-94755110D01*
X154986607Y-94786431D01*
X154996915Y-94820409D01*
X155001000Y-94861890D01*
X155001000Y-95538110D01*
X154996915Y-95579591D01*
X154986607Y-95613569D01*
X154969866Y-95644890D01*
X154947339Y-95672339D01*
X154919890Y-95694866D01*
X154888569Y-95711607D01*
X154854591Y-95721915D01*
X154813110Y-95726000D01*
X154211890Y-95726000D01*
X154170409Y-95721915D01*
X154136431Y-95711607D01*
X154105110Y-95694866D01*
X154077661Y-95672339D01*
X154055134Y-95644890D01*
X154038393Y-95613569D01*
X154028085Y-95579591D01*
X154024000Y-95538110D01*
X154024000Y-94861890D01*
X154028085Y-94820409D01*
X154038393Y-94786431D01*
X154055134Y-94755110D01*
X154077661Y-94727661D01*
X154105110Y-94705134D01*
X154136431Y-94688393D01*
X154170409Y-94678085D01*
X154211890Y-94674000D01*
X154813110Y-94674000D01*
X154854591Y-94678085D01*
G37*
G36*
X160979591Y-94678085D02*
G01*
X161013569Y-94688393D01*
X161044890Y-94705134D01*
X161072339Y-94727661D01*
X161094866Y-94755110D01*
X161111607Y-94786431D01*
X161121915Y-94820409D01*
X161126000Y-94861890D01*
X161126000Y-95538110D01*
X161121915Y-95579591D01*
X161111607Y-95613569D01*
X161094866Y-95644890D01*
X161072339Y-95672339D01*
X161044890Y-95694866D01*
X161013569Y-95711607D01*
X160979591Y-95721915D01*
X160938110Y-95726000D01*
X160336890Y-95726000D01*
X160295409Y-95721915D01*
X160261431Y-95711607D01*
X160230110Y-95694866D01*
X160202661Y-95672339D01*
X160180134Y-95644890D01*
X160163393Y-95613569D01*
X160153085Y-95579591D01*
X160149000Y-95538110D01*
X160149000Y-94861890D01*
X160153085Y-94820409D01*
X160163393Y-94786431D01*
X160180134Y-94755110D01*
X160202661Y-94727661D01*
X160230110Y-94705134D01*
X160261431Y-94688393D01*
X160295409Y-94678085D01*
X160336890Y-94674000D01*
X160938110Y-94674000D01*
X160979591Y-94678085D01*
G37*
G36*
X159404591Y-94678085D02*
G01*
X159438569Y-94688393D01*
X159469890Y-94705134D01*
X159497339Y-94727661D01*
X159519866Y-94755110D01*
X159536607Y-94786431D01*
X159546915Y-94820409D01*
X159551000Y-94861890D01*
X159551000Y-95538110D01*
X159546915Y-95579591D01*
X159536607Y-95613569D01*
X159519866Y-95644890D01*
X159497339Y-95672339D01*
X159469890Y-95694866D01*
X159438569Y-95711607D01*
X159404591Y-95721915D01*
X159363110Y-95726000D01*
X158761890Y-95726000D01*
X158720409Y-95721915D01*
X158686431Y-95711607D01*
X158655110Y-95694866D01*
X158627661Y-95672339D01*
X158605134Y-95644890D01*
X158588393Y-95613569D01*
X158578085Y-95579591D01*
X158574000Y-95538110D01*
X158574000Y-94861890D01*
X158578085Y-94820409D01*
X158588393Y-94786431D01*
X158605134Y-94755110D01*
X158627661Y-94727661D01*
X158655110Y-94705134D01*
X158686431Y-94688393D01*
X158720409Y-94678085D01*
X158761890Y-94674000D01*
X159363110Y-94674000D01*
X159404591Y-94678085D01*
G37*
G36*
X146117091Y-94203085D02*
G01*
X146151069Y-94213393D01*
X146182390Y-94230134D01*
X146209839Y-94252661D01*
X146232366Y-94280110D01*
X146249107Y-94311431D01*
X146259415Y-94345409D01*
X146263500Y-94386890D01*
X146263500Y-95063110D01*
X146259415Y-95104591D01*
X146249107Y-95138569D01*
X146232366Y-95169890D01*
X146209839Y-95197339D01*
X146182390Y-95219866D01*
X146151069Y-95236607D01*
X146117091Y-95246915D01*
X146075610Y-95251000D01*
X145474390Y-95251000D01*
X145432909Y-95246915D01*
X145398931Y-95236607D01*
X145367610Y-95219866D01*
X145340161Y-95197339D01*
X145317634Y-95169890D01*
X145300893Y-95138569D01*
X145290585Y-95104591D01*
X145286500Y-95063110D01*
X145286500Y-94386890D01*
X145290585Y-94345409D01*
X145300893Y-94311431D01*
X145317634Y-94280110D01*
X145340161Y-94252661D01*
X145367610Y-94230134D01*
X145398931Y-94213393D01*
X145432909Y-94203085D01*
X145474390Y-94199000D01*
X146075610Y-94199000D01*
X146117091Y-94203085D01*
G37*
G36*
X147692091Y-94203085D02*
G01*
X147726069Y-94213393D01*
X147757390Y-94230134D01*
X147784839Y-94252661D01*
X147807366Y-94280110D01*
X147824107Y-94311431D01*
X147834415Y-94345409D01*
X147838500Y-94386890D01*
X147838500Y-95063110D01*
X147834415Y-95104591D01*
X147824107Y-95138569D01*
X147807366Y-95169890D01*
X147784839Y-95197339D01*
X147757390Y-95219866D01*
X147726069Y-95236607D01*
X147692091Y-95246915D01*
X147650610Y-95251000D01*
X147049390Y-95251000D01*
X147007909Y-95246915D01*
X146973931Y-95236607D01*
X146942610Y-95219866D01*
X146915161Y-95197339D01*
X146892634Y-95169890D01*
X146875893Y-95138569D01*
X146865585Y-95104591D01*
X146861500Y-95063110D01*
X146861500Y-94386890D01*
X146865585Y-94345409D01*
X146875893Y-94311431D01*
X146892634Y-94280110D01*
X146915161Y-94252661D01*
X146942610Y-94230134D01*
X146973931Y-94213393D01*
X147007909Y-94203085D01*
X147049390Y-94199000D01*
X147650610Y-94199000D01*
X147692091Y-94203085D01*
G37*
G36*
X173664591Y-93803085D02*
G01*
X173698569Y-93813393D01*
X173729890Y-93830134D01*
X173757339Y-93852661D01*
X173779866Y-93880110D01*
X173796607Y-93911431D01*
X173806915Y-93945409D01*
X173811000Y-93986890D01*
X173811000Y-94663110D01*
X173806915Y-94704591D01*
X173796607Y-94738569D01*
X173779866Y-94769890D01*
X173757339Y-94797339D01*
X173729890Y-94819866D01*
X173698569Y-94836607D01*
X173664591Y-94846915D01*
X173623110Y-94851000D01*
X173021890Y-94851000D01*
X172980409Y-94846915D01*
X172946431Y-94836607D01*
X172915110Y-94819866D01*
X172887661Y-94797339D01*
X172865134Y-94769890D01*
X172848393Y-94738569D01*
X172838085Y-94704591D01*
X172834000Y-94663110D01*
X172834000Y-93986890D01*
X172838085Y-93945409D01*
X172848393Y-93911431D01*
X172865134Y-93880110D01*
X172887661Y-93852661D01*
X172915110Y-93830134D01*
X172946431Y-93813393D01*
X172980409Y-93803085D01*
X173021890Y-93799000D01*
X173623110Y-93799000D01*
X173664591Y-93803085D01*
G37*
G36*
X178369591Y-93803085D02*
G01*
X178403569Y-93813393D01*
X178434890Y-93830134D01*
X178462339Y-93852661D01*
X178484866Y-93880110D01*
X178501607Y-93911431D01*
X178511915Y-93945409D01*
X178516000Y-93986890D01*
X178516000Y-94663110D01*
X178511915Y-94704591D01*
X178501607Y-94738569D01*
X178484866Y-94769890D01*
X178462339Y-94797339D01*
X178434890Y-94819866D01*
X178403569Y-94836607D01*
X178369591Y-94846915D01*
X178328110Y-94851000D01*
X177726890Y-94851000D01*
X177685409Y-94846915D01*
X177651431Y-94836607D01*
X177620110Y-94819866D01*
X177592661Y-94797339D01*
X177570134Y-94769890D01*
X177553393Y-94738569D01*
X177543085Y-94704591D01*
X177539000Y-94663110D01*
X177539000Y-93986890D01*
X177543085Y-93945409D01*
X177553393Y-93911431D01*
X177570134Y-93880110D01*
X177592661Y-93852661D01*
X177620110Y-93830134D01*
X177651431Y-93813393D01*
X177685409Y-93803085D01*
X177726890Y-93799000D01*
X178328110Y-93799000D01*
X178369591Y-93803085D01*
G37*
G36*
X172089591Y-93803085D02*
G01*
X172123569Y-93813393D01*
X172154890Y-93830134D01*
X172182339Y-93852661D01*
X172204866Y-93880110D01*
X172221607Y-93911431D01*
X172231915Y-93945409D01*
X172236000Y-93986890D01*
X172236000Y-94663110D01*
X172231915Y-94704591D01*
X172221607Y-94738569D01*
X172204866Y-94769890D01*
X172182339Y-94797339D01*
X172154890Y-94819866D01*
X172123569Y-94836607D01*
X172089591Y-94846915D01*
X172048110Y-94851000D01*
X171446890Y-94851000D01*
X171405409Y-94846915D01*
X171371431Y-94836607D01*
X171340110Y-94819866D01*
X171312661Y-94797339D01*
X171290134Y-94769890D01*
X171273393Y-94738569D01*
X171263085Y-94704591D01*
X171259000Y-94663110D01*
X171259000Y-93986890D01*
X171263085Y-93945409D01*
X171273393Y-93911431D01*
X171290134Y-93880110D01*
X171312661Y-93852661D01*
X171340110Y-93830134D01*
X171371431Y-93813393D01*
X171405409Y-93803085D01*
X171446890Y-93799000D01*
X172048110Y-93799000D01*
X172089591Y-93803085D01*
G37*
G36*
X176794591Y-93803085D02*
G01*
X176828569Y-93813393D01*
X176859890Y-93830134D01*
X176887339Y-93852661D01*
X176909866Y-93880110D01*
X176926607Y-93911431D01*
X176936915Y-93945409D01*
X176941000Y-93986890D01*
X176941000Y-94663110D01*
X176936915Y-94704591D01*
X176926607Y-94738569D01*
X176909866Y-94769890D01*
X176887339Y-94797339D01*
X176859890Y-94819866D01*
X176828569Y-94836607D01*
X176794591Y-94846915D01*
X176753110Y-94851000D01*
X176151890Y-94851000D01*
X176110409Y-94846915D01*
X176076431Y-94836607D01*
X176045110Y-94819866D01*
X176017661Y-94797339D01*
X175995134Y-94769890D01*
X175978393Y-94738569D01*
X175968085Y-94704591D01*
X175964000Y-94663110D01*
X175964000Y-93986890D01*
X175968085Y-93945409D01*
X175978393Y-93911431D01*
X175995134Y-93880110D01*
X176017661Y-93852661D01*
X176045110Y-93830134D01*
X176076431Y-93813393D01*
X176110409Y-93803085D01*
X176151890Y-93799000D01*
X176753110Y-93799000D01*
X176794591Y-93803085D01*
G37*
G36*
X170178043Y-88329913D02*
G01*
X170338462Y-88378576D01*
X170471126Y-88449486D01*
X170486298Y-88457596D01*
X170615879Y-88563941D01*
X170722224Y-88693522D01*
X170722225Y-88693524D01*
X170801244Y-88841358D01*
X170849907Y-89001778D01*
X170862220Y-89126797D01*
X170862220Y-90010404D01*
X170849907Y-90135423D01*
X170801244Y-90295842D01*
X170730334Y-90428506D01*
X170722224Y-90443678D01*
X170615879Y-90573259D01*
X170486297Y-90679605D01*
X170338461Y-90758624D01*
X170178042Y-90807287D01*
X170011220Y-90823717D01*
X169844397Y-90807287D01*
X169683978Y-90758624D01*
X169536144Y-90679605D01*
X169536142Y-90679604D01*
X169406561Y-90573259D01*
X169300215Y-90443677D01*
X169221196Y-90295841D01*
X169172533Y-90135422D01*
X169160220Y-90010403D01*
X169160220Y-89126797D01*
X169172534Y-89001777D01*
X169221197Y-88841358D01*
X169300216Y-88693524D01*
X169300217Y-88693522D01*
X169406562Y-88563941D01*
X169536143Y-88457596D01*
X169551315Y-88449486D01*
X169683979Y-88378576D01*
X169844398Y-88329913D01*
X170011220Y-88313483D01*
X170178043Y-88329913D01*
G37*
G36*
X160018043Y-88329913D02*
G01*
X160178462Y-88378576D01*
X160311126Y-88449486D01*
X160326298Y-88457596D01*
X160455879Y-88563941D01*
X160562224Y-88693522D01*
X160562225Y-88693524D01*
X160641244Y-88841358D01*
X160689907Y-89001778D01*
X160702220Y-89126797D01*
X160702220Y-90010404D01*
X160689907Y-90135423D01*
X160641244Y-90295842D01*
X160570334Y-90428506D01*
X160562224Y-90443678D01*
X160455879Y-90573259D01*
X160326297Y-90679605D01*
X160178461Y-90758624D01*
X160018042Y-90807287D01*
X159851220Y-90823717D01*
X159684397Y-90807287D01*
X159523978Y-90758624D01*
X159376144Y-90679605D01*
X159376142Y-90679604D01*
X159246561Y-90573259D01*
X159140215Y-90443677D01*
X159061196Y-90295841D01*
X159012533Y-90135422D01*
X159000220Y-90010403D01*
X159000220Y-89126797D01*
X159012534Y-89001777D01*
X159061197Y-88841358D01*
X159140216Y-88693524D01*
X159140217Y-88693522D01*
X159246562Y-88563941D01*
X159376143Y-88457596D01*
X159391315Y-88449486D01*
X159523979Y-88378576D01*
X159684398Y-88329913D01*
X159851220Y-88313483D01*
X160018043Y-88329913D01*
G37*
G36*
X162558043Y-88329913D02*
G01*
X162718462Y-88378576D01*
X162851126Y-88449486D01*
X162866298Y-88457596D01*
X162995879Y-88563941D01*
X163102224Y-88693522D01*
X163102225Y-88693524D01*
X163181244Y-88841358D01*
X163229907Y-89001778D01*
X163242220Y-89126797D01*
X163242220Y-90010404D01*
X163229907Y-90135423D01*
X163181244Y-90295842D01*
X163110334Y-90428506D01*
X163102224Y-90443678D01*
X162995879Y-90573259D01*
X162866297Y-90679605D01*
X162718461Y-90758624D01*
X162558042Y-90807287D01*
X162391220Y-90823717D01*
X162224397Y-90807287D01*
X162063978Y-90758624D01*
X161916144Y-90679605D01*
X161916142Y-90679604D01*
X161786561Y-90573259D01*
X161680215Y-90443677D01*
X161601196Y-90295841D01*
X161552533Y-90135422D01*
X161540220Y-90010403D01*
X161540220Y-89126797D01*
X161552534Y-89001777D01*
X161601197Y-88841358D01*
X161680216Y-88693524D01*
X161680217Y-88693522D01*
X161786562Y-88563941D01*
X161916143Y-88457596D01*
X161931315Y-88449486D01*
X162063979Y-88378576D01*
X162224398Y-88329913D01*
X162391220Y-88313483D01*
X162558043Y-88329913D01*
G37*
G36*
X165098043Y-88329913D02*
G01*
X165258462Y-88378576D01*
X165391126Y-88449486D01*
X165406298Y-88457596D01*
X165535879Y-88563941D01*
X165642224Y-88693522D01*
X165642225Y-88693524D01*
X165721244Y-88841358D01*
X165769907Y-89001778D01*
X165782220Y-89126797D01*
X165782220Y-90010404D01*
X165769907Y-90135423D01*
X165721244Y-90295842D01*
X165650334Y-90428506D01*
X165642224Y-90443678D01*
X165535879Y-90573259D01*
X165406297Y-90679605D01*
X165258461Y-90758624D01*
X165098042Y-90807287D01*
X164931220Y-90823717D01*
X164764397Y-90807287D01*
X164603978Y-90758624D01*
X164456144Y-90679605D01*
X164456142Y-90679604D01*
X164326561Y-90573259D01*
X164220215Y-90443677D01*
X164141196Y-90295841D01*
X164092533Y-90135422D01*
X164080220Y-90010403D01*
X164080220Y-89126797D01*
X164092534Y-89001777D01*
X164141197Y-88841358D01*
X164220216Y-88693524D01*
X164220217Y-88693522D01*
X164326562Y-88563941D01*
X164456143Y-88457596D01*
X164471315Y-88449486D01*
X164603979Y-88378576D01*
X164764398Y-88329913D01*
X164931220Y-88313483D01*
X165098043Y-88329913D01*
G37*
G36*
X172718043Y-88329913D02*
G01*
X172878462Y-88378576D01*
X173011126Y-88449486D01*
X173026298Y-88457596D01*
X173155879Y-88563941D01*
X173262224Y-88693522D01*
X173262225Y-88693524D01*
X173341244Y-88841358D01*
X173389907Y-89001778D01*
X173402220Y-89126797D01*
X173402220Y-90010404D01*
X173389907Y-90135423D01*
X173341244Y-90295842D01*
X173270334Y-90428506D01*
X173262224Y-90443678D01*
X173155879Y-90573259D01*
X173026297Y-90679605D01*
X172878461Y-90758624D01*
X172718042Y-90807287D01*
X172551220Y-90823717D01*
X172384397Y-90807287D01*
X172223978Y-90758624D01*
X172076144Y-90679605D01*
X172076142Y-90679604D01*
X171946561Y-90573259D01*
X171840215Y-90443677D01*
X171761196Y-90295841D01*
X171712533Y-90135422D01*
X171700220Y-90010403D01*
X171700220Y-89126797D01*
X171712534Y-89001777D01*
X171761197Y-88841358D01*
X171840216Y-88693524D01*
X171840217Y-88693522D01*
X171946562Y-88563941D01*
X172076143Y-88457596D01*
X172091315Y-88449486D01*
X172223979Y-88378576D01*
X172384398Y-88329913D01*
X172551220Y-88313483D01*
X172718043Y-88329913D01*
G37*
G36*
X167638043Y-88329913D02*
G01*
X167798462Y-88378576D01*
X167931126Y-88449486D01*
X167946298Y-88457596D01*
X168075879Y-88563941D01*
X168182224Y-88693522D01*
X168182225Y-88693524D01*
X168261244Y-88841358D01*
X168309907Y-89001778D01*
X168322220Y-89126797D01*
X168322220Y-90010404D01*
X168309907Y-90135423D01*
X168261244Y-90295842D01*
X168190334Y-90428506D01*
X168182224Y-90443678D01*
X168075879Y-90573259D01*
X167946297Y-90679605D01*
X167798461Y-90758624D01*
X167638042Y-90807287D01*
X167471220Y-90823717D01*
X167304397Y-90807287D01*
X167143978Y-90758624D01*
X166996144Y-90679605D01*
X166996142Y-90679604D01*
X166866561Y-90573259D01*
X166760215Y-90443677D01*
X166681196Y-90295841D01*
X166632533Y-90135422D01*
X166620220Y-90010403D01*
X166620220Y-89126797D01*
X166632534Y-89001777D01*
X166681197Y-88841358D01*
X166760216Y-88693524D01*
X166760217Y-88693522D01*
X166866562Y-88563941D01*
X166996143Y-88457596D01*
X167011315Y-88449486D01*
X167143979Y-88378576D01*
X167304398Y-88329913D01*
X167471220Y-88313483D01*
X167638043Y-88329913D01*
G37*
G36*
X139698043Y-88329913D02*
G01*
X139858462Y-88378576D01*
X139991126Y-88449486D01*
X140006298Y-88457596D01*
X140135879Y-88563941D01*
X140242224Y-88693522D01*
X140242225Y-88693524D01*
X140321244Y-88841358D01*
X140369907Y-89001778D01*
X140382220Y-89126797D01*
X140382220Y-90010404D01*
X140369907Y-90135423D01*
X140321244Y-90295842D01*
X140250334Y-90428506D01*
X140242224Y-90443678D01*
X140135879Y-90573259D01*
X140006297Y-90679605D01*
X139858461Y-90758624D01*
X139698042Y-90807287D01*
X139531220Y-90823717D01*
X139364397Y-90807287D01*
X139203978Y-90758624D01*
X139056144Y-90679605D01*
X139056142Y-90679604D01*
X138926561Y-90573259D01*
X138820215Y-90443677D01*
X138741196Y-90295841D01*
X138692533Y-90135422D01*
X138680220Y-90010403D01*
X138680220Y-89126797D01*
X138692534Y-89001777D01*
X138741197Y-88841358D01*
X138820216Y-88693524D01*
X138820217Y-88693522D01*
X138926562Y-88563941D01*
X139056143Y-88457596D01*
X139071315Y-88449486D01*
X139203979Y-88378576D01*
X139364398Y-88329913D01*
X139531220Y-88313483D01*
X139698043Y-88329913D01*
G37*
G36*
X142238043Y-88329913D02*
G01*
X142398462Y-88378576D01*
X142531126Y-88449486D01*
X142546298Y-88457596D01*
X142675879Y-88563941D01*
X142782224Y-88693522D01*
X142782225Y-88693524D01*
X142861244Y-88841358D01*
X142909907Y-89001778D01*
X142922220Y-89126797D01*
X142922220Y-90010404D01*
X142909907Y-90135423D01*
X142861244Y-90295842D01*
X142790334Y-90428506D01*
X142782224Y-90443678D01*
X142675879Y-90573259D01*
X142546297Y-90679605D01*
X142398461Y-90758624D01*
X142238042Y-90807287D01*
X142071220Y-90823717D01*
X141904397Y-90807287D01*
X141743978Y-90758624D01*
X141596144Y-90679605D01*
X141596142Y-90679604D01*
X141466561Y-90573259D01*
X141360215Y-90443677D01*
X141281196Y-90295841D01*
X141232533Y-90135422D01*
X141220220Y-90010403D01*
X141220220Y-89126797D01*
X141232534Y-89001777D01*
X141281197Y-88841358D01*
X141360216Y-88693524D01*
X141360217Y-88693522D01*
X141466562Y-88563941D01*
X141596143Y-88457596D01*
X141611315Y-88449486D01*
X141743979Y-88378576D01*
X141904398Y-88329913D01*
X142071220Y-88313483D01*
X142238043Y-88329913D01*
G37*
G36*
X144778043Y-88329913D02*
G01*
X144938462Y-88378576D01*
X145071126Y-88449486D01*
X145086298Y-88457596D01*
X145215879Y-88563941D01*
X145322224Y-88693522D01*
X145322225Y-88693524D01*
X145401244Y-88841358D01*
X145449907Y-89001778D01*
X145462220Y-89126797D01*
X145462220Y-90010404D01*
X145449907Y-90135423D01*
X145401244Y-90295842D01*
X145330334Y-90428506D01*
X145322224Y-90443678D01*
X145215879Y-90573259D01*
X145086297Y-90679605D01*
X144938461Y-90758624D01*
X144778042Y-90807287D01*
X144611220Y-90823717D01*
X144444397Y-90807287D01*
X144283978Y-90758624D01*
X144136144Y-90679605D01*
X144136142Y-90679604D01*
X144006561Y-90573259D01*
X143900215Y-90443677D01*
X143821196Y-90295841D01*
X143772533Y-90135422D01*
X143760220Y-90010403D01*
X143760220Y-89126797D01*
X143772534Y-89001777D01*
X143821197Y-88841358D01*
X143900216Y-88693524D01*
X143900217Y-88693522D01*
X144006562Y-88563941D01*
X144136143Y-88457596D01*
X144151315Y-88449486D01*
X144283979Y-88378576D01*
X144444398Y-88329913D01*
X144611220Y-88313483D01*
X144778043Y-88329913D01*
G37*
G36*
X147318043Y-88329913D02*
G01*
X147478462Y-88378576D01*
X147611126Y-88449486D01*
X147626298Y-88457596D01*
X147755879Y-88563941D01*
X147862224Y-88693522D01*
X147862225Y-88693524D01*
X147941244Y-88841358D01*
X147989907Y-89001778D01*
X148002220Y-89126797D01*
X148002220Y-90010404D01*
X147989907Y-90135423D01*
X147941244Y-90295842D01*
X147870334Y-90428506D01*
X147862224Y-90443678D01*
X147755879Y-90573259D01*
X147626297Y-90679605D01*
X147478461Y-90758624D01*
X147318042Y-90807287D01*
X147151220Y-90823717D01*
X146984397Y-90807287D01*
X146823978Y-90758624D01*
X146676144Y-90679605D01*
X146676142Y-90679604D01*
X146546561Y-90573259D01*
X146440215Y-90443677D01*
X146361196Y-90295841D01*
X146312533Y-90135422D01*
X146300220Y-90010403D01*
X146300220Y-89126797D01*
X146312534Y-89001777D01*
X146361197Y-88841358D01*
X146440216Y-88693524D01*
X146440217Y-88693522D01*
X146546562Y-88563941D01*
X146676143Y-88457596D01*
X146691315Y-88449486D01*
X146823979Y-88378576D01*
X146984398Y-88329913D01*
X147151220Y-88313483D01*
X147318043Y-88329913D01*
G37*
G36*
X157478043Y-88329913D02*
G01*
X157638462Y-88378576D01*
X157771126Y-88449486D01*
X157786298Y-88457596D01*
X157915879Y-88563941D01*
X158022224Y-88693522D01*
X158022225Y-88693524D01*
X158101244Y-88841358D01*
X158149907Y-89001778D01*
X158162220Y-89126797D01*
X158162220Y-90010404D01*
X158149907Y-90135423D01*
X158101244Y-90295842D01*
X158030334Y-90428506D01*
X158022224Y-90443678D01*
X157915879Y-90573259D01*
X157786297Y-90679605D01*
X157638461Y-90758624D01*
X157478042Y-90807287D01*
X157311220Y-90823717D01*
X157144397Y-90807287D01*
X156983978Y-90758624D01*
X156836144Y-90679605D01*
X156836142Y-90679604D01*
X156706561Y-90573259D01*
X156600215Y-90443677D01*
X156521196Y-90295841D01*
X156472533Y-90135422D01*
X156460220Y-90010403D01*
X156460220Y-89126797D01*
X156472534Y-89001777D01*
X156521197Y-88841358D01*
X156600216Y-88693524D01*
X156600217Y-88693522D01*
X156706562Y-88563941D01*
X156836143Y-88457596D01*
X156851315Y-88449486D01*
X156983979Y-88378576D01*
X157144398Y-88329913D01*
X157311220Y-88313483D01*
X157478043Y-88329913D01*
G37*
G36*
X152398043Y-88329913D02*
G01*
X152558462Y-88378576D01*
X152691126Y-88449486D01*
X152706298Y-88457596D01*
X152835879Y-88563941D01*
X152942224Y-88693522D01*
X152942225Y-88693524D01*
X153021244Y-88841358D01*
X153069907Y-89001778D01*
X153082220Y-89126797D01*
X153082220Y-90010404D01*
X153069907Y-90135423D01*
X153021244Y-90295842D01*
X152950334Y-90428506D01*
X152942224Y-90443678D01*
X152835879Y-90573259D01*
X152706297Y-90679605D01*
X152558461Y-90758624D01*
X152398042Y-90807287D01*
X152231220Y-90823717D01*
X152064397Y-90807287D01*
X151903978Y-90758624D01*
X151756144Y-90679605D01*
X151756142Y-90679604D01*
X151626561Y-90573259D01*
X151520215Y-90443677D01*
X151441196Y-90295841D01*
X151392533Y-90135422D01*
X151380220Y-90010403D01*
X151380220Y-89126797D01*
X151392534Y-89001777D01*
X151441197Y-88841358D01*
X151520216Y-88693524D01*
X151520217Y-88693522D01*
X151626562Y-88563941D01*
X151756143Y-88457596D01*
X151771315Y-88449486D01*
X151903979Y-88378576D01*
X152064398Y-88329913D01*
X152231220Y-88313483D01*
X152398043Y-88329913D01*
G37*
G36*
X154938043Y-88329913D02*
G01*
X155098462Y-88378576D01*
X155231126Y-88449486D01*
X155246298Y-88457596D01*
X155375879Y-88563941D01*
X155482224Y-88693522D01*
X155482225Y-88693524D01*
X155561244Y-88841358D01*
X155609907Y-89001778D01*
X155622220Y-89126797D01*
X155622220Y-90010404D01*
X155609907Y-90135423D01*
X155561244Y-90295842D01*
X155490334Y-90428506D01*
X155482224Y-90443678D01*
X155375879Y-90573259D01*
X155246297Y-90679605D01*
X155098461Y-90758624D01*
X154938042Y-90807287D01*
X154771220Y-90823717D01*
X154604397Y-90807287D01*
X154443978Y-90758624D01*
X154296144Y-90679605D01*
X154296142Y-90679604D01*
X154166561Y-90573259D01*
X154060215Y-90443677D01*
X153981196Y-90295841D01*
X153932533Y-90135422D01*
X153920220Y-90010403D01*
X153920220Y-89126797D01*
X153932534Y-89001777D01*
X153981197Y-88841358D01*
X154060216Y-88693524D01*
X154060217Y-88693522D01*
X154166562Y-88563941D01*
X154296143Y-88457596D01*
X154311315Y-88449486D01*
X154443979Y-88378576D01*
X154604398Y-88329913D01*
X154771220Y-88313483D01*
X154938043Y-88329913D01*
G37*
G36*
X149858043Y-88329913D02*
G01*
X150018462Y-88378576D01*
X150151126Y-88449486D01*
X150166298Y-88457596D01*
X150295879Y-88563941D01*
X150402224Y-88693522D01*
X150402225Y-88693524D01*
X150481244Y-88841358D01*
X150529907Y-89001778D01*
X150542220Y-89126797D01*
X150542220Y-90010404D01*
X150529907Y-90135423D01*
X150481244Y-90295842D01*
X150410334Y-90428506D01*
X150402224Y-90443678D01*
X150295879Y-90573259D01*
X150166297Y-90679605D01*
X150018461Y-90758624D01*
X149858042Y-90807287D01*
X149691220Y-90823717D01*
X149524397Y-90807287D01*
X149363978Y-90758624D01*
X149216144Y-90679605D01*
X149216142Y-90679604D01*
X149086561Y-90573259D01*
X148980215Y-90443677D01*
X148901196Y-90295841D01*
X148852533Y-90135422D01*
X148840220Y-90010403D01*
X148840220Y-89126797D01*
X148852534Y-89001777D01*
X148901197Y-88841358D01*
X148980216Y-88693524D01*
X148980217Y-88693522D01*
X149086562Y-88563941D01*
X149216143Y-88457596D01*
X149231315Y-88449486D01*
X149363979Y-88378576D01*
X149524398Y-88329913D01*
X149691220Y-88313483D01*
X149858043Y-88329913D01*
G37*
G36*
X160018043Y-80709913D02*
G01*
X160178462Y-80758576D01*
X160311126Y-80829486D01*
X160326298Y-80837596D01*
X160455879Y-80943941D01*
X160562224Y-81073522D01*
X160562225Y-81073524D01*
X160641244Y-81221358D01*
X160689907Y-81381778D01*
X160702220Y-81506797D01*
X160702220Y-82390404D01*
X160689907Y-82515423D01*
X160641244Y-82675842D01*
X160570334Y-82808506D01*
X160562224Y-82823678D01*
X160455879Y-82953259D01*
X160326297Y-83059605D01*
X160178461Y-83138624D01*
X160018042Y-83187287D01*
X159851220Y-83203717D01*
X159684397Y-83187287D01*
X159523978Y-83138624D01*
X159376144Y-83059605D01*
X159376142Y-83059604D01*
X159246561Y-82953259D01*
X159140215Y-82823677D01*
X159061196Y-82675841D01*
X159012533Y-82515422D01*
X159000220Y-82390403D01*
X159000220Y-81506797D01*
X159012534Y-81381777D01*
X159061197Y-81221358D01*
X159140216Y-81073524D01*
X159140217Y-81073522D01*
X159246562Y-80943941D01*
X159376143Y-80837596D01*
X159391315Y-80829486D01*
X159523979Y-80758576D01*
X159684398Y-80709913D01*
X159851220Y-80693483D01*
X160018043Y-80709913D01*
G37*
G36*
X154938043Y-80709913D02*
G01*
X155098462Y-80758576D01*
X155231126Y-80829486D01*
X155246298Y-80837596D01*
X155375879Y-80943941D01*
X155482224Y-81073522D01*
X155482225Y-81073524D01*
X155561244Y-81221358D01*
X155609907Y-81381778D01*
X155622220Y-81506797D01*
X155622220Y-82390404D01*
X155609907Y-82515423D01*
X155561244Y-82675842D01*
X155490334Y-82808506D01*
X155482224Y-82823678D01*
X155375879Y-82953259D01*
X155246297Y-83059605D01*
X155098461Y-83138624D01*
X154938042Y-83187287D01*
X154771220Y-83203717D01*
X154604397Y-83187287D01*
X154443978Y-83138624D01*
X154296144Y-83059605D01*
X154296142Y-83059604D01*
X154166561Y-82953259D01*
X154060215Y-82823677D01*
X153981196Y-82675841D01*
X153932533Y-82515422D01*
X153920220Y-82390403D01*
X153920220Y-81506797D01*
X153932534Y-81381777D01*
X153981197Y-81221358D01*
X154060216Y-81073524D01*
X154060217Y-81073522D01*
X154166562Y-80943941D01*
X154296143Y-80837596D01*
X154311315Y-80829486D01*
X154443979Y-80758576D01*
X154604398Y-80709913D01*
X154771220Y-80693483D01*
X154938043Y-80709913D01*
G37*
G36*
X139698043Y-80709913D02*
G01*
X139858462Y-80758576D01*
X139991126Y-80829486D01*
X140006298Y-80837596D01*
X140135879Y-80943941D01*
X140242224Y-81073522D01*
X140242225Y-81073524D01*
X140321244Y-81221358D01*
X140369907Y-81381778D01*
X140382220Y-81506797D01*
X140382220Y-82390404D01*
X140369907Y-82515423D01*
X140321244Y-82675842D01*
X140250334Y-82808506D01*
X140242224Y-82823678D01*
X140135879Y-82953259D01*
X140006297Y-83059605D01*
X139858461Y-83138624D01*
X139698042Y-83187287D01*
X139531220Y-83203717D01*
X139364397Y-83187287D01*
X139203978Y-83138624D01*
X139056144Y-83059605D01*
X139056142Y-83059604D01*
X138926561Y-82953259D01*
X138820215Y-82823677D01*
X138741196Y-82675841D01*
X138692533Y-82515422D01*
X138680220Y-82390403D01*
X138680220Y-81506797D01*
X138692534Y-81381777D01*
X138741197Y-81221358D01*
X138820216Y-81073524D01*
X138820217Y-81073522D01*
X138926562Y-80943941D01*
X139056143Y-80837596D01*
X139071315Y-80829486D01*
X139203979Y-80758576D01*
X139364398Y-80709913D01*
X139531220Y-80693483D01*
X139698043Y-80709913D01*
G37*
G36*
X144778043Y-80709913D02*
G01*
X144938462Y-80758576D01*
X145071126Y-80829486D01*
X145086298Y-80837596D01*
X145215879Y-80943941D01*
X145322224Y-81073522D01*
X145322225Y-81073524D01*
X145401244Y-81221358D01*
X145449907Y-81381778D01*
X145462220Y-81506797D01*
X145462220Y-82390404D01*
X145449907Y-82515423D01*
X145401244Y-82675842D01*
X145330334Y-82808506D01*
X145322224Y-82823678D01*
X145215879Y-82953259D01*
X145086297Y-83059605D01*
X144938461Y-83138624D01*
X144778042Y-83187287D01*
X144611220Y-83203717D01*
X144444397Y-83187287D01*
X144283978Y-83138624D01*
X144136144Y-83059605D01*
X144136142Y-83059604D01*
X144006561Y-82953259D01*
X143900215Y-82823677D01*
X143821196Y-82675841D01*
X143772533Y-82515422D01*
X143760220Y-82390403D01*
X143760220Y-81506797D01*
X143772534Y-81381777D01*
X143821197Y-81221358D01*
X143900216Y-81073524D01*
X143900217Y-81073522D01*
X144006562Y-80943941D01*
X144136143Y-80837596D01*
X144151315Y-80829486D01*
X144283979Y-80758576D01*
X144444398Y-80709913D01*
X144611220Y-80693483D01*
X144778043Y-80709913D01*
G37*
G36*
X147318043Y-80709913D02*
G01*
X147478462Y-80758576D01*
X147611126Y-80829486D01*
X147626298Y-80837596D01*
X147755879Y-80943941D01*
X147862224Y-81073522D01*
X147862225Y-81073524D01*
X147941244Y-81221358D01*
X147989907Y-81381778D01*
X148002220Y-81506797D01*
X148002220Y-82390404D01*
X147989907Y-82515423D01*
X147941244Y-82675842D01*
X147870334Y-82808506D01*
X147862224Y-82823678D01*
X147755879Y-82953259D01*
X147626297Y-83059605D01*
X147478461Y-83138624D01*
X147318042Y-83187287D01*
X147151220Y-83203717D01*
X146984397Y-83187287D01*
X146823978Y-83138624D01*
X146676144Y-83059605D01*
X146676142Y-83059604D01*
X146546561Y-82953259D01*
X146440215Y-82823677D01*
X146361196Y-82675841D01*
X146312533Y-82515422D01*
X146300220Y-82390403D01*
X146300220Y-81506797D01*
X146312534Y-81381777D01*
X146361197Y-81221358D01*
X146440216Y-81073524D01*
X146440217Y-81073522D01*
X146546562Y-80943941D01*
X146676143Y-80837596D01*
X146691315Y-80829486D01*
X146823979Y-80758576D01*
X146984398Y-80709913D01*
X147151220Y-80693483D01*
X147318043Y-80709913D01*
G37*
G36*
X149858043Y-80709913D02*
G01*
X150018462Y-80758576D01*
X150151126Y-80829486D01*
X150166298Y-80837596D01*
X150295879Y-80943941D01*
X150402224Y-81073522D01*
X150402225Y-81073524D01*
X150481244Y-81221358D01*
X150529907Y-81381778D01*
X150542220Y-81506797D01*
X150542220Y-82390404D01*
X150529907Y-82515423D01*
X150481244Y-82675842D01*
X150410334Y-82808506D01*
X150402224Y-82823678D01*
X150295879Y-82953259D01*
X150166297Y-83059605D01*
X150018461Y-83138624D01*
X149858042Y-83187287D01*
X149691220Y-83203717D01*
X149524397Y-83187287D01*
X149363978Y-83138624D01*
X149216144Y-83059605D01*
X149216142Y-83059604D01*
X149086561Y-82953259D01*
X148980215Y-82823677D01*
X148901196Y-82675841D01*
X148852533Y-82515422D01*
X148840220Y-82390403D01*
X148840220Y-81506797D01*
X148852534Y-81381777D01*
X148901197Y-81221358D01*
X148980216Y-81073524D01*
X148980217Y-81073522D01*
X149086562Y-80943941D01*
X149216143Y-80837596D01*
X149231315Y-80829486D01*
X149363979Y-80758576D01*
X149524398Y-80709913D01*
X149691220Y-80693483D01*
X149858043Y-80709913D01*
G37*
G36*
X152398043Y-80709913D02*
G01*
X152558462Y-80758576D01*
X152691126Y-80829486D01*
X152706298Y-80837596D01*
X152835879Y-80943941D01*
X152942224Y-81073522D01*
X152942225Y-81073524D01*
X153021244Y-81221358D01*
X153069907Y-81381778D01*
X153082220Y-81506797D01*
X153082220Y-82390404D01*
X153069907Y-82515423D01*
X153021244Y-82675842D01*
X152950334Y-82808506D01*
X152942224Y-82823678D01*
X152835879Y-82953259D01*
X152706297Y-83059605D01*
X152558461Y-83138624D01*
X152398042Y-83187287D01*
X152231220Y-83203717D01*
X152064397Y-83187287D01*
X151903978Y-83138624D01*
X151756144Y-83059605D01*
X151756142Y-83059604D01*
X151626561Y-82953259D01*
X151520215Y-82823677D01*
X151441196Y-82675841D01*
X151392533Y-82515422D01*
X151380220Y-82390403D01*
X151380220Y-81506797D01*
X151392534Y-81381777D01*
X151441197Y-81221358D01*
X151520216Y-81073524D01*
X151520217Y-81073522D01*
X151626562Y-80943941D01*
X151756143Y-80837596D01*
X151771315Y-80829486D01*
X151903979Y-80758576D01*
X152064398Y-80709913D01*
X152231220Y-80693483D01*
X152398043Y-80709913D01*
G37*
G36*
X170178043Y-80709913D02*
G01*
X170338462Y-80758576D01*
X170471126Y-80829486D01*
X170486298Y-80837596D01*
X170615879Y-80943941D01*
X170722224Y-81073522D01*
X170722225Y-81073524D01*
X170801244Y-81221358D01*
X170849907Y-81381778D01*
X170862220Y-81506797D01*
X170862220Y-82390404D01*
X170849907Y-82515423D01*
X170801244Y-82675842D01*
X170730334Y-82808506D01*
X170722224Y-82823678D01*
X170615879Y-82953259D01*
X170486297Y-83059605D01*
X170338461Y-83138624D01*
X170178042Y-83187287D01*
X170011220Y-83203717D01*
X169844397Y-83187287D01*
X169683978Y-83138624D01*
X169536144Y-83059605D01*
X169536142Y-83059604D01*
X169406561Y-82953259D01*
X169300215Y-82823677D01*
X169221196Y-82675841D01*
X169172533Y-82515422D01*
X169160220Y-82390403D01*
X169160220Y-81506797D01*
X169172534Y-81381777D01*
X169221197Y-81221358D01*
X169300216Y-81073524D01*
X169300217Y-81073522D01*
X169406562Y-80943941D01*
X169536143Y-80837596D01*
X169551315Y-80829486D01*
X169683979Y-80758576D01*
X169844398Y-80709913D01*
X170011220Y-80693483D01*
X170178043Y-80709913D01*
G37*
G36*
X142238043Y-80709913D02*
G01*
X142398462Y-80758576D01*
X142531126Y-80829486D01*
X142546298Y-80837596D01*
X142675879Y-80943941D01*
X142782224Y-81073522D01*
X142782225Y-81073524D01*
X142861244Y-81221358D01*
X142909907Y-81381778D01*
X142922220Y-81506797D01*
X142922220Y-82390404D01*
X142909907Y-82515423D01*
X142861244Y-82675842D01*
X142790334Y-82808506D01*
X142782224Y-82823678D01*
X142675879Y-82953259D01*
X142546297Y-83059605D01*
X142398461Y-83138624D01*
X142238042Y-83187287D01*
X142071220Y-83203717D01*
X141904397Y-83187287D01*
X141743978Y-83138624D01*
X141596144Y-83059605D01*
X141596142Y-83059604D01*
X141466561Y-82953259D01*
X141360215Y-82823677D01*
X141281196Y-82675841D01*
X141232533Y-82515422D01*
X141220220Y-82390403D01*
X141220220Y-81506797D01*
X141232534Y-81381777D01*
X141281197Y-81221358D01*
X141360216Y-81073524D01*
X141360217Y-81073522D01*
X141466562Y-80943941D01*
X141596143Y-80837596D01*
X141611315Y-80829486D01*
X141743979Y-80758576D01*
X141904398Y-80709913D01*
X142071220Y-80693483D01*
X142238043Y-80709913D01*
G37*
G36*
X165098043Y-80709913D02*
G01*
X165258462Y-80758576D01*
X165391126Y-80829486D01*
X165406298Y-80837596D01*
X165535879Y-80943941D01*
X165642224Y-81073522D01*
X165642225Y-81073524D01*
X165721244Y-81221358D01*
X165769907Y-81381778D01*
X165782220Y-81506797D01*
X165782220Y-82390404D01*
X165769907Y-82515423D01*
X165721244Y-82675842D01*
X165650334Y-82808506D01*
X165642224Y-82823678D01*
X165535879Y-82953259D01*
X165406297Y-83059605D01*
X165258461Y-83138624D01*
X165098042Y-83187287D01*
X164931220Y-83203717D01*
X164764397Y-83187287D01*
X164603978Y-83138624D01*
X164456144Y-83059605D01*
X164456142Y-83059604D01*
X164326561Y-82953259D01*
X164220215Y-82823677D01*
X164141196Y-82675841D01*
X164092533Y-82515422D01*
X164080220Y-82390403D01*
X164080220Y-81506797D01*
X164092534Y-81381777D01*
X164141197Y-81221358D01*
X164220216Y-81073524D01*
X164220217Y-81073522D01*
X164326562Y-80943941D01*
X164456143Y-80837596D01*
X164471315Y-80829486D01*
X164603979Y-80758576D01*
X164764398Y-80709913D01*
X164931220Y-80693483D01*
X165098043Y-80709913D01*
G37*
G36*
X162558043Y-80709913D02*
G01*
X162718462Y-80758576D01*
X162851126Y-80829486D01*
X162866298Y-80837596D01*
X162995879Y-80943941D01*
X163102224Y-81073522D01*
X163102225Y-81073524D01*
X163181244Y-81221358D01*
X163229907Y-81381778D01*
X163242220Y-81506797D01*
X163242220Y-82390404D01*
X163229907Y-82515423D01*
X163181244Y-82675842D01*
X163110334Y-82808506D01*
X163102224Y-82823678D01*
X162995879Y-82953259D01*
X162866297Y-83059605D01*
X162718461Y-83138624D01*
X162558042Y-83187287D01*
X162391220Y-83203717D01*
X162224397Y-83187287D01*
X162063978Y-83138624D01*
X161916144Y-83059605D01*
X161916142Y-83059604D01*
X161786561Y-82953259D01*
X161680215Y-82823677D01*
X161601196Y-82675841D01*
X161552533Y-82515422D01*
X161540220Y-82390403D01*
X161540220Y-81506797D01*
X161552534Y-81381777D01*
X161601197Y-81221358D01*
X161680216Y-81073524D01*
X161680217Y-81073522D01*
X161786562Y-80943941D01*
X161916143Y-80837596D01*
X161931315Y-80829486D01*
X162063979Y-80758576D01*
X162224398Y-80709913D01*
X162391220Y-80693483D01*
X162558043Y-80709913D01*
G37*
G36*
X157478043Y-80709913D02*
G01*
X157638462Y-80758576D01*
X157771126Y-80829486D01*
X157786298Y-80837596D01*
X157915879Y-80943941D01*
X158022224Y-81073522D01*
X158022225Y-81073524D01*
X158101244Y-81221358D01*
X158149907Y-81381778D01*
X158162220Y-81506797D01*
X158162220Y-82390404D01*
X158149907Y-82515423D01*
X158101244Y-82675842D01*
X158030334Y-82808506D01*
X158022224Y-82823678D01*
X157915879Y-82953259D01*
X157786297Y-83059605D01*
X157638461Y-83138624D01*
X157478042Y-83187287D01*
X157311220Y-83203717D01*
X157144397Y-83187287D01*
X156983978Y-83138624D01*
X156836144Y-83059605D01*
X156836142Y-83059604D01*
X156706561Y-82953259D01*
X156600215Y-82823677D01*
X156521196Y-82675841D01*
X156472533Y-82515422D01*
X156460220Y-82390403D01*
X156460220Y-81506797D01*
X156472534Y-81381777D01*
X156521197Y-81221358D01*
X156600216Y-81073524D01*
X156600217Y-81073522D01*
X156706562Y-80943941D01*
X156836143Y-80837596D01*
X156851315Y-80829486D01*
X156983979Y-80758576D01*
X157144398Y-80709913D01*
X157311220Y-80693483D01*
X157478043Y-80709913D01*
G37*
G36*
X167638043Y-80709913D02*
G01*
X167798462Y-80758576D01*
X167931126Y-80829486D01*
X167946298Y-80837596D01*
X168075879Y-80943941D01*
X168182224Y-81073522D01*
X168182225Y-81073524D01*
X168261244Y-81221358D01*
X168309907Y-81381778D01*
X168322220Y-81506797D01*
X168322220Y-82390404D01*
X168309907Y-82515423D01*
X168261244Y-82675842D01*
X168190334Y-82808506D01*
X168182224Y-82823678D01*
X168075879Y-82953259D01*
X167946297Y-83059605D01*
X167798461Y-83138624D01*
X167638042Y-83187287D01*
X167471220Y-83203717D01*
X167304397Y-83187287D01*
X167143978Y-83138624D01*
X166996144Y-83059605D01*
X166996142Y-83059604D01*
X166866561Y-82953259D01*
X166760215Y-82823677D01*
X166681196Y-82675841D01*
X166632533Y-82515422D01*
X166620220Y-82390403D01*
X166620220Y-81506797D01*
X166632534Y-81381777D01*
X166681197Y-81221358D01*
X166760216Y-81073524D01*
X166760217Y-81073522D01*
X166866562Y-80943941D01*
X166996143Y-80837596D01*
X167011315Y-80829486D01*
X167143979Y-80758576D01*
X167304398Y-80709913D01*
X167471220Y-80693483D01*
X167638043Y-80709913D01*
G37*
G36*
X173402220Y-83199600D02*
G01*
X171700220Y-83199600D01*
X171700220Y-80697600D01*
X173402220Y-80697600D01*
X173402220Y-83199600D01*
G37*
G36*
X160779591Y-73703085D02*
G01*
X160813569Y-73713393D01*
X160844890Y-73730134D01*
X160872339Y-73752661D01*
X160894866Y-73780110D01*
X160911607Y-73811431D01*
X160921915Y-73845409D01*
X160926000Y-73886890D01*
X160926000Y-74488110D01*
X160921915Y-74529591D01*
X160911607Y-74563569D01*
X160894866Y-74594890D01*
X160872339Y-74622339D01*
X160844890Y-74644866D01*
X160813569Y-74661607D01*
X160779591Y-74671915D01*
X160738110Y-74676000D01*
X160061890Y-74676000D01*
X160020409Y-74671915D01*
X159986431Y-74661607D01*
X159955110Y-74644866D01*
X159927661Y-74622339D01*
X159905134Y-74594890D01*
X159888393Y-74563569D01*
X159878085Y-74529591D01*
X159874000Y-74488110D01*
X159874000Y-73886890D01*
X159878085Y-73845409D01*
X159888393Y-73811431D01*
X159905134Y-73780110D01*
X159927661Y-73752661D01*
X159955110Y-73730134D01*
X159986431Y-73713393D01*
X160020409Y-73703085D01*
X160061890Y-73699000D01*
X160738110Y-73699000D01*
X160779591Y-73703085D01*
G37*
G36*
X170140822Y-72429591D02*
G01*
X170291812Y-72459624D01*
X170455784Y-72527544D01*
X170603354Y-72626147D01*
X170728853Y-72751646D01*
X170827456Y-72899216D01*
X170895376Y-73063188D01*
X170930000Y-73237259D01*
X170930000Y-73414741D01*
X170895376Y-73588812D01*
X170827456Y-73752784D01*
X170728853Y-73900354D01*
X170603354Y-74025853D01*
X170455784Y-74124456D01*
X170291812Y-74192376D01*
X170142512Y-74222073D01*
X170117742Y-74227000D01*
X169940258Y-74227000D01*
X169915488Y-74222073D01*
X169766188Y-74192376D01*
X169602216Y-74124456D01*
X169454646Y-74025853D01*
X169329147Y-73900354D01*
X169230544Y-73752784D01*
X169162624Y-73588812D01*
X169128000Y-73414741D01*
X169128000Y-73237259D01*
X169162624Y-73063188D01*
X169230544Y-72899216D01*
X169329147Y-72751646D01*
X169454646Y-72626147D01*
X169602216Y-72527544D01*
X169766188Y-72459624D01*
X169917178Y-72429591D01*
X169940258Y-72425000D01*
X170117742Y-72425000D01*
X170140822Y-72429591D01*
G37*
G36*
X131532822Y-72429591D02*
G01*
X131683812Y-72459624D01*
X131847784Y-72527544D01*
X131995354Y-72626147D01*
X132120853Y-72751646D01*
X132219456Y-72899216D01*
X132287376Y-73063188D01*
X132322000Y-73237259D01*
X132322000Y-73414741D01*
X132287376Y-73588812D01*
X132219456Y-73752784D01*
X132120853Y-73900354D01*
X131995354Y-74025853D01*
X131847784Y-74124456D01*
X131683812Y-74192376D01*
X131534512Y-74222073D01*
X131509742Y-74227000D01*
X131332258Y-74227000D01*
X131307488Y-74222073D01*
X131158188Y-74192376D01*
X130994216Y-74124456D01*
X130846646Y-74025853D01*
X130721147Y-73900354D01*
X130622544Y-73752784D01*
X130554624Y-73588812D01*
X130520000Y-73414741D01*
X130520000Y-73237259D01*
X130554624Y-73063188D01*
X130622544Y-72899216D01*
X130721147Y-72751646D01*
X130846646Y-72626147D01*
X130994216Y-72527544D01*
X131158188Y-72459624D01*
X131309178Y-72429591D01*
X131332258Y-72425000D01*
X131509742Y-72425000D01*
X131532822Y-72429591D01*
G37*
G36*
X179030822Y-72429591D02*
G01*
X179181812Y-72459624D01*
X179345784Y-72527544D01*
X179493354Y-72626147D01*
X179618853Y-72751646D01*
X179717456Y-72899216D01*
X179785376Y-73063188D01*
X179820000Y-73237259D01*
X179820000Y-73414741D01*
X179785376Y-73588812D01*
X179717456Y-73752784D01*
X179618853Y-73900354D01*
X179493354Y-74025853D01*
X179345784Y-74124456D01*
X179181812Y-74192376D01*
X179032512Y-74222073D01*
X179007742Y-74227000D01*
X178830258Y-74227000D01*
X178805488Y-74222073D01*
X178656188Y-74192376D01*
X178492216Y-74124456D01*
X178344646Y-74025853D01*
X178219147Y-73900354D01*
X178120544Y-73752784D01*
X178052624Y-73588812D01*
X178018000Y-73414741D01*
X178018000Y-73237259D01*
X178052624Y-73063188D01*
X178120544Y-72899216D01*
X178219147Y-72751646D01*
X178344646Y-72626147D01*
X178492216Y-72527544D01*
X178656188Y-72459624D01*
X178807178Y-72429591D01*
X178830258Y-72425000D01*
X179007742Y-72425000D01*
X179030822Y-72429591D01*
G37*
G36*
X134072822Y-72429591D02*
G01*
X134223812Y-72459624D01*
X134387784Y-72527544D01*
X134535354Y-72626147D01*
X134660853Y-72751646D01*
X134759456Y-72899216D01*
X134827376Y-73063188D01*
X134862000Y-73237259D01*
X134862000Y-73414741D01*
X134827376Y-73588812D01*
X134759456Y-73752784D01*
X134660853Y-73900354D01*
X134535354Y-74025853D01*
X134387784Y-74124456D01*
X134223812Y-74192376D01*
X134074512Y-74222073D01*
X134049742Y-74227000D01*
X133872258Y-74227000D01*
X133847488Y-74222073D01*
X133698188Y-74192376D01*
X133534216Y-74124456D01*
X133386646Y-74025853D01*
X133261147Y-73900354D01*
X133162544Y-73752784D01*
X133094624Y-73588812D01*
X133060000Y-73414741D01*
X133060000Y-73237259D01*
X133094624Y-73063188D01*
X133162544Y-72899216D01*
X133261147Y-72751646D01*
X133386646Y-72626147D01*
X133534216Y-72527544D01*
X133698188Y-72459624D01*
X133849178Y-72429591D01*
X133872258Y-72425000D01*
X134049742Y-72425000D01*
X134072822Y-72429591D01*
G37*
G36*
X140930822Y-72429591D02*
G01*
X141081812Y-72459624D01*
X141245784Y-72527544D01*
X141393354Y-72626147D01*
X141518853Y-72751646D01*
X141617456Y-72899216D01*
X141685376Y-73063188D01*
X141720000Y-73237259D01*
X141720000Y-73414741D01*
X141685376Y-73588812D01*
X141617456Y-73752784D01*
X141518853Y-73900354D01*
X141393354Y-74025853D01*
X141245784Y-74124456D01*
X141081812Y-74192376D01*
X140932512Y-74222073D01*
X140907742Y-74227000D01*
X140730258Y-74227000D01*
X140705488Y-74222073D01*
X140556188Y-74192376D01*
X140392216Y-74124456D01*
X140244646Y-74025853D01*
X140119147Y-73900354D01*
X140020544Y-73752784D01*
X139952624Y-73588812D01*
X139918000Y-73414741D01*
X139918000Y-73237259D01*
X139952624Y-73063188D01*
X140020544Y-72899216D01*
X140119147Y-72751646D01*
X140244646Y-72626147D01*
X140392216Y-72527544D01*
X140556188Y-72459624D01*
X140707178Y-72429591D01*
X140730258Y-72425000D01*
X140907742Y-72425000D01*
X140930822Y-72429591D01*
G37*
G36*
X167600822Y-72429591D02*
G01*
X167751812Y-72459624D01*
X167915784Y-72527544D01*
X168063354Y-72626147D01*
X168188853Y-72751646D01*
X168287456Y-72899216D01*
X168355376Y-73063188D01*
X168390000Y-73237259D01*
X168390000Y-73414741D01*
X168355376Y-73588812D01*
X168287456Y-73752784D01*
X168188853Y-73900354D01*
X168063354Y-74025853D01*
X167915784Y-74124456D01*
X167751812Y-74192376D01*
X167602512Y-74222073D01*
X167577742Y-74227000D01*
X167400258Y-74227000D01*
X167375488Y-74222073D01*
X167226188Y-74192376D01*
X167062216Y-74124456D01*
X166914646Y-74025853D01*
X166789147Y-73900354D01*
X166690544Y-73752784D01*
X166622624Y-73588812D01*
X166588000Y-73414741D01*
X166588000Y-73237259D01*
X166622624Y-73063188D01*
X166690544Y-72899216D01*
X166789147Y-72751646D01*
X166914646Y-72626147D01*
X167062216Y-72527544D01*
X167226188Y-72459624D01*
X167377178Y-72429591D01*
X167400258Y-72425000D01*
X167577742Y-72425000D01*
X167600822Y-72429591D01*
G37*
G36*
X176490822Y-72429591D02*
G01*
X176641812Y-72459624D01*
X176805784Y-72527544D01*
X176953354Y-72626147D01*
X177078853Y-72751646D01*
X177177456Y-72899216D01*
X177245376Y-73063188D01*
X177280000Y-73237259D01*
X177280000Y-73414741D01*
X177245376Y-73588812D01*
X177177456Y-73752784D01*
X177078853Y-73900354D01*
X176953354Y-74025853D01*
X176805784Y-74124456D01*
X176641812Y-74192376D01*
X176492512Y-74222073D01*
X176467742Y-74227000D01*
X176290258Y-74227000D01*
X176265488Y-74222073D01*
X176116188Y-74192376D01*
X175952216Y-74124456D01*
X175804646Y-74025853D01*
X175679147Y-73900354D01*
X175580544Y-73752784D01*
X175512624Y-73588812D01*
X175478000Y-73414741D01*
X175478000Y-73237259D01*
X175512624Y-73063188D01*
X175580544Y-72899216D01*
X175679147Y-72751646D01*
X175804646Y-72626147D01*
X175952216Y-72527544D01*
X176116188Y-72459624D01*
X176267178Y-72429591D01*
X176290258Y-72425000D01*
X176467742Y-72425000D01*
X176490822Y-72429591D01*
G37*
G36*
X138390822Y-72429591D02*
G01*
X138541812Y-72459624D01*
X138705784Y-72527544D01*
X138853354Y-72626147D01*
X138978853Y-72751646D01*
X139077456Y-72899216D01*
X139145376Y-73063188D01*
X139180000Y-73237259D01*
X139180000Y-73414741D01*
X139145376Y-73588812D01*
X139077456Y-73752784D01*
X138978853Y-73900354D01*
X138853354Y-74025853D01*
X138705784Y-74124456D01*
X138541812Y-74192376D01*
X138392512Y-74222073D01*
X138367742Y-74227000D01*
X138190258Y-74227000D01*
X138165488Y-74222073D01*
X138016188Y-74192376D01*
X137852216Y-74124456D01*
X137704646Y-74025853D01*
X137579147Y-73900354D01*
X137480544Y-73752784D01*
X137412624Y-73588812D01*
X137378000Y-73414741D01*
X137378000Y-73237259D01*
X137412624Y-73063188D01*
X137480544Y-72899216D01*
X137579147Y-72751646D01*
X137704646Y-72626147D01*
X137852216Y-72527544D01*
X138016188Y-72459624D01*
X138167178Y-72429591D01*
X138190258Y-72425000D01*
X138367742Y-72425000D01*
X138390822Y-72429591D01*
G37*
G36*
X146429591Y-73178085D02*
G01*
X146463569Y-73188393D01*
X146494890Y-73205134D01*
X146522339Y-73227661D01*
X146544866Y-73255110D01*
X146561607Y-73286431D01*
X146571915Y-73320409D01*
X146576000Y-73361890D01*
X146576000Y-73963110D01*
X146571915Y-74004591D01*
X146561607Y-74038569D01*
X146544866Y-74069890D01*
X146522339Y-74097339D01*
X146494890Y-74119866D01*
X146463569Y-74136607D01*
X146429591Y-74146915D01*
X146388110Y-74151000D01*
X145711890Y-74151000D01*
X145670409Y-74146915D01*
X145636431Y-74136607D01*
X145605110Y-74119866D01*
X145577661Y-74097339D01*
X145555134Y-74069890D01*
X145538393Y-74038569D01*
X145528085Y-74004591D01*
X145524000Y-73963110D01*
X145524000Y-73361890D01*
X145528085Y-73320409D01*
X145538393Y-73286431D01*
X145555134Y-73255110D01*
X145577661Y-73227661D01*
X145605110Y-73205134D01*
X145636431Y-73188393D01*
X145670409Y-73178085D01*
X145711890Y-73174000D01*
X146388110Y-73174000D01*
X146429591Y-73178085D01*
G37*
G36*
X160779591Y-72128085D02*
G01*
X160813569Y-72138393D01*
X160844890Y-72155134D01*
X160872339Y-72177661D01*
X160894866Y-72205110D01*
X160911607Y-72236431D01*
X160921915Y-72270409D01*
X160926000Y-72311890D01*
X160926000Y-72913110D01*
X160921915Y-72954591D01*
X160911607Y-72988569D01*
X160894866Y-73019890D01*
X160872339Y-73047339D01*
X160844890Y-73069866D01*
X160813569Y-73086607D01*
X160779591Y-73096915D01*
X160738110Y-73101000D01*
X160061890Y-73101000D01*
X160020409Y-73096915D01*
X159986431Y-73086607D01*
X159955110Y-73069866D01*
X159927661Y-73047339D01*
X159905134Y-73019890D01*
X159888393Y-72988569D01*
X159878085Y-72954591D01*
X159874000Y-72913110D01*
X159874000Y-72311890D01*
X159878085Y-72270409D01*
X159888393Y-72236431D01*
X159905134Y-72205110D01*
X159927661Y-72177661D01*
X159955110Y-72155134D01*
X159986431Y-72138393D01*
X160020409Y-72128085D01*
X160061890Y-72124000D01*
X160738110Y-72124000D01*
X160779591Y-72128085D01*
G37*
G36*
X156038642Y-71525781D02*
G01*
X156180295Y-71584456D01*
X156184416Y-71586163D01*
X156315608Y-71673822D01*
X156427178Y-71785392D01*
X156465837Y-71843250D01*
X156514838Y-71916586D01*
X156575219Y-72062358D01*
X156606000Y-72217107D01*
X156606000Y-72374893D01*
X156575219Y-72529642D01*
X156514838Y-72675414D01*
X156514837Y-72675416D01*
X156427178Y-72806608D01*
X156315608Y-72918178D01*
X156184416Y-73005837D01*
X156184415Y-73005838D01*
X156184414Y-73005838D01*
X156038642Y-73066219D01*
X155883893Y-73097000D01*
X155726107Y-73097000D01*
X155571358Y-73066219D01*
X155425586Y-73005838D01*
X155425585Y-73005838D01*
X155425584Y-73005837D01*
X155294392Y-72918178D01*
X155182822Y-72806608D01*
X155095163Y-72675416D01*
X155095162Y-72675414D01*
X155034781Y-72529642D01*
X155004000Y-72374893D01*
X155004000Y-72217107D01*
X155034781Y-72062358D01*
X155095162Y-71916586D01*
X155144163Y-71843250D01*
X155182822Y-71785392D01*
X155294392Y-71673822D01*
X155425584Y-71586163D01*
X155429705Y-71584456D01*
X155571358Y-71525781D01*
X155726107Y-71495000D01*
X155883893Y-71495000D01*
X156038642Y-71525781D01*
G37*
G36*
X151158642Y-71525781D02*
G01*
X151300295Y-71584456D01*
X151304416Y-71586163D01*
X151435608Y-71673822D01*
X151547178Y-71785392D01*
X151585837Y-71843250D01*
X151634838Y-71916586D01*
X151695219Y-72062358D01*
X151726000Y-72217107D01*
X151726000Y-72374893D01*
X151695219Y-72529642D01*
X151634838Y-72675414D01*
X151634837Y-72675416D01*
X151547178Y-72806608D01*
X151435608Y-72918178D01*
X151304416Y-73005837D01*
X151304415Y-73005838D01*
X151304414Y-73005838D01*
X151158642Y-73066219D01*
X151003893Y-73097000D01*
X150846107Y-73097000D01*
X150691358Y-73066219D01*
X150545586Y-73005838D01*
X150545585Y-73005838D01*
X150545584Y-73005837D01*
X150414392Y-72918178D01*
X150302822Y-72806608D01*
X150215163Y-72675416D01*
X150215162Y-72675414D01*
X150154781Y-72529642D01*
X150124000Y-72374893D01*
X150124000Y-72217107D01*
X150154781Y-72062358D01*
X150215162Y-71916586D01*
X150264163Y-71843250D01*
X150302822Y-71785392D01*
X150414392Y-71673822D01*
X150545584Y-71586163D01*
X150549705Y-71584456D01*
X150691358Y-71525781D01*
X150846107Y-71495000D01*
X151003893Y-71495000D01*
X151158642Y-71525781D01*
G37*
G36*
X146429591Y-71603085D02*
G01*
X146463569Y-71613393D01*
X146494890Y-71630134D01*
X146522339Y-71652661D01*
X146544866Y-71680110D01*
X146561607Y-71711431D01*
X146571915Y-71745409D01*
X146576000Y-71786890D01*
X146576000Y-72388110D01*
X146571915Y-72429591D01*
X146561607Y-72463569D01*
X146544866Y-72494890D01*
X146522339Y-72522339D01*
X146494890Y-72544866D01*
X146463569Y-72561607D01*
X146429591Y-72571915D01*
X146388110Y-72576000D01*
X145711890Y-72576000D01*
X145670409Y-72571915D01*
X145636431Y-72561607D01*
X145605110Y-72544866D01*
X145577661Y-72522339D01*
X145555134Y-72494890D01*
X145538393Y-72463569D01*
X145528085Y-72429591D01*
X145524000Y-72388110D01*
X145524000Y-71786890D01*
X145528085Y-71745409D01*
X145538393Y-71711431D01*
X145555134Y-71680110D01*
X145577661Y-71652661D01*
X145605110Y-71630134D01*
X145636431Y-71613393D01*
X145670409Y-71603085D01*
X145711890Y-71599000D01*
X146388110Y-71599000D01*
X146429591Y-71603085D01*
G37*
G36*
X131534512Y-69889927D02*
G01*
X131683812Y-69919624D01*
X131847784Y-69987544D01*
X131995354Y-70086147D01*
X132120853Y-70211646D01*
X132219456Y-70359216D01*
X132287376Y-70523188D01*
X132322000Y-70697259D01*
X132322000Y-70874741D01*
X132287376Y-71048812D01*
X132219456Y-71212784D01*
X132120853Y-71360354D01*
X131995354Y-71485853D01*
X131847784Y-71584456D01*
X131683812Y-71652376D01*
X131544380Y-71680110D01*
X131509742Y-71687000D01*
X131332258Y-71687000D01*
X131297620Y-71680110D01*
X131158188Y-71652376D01*
X130994216Y-71584456D01*
X130846646Y-71485853D01*
X130721147Y-71360354D01*
X130622544Y-71212784D01*
X130554624Y-71048812D01*
X130520000Y-70874741D01*
X130520000Y-70697259D01*
X130554624Y-70523188D01*
X130622544Y-70359216D01*
X130721147Y-70211646D01*
X130846646Y-70086147D01*
X130994216Y-69987544D01*
X131158188Y-69919624D01*
X131307488Y-69889927D01*
X131332258Y-69885000D01*
X131509742Y-69885000D01*
X131534512Y-69889927D01*
G37*
G36*
X138392512Y-69889927D02*
G01*
X138541812Y-69919624D01*
X138705784Y-69987544D01*
X138853354Y-70086147D01*
X138978853Y-70211646D01*
X139077456Y-70359216D01*
X139145376Y-70523188D01*
X139180000Y-70697259D01*
X139180000Y-70874741D01*
X139145376Y-71048812D01*
X139077456Y-71212784D01*
X138978853Y-71360354D01*
X138853354Y-71485853D01*
X138705784Y-71584456D01*
X138541812Y-71652376D01*
X138402380Y-71680110D01*
X138367742Y-71687000D01*
X138190258Y-71687000D01*
X138155620Y-71680110D01*
X138016188Y-71652376D01*
X137852216Y-71584456D01*
X137704646Y-71485853D01*
X137579147Y-71360354D01*
X137480544Y-71212784D01*
X137412624Y-71048812D01*
X137378000Y-70874741D01*
X137378000Y-70697259D01*
X137412624Y-70523188D01*
X137480544Y-70359216D01*
X137579147Y-70211646D01*
X137704646Y-70086147D01*
X137852216Y-69987544D01*
X138016188Y-69919624D01*
X138165488Y-69889927D01*
X138190258Y-69885000D01*
X138367742Y-69885000D01*
X138392512Y-69889927D01*
G37*
G36*
X167602512Y-69889927D02*
G01*
X167751812Y-69919624D01*
X167915784Y-69987544D01*
X168063354Y-70086147D01*
X168188853Y-70211646D01*
X168287456Y-70359216D01*
X168355376Y-70523188D01*
X168390000Y-70697259D01*
X168390000Y-70874741D01*
X168355376Y-71048812D01*
X168287456Y-71212784D01*
X168188853Y-71360354D01*
X168063354Y-71485853D01*
X167915784Y-71584456D01*
X167751812Y-71652376D01*
X167612380Y-71680110D01*
X167577742Y-71687000D01*
X167400258Y-71687000D01*
X167365620Y-71680110D01*
X167226188Y-71652376D01*
X167062216Y-71584456D01*
X166914646Y-71485853D01*
X166789147Y-71360354D01*
X166690544Y-71212784D01*
X166622624Y-71048812D01*
X166588000Y-70874741D01*
X166588000Y-70697259D01*
X166622624Y-70523188D01*
X166690544Y-70359216D01*
X166789147Y-70211646D01*
X166914646Y-70086147D01*
X167062216Y-69987544D01*
X167226188Y-69919624D01*
X167375488Y-69889927D01*
X167400258Y-69885000D01*
X167577742Y-69885000D01*
X167602512Y-69889927D01*
G37*
G36*
X134074512Y-69889927D02*
G01*
X134223812Y-69919624D01*
X134387784Y-69987544D01*
X134535354Y-70086147D01*
X134660853Y-70211646D01*
X134759456Y-70359216D01*
X134827376Y-70523188D01*
X134862000Y-70697259D01*
X134862000Y-70874741D01*
X134827376Y-71048812D01*
X134759456Y-71212784D01*
X134660853Y-71360354D01*
X134535354Y-71485853D01*
X134387784Y-71584456D01*
X134223812Y-71652376D01*
X134084380Y-71680110D01*
X134049742Y-71687000D01*
X133872258Y-71687000D01*
X133837620Y-71680110D01*
X133698188Y-71652376D01*
X133534216Y-71584456D01*
X133386646Y-71485853D01*
X133261147Y-71360354D01*
X133162544Y-71212784D01*
X133094624Y-71048812D01*
X133060000Y-70874741D01*
X133060000Y-70697259D01*
X133094624Y-70523188D01*
X133162544Y-70359216D01*
X133261147Y-70211646D01*
X133386646Y-70086147D01*
X133534216Y-69987544D01*
X133698188Y-69919624D01*
X133847488Y-69889927D01*
X133872258Y-69885000D01*
X134049742Y-69885000D01*
X134074512Y-69889927D01*
G37*
G36*
X170142512Y-69889927D02*
G01*
X170291812Y-69919624D01*
X170455784Y-69987544D01*
X170603354Y-70086147D01*
X170728853Y-70211646D01*
X170827456Y-70359216D01*
X170895376Y-70523188D01*
X170930000Y-70697259D01*
X170930000Y-70874741D01*
X170895376Y-71048812D01*
X170827456Y-71212784D01*
X170728853Y-71360354D01*
X170603354Y-71485853D01*
X170455784Y-71584456D01*
X170291812Y-71652376D01*
X170152380Y-71680110D01*
X170117742Y-71687000D01*
X169940258Y-71687000D01*
X169905620Y-71680110D01*
X169766188Y-71652376D01*
X169602216Y-71584456D01*
X169454646Y-71485853D01*
X169329147Y-71360354D01*
X169230544Y-71212784D01*
X169162624Y-71048812D01*
X169128000Y-70874741D01*
X169128000Y-70697259D01*
X169162624Y-70523188D01*
X169230544Y-70359216D01*
X169329147Y-70211646D01*
X169454646Y-70086147D01*
X169602216Y-69987544D01*
X169766188Y-69919624D01*
X169915488Y-69889927D01*
X169940258Y-69885000D01*
X170117742Y-69885000D01*
X170142512Y-69889927D01*
G37*
G36*
X176492512Y-69889927D02*
G01*
X176641812Y-69919624D01*
X176805784Y-69987544D01*
X176953354Y-70086147D01*
X177078853Y-70211646D01*
X177177456Y-70359216D01*
X177245376Y-70523188D01*
X177280000Y-70697259D01*
X177280000Y-70874741D01*
X177245376Y-71048812D01*
X177177456Y-71212784D01*
X177078853Y-71360354D01*
X176953354Y-71485853D01*
X176805784Y-71584456D01*
X176641812Y-71652376D01*
X176502380Y-71680110D01*
X176467742Y-71687000D01*
X176290258Y-71687000D01*
X176255620Y-71680110D01*
X176116188Y-71652376D01*
X175952216Y-71584456D01*
X175804646Y-71485853D01*
X175679147Y-71360354D01*
X175580544Y-71212784D01*
X175512624Y-71048812D01*
X175478000Y-70874741D01*
X175478000Y-70697259D01*
X175512624Y-70523188D01*
X175580544Y-70359216D01*
X175679147Y-70211646D01*
X175804646Y-70086147D01*
X175952216Y-69987544D01*
X176116188Y-69919624D01*
X176265488Y-69889927D01*
X176290258Y-69885000D01*
X176467742Y-69885000D01*
X176492512Y-69889927D01*
G37*
G36*
X179032512Y-69889927D02*
G01*
X179181812Y-69919624D01*
X179345784Y-69987544D01*
X179493354Y-70086147D01*
X179618853Y-70211646D01*
X179717456Y-70359216D01*
X179785376Y-70523188D01*
X179820000Y-70697259D01*
X179820000Y-70874741D01*
X179785376Y-71048812D01*
X179717456Y-71212784D01*
X179618853Y-71360354D01*
X179493354Y-71485853D01*
X179345784Y-71584456D01*
X179181812Y-71652376D01*
X179042380Y-71680110D01*
X179007742Y-71687000D01*
X178830258Y-71687000D01*
X178795620Y-71680110D01*
X178656188Y-71652376D01*
X178492216Y-71584456D01*
X178344646Y-71485853D01*
X178219147Y-71360354D01*
X178120544Y-71212784D01*
X178052624Y-71048812D01*
X178018000Y-70874741D01*
X178018000Y-70697259D01*
X178052624Y-70523188D01*
X178120544Y-70359216D01*
X178219147Y-70211646D01*
X178344646Y-70086147D01*
X178492216Y-69987544D01*
X178656188Y-69919624D01*
X178805488Y-69889927D01*
X178830258Y-69885000D01*
X179007742Y-69885000D01*
X179032512Y-69889927D01*
G37*
G36*
X140932512Y-69889927D02*
G01*
X141081812Y-69919624D01*
X141245784Y-69987544D01*
X141393354Y-70086147D01*
X141518853Y-70211646D01*
X141617456Y-70359216D01*
X141685376Y-70523188D01*
X141720000Y-70697259D01*
X141720000Y-70874741D01*
X141685376Y-71048812D01*
X141617456Y-71212784D01*
X141518853Y-71360354D01*
X141393354Y-71485853D01*
X141245784Y-71584456D01*
X141081812Y-71652376D01*
X140942380Y-71680110D01*
X140907742Y-71687000D01*
X140730258Y-71687000D01*
X140695620Y-71680110D01*
X140556188Y-71652376D01*
X140392216Y-71584456D01*
X140244646Y-71485853D01*
X140119147Y-71360354D01*
X140020544Y-71212784D01*
X139952624Y-71048812D01*
X139918000Y-70874741D01*
X139918000Y-70697259D01*
X139952624Y-70523188D01*
X140020544Y-70359216D01*
X140119147Y-70211646D01*
X140244646Y-70086147D01*
X140392216Y-69987544D01*
X140556188Y-69919624D01*
X140705488Y-69889927D01*
X140730258Y-69885000D01*
X140907742Y-69885000D01*
X140932512Y-69889927D01*
G37*
G36*
X163121811Y-69328271D02*
G01*
X163157603Y-69339129D01*
X163190595Y-69356763D01*
X163219508Y-69380492D01*
X163243237Y-69409405D01*
X163260871Y-69442397D01*
X163271729Y-69478189D01*
X163276000Y-69521555D01*
X163276000Y-70553445D01*
X163271729Y-70596811D01*
X163260871Y-70632603D01*
X163243237Y-70665595D01*
X163219508Y-70694508D01*
X163190595Y-70718237D01*
X163157603Y-70735871D01*
X163121811Y-70746729D01*
X163078445Y-70751000D01*
X161021555Y-70751000D01*
X160978189Y-70746729D01*
X160942397Y-70735871D01*
X160909405Y-70718237D01*
X160880492Y-70694508D01*
X160856763Y-70665595D01*
X160839129Y-70632603D01*
X160828271Y-70596811D01*
X160824000Y-70553445D01*
X160824000Y-69521555D01*
X160828271Y-69478189D01*
X160839129Y-69442397D01*
X160856763Y-69409405D01*
X160880492Y-69380492D01*
X160909405Y-69356763D01*
X160942397Y-69339129D01*
X160978189Y-69328271D01*
X161021555Y-69324000D01*
X163078445Y-69324000D01*
X163121811Y-69328271D01*
G37*
G36*
X170142512Y-67349927D02*
G01*
X170291812Y-67379624D01*
X170455784Y-67447544D01*
X170603354Y-67546147D01*
X170728853Y-67671646D01*
X170827456Y-67819216D01*
X170895376Y-67983188D01*
X170930000Y-68157259D01*
X170930000Y-68334741D01*
X170895376Y-68508812D01*
X170827456Y-68672784D01*
X170728853Y-68820354D01*
X170603354Y-68945853D01*
X170455784Y-69044456D01*
X170291812Y-69112376D01*
X170142512Y-69142073D01*
X170117742Y-69147000D01*
X169940258Y-69147000D01*
X169915488Y-69142073D01*
X169766188Y-69112376D01*
X169602216Y-69044456D01*
X169454646Y-68945853D01*
X169329147Y-68820354D01*
X169230544Y-68672784D01*
X169162624Y-68508812D01*
X169128000Y-68334741D01*
X169128000Y-68157259D01*
X169162624Y-67983188D01*
X169230544Y-67819216D01*
X169329147Y-67671646D01*
X169454646Y-67546147D01*
X169602216Y-67447544D01*
X169766188Y-67379624D01*
X169915488Y-67349927D01*
X169940258Y-67345000D01*
X170117742Y-67345000D01*
X170142512Y-67349927D01*
G37*
G36*
X179032512Y-67349927D02*
G01*
X179181812Y-67379624D01*
X179345784Y-67447544D01*
X179493354Y-67546147D01*
X179618853Y-67671646D01*
X179717456Y-67819216D01*
X179785376Y-67983188D01*
X179820000Y-68157259D01*
X179820000Y-68334741D01*
X179785376Y-68508812D01*
X179717456Y-68672784D01*
X179618853Y-68820354D01*
X179493354Y-68945853D01*
X179345784Y-69044456D01*
X179181812Y-69112376D01*
X179032512Y-69142073D01*
X179007742Y-69147000D01*
X178830258Y-69147000D01*
X178805488Y-69142073D01*
X178656188Y-69112376D01*
X178492216Y-69044456D01*
X178344646Y-68945853D01*
X178219147Y-68820354D01*
X178120544Y-68672784D01*
X178052624Y-68508812D01*
X178018000Y-68334741D01*
X178018000Y-68157259D01*
X178052624Y-67983188D01*
X178120544Y-67819216D01*
X178219147Y-67671646D01*
X178344646Y-67546147D01*
X178492216Y-67447544D01*
X178656188Y-67379624D01*
X178805488Y-67349927D01*
X178830258Y-67345000D01*
X179007742Y-67345000D01*
X179032512Y-67349927D01*
G37*
G36*
X132322000Y-69147000D02*
G01*
X130520000Y-69147000D01*
X130520000Y-67345000D01*
X132322000Y-67345000D01*
X132322000Y-69147000D01*
G37*
G36*
X134074512Y-67349927D02*
G01*
X134223812Y-67379624D01*
X134387784Y-67447544D01*
X134535354Y-67546147D01*
X134660853Y-67671646D01*
X134759456Y-67819216D01*
X134827376Y-67983188D01*
X134862000Y-68157259D01*
X134862000Y-68334741D01*
X134827376Y-68508812D01*
X134759456Y-68672784D01*
X134660853Y-68820354D01*
X134535354Y-68945853D01*
X134387784Y-69044456D01*
X134223812Y-69112376D01*
X134074512Y-69142073D01*
X134049742Y-69147000D01*
X133872258Y-69147000D01*
X133847488Y-69142073D01*
X133698188Y-69112376D01*
X133534216Y-69044456D01*
X133386646Y-68945853D01*
X133261147Y-68820354D01*
X133162544Y-68672784D01*
X133094624Y-68508812D01*
X133060000Y-68334741D01*
X133060000Y-68157259D01*
X133094624Y-67983188D01*
X133162544Y-67819216D01*
X133261147Y-67671646D01*
X133386646Y-67546147D01*
X133534216Y-67447544D01*
X133698188Y-67379624D01*
X133847488Y-67349927D01*
X133872258Y-67345000D01*
X134049742Y-67345000D01*
X134074512Y-67349927D01*
G37*
G36*
X177280000Y-69147000D02*
G01*
X175478000Y-69147000D01*
X175478000Y-67345000D01*
X177280000Y-67345000D01*
X177280000Y-69147000D01*
G37*
G36*
X168390000Y-69147000D02*
G01*
X166588000Y-69147000D01*
X166588000Y-67345000D01*
X168390000Y-67345000D01*
X168390000Y-69147000D01*
G37*
G36*
X140932512Y-67349927D02*
G01*
X141081812Y-67379624D01*
X141245784Y-67447544D01*
X141393354Y-67546147D01*
X141518853Y-67671646D01*
X141617456Y-67819216D01*
X141685376Y-67983188D01*
X141720000Y-68157259D01*
X141720000Y-68334741D01*
X141685376Y-68508812D01*
X141617456Y-68672784D01*
X141518853Y-68820354D01*
X141393354Y-68945853D01*
X141245784Y-69044456D01*
X141081812Y-69112376D01*
X140932512Y-69142073D01*
X140907742Y-69147000D01*
X140730258Y-69147000D01*
X140705488Y-69142073D01*
X140556188Y-69112376D01*
X140392216Y-69044456D01*
X140244646Y-68945853D01*
X140119147Y-68820354D01*
X140020544Y-68672784D01*
X139952624Y-68508812D01*
X139918000Y-68334741D01*
X139918000Y-68157259D01*
X139952624Y-67983188D01*
X140020544Y-67819216D01*
X140119147Y-67671646D01*
X140244646Y-67546147D01*
X140392216Y-67447544D01*
X140556188Y-67379624D01*
X140705488Y-67349927D01*
X140730258Y-67345000D01*
X140907742Y-67345000D01*
X140932512Y-67349927D01*
G37*
G36*
X139180000Y-69147000D02*
G01*
X137378000Y-69147000D01*
X137378000Y-67345000D01*
X139180000Y-67345000D01*
X139180000Y-69147000D01*
G37*
G36*
X163121811Y-66253271D02*
G01*
X163157603Y-66264129D01*
X163190595Y-66281763D01*
X163219508Y-66305492D01*
X163243237Y-66334405D01*
X163260871Y-66367397D01*
X163271729Y-66403189D01*
X163276000Y-66446555D01*
X163276000Y-67478445D01*
X163271729Y-67521811D01*
X163260871Y-67557603D01*
X163243237Y-67590595D01*
X163219508Y-67619508D01*
X163190595Y-67643237D01*
X163157603Y-67660871D01*
X163121811Y-67671729D01*
X163078445Y-67676000D01*
X161021555Y-67676000D01*
X160978189Y-67671729D01*
X160942397Y-67660871D01*
X160909405Y-67643237D01*
X160880492Y-67619508D01*
X160856763Y-67590595D01*
X160839129Y-67557603D01*
X160828271Y-67521811D01*
X160824000Y-67478445D01*
X160824000Y-66446555D01*
X160828271Y-66403189D01*
X160839129Y-66367397D01*
X160856763Y-66334405D01*
X160880492Y-66305492D01*
X160909405Y-66281763D01*
X160942397Y-66264129D01*
X160978189Y-66253271D01*
X161021555Y-66249000D01*
X163078445Y-66249000D01*
X163121811Y-66253271D01*
G37*
M02*
