G04 #@! TF.GenerationSoftware,KiCad,Pcbnew,5.1.5+dfsg1-2build2*
G04 #@! TF.CreationDate,2020-09-10T12:50:31-04:00*
G04 #@! TF.ProjectId,multi-avr,6d756c74-692d-4617-9672-2e6b69636164,rev?*
G04 #@! TF.SameCoordinates,Original*
G04 #@! TF.FileFunction,Paste,Top*
G04 #@! TF.FilePolarity,Positive*
%FSLAX46Y46*%
G04 Gerber Fmt 4.6, Leading zero omitted, Abs format (unit mm)*
G04 Created by KiCad (PCBNEW 5.1.5+dfsg1-2build2) date 2020-09-10 12:50:31*
%MOMM*%
%LPD*%
G04 APERTURE LIST*
%ADD10C,0.100000*%
%ADD11R,0.550000X1.500000*%
%ADD12R,1.500000X0.550000*%
%ADD13R,1.400000X1.200000*%
G04 APERTURE END LIST*
D10*
G36*
X162999505Y-66301204D02*
G01*
X163023773Y-66304804D01*
X163047572Y-66310765D01*
X163070671Y-66319030D01*
X163092850Y-66329520D01*
X163113893Y-66342132D01*
X163133599Y-66356747D01*
X163151777Y-66373223D01*
X163168253Y-66391401D01*
X163182868Y-66411107D01*
X163195480Y-66432150D01*
X163205970Y-66454329D01*
X163214235Y-66477428D01*
X163220196Y-66501227D01*
X163223796Y-66525495D01*
X163225000Y-66549999D01*
X163225000Y-67375001D01*
X163223796Y-67399505D01*
X163220196Y-67423773D01*
X163214235Y-67447572D01*
X163205970Y-67470671D01*
X163195480Y-67492850D01*
X163182868Y-67513893D01*
X163168253Y-67533599D01*
X163151777Y-67551777D01*
X163133599Y-67568253D01*
X163113893Y-67582868D01*
X163092850Y-67595480D01*
X163070671Y-67605970D01*
X163047572Y-67614235D01*
X163023773Y-67620196D01*
X162999505Y-67623796D01*
X162975001Y-67625000D01*
X161124999Y-67625000D01*
X161100495Y-67623796D01*
X161076227Y-67620196D01*
X161052428Y-67614235D01*
X161029329Y-67605970D01*
X161007150Y-67595480D01*
X160986107Y-67582868D01*
X160966401Y-67568253D01*
X160948223Y-67551777D01*
X160931747Y-67533599D01*
X160917132Y-67513893D01*
X160904520Y-67492850D01*
X160894030Y-67470671D01*
X160885765Y-67447572D01*
X160879804Y-67423773D01*
X160876204Y-67399505D01*
X160875000Y-67375001D01*
X160875000Y-66549999D01*
X160876204Y-66525495D01*
X160879804Y-66501227D01*
X160885765Y-66477428D01*
X160894030Y-66454329D01*
X160904520Y-66432150D01*
X160917132Y-66411107D01*
X160931747Y-66391401D01*
X160948223Y-66373223D01*
X160966401Y-66356747D01*
X160986107Y-66342132D01*
X161007150Y-66329520D01*
X161029329Y-66319030D01*
X161052428Y-66310765D01*
X161076227Y-66304804D01*
X161100495Y-66301204D01*
X161124999Y-66300000D01*
X162975001Y-66300000D01*
X162999505Y-66301204D01*
G37*
G36*
X162999505Y-69376204D02*
G01*
X163023773Y-69379804D01*
X163047572Y-69385765D01*
X163070671Y-69394030D01*
X163092850Y-69404520D01*
X163113893Y-69417132D01*
X163133599Y-69431747D01*
X163151777Y-69448223D01*
X163168253Y-69466401D01*
X163182868Y-69486107D01*
X163195480Y-69507150D01*
X163205970Y-69529329D01*
X163214235Y-69552428D01*
X163220196Y-69576227D01*
X163223796Y-69600495D01*
X163225000Y-69624999D01*
X163225000Y-70450001D01*
X163223796Y-70474505D01*
X163220196Y-70498773D01*
X163214235Y-70522572D01*
X163205970Y-70545671D01*
X163195480Y-70567850D01*
X163182868Y-70588893D01*
X163168253Y-70608599D01*
X163151777Y-70626777D01*
X163133599Y-70643253D01*
X163113893Y-70657868D01*
X163092850Y-70670480D01*
X163070671Y-70680970D01*
X163047572Y-70689235D01*
X163023773Y-70695196D01*
X162999505Y-70698796D01*
X162975001Y-70700000D01*
X161124999Y-70700000D01*
X161100495Y-70698796D01*
X161076227Y-70695196D01*
X161052428Y-70689235D01*
X161029329Y-70680970D01*
X161007150Y-70670480D01*
X160986107Y-70657868D01*
X160966401Y-70643253D01*
X160948223Y-70626777D01*
X160931747Y-70608599D01*
X160917132Y-70588893D01*
X160904520Y-70567850D01*
X160894030Y-70545671D01*
X160885765Y-70522572D01*
X160879804Y-70498773D01*
X160876204Y-70474505D01*
X160875000Y-70450001D01*
X160875000Y-69624999D01*
X160876204Y-69600495D01*
X160879804Y-69576227D01*
X160885765Y-69552428D01*
X160894030Y-69529329D01*
X160904520Y-69507150D01*
X160917132Y-69486107D01*
X160931747Y-69466401D01*
X160948223Y-69448223D01*
X160966401Y-69431747D01*
X160986107Y-69417132D01*
X161007150Y-69404520D01*
X161029329Y-69394030D01*
X161052428Y-69385765D01*
X161076227Y-69379804D01*
X161100495Y-69376204D01*
X161124999Y-69375000D01*
X162975001Y-69375000D01*
X162999505Y-69376204D01*
G37*
G36*
X152174505Y-113376204D02*
G01*
X152198773Y-113379804D01*
X152222572Y-113385765D01*
X152245671Y-113394030D01*
X152267850Y-113404520D01*
X152288893Y-113417132D01*
X152308599Y-113431747D01*
X152326777Y-113448223D01*
X152343253Y-113466401D01*
X152357868Y-113486107D01*
X152370480Y-113507150D01*
X152380970Y-113529329D01*
X152389235Y-113552428D01*
X152395196Y-113576227D01*
X152398796Y-113600495D01*
X152400000Y-113624999D01*
X152400000Y-115475001D01*
X152398796Y-115499505D01*
X152395196Y-115523773D01*
X152389235Y-115547572D01*
X152380970Y-115570671D01*
X152370480Y-115592850D01*
X152357868Y-115613893D01*
X152343253Y-115633599D01*
X152326777Y-115651777D01*
X152308599Y-115668253D01*
X152288893Y-115682868D01*
X152267850Y-115695480D01*
X152245671Y-115705970D01*
X152222572Y-115714235D01*
X152198773Y-115720196D01*
X152174505Y-115723796D01*
X152150001Y-115725000D01*
X151324999Y-115725000D01*
X151300495Y-115723796D01*
X151276227Y-115720196D01*
X151252428Y-115714235D01*
X151229329Y-115705970D01*
X151207150Y-115695480D01*
X151186107Y-115682868D01*
X151166401Y-115668253D01*
X151148223Y-115651777D01*
X151131747Y-115633599D01*
X151117132Y-115613893D01*
X151104520Y-115592850D01*
X151094030Y-115570671D01*
X151085765Y-115547572D01*
X151079804Y-115523773D01*
X151076204Y-115499505D01*
X151075000Y-115475001D01*
X151075000Y-113624999D01*
X151076204Y-113600495D01*
X151079804Y-113576227D01*
X151085765Y-113552428D01*
X151094030Y-113529329D01*
X151104520Y-113507150D01*
X151117132Y-113486107D01*
X151131747Y-113466401D01*
X151148223Y-113448223D01*
X151166401Y-113431747D01*
X151186107Y-113417132D01*
X151207150Y-113404520D01*
X151229329Y-113394030D01*
X151252428Y-113385765D01*
X151276227Y-113379804D01*
X151300495Y-113376204D01*
X151324999Y-113375000D01*
X152150001Y-113375000D01*
X152174505Y-113376204D01*
G37*
G36*
X149099505Y-113376204D02*
G01*
X149123773Y-113379804D01*
X149147572Y-113385765D01*
X149170671Y-113394030D01*
X149192850Y-113404520D01*
X149213893Y-113417132D01*
X149233599Y-113431747D01*
X149251777Y-113448223D01*
X149268253Y-113466401D01*
X149282868Y-113486107D01*
X149295480Y-113507150D01*
X149305970Y-113529329D01*
X149314235Y-113552428D01*
X149320196Y-113576227D01*
X149323796Y-113600495D01*
X149325000Y-113624999D01*
X149325000Y-115475001D01*
X149323796Y-115499505D01*
X149320196Y-115523773D01*
X149314235Y-115547572D01*
X149305970Y-115570671D01*
X149295480Y-115592850D01*
X149282868Y-115613893D01*
X149268253Y-115633599D01*
X149251777Y-115651777D01*
X149233599Y-115668253D01*
X149213893Y-115682868D01*
X149192850Y-115695480D01*
X149170671Y-115705970D01*
X149147572Y-115714235D01*
X149123773Y-115720196D01*
X149099505Y-115723796D01*
X149075001Y-115725000D01*
X148249999Y-115725000D01*
X148225495Y-115723796D01*
X148201227Y-115720196D01*
X148177428Y-115714235D01*
X148154329Y-115705970D01*
X148132150Y-115695480D01*
X148111107Y-115682868D01*
X148091401Y-115668253D01*
X148073223Y-115651777D01*
X148056747Y-115633599D01*
X148042132Y-115613893D01*
X148029520Y-115592850D01*
X148019030Y-115570671D01*
X148010765Y-115547572D01*
X148004804Y-115523773D01*
X148001204Y-115499505D01*
X148000000Y-115475001D01*
X148000000Y-113624999D01*
X148001204Y-113600495D01*
X148004804Y-113576227D01*
X148010765Y-113552428D01*
X148019030Y-113529329D01*
X148029520Y-113507150D01*
X148042132Y-113486107D01*
X148056747Y-113466401D01*
X148073223Y-113448223D01*
X148091401Y-113431747D01*
X148111107Y-113417132D01*
X148132150Y-113404520D01*
X148154329Y-113394030D01*
X148177428Y-113385765D01*
X148201227Y-113379804D01*
X148225495Y-113376204D01*
X148249999Y-113375000D01*
X149075001Y-113375000D01*
X149099505Y-113376204D01*
G37*
G36*
X172090191Y-104051053D02*
G01*
X172111426Y-104054203D01*
X172132250Y-104059419D01*
X172152462Y-104066651D01*
X172171868Y-104075830D01*
X172190281Y-104086866D01*
X172207524Y-104099654D01*
X172223430Y-104114070D01*
X172237846Y-104129976D01*
X172250634Y-104147219D01*
X172261670Y-104165632D01*
X172270849Y-104185038D01*
X172278081Y-104205250D01*
X172283297Y-104226074D01*
X172286447Y-104247309D01*
X172287500Y-104268750D01*
X172287500Y-104781250D01*
X172286447Y-104802691D01*
X172283297Y-104823926D01*
X172278081Y-104844750D01*
X172270849Y-104864962D01*
X172261670Y-104884368D01*
X172250634Y-104902781D01*
X172237846Y-104920024D01*
X172223430Y-104935930D01*
X172207524Y-104950346D01*
X172190281Y-104963134D01*
X172171868Y-104974170D01*
X172152462Y-104983349D01*
X172132250Y-104990581D01*
X172111426Y-104995797D01*
X172090191Y-104998947D01*
X172068750Y-105000000D01*
X171631250Y-105000000D01*
X171609809Y-104998947D01*
X171588574Y-104995797D01*
X171567750Y-104990581D01*
X171547538Y-104983349D01*
X171528132Y-104974170D01*
X171509719Y-104963134D01*
X171492476Y-104950346D01*
X171476570Y-104935930D01*
X171462154Y-104920024D01*
X171449366Y-104902781D01*
X171438330Y-104884368D01*
X171429151Y-104864962D01*
X171421919Y-104844750D01*
X171416703Y-104823926D01*
X171413553Y-104802691D01*
X171412500Y-104781250D01*
X171412500Y-104268750D01*
X171413553Y-104247309D01*
X171416703Y-104226074D01*
X171421919Y-104205250D01*
X171429151Y-104185038D01*
X171438330Y-104165632D01*
X171449366Y-104147219D01*
X171462154Y-104129976D01*
X171476570Y-104114070D01*
X171492476Y-104099654D01*
X171509719Y-104086866D01*
X171528132Y-104075830D01*
X171547538Y-104066651D01*
X171567750Y-104059419D01*
X171588574Y-104054203D01*
X171609809Y-104051053D01*
X171631250Y-104050000D01*
X172068750Y-104050000D01*
X172090191Y-104051053D01*
G37*
G36*
X173665191Y-104051053D02*
G01*
X173686426Y-104054203D01*
X173707250Y-104059419D01*
X173727462Y-104066651D01*
X173746868Y-104075830D01*
X173765281Y-104086866D01*
X173782524Y-104099654D01*
X173798430Y-104114070D01*
X173812846Y-104129976D01*
X173825634Y-104147219D01*
X173836670Y-104165632D01*
X173845849Y-104185038D01*
X173853081Y-104205250D01*
X173858297Y-104226074D01*
X173861447Y-104247309D01*
X173862500Y-104268750D01*
X173862500Y-104781250D01*
X173861447Y-104802691D01*
X173858297Y-104823926D01*
X173853081Y-104844750D01*
X173845849Y-104864962D01*
X173836670Y-104884368D01*
X173825634Y-104902781D01*
X173812846Y-104920024D01*
X173798430Y-104935930D01*
X173782524Y-104950346D01*
X173765281Y-104963134D01*
X173746868Y-104974170D01*
X173727462Y-104983349D01*
X173707250Y-104990581D01*
X173686426Y-104995797D01*
X173665191Y-104998947D01*
X173643750Y-105000000D01*
X173206250Y-105000000D01*
X173184809Y-104998947D01*
X173163574Y-104995797D01*
X173142750Y-104990581D01*
X173122538Y-104983349D01*
X173103132Y-104974170D01*
X173084719Y-104963134D01*
X173067476Y-104950346D01*
X173051570Y-104935930D01*
X173037154Y-104920024D01*
X173024366Y-104902781D01*
X173013330Y-104884368D01*
X173004151Y-104864962D01*
X172996919Y-104844750D01*
X172991703Y-104823926D01*
X172988553Y-104802691D01*
X172987500Y-104781250D01*
X172987500Y-104268750D01*
X172988553Y-104247309D01*
X172991703Y-104226074D01*
X172996919Y-104205250D01*
X173004151Y-104185038D01*
X173013330Y-104165632D01*
X173024366Y-104147219D01*
X173037154Y-104129976D01*
X173051570Y-104114070D01*
X173067476Y-104099654D01*
X173084719Y-104086866D01*
X173103132Y-104075830D01*
X173122538Y-104066651D01*
X173142750Y-104059419D01*
X173163574Y-104054203D01*
X173184809Y-104051053D01*
X173206250Y-104050000D01*
X173643750Y-104050000D01*
X173665191Y-104051053D01*
G37*
G36*
X176692691Y-93851053D02*
G01*
X176713926Y-93854203D01*
X176734750Y-93859419D01*
X176754962Y-93866651D01*
X176774368Y-93875830D01*
X176792781Y-93886866D01*
X176810024Y-93899654D01*
X176825930Y-93914070D01*
X176840346Y-93929976D01*
X176853134Y-93947219D01*
X176864170Y-93965632D01*
X176873349Y-93985038D01*
X176880581Y-94005250D01*
X176885797Y-94026074D01*
X176888947Y-94047309D01*
X176890000Y-94068750D01*
X176890000Y-94581250D01*
X176888947Y-94602691D01*
X176885797Y-94623926D01*
X176880581Y-94644750D01*
X176873349Y-94664962D01*
X176864170Y-94684368D01*
X176853134Y-94702781D01*
X176840346Y-94720024D01*
X176825930Y-94735930D01*
X176810024Y-94750346D01*
X176792781Y-94763134D01*
X176774368Y-94774170D01*
X176754962Y-94783349D01*
X176734750Y-94790581D01*
X176713926Y-94795797D01*
X176692691Y-94798947D01*
X176671250Y-94800000D01*
X176233750Y-94800000D01*
X176212309Y-94798947D01*
X176191074Y-94795797D01*
X176170250Y-94790581D01*
X176150038Y-94783349D01*
X176130632Y-94774170D01*
X176112219Y-94763134D01*
X176094976Y-94750346D01*
X176079070Y-94735930D01*
X176064654Y-94720024D01*
X176051866Y-94702781D01*
X176040830Y-94684368D01*
X176031651Y-94664962D01*
X176024419Y-94644750D01*
X176019203Y-94623926D01*
X176016053Y-94602691D01*
X176015000Y-94581250D01*
X176015000Y-94068750D01*
X176016053Y-94047309D01*
X176019203Y-94026074D01*
X176024419Y-94005250D01*
X176031651Y-93985038D01*
X176040830Y-93965632D01*
X176051866Y-93947219D01*
X176064654Y-93929976D01*
X176079070Y-93914070D01*
X176094976Y-93899654D01*
X176112219Y-93886866D01*
X176130632Y-93875830D01*
X176150038Y-93866651D01*
X176170250Y-93859419D01*
X176191074Y-93854203D01*
X176212309Y-93851053D01*
X176233750Y-93850000D01*
X176671250Y-93850000D01*
X176692691Y-93851053D01*
G37*
G36*
X178267691Y-93851053D02*
G01*
X178288926Y-93854203D01*
X178309750Y-93859419D01*
X178329962Y-93866651D01*
X178349368Y-93875830D01*
X178367781Y-93886866D01*
X178385024Y-93899654D01*
X178400930Y-93914070D01*
X178415346Y-93929976D01*
X178428134Y-93947219D01*
X178439170Y-93965632D01*
X178448349Y-93985038D01*
X178455581Y-94005250D01*
X178460797Y-94026074D01*
X178463947Y-94047309D01*
X178465000Y-94068750D01*
X178465000Y-94581250D01*
X178463947Y-94602691D01*
X178460797Y-94623926D01*
X178455581Y-94644750D01*
X178448349Y-94664962D01*
X178439170Y-94684368D01*
X178428134Y-94702781D01*
X178415346Y-94720024D01*
X178400930Y-94735930D01*
X178385024Y-94750346D01*
X178367781Y-94763134D01*
X178349368Y-94774170D01*
X178329962Y-94783349D01*
X178309750Y-94790581D01*
X178288926Y-94795797D01*
X178267691Y-94798947D01*
X178246250Y-94800000D01*
X177808750Y-94800000D01*
X177787309Y-94798947D01*
X177766074Y-94795797D01*
X177745250Y-94790581D01*
X177725038Y-94783349D01*
X177705632Y-94774170D01*
X177687219Y-94763134D01*
X177669976Y-94750346D01*
X177654070Y-94735930D01*
X177639654Y-94720024D01*
X177626866Y-94702781D01*
X177615830Y-94684368D01*
X177606651Y-94664962D01*
X177599419Y-94644750D01*
X177594203Y-94623926D01*
X177591053Y-94602691D01*
X177590000Y-94581250D01*
X177590000Y-94068750D01*
X177591053Y-94047309D01*
X177594203Y-94026074D01*
X177599419Y-94005250D01*
X177606651Y-93985038D01*
X177615830Y-93965632D01*
X177626866Y-93947219D01*
X177639654Y-93929976D01*
X177654070Y-93914070D01*
X177669976Y-93899654D01*
X177687219Y-93886866D01*
X177705632Y-93875830D01*
X177725038Y-93866651D01*
X177745250Y-93859419D01*
X177766074Y-93854203D01*
X177787309Y-93851053D01*
X177808750Y-93850000D01*
X178246250Y-93850000D01*
X178267691Y-93851053D01*
G37*
G36*
X178477691Y-104026053D02*
G01*
X178498926Y-104029203D01*
X178519750Y-104034419D01*
X178539962Y-104041651D01*
X178559368Y-104050830D01*
X178577781Y-104061866D01*
X178595024Y-104074654D01*
X178610930Y-104089070D01*
X178625346Y-104104976D01*
X178638134Y-104122219D01*
X178649170Y-104140632D01*
X178658349Y-104160038D01*
X178665581Y-104180250D01*
X178670797Y-104201074D01*
X178673947Y-104222309D01*
X178675000Y-104243750D01*
X178675000Y-104756250D01*
X178673947Y-104777691D01*
X178670797Y-104798926D01*
X178665581Y-104819750D01*
X178658349Y-104839962D01*
X178649170Y-104859368D01*
X178638134Y-104877781D01*
X178625346Y-104895024D01*
X178610930Y-104910930D01*
X178595024Y-104925346D01*
X178577781Y-104938134D01*
X178559368Y-104949170D01*
X178539962Y-104958349D01*
X178519750Y-104965581D01*
X178498926Y-104970797D01*
X178477691Y-104973947D01*
X178456250Y-104975000D01*
X178018750Y-104975000D01*
X177997309Y-104973947D01*
X177976074Y-104970797D01*
X177955250Y-104965581D01*
X177935038Y-104958349D01*
X177915632Y-104949170D01*
X177897219Y-104938134D01*
X177879976Y-104925346D01*
X177864070Y-104910930D01*
X177849654Y-104895024D01*
X177836866Y-104877781D01*
X177825830Y-104859368D01*
X177816651Y-104839962D01*
X177809419Y-104819750D01*
X177804203Y-104798926D01*
X177801053Y-104777691D01*
X177800000Y-104756250D01*
X177800000Y-104243750D01*
X177801053Y-104222309D01*
X177804203Y-104201074D01*
X177809419Y-104180250D01*
X177816651Y-104160038D01*
X177825830Y-104140632D01*
X177836866Y-104122219D01*
X177849654Y-104104976D01*
X177864070Y-104089070D01*
X177879976Y-104074654D01*
X177897219Y-104061866D01*
X177915632Y-104050830D01*
X177935038Y-104041651D01*
X177955250Y-104034419D01*
X177976074Y-104029203D01*
X177997309Y-104026053D01*
X178018750Y-104025000D01*
X178456250Y-104025000D01*
X178477691Y-104026053D01*
G37*
G36*
X176902691Y-104026053D02*
G01*
X176923926Y-104029203D01*
X176944750Y-104034419D01*
X176964962Y-104041651D01*
X176984368Y-104050830D01*
X177002781Y-104061866D01*
X177020024Y-104074654D01*
X177035930Y-104089070D01*
X177050346Y-104104976D01*
X177063134Y-104122219D01*
X177074170Y-104140632D01*
X177083349Y-104160038D01*
X177090581Y-104180250D01*
X177095797Y-104201074D01*
X177098947Y-104222309D01*
X177100000Y-104243750D01*
X177100000Y-104756250D01*
X177098947Y-104777691D01*
X177095797Y-104798926D01*
X177090581Y-104819750D01*
X177083349Y-104839962D01*
X177074170Y-104859368D01*
X177063134Y-104877781D01*
X177050346Y-104895024D01*
X177035930Y-104910930D01*
X177020024Y-104925346D01*
X177002781Y-104938134D01*
X176984368Y-104949170D01*
X176964962Y-104958349D01*
X176944750Y-104965581D01*
X176923926Y-104970797D01*
X176902691Y-104973947D01*
X176881250Y-104975000D01*
X176443750Y-104975000D01*
X176422309Y-104973947D01*
X176401074Y-104970797D01*
X176380250Y-104965581D01*
X176360038Y-104958349D01*
X176340632Y-104949170D01*
X176322219Y-104938134D01*
X176304976Y-104925346D01*
X176289070Y-104910930D01*
X176274654Y-104895024D01*
X176261866Y-104877781D01*
X176250830Y-104859368D01*
X176241651Y-104839962D01*
X176234419Y-104819750D01*
X176229203Y-104798926D01*
X176226053Y-104777691D01*
X176225000Y-104756250D01*
X176225000Y-104243750D01*
X176226053Y-104222309D01*
X176229203Y-104201074D01*
X176234419Y-104180250D01*
X176241651Y-104160038D01*
X176250830Y-104140632D01*
X176261866Y-104122219D01*
X176274654Y-104104976D01*
X176289070Y-104089070D01*
X176304976Y-104074654D01*
X176322219Y-104061866D01*
X176340632Y-104050830D01*
X176360038Y-104041651D01*
X176380250Y-104034419D01*
X176401074Y-104029203D01*
X176422309Y-104026053D01*
X176443750Y-104025000D01*
X176881250Y-104025000D01*
X176902691Y-104026053D01*
G37*
G36*
X171987691Y-93851053D02*
G01*
X172008926Y-93854203D01*
X172029750Y-93859419D01*
X172049962Y-93866651D01*
X172069368Y-93875830D01*
X172087781Y-93886866D01*
X172105024Y-93899654D01*
X172120930Y-93914070D01*
X172135346Y-93929976D01*
X172148134Y-93947219D01*
X172159170Y-93965632D01*
X172168349Y-93985038D01*
X172175581Y-94005250D01*
X172180797Y-94026074D01*
X172183947Y-94047309D01*
X172185000Y-94068750D01*
X172185000Y-94581250D01*
X172183947Y-94602691D01*
X172180797Y-94623926D01*
X172175581Y-94644750D01*
X172168349Y-94664962D01*
X172159170Y-94684368D01*
X172148134Y-94702781D01*
X172135346Y-94720024D01*
X172120930Y-94735930D01*
X172105024Y-94750346D01*
X172087781Y-94763134D01*
X172069368Y-94774170D01*
X172049962Y-94783349D01*
X172029750Y-94790581D01*
X172008926Y-94795797D01*
X171987691Y-94798947D01*
X171966250Y-94800000D01*
X171528750Y-94800000D01*
X171507309Y-94798947D01*
X171486074Y-94795797D01*
X171465250Y-94790581D01*
X171445038Y-94783349D01*
X171425632Y-94774170D01*
X171407219Y-94763134D01*
X171389976Y-94750346D01*
X171374070Y-94735930D01*
X171359654Y-94720024D01*
X171346866Y-94702781D01*
X171335830Y-94684368D01*
X171326651Y-94664962D01*
X171319419Y-94644750D01*
X171314203Y-94623926D01*
X171311053Y-94602691D01*
X171310000Y-94581250D01*
X171310000Y-94068750D01*
X171311053Y-94047309D01*
X171314203Y-94026074D01*
X171319419Y-94005250D01*
X171326651Y-93985038D01*
X171335830Y-93965632D01*
X171346866Y-93947219D01*
X171359654Y-93929976D01*
X171374070Y-93914070D01*
X171389976Y-93899654D01*
X171407219Y-93886866D01*
X171425632Y-93875830D01*
X171445038Y-93866651D01*
X171465250Y-93859419D01*
X171486074Y-93854203D01*
X171507309Y-93851053D01*
X171528750Y-93850000D01*
X171966250Y-93850000D01*
X171987691Y-93851053D01*
G37*
G36*
X173562691Y-93851053D02*
G01*
X173583926Y-93854203D01*
X173604750Y-93859419D01*
X173624962Y-93866651D01*
X173644368Y-93875830D01*
X173662781Y-93886866D01*
X173680024Y-93899654D01*
X173695930Y-93914070D01*
X173710346Y-93929976D01*
X173723134Y-93947219D01*
X173734170Y-93965632D01*
X173743349Y-93985038D01*
X173750581Y-94005250D01*
X173755797Y-94026074D01*
X173758947Y-94047309D01*
X173760000Y-94068750D01*
X173760000Y-94581250D01*
X173758947Y-94602691D01*
X173755797Y-94623926D01*
X173750581Y-94644750D01*
X173743349Y-94664962D01*
X173734170Y-94684368D01*
X173723134Y-94702781D01*
X173710346Y-94720024D01*
X173695930Y-94735930D01*
X173680024Y-94750346D01*
X173662781Y-94763134D01*
X173644368Y-94774170D01*
X173624962Y-94783349D01*
X173604750Y-94790581D01*
X173583926Y-94795797D01*
X173562691Y-94798947D01*
X173541250Y-94800000D01*
X173103750Y-94800000D01*
X173082309Y-94798947D01*
X173061074Y-94795797D01*
X173040250Y-94790581D01*
X173020038Y-94783349D01*
X173000632Y-94774170D01*
X172982219Y-94763134D01*
X172964976Y-94750346D01*
X172949070Y-94735930D01*
X172934654Y-94720024D01*
X172921866Y-94702781D01*
X172910830Y-94684368D01*
X172901651Y-94664962D01*
X172894419Y-94644750D01*
X172889203Y-94623926D01*
X172886053Y-94602691D01*
X172885000Y-94581250D01*
X172885000Y-94068750D01*
X172886053Y-94047309D01*
X172889203Y-94026074D01*
X172894419Y-94005250D01*
X172901651Y-93985038D01*
X172910830Y-93965632D01*
X172921866Y-93947219D01*
X172934654Y-93929976D01*
X172949070Y-93914070D01*
X172964976Y-93899654D01*
X172982219Y-93886866D01*
X173000632Y-93875830D01*
X173020038Y-93866651D01*
X173040250Y-93859419D01*
X173061074Y-93854203D01*
X173082309Y-93851053D01*
X173103750Y-93850000D01*
X173541250Y-93850000D01*
X173562691Y-93851053D01*
G37*
G36*
X169277691Y-97751053D02*
G01*
X169298926Y-97754203D01*
X169319750Y-97759419D01*
X169339962Y-97766651D01*
X169359368Y-97775830D01*
X169377781Y-97786866D01*
X169395024Y-97799654D01*
X169410930Y-97814070D01*
X169425346Y-97829976D01*
X169438134Y-97847219D01*
X169449170Y-97865632D01*
X169458349Y-97885038D01*
X169465581Y-97905250D01*
X169470797Y-97926074D01*
X169473947Y-97947309D01*
X169475000Y-97968750D01*
X169475000Y-98406250D01*
X169473947Y-98427691D01*
X169470797Y-98448926D01*
X169465581Y-98469750D01*
X169458349Y-98489962D01*
X169449170Y-98509368D01*
X169438134Y-98527781D01*
X169425346Y-98545024D01*
X169410930Y-98560930D01*
X169395024Y-98575346D01*
X169377781Y-98588134D01*
X169359368Y-98599170D01*
X169339962Y-98608349D01*
X169319750Y-98615581D01*
X169298926Y-98620797D01*
X169277691Y-98623947D01*
X169256250Y-98625000D01*
X168743750Y-98625000D01*
X168722309Y-98623947D01*
X168701074Y-98620797D01*
X168680250Y-98615581D01*
X168660038Y-98608349D01*
X168640632Y-98599170D01*
X168622219Y-98588134D01*
X168604976Y-98575346D01*
X168589070Y-98560930D01*
X168574654Y-98545024D01*
X168561866Y-98527781D01*
X168550830Y-98509368D01*
X168541651Y-98489962D01*
X168534419Y-98469750D01*
X168529203Y-98448926D01*
X168526053Y-98427691D01*
X168525000Y-98406250D01*
X168525000Y-97968750D01*
X168526053Y-97947309D01*
X168529203Y-97926074D01*
X168534419Y-97905250D01*
X168541651Y-97885038D01*
X168550830Y-97865632D01*
X168561866Y-97847219D01*
X168574654Y-97829976D01*
X168589070Y-97814070D01*
X168604976Y-97799654D01*
X168622219Y-97786866D01*
X168640632Y-97775830D01*
X168660038Y-97766651D01*
X168680250Y-97759419D01*
X168701074Y-97754203D01*
X168722309Y-97751053D01*
X168743750Y-97750000D01*
X169256250Y-97750000D01*
X169277691Y-97751053D01*
G37*
G36*
X169277691Y-96176053D02*
G01*
X169298926Y-96179203D01*
X169319750Y-96184419D01*
X169339962Y-96191651D01*
X169359368Y-96200830D01*
X169377781Y-96211866D01*
X169395024Y-96224654D01*
X169410930Y-96239070D01*
X169425346Y-96254976D01*
X169438134Y-96272219D01*
X169449170Y-96290632D01*
X169458349Y-96310038D01*
X169465581Y-96330250D01*
X169470797Y-96351074D01*
X169473947Y-96372309D01*
X169475000Y-96393750D01*
X169475000Y-96831250D01*
X169473947Y-96852691D01*
X169470797Y-96873926D01*
X169465581Y-96894750D01*
X169458349Y-96914962D01*
X169449170Y-96934368D01*
X169438134Y-96952781D01*
X169425346Y-96970024D01*
X169410930Y-96985930D01*
X169395024Y-97000346D01*
X169377781Y-97013134D01*
X169359368Y-97024170D01*
X169339962Y-97033349D01*
X169319750Y-97040581D01*
X169298926Y-97045797D01*
X169277691Y-97048947D01*
X169256250Y-97050000D01*
X168743750Y-97050000D01*
X168722309Y-97048947D01*
X168701074Y-97045797D01*
X168680250Y-97040581D01*
X168660038Y-97033349D01*
X168640632Y-97024170D01*
X168622219Y-97013134D01*
X168604976Y-97000346D01*
X168589070Y-96985930D01*
X168574654Y-96970024D01*
X168561866Y-96952781D01*
X168550830Y-96934368D01*
X168541651Y-96914962D01*
X168534419Y-96894750D01*
X168529203Y-96873926D01*
X168526053Y-96852691D01*
X168525000Y-96831250D01*
X168525000Y-96393750D01*
X168526053Y-96372309D01*
X168529203Y-96351074D01*
X168534419Y-96330250D01*
X168541651Y-96310038D01*
X168550830Y-96290632D01*
X168561866Y-96272219D01*
X168574654Y-96254976D01*
X168589070Y-96239070D01*
X168604976Y-96224654D01*
X168622219Y-96211866D01*
X168640632Y-96200830D01*
X168660038Y-96191651D01*
X168680250Y-96184419D01*
X168701074Y-96179203D01*
X168722309Y-96176053D01*
X168743750Y-96175000D01*
X169256250Y-96175000D01*
X169277691Y-96176053D01*
G37*
G36*
X179090191Y-107401053D02*
G01*
X179111426Y-107404203D01*
X179132250Y-107409419D01*
X179152462Y-107416651D01*
X179171868Y-107425830D01*
X179190281Y-107436866D01*
X179207524Y-107449654D01*
X179223430Y-107464070D01*
X179237846Y-107479976D01*
X179250634Y-107497219D01*
X179261670Y-107515632D01*
X179270849Y-107535038D01*
X179278081Y-107555250D01*
X179283297Y-107576074D01*
X179286447Y-107597309D01*
X179287500Y-107618750D01*
X179287500Y-108131250D01*
X179286447Y-108152691D01*
X179283297Y-108173926D01*
X179278081Y-108194750D01*
X179270849Y-108214962D01*
X179261670Y-108234368D01*
X179250634Y-108252781D01*
X179237846Y-108270024D01*
X179223430Y-108285930D01*
X179207524Y-108300346D01*
X179190281Y-108313134D01*
X179171868Y-108324170D01*
X179152462Y-108333349D01*
X179132250Y-108340581D01*
X179111426Y-108345797D01*
X179090191Y-108348947D01*
X179068750Y-108350000D01*
X178631250Y-108350000D01*
X178609809Y-108348947D01*
X178588574Y-108345797D01*
X178567750Y-108340581D01*
X178547538Y-108333349D01*
X178528132Y-108324170D01*
X178509719Y-108313134D01*
X178492476Y-108300346D01*
X178476570Y-108285930D01*
X178462154Y-108270024D01*
X178449366Y-108252781D01*
X178438330Y-108234368D01*
X178429151Y-108214962D01*
X178421919Y-108194750D01*
X178416703Y-108173926D01*
X178413553Y-108152691D01*
X178412500Y-108131250D01*
X178412500Y-107618750D01*
X178413553Y-107597309D01*
X178416703Y-107576074D01*
X178421919Y-107555250D01*
X178429151Y-107535038D01*
X178438330Y-107515632D01*
X178449366Y-107497219D01*
X178462154Y-107479976D01*
X178476570Y-107464070D01*
X178492476Y-107449654D01*
X178509719Y-107436866D01*
X178528132Y-107425830D01*
X178547538Y-107416651D01*
X178567750Y-107409419D01*
X178588574Y-107404203D01*
X178609809Y-107401053D01*
X178631250Y-107400000D01*
X179068750Y-107400000D01*
X179090191Y-107401053D01*
G37*
G36*
X180665191Y-107401053D02*
G01*
X180686426Y-107404203D01*
X180707250Y-107409419D01*
X180727462Y-107416651D01*
X180746868Y-107425830D01*
X180765281Y-107436866D01*
X180782524Y-107449654D01*
X180798430Y-107464070D01*
X180812846Y-107479976D01*
X180825634Y-107497219D01*
X180836670Y-107515632D01*
X180845849Y-107535038D01*
X180853081Y-107555250D01*
X180858297Y-107576074D01*
X180861447Y-107597309D01*
X180862500Y-107618750D01*
X180862500Y-108131250D01*
X180861447Y-108152691D01*
X180858297Y-108173926D01*
X180853081Y-108194750D01*
X180845849Y-108214962D01*
X180836670Y-108234368D01*
X180825634Y-108252781D01*
X180812846Y-108270024D01*
X180798430Y-108285930D01*
X180782524Y-108300346D01*
X180765281Y-108313134D01*
X180746868Y-108324170D01*
X180727462Y-108333349D01*
X180707250Y-108340581D01*
X180686426Y-108345797D01*
X180665191Y-108348947D01*
X180643750Y-108350000D01*
X180206250Y-108350000D01*
X180184809Y-108348947D01*
X180163574Y-108345797D01*
X180142750Y-108340581D01*
X180122538Y-108333349D01*
X180103132Y-108324170D01*
X180084719Y-108313134D01*
X180067476Y-108300346D01*
X180051570Y-108285930D01*
X180037154Y-108270024D01*
X180024366Y-108252781D01*
X180013330Y-108234368D01*
X180004151Y-108214962D01*
X179996919Y-108194750D01*
X179991703Y-108173926D01*
X179988553Y-108152691D01*
X179987500Y-108131250D01*
X179987500Y-107618750D01*
X179988553Y-107597309D01*
X179991703Y-107576074D01*
X179996919Y-107555250D01*
X180004151Y-107535038D01*
X180013330Y-107515632D01*
X180024366Y-107497219D01*
X180037154Y-107479976D01*
X180051570Y-107464070D01*
X180067476Y-107449654D01*
X180084719Y-107436866D01*
X180103132Y-107425830D01*
X180122538Y-107416651D01*
X180142750Y-107409419D01*
X180163574Y-107404203D01*
X180184809Y-107401053D01*
X180206250Y-107400000D01*
X180643750Y-107400000D01*
X180665191Y-107401053D01*
G37*
G36*
X147140191Y-99701053D02*
G01*
X147161426Y-99704203D01*
X147182250Y-99709419D01*
X147202462Y-99716651D01*
X147221868Y-99725830D01*
X147240281Y-99736866D01*
X147257524Y-99749654D01*
X147273430Y-99764070D01*
X147287846Y-99779976D01*
X147300634Y-99797219D01*
X147311670Y-99815632D01*
X147320849Y-99835038D01*
X147328081Y-99855250D01*
X147333297Y-99876074D01*
X147336447Y-99897309D01*
X147337500Y-99918750D01*
X147337500Y-100431250D01*
X147336447Y-100452691D01*
X147333297Y-100473926D01*
X147328081Y-100494750D01*
X147320849Y-100514962D01*
X147311670Y-100534368D01*
X147300634Y-100552781D01*
X147287846Y-100570024D01*
X147273430Y-100585930D01*
X147257524Y-100600346D01*
X147240281Y-100613134D01*
X147221868Y-100624170D01*
X147202462Y-100633349D01*
X147182250Y-100640581D01*
X147161426Y-100645797D01*
X147140191Y-100648947D01*
X147118750Y-100650000D01*
X146681250Y-100650000D01*
X146659809Y-100648947D01*
X146638574Y-100645797D01*
X146617750Y-100640581D01*
X146597538Y-100633349D01*
X146578132Y-100624170D01*
X146559719Y-100613134D01*
X146542476Y-100600346D01*
X146526570Y-100585930D01*
X146512154Y-100570024D01*
X146499366Y-100552781D01*
X146488330Y-100534368D01*
X146479151Y-100514962D01*
X146471919Y-100494750D01*
X146466703Y-100473926D01*
X146463553Y-100452691D01*
X146462500Y-100431250D01*
X146462500Y-99918750D01*
X146463553Y-99897309D01*
X146466703Y-99876074D01*
X146471919Y-99855250D01*
X146479151Y-99835038D01*
X146488330Y-99815632D01*
X146499366Y-99797219D01*
X146512154Y-99779976D01*
X146526570Y-99764070D01*
X146542476Y-99749654D01*
X146559719Y-99736866D01*
X146578132Y-99725830D01*
X146597538Y-99716651D01*
X146617750Y-99709419D01*
X146638574Y-99704203D01*
X146659809Y-99701053D01*
X146681250Y-99700000D01*
X147118750Y-99700000D01*
X147140191Y-99701053D01*
G37*
G36*
X148715191Y-99701053D02*
G01*
X148736426Y-99704203D01*
X148757250Y-99709419D01*
X148777462Y-99716651D01*
X148796868Y-99725830D01*
X148815281Y-99736866D01*
X148832524Y-99749654D01*
X148848430Y-99764070D01*
X148862846Y-99779976D01*
X148875634Y-99797219D01*
X148886670Y-99815632D01*
X148895849Y-99835038D01*
X148903081Y-99855250D01*
X148908297Y-99876074D01*
X148911447Y-99897309D01*
X148912500Y-99918750D01*
X148912500Y-100431250D01*
X148911447Y-100452691D01*
X148908297Y-100473926D01*
X148903081Y-100494750D01*
X148895849Y-100514962D01*
X148886670Y-100534368D01*
X148875634Y-100552781D01*
X148862846Y-100570024D01*
X148848430Y-100585930D01*
X148832524Y-100600346D01*
X148815281Y-100613134D01*
X148796868Y-100624170D01*
X148777462Y-100633349D01*
X148757250Y-100640581D01*
X148736426Y-100645797D01*
X148715191Y-100648947D01*
X148693750Y-100650000D01*
X148256250Y-100650000D01*
X148234809Y-100648947D01*
X148213574Y-100645797D01*
X148192750Y-100640581D01*
X148172538Y-100633349D01*
X148153132Y-100624170D01*
X148134719Y-100613134D01*
X148117476Y-100600346D01*
X148101570Y-100585930D01*
X148087154Y-100570024D01*
X148074366Y-100552781D01*
X148063330Y-100534368D01*
X148054151Y-100514962D01*
X148046919Y-100494750D01*
X148041703Y-100473926D01*
X148038553Y-100452691D01*
X148037500Y-100431250D01*
X148037500Y-99918750D01*
X148038553Y-99897309D01*
X148041703Y-99876074D01*
X148046919Y-99855250D01*
X148054151Y-99835038D01*
X148063330Y-99815632D01*
X148074366Y-99797219D01*
X148087154Y-99779976D01*
X148101570Y-99764070D01*
X148117476Y-99749654D01*
X148134719Y-99736866D01*
X148153132Y-99725830D01*
X148172538Y-99716651D01*
X148192750Y-99709419D01*
X148213574Y-99704203D01*
X148234809Y-99701053D01*
X148256250Y-99700000D01*
X148693750Y-99700000D01*
X148715191Y-99701053D01*
G37*
G36*
X147115191Y-101601053D02*
G01*
X147136426Y-101604203D01*
X147157250Y-101609419D01*
X147177462Y-101616651D01*
X147196868Y-101625830D01*
X147215281Y-101636866D01*
X147232524Y-101649654D01*
X147248430Y-101664070D01*
X147262846Y-101679976D01*
X147275634Y-101697219D01*
X147286670Y-101715632D01*
X147295849Y-101735038D01*
X147303081Y-101755250D01*
X147308297Y-101776074D01*
X147311447Y-101797309D01*
X147312500Y-101818750D01*
X147312500Y-102331250D01*
X147311447Y-102352691D01*
X147308297Y-102373926D01*
X147303081Y-102394750D01*
X147295849Y-102414962D01*
X147286670Y-102434368D01*
X147275634Y-102452781D01*
X147262846Y-102470024D01*
X147248430Y-102485930D01*
X147232524Y-102500346D01*
X147215281Y-102513134D01*
X147196868Y-102524170D01*
X147177462Y-102533349D01*
X147157250Y-102540581D01*
X147136426Y-102545797D01*
X147115191Y-102548947D01*
X147093750Y-102550000D01*
X146656250Y-102550000D01*
X146634809Y-102548947D01*
X146613574Y-102545797D01*
X146592750Y-102540581D01*
X146572538Y-102533349D01*
X146553132Y-102524170D01*
X146534719Y-102513134D01*
X146517476Y-102500346D01*
X146501570Y-102485930D01*
X146487154Y-102470024D01*
X146474366Y-102452781D01*
X146463330Y-102434368D01*
X146454151Y-102414962D01*
X146446919Y-102394750D01*
X146441703Y-102373926D01*
X146438553Y-102352691D01*
X146437500Y-102331250D01*
X146437500Y-101818750D01*
X146438553Y-101797309D01*
X146441703Y-101776074D01*
X146446919Y-101755250D01*
X146454151Y-101735038D01*
X146463330Y-101715632D01*
X146474366Y-101697219D01*
X146487154Y-101679976D01*
X146501570Y-101664070D01*
X146517476Y-101649654D01*
X146534719Y-101636866D01*
X146553132Y-101625830D01*
X146572538Y-101616651D01*
X146592750Y-101609419D01*
X146613574Y-101604203D01*
X146634809Y-101601053D01*
X146656250Y-101600000D01*
X147093750Y-101600000D01*
X147115191Y-101601053D01*
G37*
G36*
X148690191Y-101601053D02*
G01*
X148711426Y-101604203D01*
X148732250Y-101609419D01*
X148752462Y-101616651D01*
X148771868Y-101625830D01*
X148790281Y-101636866D01*
X148807524Y-101649654D01*
X148823430Y-101664070D01*
X148837846Y-101679976D01*
X148850634Y-101697219D01*
X148861670Y-101715632D01*
X148870849Y-101735038D01*
X148878081Y-101755250D01*
X148883297Y-101776074D01*
X148886447Y-101797309D01*
X148887500Y-101818750D01*
X148887500Y-102331250D01*
X148886447Y-102352691D01*
X148883297Y-102373926D01*
X148878081Y-102394750D01*
X148870849Y-102414962D01*
X148861670Y-102434368D01*
X148850634Y-102452781D01*
X148837846Y-102470024D01*
X148823430Y-102485930D01*
X148807524Y-102500346D01*
X148790281Y-102513134D01*
X148771868Y-102524170D01*
X148752462Y-102533349D01*
X148732250Y-102540581D01*
X148711426Y-102545797D01*
X148690191Y-102548947D01*
X148668750Y-102550000D01*
X148231250Y-102550000D01*
X148209809Y-102548947D01*
X148188574Y-102545797D01*
X148167750Y-102540581D01*
X148147538Y-102533349D01*
X148128132Y-102524170D01*
X148109719Y-102513134D01*
X148092476Y-102500346D01*
X148076570Y-102485930D01*
X148062154Y-102470024D01*
X148049366Y-102452781D01*
X148038330Y-102434368D01*
X148029151Y-102414962D01*
X148021919Y-102394750D01*
X148016703Y-102373926D01*
X148013553Y-102352691D01*
X148012500Y-102331250D01*
X148012500Y-101818750D01*
X148013553Y-101797309D01*
X148016703Y-101776074D01*
X148021919Y-101755250D01*
X148029151Y-101735038D01*
X148038330Y-101715632D01*
X148049366Y-101697219D01*
X148062154Y-101679976D01*
X148076570Y-101664070D01*
X148092476Y-101649654D01*
X148109719Y-101636866D01*
X148128132Y-101625830D01*
X148147538Y-101616651D01*
X148167750Y-101609419D01*
X148188574Y-101604203D01*
X148209809Y-101601053D01*
X148231250Y-101600000D01*
X148668750Y-101600000D01*
X148690191Y-101601053D01*
G37*
G36*
X177735142Y-101945174D02*
G01*
X177758803Y-101948684D01*
X177782007Y-101954496D01*
X177804529Y-101962554D01*
X177826153Y-101972782D01*
X177846670Y-101985079D01*
X177865883Y-101999329D01*
X177883607Y-102015393D01*
X177899671Y-102033117D01*
X177913921Y-102052330D01*
X177926218Y-102072847D01*
X177936446Y-102094471D01*
X177944504Y-102116993D01*
X177950316Y-102140197D01*
X177953826Y-102163858D01*
X177955000Y-102187750D01*
X177955000Y-102675250D01*
X177953826Y-102699142D01*
X177950316Y-102722803D01*
X177944504Y-102746007D01*
X177936446Y-102768529D01*
X177926218Y-102790153D01*
X177913921Y-102810670D01*
X177899671Y-102829883D01*
X177883607Y-102847607D01*
X177865883Y-102863671D01*
X177846670Y-102877921D01*
X177826153Y-102890218D01*
X177804529Y-102900446D01*
X177782007Y-102908504D01*
X177758803Y-102914316D01*
X177735142Y-102917826D01*
X177711250Y-102919000D01*
X176798750Y-102919000D01*
X176774858Y-102917826D01*
X176751197Y-102914316D01*
X176727993Y-102908504D01*
X176705471Y-102900446D01*
X176683847Y-102890218D01*
X176663330Y-102877921D01*
X176644117Y-102863671D01*
X176626393Y-102847607D01*
X176610329Y-102829883D01*
X176596079Y-102810670D01*
X176583782Y-102790153D01*
X176573554Y-102768529D01*
X176565496Y-102746007D01*
X176559684Y-102722803D01*
X176556174Y-102699142D01*
X176555000Y-102675250D01*
X176555000Y-102187750D01*
X176556174Y-102163858D01*
X176559684Y-102140197D01*
X176565496Y-102116993D01*
X176573554Y-102094471D01*
X176583782Y-102072847D01*
X176596079Y-102052330D01*
X176610329Y-102033117D01*
X176626393Y-102015393D01*
X176644117Y-101999329D01*
X176663330Y-101985079D01*
X176683847Y-101972782D01*
X176705471Y-101962554D01*
X176727993Y-101954496D01*
X176751197Y-101948684D01*
X176774858Y-101945174D01*
X176798750Y-101944000D01*
X177711250Y-101944000D01*
X177735142Y-101945174D01*
G37*
G36*
X177735142Y-100070174D02*
G01*
X177758803Y-100073684D01*
X177782007Y-100079496D01*
X177804529Y-100087554D01*
X177826153Y-100097782D01*
X177846670Y-100110079D01*
X177865883Y-100124329D01*
X177883607Y-100140393D01*
X177899671Y-100158117D01*
X177913921Y-100177330D01*
X177926218Y-100197847D01*
X177936446Y-100219471D01*
X177944504Y-100241993D01*
X177950316Y-100265197D01*
X177953826Y-100288858D01*
X177955000Y-100312750D01*
X177955000Y-100800250D01*
X177953826Y-100824142D01*
X177950316Y-100847803D01*
X177944504Y-100871007D01*
X177936446Y-100893529D01*
X177926218Y-100915153D01*
X177913921Y-100935670D01*
X177899671Y-100954883D01*
X177883607Y-100972607D01*
X177865883Y-100988671D01*
X177846670Y-101002921D01*
X177826153Y-101015218D01*
X177804529Y-101025446D01*
X177782007Y-101033504D01*
X177758803Y-101039316D01*
X177735142Y-101042826D01*
X177711250Y-101044000D01*
X176798750Y-101044000D01*
X176774858Y-101042826D01*
X176751197Y-101039316D01*
X176727993Y-101033504D01*
X176705471Y-101025446D01*
X176683847Y-101015218D01*
X176663330Y-101002921D01*
X176644117Y-100988671D01*
X176626393Y-100972607D01*
X176610329Y-100954883D01*
X176596079Y-100935670D01*
X176583782Y-100915153D01*
X176573554Y-100893529D01*
X176565496Y-100871007D01*
X176559684Y-100847803D01*
X176556174Y-100824142D01*
X176555000Y-100800250D01*
X176555000Y-100312750D01*
X176556174Y-100288858D01*
X176559684Y-100265197D01*
X176565496Y-100241993D01*
X176573554Y-100219471D01*
X176583782Y-100197847D01*
X176596079Y-100177330D01*
X176610329Y-100158117D01*
X176626393Y-100140393D01*
X176644117Y-100124329D01*
X176663330Y-100110079D01*
X176683847Y-100097782D01*
X176705471Y-100087554D01*
X176727993Y-100079496D01*
X176751197Y-100073684D01*
X176774858Y-100070174D01*
X176798750Y-100069000D01*
X177711250Y-100069000D01*
X177735142Y-100070174D01*
G37*
G36*
X146327691Y-71651053D02*
G01*
X146348926Y-71654203D01*
X146369750Y-71659419D01*
X146389962Y-71666651D01*
X146409368Y-71675830D01*
X146427781Y-71686866D01*
X146445024Y-71699654D01*
X146460930Y-71714070D01*
X146475346Y-71729976D01*
X146488134Y-71747219D01*
X146499170Y-71765632D01*
X146508349Y-71785038D01*
X146515581Y-71805250D01*
X146520797Y-71826074D01*
X146523947Y-71847309D01*
X146525000Y-71868750D01*
X146525000Y-72306250D01*
X146523947Y-72327691D01*
X146520797Y-72348926D01*
X146515581Y-72369750D01*
X146508349Y-72389962D01*
X146499170Y-72409368D01*
X146488134Y-72427781D01*
X146475346Y-72445024D01*
X146460930Y-72460930D01*
X146445024Y-72475346D01*
X146427781Y-72488134D01*
X146409368Y-72499170D01*
X146389962Y-72508349D01*
X146369750Y-72515581D01*
X146348926Y-72520797D01*
X146327691Y-72523947D01*
X146306250Y-72525000D01*
X145793750Y-72525000D01*
X145772309Y-72523947D01*
X145751074Y-72520797D01*
X145730250Y-72515581D01*
X145710038Y-72508349D01*
X145690632Y-72499170D01*
X145672219Y-72488134D01*
X145654976Y-72475346D01*
X145639070Y-72460930D01*
X145624654Y-72445024D01*
X145611866Y-72427781D01*
X145600830Y-72409368D01*
X145591651Y-72389962D01*
X145584419Y-72369750D01*
X145579203Y-72348926D01*
X145576053Y-72327691D01*
X145575000Y-72306250D01*
X145575000Y-71868750D01*
X145576053Y-71847309D01*
X145579203Y-71826074D01*
X145584419Y-71805250D01*
X145591651Y-71785038D01*
X145600830Y-71765632D01*
X145611866Y-71747219D01*
X145624654Y-71729976D01*
X145639070Y-71714070D01*
X145654976Y-71699654D01*
X145672219Y-71686866D01*
X145690632Y-71675830D01*
X145710038Y-71666651D01*
X145730250Y-71659419D01*
X145751074Y-71654203D01*
X145772309Y-71651053D01*
X145793750Y-71650000D01*
X146306250Y-71650000D01*
X146327691Y-71651053D01*
G37*
G36*
X146327691Y-73226053D02*
G01*
X146348926Y-73229203D01*
X146369750Y-73234419D01*
X146389962Y-73241651D01*
X146409368Y-73250830D01*
X146427781Y-73261866D01*
X146445024Y-73274654D01*
X146460930Y-73289070D01*
X146475346Y-73304976D01*
X146488134Y-73322219D01*
X146499170Y-73340632D01*
X146508349Y-73360038D01*
X146515581Y-73380250D01*
X146520797Y-73401074D01*
X146523947Y-73422309D01*
X146525000Y-73443750D01*
X146525000Y-73881250D01*
X146523947Y-73902691D01*
X146520797Y-73923926D01*
X146515581Y-73944750D01*
X146508349Y-73964962D01*
X146499170Y-73984368D01*
X146488134Y-74002781D01*
X146475346Y-74020024D01*
X146460930Y-74035930D01*
X146445024Y-74050346D01*
X146427781Y-74063134D01*
X146409368Y-74074170D01*
X146389962Y-74083349D01*
X146369750Y-74090581D01*
X146348926Y-74095797D01*
X146327691Y-74098947D01*
X146306250Y-74100000D01*
X145793750Y-74100000D01*
X145772309Y-74098947D01*
X145751074Y-74095797D01*
X145730250Y-74090581D01*
X145710038Y-74083349D01*
X145690632Y-74074170D01*
X145672219Y-74063134D01*
X145654976Y-74050346D01*
X145639070Y-74035930D01*
X145624654Y-74020024D01*
X145611866Y-74002781D01*
X145600830Y-73984368D01*
X145591651Y-73964962D01*
X145584419Y-73944750D01*
X145579203Y-73923926D01*
X145576053Y-73902691D01*
X145575000Y-73881250D01*
X145575000Y-73443750D01*
X145576053Y-73422309D01*
X145579203Y-73401074D01*
X145584419Y-73380250D01*
X145591651Y-73360038D01*
X145600830Y-73340632D01*
X145611866Y-73322219D01*
X145624654Y-73304976D01*
X145639070Y-73289070D01*
X145654976Y-73274654D01*
X145672219Y-73261866D01*
X145690632Y-73250830D01*
X145710038Y-73241651D01*
X145730250Y-73234419D01*
X145751074Y-73229203D01*
X145772309Y-73226053D01*
X145793750Y-73225000D01*
X146306250Y-73225000D01*
X146327691Y-73226053D01*
G37*
G36*
X160677691Y-72176053D02*
G01*
X160698926Y-72179203D01*
X160719750Y-72184419D01*
X160739962Y-72191651D01*
X160759368Y-72200830D01*
X160777781Y-72211866D01*
X160795024Y-72224654D01*
X160810930Y-72239070D01*
X160825346Y-72254976D01*
X160838134Y-72272219D01*
X160849170Y-72290632D01*
X160858349Y-72310038D01*
X160865581Y-72330250D01*
X160870797Y-72351074D01*
X160873947Y-72372309D01*
X160875000Y-72393750D01*
X160875000Y-72831250D01*
X160873947Y-72852691D01*
X160870797Y-72873926D01*
X160865581Y-72894750D01*
X160858349Y-72914962D01*
X160849170Y-72934368D01*
X160838134Y-72952781D01*
X160825346Y-72970024D01*
X160810930Y-72985930D01*
X160795024Y-73000346D01*
X160777781Y-73013134D01*
X160759368Y-73024170D01*
X160739962Y-73033349D01*
X160719750Y-73040581D01*
X160698926Y-73045797D01*
X160677691Y-73048947D01*
X160656250Y-73050000D01*
X160143750Y-73050000D01*
X160122309Y-73048947D01*
X160101074Y-73045797D01*
X160080250Y-73040581D01*
X160060038Y-73033349D01*
X160040632Y-73024170D01*
X160022219Y-73013134D01*
X160004976Y-73000346D01*
X159989070Y-72985930D01*
X159974654Y-72970024D01*
X159961866Y-72952781D01*
X159950830Y-72934368D01*
X159941651Y-72914962D01*
X159934419Y-72894750D01*
X159929203Y-72873926D01*
X159926053Y-72852691D01*
X159925000Y-72831250D01*
X159925000Y-72393750D01*
X159926053Y-72372309D01*
X159929203Y-72351074D01*
X159934419Y-72330250D01*
X159941651Y-72310038D01*
X159950830Y-72290632D01*
X159961866Y-72272219D01*
X159974654Y-72254976D01*
X159989070Y-72239070D01*
X160004976Y-72224654D01*
X160022219Y-72211866D01*
X160040632Y-72200830D01*
X160060038Y-72191651D01*
X160080250Y-72184419D01*
X160101074Y-72179203D01*
X160122309Y-72176053D01*
X160143750Y-72175000D01*
X160656250Y-72175000D01*
X160677691Y-72176053D01*
G37*
G36*
X160677691Y-73751053D02*
G01*
X160698926Y-73754203D01*
X160719750Y-73759419D01*
X160739962Y-73766651D01*
X160759368Y-73775830D01*
X160777781Y-73786866D01*
X160795024Y-73799654D01*
X160810930Y-73814070D01*
X160825346Y-73829976D01*
X160838134Y-73847219D01*
X160849170Y-73865632D01*
X160858349Y-73885038D01*
X160865581Y-73905250D01*
X160870797Y-73926074D01*
X160873947Y-73947309D01*
X160875000Y-73968750D01*
X160875000Y-74406250D01*
X160873947Y-74427691D01*
X160870797Y-74448926D01*
X160865581Y-74469750D01*
X160858349Y-74489962D01*
X160849170Y-74509368D01*
X160838134Y-74527781D01*
X160825346Y-74545024D01*
X160810930Y-74560930D01*
X160795024Y-74575346D01*
X160777781Y-74588134D01*
X160759368Y-74599170D01*
X160739962Y-74608349D01*
X160719750Y-74615581D01*
X160698926Y-74620797D01*
X160677691Y-74623947D01*
X160656250Y-74625000D01*
X160143750Y-74625000D01*
X160122309Y-74623947D01*
X160101074Y-74620797D01*
X160080250Y-74615581D01*
X160060038Y-74608349D01*
X160040632Y-74599170D01*
X160022219Y-74588134D01*
X160004976Y-74575346D01*
X159989070Y-74560930D01*
X159974654Y-74545024D01*
X159961866Y-74527781D01*
X159950830Y-74509368D01*
X159941651Y-74489962D01*
X159934419Y-74469750D01*
X159929203Y-74448926D01*
X159926053Y-74427691D01*
X159925000Y-74406250D01*
X159925000Y-73968750D01*
X159926053Y-73947309D01*
X159929203Y-73926074D01*
X159934419Y-73905250D01*
X159941651Y-73885038D01*
X159950830Y-73865632D01*
X159961866Y-73847219D01*
X159974654Y-73829976D01*
X159989070Y-73814070D01*
X160004976Y-73799654D01*
X160022219Y-73786866D01*
X160040632Y-73775830D01*
X160060038Y-73766651D01*
X160080250Y-73759419D01*
X160101074Y-73754203D01*
X160122309Y-73751053D01*
X160143750Y-73750000D01*
X160656250Y-73750000D01*
X160677691Y-73751053D01*
G37*
G36*
X151190191Y-110426053D02*
G01*
X151211426Y-110429203D01*
X151232250Y-110434419D01*
X151252462Y-110441651D01*
X151271868Y-110450830D01*
X151290281Y-110461866D01*
X151307524Y-110474654D01*
X151323430Y-110489070D01*
X151337846Y-110504976D01*
X151350634Y-110522219D01*
X151361670Y-110540632D01*
X151370849Y-110560038D01*
X151378081Y-110580250D01*
X151383297Y-110601074D01*
X151386447Y-110622309D01*
X151387500Y-110643750D01*
X151387500Y-111156250D01*
X151386447Y-111177691D01*
X151383297Y-111198926D01*
X151378081Y-111219750D01*
X151370849Y-111239962D01*
X151361670Y-111259368D01*
X151350634Y-111277781D01*
X151337846Y-111295024D01*
X151323430Y-111310930D01*
X151307524Y-111325346D01*
X151290281Y-111338134D01*
X151271868Y-111349170D01*
X151252462Y-111358349D01*
X151232250Y-111365581D01*
X151211426Y-111370797D01*
X151190191Y-111373947D01*
X151168750Y-111375000D01*
X150731250Y-111375000D01*
X150709809Y-111373947D01*
X150688574Y-111370797D01*
X150667750Y-111365581D01*
X150647538Y-111358349D01*
X150628132Y-111349170D01*
X150609719Y-111338134D01*
X150592476Y-111325346D01*
X150576570Y-111310930D01*
X150562154Y-111295024D01*
X150549366Y-111277781D01*
X150538330Y-111259368D01*
X150529151Y-111239962D01*
X150521919Y-111219750D01*
X150516703Y-111198926D01*
X150513553Y-111177691D01*
X150512500Y-111156250D01*
X150512500Y-110643750D01*
X150513553Y-110622309D01*
X150516703Y-110601074D01*
X150521919Y-110580250D01*
X150529151Y-110560038D01*
X150538330Y-110540632D01*
X150549366Y-110522219D01*
X150562154Y-110504976D01*
X150576570Y-110489070D01*
X150592476Y-110474654D01*
X150609719Y-110461866D01*
X150628132Y-110450830D01*
X150647538Y-110441651D01*
X150667750Y-110434419D01*
X150688574Y-110429203D01*
X150709809Y-110426053D01*
X150731250Y-110425000D01*
X151168750Y-110425000D01*
X151190191Y-110426053D01*
G37*
G36*
X149615191Y-110426053D02*
G01*
X149636426Y-110429203D01*
X149657250Y-110434419D01*
X149677462Y-110441651D01*
X149696868Y-110450830D01*
X149715281Y-110461866D01*
X149732524Y-110474654D01*
X149748430Y-110489070D01*
X149762846Y-110504976D01*
X149775634Y-110522219D01*
X149786670Y-110540632D01*
X149795849Y-110560038D01*
X149803081Y-110580250D01*
X149808297Y-110601074D01*
X149811447Y-110622309D01*
X149812500Y-110643750D01*
X149812500Y-111156250D01*
X149811447Y-111177691D01*
X149808297Y-111198926D01*
X149803081Y-111219750D01*
X149795849Y-111239962D01*
X149786670Y-111259368D01*
X149775634Y-111277781D01*
X149762846Y-111295024D01*
X149748430Y-111310930D01*
X149732524Y-111325346D01*
X149715281Y-111338134D01*
X149696868Y-111349170D01*
X149677462Y-111358349D01*
X149657250Y-111365581D01*
X149636426Y-111370797D01*
X149615191Y-111373947D01*
X149593750Y-111375000D01*
X149156250Y-111375000D01*
X149134809Y-111373947D01*
X149113574Y-111370797D01*
X149092750Y-111365581D01*
X149072538Y-111358349D01*
X149053132Y-111349170D01*
X149034719Y-111338134D01*
X149017476Y-111325346D01*
X149001570Y-111310930D01*
X148987154Y-111295024D01*
X148974366Y-111277781D01*
X148963330Y-111259368D01*
X148954151Y-111239962D01*
X148946919Y-111219750D01*
X148941703Y-111198926D01*
X148938553Y-111177691D01*
X148937500Y-111156250D01*
X148937500Y-110643750D01*
X148938553Y-110622309D01*
X148941703Y-110601074D01*
X148946919Y-110580250D01*
X148954151Y-110560038D01*
X148963330Y-110540632D01*
X148974366Y-110522219D01*
X148987154Y-110504976D01*
X149001570Y-110489070D01*
X149017476Y-110474654D01*
X149034719Y-110461866D01*
X149053132Y-110450830D01*
X149072538Y-110441651D01*
X149092750Y-110434419D01*
X149113574Y-110429203D01*
X149134809Y-110426053D01*
X149156250Y-110425000D01*
X149593750Y-110425000D01*
X149615191Y-110426053D01*
G37*
G36*
X152427691Y-106301053D02*
G01*
X152448926Y-106304203D01*
X152469750Y-106309419D01*
X152489962Y-106316651D01*
X152509368Y-106325830D01*
X152527781Y-106336866D01*
X152545024Y-106349654D01*
X152560930Y-106364070D01*
X152575346Y-106379976D01*
X152588134Y-106397219D01*
X152599170Y-106415632D01*
X152608349Y-106435038D01*
X152615581Y-106455250D01*
X152620797Y-106476074D01*
X152623947Y-106497309D01*
X152625000Y-106518750D01*
X152625000Y-106956250D01*
X152623947Y-106977691D01*
X152620797Y-106998926D01*
X152615581Y-107019750D01*
X152608349Y-107039962D01*
X152599170Y-107059368D01*
X152588134Y-107077781D01*
X152575346Y-107095024D01*
X152560930Y-107110930D01*
X152545024Y-107125346D01*
X152527781Y-107138134D01*
X152509368Y-107149170D01*
X152489962Y-107158349D01*
X152469750Y-107165581D01*
X152448926Y-107170797D01*
X152427691Y-107173947D01*
X152406250Y-107175000D01*
X151893750Y-107175000D01*
X151872309Y-107173947D01*
X151851074Y-107170797D01*
X151830250Y-107165581D01*
X151810038Y-107158349D01*
X151790632Y-107149170D01*
X151772219Y-107138134D01*
X151754976Y-107125346D01*
X151739070Y-107110930D01*
X151724654Y-107095024D01*
X151711866Y-107077781D01*
X151700830Y-107059368D01*
X151691651Y-107039962D01*
X151684419Y-107019750D01*
X151679203Y-106998926D01*
X151676053Y-106977691D01*
X151675000Y-106956250D01*
X151675000Y-106518750D01*
X151676053Y-106497309D01*
X151679203Y-106476074D01*
X151684419Y-106455250D01*
X151691651Y-106435038D01*
X151700830Y-106415632D01*
X151711866Y-106397219D01*
X151724654Y-106379976D01*
X151739070Y-106364070D01*
X151754976Y-106349654D01*
X151772219Y-106336866D01*
X151790632Y-106325830D01*
X151810038Y-106316651D01*
X151830250Y-106309419D01*
X151851074Y-106304203D01*
X151872309Y-106301053D01*
X151893750Y-106300000D01*
X152406250Y-106300000D01*
X152427691Y-106301053D01*
G37*
G36*
X152427691Y-104726053D02*
G01*
X152448926Y-104729203D01*
X152469750Y-104734419D01*
X152489962Y-104741651D01*
X152509368Y-104750830D01*
X152527781Y-104761866D01*
X152545024Y-104774654D01*
X152560930Y-104789070D01*
X152575346Y-104804976D01*
X152588134Y-104822219D01*
X152599170Y-104840632D01*
X152608349Y-104860038D01*
X152615581Y-104880250D01*
X152620797Y-104901074D01*
X152623947Y-104922309D01*
X152625000Y-104943750D01*
X152625000Y-105381250D01*
X152623947Y-105402691D01*
X152620797Y-105423926D01*
X152615581Y-105444750D01*
X152608349Y-105464962D01*
X152599170Y-105484368D01*
X152588134Y-105502781D01*
X152575346Y-105520024D01*
X152560930Y-105535930D01*
X152545024Y-105550346D01*
X152527781Y-105563134D01*
X152509368Y-105574170D01*
X152489962Y-105583349D01*
X152469750Y-105590581D01*
X152448926Y-105595797D01*
X152427691Y-105598947D01*
X152406250Y-105600000D01*
X151893750Y-105600000D01*
X151872309Y-105598947D01*
X151851074Y-105595797D01*
X151830250Y-105590581D01*
X151810038Y-105583349D01*
X151790632Y-105574170D01*
X151772219Y-105563134D01*
X151754976Y-105550346D01*
X151739070Y-105535930D01*
X151724654Y-105520024D01*
X151711866Y-105502781D01*
X151700830Y-105484368D01*
X151691651Y-105464962D01*
X151684419Y-105444750D01*
X151679203Y-105423926D01*
X151676053Y-105402691D01*
X151675000Y-105381250D01*
X151675000Y-104943750D01*
X151676053Y-104922309D01*
X151679203Y-104901074D01*
X151684419Y-104880250D01*
X151691651Y-104860038D01*
X151700830Y-104840632D01*
X151711866Y-104822219D01*
X151724654Y-104804976D01*
X151739070Y-104789070D01*
X151754976Y-104774654D01*
X151772219Y-104761866D01*
X151790632Y-104750830D01*
X151810038Y-104741651D01*
X151830250Y-104734419D01*
X151851074Y-104729203D01*
X151872309Y-104726053D01*
X151893750Y-104725000D01*
X152406250Y-104725000D01*
X152427691Y-104726053D01*
G37*
G36*
X152352691Y-101526053D02*
G01*
X152373926Y-101529203D01*
X152394750Y-101534419D01*
X152414962Y-101541651D01*
X152434368Y-101550830D01*
X152452781Y-101561866D01*
X152470024Y-101574654D01*
X152485930Y-101589070D01*
X152500346Y-101604976D01*
X152513134Y-101622219D01*
X152524170Y-101640632D01*
X152533349Y-101660038D01*
X152540581Y-101680250D01*
X152545797Y-101701074D01*
X152548947Y-101722309D01*
X152550000Y-101743750D01*
X152550000Y-102181250D01*
X152548947Y-102202691D01*
X152545797Y-102223926D01*
X152540581Y-102244750D01*
X152533349Y-102264962D01*
X152524170Y-102284368D01*
X152513134Y-102302781D01*
X152500346Y-102320024D01*
X152485930Y-102335930D01*
X152470024Y-102350346D01*
X152452781Y-102363134D01*
X152434368Y-102374170D01*
X152414962Y-102383349D01*
X152394750Y-102390581D01*
X152373926Y-102395797D01*
X152352691Y-102398947D01*
X152331250Y-102400000D01*
X151818750Y-102400000D01*
X151797309Y-102398947D01*
X151776074Y-102395797D01*
X151755250Y-102390581D01*
X151735038Y-102383349D01*
X151715632Y-102374170D01*
X151697219Y-102363134D01*
X151679976Y-102350346D01*
X151664070Y-102335930D01*
X151649654Y-102320024D01*
X151636866Y-102302781D01*
X151625830Y-102284368D01*
X151616651Y-102264962D01*
X151609419Y-102244750D01*
X151604203Y-102223926D01*
X151601053Y-102202691D01*
X151600000Y-102181250D01*
X151600000Y-101743750D01*
X151601053Y-101722309D01*
X151604203Y-101701074D01*
X151609419Y-101680250D01*
X151616651Y-101660038D01*
X151625830Y-101640632D01*
X151636866Y-101622219D01*
X151649654Y-101604976D01*
X151664070Y-101589070D01*
X151679976Y-101574654D01*
X151697219Y-101561866D01*
X151715632Y-101550830D01*
X151735038Y-101541651D01*
X151755250Y-101534419D01*
X151776074Y-101529203D01*
X151797309Y-101526053D01*
X151818750Y-101525000D01*
X152331250Y-101525000D01*
X152352691Y-101526053D01*
G37*
G36*
X152352691Y-103101053D02*
G01*
X152373926Y-103104203D01*
X152394750Y-103109419D01*
X152414962Y-103116651D01*
X152434368Y-103125830D01*
X152452781Y-103136866D01*
X152470024Y-103149654D01*
X152485930Y-103164070D01*
X152500346Y-103179976D01*
X152513134Y-103197219D01*
X152524170Y-103215632D01*
X152533349Y-103235038D01*
X152540581Y-103255250D01*
X152545797Y-103276074D01*
X152548947Y-103297309D01*
X152550000Y-103318750D01*
X152550000Y-103756250D01*
X152548947Y-103777691D01*
X152545797Y-103798926D01*
X152540581Y-103819750D01*
X152533349Y-103839962D01*
X152524170Y-103859368D01*
X152513134Y-103877781D01*
X152500346Y-103895024D01*
X152485930Y-103910930D01*
X152470024Y-103925346D01*
X152452781Y-103938134D01*
X152434368Y-103949170D01*
X152414962Y-103958349D01*
X152394750Y-103965581D01*
X152373926Y-103970797D01*
X152352691Y-103973947D01*
X152331250Y-103975000D01*
X151818750Y-103975000D01*
X151797309Y-103973947D01*
X151776074Y-103970797D01*
X151755250Y-103965581D01*
X151735038Y-103958349D01*
X151715632Y-103949170D01*
X151697219Y-103938134D01*
X151679976Y-103925346D01*
X151664070Y-103910930D01*
X151649654Y-103895024D01*
X151636866Y-103877781D01*
X151625830Y-103859368D01*
X151616651Y-103839962D01*
X151609419Y-103819750D01*
X151604203Y-103798926D01*
X151601053Y-103777691D01*
X151600000Y-103756250D01*
X151600000Y-103318750D01*
X151601053Y-103297309D01*
X151604203Y-103276074D01*
X151609419Y-103255250D01*
X151616651Y-103235038D01*
X151625830Y-103215632D01*
X151636866Y-103197219D01*
X151649654Y-103179976D01*
X151664070Y-103164070D01*
X151679976Y-103149654D01*
X151697219Y-103136866D01*
X151715632Y-103125830D01*
X151735038Y-103116651D01*
X151755250Y-103109419D01*
X151776074Y-103104203D01*
X151797309Y-103101053D01*
X151818750Y-103100000D01*
X152331250Y-103100000D01*
X152352691Y-103101053D01*
G37*
G36*
X159302691Y-94726053D02*
G01*
X159323926Y-94729203D01*
X159344750Y-94734419D01*
X159364962Y-94741651D01*
X159384368Y-94750830D01*
X159402781Y-94761866D01*
X159420024Y-94774654D01*
X159435930Y-94789070D01*
X159450346Y-94804976D01*
X159463134Y-94822219D01*
X159474170Y-94840632D01*
X159483349Y-94860038D01*
X159490581Y-94880250D01*
X159495797Y-94901074D01*
X159498947Y-94922309D01*
X159500000Y-94943750D01*
X159500000Y-95456250D01*
X159498947Y-95477691D01*
X159495797Y-95498926D01*
X159490581Y-95519750D01*
X159483349Y-95539962D01*
X159474170Y-95559368D01*
X159463134Y-95577781D01*
X159450346Y-95595024D01*
X159435930Y-95610930D01*
X159420024Y-95625346D01*
X159402781Y-95638134D01*
X159384368Y-95649170D01*
X159364962Y-95658349D01*
X159344750Y-95665581D01*
X159323926Y-95670797D01*
X159302691Y-95673947D01*
X159281250Y-95675000D01*
X158843750Y-95675000D01*
X158822309Y-95673947D01*
X158801074Y-95670797D01*
X158780250Y-95665581D01*
X158760038Y-95658349D01*
X158740632Y-95649170D01*
X158722219Y-95638134D01*
X158704976Y-95625346D01*
X158689070Y-95610930D01*
X158674654Y-95595024D01*
X158661866Y-95577781D01*
X158650830Y-95559368D01*
X158641651Y-95539962D01*
X158634419Y-95519750D01*
X158629203Y-95498926D01*
X158626053Y-95477691D01*
X158625000Y-95456250D01*
X158625000Y-94943750D01*
X158626053Y-94922309D01*
X158629203Y-94901074D01*
X158634419Y-94880250D01*
X158641651Y-94860038D01*
X158650830Y-94840632D01*
X158661866Y-94822219D01*
X158674654Y-94804976D01*
X158689070Y-94789070D01*
X158704976Y-94774654D01*
X158722219Y-94761866D01*
X158740632Y-94750830D01*
X158760038Y-94741651D01*
X158780250Y-94734419D01*
X158801074Y-94729203D01*
X158822309Y-94726053D01*
X158843750Y-94725000D01*
X159281250Y-94725000D01*
X159302691Y-94726053D01*
G37*
G36*
X160877691Y-94726053D02*
G01*
X160898926Y-94729203D01*
X160919750Y-94734419D01*
X160939962Y-94741651D01*
X160959368Y-94750830D01*
X160977781Y-94761866D01*
X160995024Y-94774654D01*
X161010930Y-94789070D01*
X161025346Y-94804976D01*
X161038134Y-94822219D01*
X161049170Y-94840632D01*
X161058349Y-94860038D01*
X161065581Y-94880250D01*
X161070797Y-94901074D01*
X161073947Y-94922309D01*
X161075000Y-94943750D01*
X161075000Y-95456250D01*
X161073947Y-95477691D01*
X161070797Y-95498926D01*
X161065581Y-95519750D01*
X161058349Y-95539962D01*
X161049170Y-95559368D01*
X161038134Y-95577781D01*
X161025346Y-95595024D01*
X161010930Y-95610930D01*
X160995024Y-95625346D01*
X160977781Y-95638134D01*
X160959368Y-95649170D01*
X160939962Y-95658349D01*
X160919750Y-95665581D01*
X160898926Y-95670797D01*
X160877691Y-95673947D01*
X160856250Y-95675000D01*
X160418750Y-95675000D01*
X160397309Y-95673947D01*
X160376074Y-95670797D01*
X160355250Y-95665581D01*
X160335038Y-95658349D01*
X160315632Y-95649170D01*
X160297219Y-95638134D01*
X160279976Y-95625346D01*
X160264070Y-95610930D01*
X160249654Y-95595024D01*
X160236866Y-95577781D01*
X160225830Y-95559368D01*
X160216651Y-95539962D01*
X160209419Y-95519750D01*
X160204203Y-95498926D01*
X160201053Y-95477691D01*
X160200000Y-95456250D01*
X160200000Y-94943750D01*
X160201053Y-94922309D01*
X160204203Y-94901074D01*
X160209419Y-94880250D01*
X160216651Y-94860038D01*
X160225830Y-94840632D01*
X160236866Y-94822219D01*
X160249654Y-94804976D01*
X160264070Y-94789070D01*
X160279976Y-94774654D01*
X160297219Y-94761866D01*
X160315632Y-94750830D01*
X160335038Y-94741651D01*
X160355250Y-94734419D01*
X160376074Y-94729203D01*
X160397309Y-94726053D01*
X160418750Y-94725000D01*
X160856250Y-94725000D01*
X160877691Y-94726053D01*
G37*
G36*
X158502691Y-114776053D02*
G01*
X158523926Y-114779203D01*
X158544750Y-114784419D01*
X158564962Y-114791651D01*
X158584368Y-114800830D01*
X158602781Y-114811866D01*
X158620024Y-114824654D01*
X158635930Y-114839070D01*
X158650346Y-114854976D01*
X158663134Y-114872219D01*
X158674170Y-114890632D01*
X158683349Y-114910038D01*
X158690581Y-114930250D01*
X158695797Y-114951074D01*
X158698947Y-114972309D01*
X158700000Y-114993750D01*
X158700000Y-115431250D01*
X158698947Y-115452691D01*
X158695797Y-115473926D01*
X158690581Y-115494750D01*
X158683349Y-115514962D01*
X158674170Y-115534368D01*
X158663134Y-115552781D01*
X158650346Y-115570024D01*
X158635930Y-115585930D01*
X158620024Y-115600346D01*
X158602781Y-115613134D01*
X158584368Y-115624170D01*
X158564962Y-115633349D01*
X158544750Y-115640581D01*
X158523926Y-115645797D01*
X158502691Y-115648947D01*
X158481250Y-115650000D01*
X157968750Y-115650000D01*
X157947309Y-115648947D01*
X157926074Y-115645797D01*
X157905250Y-115640581D01*
X157885038Y-115633349D01*
X157865632Y-115624170D01*
X157847219Y-115613134D01*
X157829976Y-115600346D01*
X157814070Y-115585930D01*
X157799654Y-115570024D01*
X157786866Y-115552781D01*
X157775830Y-115534368D01*
X157766651Y-115514962D01*
X157759419Y-115494750D01*
X157754203Y-115473926D01*
X157751053Y-115452691D01*
X157750000Y-115431250D01*
X157750000Y-114993750D01*
X157751053Y-114972309D01*
X157754203Y-114951074D01*
X157759419Y-114930250D01*
X157766651Y-114910038D01*
X157775830Y-114890632D01*
X157786866Y-114872219D01*
X157799654Y-114854976D01*
X157814070Y-114839070D01*
X157829976Y-114824654D01*
X157847219Y-114811866D01*
X157865632Y-114800830D01*
X157885038Y-114791651D01*
X157905250Y-114784419D01*
X157926074Y-114779203D01*
X157947309Y-114776053D01*
X157968750Y-114775000D01*
X158481250Y-114775000D01*
X158502691Y-114776053D01*
G37*
G36*
X158502691Y-113201053D02*
G01*
X158523926Y-113204203D01*
X158544750Y-113209419D01*
X158564962Y-113216651D01*
X158584368Y-113225830D01*
X158602781Y-113236866D01*
X158620024Y-113249654D01*
X158635930Y-113264070D01*
X158650346Y-113279976D01*
X158663134Y-113297219D01*
X158674170Y-113315632D01*
X158683349Y-113335038D01*
X158690581Y-113355250D01*
X158695797Y-113376074D01*
X158698947Y-113397309D01*
X158700000Y-113418750D01*
X158700000Y-113856250D01*
X158698947Y-113877691D01*
X158695797Y-113898926D01*
X158690581Y-113919750D01*
X158683349Y-113939962D01*
X158674170Y-113959368D01*
X158663134Y-113977781D01*
X158650346Y-113995024D01*
X158635930Y-114010930D01*
X158620024Y-114025346D01*
X158602781Y-114038134D01*
X158584368Y-114049170D01*
X158564962Y-114058349D01*
X158544750Y-114065581D01*
X158523926Y-114070797D01*
X158502691Y-114073947D01*
X158481250Y-114075000D01*
X157968750Y-114075000D01*
X157947309Y-114073947D01*
X157926074Y-114070797D01*
X157905250Y-114065581D01*
X157885038Y-114058349D01*
X157865632Y-114049170D01*
X157847219Y-114038134D01*
X157829976Y-114025346D01*
X157814070Y-114010930D01*
X157799654Y-113995024D01*
X157786866Y-113977781D01*
X157775830Y-113959368D01*
X157766651Y-113939962D01*
X157759419Y-113919750D01*
X157754203Y-113898926D01*
X157751053Y-113877691D01*
X157750000Y-113856250D01*
X157750000Y-113418750D01*
X157751053Y-113397309D01*
X157754203Y-113376074D01*
X157759419Y-113355250D01*
X157766651Y-113335038D01*
X157775830Y-113315632D01*
X157786866Y-113297219D01*
X157799654Y-113279976D01*
X157814070Y-113264070D01*
X157829976Y-113249654D01*
X157847219Y-113236866D01*
X157865632Y-113225830D01*
X157885038Y-113216651D01*
X157905250Y-113209419D01*
X157926074Y-113204203D01*
X157947309Y-113201053D01*
X157968750Y-113200000D01*
X158481250Y-113200000D01*
X158502691Y-113201053D01*
G37*
G36*
X165827691Y-114951053D02*
G01*
X165848926Y-114954203D01*
X165869750Y-114959419D01*
X165889962Y-114966651D01*
X165909368Y-114975830D01*
X165927781Y-114986866D01*
X165945024Y-114999654D01*
X165960930Y-115014070D01*
X165975346Y-115029976D01*
X165988134Y-115047219D01*
X165999170Y-115065632D01*
X166008349Y-115085038D01*
X166015581Y-115105250D01*
X166020797Y-115126074D01*
X166023947Y-115147309D01*
X166025000Y-115168750D01*
X166025000Y-115606250D01*
X166023947Y-115627691D01*
X166020797Y-115648926D01*
X166015581Y-115669750D01*
X166008349Y-115689962D01*
X165999170Y-115709368D01*
X165988134Y-115727781D01*
X165975346Y-115745024D01*
X165960930Y-115760930D01*
X165945024Y-115775346D01*
X165927781Y-115788134D01*
X165909368Y-115799170D01*
X165889962Y-115808349D01*
X165869750Y-115815581D01*
X165848926Y-115820797D01*
X165827691Y-115823947D01*
X165806250Y-115825000D01*
X165293750Y-115825000D01*
X165272309Y-115823947D01*
X165251074Y-115820797D01*
X165230250Y-115815581D01*
X165210038Y-115808349D01*
X165190632Y-115799170D01*
X165172219Y-115788134D01*
X165154976Y-115775346D01*
X165139070Y-115760930D01*
X165124654Y-115745024D01*
X165111866Y-115727781D01*
X165100830Y-115709368D01*
X165091651Y-115689962D01*
X165084419Y-115669750D01*
X165079203Y-115648926D01*
X165076053Y-115627691D01*
X165075000Y-115606250D01*
X165075000Y-115168750D01*
X165076053Y-115147309D01*
X165079203Y-115126074D01*
X165084419Y-115105250D01*
X165091651Y-115085038D01*
X165100830Y-115065632D01*
X165111866Y-115047219D01*
X165124654Y-115029976D01*
X165139070Y-115014070D01*
X165154976Y-114999654D01*
X165172219Y-114986866D01*
X165190632Y-114975830D01*
X165210038Y-114966651D01*
X165230250Y-114959419D01*
X165251074Y-114954203D01*
X165272309Y-114951053D01*
X165293750Y-114950000D01*
X165806250Y-114950000D01*
X165827691Y-114951053D01*
G37*
G36*
X165827691Y-113376053D02*
G01*
X165848926Y-113379203D01*
X165869750Y-113384419D01*
X165889962Y-113391651D01*
X165909368Y-113400830D01*
X165927781Y-113411866D01*
X165945024Y-113424654D01*
X165960930Y-113439070D01*
X165975346Y-113454976D01*
X165988134Y-113472219D01*
X165999170Y-113490632D01*
X166008349Y-113510038D01*
X166015581Y-113530250D01*
X166020797Y-113551074D01*
X166023947Y-113572309D01*
X166025000Y-113593750D01*
X166025000Y-114031250D01*
X166023947Y-114052691D01*
X166020797Y-114073926D01*
X166015581Y-114094750D01*
X166008349Y-114114962D01*
X165999170Y-114134368D01*
X165988134Y-114152781D01*
X165975346Y-114170024D01*
X165960930Y-114185930D01*
X165945024Y-114200346D01*
X165927781Y-114213134D01*
X165909368Y-114224170D01*
X165889962Y-114233349D01*
X165869750Y-114240581D01*
X165848926Y-114245797D01*
X165827691Y-114248947D01*
X165806250Y-114250000D01*
X165293750Y-114250000D01*
X165272309Y-114248947D01*
X165251074Y-114245797D01*
X165230250Y-114240581D01*
X165210038Y-114233349D01*
X165190632Y-114224170D01*
X165172219Y-114213134D01*
X165154976Y-114200346D01*
X165139070Y-114185930D01*
X165124654Y-114170024D01*
X165111866Y-114152781D01*
X165100830Y-114134368D01*
X165091651Y-114114962D01*
X165084419Y-114094750D01*
X165079203Y-114073926D01*
X165076053Y-114052691D01*
X165075000Y-114031250D01*
X165075000Y-113593750D01*
X165076053Y-113572309D01*
X165079203Y-113551074D01*
X165084419Y-113530250D01*
X165091651Y-113510038D01*
X165100830Y-113490632D01*
X165111866Y-113472219D01*
X165124654Y-113454976D01*
X165139070Y-113439070D01*
X165154976Y-113424654D01*
X165172219Y-113411866D01*
X165190632Y-113400830D01*
X165210038Y-113391651D01*
X165230250Y-113384419D01*
X165251074Y-113379203D01*
X165272309Y-113376053D01*
X165293750Y-113375000D01*
X165806250Y-113375000D01*
X165827691Y-113376053D01*
G37*
G36*
X154752691Y-94726053D02*
G01*
X154773926Y-94729203D01*
X154794750Y-94734419D01*
X154814962Y-94741651D01*
X154834368Y-94750830D01*
X154852781Y-94761866D01*
X154870024Y-94774654D01*
X154885930Y-94789070D01*
X154900346Y-94804976D01*
X154913134Y-94822219D01*
X154924170Y-94840632D01*
X154933349Y-94860038D01*
X154940581Y-94880250D01*
X154945797Y-94901074D01*
X154948947Y-94922309D01*
X154950000Y-94943750D01*
X154950000Y-95456250D01*
X154948947Y-95477691D01*
X154945797Y-95498926D01*
X154940581Y-95519750D01*
X154933349Y-95539962D01*
X154924170Y-95559368D01*
X154913134Y-95577781D01*
X154900346Y-95595024D01*
X154885930Y-95610930D01*
X154870024Y-95625346D01*
X154852781Y-95638134D01*
X154834368Y-95649170D01*
X154814962Y-95658349D01*
X154794750Y-95665581D01*
X154773926Y-95670797D01*
X154752691Y-95673947D01*
X154731250Y-95675000D01*
X154293750Y-95675000D01*
X154272309Y-95673947D01*
X154251074Y-95670797D01*
X154230250Y-95665581D01*
X154210038Y-95658349D01*
X154190632Y-95649170D01*
X154172219Y-95638134D01*
X154154976Y-95625346D01*
X154139070Y-95610930D01*
X154124654Y-95595024D01*
X154111866Y-95577781D01*
X154100830Y-95559368D01*
X154091651Y-95539962D01*
X154084419Y-95519750D01*
X154079203Y-95498926D01*
X154076053Y-95477691D01*
X154075000Y-95456250D01*
X154075000Y-94943750D01*
X154076053Y-94922309D01*
X154079203Y-94901074D01*
X154084419Y-94880250D01*
X154091651Y-94860038D01*
X154100830Y-94840632D01*
X154111866Y-94822219D01*
X154124654Y-94804976D01*
X154139070Y-94789070D01*
X154154976Y-94774654D01*
X154172219Y-94761866D01*
X154190632Y-94750830D01*
X154210038Y-94741651D01*
X154230250Y-94734419D01*
X154251074Y-94729203D01*
X154272309Y-94726053D01*
X154293750Y-94725000D01*
X154731250Y-94725000D01*
X154752691Y-94726053D01*
G37*
G36*
X156327691Y-94726053D02*
G01*
X156348926Y-94729203D01*
X156369750Y-94734419D01*
X156389962Y-94741651D01*
X156409368Y-94750830D01*
X156427781Y-94761866D01*
X156445024Y-94774654D01*
X156460930Y-94789070D01*
X156475346Y-94804976D01*
X156488134Y-94822219D01*
X156499170Y-94840632D01*
X156508349Y-94860038D01*
X156515581Y-94880250D01*
X156520797Y-94901074D01*
X156523947Y-94922309D01*
X156525000Y-94943750D01*
X156525000Y-95456250D01*
X156523947Y-95477691D01*
X156520797Y-95498926D01*
X156515581Y-95519750D01*
X156508349Y-95539962D01*
X156499170Y-95559368D01*
X156488134Y-95577781D01*
X156475346Y-95595024D01*
X156460930Y-95610930D01*
X156445024Y-95625346D01*
X156427781Y-95638134D01*
X156409368Y-95649170D01*
X156389962Y-95658349D01*
X156369750Y-95665581D01*
X156348926Y-95670797D01*
X156327691Y-95673947D01*
X156306250Y-95675000D01*
X155868750Y-95675000D01*
X155847309Y-95673947D01*
X155826074Y-95670797D01*
X155805250Y-95665581D01*
X155785038Y-95658349D01*
X155765632Y-95649170D01*
X155747219Y-95638134D01*
X155729976Y-95625346D01*
X155714070Y-95610930D01*
X155699654Y-95595024D01*
X155686866Y-95577781D01*
X155675830Y-95559368D01*
X155666651Y-95539962D01*
X155659419Y-95519750D01*
X155654203Y-95498926D01*
X155651053Y-95477691D01*
X155650000Y-95456250D01*
X155650000Y-94943750D01*
X155651053Y-94922309D01*
X155654203Y-94901074D01*
X155659419Y-94880250D01*
X155666651Y-94860038D01*
X155675830Y-94840632D01*
X155686866Y-94822219D01*
X155699654Y-94804976D01*
X155714070Y-94789070D01*
X155729976Y-94774654D01*
X155747219Y-94761866D01*
X155765632Y-94750830D01*
X155785038Y-94741651D01*
X155805250Y-94734419D01*
X155826074Y-94729203D01*
X155847309Y-94726053D01*
X155868750Y-94725000D01*
X156306250Y-94725000D01*
X156327691Y-94726053D01*
G37*
G36*
X146015191Y-94251053D02*
G01*
X146036426Y-94254203D01*
X146057250Y-94259419D01*
X146077462Y-94266651D01*
X146096868Y-94275830D01*
X146115281Y-94286866D01*
X146132524Y-94299654D01*
X146148430Y-94314070D01*
X146162846Y-94329976D01*
X146175634Y-94347219D01*
X146186670Y-94365632D01*
X146195849Y-94385038D01*
X146203081Y-94405250D01*
X146208297Y-94426074D01*
X146211447Y-94447309D01*
X146212500Y-94468750D01*
X146212500Y-94981250D01*
X146211447Y-95002691D01*
X146208297Y-95023926D01*
X146203081Y-95044750D01*
X146195849Y-95064962D01*
X146186670Y-95084368D01*
X146175634Y-95102781D01*
X146162846Y-95120024D01*
X146148430Y-95135930D01*
X146132524Y-95150346D01*
X146115281Y-95163134D01*
X146096868Y-95174170D01*
X146077462Y-95183349D01*
X146057250Y-95190581D01*
X146036426Y-95195797D01*
X146015191Y-95198947D01*
X145993750Y-95200000D01*
X145556250Y-95200000D01*
X145534809Y-95198947D01*
X145513574Y-95195797D01*
X145492750Y-95190581D01*
X145472538Y-95183349D01*
X145453132Y-95174170D01*
X145434719Y-95163134D01*
X145417476Y-95150346D01*
X145401570Y-95135930D01*
X145387154Y-95120024D01*
X145374366Y-95102781D01*
X145363330Y-95084368D01*
X145354151Y-95064962D01*
X145346919Y-95044750D01*
X145341703Y-95023926D01*
X145338553Y-95002691D01*
X145337500Y-94981250D01*
X145337500Y-94468750D01*
X145338553Y-94447309D01*
X145341703Y-94426074D01*
X145346919Y-94405250D01*
X145354151Y-94385038D01*
X145363330Y-94365632D01*
X145374366Y-94347219D01*
X145387154Y-94329976D01*
X145401570Y-94314070D01*
X145417476Y-94299654D01*
X145434719Y-94286866D01*
X145453132Y-94275830D01*
X145472538Y-94266651D01*
X145492750Y-94259419D01*
X145513574Y-94254203D01*
X145534809Y-94251053D01*
X145556250Y-94250000D01*
X145993750Y-94250000D01*
X146015191Y-94251053D01*
G37*
G36*
X147590191Y-94251053D02*
G01*
X147611426Y-94254203D01*
X147632250Y-94259419D01*
X147652462Y-94266651D01*
X147671868Y-94275830D01*
X147690281Y-94286866D01*
X147707524Y-94299654D01*
X147723430Y-94314070D01*
X147737846Y-94329976D01*
X147750634Y-94347219D01*
X147761670Y-94365632D01*
X147770849Y-94385038D01*
X147778081Y-94405250D01*
X147783297Y-94426074D01*
X147786447Y-94447309D01*
X147787500Y-94468750D01*
X147787500Y-94981250D01*
X147786447Y-95002691D01*
X147783297Y-95023926D01*
X147778081Y-95044750D01*
X147770849Y-95064962D01*
X147761670Y-95084368D01*
X147750634Y-95102781D01*
X147737846Y-95120024D01*
X147723430Y-95135930D01*
X147707524Y-95150346D01*
X147690281Y-95163134D01*
X147671868Y-95174170D01*
X147652462Y-95183349D01*
X147632250Y-95190581D01*
X147611426Y-95195797D01*
X147590191Y-95198947D01*
X147568750Y-95200000D01*
X147131250Y-95200000D01*
X147109809Y-95198947D01*
X147088574Y-95195797D01*
X147067750Y-95190581D01*
X147047538Y-95183349D01*
X147028132Y-95174170D01*
X147009719Y-95163134D01*
X146992476Y-95150346D01*
X146976570Y-95135930D01*
X146962154Y-95120024D01*
X146949366Y-95102781D01*
X146938330Y-95084368D01*
X146929151Y-95064962D01*
X146921919Y-95044750D01*
X146916703Y-95023926D01*
X146913553Y-95002691D01*
X146912500Y-94981250D01*
X146912500Y-94468750D01*
X146913553Y-94447309D01*
X146916703Y-94426074D01*
X146921919Y-94405250D01*
X146929151Y-94385038D01*
X146938330Y-94365632D01*
X146949366Y-94347219D01*
X146962154Y-94329976D01*
X146976570Y-94314070D01*
X146992476Y-94299654D01*
X147009719Y-94286866D01*
X147028132Y-94275830D01*
X147047538Y-94266651D01*
X147067750Y-94259419D01*
X147088574Y-94254203D01*
X147109809Y-94251053D01*
X147131250Y-94250000D01*
X147568750Y-94250000D01*
X147590191Y-94251053D01*
G37*
G36*
X168852691Y-105626053D02*
G01*
X168873926Y-105629203D01*
X168894750Y-105634419D01*
X168914962Y-105641651D01*
X168934368Y-105650830D01*
X168952781Y-105661866D01*
X168970024Y-105674654D01*
X168985930Y-105689070D01*
X169000346Y-105704976D01*
X169013134Y-105722219D01*
X169024170Y-105740632D01*
X169033349Y-105760038D01*
X169040581Y-105780250D01*
X169045797Y-105801074D01*
X169048947Y-105822309D01*
X169050000Y-105843750D01*
X169050000Y-106281250D01*
X169048947Y-106302691D01*
X169045797Y-106323926D01*
X169040581Y-106344750D01*
X169033349Y-106364962D01*
X169024170Y-106384368D01*
X169013134Y-106402781D01*
X169000346Y-106420024D01*
X168985930Y-106435930D01*
X168970024Y-106450346D01*
X168952781Y-106463134D01*
X168934368Y-106474170D01*
X168914962Y-106483349D01*
X168894750Y-106490581D01*
X168873926Y-106495797D01*
X168852691Y-106498947D01*
X168831250Y-106500000D01*
X168318750Y-106500000D01*
X168297309Y-106498947D01*
X168276074Y-106495797D01*
X168255250Y-106490581D01*
X168235038Y-106483349D01*
X168215632Y-106474170D01*
X168197219Y-106463134D01*
X168179976Y-106450346D01*
X168164070Y-106435930D01*
X168149654Y-106420024D01*
X168136866Y-106402781D01*
X168125830Y-106384368D01*
X168116651Y-106364962D01*
X168109419Y-106344750D01*
X168104203Y-106323926D01*
X168101053Y-106302691D01*
X168100000Y-106281250D01*
X168100000Y-105843750D01*
X168101053Y-105822309D01*
X168104203Y-105801074D01*
X168109419Y-105780250D01*
X168116651Y-105760038D01*
X168125830Y-105740632D01*
X168136866Y-105722219D01*
X168149654Y-105704976D01*
X168164070Y-105689070D01*
X168179976Y-105674654D01*
X168197219Y-105661866D01*
X168215632Y-105650830D01*
X168235038Y-105641651D01*
X168255250Y-105634419D01*
X168276074Y-105629203D01*
X168297309Y-105626053D01*
X168318750Y-105625000D01*
X168831250Y-105625000D01*
X168852691Y-105626053D01*
G37*
G36*
X168852691Y-104051053D02*
G01*
X168873926Y-104054203D01*
X168894750Y-104059419D01*
X168914962Y-104066651D01*
X168934368Y-104075830D01*
X168952781Y-104086866D01*
X168970024Y-104099654D01*
X168985930Y-104114070D01*
X169000346Y-104129976D01*
X169013134Y-104147219D01*
X169024170Y-104165632D01*
X169033349Y-104185038D01*
X169040581Y-104205250D01*
X169045797Y-104226074D01*
X169048947Y-104247309D01*
X169050000Y-104268750D01*
X169050000Y-104706250D01*
X169048947Y-104727691D01*
X169045797Y-104748926D01*
X169040581Y-104769750D01*
X169033349Y-104789962D01*
X169024170Y-104809368D01*
X169013134Y-104827781D01*
X169000346Y-104845024D01*
X168985930Y-104860930D01*
X168970024Y-104875346D01*
X168952781Y-104888134D01*
X168934368Y-104899170D01*
X168914962Y-104908349D01*
X168894750Y-104915581D01*
X168873926Y-104920797D01*
X168852691Y-104923947D01*
X168831250Y-104925000D01*
X168318750Y-104925000D01*
X168297309Y-104923947D01*
X168276074Y-104920797D01*
X168255250Y-104915581D01*
X168235038Y-104908349D01*
X168215632Y-104899170D01*
X168197219Y-104888134D01*
X168179976Y-104875346D01*
X168164070Y-104860930D01*
X168149654Y-104845024D01*
X168136866Y-104827781D01*
X168125830Y-104809368D01*
X168116651Y-104789962D01*
X168109419Y-104769750D01*
X168104203Y-104748926D01*
X168101053Y-104727691D01*
X168100000Y-104706250D01*
X168100000Y-104268750D01*
X168101053Y-104247309D01*
X168104203Y-104226074D01*
X168109419Y-104205250D01*
X168116651Y-104185038D01*
X168125830Y-104165632D01*
X168136866Y-104147219D01*
X168149654Y-104129976D01*
X168164070Y-104114070D01*
X168179976Y-104099654D01*
X168197219Y-104086866D01*
X168215632Y-104075830D01*
X168235038Y-104066651D01*
X168255250Y-104059419D01*
X168276074Y-104054203D01*
X168297309Y-104051053D01*
X168318750Y-104050000D01*
X168831250Y-104050000D01*
X168852691Y-104051053D01*
G37*
G36*
X158690191Y-110426053D02*
G01*
X158711426Y-110429203D01*
X158732250Y-110434419D01*
X158752462Y-110441651D01*
X158771868Y-110450830D01*
X158790281Y-110461866D01*
X158807524Y-110474654D01*
X158823430Y-110489070D01*
X158837846Y-110504976D01*
X158850634Y-110522219D01*
X158861670Y-110540632D01*
X158870849Y-110560038D01*
X158878081Y-110580250D01*
X158883297Y-110601074D01*
X158886447Y-110622309D01*
X158887500Y-110643750D01*
X158887500Y-111156250D01*
X158886447Y-111177691D01*
X158883297Y-111198926D01*
X158878081Y-111219750D01*
X158870849Y-111239962D01*
X158861670Y-111259368D01*
X158850634Y-111277781D01*
X158837846Y-111295024D01*
X158823430Y-111310930D01*
X158807524Y-111325346D01*
X158790281Y-111338134D01*
X158771868Y-111349170D01*
X158752462Y-111358349D01*
X158732250Y-111365581D01*
X158711426Y-111370797D01*
X158690191Y-111373947D01*
X158668750Y-111375000D01*
X158231250Y-111375000D01*
X158209809Y-111373947D01*
X158188574Y-111370797D01*
X158167750Y-111365581D01*
X158147538Y-111358349D01*
X158128132Y-111349170D01*
X158109719Y-111338134D01*
X158092476Y-111325346D01*
X158076570Y-111310930D01*
X158062154Y-111295024D01*
X158049366Y-111277781D01*
X158038330Y-111259368D01*
X158029151Y-111239962D01*
X158021919Y-111219750D01*
X158016703Y-111198926D01*
X158013553Y-111177691D01*
X158012500Y-111156250D01*
X158012500Y-110643750D01*
X158013553Y-110622309D01*
X158016703Y-110601074D01*
X158021919Y-110580250D01*
X158029151Y-110560038D01*
X158038330Y-110540632D01*
X158049366Y-110522219D01*
X158062154Y-110504976D01*
X158076570Y-110489070D01*
X158092476Y-110474654D01*
X158109719Y-110461866D01*
X158128132Y-110450830D01*
X158147538Y-110441651D01*
X158167750Y-110434419D01*
X158188574Y-110429203D01*
X158209809Y-110426053D01*
X158231250Y-110425000D01*
X158668750Y-110425000D01*
X158690191Y-110426053D01*
G37*
G36*
X160265191Y-110426053D02*
G01*
X160286426Y-110429203D01*
X160307250Y-110434419D01*
X160327462Y-110441651D01*
X160346868Y-110450830D01*
X160365281Y-110461866D01*
X160382524Y-110474654D01*
X160398430Y-110489070D01*
X160412846Y-110504976D01*
X160425634Y-110522219D01*
X160436670Y-110540632D01*
X160445849Y-110560038D01*
X160453081Y-110580250D01*
X160458297Y-110601074D01*
X160461447Y-110622309D01*
X160462500Y-110643750D01*
X160462500Y-111156250D01*
X160461447Y-111177691D01*
X160458297Y-111198926D01*
X160453081Y-111219750D01*
X160445849Y-111239962D01*
X160436670Y-111259368D01*
X160425634Y-111277781D01*
X160412846Y-111295024D01*
X160398430Y-111310930D01*
X160382524Y-111325346D01*
X160365281Y-111338134D01*
X160346868Y-111349170D01*
X160327462Y-111358349D01*
X160307250Y-111365581D01*
X160286426Y-111370797D01*
X160265191Y-111373947D01*
X160243750Y-111375000D01*
X159806250Y-111375000D01*
X159784809Y-111373947D01*
X159763574Y-111370797D01*
X159742750Y-111365581D01*
X159722538Y-111358349D01*
X159703132Y-111349170D01*
X159684719Y-111338134D01*
X159667476Y-111325346D01*
X159651570Y-111310930D01*
X159637154Y-111295024D01*
X159624366Y-111277781D01*
X159613330Y-111259368D01*
X159604151Y-111239962D01*
X159596919Y-111219750D01*
X159591703Y-111198926D01*
X159588553Y-111177691D01*
X159587500Y-111156250D01*
X159587500Y-110643750D01*
X159588553Y-110622309D01*
X159591703Y-110601074D01*
X159596919Y-110580250D01*
X159604151Y-110560038D01*
X159613330Y-110540632D01*
X159624366Y-110522219D01*
X159637154Y-110504976D01*
X159651570Y-110489070D01*
X159667476Y-110474654D01*
X159684719Y-110461866D01*
X159703132Y-110450830D01*
X159722538Y-110441651D01*
X159742750Y-110434419D01*
X159763574Y-110429203D01*
X159784809Y-110426053D01*
X159806250Y-110425000D01*
X160243750Y-110425000D01*
X160265191Y-110426053D01*
G37*
G36*
X165462691Y-94926053D02*
G01*
X165483926Y-94929203D01*
X165504750Y-94934419D01*
X165524962Y-94941651D01*
X165544368Y-94950830D01*
X165562781Y-94961866D01*
X165580024Y-94974654D01*
X165595930Y-94989070D01*
X165610346Y-95004976D01*
X165623134Y-95022219D01*
X165634170Y-95040632D01*
X165643349Y-95060038D01*
X165650581Y-95080250D01*
X165655797Y-95101074D01*
X165658947Y-95122309D01*
X165660000Y-95143750D01*
X165660000Y-95656250D01*
X165658947Y-95677691D01*
X165655797Y-95698926D01*
X165650581Y-95719750D01*
X165643349Y-95739962D01*
X165634170Y-95759368D01*
X165623134Y-95777781D01*
X165610346Y-95795024D01*
X165595930Y-95810930D01*
X165580024Y-95825346D01*
X165562781Y-95838134D01*
X165544368Y-95849170D01*
X165524962Y-95858349D01*
X165504750Y-95865581D01*
X165483926Y-95870797D01*
X165462691Y-95873947D01*
X165441250Y-95875000D01*
X165003750Y-95875000D01*
X164982309Y-95873947D01*
X164961074Y-95870797D01*
X164940250Y-95865581D01*
X164920038Y-95858349D01*
X164900632Y-95849170D01*
X164882219Y-95838134D01*
X164864976Y-95825346D01*
X164849070Y-95810930D01*
X164834654Y-95795024D01*
X164821866Y-95777781D01*
X164810830Y-95759368D01*
X164801651Y-95739962D01*
X164794419Y-95719750D01*
X164789203Y-95698926D01*
X164786053Y-95677691D01*
X164785000Y-95656250D01*
X164785000Y-95143750D01*
X164786053Y-95122309D01*
X164789203Y-95101074D01*
X164794419Y-95080250D01*
X164801651Y-95060038D01*
X164810830Y-95040632D01*
X164821866Y-95022219D01*
X164834654Y-95004976D01*
X164849070Y-94989070D01*
X164864976Y-94974654D01*
X164882219Y-94961866D01*
X164900632Y-94950830D01*
X164920038Y-94941651D01*
X164940250Y-94934419D01*
X164961074Y-94929203D01*
X164982309Y-94926053D01*
X165003750Y-94925000D01*
X165441250Y-94925000D01*
X165462691Y-94926053D01*
G37*
G36*
X163887691Y-94926053D02*
G01*
X163908926Y-94929203D01*
X163929750Y-94934419D01*
X163949962Y-94941651D01*
X163969368Y-94950830D01*
X163987781Y-94961866D01*
X164005024Y-94974654D01*
X164020930Y-94989070D01*
X164035346Y-95004976D01*
X164048134Y-95022219D01*
X164059170Y-95040632D01*
X164068349Y-95060038D01*
X164075581Y-95080250D01*
X164080797Y-95101074D01*
X164083947Y-95122309D01*
X164085000Y-95143750D01*
X164085000Y-95656250D01*
X164083947Y-95677691D01*
X164080797Y-95698926D01*
X164075581Y-95719750D01*
X164068349Y-95739962D01*
X164059170Y-95759368D01*
X164048134Y-95777781D01*
X164035346Y-95795024D01*
X164020930Y-95810930D01*
X164005024Y-95825346D01*
X163987781Y-95838134D01*
X163969368Y-95849170D01*
X163949962Y-95858349D01*
X163929750Y-95865581D01*
X163908926Y-95870797D01*
X163887691Y-95873947D01*
X163866250Y-95875000D01*
X163428750Y-95875000D01*
X163407309Y-95873947D01*
X163386074Y-95870797D01*
X163365250Y-95865581D01*
X163345038Y-95858349D01*
X163325632Y-95849170D01*
X163307219Y-95838134D01*
X163289976Y-95825346D01*
X163274070Y-95810930D01*
X163259654Y-95795024D01*
X163246866Y-95777781D01*
X163235830Y-95759368D01*
X163226651Y-95739962D01*
X163219419Y-95719750D01*
X163214203Y-95698926D01*
X163211053Y-95677691D01*
X163210000Y-95656250D01*
X163210000Y-95143750D01*
X163211053Y-95122309D01*
X163214203Y-95101074D01*
X163219419Y-95080250D01*
X163226651Y-95060038D01*
X163235830Y-95040632D01*
X163246866Y-95022219D01*
X163259654Y-95004976D01*
X163274070Y-94989070D01*
X163289976Y-94974654D01*
X163307219Y-94961866D01*
X163325632Y-94950830D01*
X163345038Y-94941651D01*
X163365250Y-94934419D01*
X163386074Y-94929203D01*
X163407309Y-94926053D01*
X163428750Y-94925000D01*
X163866250Y-94925000D01*
X163887691Y-94926053D01*
G37*
D11*
X156875000Y-97150000D03*
X157675000Y-97150000D03*
X158475000Y-97150000D03*
X159275000Y-97150000D03*
X160075000Y-97150000D03*
X160875000Y-97150000D03*
X161675000Y-97150000D03*
X162475000Y-97150000D03*
X163275000Y-97150000D03*
X164075000Y-97150000D03*
X164875000Y-97150000D03*
D12*
X166575000Y-98850000D03*
X166575000Y-99650000D03*
X166575000Y-100450000D03*
X166575000Y-101250000D03*
X166575000Y-102050000D03*
X166575000Y-102850000D03*
X166575000Y-103650000D03*
X166575000Y-104450000D03*
X166575000Y-105250000D03*
X166575000Y-106050000D03*
X166575000Y-106850000D03*
D11*
X164875000Y-108550000D03*
X164075000Y-108550000D03*
X163275000Y-108550000D03*
X162475000Y-108550000D03*
X161675000Y-108550000D03*
X160875000Y-108550000D03*
X160075000Y-108550000D03*
X159275000Y-108550000D03*
X158475000Y-108550000D03*
X157675000Y-108550000D03*
X156875000Y-108550000D03*
D12*
X155175000Y-106850000D03*
X155175000Y-106050000D03*
X155175000Y-105250000D03*
X155175000Y-104450000D03*
X155175000Y-103650000D03*
X155175000Y-102850000D03*
X155175000Y-102050000D03*
X155175000Y-101250000D03*
X155175000Y-100450000D03*
X155175000Y-99650000D03*
X155175000Y-98850000D03*
D10*
G36*
X172909142Y-101945174D02*
G01*
X172932803Y-101948684D01*
X172956007Y-101954496D01*
X172978529Y-101962554D01*
X173000153Y-101972782D01*
X173020670Y-101985079D01*
X173039883Y-101999329D01*
X173057607Y-102015393D01*
X173073671Y-102033117D01*
X173087921Y-102052330D01*
X173100218Y-102072847D01*
X173110446Y-102094471D01*
X173118504Y-102116993D01*
X173124316Y-102140197D01*
X173127826Y-102163858D01*
X173129000Y-102187750D01*
X173129000Y-102675250D01*
X173127826Y-102699142D01*
X173124316Y-102722803D01*
X173118504Y-102746007D01*
X173110446Y-102768529D01*
X173100218Y-102790153D01*
X173087921Y-102810670D01*
X173073671Y-102829883D01*
X173057607Y-102847607D01*
X173039883Y-102863671D01*
X173020670Y-102877921D01*
X173000153Y-102890218D01*
X172978529Y-102900446D01*
X172956007Y-102908504D01*
X172932803Y-102914316D01*
X172909142Y-102917826D01*
X172885250Y-102919000D01*
X171972750Y-102919000D01*
X171948858Y-102917826D01*
X171925197Y-102914316D01*
X171901993Y-102908504D01*
X171879471Y-102900446D01*
X171857847Y-102890218D01*
X171837330Y-102877921D01*
X171818117Y-102863671D01*
X171800393Y-102847607D01*
X171784329Y-102829883D01*
X171770079Y-102810670D01*
X171757782Y-102790153D01*
X171747554Y-102768529D01*
X171739496Y-102746007D01*
X171733684Y-102722803D01*
X171730174Y-102699142D01*
X171729000Y-102675250D01*
X171729000Y-102187750D01*
X171730174Y-102163858D01*
X171733684Y-102140197D01*
X171739496Y-102116993D01*
X171747554Y-102094471D01*
X171757782Y-102072847D01*
X171770079Y-102052330D01*
X171784329Y-102033117D01*
X171800393Y-102015393D01*
X171818117Y-101999329D01*
X171837330Y-101985079D01*
X171857847Y-101972782D01*
X171879471Y-101962554D01*
X171901993Y-101954496D01*
X171925197Y-101948684D01*
X171948858Y-101945174D01*
X171972750Y-101944000D01*
X172885250Y-101944000D01*
X172909142Y-101945174D01*
G37*
G36*
X172909142Y-100070174D02*
G01*
X172932803Y-100073684D01*
X172956007Y-100079496D01*
X172978529Y-100087554D01*
X173000153Y-100097782D01*
X173020670Y-100110079D01*
X173039883Y-100124329D01*
X173057607Y-100140393D01*
X173073671Y-100158117D01*
X173087921Y-100177330D01*
X173100218Y-100197847D01*
X173110446Y-100219471D01*
X173118504Y-100241993D01*
X173124316Y-100265197D01*
X173127826Y-100288858D01*
X173129000Y-100312750D01*
X173129000Y-100800250D01*
X173127826Y-100824142D01*
X173124316Y-100847803D01*
X173118504Y-100871007D01*
X173110446Y-100893529D01*
X173100218Y-100915153D01*
X173087921Y-100935670D01*
X173073671Y-100954883D01*
X173057607Y-100972607D01*
X173039883Y-100988671D01*
X173020670Y-101002921D01*
X173000153Y-101015218D01*
X172978529Y-101025446D01*
X172956007Y-101033504D01*
X172932803Y-101039316D01*
X172909142Y-101042826D01*
X172885250Y-101044000D01*
X171972750Y-101044000D01*
X171948858Y-101042826D01*
X171925197Y-101039316D01*
X171901993Y-101033504D01*
X171879471Y-101025446D01*
X171857847Y-101015218D01*
X171837330Y-101002921D01*
X171818117Y-100988671D01*
X171800393Y-100972607D01*
X171784329Y-100954883D01*
X171770079Y-100935670D01*
X171757782Y-100915153D01*
X171747554Y-100893529D01*
X171739496Y-100871007D01*
X171733684Y-100847803D01*
X171730174Y-100824142D01*
X171729000Y-100800250D01*
X171729000Y-100312750D01*
X171730174Y-100288858D01*
X171733684Y-100265197D01*
X171739496Y-100241993D01*
X171747554Y-100219471D01*
X171757782Y-100197847D01*
X171770079Y-100177330D01*
X171784329Y-100158117D01*
X171800393Y-100140393D01*
X171818117Y-100124329D01*
X171837330Y-100110079D01*
X171857847Y-100097782D01*
X171879471Y-100087554D01*
X171901993Y-100079496D01*
X171925197Y-100073684D01*
X171948858Y-100070174D01*
X171972750Y-100069000D01*
X172885250Y-100069000D01*
X172909142Y-100070174D01*
G37*
G36*
X172909142Y-96104174D02*
G01*
X172932803Y-96107684D01*
X172956007Y-96113496D01*
X172978529Y-96121554D01*
X173000153Y-96131782D01*
X173020670Y-96144079D01*
X173039883Y-96158329D01*
X173057607Y-96174393D01*
X173073671Y-96192117D01*
X173087921Y-96211330D01*
X173100218Y-96231847D01*
X173110446Y-96253471D01*
X173118504Y-96275993D01*
X173124316Y-96299197D01*
X173127826Y-96322858D01*
X173129000Y-96346750D01*
X173129000Y-96834250D01*
X173127826Y-96858142D01*
X173124316Y-96881803D01*
X173118504Y-96905007D01*
X173110446Y-96927529D01*
X173100218Y-96949153D01*
X173087921Y-96969670D01*
X173073671Y-96988883D01*
X173057607Y-97006607D01*
X173039883Y-97022671D01*
X173020670Y-97036921D01*
X173000153Y-97049218D01*
X172978529Y-97059446D01*
X172956007Y-97067504D01*
X172932803Y-97073316D01*
X172909142Y-97076826D01*
X172885250Y-97078000D01*
X171972750Y-97078000D01*
X171948858Y-97076826D01*
X171925197Y-97073316D01*
X171901993Y-97067504D01*
X171879471Y-97059446D01*
X171857847Y-97049218D01*
X171837330Y-97036921D01*
X171818117Y-97022671D01*
X171800393Y-97006607D01*
X171784329Y-96988883D01*
X171770079Y-96969670D01*
X171757782Y-96949153D01*
X171747554Y-96927529D01*
X171739496Y-96905007D01*
X171733684Y-96881803D01*
X171730174Y-96858142D01*
X171729000Y-96834250D01*
X171729000Y-96346750D01*
X171730174Y-96322858D01*
X171733684Y-96299197D01*
X171739496Y-96275993D01*
X171747554Y-96253471D01*
X171757782Y-96231847D01*
X171770079Y-96211330D01*
X171784329Y-96192117D01*
X171800393Y-96174393D01*
X171818117Y-96158329D01*
X171837330Y-96144079D01*
X171857847Y-96131782D01*
X171879471Y-96121554D01*
X171901993Y-96113496D01*
X171925197Y-96107684D01*
X171948858Y-96104174D01*
X171972750Y-96103000D01*
X172885250Y-96103000D01*
X172909142Y-96104174D01*
G37*
G36*
X172909142Y-97979174D02*
G01*
X172932803Y-97982684D01*
X172956007Y-97988496D01*
X172978529Y-97996554D01*
X173000153Y-98006782D01*
X173020670Y-98019079D01*
X173039883Y-98033329D01*
X173057607Y-98049393D01*
X173073671Y-98067117D01*
X173087921Y-98086330D01*
X173100218Y-98106847D01*
X173110446Y-98128471D01*
X173118504Y-98150993D01*
X173124316Y-98174197D01*
X173127826Y-98197858D01*
X173129000Y-98221750D01*
X173129000Y-98709250D01*
X173127826Y-98733142D01*
X173124316Y-98756803D01*
X173118504Y-98780007D01*
X173110446Y-98802529D01*
X173100218Y-98824153D01*
X173087921Y-98844670D01*
X173073671Y-98863883D01*
X173057607Y-98881607D01*
X173039883Y-98897671D01*
X173020670Y-98911921D01*
X173000153Y-98924218D01*
X172978529Y-98934446D01*
X172956007Y-98942504D01*
X172932803Y-98948316D01*
X172909142Y-98951826D01*
X172885250Y-98953000D01*
X171972750Y-98953000D01*
X171948858Y-98951826D01*
X171925197Y-98948316D01*
X171901993Y-98942504D01*
X171879471Y-98934446D01*
X171857847Y-98924218D01*
X171837330Y-98911921D01*
X171818117Y-98897671D01*
X171800393Y-98881607D01*
X171784329Y-98863883D01*
X171770079Y-98844670D01*
X171757782Y-98824153D01*
X171747554Y-98802529D01*
X171739496Y-98780007D01*
X171733684Y-98756803D01*
X171730174Y-98733142D01*
X171729000Y-98709250D01*
X171729000Y-98221750D01*
X171730174Y-98197858D01*
X171733684Y-98174197D01*
X171739496Y-98150993D01*
X171747554Y-98128471D01*
X171757782Y-98106847D01*
X171770079Y-98086330D01*
X171784329Y-98067117D01*
X171800393Y-98049393D01*
X171818117Y-98033329D01*
X171837330Y-98019079D01*
X171857847Y-98006782D01*
X171879471Y-97996554D01*
X171901993Y-97988496D01*
X171925197Y-97982684D01*
X171948858Y-97979174D01*
X171972750Y-97978000D01*
X172885250Y-97978000D01*
X172909142Y-97979174D01*
G37*
G36*
X177735142Y-96104174D02*
G01*
X177758803Y-96107684D01*
X177782007Y-96113496D01*
X177804529Y-96121554D01*
X177826153Y-96131782D01*
X177846670Y-96144079D01*
X177865883Y-96158329D01*
X177883607Y-96174393D01*
X177899671Y-96192117D01*
X177913921Y-96211330D01*
X177926218Y-96231847D01*
X177936446Y-96253471D01*
X177944504Y-96275993D01*
X177950316Y-96299197D01*
X177953826Y-96322858D01*
X177955000Y-96346750D01*
X177955000Y-96834250D01*
X177953826Y-96858142D01*
X177950316Y-96881803D01*
X177944504Y-96905007D01*
X177936446Y-96927529D01*
X177926218Y-96949153D01*
X177913921Y-96969670D01*
X177899671Y-96988883D01*
X177883607Y-97006607D01*
X177865883Y-97022671D01*
X177846670Y-97036921D01*
X177826153Y-97049218D01*
X177804529Y-97059446D01*
X177782007Y-97067504D01*
X177758803Y-97073316D01*
X177735142Y-97076826D01*
X177711250Y-97078000D01*
X176798750Y-97078000D01*
X176774858Y-97076826D01*
X176751197Y-97073316D01*
X176727993Y-97067504D01*
X176705471Y-97059446D01*
X176683847Y-97049218D01*
X176663330Y-97036921D01*
X176644117Y-97022671D01*
X176626393Y-97006607D01*
X176610329Y-96988883D01*
X176596079Y-96969670D01*
X176583782Y-96949153D01*
X176573554Y-96927529D01*
X176565496Y-96905007D01*
X176559684Y-96881803D01*
X176556174Y-96858142D01*
X176555000Y-96834250D01*
X176555000Y-96346750D01*
X176556174Y-96322858D01*
X176559684Y-96299197D01*
X176565496Y-96275993D01*
X176573554Y-96253471D01*
X176583782Y-96231847D01*
X176596079Y-96211330D01*
X176610329Y-96192117D01*
X176626393Y-96174393D01*
X176644117Y-96158329D01*
X176663330Y-96144079D01*
X176683847Y-96131782D01*
X176705471Y-96121554D01*
X176727993Y-96113496D01*
X176751197Y-96107684D01*
X176774858Y-96104174D01*
X176798750Y-96103000D01*
X177711250Y-96103000D01*
X177735142Y-96104174D01*
G37*
G36*
X177735142Y-97979174D02*
G01*
X177758803Y-97982684D01*
X177782007Y-97988496D01*
X177804529Y-97996554D01*
X177826153Y-98006782D01*
X177846670Y-98019079D01*
X177865883Y-98033329D01*
X177883607Y-98049393D01*
X177899671Y-98067117D01*
X177913921Y-98086330D01*
X177926218Y-98106847D01*
X177936446Y-98128471D01*
X177944504Y-98150993D01*
X177950316Y-98174197D01*
X177953826Y-98197858D01*
X177955000Y-98221750D01*
X177955000Y-98709250D01*
X177953826Y-98733142D01*
X177950316Y-98756803D01*
X177944504Y-98780007D01*
X177936446Y-98802529D01*
X177926218Y-98824153D01*
X177913921Y-98844670D01*
X177899671Y-98863883D01*
X177883607Y-98881607D01*
X177865883Y-98897671D01*
X177846670Y-98911921D01*
X177826153Y-98924218D01*
X177804529Y-98934446D01*
X177782007Y-98942504D01*
X177758803Y-98948316D01*
X177735142Y-98951826D01*
X177711250Y-98953000D01*
X176798750Y-98953000D01*
X176774858Y-98951826D01*
X176751197Y-98948316D01*
X176727993Y-98942504D01*
X176705471Y-98934446D01*
X176683847Y-98924218D01*
X176663330Y-98911921D01*
X176644117Y-98897671D01*
X176626393Y-98881607D01*
X176610329Y-98863883D01*
X176596079Y-98844670D01*
X176583782Y-98824153D01*
X176573554Y-98802529D01*
X176565496Y-98780007D01*
X176559684Y-98756803D01*
X176556174Y-98733142D01*
X176555000Y-98709250D01*
X176555000Y-98221750D01*
X176556174Y-98197858D01*
X176559684Y-98174197D01*
X176565496Y-98150993D01*
X176573554Y-98128471D01*
X176583782Y-98106847D01*
X176596079Y-98086330D01*
X176610329Y-98067117D01*
X176626393Y-98049393D01*
X176644117Y-98033329D01*
X176663330Y-98019079D01*
X176683847Y-98006782D01*
X176705471Y-97996554D01*
X176727993Y-97988496D01*
X176751197Y-97982684D01*
X176774858Y-97979174D01*
X176798750Y-97978000D01*
X177711250Y-97978000D01*
X177735142Y-97979174D01*
G37*
G36*
X149199504Y-96251204D02*
G01*
X149223773Y-96254804D01*
X149247571Y-96260765D01*
X149270671Y-96269030D01*
X149292849Y-96279520D01*
X149313893Y-96292133D01*
X149333598Y-96306747D01*
X149351777Y-96323223D01*
X149368253Y-96341402D01*
X149382867Y-96361107D01*
X149395480Y-96382151D01*
X149405970Y-96404329D01*
X149414235Y-96427429D01*
X149420196Y-96451227D01*
X149423796Y-96475496D01*
X149425000Y-96500000D01*
X149425000Y-97750000D01*
X149423796Y-97774504D01*
X149420196Y-97798773D01*
X149414235Y-97822571D01*
X149405970Y-97845671D01*
X149395480Y-97867849D01*
X149382867Y-97888893D01*
X149368253Y-97908598D01*
X149351777Y-97926777D01*
X149333598Y-97943253D01*
X149313893Y-97957867D01*
X149292849Y-97970480D01*
X149270671Y-97980970D01*
X149247571Y-97989235D01*
X149223773Y-97995196D01*
X149199504Y-97998796D01*
X149175000Y-98000000D01*
X148425000Y-98000000D01*
X148400496Y-97998796D01*
X148376227Y-97995196D01*
X148352429Y-97989235D01*
X148329329Y-97980970D01*
X148307151Y-97970480D01*
X148286107Y-97957867D01*
X148266402Y-97943253D01*
X148248223Y-97926777D01*
X148231747Y-97908598D01*
X148217133Y-97888893D01*
X148204520Y-97867849D01*
X148194030Y-97845671D01*
X148185765Y-97822571D01*
X148179804Y-97798773D01*
X148176204Y-97774504D01*
X148175000Y-97750000D01*
X148175000Y-96500000D01*
X148176204Y-96475496D01*
X148179804Y-96451227D01*
X148185765Y-96427429D01*
X148194030Y-96404329D01*
X148204520Y-96382151D01*
X148217133Y-96361107D01*
X148231747Y-96341402D01*
X148248223Y-96323223D01*
X148266402Y-96306747D01*
X148286107Y-96292133D01*
X148307151Y-96279520D01*
X148329329Y-96269030D01*
X148352429Y-96260765D01*
X148376227Y-96254804D01*
X148400496Y-96251204D01*
X148425000Y-96250000D01*
X149175000Y-96250000D01*
X149199504Y-96251204D01*
G37*
G36*
X146399504Y-96251204D02*
G01*
X146423773Y-96254804D01*
X146447571Y-96260765D01*
X146470671Y-96269030D01*
X146492849Y-96279520D01*
X146513893Y-96292133D01*
X146533598Y-96306747D01*
X146551777Y-96323223D01*
X146568253Y-96341402D01*
X146582867Y-96361107D01*
X146595480Y-96382151D01*
X146605970Y-96404329D01*
X146614235Y-96427429D01*
X146620196Y-96451227D01*
X146623796Y-96475496D01*
X146625000Y-96500000D01*
X146625000Y-97750000D01*
X146623796Y-97774504D01*
X146620196Y-97798773D01*
X146614235Y-97822571D01*
X146605970Y-97845671D01*
X146595480Y-97867849D01*
X146582867Y-97888893D01*
X146568253Y-97908598D01*
X146551777Y-97926777D01*
X146533598Y-97943253D01*
X146513893Y-97957867D01*
X146492849Y-97970480D01*
X146470671Y-97980970D01*
X146447571Y-97989235D01*
X146423773Y-97995196D01*
X146399504Y-97998796D01*
X146375000Y-98000000D01*
X145625000Y-98000000D01*
X145600496Y-97998796D01*
X145576227Y-97995196D01*
X145552429Y-97989235D01*
X145529329Y-97980970D01*
X145507151Y-97970480D01*
X145486107Y-97957867D01*
X145466402Y-97943253D01*
X145448223Y-97926777D01*
X145431747Y-97908598D01*
X145417133Y-97888893D01*
X145404520Y-97867849D01*
X145394030Y-97845671D01*
X145385765Y-97822571D01*
X145379804Y-97798773D01*
X145376204Y-97774504D01*
X145375000Y-97750000D01*
X145375000Y-96500000D01*
X145376204Y-96475496D01*
X145379804Y-96451227D01*
X145385765Y-96427429D01*
X145394030Y-96404329D01*
X145404520Y-96382151D01*
X145417133Y-96361107D01*
X145431747Y-96341402D01*
X145448223Y-96323223D01*
X145466402Y-96306747D01*
X145486107Y-96292133D01*
X145507151Y-96279520D01*
X145529329Y-96269030D01*
X145552429Y-96260765D01*
X145576227Y-96254804D01*
X145600496Y-96251204D01*
X145625000Y-96250000D01*
X146375000Y-96250000D01*
X146399504Y-96251204D01*
G37*
D13*
X162917000Y-113802000D03*
X160717000Y-113802000D03*
X160717000Y-115502000D03*
X162917000Y-115502000D03*
M02*
