G04 #@! TF.GenerationSoftware,KiCad,Pcbnew,5.1.5+dfsg1-2build2*
G04 #@! TF.CreationDate,2020-11-03T19:00:10-05:00*
G04 #@! TF.ProjectId,multi-avr,6d756c74-692d-4617-9672-2e6b69636164,rev?*
G04 #@! TF.SameCoordinates,Original*
G04 #@! TF.FileFunction,Copper,L2,Bot*
G04 #@! TF.FilePolarity,Positive*
%FSLAX46Y46*%
G04 Gerber Fmt 4.6, Leading zero omitted, Abs format (unit mm)*
G04 Created by KiCad (PCBNEW 5.1.5+dfsg1-2build2) date 2020-11-03 19:00:10*
%MOMM*%
%LPD*%
G04 APERTURE LIST*
%ADD10O,2.100000X1.000000*%
%ADD11O,1.600000X1.000000*%
%ADD12R,1.600000X2.400000*%
%ADD13O,1.600000X2.400000*%
%ADD14O,1.700000X1.700000*%
%ADD15R,1.700000X1.700000*%
%ADD16C,2.000000*%
%ADD17C,0.800000*%
%ADD18C,0.508000*%
%ADD19C,0.381000*%
%ADD20C,0.254000*%
G04 APERTURE END LIST*
D10*
X135110000Y-98100000D03*
X135110000Y-106740000D03*
D11*
X130930000Y-98100000D03*
X130930000Y-106740000D03*
D12*
X172551220Y-81948600D03*
D13*
X139531220Y-89568600D03*
X170011220Y-81948600D03*
X142071220Y-89568600D03*
X167471220Y-81948600D03*
X144611220Y-89568600D03*
X164931220Y-81948600D03*
X147151220Y-89568600D03*
X162391220Y-81948600D03*
X149691220Y-89568600D03*
X159851220Y-81948600D03*
X152231220Y-89568600D03*
X157311220Y-81948600D03*
X154771220Y-89568600D03*
X154771220Y-81948600D03*
X157311220Y-89568600D03*
X152231220Y-81948600D03*
X159851220Y-89568600D03*
X149691220Y-81948600D03*
X162391220Y-89568600D03*
X147151220Y-81948600D03*
X164931220Y-89568600D03*
X144611220Y-81948600D03*
X167471220Y-89568600D03*
X142071220Y-81948600D03*
X170011220Y-89568600D03*
X139531220Y-81948600D03*
X172551220Y-89568600D03*
D14*
X176130000Y-71040000D03*
X176130000Y-68500000D03*
X178670000Y-71040000D03*
X178670000Y-68500000D03*
X181210000Y-71040000D03*
D15*
X181210000Y-68500000D03*
D16*
X180210000Y-113340000D03*
X180210000Y-117840000D03*
X173710000Y-113340000D03*
X173710000Y-117840000D03*
D14*
X153850000Y-71040000D03*
X153850000Y-68500000D03*
X156390000Y-71040000D03*
X156390000Y-68500000D03*
X158930000Y-71040000D03*
D15*
X158930000Y-68500000D03*
X170070000Y-68500000D03*
D14*
X170070000Y-71040000D03*
X167530000Y-68500000D03*
X167530000Y-71040000D03*
X164990000Y-68500000D03*
X164990000Y-71040000D03*
X133650000Y-71050000D03*
X133650000Y-68510000D03*
X136190000Y-71050000D03*
X136190000Y-68510000D03*
X138730000Y-71050000D03*
D15*
X138730000Y-68510000D03*
D17*
X149290000Y-103700000D03*
X149680000Y-104720000D03*
X145980000Y-106850000D03*
X159290000Y-106910000D03*
X158240000Y-94900000D03*
X164110000Y-98470000D03*
X165140000Y-106840000D03*
X158640000Y-117530000D03*
X156640000Y-102030000D03*
X137650000Y-107050000D03*
X137400000Y-97950000D03*
X141850000Y-106125000D03*
X145350000Y-110450000D03*
X156225000Y-111825000D03*
X160150000Y-110850000D03*
X164125002Y-110275000D03*
X168500000Y-108325000D03*
X162225000Y-115725000D03*
X173975000Y-98525002D03*
X177925000Y-98425000D03*
X181950000Y-98675000D03*
X162400000Y-94950000D03*
X168150000Y-95000000D03*
X143475000Y-96400000D03*
X145475000Y-96525000D03*
X157680000Y-98482490D03*
X139750000Y-100450000D03*
X146800000Y-68325000D03*
X147975000Y-70525000D03*
X149850000Y-71650000D03*
X153625000Y-76925000D03*
X150325000Y-76700000D03*
X176475000Y-77925000D03*
X155000000Y-108850000D03*
X152525000Y-110175000D03*
X153750000Y-107500000D03*
X170050000Y-101100000D03*
X142050000Y-65387020D03*
X143825000Y-72900000D03*
X154475000Y-110750000D03*
D18*
X138730000Y-67152000D02*
X138730000Y-68510000D01*
X127929978Y-71510099D02*
X132796089Y-66643988D01*
X154600001Y-109299999D02*
X148525000Y-115375000D01*
X128239989Y-108239989D02*
X128239989Y-108163031D01*
X132796089Y-66643988D02*
X134503911Y-66643988D01*
X154600001Y-109249999D02*
X154600001Y-109299999D01*
X134965923Y-67106001D02*
X138684001Y-67106001D01*
X127929978Y-107853020D02*
X127929978Y-71510099D01*
X138684001Y-67106001D02*
X138730000Y-67152000D01*
X155000000Y-108850000D02*
X154600001Y-109249999D01*
X128239989Y-108163031D02*
X127929978Y-107853020D01*
X135375000Y-115375000D02*
X128239989Y-108239989D01*
X134503911Y-66643988D02*
X134965923Y-67106001D01*
X148525000Y-115375000D02*
X135375000Y-115375000D01*
X135471882Y-68510000D02*
X134240881Y-67278999D01*
X135625000Y-114650000D02*
X148050000Y-114650000D01*
X152125001Y-110574999D02*
X152525000Y-110175000D01*
X128564989Y-71811970D02*
X128564989Y-107589990D01*
X148050000Y-114650000D02*
X152125001Y-110574999D01*
X134240881Y-67278999D02*
X133097960Y-67278999D01*
X133097960Y-67278999D02*
X128564989Y-71811970D01*
X128564989Y-107589990D02*
X135625000Y-114650000D01*
X136190000Y-68510000D02*
X135471882Y-68510000D01*
X136000000Y-71050000D02*
X136190000Y-71050000D01*
X134725000Y-69775000D02*
X136000000Y-71050000D01*
X129200000Y-72075000D02*
X131500000Y-69775000D01*
X129200000Y-107326960D02*
X129200000Y-72075000D01*
X153750000Y-107500000D02*
X147289989Y-113960011D01*
X135833051Y-113960011D02*
X129200000Y-107326960D01*
X131500000Y-69775000D02*
X134725000Y-69775000D01*
X147289989Y-113960011D02*
X135833051Y-113960011D01*
X178795787Y-113340000D02*
X173710000Y-113340000D01*
X180210000Y-113340000D02*
X178795787Y-113340000D01*
D19*
X173710000Y-104760000D02*
X173710000Y-113340000D01*
X170050000Y-101100000D02*
X173710000Y-104760000D01*
D18*
X184018990Y-109531010D02*
X184018990Y-68923188D01*
X180210000Y-113340000D02*
X184018990Y-109531010D01*
X180482822Y-65387020D02*
X142615685Y-65387020D01*
X184018990Y-68923188D02*
X180482822Y-65387020D01*
X142615685Y-65387020D02*
X142050000Y-65387020D01*
D19*
X157311220Y-89168600D02*
X157311220Y-89568600D01*
X154771220Y-86628600D02*
X157311220Y-89168600D01*
X154771220Y-81948600D02*
X154771220Y-86628600D01*
X173590000Y-71040000D02*
X176130000Y-68500000D01*
X170070000Y-71040000D02*
X173590000Y-71040000D01*
X167530000Y-68500000D02*
X167400000Y-68500000D01*
X177820001Y-67650001D02*
X178670000Y-68500000D01*
X177502499Y-67332499D02*
X177820001Y-67650001D01*
X168567501Y-67332499D02*
X177502499Y-67332499D01*
X167400000Y-68500000D02*
X168567501Y-67332499D01*
X161032220Y-91149600D02*
X159851220Y-89968600D01*
X168830220Y-91149600D02*
X161032220Y-91149600D01*
X170011220Y-89968600D02*
X168830220Y-91149600D01*
X170011220Y-89568600D02*
X170011220Y-89968600D01*
X149691220Y-89968600D02*
X149691220Y-89568600D01*
X150872220Y-91149600D02*
X149691220Y-89968600D01*
X158670220Y-91149600D02*
X150872220Y-91149600D01*
X159851220Y-89968600D02*
X158670220Y-91149600D01*
X159851220Y-89568600D02*
X159851220Y-89968600D01*
X181210000Y-71040000D02*
X181210000Y-71115000D01*
X181210000Y-71115000D02*
X180117499Y-72207501D01*
X168379999Y-71889999D02*
X167530000Y-71040000D01*
X180117499Y-72207501D02*
X168697501Y-72207501D01*
X168697501Y-72207501D02*
X168379999Y-71889999D01*
X157311220Y-81948600D02*
X159851220Y-81948600D01*
X172551220Y-87987600D02*
X172551220Y-89568600D01*
X168893710Y-84330090D02*
X172551220Y-87987600D01*
X168893710Y-74943710D02*
X168893710Y-84330090D01*
X164990000Y-71040000D02*
X168893710Y-74943710D01*
X167471220Y-87987600D02*
X167471220Y-89568600D01*
X166375000Y-86891380D02*
X167471220Y-87987600D01*
X166353710Y-82811487D02*
X166375000Y-82832777D01*
X163150000Y-77882003D02*
X166353710Y-81085713D01*
X166353710Y-81085713D02*
X166353710Y-82811487D01*
X163150000Y-75250000D02*
X163150000Y-77882003D01*
X163275000Y-75125000D02*
X163150000Y-75250000D01*
X163275000Y-69475000D02*
X163275000Y-75125000D01*
X166375000Y-82832777D02*
X166375000Y-86891380D01*
X161125000Y-67325000D02*
X163275000Y-69475000D01*
X160105000Y-67325000D02*
X161125000Y-67325000D01*
X158930000Y-68500000D02*
X160105000Y-67325000D01*
D18*
X154475000Y-110750000D02*
X152700000Y-112525000D01*
X152700000Y-112525000D02*
X152700000Y-117150000D01*
X153390000Y-117840000D02*
X153515000Y-117840000D01*
X152700000Y-117150000D02*
X153390000Y-117840000D01*
X153515000Y-117840000D02*
X154975000Y-119300000D01*
X172250000Y-119300000D02*
X173710000Y-117840000D01*
X154975000Y-119300000D02*
X172250000Y-119300000D01*
X178795787Y-117840000D02*
X173710000Y-117840000D01*
X180210000Y-117840000D02*
X178795787Y-117840000D01*
D20*
G36*
X141132795Y-64896764D02*
G01*
X141054774Y-65085122D01*
X141015000Y-65285081D01*
X141015000Y-65488959D01*
X141054774Y-65688918D01*
X141132795Y-65877276D01*
X141246063Y-66046794D01*
X141390226Y-66190957D01*
X141559744Y-66304225D01*
X141748102Y-66382246D01*
X141948061Y-66422020D01*
X142151939Y-66422020D01*
X142351898Y-66382246D01*
X142540256Y-66304225D01*
X142582468Y-66276020D01*
X180114587Y-66276020D01*
X180850495Y-67011928D01*
X180360000Y-67011928D01*
X180235518Y-67024188D01*
X180115820Y-67060498D01*
X180005506Y-67119463D01*
X179908815Y-67198815D01*
X179829463Y-67295506D01*
X179770498Y-67405820D01*
X179748487Y-67478380D01*
X179616632Y-67346525D01*
X179373411Y-67184010D01*
X179103158Y-67072068D01*
X178816260Y-67015000D01*
X178523740Y-67015000D01*
X178380855Y-67043422D01*
X178114896Y-66777464D01*
X178089040Y-66745958D01*
X177963341Y-66642800D01*
X177819933Y-66566146D01*
X177664325Y-66518943D01*
X177543052Y-66506999D01*
X177543049Y-66506999D01*
X177502499Y-66503005D01*
X177461949Y-66506999D01*
X168608051Y-66506999D01*
X168567501Y-66503005D01*
X168526950Y-66506999D01*
X168526948Y-66506999D01*
X168405675Y-66518943D01*
X168274788Y-66558647D01*
X168250067Y-66566146D01*
X168106658Y-66642800D01*
X168012459Y-66720107D01*
X168012458Y-66720108D01*
X167980960Y-66745958D01*
X167955112Y-66777454D01*
X167710713Y-67021853D01*
X167676260Y-67015000D01*
X167383740Y-67015000D01*
X167096842Y-67072068D01*
X166826589Y-67184010D01*
X166583368Y-67346525D01*
X166376525Y-67553368D01*
X166260000Y-67727760D01*
X166143475Y-67553368D01*
X165936632Y-67346525D01*
X165693411Y-67184010D01*
X165423158Y-67072068D01*
X165136260Y-67015000D01*
X164843740Y-67015000D01*
X164556842Y-67072068D01*
X164286589Y-67184010D01*
X164043368Y-67346525D01*
X163836525Y-67553368D01*
X163674010Y-67796589D01*
X163562068Y-68066842D01*
X163505000Y-68353740D01*
X163505000Y-68537567D01*
X161737398Y-66769966D01*
X161711541Y-66738459D01*
X161585842Y-66635301D01*
X161442434Y-66558647D01*
X161286826Y-66511444D01*
X161165553Y-66499500D01*
X161165550Y-66499500D01*
X161125000Y-66495506D01*
X161084450Y-66499500D01*
X160145550Y-66499500D01*
X160105000Y-66495506D01*
X160064449Y-66499500D01*
X160064447Y-66499500D01*
X159943174Y-66511444D01*
X159802028Y-66554260D01*
X159787566Y-66558647D01*
X159644157Y-66635301D01*
X159619289Y-66655710D01*
X159518459Y-66738459D01*
X159492606Y-66769961D01*
X159250639Y-67011928D01*
X158080000Y-67011928D01*
X157955518Y-67024188D01*
X157835820Y-67060498D01*
X157725506Y-67119463D01*
X157628815Y-67198815D01*
X157549463Y-67295506D01*
X157490498Y-67405820D01*
X157468487Y-67478380D01*
X157336632Y-67346525D01*
X157093411Y-67184010D01*
X156823158Y-67072068D01*
X156536260Y-67015000D01*
X156243740Y-67015000D01*
X155956842Y-67072068D01*
X155686589Y-67184010D01*
X155443368Y-67346525D01*
X155236525Y-67553368D01*
X155120000Y-67727760D01*
X155003475Y-67553368D01*
X154796632Y-67346525D01*
X154553411Y-67184010D01*
X154283158Y-67072068D01*
X153996260Y-67015000D01*
X153703740Y-67015000D01*
X153416842Y-67072068D01*
X153146589Y-67184010D01*
X152903368Y-67346525D01*
X152696525Y-67553368D01*
X152534010Y-67796589D01*
X152422068Y-68066842D01*
X152365000Y-68353740D01*
X152365000Y-68646260D01*
X152422068Y-68933158D01*
X152534010Y-69203411D01*
X152696525Y-69446632D01*
X152903368Y-69653475D01*
X153077760Y-69770000D01*
X152903368Y-69886525D01*
X152696525Y-70093368D01*
X152534010Y-70336589D01*
X152422068Y-70606842D01*
X152365000Y-70893740D01*
X152365000Y-71186260D01*
X152422068Y-71473158D01*
X152534010Y-71743411D01*
X152696525Y-71986632D01*
X152903368Y-72193475D01*
X153146589Y-72355990D01*
X153416842Y-72467932D01*
X153703740Y-72525000D01*
X153996260Y-72525000D01*
X154283158Y-72467932D01*
X154553411Y-72355990D01*
X154796632Y-72193475D01*
X155003475Y-71986632D01*
X155120000Y-71812240D01*
X155236525Y-71986632D01*
X155443368Y-72193475D01*
X155686589Y-72355990D01*
X155956842Y-72467932D01*
X156243740Y-72525000D01*
X156536260Y-72525000D01*
X156823158Y-72467932D01*
X157093411Y-72355990D01*
X157336632Y-72193475D01*
X157543475Y-71986632D01*
X157660000Y-71812240D01*
X157776525Y-71986632D01*
X157983368Y-72193475D01*
X158226589Y-72355990D01*
X158496842Y-72467932D01*
X158783740Y-72525000D01*
X159076260Y-72525000D01*
X159363158Y-72467932D01*
X159633411Y-72355990D01*
X159876632Y-72193475D01*
X160083475Y-71986632D01*
X160245990Y-71743411D01*
X160357932Y-71473158D01*
X160415000Y-71186260D01*
X160415000Y-70893740D01*
X160357932Y-70606842D01*
X160245990Y-70336589D01*
X160083475Y-70093368D01*
X159951620Y-69961513D01*
X160024180Y-69939502D01*
X160134494Y-69880537D01*
X160231185Y-69801185D01*
X160310537Y-69704494D01*
X160369502Y-69594180D01*
X160405812Y-69474482D01*
X160418072Y-69350000D01*
X160418072Y-68179361D01*
X160446933Y-68150500D01*
X160783068Y-68150500D01*
X162449500Y-69816933D01*
X162449501Y-74809363D01*
X162383648Y-74932566D01*
X162383647Y-74932567D01*
X162336444Y-75088175D01*
X162324500Y-75209447D01*
X162320506Y-75250000D01*
X162324500Y-75290551D01*
X162324501Y-77841443D01*
X162320506Y-77882003D01*
X162336445Y-78043829D01*
X162383647Y-78199436D01*
X162460301Y-78342845D01*
X162521863Y-78417857D01*
X162563460Y-78468544D01*
X162594961Y-78494396D01*
X164338729Y-80238164D01*
X164130120Y-80349668D01*
X163911613Y-80528992D01*
X163732288Y-80747499D01*
X163661220Y-80880458D01*
X163590152Y-80747499D01*
X163410828Y-80528992D01*
X163192321Y-80349668D01*
X162943028Y-80216418D01*
X162672529Y-80134364D01*
X162391220Y-80106657D01*
X162109912Y-80134364D01*
X161839413Y-80216418D01*
X161590120Y-80349668D01*
X161371613Y-80528992D01*
X161192288Y-80747499D01*
X161121220Y-80880458D01*
X161050152Y-80747499D01*
X160870828Y-80528992D01*
X160652321Y-80349668D01*
X160403028Y-80216418D01*
X160132529Y-80134364D01*
X159851220Y-80106657D01*
X159569912Y-80134364D01*
X159299413Y-80216418D01*
X159050120Y-80349668D01*
X158831613Y-80528992D01*
X158652288Y-80747499D01*
X158581220Y-80880458D01*
X158510152Y-80747499D01*
X158330828Y-80528992D01*
X158112321Y-80349668D01*
X157863028Y-80216418D01*
X157592529Y-80134364D01*
X157311220Y-80106657D01*
X157029912Y-80134364D01*
X156759413Y-80216418D01*
X156510120Y-80349668D01*
X156291613Y-80528992D01*
X156112288Y-80747499D01*
X156041220Y-80880458D01*
X155970152Y-80747499D01*
X155790828Y-80528992D01*
X155572321Y-80349668D01*
X155323028Y-80216418D01*
X155052529Y-80134364D01*
X154771220Y-80106657D01*
X154489912Y-80134364D01*
X154219413Y-80216418D01*
X153970120Y-80349668D01*
X153751613Y-80528992D01*
X153572288Y-80747499D01*
X153501220Y-80880458D01*
X153430152Y-80747499D01*
X153250828Y-80528992D01*
X153032321Y-80349668D01*
X152783028Y-80216418D01*
X152512529Y-80134364D01*
X152231220Y-80106657D01*
X151949912Y-80134364D01*
X151679413Y-80216418D01*
X151430120Y-80349668D01*
X151211613Y-80528992D01*
X151032288Y-80747499D01*
X150961220Y-80880458D01*
X150890152Y-80747499D01*
X150710828Y-80528992D01*
X150492321Y-80349668D01*
X150243028Y-80216418D01*
X149972529Y-80134364D01*
X149691220Y-80106657D01*
X149409912Y-80134364D01*
X149139413Y-80216418D01*
X148890120Y-80349668D01*
X148671613Y-80528992D01*
X148492288Y-80747499D01*
X148421220Y-80880458D01*
X148350152Y-80747499D01*
X148170828Y-80528992D01*
X147952321Y-80349668D01*
X147703028Y-80216418D01*
X147432529Y-80134364D01*
X147151220Y-80106657D01*
X146869912Y-80134364D01*
X146599413Y-80216418D01*
X146350120Y-80349668D01*
X146131613Y-80528992D01*
X145952288Y-80747499D01*
X145881220Y-80880458D01*
X145810152Y-80747499D01*
X145630828Y-80528992D01*
X145412321Y-80349668D01*
X145163028Y-80216418D01*
X144892529Y-80134364D01*
X144611220Y-80106657D01*
X144329912Y-80134364D01*
X144059413Y-80216418D01*
X143810120Y-80349668D01*
X143591613Y-80528992D01*
X143412288Y-80747499D01*
X143341220Y-80880458D01*
X143270152Y-80747499D01*
X143090828Y-80528992D01*
X142872321Y-80349668D01*
X142623028Y-80216418D01*
X142352529Y-80134364D01*
X142071220Y-80106657D01*
X141789912Y-80134364D01*
X141519413Y-80216418D01*
X141270120Y-80349668D01*
X141051613Y-80528992D01*
X140872288Y-80747499D01*
X140801220Y-80880458D01*
X140730152Y-80747499D01*
X140550828Y-80528992D01*
X140332321Y-80349668D01*
X140083028Y-80216418D01*
X139812529Y-80134364D01*
X139531220Y-80106657D01*
X139249912Y-80134364D01*
X138979413Y-80216418D01*
X138730120Y-80349668D01*
X138511613Y-80528992D01*
X138332288Y-80747499D01*
X138199038Y-80996792D01*
X138116984Y-81267291D01*
X138096220Y-81478108D01*
X138096220Y-82419091D01*
X138116984Y-82629908D01*
X138199038Y-82900407D01*
X138332288Y-83149700D01*
X138511612Y-83368207D01*
X138730119Y-83547532D01*
X138979412Y-83680782D01*
X139249911Y-83762836D01*
X139531220Y-83790543D01*
X139812528Y-83762836D01*
X140083027Y-83680782D01*
X140332320Y-83547532D01*
X140550827Y-83368208D01*
X140730152Y-83149701D01*
X140801220Y-83016742D01*
X140872288Y-83149700D01*
X141051612Y-83368207D01*
X141270119Y-83547532D01*
X141519412Y-83680782D01*
X141789911Y-83762836D01*
X142071220Y-83790543D01*
X142352528Y-83762836D01*
X142623027Y-83680782D01*
X142872320Y-83547532D01*
X143090827Y-83368208D01*
X143270152Y-83149701D01*
X143341220Y-83016742D01*
X143412288Y-83149700D01*
X143591612Y-83368207D01*
X143810119Y-83547532D01*
X144059412Y-83680782D01*
X144329911Y-83762836D01*
X144611220Y-83790543D01*
X144892528Y-83762836D01*
X145163027Y-83680782D01*
X145412320Y-83547532D01*
X145630827Y-83368208D01*
X145810152Y-83149701D01*
X145881220Y-83016742D01*
X145952288Y-83149700D01*
X146131612Y-83368207D01*
X146350119Y-83547532D01*
X146599412Y-83680782D01*
X146869911Y-83762836D01*
X147151220Y-83790543D01*
X147432528Y-83762836D01*
X147703027Y-83680782D01*
X147952320Y-83547532D01*
X148170827Y-83368208D01*
X148350152Y-83149701D01*
X148421220Y-83016742D01*
X148492288Y-83149700D01*
X148671612Y-83368207D01*
X148890119Y-83547532D01*
X149139412Y-83680782D01*
X149409911Y-83762836D01*
X149691220Y-83790543D01*
X149972528Y-83762836D01*
X150243027Y-83680782D01*
X150492320Y-83547532D01*
X150710827Y-83368208D01*
X150890152Y-83149701D01*
X150961220Y-83016742D01*
X151032288Y-83149700D01*
X151211612Y-83368207D01*
X151430119Y-83547532D01*
X151679412Y-83680782D01*
X151949911Y-83762836D01*
X152231220Y-83790543D01*
X152512528Y-83762836D01*
X152783027Y-83680782D01*
X153032320Y-83547532D01*
X153250827Y-83368208D01*
X153430152Y-83149701D01*
X153501220Y-83016742D01*
X153572288Y-83149700D01*
X153751612Y-83368207D01*
X153945720Y-83527508D01*
X153945721Y-86588040D01*
X153941726Y-86628600D01*
X153957665Y-86790426D01*
X154004867Y-86946033D01*
X154081521Y-87089442D01*
X154137873Y-87158106D01*
X154184680Y-87215141D01*
X154216181Y-87240993D01*
X154708065Y-87732877D01*
X154489912Y-87754364D01*
X154219413Y-87836418D01*
X153970120Y-87969668D01*
X153751613Y-88148992D01*
X153572288Y-88367499D01*
X153501220Y-88500458D01*
X153430152Y-88367499D01*
X153250828Y-88148992D01*
X153032321Y-87969668D01*
X152783028Y-87836418D01*
X152512529Y-87754364D01*
X152231220Y-87726657D01*
X151949912Y-87754364D01*
X151679413Y-87836418D01*
X151430120Y-87969668D01*
X151211613Y-88148992D01*
X151032288Y-88367499D01*
X150961220Y-88500458D01*
X150890152Y-88367499D01*
X150710828Y-88148992D01*
X150492321Y-87969668D01*
X150243028Y-87836418D01*
X149972529Y-87754364D01*
X149691220Y-87726657D01*
X149409912Y-87754364D01*
X149139413Y-87836418D01*
X148890120Y-87969668D01*
X148671613Y-88148992D01*
X148492288Y-88367499D01*
X148421220Y-88500458D01*
X148350152Y-88367499D01*
X148170828Y-88148992D01*
X147952321Y-87969668D01*
X147703028Y-87836418D01*
X147432529Y-87754364D01*
X147151220Y-87726657D01*
X146869912Y-87754364D01*
X146599413Y-87836418D01*
X146350120Y-87969668D01*
X146131613Y-88148992D01*
X145952288Y-88367499D01*
X145881220Y-88500458D01*
X145810152Y-88367499D01*
X145630828Y-88148992D01*
X145412321Y-87969668D01*
X145163028Y-87836418D01*
X144892529Y-87754364D01*
X144611220Y-87726657D01*
X144329912Y-87754364D01*
X144059413Y-87836418D01*
X143810120Y-87969668D01*
X143591613Y-88148992D01*
X143412288Y-88367499D01*
X143341220Y-88500458D01*
X143270152Y-88367499D01*
X143090828Y-88148992D01*
X142872321Y-87969668D01*
X142623028Y-87836418D01*
X142352529Y-87754364D01*
X142071220Y-87726657D01*
X141789912Y-87754364D01*
X141519413Y-87836418D01*
X141270120Y-87969668D01*
X141051613Y-88148992D01*
X140872288Y-88367499D01*
X140801220Y-88500458D01*
X140730152Y-88367499D01*
X140550828Y-88148992D01*
X140332321Y-87969668D01*
X140083028Y-87836418D01*
X139812529Y-87754364D01*
X139531220Y-87726657D01*
X139249912Y-87754364D01*
X138979413Y-87836418D01*
X138730120Y-87969668D01*
X138511613Y-88148992D01*
X138332288Y-88367499D01*
X138199038Y-88616792D01*
X138116984Y-88887291D01*
X138096220Y-89098108D01*
X138096220Y-90039091D01*
X138116984Y-90249908D01*
X138199038Y-90520407D01*
X138332288Y-90769700D01*
X138511612Y-90988207D01*
X138730119Y-91167532D01*
X138979412Y-91300782D01*
X139249911Y-91382836D01*
X139531220Y-91410543D01*
X139812528Y-91382836D01*
X140083027Y-91300782D01*
X140332320Y-91167532D01*
X140550827Y-90988208D01*
X140730152Y-90769701D01*
X140801220Y-90636742D01*
X140872288Y-90769700D01*
X141051612Y-90988207D01*
X141270119Y-91167532D01*
X141519412Y-91300782D01*
X141789911Y-91382836D01*
X142071220Y-91410543D01*
X142352528Y-91382836D01*
X142623027Y-91300782D01*
X142872320Y-91167532D01*
X143090827Y-90988208D01*
X143270152Y-90769701D01*
X143341220Y-90636742D01*
X143412288Y-90769700D01*
X143591612Y-90988207D01*
X143810119Y-91167532D01*
X144059412Y-91300782D01*
X144329911Y-91382836D01*
X144611220Y-91410543D01*
X144892528Y-91382836D01*
X145163027Y-91300782D01*
X145412320Y-91167532D01*
X145630827Y-90988208D01*
X145810152Y-90769701D01*
X145881220Y-90636742D01*
X145952288Y-90769700D01*
X146131612Y-90988207D01*
X146350119Y-91167532D01*
X146599412Y-91300782D01*
X146869911Y-91382836D01*
X147151220Y-91410543D01*
X147432528Y-91382836D01*
X147703027Y-91300782D01*
X147952320Y-91167532D01*
X148170827Y-90988208D01*
X148350152Y-90769701D01*
X148421220Y-90636742D01*
X148492288Y-90769700D01*
X148671612Y-90988207D01*
X148890119Y-91167532D01*
X149139412Y-91300782D01*
X149409911Y-91382836D01*
X149691220Y-91410543D01*
X149941117Y-91385930D01*
X150259826Y-91704639D01*
X150285679Y-91736141D01*
X150349816Y-91788777D01*
X150411377Y-91839299D01*
X150461331Y-91865999D01*
X150554786Y-91915953D01*
X150710394Y-91963156D01*
X150831667Y-91975100D01*
X150831669Y-91975100D01*
X150872219Y-91979094D01*
X150912770Y-91975100D01*
X158629670Y-91975100D01*
X158670220Y-91979094D01*
X158710770Y-91975100D01*
X158710773Y-91975100D01*
X158832046Y-91963156D01*
X158987654Y-91915953D01*
X159131062Y-91839299D01*
X159256761Y-91736141D01*
X159282618Y-91704634D01*
X159601322Y-91385930D01*
X159851220Y-91410543D01*
X160101117Y-91385930D01*
X160419826Y-91704639D01*
X160445679Y-91736141D01*
X160509816Y-91788777D01*
X160571377Y-91839299D01*
X160621331Y-91865999D01*
X160714786Y-91915953D01*
X160870394Y-91963156D01*
X160991667Y-91975100D01*
X160991669Y-91975100D01*
X161032219Y-91979094D01*
X161072770Y-91975100D01*
X168789670Y-91975100D01*
X168830220Y-91979094D01*
X168870770Y-91975100D01*
X168870773Y-91975100D01*
X168992046Y-91963156D01*
X169147654Y-91915953D01*
X169291062Y-91839299D01*
X169416761Y-91736141D01*
X169442618Y-91704634D01*
X169761322Y-91385930D01*
X170011220Y-91410543D01*
X170292528Y-91382836D01*
X170563027Y-91300782D01*
X170812320Y-91167532D01*
X171030827Y-90988208D01*
X171210152Y-90769701D01*
X171281220Y-90636742D01*
X171352288Y-90769700D01*
X171531612Y-90988207D01*
X171750119Y-91167532D01*
X171999412Y-91300782D01*
X172269911Y-91382836D01*
X172551220Y-91410543D01*
X172832528Y-91382836D01*
X173103027Y-91300782D01*
X173352320Y-91167532D01*
X173570827Y-90988208D01*
X173750152Y-90769701D01*
X173883402Y-90520408D01*
X173965456Y-90249909D01*
X173986220Y-90039092D01*
X173986220Y-89098109D01*
X173965456Y-88887291D01*
X173883402Y-88616792D01*
X173750152Y-88367499D01*
X173570828Y-88148992D01*
X173380225Y-87992568D01*
X173380714Y-87987599D01*
X173376720Y-87947047D01*
X173364776Y-87825774D01*
X173317573Y-87670166D01*
X173240920Y-87526759D01*
X173240919Y-87526757D01*
X173163611Y-87432558D01*
X173137761Y-87401059D01*
X173106261Y-87375208D01*
X169719210Y-83988158D01*
X169719210Y-83759590D01*
X169729911Y-83762836D01*
X170011220Y-83790543D01*
X170292528Y-83762836D01*
X170563027Y-83680782D01*
X170812320Y-83547532D01*
X171030827Y-83368208D01*
X171123639Y-83255117D01*
X171125408Y-83273082D01*
X171161718Y-83392780D01*
X171220683Y-83503094D01*
X171300035Y-83599785D01*
X171396726Y-83679137D01*
X171507040Y-83738102D01*
X171626738Y-83774412D01*
X171751220Y-83786672D01*
X173351220Y-83786672D01*
X173475702Y-83774412D01*
X173595400Y-83738102D01*
X173705714Y-83679137D01*
X173802405Y-83599785D01*
X173881757Y-83503094D01*
X173940722Y-83392780D01*
X173977032Y-83273082D01*
X173989292Y-83148600D01*
X173989292Y-80748600D01*
X173977032Y-80624118D01*
X173940722Y-80504420D01*
X173881757Y-80394106D01*
X173802405Y-80297415D01*
X173705714Y-80218063D01*
X173595400Y-80159098D01*
X173475702Y-80122788D01*
X173351220Y-80110528D01*
X171751220Y-80110528D01*
X171626738Y-80122788D01*
X171507040Y-80159098D01*
X171396726Y-80218063D01*
X171300035Y-80297415D01*
X171220683Y-80394106D01*
X171161718Y-80504420D01*
X171125408Y-80624118D01*
X171123639Y-80642082D01*
X171030828Y-80528992D01*
X170812321Y-80349668D01*
X170563028Y-80216418D01*
X170292529Y-80134364D01*
X170011220Y-80106657D01*
X169729912Y-80134364D01*
X169719210Y-80137610D01*
X169719210Y-74984260D01*
X169723204Y-74943710D01*
X169709795Y-74807567D01*
X169707266Y-74781884D01*
X169660063Y-74626276D01*
X169624798Y-74560301D01*
X169583409Y-74482867D01*
X169506102Y-74388668D01*
X169506099Y-74388665D01*
X169480251Y-74357169D01*
X169448756Y-74331322D01*
X167642433Y-72525000D01*
X167676260Y-72525000D01*
X167819145Y-72496578D01*
X167824957Y-72502390D01*
X167824962Y-72502394D01*
X168085107Y-72762540D01*
X168110960Y-72794042D01*
X168236659Y-72897200D01*
X168380067Y-72973854D01*
X168535675Y-73021057D01*
X168656948Y-73033001D01*
X168656950Y-73033001D01*
X168697501Y-73036995D01*
X168738051Y-73033001D01*
X180076949Y-73033001D01*
X180117499Y-73036995D01*
X180158049Y-73033001D01*
X180158052Y-73033001D01*
X180279325Y-73021057D01*
X180434933Y-72973854D01*
X180578341Y-72897200D01*
X180704040Y-72794042D01*
X180729897Y-72762536D01*
X180983411Y-72509021D01*
X181063740Y-72525000D01*
X181356260Y-72525000D01*
X181643158Y-72467932D01*
X181913411Y-72355990D01*
X182156632Y-72193475D01*
X182363475Y-71986632D01*
X182525990Y-71743411D01*
X182637932Y-71473158D01*
X182695000Y-71186260D01*
X182695000Y-70893740D01*
X182637932Y-70606842D01*
X182525990Y-70336589D01*
X182363475Y-70093368D01*
X182231620Y-69961513D01*
X182304180Y-69939502D01*
X182414494Y-69880537D01*
X182511185Y-69801185D01*
X182590537Y-69704494D01*
X182649502Y-69594180D01*
X182685812Y-69474482D01*
X182698072Y-69350000D01*
X182698072Y-68859506D01*
X183129991Y-69291425D01*
X183129990Y-109162775D01*
X180551807Y-111740958D01*
X180371033Y-111705000D01*
X180048967Y-111705000D01*
X179733088Y-111767832D01*
X179435537Y-111891082D01*
X179167748Y-112070013D01*
X178940013Y-112297748D01*
X178837613Y-112451000D01*
X175082387Y-112451000D01*
X174979987Y-112297748D01*
X174752252Y-112070013D01*
X174535500Y-111925184D01*
X174535500Y-104800550D01*
X174539494Y-104760000D01*
X174533391Y-104698036D01*
X174523556Y-104598174D01*
X174476353Y-104442566D01*
X174399699Y-104299157D01*
X174322392Y-104204958D01*
X174322389Y-104204955D01*
X174296541Y-104173459D01*
X174265046Y-104147612D01*
X171077429Y-100959996D01*
X171045226Y-100798102D01*
X170967205Y-100609744D01*
X170853937Y-100440226D01*
X170709774Y-100296063D01*
X170540256Y-100182795D01*
X170351898Y-100104774D01*
X170151939Y-100065000D01*
X169948061Y-100065000D01*
X169748102Y-100104774D01*
X169559744Y-100182795D01*
X169390226Y-100296063D01*
X169246063Y-100440226D01*
X169132795Y-100609744D01*
X169054774Y-100798102D01*
X169015000Y-100998061D01*
X169015000Y-101201939D01*
X169054774Y-101401898D01*
X169132795Y-101590256D01*
X169246063Y-101759774D01*
X169390226Y-101903937D01*
X169559744Y-102017205D01*
X169748102Y-102095226D01*
X169909996Y-102127429D01*
X172884500Y-105101934D01*
X172884501Y-111925183D01*
X172667748Y-112070013D01*
X172440013Y-112297748D01*
X172261082Y-112565537D01*
X172137832Y-112863088D01*
X172075000Y-113178967D01*
X172075000Y-113501033D01*
X172137832Y-113816912D01*
X172261082Y-114114463D01*
X172440013Y-114382252D01*
X172667748Y-114609987D01*
X172935537Y-114788918D01*
X173233088Y-114912168D01*
X173548967Y-114975000D01*
X173871033Y-114975000D01*
X174186912Y-114912168D01*
X174484463Y-114788918D01*
X174752252Y-114609987D01*
X174979987Y-114382252D01*
X175082387Y-114229000D01*
X178837613Y-114229000D01*
X178940013Y-114382252D01*
X179167748Y-114609987D01*
X179435537Y-114788918D01*
X179733088Y-114912168D01*
X180048967Y-114975000D01*
X180371033Y-114975000D01*
X180686912Y-114912168D01*
X180984463Y-114788918D01*
X181252252Y-114609987D01*
X181479987Y-114382252D01*
X181658918Y-114114463D01*
X181782168Y-113816912D01*
X181845000Y-113501033D01*
X181845000Y-113178967D01*
X181809042Y-112998193D01*
X183765000Y-111042235D01*
X183765000Y-119540000D01*
X173267235Y-119540000D01*
X173368193Y-119439042D01*
X173548967Y-119475000D01*
X173871033Y-119475000D01*
X174186912Y-119412168D01*
X174484463Y-119288918D01*
X174752252Y-119109987D01*
X174979987Y-118882252D01*
X175082387Y-118729000D01*
X178837613Y-118729000D01*
X178940013Y-118882252D01*
X179167748Y-119109987D01*
X179435537Y-119288918D01*
X179733088Y-119412168D01*
X180048967Y-119475000D01*
X180371033Y-119475000D01*
X180686912Y-119412168D01*
X180984463Y-119288918D01*
X181252252Y-119109987D01*
X181479987Y-118882252D01*
X181658918Y-118614463D01*
X181782168Y-118316912D01*
X181845000Y-118001033D01*
X181845000Y-117678967D01*
X181782168Y-117363088D01*
X181658918Y-117065537D01*
X181479987Y-116797748D01*
X181252252Y-116570013D01*
X180984463Y-116391082D01*
X180686912Y-116267832D01*
X180371033Y-116205000D01*
X180048967Y-116205000D01*
X179733088Y-116267832D01*
X179435537Y-116391082D01*
X179167748Y-116570013D01*
X178940013Y-116797748D01*
X178837613Y-116951000D01*
X175082387Y-116951000D01*
X174979987Y-116797748D01*
X174752252Y-116570013D01*
X174484463Y-116391082D01*
X174186912Y-116267832D01*
X173871033Y-116205000D01*
X173548967Y-116205000D01*
X173233088Y-116267832D01*
X172935537Y-116391082D01*
X172667748Y-116570013D01*
X172440013Y-116797748D01*
X172261082Y-117065537D01*
X172137832Y-117363088D01*
X172075000Y-117678967D01*
X172075000Y-118001033D01*
X172110958Y-118181807D01*
X171881765Y-118411000D01*
X155343236Y-118411000D01*
X154174499Y-117242264D01*
X154146659Y-117208341D01*
X154011291Y-117097247D01*
X153856851Y-117014697D01*
X153806727Y-116999492D01*
X153589000Y-116781765D01*
X153589000Y-112893235D01*
X154727106Y-111755130D01*
X154776898Y-111745226D01*
X154965256Y-111667205D01*
X155134774Y-111553937D01*
X155278937Y-111409774D01*
X155392205Y-111240256D01*
X155470226Y-111051898D01*
X155510000Y-110851939D01*
X155510000Y-110648061D01*
X155470226Y-110448102D01*
X155392205Y-110259744D01*
X155278937Y-110090226D01*
X155172973Y-109984262D01*
X155197743Y-109959493D01*
X155231660Y-109931658D01*
X155279091Y-109873864D01*
X155302951Y-109844790D01*
X155490256Y-109767205D01*
X155659774Y-109653937D01*
X155803937Y-109509774D01*
X155917205Y-109340256D01*
X155995226Y-109151898D01*
X156035000Y-108951939D01*
X156035000Y-108748061D01*
X155995226Y-108548102D01*
X155917205Y-108359744D01*
X155803937Y-108190226D01*
X155659774Y-108046063D01*
X155490256Y-107932795D01*
X155301898Y-107854774D01*
X155101939Y-107815000D01*
X154898061Y-107815000D01*
X154725589Y-107849307D01*
X154745226Y-107801898D01*
X154785000Y-107601939D01*
X154785000Y-107398061D01*
X154745226Y-107198102D01*
X154667205Y-107009744D01*
X154553937Y-106840226D01*
X154409774Y-106696063D01*
X154240256Y-106582795D01*
X154051898Y-106504774D01*
X153851939Y-106465000D01*
X153648061Y-106465000D01*
X153448102Y-106504774D01*
X153259744Y-106582795D01*
X153090226Y-106696063D01*
X152946063Y-106840226D01*
X152832795Y-107009744D01*
X152754774Y-107198102D01*
X152744870Y-107247894D01*
X146921754Y-113071011D01*
X136201287Y-113071011D01*
X131005275Y-107875000D01*
X131357000Y-107875000D01*
X131575987Y-107828415D01*
X131781678Y-107740003D01*
X131966169Y-107613161D01*
X132122369Y-107452764D01*
X132244276Y-107264976D01*
X132324119Y-107041874D01*
X133465881Y-107041874D01*
X133545724Y-107264976D01*
X133667631Y-107452764D01*
X133823831Y-107613161D01*
X134008322Y-107740003D01*
X134214013Y-107828415D01*
X134433000Y-107875000D01*
X134983000Y-107875000D01*
X134983000Y-106867000D01*
X135237000Y-106867000D01*
X135237000Y-107875000D01*
X135787000Y-107875000D01*
X136005987Y-107828415D01*
X136211678Y-107740003D01*
X136396169Y-107613161D01*
X136552369Y-107452764D01*
X136674276Y-107264976D01*
X136754119Y-107041874D01*
X136627954Y-106867000D01*
X135237000Y-106867000D01*
X134983000Y-106867000D01*
X133592046Y-106867000D01*
X133465881Y-107041874D01*
X132324119Y-107041874D01*
X132197954Y-106867000D01*
X131057000Y-106867000D01*
X131057000Y-106887000D01*
X130803000Y-106887000D01*
X130803000Y-106867000D01*
X130783000Y-106867000D01*
X130783000Y-106613000D01*
X130803000Y-106613000D01*
X130803000Y-105605000D01*
X131057000Y-105605000D01*
X131057000Y-106613000D01*
X132197954Y-106613000D01*
X132324119Y-106438126D01*
X133465881Y-106438126D01*
X133592046Y-106613000D01*
X134983000Y-106613000D01*
X134983000Y-106593000D01*
X135237000Y-106593000D01*
X135237000Y-106613000D01*
X136627954Y-106613000D01*
X136754119Y-106438126D01*
X136674276Y-106215024D01*
X136552369Y-106027236D01*
X136396169Y-105866839D01*
X136211678Y-105739997D01*
X136005987Y-105651585D01*
X135787000Y-105605000D01*
X135496904Y-105605000D01*
X135503108Y-105590022D01*
X135540000Y-105404552D01*
X135540000Y-105215448D01*
X135503108Y-105029978D01*
X135430741Y-104855269D01*
X135325681Y-104698036D01*
X135191964Y-104564319D01*
X135034731Y-104459259D01*
X134860022Y-104386892D01*
X134674552Y-104350000D01*
X134485448Y-104350000D01*
X134299978Y-104386892D01*
X134125269Y-104459259D01*
X133968036Y-104564319D01*
X133834319Y-104698036D01*
X133729259Y-104855269D01*
X133656892Y-105029978D01*
X133620000Y-105215448D01*
X133620000Y-105404552D01*
X133656892Y-105590022D01*
X133729259Y-105764731D01*
X133808206Y-105882884D01*
X133667631Y-106027236D01*
X133545724Y-106215024D01*
X133465881Y-106438126D01*
X132324119Y-106438126D01*
X132244276Y-106215024D01*
X132122369Y-106027236D01*
X131966169Y-105866839D01*
X131781678Y-105739997D01*
X131575987Y-105651585D01*
X131357000Y-105605000D01*
X131057000Y-105605000D01*
X130803000Y-105605000D01*
X130503000Y-105605000D01*
X130284013Y-105651585D01*
X130089000Y-105735407D01*
X130089000Y-99104593D01*
X130284013Y-99188415D01*
X130503000Y-99235000D01*
X130803000Y-99235000D01*
X130803000Y-98227000D01*
X131057000Y-98227000D01*
X131057000Y-99235000D01*
X131357000Y-99235000D01*
X131575987Y-99188415D01*
X131781678Y-99100003D01*
X131966169Y-98973161D01*
X132122369Y-98812764D01*
X132244276Y-98624976D01*
X132324119Y-98401874D01*
X133465881Y-98401874D01*
X133545724Y-98624976D01*
X133667631Y-98812764D01*
X133808206Y-98957116D01*
X133729259Y-99075269D01*
X133656892Y-99249978D01*
X133620000Y-99435448D01*
X133620000Y-99624552D01*
X133656892Y-99810022D01*
X133729259Y-99984731D01*
X133834319Y-100141964D01*
X133968036Y-100275681D01*
X134125269Y-100380741D01*
X134299978Y-100453108D01*
X134485448Y-100490000D01*
X134674552Y-100490000D01*
X134860022Y-100453108D01*
X135034731Y-100380741D01*
X135191964Y-100275681D01*
X135325681Y-100141964D01*
X135430741Y-99984731D01*
X135503108Y-99810022D01*
X135540000Y-99624552D01*
X135540000Y-99435448D01*
X135503108Y-99249978D01*
X135496904Y-99235000D01*
X135787000Y-99235000D01*
X136005987Y-99188415D01*
X136211678Y-99100003D01*
X136396169Y-98973161D01*
X136552369Y-98812764D01*
X136674276Y-98624976D01*
X136754119Y-98401874D01*
X136627954Y-98227000D01*
X135237000Y-98227000D01*
X135237000Y-98247000D01*
X134983000Y-98247000D01*
X134983000Y-98227000D01*
X133592046Y-98227000D01*
X133465881Y-98401874D01*
X132324119Y-98401874D01*
X132197954Y-98227000D01*
X131057000Y-98227000D01*
X130803000Y-98227000D01*
X130783000Y-98227000D01*
X130783000Y-97973000D01*
X130803000Y-97973000D01*
X130803000Y-96965000D01*
X131057000Y-96965000D01*
X131057000Y-97973000D01*
X132197954Y-97973000D01*
X132324119Y-97798126D01*
X133465881Y-97798126D01*
X133592046Y-97973000D01*
X134983000Y-97973000D01*
X134983000Y-96965000D01*
X135237000Y-96965000D01*
X135237000Y-97973000D01*
X136627954Y-97973000D01*
X136754119Y-97798126D01*
X136674276Y-97575024D01*
X136552369Y-97387236D01*
X136396169Y-97226839D01*
X136211678Y-97099997D01*
X136005987Y-97011585D01*
X135787000Y-96965000D01*
X135237000Y-96965000D01*
X134983000Y-96965000D01*
X134433000Y-96965000D01*
X134214013Y-97011585D01*
X134008322Y-97099997D01*
X133823831Y-97226839D01*
X133667631Y-97387236D01*
X133545724Y-97575024D01*
X133465881Y-97798126D01*
X132324119Y-97798126D01*
X132244276Y-97575024D01*
X132122369Y-97387236D01*
X131966169Y-97226839D01*
X131781678Y-97099997D01*
X131575987Y-97011585D01*
X131357000Y-96965000D01*
X131057000Y-96965000D01*
X130803000Y-96965000D01*
X130503000Y-96965000D01*
X130284013Y-97011585D01*
X130089000Y-97095407D01*
X130089000Y-72798061D01*
X142790000Y-72798061D01*
X142790000Y-73001939D01*
X142829774Y-73201898D01*
X142907795Y-73390256D01*
X143021063Y-73559774D01*
X143165226Y-73703937D01*
X143334744Y-73817205D01*
X143523102Y-73895226D01*
X143723061Y-73935000D01*
X143926939Y-73935000D01*
X144126898Y-73895226D01*
X144315256Y-73817205D01*
X144484774Y-73703937D01*
X144628937Y-73559774D01*
X144742205Y-73390256D01*
X144820226Y-73201898D01*
X144860000Y-73001939D01*
X144860000Y-72798061D01*
X144820226Y-72598102D01*
X144742205Y-72409744D01*
X144628937Y-72240226D01*
X144484774Y-72096063D01*
X144315256Y-71982795D01*
X144126898Y-71904774D01*
X143926939Y-71865000D01*
X143723061Y-71865000D01*
X143523102Y-71904774D01*
X143334744Y-71982795D01*
X143165226Y-72096063D01*
X143021063Y-72240226D01*
X142907795Y-72409744D01*
X142829774Y-72598102D01*
X142790000Y-72798061D01*
X130089000Y-72798061D01*
X130089000Y-72443235D01*
X131125344Y-71406891D01*
X132208519Y-71406891D01*
X132305843Y-71681252D01*
X132454822Y-71931355D01*
X132649731Y-72147588D01*
X132883080Y-72321641D01*
X133145901Y-72446825D01*
X133293110Y-72491476D01*
X133523000Y-72370155D01*
X133523000Y-71177000D01*
X132329186Y-71177000D01*
X132208519Y-71406891D01*
X131125344Y-71406891D01*
X131868236Y-70664000D01*
X132218845Y-70664000D01*
X132208519Y-70693109D01*
X132329186Y-70923000D01*
X133523000Y-70923000D01*
X133523000Y-70903000D01*
X133777000Y-70903000D01*
X133777000Y-70923000D01*
X133797000Y-70923000D01*
X133797000Y-71177000D01*
X133777000Y-71177000D01*
X133777000Y-72370155D01*
X134006890Y-72491476D01*
X134154099Y-72446825D01*
X134416920Y-72321641D01*
X134650269Y-72147588D01*
X134845178Y-71931355D01*
X134914805Y-71814466D01*
X135036525Y-71996632D01*
X135243368Y-72203475D01*
X135486589Y-72365990D01*
X135756842Y-72477932D01*
X136043740Y-72535000D01*
X136336260Y-72535000D01*
X136623158Y-72477932D01*
X136893411Y-72365990D01*
X137136632Y-72203475D01*
X137343475Y-71996632D01*
X137460000Y-71822240D01*
X137576525Y-71996632D01*
X137783368Y-72203475D01*
X138026589Y-72365990D01*
X138296842Y-72477932D01*
X138583740Y-72535000D01*
X138876260Y-72535000D01*
X139163158Y-72477932D01*
X139433411Y-72365990D01*
X139676632Y-72203475D01*
X139883475Y-71996632D01*
X140045990Y-71753411D01*
X140157932Y-71483158D01*
X140215000Y-71196260D01*
X140215000Y-70903740D01*
X140157932Y-70616842D01*
X140045990Y-70346589D01*
X139883475Y-70103368D01*
X139751620Y-69971513D01*
X139824180Y-69949502D01*
X139934494Y-69890537D01*
X140031185Y-69811185D01*
X140110537Y-69714494D01*
X140169502Y-69604180D01*
X140205812Y-69484482D01*
X140218072Y-69360000D01*
X140218072Y-67660000D01*
X140205812Y-67535518D01*
X140169502Y-67415820D01*
X140110537Y-67305506D01*
X140031185Y-67208815D01*
X139934494Y-67129463D01*
X139824180Y-67070498D01*
X139704482Y-67034188D01*
X139610788Y-67024960D01*
X139606136Y-66977726D01*
X139555303Y-66810149D01*
X139472753Y-66655709D01*
X139361659Y-66520341D01*
X139336395Y-66499607D01*
X139315660Y-66474342D01*
X139180292Y-66363248D01*
X139025852Y-66280698D01*
X138858275Y-66229865D01*
X138727668Y-66217001D01*
X138727661Y-66217001D01*
X138684001Y-66212701D01*
X138640341Y-66217001D01*
X135334159Y-66217001D01*
X135163410Y-66046253D01*
X135135570Y-66012329D01*
X135000202Y-65901235D01*
X134845762Y-65818685D01*
X134751153Y-65789986D01*
X134678186Y-65767852D01*
X134661586Y-65766217D01*
X134547578Y-65754988D01*
X134547571Y-65754988D01*
X134503911Y-65750688D01*
X134460251Y-65754988D01*
X132839748Y-65754988D01*
X132796088Y-65750688D01*
X132752428Y-65754988D01*
X132752422Y-65754988D01*
X132655013Y-65764582D01*
X132621813Y-65767852D01*
X132520147Y-65798692D01*
X132454238Y-65818685D01*
X132299798Y-65901235D01*
X132164430Y-66012329D01*
X132136595Y-66046246D01*
X128085000Y-70097842D01*
X128085000Y-64860000D01*
X141157360Y-64860000D01*
X141132795Y-64896764D01*
G37*
X141132795Y-64896764D02*
X141054774Y-65085122D01*
X141015000Y-65285081D01*
X141015000Y-65488959D01*
X141054774Y-65688918D01*
X141132795Y-65877276D01*
X141246063Y-66046794D01*
X141390226Y-66190957D01*
X141559744Y-66304225D01*
X141748102Y-66382246D01*
X141948061Y-66422020D01*
X142151939Y-66422020D01*
X142351898Y-66382246D01*
X142540256Y-66304225D01*
X142582468Y-66276020D01*
X180114587Y-66276020D01*
X180850495Y-67011928D01*
X180360000Y-67011928D01*
X180235518Y-67024188D01*
X180115820Y-67060498D01*
X180005506Y-67119463D01*
X179908815Y-67198815D01*
X179829463Y-67295506D01*
X179770498Y-67405820D01*
X179748487Y-67478380D01*
X179616632Y-67346525D01*
X179373411Y-67184010D01*
X179103158Y-67072068D01*
X178816260Y-67015000D01*
X178523740Y-67015000D01*
X178380855Y-67043422D01*
X178114896Y-66777464D01*
X178089040Y-66745958D01*
X177963341Y-66642800D01*
X177819933Y-66566146D01*
X177664325Y-66518943D01*
X177543052Y-66506999D01*
X177543049Y-66506999D01*
X177502499Y-66503005D01*
X177461949Y-66506999D01*
X168608051Y-66506999D01*
X168567501Y-66503005D01*
X168526950Y-66506999D01*
X168526948Y-66506999D01*
X168405675Y-66518943D01*
X168274788Y-66558647D01*
X168250067Y-66566146D01*
X168106658Y-66642800D01*
X168012459Y-66720107D01*
X168012458Y-66720108D01*
X167980960Y-66745958D01*
X167955112Y-66777454D01*
X167710713Y-67021853D01*
X167676260Y-67015000D01*
X167383740Y-67015000D01*
X167096842Y-67072068D01*
X166826589Y-67184010D01*
X166583368Y-67346525D01*
X166376525Y-67553368D01*
X166260000Y-67727760D01*
X166143475Y-67553368D01*
X165936632Y-67346525D01*
X165693411Y-67184010D01*
X165423158Y-67072068D01*
X165136260Y-67015000D01*
X164843740Y-67015000D01*
X164556842Y-67072068D01*
X164286589Y-67184010D01*
X164043368Y-67346525D01*
X163836525Y-67553368D01*
X163674010Y-67796589D01*
X163562068Y-68066842D01*
X163505000Y-68353740D01*
X163505000Y-68537567D01*
X161737398Y-66769966D01*
X161711541Y-66738459D01*
X161585842Y-66635301D01*
X161442434Y-66558647D01*
X161286826Y-66511444D01*
X161165553Y-66499500D01*
X161165550Y-66499500D01*
X161125000Y-66495506D01*
X161084450Y-66499500D01*
X160145550Y-66499500D01*
X160105000Y-66495506D01*
X160064449Y-66499500D01*
X160064447Y-66499500D01*
X159943174Y-66511444D01*
X159802028Y-66554260D01*
X159787566Y-66558647D01*
X159644157Y-66635301D01*
X159619289Y-66655710D01*
X159518459Y-66738459D01*
X159492606Y-66769961D01*
X159250639Y-67011928D01*
X158080000Y-67011928D01*
X157955518Y-67024188D01*
X157835820Y-67060498D01*
X157725506Y-67119463D01*
X157628815Y-67198815D01*
X157549463Y-67295506D01*
X157490498Y-67405820D01*
X157468487Y-67478380D01*
X157336632Y-67346525D01*
X157093411Y-67184010D01*
X156823158Y-67072068D01*
X156536260Y-67015000D01*
X156243740Y-67015000D01*
X155956842Y-67072068D01*
X155686589Y-67184010D01*
X155443368Y-67346525D01*
X155236525Y-67553368D01*
X155120000Y-67727760D01*
X155003475Y-67553368D01*
X154796632Y-67346525D01*
X154553411Y-67184010D01*
X154283158Y-67072068D01*
X153996260Y-67015000D01*
X153703740Y-67015000D01*
X153416842Y-67072068D01*
X153146589Y-67184010D01*
X152903368Y-67346525D01*
X152696525Y-67553368D01*
X152534010Y-67796589D01*
X152422068Y-68066842D01*
X152365000Y-68353740D01*
X152365000Y-68646260D01*
X152422068Y-68933158D01*
X152534010Y-69203411D01*
X152696525Y-69446632D01*
X152903368Y-69653475D01*
X153077760Y-69770000D01*
X152903368Y-69886525D01*
X152696525Y-70093368D01*
X152534010Y-70336589D01*
X152422068Y-70606842D01*
X152365000Y-70893740D01*
X152365000Y-71186260D01*
X152422068Y-71473158D01*
X152534010Y-71743411D01*
X152696525Y-71986632D01*
X152903368Y-72193475D01*
X153146589Y-72355990D01*
X153416842Y-72467932D01*
X153703740Y-72525000D01*
X153996260Y-72525000D01*
X154283158Y-72467932D01*
X154553411Y-72355990D01*
X154796632Y-72193475D01*
X155003475Y-71986632D01*
X155120000Y-71812240D01*
X155236525Y-71986632D01*
X155443368Y-72193475D01*
X155686589Y-72355990D01*
X155956842Y-72467932D01*
X156243740Y-72525000D01*
X156536260Y-72525000D01*
X156823158Y-72467932D01*
X157093411Y-72355990D01*
X157336632Y-72193475D01*
X157543475Y-71986632D01*
X157660000Y-71812240D01*
X157776525Y-71986632D01*
X157983368Y-72193475D01*
X158226589Y-72355990D01*
X158496842Y-72467932D01*
X158783740Y-72525000D01*
X159076260Y-72525000D01*
X159363158Y-72467932D01*
X159633411Y-72355990D01*
X159876632Y-72193475D01*
X160083475Y-71986632D01*
X160245990Y-71743411D01*
X160357932Y-71473158D01*
X160415000Y-71186260D01*
X160415000Y-70893740D01*
X160357932Y-70606842D01*
X160245990Y-70336589D01*
X160083475Y-70093368D01*
X159951620Y-69961513D01*
X160024180Y-69939502D01*
X160134494Y-69880537D01*
X160231185Y-69801185D01*
X160310537Y-69704494D01*
X160369502Y-69594180D01*
X160405812Y-69474482D01*
X160418072Y-69350000D01*
X160418072Y-68179361D01*
X160446933Y-68150500D01*
X160783068Y-68150500D01*
X162449500Y-69816933D01*
X162449501Y-74809363D01*
X162383648Y-74932566D01*
X162383647Y-74932567D01*
X162336444Y-75088175D01*
X162324500Y-75209447D01*
X162320506Y-75250000D01*
X162324500Y-75290551D01*
X162324501Y-77841443D01*
X162320506Y-77882003D01*
X162336445Y-78043829D01*
X162383647Y-78199436D01*
X162460301Y-78342845D01*
X162521863Y-78417857D01*
X162563460Y-78468544D01*
X162594961Y-78494396D01*
X164338729Y-80238164D01*
X164130120Y-80349668D01*
X163911613Y-80528992D01*
X163732288Y-80747499D01*
X163661220Y-80880458D01*
X163590152Y-80747499D01*
X163410828Y-80528992D01*
X163192321Y-80349668D01*
X162943028Y-80216418D01*
X162672529Y-80134364D01*
X162391220Y-80106657D01*
X162109912Y-80134364D01*
X161839413Y-80216418D01*
X161590120Y-80349668D01*
X161371613Y-80528992D01*
X161192288Y-80747499D01*
X161121220Y-80880458D01*
X161050152Y-80747499D01*
X160870828Y-80528992D01*
X160652321Y-80349668D01*
X160403028Y-80216418D01*
X160132529Y-80134364D01*
X159851220Y-80106657D01*
X159569912Y-80134364D01*
X159299413Y-80216418D01*
X159050120Y-80349668D01*
X158831613Y-80528992D01*
X158652288Y-80747499D01*
X158581220Y-80880458D01*
X158510152Y-80747499D01*
X158330828Y-80528992D01*
X158112321Y-80349668D01*
X157863028Y-80216418D01*
X157592529Y-80134364D01*
X157311220Y-80106657D01*
X157029912Y-80134364D01*
X156759413Y-80216418D01*
X156510120Y-80349668D01*
X156291613Y-80528992D01*
X156112288Y-80747499D01*
X156041220Y-80880458D01*
X155970152Y-80747499D01*
X155790828Y-80528992D01*
X155572321Y-80349668D01*
X155323028Y-80216418D01*
X155052529Y-80134364D01*
X154771220Y-80106657D01*
X154489912Y-80134364D01*
X154219413Y-80216418D01*
X153970120Y-80349668D01*
X153751613Y-80528992D01*
X153572288Y-80747499D01*
X153501220Y-80880458D01*
X153430152Y-80747499D01*
X153250828Y-80528992D01*
X153032321Y-80349668D01*
X152783028Y-80216418D01*
X152512529Y-80134364D01*
X152231220Y-80106657D01*
X151949912Y-80134364D01*
X151679413Y-80216418D01*
X151430120Y-80349668D01*
X151211613Y-80528992D01*
X151032288Y-80747499D01*
X150961220Y-80880458D01*
X150890152Y-80747499D01*
X150710828Y-80528992D01*
X150492321Y-80349668D01*
X150243028Y-80216418D01*
X149972529Y-80134364D01*
X149691220Y-80106657D01*
X149409912Y-80134364D01*
X149139413Y-80216418D01*
X148890120Y-80349668D01*
X148671613Y-80528992D01*
X148492288Y-80747499D01*
X148421220Y-80880458D01*
X148350152Y-80747499D01*
X148170828Y-80528992D01*
X147952321Y-80349668D01*
X147703028Y-80216418D01*
X147432529Y-80134364D01*
X147151220Y-80106657D01*
X146869912Y-80134364D01*
X146599413Y-80216418D01*
X146350120Y-80349668D01*
X146131613Y-80528992D01*
X145952288Y-80747499D01*
X145881220Y-80880458D01*
X145810152Y-80747499D01*
X145630828Y-80528992D01*
X145412321Y-80349668D01*
X145163028Y-80216418D01*
X144892529Y-80134364D01*
X144611220Y-80106657D01*
X144329912Y-80134364D01*
X144059413Y-80216418D01*
X143810120Y-80349668D01*
X143591613Y-80528992D01*
X143412288Y-80747499D01*
X143341220Y-80880458D01*
X143270152Y-80747499D01*
X143090828Y-80528992D01*
X142872321Y-80349668D01*
X142623028Y-80216418D01*
X142352529Y-80134364D01*
X142071220Y-80106657D01*
X141789912Y-80134364D01*
X141519413Y-80216418D01*
X141270120Y-80349668D01*
X141051613Y-80528992D01*
X140872288Y-80747499D01*
X140801220Y-80880458D01*
X140730152Y-80747499D01*
X140550828Y-80528992D01*
X140332321Y-80349668D01*
X140083028Y-80216418D01*
X139812529Y-80134364D01*
X139531220Y-80106657D01*
X139249912Y-80134364D01*
X138979413Y-80216418D01*
X138730120Y-80349668D01*
X138511613Y-80528992D01*
X138332288Y-80747499D01*
X138199038Y-80996792D01*
X138116984Y-81267291D01*
X138096220Y-81478108D01*
X138096220Y-82419091D01*
X138116984Y-82629908D01*
X138199038Y-82900407D01*
X138332288Y-83149700D01*
X138511612Y-83368207D01*
X138730119Y-83547532D01*
X138979412Y-83680782D01*
X139249911Y-83762836D01*
X139531220Y-83790543D01*
X139812528Y-83762836D01*
X140083027Y-83680782D01*
X140332320Y-83547532D01*
X140550827Y-83368208D01*
X140730152Y-83149701D01*
X140801220Y-83016742D01*
X140872288Y-83149700D01*
X141051612Y-83368207D01*
X141270119Y-83547532D01*
X141519412Y-83680782D01*
X141789911Y-83762836D01*
X142071220Y-83790543D01*
X142352528Y-83762836D01*
X142623027Y-83680782D01*
X142872320Y-83547532D01*
X143090827Y-83368208D01*
X143270152Y-83149701D01*
X143341220Y-83016742D01*
X143412288Y-83149700D01*
X143591612Y-83368207D01*
X143810119Y-83547532D01*
X144059412Y-83680782D01*
X144329911Y-83762836D01*
X144611220Y-83790543D01*
X144892528Y-83762836D01*
X145163027Y-83680782D01*
X145412320Y-83547532D01*
X145630827Y-83368208D01*
X145810152Y-83149701D01*
X145881220Y-83016742D01*
X145952288Y-83149700D01*
X146131612Y-83368207D01*
X146350119Y-83547532D01*
X146599412Y-83680782D01*
X146869911Y-83762836D01*
X147151220Y-83790543D01*
X147432528Y-83762836D01*
X147703027Y-83680782D01*
X147952320Y-83547532D01*
X148170827Y-83368208D01*
X148350152Y-83149701D01*
X148421220Y-83016742D01*
X148492288Y-83149700D01*
X148671612Y-83368207D01*
X148890119Y-83547532D01*
X149139412Y-83680782D01*
X149409911Y-83762836D01*
X149691220Y-83790543D01*
X149972528Y-83762836D01*
X150243027Y-83680782D01*
X150492320Y-83547532D01*
X150710827Y-83368208D01*
X150890152Y-83149701D01*
X150961220Y-83016742D01*
X151032288Y-83149700D01*
X151211612Y-83368207D01*
X151430119Y-83547532D01*
X151679412Y-83680782D01*
X151949911Y-83762836D01*
X152231220Y-83790543D01*
X152512528Y-83762836D01*
X152783027Y-83680782D01*
X153032320Y-83547532D01*
X153250827Y-83368208D01*
X153430152Y-83149701D01*
X153501220Y-83016742D01*
X153572288Y-83149700D01*
X153751612Y-83368207D01*
X153945720Y-83527508D01*
X153945721Y-86588040D01*
X153941726Y-86628600D01*
X153957665Y-86790426D01*
X154004867Y-86946033D01*
X154081521Y-87089442D01*
X154137873Y-87158106D01*
X154184680Y-87215141D01*
X154216181Y-87240993D01*
X154708065Y-87732877D01*
X154489912Y-87754364D01*
X154219413Y-87836418D01*
X153970120Y-87969668D01*
X153751613Y-88148992D01*
X153572288Y-88367499D01*
X153501220Y-88500458D01*
X153430152Y-88367499D01*
X153250828Y-88148992D01*
X153032321Y-87969668D01*
X152783028Y-87836418D01*
X152512529Y-87754364D01*
X152231220Y-87726657D01*
X151949912Y-87754364D01*
X151679413Y-87836418D01*
X151430120Y-87969668D01*
X151211613Y-88148992D01*
X151032288Y-88367499D01*
X150961220Y-88500458D01*
X150890152Y-88367499D01*
X150710828Y-88148992D01*
X150492321Y-87969668D01*
X150243028Y-87836418D01*
X149972529Y-87754364D01*
X149691220Y-87726657D01*
X149409912Y-87754364D01*
X149139413Y-87836418D01*
X148890120Y-87969668D01*
X148671613Y-88148992D01*
X148492288Y-88367499D01*
X148421220Y-88500458D01*
X148350152Y-88367499D01*
X148170828Y-88148992D01*
X147952321Y-87969668D01*
X147703028Y-87836418D01*
X147432529Y-87754364D01*
X147151220Y-87726657D01*
X146869912Y-87754364D01*
X146599413Y-87836418D01*
X146350120Y-87969668D01*
X146131613Y-88148992D01*
X145952288Y-88367499D01*
X145881220Y-88500458D01*
X145810152Y-88367499D01*
X145630828Y-88148992D01*
X145412321Y-87969668D01*
X145163028Y-87836418D01*
X144892529Y-87754364D01*
X144611220Y-87726657D01*
X144329912Y-87754364D01*
X144059413Y-87836418D01*
X143810120Y-87969668D01*
X143591613Y-88148992D01*
X143412288Y-88367499D01*
X143341220Y-88500458D01*
X143270152Y-88367499D01*
X143090828Y-88148992D01*
X142872321Y-87969668D01*
X142623028Y-87836418D01*
X142352529Y-87754364D01*
X142071220Y-87726657D01*
X141789912Y-87754364D01*
X141519413Y-87836418D01*
X141270120Y-87969668D01*
X141051613Y-88148992D01*
X140872288Y-88367499D01*
X140801220Y-88500458D01*
X140730152Y-88367499D01*
X140550828Y-88148992D01*
X140332321Y-87969668D01*
X140083028Y-87836418D01*
X139812529Y-87754364D01*
X139531220Y-87726657D01*
X139249912Y-87754364D01*
X138979413Y-87836418D01*
X138730120Y-87969668D01*
X138511613Y-88148992D01*
X138332288Y-88367499D01*
X138199038Y-88616792D01*
X138116984Y-88887291D01*
X138096220Y-89098108D01*
X138096220Y-90039091D01*
X138116984Y-90249908D01*
X138199038Y-90520407D01*
X138332288Y-90769700D01*
X138511612Y-90988207D01*
X138730119Y-91167532D01*
X138979412Y-91300782D01*
X139249911Y-91382836D01*
X139531220Y-91410543D01*
X139812528Y-91382836D01*
X140083027Y-91300782D01*
X140332320Y-91167532D01*
X140550827Y-90988208D01*
X140730152Y-90769701D01*
X140801220Y-90636742D01*
X140872288Y-90769700D01*
X141051612Y-90988207D01*
X141270119Y-91167532D01*
X141519412Y-91300782D01*
X141789911Y-91382836D01*
X142071220Y-91410543D01*
X142352528Y-91382836D01*
X142623027Y-91300782D01*
X142872320Y-91167532D01*
X143090827Y-90988208D01*
X143270152Y-90769701D01*
X143341220Y-90636742D01*
X143412288Y-90769700D01*
X143591612Y-90988207D01*
X143810119Y-91167532D01*
X144059412Y-91300782D01*
X144329911Y-91382836D01*
X144611220Y-91410543D01*
X144892528Y-91382836D01*
X145163027Y-91300782D01*
X145412320Y-91167532D01*
X145630827Y-90988208D01*
X145810152Y-90769701D01*
X145881220Y-90636742D01*
X145952288Y-90769700D01*
X146131612Y-90988207D01*
X146350119Y-91167532D01*
X146599412Y-91300782D01*
X146869911Y-91382836D01*
X147151220Y-91410543D01*
X147432528Y-91382836D01*
X147703027Y-91300782D01*
X147952320Y-91167532D01*
X148170827Y-90988208D01*
X148350152Y-90769701D01*
X148421220Y-90636742D01*
X148492288Y-90769700D01*
X148671612Y-90988207D01*
X148890119Y-91167532D01*
X149139412Y-91300782D01*
X149409911Y-91382836D01*
X149691220Y-91410543D01*
X149941117Y-91385930D01*
X150259826Y-91704639D01*
X150285679Y-91736141D01*
X150349816Y-91788777D01*
X150411377Y-91839299D01*
X150461331Y-91865999D01*
X150554786Y-91915953D01*
X150710394Y-91963156D01*
X150831667Y-91975100D01*
X150831669Y-91975100D01*
X150872219Y-91979094D01*
X150912770Y-91975100D01*
X158629670Y-91975100D01*
X158670220Y-91979094D01*
X158710770Y-91975100D01*
X158710773Y-91975100D01*
X158832046Y-91963156D01*
X158987654Y-91915953D01*
X159131062Y-91839299D01*
X159256761Y-91736141D01*
X159282618Y-91704634D01*
X159601322Y-91385930D01*
X159851220Y-91410543D01*
X160101117Y-91385930D01*
X160419826Y-91704639D01*
X160445679Y-91736141D01*
X160509816Y-91788777D01*
X160571377Y-91839299D01*
X160621331Y-91865999D01*
X160714786Y-91915953D01*
X160870394Y-91963156D01*
X160991667Y-91975100D01*
X160991669Y-91975100D01*
X161032219Y-91979094D01*
X161072770Y-91975100D01*
X168789670Y-91975100D01*
X168830220Y-91979094D01*
X168870770Y-91975100D01*
X168870773Y-91975100D01*
X168992046Y-91963156D01*
X169147654Y-91915953D01*
X169291062Y-91839299D01*
X169416761Y-91736141D01*
X169442618Y-91704634D01*
X169761322Y-91385930D01*
X170011220Y-91410543D01*
X170292528Y-91382836D01*
X170563027Y-91300782D01*
X170812320Y-91167532D01*
X171030827Y-90988208D01*
X171210152Y-90769701D01*
X171281220Y-90636742D01*
X171352288Y-90769700D01*
X171531612Y-90988207D01*
X171750119Y-91167532D01*
X171999412Y-91300782D01*
X172269911Y-91382836D01*
X172551220Y-91410543D01*
X172832528Y-91382836D01*
X173103027Y-91300782D01*
X173352320Y-91167532D01*
X173570827Y-90988208D01*
X173750152Y-90769701D01*
X173883402Y-90520408D01*
X173965456Y-90249909D01*
X173986220Y-90039092D01*
X173986220Y-89098109D01*
X173965456Y-88887291D01*
X173883402Y-88616792D01*
X173750152Y-88367499D01*
X173570828Y-88148992D01*
X173380225Y-87992568D01*
X173380714Y-87987599D01*
X173376720Y-87947047D01*
X173364776Y-87825774D01*
X173317573Y-87670166D01*
X173240920Y-87526759D01*
X173240919Y-87526757D01*
X173163611Y-87432558D01*
X173137761Y-87401059D01*
X173106261Y-87375208D01*
X169719210Y-83988158D01*
X169719210Y-83759590D01*
X169729911Y-83762836D01*
X170011220Y-83790543D01*
X170292528Y-83762836D01*
X170563027Y-83680782D01*
X170812320Y-83547532D01*
X171030827Y-83368208D01*
X171123639Y-83255117D01*
X171125408Y-83273082D01*
X171161718Y-83392780D01*
X171220683Y-83503094D01*
X171300035Y-83599785D01*
X171396726Y-83679137D01*
X171507040Y-83738102D01*
X171626738Y-83774412D01*
X171751220Y-83786672D01*
X173351220Y-83786672D01*
X173475702Y-83774412D01*
X173595400Y-83738102D01*
X173705714Y-83679137D01*
X173802405Y-83599785D01*
X173881757Y-83503094D01*
X173940722Y-83392780D01*
X173977032Y-83273082D01*
X173989292Y-83148600D01*
X173989292Y-80748600D01*
X173977032Y-80624118D01*
X173940722Y-80504420D01*
X173881757Y-80394106D01*
X173802405Y-80297415D01*
X173705714Y-80218063D01*
X173595400Y-80159098D01*
X173475702Y-80122788D01*
X173351220Y-80110528D01*
X171751220Y-80110528D01*
X171626738Y-80122788D01*
X171507040Y-80159098D01*
X171396726Y-80218063D01*
X171300035Y-80297415D01*
X171220683Y-80394106D01*
X171161718Y-80504420D01*
X171125408Y-80624118D01*
X171123639Y-80642082D01*
X171030828Y-80528992D01*
X170812321Y-80349668D01*
X170563028Y-80216418D01*
X170292529Y-80134364D01*
X170011220Y-80106657D01*
X169729912Y-80134364D01*
X169719210Y-80137610D01*
X169719210Y-74984260D01*
X169723204Y-74943710D01*
X169709795Y-74807567D01*
X169707266Y-74781884D01*
X169660063Y-74626276D01*
X169624798Y-74560301D01*
X169583409Y-74482867D01*
X169506102Y-74388668D01*
X169506099Y-74388665D01*
X169480251Y-74357169D01*
X169448756Y-74331322D01*
X167642433Y-72525000D01*
X167676260Y-72525000D01*
X167819145Y-72496578D01*
X167824957Y-72502390D01*
X167824962Y-72502394D01*
X168085107Y-72762540D01*
X168110960Y-72794042D01*
X168236659Y-72897200D01*
X168380067Y-72973854D01*
X168535675Y-73021057D01*
X168656948Y-73033001D01*
X168656950Y-73033001D01*
X168697501Y-73036995D01*
X168738051Y-73033001D01*
X180076949Y-73033001D01*
X180117499Y-73036995D01*
X180158049Y-73033001D01*
X180158052Y-73033001D01*
X180279325Y-73021057D01*
X180434933Y-72973854D01*
X180578341Y-72897200D01*
X180704040Y-72794042D01*
X180729897Y-72762536D01*
X180983411Y-72509021D01*
X181063740Y-72525000D01*
X181356260Y-72525000D01*
X181643158Y-72467932D01*
X181913411Y-72355990D01*
X182156632Y-72193475D01*
X182363475Y-71986632D01*
X182525990Y-71743411D01*
X182637932Y-71473158D01*
X182695000Y-71186260D01*
X182695000Y-70893740D01*
X182637932Y-70606842D01*
X182525990Y-70336589D01*
X182363475Y-70093368D01*
X182231620Y-69961513D01*
X182304180Y-69939502D01*
X182414494Y-69880537D01*
X182511185Y-69801185D01*
X182590537Y-69704494D01*
X182649502Y-69594180D01*
X182685812Y-69474482D01*
X182698072Y-69350000D01*
X182698072Y-68859506D01*
X183129991Y-69291425D01*
X183129990Y-109162775D01*
X180551807Y-111740958D01*
X180371033Y-111705000D01*
X180048967Y-111705000D01*
X179733088Y-111767832D01*
X179435537Y-111891082D01*
X179167748Y-112070013D01*
X178940013Y-112297748D01*
X178837613Y-112451000D01*
X175082387Y-112451000D01*
X174979987Y-112297748D01*
X174752252Y-112070013D01*
X174535500Y-111925184D01*
X174535500Y-104800550D01*
X174539494Y-104760000D01*
X174533391Y-104698036D01*
X174523556Y-104598174D01*
X174476353Y-104442566D01*
X174399699Y-104299157D01*
X174322392Y-104204958D01*
X174322389Y-104204955D01*
X174296541Y-104173459D01*
X174265046Y-104147612D01*
X171077429Y-100959996D01*
X171045226Y-100798102D01*
X170967205Y-100609744D01*
X170853937Y-100440226D01*
X170709774Y-100296063D01*
X170540256Y-100182795D01*
X170351898Y-100104774D01*
X170151939Y-100065000D01*
X169948061Y-100065000D01*
X169748102Y-100104774D01*
X169559744Y-100182795D01*
X169390226Y-100296063D01*
X169246063Y-100440226D01*
X169132795Y-100609744D01*
X169054774Y-100798102D01*
X169015000Y-100998061D01*
X169015000Y-101201939D01*
X169054774Y-101401898D01*
X169132795Y-101590256D01*
X169246063Y-101759774D01*
X169390226Y-101903937D01*
X169559744Y-102017205D01*
X169748102Y-102095226D01*
X169909996Y-102127429D01*
X172884500Y-105101934D01*
X172884501Y-111925183D01*
X172667748Y-112070013D01*
X172440013Y-112297748D01*
X172261082Y-112565537D01*
X172137832Y-112863088D01*
X172075000Y-113178967D01*
X172075000Y-113501033D01*
X172137832Y-113816912D01*
X172261082Y-114114463D01*
X172440013Y-114382252D01*
X172667748Y-114609987D01*
X172935537Y-114788918D01*
X173233088Y-114912168D01*
X173548967Y-114975000D01*
X173871033Y-114975000D01*
X174186912Y-114912168D01*
X174484463Y-114788918D01*
X174752252Y-114609987D01*
X174979987Y-114382252D01*
X175082387Y-114229000D01*
X178837613Y-114229000D01*
X178940013Y-114382252D01*
X179167748Y-114609987D01*
X179435537Y-114788918D01*
X179733088Y-114912168D01*
X180048967Y-114975000D01*
X180371033Y-114975000D01*
X180686912Y-114912168D01*
X180984463Y-114788918D01*
X181252252Y-114609987D01*
X181479987Y-114382252D01*
X181658918Y-114114463D01*
X181782168Y-113816912D01*
X181845000Y-113501033D01*
X181845000Y-113178967D01*
X181809042Y-112998193D01*
X183765000Y-111042235D01*
X183765000Y-119540000D01*
X173267235Y-119540000D01*
X173368193Y-119439042D01*
X173548967Y-119475000D01*
X173871033Y-119475000D01*
X174186912Y-119412168D01*
X174484463Y-119288918D01*
X174752252Y-119109987D01*
X174979987Y-118882252D01*
X175082387Y-118729000D01*
X178837613Y-118729000D01*
X178940013Y-118882252D01*
X179167748Y-119109987D01*
X179435537Y-119288918D01*
X179733088Y-119412168D01*
X180048967Y-119475000D01*
X180371033Y-119475000D01*
X180686912Y-119412168D01*
X180984463Y-119288918D01*
X181252252Y-119109987D01*
X181479987Y-118882252D01*
X181658918Y-118614463D01*
X181782168Y-118316912D01*
X181845000Y-118001033D01*
X181845000Y-117678967D01*
X181782168Y-117363088D01*
X181658918Y-117065537D01*
X181479987Y-116797748D01*
X181252252Y-116570013D01*
X180984463Y-116391082D01*
X180686912Y-116267832D01*
X180371033Y-116205000D01*
X180048967Y-116205000D01*
X179733088Y-116267832D01*
X179435537Y-116391082D01*
X179167748Y-116570013D01*
X178940013Y-116797748D01*
X178837613Y-116951000D01*
X175082387Y-116951000D01*
X174979987Y-116797748D01*
X174752252Y-116570013D01*
X174484463Y-116391082D01*
X174186912Y-116267832D01*
X173871033Y-116205000D01*
X173548967Y-116205000D01*
X173233088Y-116267832D01*
X172935537Y-116391082D01*
X172667748Y-116570013D01*
X172440013Y-116797748D01*
X172261082Y-117065537D01*
X172137832Y-117363088D01*
X172075000Y-117678967D01*
X172075000Y-118001033D01*
X172110958Y-118181807D01*
X171881765Y-118411000D01*
X155343236Y-118411000D01*
X154174499Y-117242264D01*
X154146659Y-117208341D01*
X154011291Y-117097247D01*
X153856851Y-117014697D01*
X153806727Y-116999492D01*
X153589000Y-116781765D01*
X153589000Y-112893235D01*
X154727106Y-111755130D01*
X154776898Y-111745226D01*
X154965256Y-111667205D01*
X155134774Y-111553937D01*
X155278937Y-111409774D01*
X155392205Y-111240256D01*
X155470226Y-111051898D01*
X155510000Y-110851939D01*
X155510000Y-110648061D01*
X155470226Y-110448102D01*
X155392205Y-110259744D01*
X155278937Y-110090226D01*
X155172973Y-109984262D01*
X155197743Y-109959493D01*
X155231660Y-109931658D01*
X155279091Y-109873864D01*
X155302951Y-109844790D01*
X155490256Y-109767205D01*
X155659774Y-109653937D01*
X155803937Y-109509774D01*
X155917205Y-109340256D01*
X155995226Y-109151898D01*
X156035000Y-108951939D01*
X156035000Y-108748061D01*
X155995226Y-108548102D01*
X155917205Y-108359744D01*
X155803937Y-108190226D01*
X155659774Y-108046063D01*
X155490256Y-107932795D01*
X155301898Y-107854774D01*
X155101939Y-107815000D01*
X154898061Y-107815000D01*
X154725589Y-107849307D01*
X154745226Y-107801898D01*
X154785000Y-107601939D01*
X154785000Y-107398061D01*
X154745226Y-107198102D01*
X154667205Y-107009744D01*
X154553937Y-106840226D01*
X154409774Y-106696063D01*
X154240256Y-106582795D01*
X154051898Y-106504774D01*
X153851939Y-106465000D01*
X153648061Y-106465000D01*
X153448102Y-106504774D01*
X153259744Y-106582795D01*
X153090226Y-106696063D01*
X152946063Y-106840226D01*
X152832795Y-107009744D01*
X152754774Y-107198102D01*
X152744870Y-107247894D01*
X146921754Y-113071011D01*
X136201287Y-113071011D01*
X131005275Y-107875000D01*
X131357000Y-107875000D01*
X131575987Y-107828415D01*
X131781678Y-107740003D01*
X131966169Y-107613161D01*
X132122369Y-107452764D01*
X132244276Y-107264976D01*
X132324119Y-107041874D01*
X133465881Y-107041874D01*
X133545724Y-107264976D01*
X133667631Y-107452764D01*
X133823831Y-107613161D01*
X134008322Y-107740003D01*
X134214013Y-107828415D01*
X134433000Y-107875000D01*
X134983000Y-107875000D01*
X134983000Y-106867000D01*
X135237000Y-106867000D01*
X135237000Y-107875000D01*
X135787000Y-107875000D01*
X136005987Y-107828415D01*
X136211678Y-107740003D01*
X136396169Y-107613161D01*
X136552369Y-107452764D01*
X136674276Y-107264976D01*
X136754119Y-107041874D01*
X136627954Y-106867000D01*
X135237000Y-106867000D01*
X134983000Y-106867000D01*
X133592046Y-106867000D01*
X133465881Y-107041874D01*
X132324119Y-107041874D01*
X132197954Y-106867000D01*
X131057000Y-106867000D01*
X131057000Y-106887000D01*
X130803000Y-106887000D01*
X130803000Y-106867000D01*
X130783000Y-106867000D01*
X130783000Y-106613000D01*
X130803000Y-106613000D01*
X130803000Y-105605000D01*
X131057000Y-105605000D01*
X131057000Y-106613000D01*
X132197954Y-106613000D01*
X132324119Y-106438126D01*
X133465881Y-106438126D01*
X133592046Y-106613000D01*
X134983000Y-106613000D01*
X134983000Y-106593000D01*
X135237000Y-106593000D01*
X135237000Y-106613000D01*
X136627954Y-106613000D01*
X136754119Y-106438126D01*
X136674276Y-106215024D01*
X136552369Y-106027236D01*
X136396169Y-105866839D01*
X136211678Y-105739997D01*
X136005987Y-105651585D01*
X135787000Y-105605000D01*
X135496904Y-105605000D01*
X135503108Y-105590022D01*
X135540000Y-105404552D01*
X135540000Y-105215448D01*
X135503108Y-105029978D01*
X135430741Y-104855269D01*
X135325681Y-104698036D01*
X135191964Y-104564319D01*
X135034731Y-104459259D01*
X134860022Y-104386892D01*
X134674552Y-104350000D01*
X134485448Y-104350000D01*
X134299978Y-104386892D01*
X134125269Y-104459259D01*
X133968036Y-104564319D01*
X133834319Y-104698036D01*
X133729259Y-104855269D01*
X133656892Y-105029978D01*
X133620000Y-105215448D01*
X133620000Y-105404552D01*
X133656892Y-105590022D01*
X133729259Y-105764731D01*
X133808206Y-105882884D01*
X133667631Y-106027236D01*
X133545724Y-106215024D01*
X133465881Y-106438126D01*
X132324119Y-106438126D01*
X132244276Y-106215024D01*
X132122369Y-106027236D01*
X131966169Y-105866839D01*
X131781678Y-105739997D01*
X131575987Y-105651585D01*
X131357000Y-105605000D01*
X131057000Y-105605000D01*
X130803000Y-105605000D01*
X130503000Y-105605000D01*
X130284013Y-105651585D01*
X130089000Y-105735407D01*
X130089000Y-99104593D01*
X130284013Y-99188415D01*
X130503000Y-99235000D01*
X130803000Y-99235000D01*
X130803000Y-98227000D01*
X131057000Y-98227000D01*
X131057000Y-99235000D01*
X131357000Y-99235000D01*
X131575987Y-99188415D01*
X131781678Y-99100003D01*
X131966169Y-98973161D01*
X132122369Y-98812764D01*
X132244276Y-98624976D01*
X132324119Y-98401874D01*
X133465881Y-98401874D01*
X133545724Y-98624976D01*
X133667631Y-98812764D01*
X133808206Y-98957116D01*
X133729259Y-99075269D01*
X133656892Y-99249978D01*
X133620000Y-99435448D01*
X133620000Y-99624552D01*
X133656892Y-99810022D01*
X133729259Y-99984731D01*
X133834319Y-100141964D01*
X133968036Y-100275681D01*
X134125269Y-100380741D01*
X134299978Y-100453108D01*
X134485448Y-100490000D01*
X134674552Y-100490000D01*
X134860022Y-100453108D01*
X135034731Y-100380741D01*
X135191964Y-100275681D01*
X135325681Y-100141964D01*
X135430741Y-99984731D01*
X135503108Y-99810022D01*
X135540000Y-99624552D01*
X135540000Y-99435448D01*
X135503108Y-99249978D01*
X135496904Y-99235000D01*
X135787000Y-99235000D01*
X136005987Y-99188415D01*
X136211678Y-99100003D01*
X136396169Y-98973161D01*
X136552369Y-98812764D01*
X136674276Y-98624976D01*
X136754119Y-98401874D01*
X136627954Y-98227000D01*
X135237000Y-98227000D01*
X135237000Y-98247000D01*
X134983000Y-98247000D01*
X134983000Y-98227000D01*
X133592046Y-98227000D01*
X133465881Y-98401874D01*
X132324119Y-98401874D01*
X132197954Y-98227000D01*
X131057000Y-98227000D01*
X130803000Y-98227000D01*
X130783000Y-98227000D01*
X130783000Y-97973000D01*
X130803000Y-97973000D01*
X130803000Y-96965000D01*
X131057000Y-96965000D01*
X131057000Y-97973000D01*
X132197954Y-97973000D01*
X132324119Y-97798126D01*
X133465881Y-97798126D01*
X133592046Y-97973000D01*
X134983000Y-97973000D01*
X134983000Y-96965000D01*
X135237000Y-96965000D01*
X135237000Y-97973000D01*
X136627954Y-97973000D01*
X136754119Y-97798126D01*
X136674276Y-97575024D01*
X136552369Y-97387236D01*
X136396169Y-97226839D01*
X136211678Y-97099997D01*
X136005987Y-97011585D01*
X135787000Y-96965000D01*
X135237000Y-96965000D01*
X134983000Y-96965000D01*
X134433000Y-96965000D01*
X134214013Y-97011585D01*
X134008322Y-97099997D01*
X133823831Y-97226839D01*
X133667631Y-97387236D01*
X133545724Y-97575024D01*
X133465881Y-97798126D01*
X132324119Y-97798126D01*
X132244276Y-97575024D01*
X132122369Y-97387236D01*
X131966169Y-97226839D01*
X131781678Y-97099997D01*
X131575987Y-97011585D01*
X131357000Y-96965000D01*
X131057000Y-96965000D01*
X130803000Y-96965000D01*
X130503000Y-96965000D01*
X130284013Y-97011585D01*
X130089000Y-97095407D01*
X130089000Y-72798061D01*
X142790000Y-72798061D01*
X142790000Y-73001939D01*
X142829774Y-73201898D01*
X142907795Y-73390256D01*
X143021063Y-73559774D01*
X143165226Y-73703937D01*
X143334744Y-73817205D01*
X143523102Y-73895226D01*
X143723061Y-73935000D01*
X143926939Y-73935000D01*
X144126898Y-73895226D01*
X144315256Y-73817205D01*
X144484774Y-73703937D01*
X144628937Y-73559774D01*
X144742205Y-73390256D01*
X144820226Y-73201898D01*
X144860000Y-73001939D01*
X144860000Y-72798061D01*
X144820226Y-72598102D01*
X144742205Y-72409744D01*
X144628937Y-72240226D01*
X144484774Y-72096063D01*
X144315256Y-71982795D01*
X144126898Y-71904774D01*
X143926939Y-71865000D01*
X143723061Y-71865000D01*
X143523102Y-71904774D01*
X143334744Y-71982795D01*
X143165226Y-72096063D01*
X143021063Y-72240226D01*
X142907795Y-72409744D01*
X142829774Y-72598102D01*
X142790000Y-72798061D01*
X130089000Y-72798061D01*
X130089000Y-72443235D01*
X131125344Y-71406891D01*
X132208519Y-71406891D01*
X132305843Y-71681252D01*
X132454822Y-71931355D01*
X132649731Y-72147588D01*
X132883080Y-72321641D01*
X133145901Y-72446825D01*
X133293110Y-72491476D01*
X133523000Y-72370155D01*
X133523000Y-71177000D01*
X132329186Y-71177000D01*
X132208519Y-71406891D01*
X131125344Y-71406891D01*
X131868236Y-70664000D01*
X132218845Y-70664000D01*
X132208519Y-70693109D01*
X132329186Y-70923000D01*
X133523000Y-70923000D01*
X133523000Y-70903000D01*
X133777000Y-70903000D01*
X133777000Y-70923000D01*
X133797000Y-70923000D01*
X133797000Y-71177000D01*
X133777000Y-71177000D01*
X133777000Y-72370155D01*
X134006890Y-72491476D01*
X134154099Y-72446825D01*
X134416920Y-72321641D01*
X134650269Y-72147588D01*
X134845178Y-71931355D01*
X134914805Y-71814466D01*
X135036525Y-71996632D01*
X135243368Y-72203475D01*
X135486589Y-72365990D01*
X135756842Y-72477932D01*
X136043740Y-72535000D01*
X136336260Y-72535000D01*
X136623158Y-72477932D01*
X136893411Y-72365990D01*
X137136632Y-72203475D01*
X137343475Y-71996632D01*
X137460000Y-71822240D01*
X137576525Y-71996632D01*
X137783368Y-72203475D01*
X138026589Y-72365990D01*
X138296842Y-72477932D01*
X138583740Y-72535000D01*
X138876260Y-72535000D01*
X139163158Y-72477932D01*
X139433411Y-72365990D01*
X139676632Y-72203475D01*
X139883475Y-71996632D01*
X140045990Y-71753411D01*
X140157932Y-71483158D01*
X140215000Y-71196260D01*
X140215000Y-70903740D01*
X140157932Y-70616842D01*
X140045990Y-70346589D01*
X139883475Y-70103368D01*
X139751620Y-69971513D01*
X139824180Y-69949502D01*
X139934494Y-69890537D01*
X140031185Y-69811185D01*
X140110537Y-69714494D01*
X140169502Y-69604180D01*
X140205812Y-69484482D01*
X140218072Y-69360000D01*
X140218072Y-67660000D01*
X140205812Y-67535518D01*
X140169502Y-67415820D01*
X140110537Y-67305506D01*
X140031185Y-67208815D01*
X139934494Y-67129463D01*
X139824180Y-67070498D01*
X139704482Y-67034188D01*
X139610788Y-67024960D01*
X139606136Y-66977726D01*
X139555303Y-66810149D01*
X139472753Y-66655709D01*
X139361659Y-66520341D01*
X139336395Y-66499607D01*
X139315660Y-66474342D01*
X139180292Y-66363248D01*
X139025852Y-66280698D01*
X138858275Y-66229865D01*
X138727668Y-66217001D01*
X138727661Y-66217001D01*
X138684001Y-66212701D01*
X138640341Y-66217001D01*
X135334159Y-66217001D01*
X135163410Y-66046253D01*
X135135570Y-66012329D01*
X135000202Y-65901235D01*
X134845762Y-65818685D01*
X134751153Y-65789986D01*
X134678186Y-65767852D01*
X134661586Y-65766217D01*
X134547578Y-65754988D01*
X134547571Y-65754988D01*
X134503911Y-65750688D01*
X134460251Y-65754988D01*
X132839748Y-65754988D01*
X132796088Y-65750688D01*
X132752428Y-65754988D01*
X132752422Y-65754988D01*
X132655013Y-65764582D01*
X132621813Y-65767852D01*
X132520147Y-65798692D01*
X132454238Y-65818685D01*
X132299798Y-65901235D01*
X132164430Y-66012329D01*
X132136595Y-66046246D01*
X128085000Y-70097842D01*
X128085000Y-64860000D01*
X141157360Y-64860000D01*
X141132795Y-64896764D01*
M02*
