M48
; DRILL file {KiCad 5.1.5+dfsg1-2build2} date Thu 10 Sep 2020 12:50:36 PM EDT
; FORMAT={-:-/ absolute / inch / decimal}
; #@! TF.CreationDate,2020-09-10T12:50:36-04:00
; #@! TF.GenerationSoftware,Kicad,Pcbnew,5.1.5+dfsg1-2build2
; #@! TF.FileFunction,Plated,1,2,PTH
FMAT,2
INCH
T1C0.0157
T2C0.0315
T3C0.0394
T4C0.0433
T5C0.0512
%
G90
G05
T1
X5.1713Y-3.815
X5.4006Y-3.814
X5.6772Y-3.3671
X5.75Y-2.7785
X5.7805Y-4.5197
X5.8529Y-4.4198
X5.9094Y-4.0561
X5.9163Y-3.3573
X5.9173Y-4.2244
X5.9252Y-4.1319
X6.0226Y-3.3228
X6.1385Y-4.4486
X6.1781Y-4.0167
X6.2018Y-3.747
X6.2274Y-4.5935
X6.2549Y-4.4193
X6.2569Y-3.8819
X6.2628Y-2.622
X6.2707Y-4.2185
X6.3211Y-2.8162
X6.3286Y-4.4369
X6.3691Y-3.7598
X6.4086Y-3.8801
X6.4144Y-4.5984
X6.4459Y-3.714
X6.4774Y-2.622
X6.5157Y-4.6004
X6.561Y-4.253
X6.6555Y-3.753
X6.69Y-4.1378
X6.7028Y-4.0305
X6.7264Y-3.7657
X6.7894Y-2.8337
X6.8484Y-3.878
X6.8543Y-3.9596
X6.8797Y-3.5933
X6.9144Y-3.8809
X6.9144Y-3.9606
T2
X5.9419Y-2.8463
X6.1341Y-2.8463
T3
X5.4441Y-2.6869
X5.4441Y-2.7869
X5.4441Y-2.8869
X5.5441Y-2.6869
X5.5441Y-2.7869
X5.5441Y-2.8869
X6.9441Y-2.6869
X6.9441Y-2.7869
X6.9441Y-2.8869
X7.0441Y-2.6869
X7.0441Y-2.7869
X7.0441Y-2.8869
X5.1741Y-2.6869
X5.1741Y-2.7869
X5.1741Y-2.8869
X5.2741Y-2.6869
X5.2741Y-2.7869
X5.2741Y-2.8869
X5.6241Y-3.8173
X5.6241Y-3.9173
X5.6241Y-4.0173
X5.6241Y-4.1173
X5.6241Y-4.2173
X5.6241Y-4.3173
X6.5941Y-2.6869
X6.5941Y-2.7869
X6.5941Y-2.8869
X6.6941Y-2.6869
X6.6941Y-2.7869
X6.6941Y-2.8869
T4
X6.9719Y-4.3573
X6.9719Y-4.6132
X7.1491Y-4.3573
X7.1491Y-4.6132
T5
X6.3934Y-3.2263
T2
G00X5.4934Y-3.2165
M15
G01X5.4934Y-3.2362
M16
G05
G00X5.4934Y-3.5165
M15
G01X5.4934Y-3.5362
M16
G05
G00X5.5934Y-3.2165
M15
G01X5.5934Y-3.2362
M16
G05
G00X5.5934Y-3.5165
M15
G01X5.5934Y-3.5362
M16
G05
G00X5.6934Y-3.2165
M15
G01X5.6934Y-3.2362
M16
G05
G00X5.6934Y-3.5165
M15
G01X5.6934Y-3.5362
M16
G05
G00X5.7934Y-3.2165
M15
G01X5.7934Y-3.2362
M16
G05
G00X5.7934Y-3.5165
M15
G01X5.7934Y-3.5362
M16
G05
G00X5.8934Y-3.2165
M15
G01X5.8934Y-3.2362
M16
G05
G00X5.8934Y-3.5165
M15
G01X5.8934Y-3.5362
M16
G05
G00X5.9934Y-3.2165
M15
G01X5.9934Y-3.2362
M16
G05
G00X5.9934Y-3.5165
M15
G01X5.9934Y-3.5362
M16
G05
G00X6.0934Y-3.2165
M15
G01X6.0934Y-3.2362
M16
G05
G00X6.0934Y-3.5165
M15
G01X6.0934Y-3.5362
M16
G05
G00X6.1934Y-3.2165
M15
G01X6.1934Y-3.2362
M16
G05
G00X6.1934Y-3.5165
M15
G01X6.1934Y-3.5362
M16
G05
G00X6.2934Y-3.2165
M15
G01X6.2934Y-3.2362
M16
G05
G00X6.2934Y-3.5165
M15
G01X6.2934Y-3.5362
M16
G05
G00X6.3934Y-3.5165
M15
G01X6.3934Y-3.5362
M16
G05
G00X6.4934Y-3.2165
M15
G01X6.4934Y-3.2362
M16
G05
G00X6.4934Y-3.5165
M15
G01X6.4934Y-3.5362
M16
G05
G00X6.5934Y-3.2165
M15
G01X6.5934Y-3.2362
M16
G05
G00X6.5934Y-3.5165
M15
G01X6.5934Y-3.5362
M16
G05
G00X6.6934Y-3.2165
M15
G01X6.6934Y-3.2362
M16
G05
G00X6.6934Y-3.5165
M15
G01X6.6934Y-3.5362
M16
G05
G00X6.7934Y-3.2165
M15
G01X6.7934Y-3.2362
M16
G05
G00X6.7934Y-3.5165
M15
G01X6.7934Y-3.5362
M16
G05
T0
M30
