G04 #@! TF.GenerationSoftware,KiCad,Pcbnew,5.1.5+dfsg1-2build2*
G04 #@! TF.CreationDate,2020-09-08T01:32:30-04:00*
G04 #@! TF.ProjectId,multi-avr,6d756c74-692d-4617-9672-2e6b69636164,rev?*
G04 #@! TF.SameCoordinates,Original*
G04 #@! TF.FileFunction,Legend,Bot*
G04 #@! TF.FilePolarity,Positive*
%FSLAX46Y46*%
G04 Gerber Fmt 4.6, Leading zero omitted, Abs format (unit mm)*
G04 Created by KiCad (PCBNEW 5.1.5+dfsg1-2build2) date 2020-09-08 01:32:30*
%MOMM*%
%LPD*%
G04 APERTURE LIST*
%ADD10C,0.300000*%
G04 APERTURE END LIST*
D10*
X135607142Y-37250000D02*
X134892857Y-37250000D01*
X135750000Y-37678571D02*
X135250000Y-36178571D01*
X134750000Y-37678571D01*
X134464285Y-36178571D02*
X133607142Y-36178571D01*
X134035714Y-37678571D02*
X134035714Y-36178571D01*
X133107142Y-37678571D02*
X133107142Y-36178571D01*
X132607142Y-37250000D01*
X132107142Y-36178571D01*
X132107142Y-37678571D01*
X131392857Y-36892857D02*
X130892857Y-36892857D01*
X130678571Y-37678571D02*
X131392857Y-37678571D01*
X131392857Y-36178571D01*
X130678571Y-36178571D01*
X129321428Y-37678571D02*
X130035714Y-37678571D01*
X130035714Y-36178571D01*
X127464285Y-36821428D02*
X127607142Y-36750000D01*
X127678571Y-36678571D01*
X127750000Y-36535714D01*
X127750000Y-36464285D01*
X127678571Y-36321428D01*
X127607142Y-36250000D01*
X127464285Y-36178571D01*
X127178571Y-36178571D01*
X127035714Y-36250000D01*
X126964285Y-36321428D01*
X126892857Y-36464285D01*
X126892857Y-36535714D01*
X126964285Y-36678571D01*
X127035714Y-36750000D01*
X127178571Y-36821428D01*
X127464285Y-36821428D01*
X127607142Y-36892857D01*
X127678571Y-36964285D01*
X127750000Y-37107142D01*
X127750000Y-37392857D01*
X127678571Y-37535714D01*
X127607142Y-37607142D01*
X127464285Y-37678571D01*
X127178571Y-37678571D01*
X127035714Y-37607142D01*
X126964285Y-37535714D01*
X126892857Y-37392857D01*
X126892857Y-37107142D01*
X126964285Y-36964285D01*
X127035714Y-36892857D01*
X127178571Y-36821428D01*
X125178571Y-36107142D02*
X126464285Y-38035714D01*
X123892857Y-37678571D02*
X124750000Y-37678571D01*
X124321428Y-37678571D02*
X124321428Y-36178571D01*
X124464285Y-36392857D01*
X124607142Y-36535714D01*
X124750000Y-36607142D01*
X122607142Y-36678571D02*
X122607142Y-37678571D01*
X122964285Y-36107142D02*
X123321428Y-37178571D01*
X122392857Y-37178571D01*
X120750000Y-36107142D02*
X122035714Y-38035714D01*
X120321428Y-36321428D02*
X120250000Y-36250000D01*
X120107142Y-36178571D01*
X119750000Y-36178571D01*
X119607142Y-36250000D01*
X119535714Y-36321428D01*
X119464285Y-36464285D01*
X119464285Y-36607142D01*
X119535714Y-36821428D01*
X120392857Y-37678571D01*
X119464285Y-37678571D01*
X118535714Y-36178571D02*
X118392857Y-36178571D01*
X118250000Y-36250000D01*
X118178571Y-36321428D01*
X118107142Y-36464285D01*
X118035714Y-36750000D01*
X118035714Y-37107142D01*
X118107142Y-37392857D01*
X118178571Y-37535714D01*
X118250000Y-37607142D01*
X118392857Y-37678571D01*
X118535714Y-37678571D01*
X118678571Y-37607142D01*
X118750000Y-37535714D01*
X118821428Y-37392857D01*
X118892857Y-37107142D01*
X118892857Y-36750000D01*
X118821428Y-36464285D01*
X118750000Y-36321428D01*
X118678571Y-36250000D01*
X118535714Y-36178571D01*
X116321428Y-36107142D02*
X117607142Y-38035714D01*
X115892857Y-36321428D02*
X115821428Y-36250000D01*
X115678571Y-36178571D01*
X115321428Y-36178571D01*
X115178571Y-36250000D01*
X115107142Y-36321428D01*
X115035714Y-36464285D01*
X115035714Y-36607142D01*
X115107142Y-36821428D01*
X115964285Y-37678571D01*
X115035714Y-37678571D01*
X114178571Y-36821428D02*
X114321428Y-36750000D01*
X114392857Y-36678571D01*
X114464285Y-36535714D01*
X114464285Y-36464285D01*
X114392857Y-36321428D01*
X114321428Y-36250000D01*
X114178571Y-36178571D01*
X113892857Y-36178571D01*
X113750000Y-36250000D01*
X113678571Y-36321428D01*
X113607142Y-36464285D01*
X113607142Y-36535714D01*
X113678571Y-36678571D01*
X113750000Y-36750000D01*
X113892857Y-36821428D01*
X114178571Y-36821428D01*
X114321428Y-36892857D01*
X114392857Y-36964285D01*
X114464285Y-37107142D01*
X114464285Y-37392857D01*
X114392857Y-37535714D01*
X114321428Y-37607142D01*
X114178571Y-37678571D01*
X113892857Y-37678571D01*
X113750000Y-37607142D01*
X113678571Y-37535714D01*
X113607142Y-37392857D01*
X113607142Y-37107142D01*
X113678571Y-36964285D01*
X113750000Y-36892857D01*
X113892857Y-36821428D01*
X111821428Y-37678571D02*
X111821428Y-36178571D01*
X111464285Y-36178571D01*
X111250000Y-36250000D01*
X111107142Y-36392857D01*
X111035714Y-36535714D01*
X110964285Y-36821428D01*
X110964285Y-37035714D01*
X111035714Y-37321428D01*
X111107142Y-37464285D01*
X111250000Y-37607142D01*
X111464285Y-37678571D01*
X111821428Y-37678571D01*
X110321428Y-37678571D02*
X110321428Y-36178571D01*
X109607142Y-37678571D02*
X109607142Y-36178571D01*
X109035714Y-36178571D01*
X108892857Y-36250000D01*
X108821428Y-36321428D01*
X108750000Y-36464285D01*
X108750000Y-36678571D01*
X108821428Y-36821428D01*
X108892857Y-36892857D01*
X109035714Y-36964285D01*
X109607142Y-36964285D01*
X105821428Y-37678571D02*
X105821428Y-36178571D01*
X105250000Y-36178571D01*
X105107142Y-36250000D01*
X105035714Y-36321428D01*
X104964285Y-36464285D01*
X104964285Y-36678571D01*
X105035714Y-36821428D01*
X105107142Y-36892857D01*
X105250000Y-36964285D01*
X105821428Y-36964285D01*
X104321428Y-37678571D02*
X104321428Y-36178571D01*
X103607142Y-37678571D02*
X103607142Y-36178571D01*
X102750000Y-37678571D01*
X102750000Y-36178571D01*
X100892857Y-37678571D02*
X100892857Y-36178571D01*
X100321428Y-36178571D01*
X100178571Y-36250000D01*
X100107142Y-36321428D01*
X100035714Y-36464285D01*
X100035714Y-36678571D01*
X100107142Y-36821428D01*
X100178571Y-36892857D01*
X100321428Y-36964285D01*
X100892857Y-36964285D01*
X98535714Y-37678571D02*
X99035714Y-36964285D01*
X99392857Y-37678571D02*
X99392857Y-36178571D01*
X98821428Y-36178571D01*
X98678571Y-36250000D01*
X98607142Y-36321428D01*
X98535714Y-36464285D01*
X98535714Y-36678571D01*
X98607142Y-36821428D01*
X98678571Y-36892857D01*
X98821428Y-36964285D01*
X99392857Y-36964285D01*
X97607142Y-36178571D02*
X97321428Y-36178571D01*
X97178571Y-36250000D01*
X97035714Y-36392857D01*
X96964285Y-36678571D01*
X96964285Y-37178571D01*
X97035714Y-37464285D01*
X97178571Y-37607142D01*
X97321428Y-37678571D01*
X97607142Y-37678571D01*
X97750000Y-37607142D01*
X97892857Y-37464285D01*
X97964285Y-37178571D01*
X97964285Y-36678571D01*
X97892857Y-36392857D01*
X97750000Y-36250000D01*
X97607142Y-36178571D01*
X95535714Y-36250000D02*
X95678571Y-36178571D01*
X95892857Y-36178571D01*
X96107142Y-36250000D01*
X96250000Y-36392857D01*
X96321428Y-36535714D01*
X96392857Y-36821428D01*
X96392857Y-37035714D01*
X96321428Y-37321428D01*
X96250000Y-37464285D01*
X96107142Y-37607142D01*
X95892857Y-37678571D01*
X95750000Y-37678571D01*
X95535714Y-37607142D01*
X95464285Y-37535714D01*
X95464285Y-37035714D01*
X95750000Y-37035714D01*
X93964285Y-37678571D02*
X94464285Y-36964285D01*
X94821428Y-37678571D02*
X94821428Y-36178571D01*
X94250000Y-36178571D01*
X94107142Y-36250000D01*
X94035714Y-36321428D01*
X93964285Y-36464285D01*
X93964285Y-36678571D01*
X94035714Y-36821428D01*
X94107142Y-36892857D01*
X94250000Y-36964285D01*
X94821428Y-36964285D01*
X93392857Y-37250000D02*
X92678571Y-37250000D01*
X93535714Y-37678571D02*
X93035714Y-36178571D01*
X92535714Y-37678571D01*
X92035714Y-37678571D02*
X92035714Y-36178571D01*
X91535714Y-37250000D01*
X91035714Y-36178571D01*
X91035714Y-37678571D01*
X90321428Y-37678571D02*
X90321428Y-36178571D01*
X89821428Y-37250000D01*
X89321428Y-36178571D01*
X89321428Y-37678571D01*
X88607142Y-36892857D02*
X88107142Y-36892857D01*
X87892857Y-37678571D02*
X88607142Y-37678571D01*
X88607142Y-36178571D01*
X87892857Y-36178571D01*
X86392857Y-37678571D02*
X86892857Y-36964285D01*
X87250000Y-37678571D02*
X87250000Y-36178571D01*
X86678571Y-36178571D01*
X86535714Y-36250000D01*
X86464285Y-36321428D01*
X86392857Y-36464285D01*
X86392857Y-36678571D01*
X86464285Y-36821428D01*
X86535714Y-36892857D01*
X86678571Y-36964285D01*
X87250000Y-36964285D01*
X117371428Y-58928571D02*
X117428571Y-58985714D01*
X117600000Y-59042857D01*
X117714285Y-59042857D01*
X117885714Y-58985714D01*
X118000000Y-58871428D01*
X118057142Y-58757142D01*
X118114285Y-58528571D01*
X118114285Y-58357142D01*
X118057142Y-58128571D01*
X118000000Y-58014285D01*
X117885714Y-57900000D01*
X117714285Y-57842857D01*
X117600000Y-57842857D01*
X117428571Y-57900000D01*
X117371428Y-57957142D01*
X116685714Y-59042857D02*
X116800000Y-58985714D01*
X116857142Y-58928571D01*
X116914285Y-58814285D01*
X116914285Y-58471428D01*
X116857142Y-58357142D01*
X116800000Y-58300000D01*
X116685714Y-58242857D01*
X116514285Y-58242857D01*
X116400000Y-58300000D01*
X116342857Y-58357142D01*
X116285714Y-58471428D01*
X116285714Y-58814285D01*
X116342857Y-58928571D01*
X116400000Y-58985714D01*
X116514285Y-59042857D01*
X116685714Y-59042857D01*
X115771428Y-58242857D02*
X115771428Y-59042857D01*
X115771428Y-58357142D02*
X115714285Y-58300000D01*
X115600000Y-58242857D01*
X115428571Y-58242857D01*
X115314285Y-58300000D01*
X115257142Y-58414285D01*
X115257142Y-59042857D01*
X114685714Y-58242857D02*
X114685714Y-59042857D01*
X114685714Y-58357142D02*
X114628571Y-58300000D01*
X114514285Y-58242857D01*
X114342857Y-58242857D01*
X114228571Y-58300000D01*
X114171428Y-58414285D01*
X114171428Y-59042857D01*
X113142857Y-58985714D02*
X113257142Y-59042857D01*
X113485714Y-59042857D01*
X113600000Y-58985714D01*
X113657142Y-58871428D01*
X113657142Y-58414285D01*
X113600000Y-58300000D01*
X113485714Y-58242857D01*
X113257142Y-58242857D01*
X113142857Y-58300000D01*
X113085714Y-58414285D01*
X113085714Y-58528571D01*
X113657142Y-58642857D01*
X112057142Y-58985714D02*
X112171428Y-59042857D01*
X112400000Y-59042857D01*
X112514285Y-58985714D01*
X112571428Y-58928571D01*
X112628571Y-58814285D01*
X112628571Y-58471428D01*
X112571428Y-58357142D01*
X112514285Y-58300000D01*
X112400000Y-58242857D01*
X112171428Y-58242857D01*
X112057142Y-58300000D01*
X111714285Y-58242857D02*
X111257142Y-58242857D01*
X111542857Y-57842857D02*
X111542857Y-58871428D01*
X111485714Y-58985714D01*
X111371428Y-59042857D01*
X111257142Y-59042857D01*
X109999999Y-58985714D02*
X109885714Y-59042857D01*
X109657142Y-59042857D01*
X109542857Y-58985714D01*
X109485714Y-58871428D01*
X109485714Y-58814285D01*
X109542857Y-58700000D01*
X109657142Y-58642857D01*
X109828571Y-58642857D01*
X109942857Y-58585714D01*
X109999999Y-58471428D01*
X109999999Y-58414285D01*
X109942857Y-58300000D01*
X109828571Y-58242857D01*
X109657142Y-58242857D01*
X109542857Y-58300000D01*
X108800000Y-59042857D02*
X108914285Y-58985714D01*
X108971428Y-58928571D01*
X109028571Y-58814285D01*
X109028571Y-58471428D01*
X108971428Y-58357142D01*
X108914285Y-58300000D01*
X108800000Y-58242857D01*
X108628571Y-58242857D01*
X108514285Y-58300000D01*
X108457142Y-58357142D01*
X108400000Y-58471428D01*
X108400000Y-58814285D01*
X108457142Y-58928571D01*
X108514285Y-58985714D01*
X108628571Y-59042857D01*
X108800000Y-59042857D01*
X107371428Y-58242857D02*
X107371428Y-59042857D01*
X107885714Y-58242857D02*
X107885714Y-58871428D01*
X107828571Y-58985714D01*
X107714285Y-59042857D01*
X107542857Y-59042857D01*
X107428571Y-58985714D01*
X107371428Y-58928571D01*
X106800000Y-59042857D02*
X106800000Y-58242857D01*
X106800000Y-58471428D02*
X106742857Y-58357142D01*
X106685714Y-58300000D01*
X106571428Y-58242857D01*
X106457142Y-58242857D01*
X105542857Y-58985714D02*
X105657142Y-59042857D01*
X105885714Y-59042857D01*
X105999999Y-58985714D01*
X106057142Y-58928571D01*
X106114285Y-58814285D01*
X106114285Y-58471428D01*
X106057142Y-58357142D01*
X105999999Y-58300000D01*
X105885714Y-58242857D01*
X105657142Y-58242857D01*
X105542857Y-58300000D01*
X104571428Y-58985714D02*
X104685714Y-59042857D01*
X104914285Y-59042857D01*
X105028571Y-58985714D01*
X105085714Y-58871428D01*
X105085714Y-58414285D01*
X105028571Y-58300000D01*
X104914285Y-58242857D01*
X104685714Y-58242857D01*
X104571428Y-58300000D01*
X104514285Y-58414285D01*
X104514285Y-58528571D01*
X105085714Y-58642857D01*
X102571428Y-58985714D02*
X102685714Y-59042857D01*
X102914285Y-59042857D01*
X103028571Y-58985714D01*
X103085714Y-58928571D01*
X103142857Y-58814285D01*
X103142857Y-58471428D01*
X103085714Y-58357142D01*
X103028571Y-58300000D01*
X102914285Y-58242857D01*
X102685714Y-58242857D01*
X102571428Y-58300000D01*
X101885714Y-59042857D02*
X101999999Y-58985714D01*
X102057142Y-58928571D01*
X102114285Y-58814285D01*
X102114285Y-58471428D01*
X102057142Y-58357142D01*
X101999999Y-58300000D01*
X101885714Y-58242857D01*
X101714285Y-58242857D01*
X101599999Y-58300000D01*
X101542857Y-58357142D01*
X101485714Y-58471428D01*
X101485714Y-58814285D01*
X101542857Y-58928571D01*
X101599999Y-58985714D01*
X101714285Y-59042857D01*
X101885714Y-59042857D01*
X100971428Y-58242857D02*
X100971428Y-59042857D01*
X100971428Y-58357142D02*
X100914285Y-58300000D01*
X100799999Y-58242857D01*
X100628571Y-58242857D01*
X100514285Y-58300000D01*
X100457142Y-58414285D01*
X100457142Y-59042857D01*
X99885714Y-58242857D02*
X99885714Y-59042857D01*
X99885714Y-58357142D02*
X99828571Y-58300000D01*
X99714285Y-58242857D01*
X99542857Y-58242857D01*
X99428571Y-58300000D01*
X99371428Y-58414285D01*
X99371428Y-59042857D01*
X98342857Y-58985714D02*
X98457142Y-59042857D01*
X98685714Y-59042857D01*
X98799999Y-58985714D01*
X98857142Y-58871428D01*
X98857142Y-58414285D01*
X98799999Y-58300000D01*
X98685714Y-58242857D01*
X98457142Y-58242857D01*
X98342857Y-58300000D01*
X98285714Y-58414285D01*
X98285714Y-58528571D01*
X98857142Y-58642857D01*
X97257142Y-58985714D02*
X97371428Y-59042857D01*
X97599999Y-59042857D01*
X97714285Y-58985714D01*
X97771428Y-58928571D01*
X97828571Y-58814285D01*
X97828571Y-58471428D01*
X97771428Y-58357142D01*
X97714285Y-58300000D01*
X97599999Y-58242857D01*
X97371428Y-58242857D01*
X97257142Y-58300000D01*
X96914285Y-58242857D02*
X96457142Y-58242857D01*
X96742857Y-57842857D02*
X96742857Y-58871428D01*
X96685714Y-58985714D01*
X96571428Y-59042857D01*
X96457142Y-59042857D01*
X95314285Y-58242857D02*
X94857142Y-58242857D01*
X95142857Y-57842857D02*
X95142857Y-58871428D01*
X95085714Y-58985714D01*
X94971428Y-59042857D01*
X94857142Y-59042857D01*
X94285714Y-59042857D02*
X94399999Y-58985714D01*
X94457142Y-58928571D01*
X94514285Y-58814285D01*
X94514285Y-58471428D01*
X94457142Y-58357142D01*
X94399999Y-58300000D01*
X94285714Y-58242857D01*
X94114285Y-58242857D01*
X93999999Y-58300000D01*
X93942857Y-58357142D01*
X93885714Y-58471428D01*
X93885714Y-58814285D01*
X93942857Y-58928571D01*
X93999999Y-58985714D01*
X94114285Y-59042857D01*
X94285714Y-59042857D01*
X118400000Y-60342857D02*
X118400000Y-61542857D01*
X118400000Y-60400000D02*
X118285714Y-60342857D01*
X118057142Y-60342857D01*
X117942857Y-60400000D01*
X117885714Y-60457142D01*
X117828571Y-60571428D01*
X117828571Y-60914285D01*
X117885714Y-61028571D01*
X117942857Y-61085714D01*
X118057142Y-61142857D01*
X118285714Y-61142857D01*
X118400000Y-61085714D01*
X117314285Y-61142857D02*
X117314285Y-60342857D01*
X117314285Y-59942857D02*
X117371428Y-60000000D01*
X117314285Y-60057142D01*
X117257142Y-60000000D01*
X117314285Y-59942857D01*
X117314285Y-60057142D01*
X116742857Y-60342857D02*
X116742857Y-61142857D01*
X116742857Y-60457142D02*
X116685714Y-60400000D01*
X116571428Y-60342857D01*
X116400000Y-60342857D01*
X116285714Y-60400000D01*
X116228571Y-60514285D01*
X116228571Y-61142857D01*
X114228571Y-61085714D02*
X114342857Y-61142857D01*
X114571428Y-61142857D01*
X114685714Y-61085714D01*
X114742857Y-61028571D01*
X114800000Y-60914285D01*
X114800000Y-60571428D01*
X114742857Y-60457142D01*
X114685714Y-60400000D01*
X114571428Y-60342857D01*
X114342857Y-60342857D01*
X114228571Y-60400000D01*
X113542857Y-61142857D02*
X113657142Y-61085714D01*
X113714285Y-61028571D01*
X113771428Y-60914285D01*
X113771428Y-60571428D01*
X113714285Y-60457142D01*
X113657142Y-60400000D01*
X113542857Y-60342857D01*
X113371428Y-60342857D01*
X113257142Y-60400000D01*
X113200000Y-60457142D01*
X113142857Y-60571428D01*
X113142857Y-60914285D01*
X113200000Y-61028571D01*
X113257142Y-61085714D01*
X113371428Y-61142857D01*
X113542857Y-61142857D01*
X112628571Y-60342857D02*
X112628571Y-61142857D01*
X112628571Y-60457142D02*
X112571428Y-60400000D01*
X112457142Y-60342857D01*
X112285714Y-60342857D01*
X112171428Y-60400000D01*
X112114285Y-60514285D01*
X112114285Y-61142857D01*
X111542857Y-60342857D02*
X111542857Y-61142857D01*
X111542857Y-60457142D02*
X111485714Y-60400000D01*
X111371428Y-60342857D01*
X111200000Y-60342857D01*
X111085714Y-60400000D01*
X111028571Y-60514285D01*
X111028571Y-61142857D01*
X110000000Y-61085714D02*
X110114285Y-61142857D01*
X110342857Y-61142857D01*
X110457142Y-61085714D01*
X110514285Y-60971428D01*
X110514285Y-60514285D01*
X110457142Y-60400000D01*
X110342857Y-60342857D01*
X110114285Y-60342857D01*
X110000000Y-60400000D01*
X109942857Y-60514285D01*
X109942857Y-60628571D01*
X110514285Y-60742857D01*
X108914285Y-61085714D02*
X109028571Y-61142857D01*
X109257142Y-61142857D01*
X109371428Y-61085714D01*
X109428571Y-61028571D01*
X109485714Y-60914285D01*
X109485714Y-60571428D01*
X109428571Y-60457142D01*
X109371428Y-60400000D01*
X109257142Y-60342857D01*
X109028571Y-60342857D01*
X108914285Y-60400000D01*
X108571428Y-60342857D02*
X108114285Y-60342857D01*
X108400000Y-59942857D02*
X108400000Y-60971428D01*
X108342857Y-61085714D01*
X108228571Y-61142857D01*
X108114285Y-61142857D01*
X107542857Y-61142857D02*
X107657142Y-61085714D01*
X107714285Y-61028571D01*
X107771428Y-60914285D01*
X107771428Y-60571428D01*
X107714285Y-60457142D01*
X107657142Y-60400000D01*
X107542857Y-60342857D01*
X107371428Y-60342857D01*
X107257142Y-60400000D01*
X107200000Y-60457142D01*
X107142857Y-60571428D01*
X107142857Y-60914285D01*
X107200000Y-61028571D01*
X107257142Y-61085714D01*
X107371428Y-61142857D01*
X107542857Y-61142857D01*
X106628571Y-61142857D02*
X106628571Y-60342857D01*
X106628571Y-60571428D02*
X106571428Y-60457142D01*
X106514285Y-60400000D01*
X106400000Y-60342857D01*
X106285714Y-60342857D01*
X105142857Y-60342857D02*
X104685714Y-60342857D01*
X104971428Y-59942857D02*
X104971428Y-60971428D01*
X104914285Y-61085714D01*
X104800000Y-61142857D01*
X104685714Y-61142857D01*
X104285714Y-61142857D02*
X104285714Y-59942857D01*
X103771428Y-61142857D02*
X103771428Y-60514285D01*
X103828571Y-60400000D01*
X103942857Y-60342857D01*
X104114285Y-60342857D01*
X104228571Y-60400000D01*
X104285714Y-60457142D01*
X102685714Y-61142857D02*
X102685714Y-60514285D01*
X102742857Y-60400000D01*
X102857142Y-60342857D01*
X103085714Y-60342857D01*
X103200000Y-60400000D01*
X102685714Y-61085714D02*
X102800000Y-61142857D01*
X103085714Y-61142857D01*
X103200000Y-61085714D01*
X103257142Y-60971428D01*
X103257142Y-60857142D01*
X103200000Y-60742857D01*
X103085714Y-60685714D01*
X102800000Y-60685714D01*
X102685714Y-60628571D01*
X102285714Y-60342857D02*
X101828571Y-60342857D01*
X102114285Y-59942857D02*
X102114285Y-60971428D01*
X102057142Y-61085714D01*
X101942857Y-61142857D01*
X101828571Y-61142857D01*
X100514285Y-61142857D02*
X100514285Y-60342857D01*
X100514285Y-60457142D02*
X100457142Y-60400000D01*
X100342857Y-60342857D01*
X100171428Y-60342857D01*
X100057142Y-60400000D01*
X100000000Y-60514285D01*
X100000000Y-61142857D01*
X100000000Y-60514285D02*
X99942857Y-60400000D01*
X99828571Y-60342857D01*
X99657142Y-60342857D01*
X99542857Y-60400000D01*
X99485714Y-60514285D01*
X99485714Y-61142857D01*
X98400000Y-61142857D02*
X98400000Y-60514285D01*
X98457142Y-60400000D01*
X98571428Y-60342857D01*
X98800000Y-60342857D01*
X98914285Y-60400000D01*
X98400000Y-61085714D02*
X98514285Y-61142857D01*
X98800000Y-61142857D01*
X98914285Y-61085714D01*
X98971428Y-60971428D01*
X98971428Y-60857142D01*
X98914285Y-60742857D01*
X98800000Y-60685714D01*
X98514285Y-60685714D01*
X98400000Y-60628571D01*
X98000000Y-60342857D02*
X97542857Y-60342857D01*
X97828571Y-59942857D02*
X97828571Y-60971428D01*
X97771428Y-61085714D01*
X97657142Y-61142857D01*
X97542857Y-61142857D01*
X96628571Y-61085714D02*
X96742857Y-61142857D01*
X96971428Y-61142857D01*
X97085714Y-61085714D01*
X97142857Y-61028571D01*
X97200000Y-60914285D01*
X97200000Y-60571428D01*
X97142857Y-60457142D01*
X97085714Y-60400000D01*
X96971428Y-60342857D01*
X96742857Y-60342857D01*
X96628571Y-60400000D01*
X96114285Y-61142857D02*
X96114285Y-59942857D01*
X95600000Y-61142857D02*
X95600000Y-60514285D01*
X95657142Y-60400000D01*
X95771428Y-60342857D01*
X95942857Y-60342857D01*
X96057142Y-60400000D01*
X96114285Y-60457142D01*
X94571428Y-61085714D02*
X94685714Y-61142857D01*
X94914285Y-61142857D01*
X95028571Y-61085714D01*
X95085714Y-60971428D01*
X95085714Y-60514285D01*
X95028571Y-60400000D01*
X94914285Y-60342857D01*
X94685714Y-60342857D01*
X94571428Y-60400000D01*
X94514285Y-60514285D01*
X94514285Y-60628571D01*
X95085714Y-60742857D01*
X94057142Y-61085714D02*
X93942857Y-61142857D01*
X93714285Y-61142857D01*
X93600000Y-61085714D01*
X93542857Y-60971428D01*
X93542857Y-60914285D01*
X93600000Y-60800000D01*
X93714285Y-60742857D01*
X93885714Y-60742857D01*
X94000000Y-60685714D01*
X94057142Y-60571428D01*
X94057142Y-60514285D01*
X94000000Y-60400000D01*
X93885714Y-60342857D01*
X93714285Y-60342857D01*
X93600000Y-60400000D01*
X112342857Y-62442857D02*
X111885714Y-62442857D01*
X112171428Y-62042857D02*
X112171428Y-63071428D01*
X112114285Y-63185714D01*
X112000000Y-63242857D01*
X111885714Y-63242857D01*
X111485714Y-63242857D02*
X111485714Y-62042857D01*
X110971428Y-63242857D02*
X110971428Y-62614285D01*
X111028571Y-62500000D01*
X111142857Y-62442857D01*
X111314285Y-62442857D01*
X111428571Y-62500000D01*
X111485714Y-62557142D01*
X109942857Y-63185714D02*
X110057142Y-63242857D01*
X110285714Y-63242857D01*
X110400000Y-63185714D01*
X110457142Y-63071428D01*
X110457142Y-62614285D01*
X110400000Y-62500000D01*
X110285714Y-62442857D01*
X110057142Y-62442857D01*
X109942857Y-62500000D01*
X109885714Y-62614285D01*
X109885714Y-62728571D01*
X110457142Y-62842857D01*
X108457142Y-62442857D02*
X108457142Y-63642857D01*
X108457142Y-62500000D02*
X108342857Y-62442857D01*
X108114285Y-62442857D01*
X108000000Y-62500000D01*
X107942857Y-62557142D01*
X107885714Y-62671428D01*
X107885714Y-63014285D01*
X107942857Y-63128571D01*
X108000000Y-63185714D01*
X108114285Y-63242857D01*
X108342857Y-63242857D01*
X108457142Y-63185714D01*
X107371428Y-63242857D02*
X107371428Y-62442857D01*
X107371428Y-62042857D02*
X107428571Y-62100000D01*
X107371428Y-62157142D01*
X107314285Y-62100000D01*
X107371428Y-62042857D01*
X107371428Y-62157142D01*
X106800000Y-62442857D02*
X106800000Y-63242857D01*
X106800000Y-62557142D02*
X106742857Y-62500000D01*
X106628571Y-62442857D01*
X106457142Y-62442857D01*
X106342857Y-62500000D01*
X106285714Y-62614285D01*
X106285714Y-63242857D01*
X104285714Y-63185714D02*
X104400000Y-63242857D01*
X104628571Y-63242857D01*
X104742857Y-63185714D01*
X104800000Y-63128571D01*
X104857142Y-63014285D01*
X104857142Y-62671428D01*
X104800000Y-62557142D01*
X104742857Y-62500000D01*
X104628571Y-62442857D01*
X104400000Y-62442857D01*
X104285714Y-62500000D01*
X103600000Y-63242857D02*
X103714285Y-63185714D01*
X103771428Y-63128571D01*
X103828571Y-63014285D01*
X103828571Y-62671428D01*
X103771428Y-62557142D01*
X103714285Y-62500000D01*
X103600000Y-62442857D01*
X103428571Y-62442857D01*
X103314285Y-62500000D01*
X103257142Y-62557142D01*
X103200000Y-62671428D01*
X103200000Y-63014285D01*
X103257142Y-63128571D01*
X103314285Y-63185714D01*
X103428571Y-63242857D01*
X103600000Y-63242857D01*
X102171428Y-62442857D02*
X102171428Y-63242857D01*
X102685714Y-62442857D02*
X102685714Y-63071428D01*
X102628571Y-63185714D01*
X102514285Y-63242857D01*
X102342857Y-63242857D01*
X102228571Y-63185714D01*
X102171428Y-63128571D01*
X101600000Y-62442857D02*
X101600000Y-63242857D01*
X101600000Y-62557142D02*
X101542857Y-62500000D01*
X101428571Y-62442857D01*
X101257142Y-62442857D01*
X101142857Y-62500000D01*
X101085714Y-62614285D01*
X101085714Y-63242857D01*
X100685714Y-62442857D02*
X100228571Y-62442857D01*
X100514285Y-62042857D02*
X100514285Y-63071428D01*
X100457142Y-63185714D01*
X100342857Y-63242857D01*
X100228571Y-63242857D01*
X99828571Y-63128571D02*
X99771428Y-63185714D01*
X99828571Y-63242857D01*
X99885714Y-63185714D01*
X99828571Y-63128571D01*
X99828571Y-63242857D01*
M02*
