M48
; DRILL file {KiCad 5.1.5+dfsg1-2build2} date Tue 08 Sep 2020 01:32:33 AM EDT
; FORMAT={-:-/ absolute / inch / decimal}
; #@! TF.CreationDate,2020-09-08T01:32:33-04:00
; #@! TF.GenerationSoftware,Kicad,Pcbnew,5.1.5+dfsg1-2build2
; #@! TF.FileFunction,Plated,1,2,PTH
FMAT,2
INCH
T1C0.0315
T2C0.0354
T3C0.0394
T4C0.0512
%
G90
G05
T1
X4.4488Y-1.9291
X4.4488Y-2.0276
X3.435Y-3.0366
X3.435Y-3.3366
X4.7638Y-1.9685
X4.9559Y-1.9685
X3.5827Y-3.0366
X3.5827Y-3.3366
X5.315Y-2.7559
X5.315Y-2.8346
X3.552Y-2.2197
X3.552Y-2.8197
X3.652Y-2.2197
X3.652Y-2.8197
X3.752Y-2.2197
X3.752Y-2.8197
X3.852Y-2.2197
X3.852Y-2.8197
X3.952Y-2.2197
X3.952Y-2.8197
X4.052Y-2.2197
X4.052Y-2.8197
X4.152Y-2.2197
X4.152Y-2.8197
X4.252Y-2.2197
X4.252Y-2.8197
X4.352Y-2.2197
X4.352Y-2.8197
X4.452Y-2.2197
X4.452Y-2.8197
X4.552Y-2.2197
X4.552Y-2.8197
X4.652Y-2.2197
X4.652Y-2.8197
X4.752Y-2.2197
X4.752Y-2.8197
X4.852Y-2.2197
X4.852Y-2.8197
X4.952Y-2.2197
X4.952Y-2.8197
X5.2362Y-1.9291
X5.2362Y-2.0276
X5.0945Y-2.3543
X5.0945Y-2.6543
X3.7323Y-3.0386
X3.7323Y-3.3386
T2
X3.4748Y-1.9642
X3.5748Y-1.9642
X3.7685Y-1.961
X3.8685Y-1.961
X4.0445Y-1.9583
X4.1445Y-1.9583
X5.2756Y-2.3622
X5.3756Y-2.3622
T3
X4.3963Y-3.0709
X4.3963Y-3.1709
X4.3963Y-3.2709
X4.4963Y-3.0709
X4.4963Y-3.1709
X4.4963Y-3.2709
X5.2362Y-3.0709
X5.2362Y-3.1709
X5.2362Y-3.2709
X5.3362Y-3.0709
X5.3362Y-3.1709
X5.3362Y-3.2709
X3.9764Y-3.0709
X3.9764Y-3.1709
X3.9764Y-3.2709
X4.0764Y-3.0709
X4.0764Y-3.1709
X4.0764Y-3.2709
X4.8163Y-3.0709
X4.8163Y-3.1709
X4.8163Y-3.2709
X4.9163Y-3.0709
X4.9163Y-3.1709
X4.9163Y-3.2709
T4
X4.1243Y-1.6471
T1
G00X3.7243Y-1.3569
M15
G01X3.7243Y-1.3372
M16
G05
G00X3.7243Y-1.6569
M15
G01X3.7243Y-1.6372
M16
G05
G00X3.8243Y-1.3569
M15
G01X3.8243Y-1.3372
M16
G05
G00X3.8243Y-1.6569
M15
G01X3.8243Y-1.6372
M16
G05
G00X3.9243Y-1.3569
M15
G01X3.9243Y-1.3372
M16
G05
G00X3.9243Y-1.6569
M15
G01X3.9243Y-1.6372
M16
G05
G00X4.0243Y-1.3569
M15
G01X4.0243Y-1.3372
M16
G05
G00X4.0243Y-1.6569
M15
G01X4.0243Y-1.6372
M16
G05
G00X4.1243Y-1.3569
M15
G01X4.1243Y-1.3372
M16
G05
G00X4.2243Y-1.3569
M15
G01X4.2243Y-1.3372
M16
G05
G00X4.2243Y-1.6569
M15
G01X4.2243Y-1.6372
M16
G05
G00X4.3243Y-1.3569
M15
G01X4.3243Y-1.3372
M16
G05
G00X4.3243Y-1.6569
M15
G01X4.3243Y-1.6372
M16
G05
G00X4.4243Y-1.3569
M15
G01X4.4243Y-1.3372
M16
G05
G00X4.4243Y-1.6569
M15
G01X4.4243Y-1.6372
M16
G05
G00X4.5243Y-1.3569
M15
G01X4.5243Y-1.3372
M16
G05
G00X4.5243Y-1.6569
M15
G01X4.5243Y-1.6372
M16
G05
G00X4.6243Y-1.3569
M15
G01X4.6243Y-1.3372
M16
G05
G00X4.6243Y-1.6569
M15
G01X4.6243Y-1.6372
M16
G05
G00X4.7243Y-1.3569
M15
G01X4.7243Y-1.3372
M16
G05
G00X4.7243Y-1.6569
M15
G01X4.7243Y-1.6372
M16
G05
G00X4.8243Y-1.3569
M15
G01X4.8243Y-1.3372
M16
G05
G00X4.8243Y-1.6569
M15
G01X4.8243Y-1.6372
M16
G05
G00X4.9243Y-1.3569
M15
G01X4.9243Y-1.3372
M16
G05
G00X4.9243Y-1.6569
M15
G01X4.9243Y-1.6372
M16
G05
G00X5.0243Y-1.3569
M15
G01X5.0243Y-1.3372
M16
G05
G00X5.0243Y-1.6569
M15
G01X5.0243Y-1.6372
M16
G05
T0
M30
