G04 #@! TF.GenerationSoftware,KiCad,Pcbnew,5.1.5+dfsg1-2build2*
G04 #@! TF.CreationDate,2020-09-08T01:32:30-04:00*
G04 #@! TF.ProjectId,multi-avr,6d756c74-692d-4617-9672-2e6b69636164,rev?*
G04 #@! TF.SameCoordinates,Original*
G04 #@! TF.FileFunction,Legend,Top*
G04 #@! TF.FilePolarity,Positive*
%FSLAX46Y46*%
G04 Gerber Fmt 4.6, Leading zero omitted, Abs format (unit mm)*
G04 Created by KiCad (PCBNEW 5.1.5+dfsg1-2build2) date 2020-09-08 01:32:30*
%MOMM*%
%LPD*%
G04 APERTURE LIST*
%ADD10C,0.120000*%
%ADD11C,0.150000*%
G04 APERTURE END LIST*
D10*
X129878029Y-55990000D02*
G75*
G03X129878029Y-55990000I-278029J0D01*
G01*
X115418029Y-55990000D02*
G75*
G03X115418029Y-55990000I-278029J0D01*
G01*
X101058029Y-55970000D02*
G75*
G03X101058029Y-55970000I-278029J0D01*
G01*
X85638029Y-67980000D02*
G75*
G03X85638029Y-67980000I-278029J0D01*
G01*
X93267780Y-35775400D02*
X93267780Y-37025400D01*
X128947780Y-35775400D02*
X93267780Y-35775400D01*
X128947780Y-40275400D02*
X128947780Y-35775400D01*
X93267780Y-40275400D02*
X128947780Y-40275400D01*
X93267780Y-39025400D02*
X93267780Y-40275400D01*
X93267780Y-37025400D02*
G75*
G02X93267780Y-39025400I0J-1000000D01*
G01*
X128030000Y-66880000D02*
X128360000Y-66880000D01*
X128030000Y-60340000D02*
X128030000Y-66880000D01*
X128360000Y-60340000D02*
X128030000Y-60340000D01*
X130770000Y-66880000D02*
X130440000Y-66880000D01*
X130770000Y-60340000D02*
X130770000Y-66880000D01*
X130440000Y-60340000D02*
X130770000Y-60340000D01*
X138260000Y-59999538D02*
G75*
G02X132710000Y-61544830I-2990000J-462D01*
G01*
X138260000Y-60000462D02*
G75*
G03X132710000Y-58455170I-2990000J462D01*
G01*
X137770000Y-60000000D02*
G75*
G03X137770000Y-60000000I-2500000J0D01*
G01*
X132710000Y-58455000D02*
X132710000Y-61545000D01*
X134890000Y-47452738D02*
X134340000Y-47452738D01*
X134615000Y-47177738D02*
X134615000Y-47727738D01*
X135870000Y-50250000D02*
G75*
G03X135870000Y-50250000I-2870000J0D01*
G01*
X114890000Y-47452738D02*
X114340000Y-47452738D01*
X114615000Y-47177738D02*
X114615000Y-47727738D01*
X115870000Y-50250000D02*
G75*
G03X115870000Y-50250000I-2870000J0D01*
G01*
X136725000Y-68445225D02*
X136225000Y-68445225D01*
X136475000Y-68195225D02*
X136475000Y-68695225D01*
X135284000Y-73601000D02*
X134716000Y-73601000D01*
X135518000Y-73561000D02*
X134482000Y-73561000D01*
X135677000Y-73521000D02*
X134323000Y-73521000D01*
X135805000Y-73481000D02*
X134195000Y-73481000D01*
X135915000Y-73441000D02*
X134085000Y-73441000D01*
X136011000Y-73401000D02*
X133989000Y-73401000D01*
X136098000Y-73361000D02*
X133902000Y-73361000D01*
X136178000Y-73321000D02*
X133822000Y-73321000D01*
X136251000Y-73281000D02*
X133749000Y-73281000D01*
X136319000Y-73241000D02*
X133681000Y-73241000D01*
X136383000Y-73201000D02*
X133617000Y-73201000D01*
X136443000Y-73161000D02*
X133557000Y-73161000D01*
X136500000Y-73121000D02*
X133500000Y-73121000D01*
X136554000Y-73081000D02*
X133446000Y-73081000D01*
X136605000Y-73041000D02*
X133395000Y-73041000D01*
X133960000Y-73001000D02*
X133347000Y-73001000D01*
X136653000Y-73001000D02*
X136040000Y-73001000D01*
X133960000Y-72961000D02*
X133301000Y-72961000D01*
X136699000Y-72961000D02*
X136040000Y-72961000D01*
X133960000Y-72921000D02*
X133257000Y-72921000D01*
X136743000Y-72921000D02*
X136040000Y-72921000D01*
X133960000Y-72881000D02*
X133215000Y-72881000D01*
X136785000Y-72881000D02*
X136040000Y-72881000D01*
X133960000Y-72841000D02*
X133174000Y-72841000D01*
X136826000Y-72841000D02*
X136040000Y-72841000D01*
X133960000Y-72801000D02*
X133136000Y-72801000D01*
X136864000Y-72801000D02*
X136040000Y-72801000D01*
X133960000Y-72761000D02*
X133099000Y-72761000D01*
X136901000Y-72761000D02*
X136040000Y-72761000D01*
X133960000Y-72721000D02*
X133063000Y-72721000D01*
X136937000Y-72721000D02*
X136040000Y-72721000D01*
X133960000Y-72681000D02*
X133029000Y-72681000D01*
X136971000Y-72681000D02*
X136040000Y-72681000D01*
X133960000Y-72641000D02*
X132996000Y-72641000D01*
X137004000Y-72641000D02*
X136040000Y-72641000D01*
X133960000Y-72601000D02*
X132965000Y-72601000D01*
X137035000Y-72601000D02*
X136040000Y-72601000D01*
X133960000Y-72561000D02*
X132935000Y-72561000D01*
X137065000Y-72561000D02*
X136040000Y-72561000D01*
X133960000Y-72521000D02*
X132905000Y-72521000D01*
X137095000Y-72521000D02*
X136040000Y-72521000D01*
X133960000Y-72481000D02*
X132878000Y-72481000D01*
X137122000Y-72481000D02*
X136040000Y-72481000D01*
X133960000Y-72441000D02*
X132851000Y-72441000D01*
X137149000Y-72441000D02*
X136040000Y-72441000D01*
X133960000Y-72401000D02*
X132825000Y-72401000D01*
X137175000Y-72401000D02*
X136040000Y-72401000D01*
X133960000Y-72361000D02*
X132800000Y-72361000D01*
X137200000Y-72361000D02*
X136040000Y-72361000D01*
X133960000Y-72321000D02*
X132776000Y-72321000D01*
X137224000Y-72321000D02*
X136040000Y-72321000D01*
X133960000Y-72281000D02*
X132753000Y-72281000D01*
X137247000Y-72281000D02*
X136040000Y-72281000D01*
X133960000Y-72241000D02*
X132732000Y-72241000D01*
X137268000Y-72241000D02*
X136040000Y-72241000D01*
X133960000Y-72201000D02*
X132710000Y-72201000D01*
X137290000Y-72201000D02*
X136040000Y-72201000D01*
X133960000Y-72161000D02*
X132690000Y-72161000D01*
X137310000Y-72161000D02*
X136040000Y-72161000D01*
X133960000Y-72121000D02*
X132671000Y-72121000D01*
X137329000Y-72121000D02*
X136040000Y-72121000D01*
X133960000Y-72081000D02*
X132652000Y-72081000D01*
X137348000Y-72081000D02*
X136040000Y-72081000D01*
X133960000Y-72041000D02*
X132635000Y-72041000D01*
X137365000Y-72041000D02*
X136040000Y-72041000D01*
X133960000Y-72001000D02*
X132618000Y-72001000D01*
X137382000Y-72001000D02*
X136040000Y-72001000D01*
X133960000Y-71961000D02*
X132602000Y-71961000D01*
X137398000Y-71961000D02*
X136040000Y-71961000D01*
X133960000Y-71921000D02*
X132586000Y-71921000D01*
X137414000Y-71921000D02*
X136040000Y-71921000D01*
X133960000Y-71881000D02*
X132572000Y-71881000D01*
X137428000Y-71881000D02*
X136040000Y-71881000D01*
X133960000Y-71841000D02*
X132558000Y-71841000D01*
X137442000Y-71841000D02*
X136040000Y-71841000D01*
X133960000Y-71801000D02*
X132545000Y-71801000D01*
X137455000Y-71801000D02*
X136040000Y-71801000D01*
X133960000Y-71761000D02*
X132532000Y-71761000D01*
X137468000Y-71761000D02*
X136040000Y-71761000D01*
X133960000Y-71721000D02*
X132520000Y-71721000D01*
X137480000Y-71721000D02*
X136040000Y-71721000D01*
X133960000Y-71680000D02*
X132509000Y-71680000D01*
X137491000Y-71680000D02*
X136040000Y-71680000D01*
X133960000Y-71640000D02*
X132499000Y-71640000D01*
X137501000Y-71640000D02*
X136040000Y-71640000D01*
X133960000Y-71600000D02*
X132489000Y-71600000D01*
X137511000Y-71600000D02*
X136040000Y-71600000D01*
X133960000Y-71560000D02*
X132480000Y-71560000D01*
X137520000Y-71560000D02*
X136040000Y-71560000D01*
X133960000Y-71520000D02*
X132472000Y-71520000D01*
X137528000Y-71520000D02*
X136040000Y-71520000D01*
X133960000Y-71480000D02*
X132464000Y-71480000D01*
X137536000Y-71480000D02*
X136040000Y-71480000D01*
X133960000Y-71440000D02*
X132457000Y-71440000D01*
X137543000Y-71440000D02*
X136040000Y-71440000D01*
X133960000Y-71400000D02*
X132450000Y-71400000D01*
X137550000Y-71400000D02*
X136040000Y-71400000D01*
X133960000Y-71360000D02*
X132444000Y-71360000D01*
X137556000Y-71360000D02*
X136040000Y-71360000D01*
X133960000Y-71320000D02*
X132439000Y-71320000D01*
X137561000Y-71320000D02*
X136040000Y-71320000D01*
X133960000Y-71280000D02*
X132435000Y-71280000D01*
X137565000Y-71280000D02*
X136040000Y-71280000D01*
X133960000Y-71240000D02*
X132431000Y-71240000D01*
X137569000Y-71240000D02*
X136040000Y-71240000D01*
X133960000Y-71200000D02*
X132427000Y-71200000D01*
X137573000Y-71200000D02*
X136040000Y-71200000D01*
X133960000Y-71160000D02*
X132424000Y-71160000D01*
X137576000Y-71160000D02*
X136040000Y-71160000D01*
X133960000Y-71120000D02*
X132422000Y-71120000D01*
X137578000Y-71120000D02*
X136040000Y-71120000D01*
X133960000Y-71080000D02*
X132421000Y-71080000D01*
X137579000Y-71080000D02*
X136040000Y-71080000D01*
X137580000Y-71040000D02*
X136040000Y-71040000D01*
X133960000Y-71040000D02*
X132420000Y-71040000D01*
X137580000Y-71000000D02*
X136040000Y-71000000D01*
X133960000Y-71000000D02*
X132420000Y-71000000D01*
X137620000Y-71000000D02*
G75*
G03X137620000Y-71000000I-2620000J0D01*
G01*
X96170000Y-77720000D02*
X95840000Y-77720000D01*
X96170000Y-84260000D02*
X96170000Y-77720000D01*
X95840000Y-84260000D02*
X96170000Y-84260000D01*
X93430000Y-77720000D02*
X93760000Y-77720000D01*
X93430000Y-84260000D02*
X93430000Y-77720000D01*
X93760000Y-84260000D02*
X93430000Y-84260000D01*
X92370000Y-77670000D02*
X92040000Y-77670000D01*
X92370000Y-84210000D02*
X92370000Y-77670000D01*
X92040000Y-84210000D02*
X92370000Y-84210000D01*
X89630000Y-77670000D02*
X89960000Y-77670000D01*
X89630000Y-84210000D02*
X89630000Y-77670000D01*
X89960000Y-84210000D02*
X89630000Y-84210000D01*
X88620000Y-77670000D02*
X88290000Y-77670000D01*
X88620000Y-84210000D02*
X88620000Y-77670000D01*
X88290000Y-84210000D02*
X88620000Y-84210000D01*
X85880000Y-77670000D02*
X86210000Y-77670000D01*
X85880000Y-84210000D02*
X85880000Y-77670000D01*
X86210000Y-84210000D02*
X85880000Y-84210000D01*
X101440000Y-48195000D02*
X101440000Y-51285000D01*
X106500000Y-49740000D02*
G75*
G03X106500000Y-49740000I-2500000J0D01*
G01*
X106990000Y-49740462D02*
G75*
G03X101440000Y-48195170I-2990000J462D01*
G01*
X106990000Y-49739538D02*
G75*
G02X101440000Y-51284830I-2990000J-462D01*
G01*
X99980000Y-49809538D02*
G75*
G02X94430000Y-51354830I-2990000J-462D01*
G01*
X99980000Y-49810462D02*
G75*
G03X94430000Y-48265170I-2990000J462D01*
G01*
X99490000Y-49810000D02*
G75*
G03X99490000Y-49810000I-2500000J0D01*
G01*
X94430000Y-48265000D02*
X94430000Y-51355000D01*
X92520000Y-49889538D02*
G75*
G02X86970000Y-51434830I-2990000J-462D01*
G01*
X92520000Y-49890462D02*
G75*
G03X86970000Y-48345170I-2990000J462D01*
G01*
X92030000Y-49890000D02*
G75*
G03X92030000Y-49890000I-2500000J0D01*
G01*
X86970000Y-48345000D02*
X86970000Y-51435000D01*
X99670000Y-76670000D02*
X101000000Y-76670000D01*
X99670000Y-78000000D02*
X99670000Y-76670000D01*
X102270000Y-76670000D02*
X104870000Y-76670000D01*
X102270000Y-79270000D02*
X102270000Y-76670000D01*
X99670000Y-79270000D02*
X102270000Y-79270000D01*
X104870000Y-76670000D02*
X104870000Y-84410000D01*
X99670000Y-79270000D02*
X99670000Y-84410000D01*
X99670000Y-84410000D02*
X104870000Y-84410000D01*
X131670000Y-76670000D02*
X133000000Y-76670000D01*
X131670000Y-78000000D02*
X131670000Y-76670000D01*
X134270000Y-76670000D02*
X136870000Y-76670000D01*
X134270000Y-79270000D02*
X134270000Y-76670000D01*
X131670000Y-79270000D02*
X134270000Y-79270000D01*
X136870000Y-76670000D02*
X136870000Y-84410000D01*
X131670000Y-79270000D02*
X131670000Y-84410000D01*
X131670000Y-84410000D02*
X136870000Y-84410000D01*
X121003332Y-76670000D02*
X122333332Y-76670000D01*
X121003332Y-78000000D02*
X121003332Y-76670000D01*
X123603332Y-76670000D02*
X126203332Y-76670000D01*
X123603332Y-79270000D02*
X123603332Y-76670000D01*
X121003332Y-79270000D02*
X123603332Y-79270000D01*
X126203332Y-76670000D02*
X126203332Y-84410000D01*
X121003332Y-79270000D02*
X121003332Y-84410000D01*
X121003332Y-84410000D02*
X126203332Y-84410000D01*
X110336666Y-76670000D02*
X111666666Y-76670000D01*
X110336666Y-78000000D02*
X110336666Y-76670000D01*
X112936666Y-76670000D02*
X115536666Y-76670000D01*
X112936666Y-79270000D02*
X112936666Y-76670000D01*
X110336666Y-79270000D02*
X112936666Y-79270000D01*
X115536666Y-76670000D02*
X115536666Y-84410000D01*
X110336666Y-79270000D02*
X110336666Y-84410000D01*
X110336666Y-84410000D02*
X115536666Y-84410000D01*
X126640000Y-52525000D02*
G75*
G03X126640000Y-47475000I0J2525000D01*
G01*
X120240000Y-52525000D02*
G75*
G02X120240000Y-47475000I0J2525000D01*
G01*
X120240000Y-52525000D02*
X126640000Y-52525000D01*
X120240000Y-47475000D02*
X126640000Y-47475000D01*
D11*
X86410000Y-72890000D02*
X129590000Y-72890000D01*
X129590000Y-55110000D02*
X86410000Y-55110000D01*
X129590000Y-72890000D02*
X129590000Y-55110000D01*
X124510000Y-60190000D02*
X124510000Y-67810000D01*
X129590000Y-60190000D02*
X124510000Y-60190000D01*
X124510000Y-67810000D02*
X129590000Y-67810000D01*
X127050000Y-65270000D02*
X129590000Y-65270000D01*
X127050000Y-67810000D02*
X127050000Y-65270000D01*
X128955000Y-71620000D02*
G75*
G03X128955000Y-71620000I-635000J0D01*
G01*
X128955000Y-56380000D02*
G75*
G03X128955000Y-56380000I-635000J0D01*
G01*
X88315000Y-71620000D02*
G75*
G03X88315000Y-71620000I-635000J0D01*
G01*
X88315000Y-56380000D02*
G75*
G03X88315000Y-56380000I-635000J0D01*
G01*
X128955000Y-66540000D02*
G75*
G03X128955000Y-66540000I-635000J0D01*
G01*
X126415000Y-66540000D02*
G75*
G03X126415000Y-66540000I-635000J0D01*
G01*
X126415000Y-64000000D02*
G75*
G03X126415000Y-64000000I-635000J0D01*
G01*
X126415000Y-61460000D02*
G75*
G03X126415000Y-61460000I-635000J0D01*
G01*
X128955000Y-61460000D02*
G75*
G03X128955000Y-61460000I-635000J0D01*
G01*
X128955000Y-64000000D02*
G75*
G03X128955000Y-64000000I-635000J0D01*
G01*
X92760000Y-67810000D02*
X84505000Y-67810000D01*
X92760000Y-60190000D02*
X92760000Y-67810000D01*
X84505000Y-60190000D02*
X92760000Y-60190000D01*
X84505000Y-67810000D02*
X84505000Y-60190000D01*
X86410000Y-72890000D02*
X86410000Y-67810000D01*
X86410000Y-60190000D02*
X86410000Y-55110000D01*
X91720160Y-38787304D02*
X92529684Y-38787304D01*
X92624922Y-38739685D01*
X92672541Y-38692066D01*
X92720160Y-38596828D01*
X92720160Y-38406352D01*
X92672541Y-38311114D01*
X92624922Y-38263495D01*
X92529684Y-38215876D01*
X91720160Y-38215876D01*
X92720160Y-37215876D02*
X92720160Y-37787304D01*
X92720160Y-37501590D02*
X91720160Y-37501590D01*
X91863018Y-37596828D01*
X91958256Y-37692066D01*
X92005875Y-37787304D01*
X129752380Y-63814285D02*
X129752380Y-64385714D01*
X129752380Y-64100000D02*
X128752380Y-64100000D01*
X128895238Y-64195238D01*
X128990476Y-64290476D01*
X129038095Y-64385714D01*
X129752380Y-63385714D02*
X128752380Y-63385714D01*
X129752380Y-62814285D02*
X129180952Y-63242857D01*
X128752380Y-62814285D02*
X129323809Y-63385714D01*
X134531904Y-56492380D02*
X134531904Y-55492380D01*
X134770000Y-55492380D01*
X134912857Y-55540000D01*
X135008095Y-55635238D01*
X135055714Y-55730476D01*
X135103333Y-55920952D01*
X135103333Y-56063809D01*
X135055714Y-56254285D01*
X135008095Y-56349523D01*
X134912857Y-56444761D01*
X134770000Y-56492380D01*
X134531904Y-56492380D01*
X135960476Y-55825714D02*
X135960476Y-56492380D01*
X135722380Y-55444761D02*
X135484285Y-56159047D01*
X136103333Y-56159047D01*
X133674761Y-63888571D02*
X133817619Y-63936190D01*
X133865238Y-63983809D01*
X133912857Y-64079047D01*
X133912857Y-64221904D01*
X133865238Y-64317142D01*
X133817619Y-64364761D01*
X133722380Y-64412380D01*
X133341428Y-64412380D01*
X133341428Y-63412380D01*
X133674761Y-63412380D01*
X133770000Y-63460000D01*
X133817619Y-63507619D01*
X133865238Y-63602857D01*
X133865238Y-63698095D01*
X133817619Y-63793333D01*
X133770000Y-63840952D01*
X133674761Y-63888571D01*
X133341428Y-63888571D01*
X134817619Y-64412380D02*
X134341428Y-64412380D01*
X134341428Y-63412380D01*
X135150952Y-64412380D02*
X135150952Y-63412380D01*
X135627142Y-64412380D02*
X135627142Y-63412380D01*
X136198571Y-64412380D01*
X136198571Y-63412380D01*
X136674761Y-64412380D02*
X136674761Y-63412380D01*
X137246190Y-64412380D02*
X136817619Y-63840952D01*
X137246190Y-63412380D02*
X136674761Y-63983809D01*
X131747142Y-50216666D02*
X131794761Y-50264285D01*
X131842380Y-50407142D01*
X131842380Y-50502380D01*
X131794761Y-50645238D01*
X131699523Y-50740476D01*
X131604285Y-50788095D01*
X131413809Y-50835714D01*
X131270952Y-50835714D01*
X131080476Y-50788095D01*
X130985238Y-50740476D01*
X130890000Y-50645238D01*
X130842380Y-50502380D01*
X130842380Y-50407142D01*
X130890000Y-50264285D01*
X130937619Y-50216666D01*
X130937619Y-49835714D02*
X130890000Y-49788095D01*
X130842380Y-49692857D01*
X130842380Y-49454761D01*
X130890000Y-49359523D01*
X130937619Y-49311904D01*
X131032857Y-49264285D01*
X131128095Y-49264285D01*
X131270952Y-49311904D01*
X131842380Y-49883333D01*
X131842380Y-49264285D01*
X131637142Y-53667619D02*
X131684761Y-53620000D01*
X131780000Y-53572380D01*
X132018095Y-53572380D01*
X132113333Y-53620000D01*
X132160952Y-53667619D01*
X132208571Y-53762857D01*
X132208571Y-53858095D01*
X132160952Y-54000952D01*
X131589523Y-54572380D01*
X132208571Y-54572380D01*
X132589523Y-53667619D02*
X132637142Y-53620000D01*
X132732380Y-53572380D01*
X132970476Y-53572380D01*
X133065714Y-53620000D01*
X133113333Y-53667619D01*
X133160952Y-53762857D01*
X133160952Y-53858095D01*
X133113333Y-54000952D01*
X132541904Y-54572380D01*
X133160952Y-54572380D01*
X133589523Y-53905714D02*
X133589523Y-54905714D01*
X133589523Y-53953333D02*
X133684761Y-53905714D01*
X133875238Y-53905714D01*
X133970476Y-53953333D01*
X134018095Y-54000952D01*
X134065714Y-54096190D01*
X134065714Y-54381904D01*
X134018095Y-54477142D01*
X133970476Y-54524761D01*
X133875238Y-54572380D01*
X133684761Y-54572380D01*
X133589523Y-54524761D01*
X134827619Y-54048571D02*
X134494285Y-54048571D01*
X134494285Y-54572380D02*
X134494285Y-53572380D01*
X134970476Y-53572380D01*
X117357142Y-50416666D02*
X117404761Y-50464285D01*
X117452380Y-50607142D01*
X117452380Y-50702380D01*
X117404761Y-50845238D01*
X117309523Y-50940476D01*
X117214285Y-50988095D01*
X117023809Y-51035714D01*
X116880952Y-51035714D01*
X116690476Y-50988095D01*
X116595238Y-50940476D01*
X116500000Y-50845238D01*
X116452380Y-50702380D01*
X116452380Y-50607142D01*
X116500000Y-50464285D01*
X116547619Y-50416666D01*
X117452380Y-49464285D02*
X117452380Y-50035714D01*
X117452380Y-49750000D02*
X116452380Y-49750000D01*
X116595238Y-49845238D01*
X116690476Y-49940476D01*
X116738095Y-50035714D01*
X111287142Y-53537619D02*
X111334761Y-53490000D01*
X111430000Y-53442380D01*
X111668095Y-53442380D01*
X111763333Y-53490000D01*
X111810952Y-53537619D01*
X111858571Y-53632857D01*
X111858571Y-53728095D01*
X111810952Y-53870952D01*
X111239523Y-54442380D01*
X111858571Y-54442380D01*
X112239523Y-53537619D02*
X112287142Y-53490000D01*
X112382380Y-53442380D01*
X112620476Y-53442380D01*
X112715714Y-53490000D01*
X112763333Y-53537619D01*
X112810952Y-53632857D01*
X112810952Y-53728095D01*
X112763333Y-53870952D01*
X112191904Y-54442380D01*
X112810952Y-54442380D01*
X113239523Y-53775714D02*
X113239523Y-54775714D01*
X113239523Y-53823333D02*
X113334761Y-53775714D01*
X113525238Y-53775714D01*
X113620476Y-53823333D01*
X113668095Y-53870952D01*
X113715714Y-53966190D01*
X113715714Y-54251904D01*
X113668095Y-54347142D01*
X113620476Y-54394761D01*
X113525238Y-54442380D01*
X113334761Y-54442380D01*
X113239523Y-54394761D01*
X114477619Y-53918571D02*
X114144285Y-53918571D01*
X114144285Y-54442380D02*
X114144285Y-53442380D01*
X114620476Y-53442380D01*
X139107142Y-71166666D02*
X139154761Y-71214285D01*
X139202380Y-71357142D01*
X139202380Y-71452380D01*
X139154761Y-71595238D01*
X139059523Y-71690476D01*
X138964285Y-71738095D01*
X138773809Y-71785714D01*
X138630952Y-71785714D01*
X138440476Y-71738095D01*
X138345238Y-71690476D01*
X138250000Y-71595238D01*
X138202380Y-71452380D01*
X138202380Y-71357142D01*
X138250000Y-71214285D01*
X138297619Y-71166666D01*
X138202380Y-70833333D02*
X138202380Y-70166666D01*
X139202380Y-70595238D01*
X131702380Y-72071428D02*
X131702380Y-72642857D01*
X131702380Y-72357142D02*
X130702380Y-72357142D01*
X130845238Y-72452380D01*
X130940476Y-72547619D01*
X130988095Y-72642857D01*
X130702380Y-71452380D02*
X130702380Y-71357142D01*
X130750000Y-71261904D01*
X130797619Y-71214285D01*
X130892857Y-71166666D01*
X131083333Y-71119047D01*
X131321428Y-71119047D01*
X131511904Y-71166666D01*
X131607142Y-71214285D01*
X131654761Y-71261904D01*
X131702380Y-71357142D01*
X131702380Y-71452380D01*
X131654761Y-71547619D01*
X131607142Y-71595238D01*
X131511904Y-71642857D01*
X131321428Y-71690476D01*
X131083333Y-71690476D01*
X130892857Y-71642857D01*
X130797619Y-71595238D01*
X130750000Y-71547619D01*
X130702380Y-71452380D01*
X131035714Y-70261904D02*
X131702380Y-70261904D01*
X131035714Y-70690476D02*
X131559523Y-70690476D01*
X131654761Y-70642857D01*
X131702380Y-70547619D01*
X131702380Y-70404761D01*
X131654761Y-70309523D01*
X131607142Y-70261904D01*
X131178571Y-69452380D02*
X131178571Y-69785714D01*
X131702380Y-69785714D02*
X130702380Y-69785714D01*
X130702380Y-69309523D01*
X95402380Y-81194285D02*
X95402380Y-81765714D01*
X95402380Y-81480000D02*
X94402380Y-81480000D01*
X94545238Y-81575238D01*
X94640476Y-81670476D01*
X94688095Y-81765714D01*
X95402380Y-80765714D02*
X94402380Y-80765714D01*
X95402380Y-80194285D02*
X94830952Y-80622857D01*
X94402380Y-80194285D02*
X94973809Y-80765714D01*
X91527380Y-81144285D02*
X91527380Y-81715714D01*
X91527380Y-81430000D02*
X90527380Y-81430000D01*
X90670238Y-81525238D01*
X90765476Y-81620476D01*
X90813095Y-81715714D01*
X91527380Y-80715714D02*
X90527380Y-80715714D01*
X91527380Y-80144285D02*
X90955952Y-80572857D01*
X90527380Y-80144285D02*
X91098809Y-80715714D01*
X87877380Y-80864285D02*
X87877380Y-81435714D01*
X87877380Y-81150000D02*
X86877380Y-81150000D01*
X87020238Y-81245238D01*
X87115476Y-81340476D01*
X87163095Y-81435714D01*
X87877380Y-80435714D02*
X86877380Y-80435714D01*
X87877380Y-79864285D02*
X87305952Y-80292857D01*
X86877380Y-79864285D02*
X87448809Y-80435714D01*
X103018095Y-54292380D02*
X103018095Y-53292380D01*
X103399047Y-53292380D01*
X103494285Y-53340000D01*
X103541904Y-53387619D01*
X103589523Y-53482857D01*
X103589523Y-53625714D01*
X103541904Y-53720952D01*
X103494285Y-53768571D01*
X103399047Y-53816190D01*
X103018095Y-53816190D01*
X104589523Y-54292380D02*
X104256190Y-53816190D01*
X104018095Y-54292380D02*
X104018095Y-53292380D01*
X104399047Y-53292380D01*
X104494285Y-53340000D01*
X104541904Y-53387619D01*
X104589523Y-53482857D01*
X104589523Y-53625714D01*
X104541904Y-53720952D01*
X104494285Y-53768571D01*
X104399047Y-53816190D01*
X104018095Y-53816190D01*
X105541904Y-53340000D02*
X105446666Y-53292380D01*
X105303809Y-53292380D01*
X105160952Y-53340000D01*
X105065714Y-53435238D01*
X105018095Y-53530476D01*
X104970476Y-53720952D01*
X104970476Y-53863809D01*
X105018095Y-54054285D01*
X105065714Y-54149523D01*
X105160952Y-54244761D01*
X105303809Y-54292380D01*
X105399047Y-54292380D01*
X105541904Y-54244761D01*
X105589523Y-54197142D01*
X105589523Y-53863809D01*
X105399047Y-53863809D01*
X94781904Y-53838571D02*
X95115238Y-53838571D01*
X95258095Y-54362380D02*
X94781904Y-54362380D01*
X94781904Y-53362380D01*
X95258095Y-53362380D01*
X96258095Y-54362380D02*
X95924761Y-53886190D01*
X95686666Y-54362380D02*
X95686666Y-53362380D01*
X96067619Y-53362380D01*
X96162857Y-53410000D01*
X96210476Y-53457619D01*
X96258095Y-53552857D01*
X96258095Y-53695714D01*
X96210476Y-53790952D01*
X96162857Y-53838571D01*
X96067619Y-53886190D01*
X95686666Y-53886190D01*
X97258095Y-54362380D02*
X96924761Y-53886190D01*
X96686666Y-54362380D02*
X96686666Y-53362380D01*
X97067619Y-53362380D01*
X97162857Y-53410000D01*
X97210476Y-53457619D01*
X97258095Y-53552857D01*
X97258095Y-53695714D01*
X97210476Y-53790952D01*
X97162857Y-53838571D01*
X97067619Y-53886190D01*
X96686666Y-53886190D01*
X97877142Y-53362380D02*
X98067619Y-53362380D01*
X98162857Y-53410000D01*
X98258095Y-53505238D01*
X98305714Y-53695714D01*
X98305714Y-54029047D01*
X98258095Y-54219523D01*
X98162857Y-54314761D01*
X98067619Y-54362380D01*
X97877142Y-54362380D01*
X97781904Y-54314761D01*
X97686666Y-54219523D01*
X97639047Y-54029047D01*
X97639047Y-53695714D01*
X97686666Y-53505238D01*
X97781904Y-53410000D01*
X97877142Y-53362380D01*
X99305714Y-54362380D02*
X98972380Y-53886190D01*
X98734285Y-54362380D02*
X98734285Y-53362380D01*
X99115238Y-53362380D01*
X99210476Y-53410000D01*
X99258095Y-53457619D01*
X99305714Y-53552857D01*
X99305714Y-53695714D01*
X99258095Y-53790952D01*
X99210476Y-53838571D01*
X99115238Y-53886190D01*
X98734285Y-53886190D01*
X85600476Y-54392380D02*
X85600476Y-53392380D01*
X85600476Y-53868571D02*
X86171904Y-53868571D01*
X86171904Y-54392380D02*
X86171904Y-53392380D01*
X86648095Y-53868571D02*
X86981428Y-53868571D01*
X87124285Y-54392380D02*
X86648095Y-54392380D01*
X86648095Y-53392380D01*
X87124285Y-53392380D01*
X87505238Y-54106666D02*
X87981428Y-54106666D01*
X87410000Y-54392380D02*
X87743333Y-53392380D01*
X88076666Y-54392380D01*
X88981428Y-54392380D02*
X88648095Y-53916190D01*
X88410000Y-54392380D02*
X88410000Y-53392380D01*
X88790952Y-53392380D01*
X88886190Y-53440000D01*
X88933809Y-53487619D01*
X88981428Y-53582857D01*
X88981428Y-53725714D01*
X88933809Y-53820952D01*
X88886190Y-53868571D01*
X88790952Y-53916190D01*
X88410000Y-53916190D01*
X89267142Y-53392380D02*
X89838571Y-53392380D01*
X89552857Y-54392380D02*
X89552857Y-53392380D01*
X90505238Y-53868571D02*
X90648095Y-53916190D01*
X90695714Y-53963809D01*
X90743333Y-54059047D01*
X90743333Y-54201904D01*
X90695714Y-54297142D01*
X90648095Y-54344761D01*
X90552857Y-54392380D01*
X90171904Y-54392380D01*
X90171904Y-53392380D01*
X90505238Y-53392380D01*
X90600476Y-53440000D01*
X90648095Y-53487619D01*
X90695714Y-53582857D01*
X90695714Y-53678095D01*
X90648095Y-53773333D01*
X90600476Y-53820952D01*
X90505238Y-53868571D01*
X90171904Y-53868571D01*
X91171904Y-53868571D02*
X91505238Y-53868571D01*
X91648095Y-54392380D02*
X91171904Y-54392380D01*
X91171904Y-53392380D01*
X91648095Y-53392380D01*
X92029047Y-54106666D02*
X92505238Y-54106666D01*
X91933809Y-54392380D02*
X92267142Y-53392380D01*
X92600476Y-54392380D01*
X92790952Y-53392380D02*
X93362380Y-53392380D01*
X93076666Y-54392380D02*
X93076666Y-53392380D01*
X102123333Y-85807142D02*
X102075714Y-85854761D01*
X101932857Y-85902380D01*
X101837619Y-85902380D01*
X101694761Y-85854761D01*
X101599523Y-85759523D01*
X101551904Y-85664285D01*
X101504285Y-85473809D01*
X101504285Y-85330952D01*
X101551904Y-85140476D01*
X101599523Y-85045238D01*
X101694761Y-84950000D01*
X101837619Y-84902380D01*
X101932857Y-84902380D01*
X102075714Y-84950000D01*
X102123333Y-84997619D01*
X102980476Y-84902380D02*
X102790000Y-84902380D01*
X102694761Y-84950000D01*
X102647142Y-84997619D01*
X102551904Y-85140476D01*
X102504285Y-85330952D01*
X102504285Y-85711904D01*
X102551904Y-85807142D01*
X102599523Y-85854761D01*
X102694761Y-85902380D01*
X102885238Y-85902380D01*
X102980476Y-85854761D01*
X103028095Y-85807142D01*
X103075714Y-85711904D01*
X103075714Y-85473809D01*
X103028095Y-85378571D01*
X102980476Y-85330952D01*
X102885238Y-85283333D01*
X102694761Y-85283333D01*
X102599523Y-85330952D01*
X102551904Y-85378571D01*
X102504285Y-85473809D01*
X98494761Y-83465714D02*
X98542380Y-83322857D01*
X98542380Y-83084761D01*
X98494761Y-82989523D01*
X98447142Y-82941904D01*
X98351904Y-82894285D01*
X98256666Y-82894285D01*
X98161428Y-82941904D01*
X98113809Y-82989523D01*
X98066190Y-83084761D01*
X98018571Y-83275238D01*
X97970952Y-83370476D01*
X97923333Y-83418095D01*
X97828095Y-83465714D01*
X97732857Y-83465714D01*
X97637619Y-83418095D01*
X97590000Y-83370476D01*
X97542380Y-83275238D01*
X97542380Y-83037142D01*
X97590000Y-82894285D01*
X97542380Y-82275238D02*
X97542380Y-82084761D01*
X97590000Y-81989523D01*
X97685238Y-81894285D01*
X97875714Y-81846666D01*
X98209047Y-81846666D01*
X98399523Y-81894285D01*
X98494761Y-81989523D01*
X98542380Y-82084761D01*
X98542380Y-82275238D01*
X98494761Y-82370476D01*
X98399523Y-82465714D01*
X98209047Y-82513333D01*
X97875714Y-82513333D01*
X97685238Y-82465714D01*
X97590000Y-82370476D01*
X97542380Y-82275238D01*
X97542380Y-81418095D02*
X98351904Y-81418095D01*
X98447142Y-81370476D01*
X98494761Y-81322857D01*
X98542380Y-81227619D01*
X98542380Y-81037142D01*
X98494761Y-80941904D01*
X98447142Y-80894285D01*
X98351904Y-80846666D01*
X97542380Y-80846666D01*
X98542380Y-79799047D02*
X98066190Y-80132380D01*
X98542380Y-80370476D02*
X97542380Y-80370476D01*
X97542380Y-79989523D01*
X97590000Y-79894285D01*
X97637619Y-79846666D01*
X97732857Y-79799047D01*
X97875714Y-79799047D01*
X97970952Y-79846666D01*
X98018571Y-79894285D01*
X98066190Y-79989523D01*
X98066190Y-80370476D01*
X98447142Y-78799047D02*
X98494761Y-78846666D01*
X98542380Y-78989523D01*
X98542380Y-79084761D01*
X98494761Y-79227619D01*
X98399523Y-79322857D01*
X98304285Y-79370476D01*
X98113809Y-79418095D01*
X97970952Y-79418095D01*
X97780476Y-79370476D01*
X97685238Y-79322857D01*
X97590000Y-79227619D01*
X97542380Y-79084761D01*
X97542380Y-78989523D01*
X97590000Y-78846666D01*
X97637619Y-78799047D01*
X98018571Y-78370476D02*
X98018571Y-78037142D01*
X98542380Y-77894285D02*
X98542380Y-78370476D01*
X97542380Y-78370476D01*
X97542380Y-77894285D01*
X134123333Y-85757142D02*
X134075714Y-85804761D01*
X133932857Y-85852380D01*
X133837619Y-85852380D01*
X133694761Y-85804761D01*
X133599523Y-85709523D01*
X133551904Y-85614285D01*
X133504285Y-85423809D01*
X133504285Y-85280952D01*
X133551904Y-85090476D01*
X133599523Y-84995238D01*
X133694761Y-84900000D01*
X133837619Y-84852380D01*
X133932857Y-84852380D01*
X134075714Y-84900000D01*
X134123333Y-84947619D01*
X135028095Y-84852380D02*
X134551904Y-84852380D01*
X134504285Y-85328571D01*
X134551904Y-85280952D01*
X134647142Y-85233333D01*
X134885238Y-85233333D01*
X134980476Y-85280952D01*
X135028095Y-85328571D01*
X135075714Y-85423809D01*
X135075714Y-85661904D01*
X135028095Y-85757142D01*
X134980476Y-85804761D01*
X134885238Y-85852380D01*
X134647142Y-85852380D01*
X134551904Y-85804761D01*
X134504285Y-85757142D01*
X129647619Y-85800000D02*
X129600000Y-85752380D01*
X129552380Y-85657142D01*
X129552380Y-85419047D01*
X129600000Y-85323809D01*
X129647619Y-85276190D01*
X129742857Y-85228571D01*
X129838095Y-85228571D01*
X129980952Y-85276190D01*
X130552380Y-85847619D01*
X130552380Y-85228571D01*
X129552380Y-84609523D02*
X129552380Y-84514285D01*
X129600000Y-84419047D01*
X129647619Y-84371428D01*
X129742857Y-84323809D01*
X129933333Y-84276190D01*
X130171428Y-84276190D01*
X130361904Y-84323809D01*
X130457142Y-84371428D01*
X130504761Y-84419047D01*
X130552380Y-84514285D01*
X130552380Y-84609523D01*
X130504761Y-84704761D01*
X130457142Y-84752380D01*
X130361904Y-84800000D01*
X130171428Y-84847619D01*
X129933333Y-84847619D01*
X129742857Y-84800000D01*
X129647619Y-84752380D01*
X129600000Y-84704761D01*
X129552380Y-84609523D01*
X129504761Y-83133333D02*
X130790476Y-83990476D01*
X129647619Y-82847619D02*
X129600000Y-82800000D01*
X129552380Y-82704761D01*
X129552380Y-82466666D01*
X129600000Y-82371428D01*
X129647619Y-82323809D01*
X129742857Y-82276190D01*
X129838095Y-82276190D01*
X129980952Y-82323809D01*
X130552380Y-82895238D01*
X130552380Y-82276190D01*
X129980952Y-81704761D02*
X129933333Y-81800000D01*
X129885714Y-81847619D01*
X129790476Y-81895238D01*
X129742857Y-81895238D01*
X129647619Y-81847619D01*
X129600000Y-81800000D01*
X129552380Y-81704761D01*
X129552380Y-81514285D01*
X129600000Y-81419047D01*
X129647619Y-81371428D01*
X129742857Y-81323809D01*
X129790476Y-81323809D01*
X129885714Y-81371428D01*
X129933333Y-81419047D01*
X129980952Y-81514285D01*
X129980952Y-81704761D01*
X130028571Y-81800000D01*
X130076190Y-81847619D01*
X130171428Y-81895238D01*
X130361904Y-81895238D01*
X130457142Y-81847619D01*
X130504761Y-81800000D01*
X130552380Y-81704761D01*
X130552380Y-81514285D01*
X130504761Y-81419047D01*
X130457142Y-81371428D01*
X130361904Y-81323809D01*
X130171428Y-81323809D01*
X130076190Y-81371428D01*
X130028571Y-81419047D01*
X129980952Y-81514285D01*
X130552380Y-80133333D02*
X129552380Y-80133333D01*
X129552380Y-79752380D01*
X129600000Y-79657142D01*
X129647619Y-79609523D01*
X129742857Y-79561904D01*
X129885714Y-79561904D01*
X129980952Y-79609523D01*
X130028571Y-79657142D01*
X130076190Y-79752380D01*
X130076190Y-80133333D01*
X130552380Y-79133333D02*
X129552380Y-79133333D01*
X130552380Y-78657142D02*
X129552380Y-78657142D01*
X130552380Y-78085714D01*
X129552380Y-78085714D01*
X130552380Y-76847619D02*
X129552380Y-76847619D01*
X130457142Y-75800000D02*
X130504761Y-75847619D01*
X130552380Y-75990476D01*
X130552380Y-76085714D01*
X130504761Y-76228571D01*
X130409523Y-76323809D01*
X130314285Y-76371428D01*
X130123809Y-76419047D01*
X129980952Y-76419047D01*
X129790476Y-76371428D01*
X129695238Y-76323809D01*
X129600000Y-76228571D01*
X129552380Y-76085714D01*
X129552380Y-75990476D01*
X129600000Y-75847619D01*
X129647619Y-75800000D01*
X123506665Y-85823810D02*
X123459046Y-85871429D01*
X123316189Y-85919048D01*
X123220951Y-85919048D01*
X123078093Y-85871429D01*
X122982855Y-85776191D01*
X122935236Y-85680953D01*
X122887617Y-85490477D01*
X122887617Y-85347620D01*
X122935236Y-85157144D01*
X122982855Y-85061906D01*
X123078093Y-84966668D01*
X123220951Y-84919048D01*
X123316189Y-84919048D01*
X123459046Y-84966668D01*
X123506665Y-85014287D01*
X124363808Y-85252382D02*
X124363808Y-85919048D01*
X124125712Y-84871429D02*
X123887617Y-85585715D01*
X124506665Y-85585715D01*
X120075712Y-83332380D02*
X120075712Y-83903809D01*
X120075712Y-83618095D02*
X119075712Y-83618095D01*
X119218570Y-83713333D01*
X119313808Y-83808571D01*
X119361427Y-83903809D01*
X119409046Y-82475238D02*
X120075712Y-82475238D01*
X119028093Y-82713333D02*
X119742379Y-82951428D01*
X119742379Y-82332380D01*
X120075712Y-81189523D02*
X119075712Y-81189523D01*
X119075712Y-80808571D01*
X119123332Y-80713333D01*
X119170951Y-80665714D01*
X119266189Y-80618095D01*
X119409046Y-80618095D01*
X119504284Y-80665714D01*
X119551903Y-80713333D01*
X119599522Y-80808571D01*
X119599522Y-81189523D01*
X120075712Y-80189523D02*
X119075712Y-80189523D01*
X120075712Y-79713333D02*
X119075712Y-79713333D01*
X120075712Y-79141904D01*
X119075712Y-79141904D01*
X120075712Y-77903809D02*
X119075712Y-77903809D01*
X119980474Y-76856190D02*
X120028093Y-76903809D01*
X120075712Y-77046666D01*
X120075712Y-77141904D01*
X120028093Y-77284761D01*
X119932855Y-77380000D01*
X119837617Y-77427619D01*
X119647141Y-77475238D01*
X119504284Y-77475238D01*
X119313808Y-77427619D01*
X119218570Y-77380000D01*
X119123332Y-77284761D01*
X119075712Y-77141904D01*
X119075712Y-77046666D01*
X119123332Y-76903809D01*
X119170951Y-76856190D01*
X112789999Y-85840476D02*
X112742380Y-85888095D01*
X112599523Y-85935714D01*
X112504285Y-85935714D01*
X112361427Y-85888095D01*
X112266189Y-85792857D01*
X112218570Y-85697619D01*
X112170951Y-85507143D01*
X112170951Y-85364286D01*
X112218570Y-85173810D01*
X112266189Y-85078572D01*
X112361427Y-84983334D01*
X112504285Y-84935714D01*
X112599523Y-84935714D01*
X112742380Y-84983334D01*
X112789999Y-85030953D01*
X113123332Y-84935714D02*
X113742380Y-84935714D01*
X113409046Y-85316667D01*
X113551904Y-85316667D01*
X113647142Y-85364286D01*
X113694761Y-85411905D01*
X113742380Y-85507143D01*
X113742380Y-85745238D01*
X113694761Y-85840476D01*
X113647142Y-85888095D01*
X113551904Y-85935714D01*
X113266189Y-85935714D01*
X113170951Y-85888095D01*
X113123332Y-85840476D01*
X109097618Y-82907142D02*
X109049999Y-83002380D01*
X109002380Y-83050000D01*
X108907142Y-83097619D01*
X108859523Y-83097619D01*
X108764285Y-83050000D01*
X108716666Y-83002380D01*
X108669046Y-82907142D01*
X108669046Y-82716666D01*
X108716666Y-82621428D01*
X108764285Y-82573809D01*
X108859523Y-82526190D01*
X108907142Y-82526190D01*
X109002380Y-82573809D01*
X109049999Y-82621428D01*
X109097618Y-82716666D01*
X109097618Y-82907142D01*
X109145237Y-83002380D01*
X109192856Y-83050000D01*
X109288094Y-83097619D01*
X109478570Y-83097619D01*
X109573808Y-83050000D01*
X109621427Y-83002380D01*
X109669046Y-82907142D01*
X109669046Y-82716666D01*
X109621427Y-82621428D01*
X109573808Y-82573809D01*
X109478570Y-82526190D01*
X109288094Y-82526190D01*
X109192856Y-82573809D01*
X109145237Y-82621428D01*
X109097618Y-82716666D01*
X109669046Y-81335714D02*
X108669046Y-81335714D01*
X108669046Y-80954761D01*
X108716666Y-80859523D01*
X108764285Y-80811904D01*
X108859523Y-80764285D01*
X109002380Y-80764285D01*
X109097618Y-80811904D01*
X109145237Y-80859523D01*
X109192856Y-80954761D01*
X109192856Y-81335714D01*
X109669046Y-80335714D02*
X108669046Y-80335714D01*
X109669046Y-79859523D02*
X108669046Y-79859523D01*
X109669046Y-79288095D01*
X108669046Y-79288095D01*
X109669046Y-78050000D02*
X108669046Y-78050000D01*
X109573808Y-77002380D02*
X109621427Y-77050000D01*
X109669046Y-77192857D01*
X109669046Y-77288095D01*
X109621427Y-77430952D01*
X109526189Y-77526190D01*
X109430951Y-77573809D01*
X109240475Y-77621428D01*
X109097618Y-77621428D01*
X108907142Y-77573809D01*
X108811904Y-77526190D01*
X108716666Y-77430952D01*
X108669046Y-77288095D01*
X108669046Y-77192857D01*
X108716666Y-77050000D01*
X108764285Y-77002380D01*
X122963809Y-46451190D02*
X122963809Y-46927380D01*
X122630476Y-45927380D02*
X122963809Y-46451190D01*
X123297142Y-45927380D01*
X124154285Y-46927380D02*
X123582857Y-46927380D01*
X123868571Y-46927380D02*
X123868571Y-45927380D01*
X123773333Y-46070238D01*
X123678095Y-46165476D01*
X123582857Y-46213095D01*
X121749523Y-51802380D02*
X121178095Y-51802380D01*
X121463809Y-51802380D02*
X121463809Y-50802380D01*
X121368571Y-50945238D01*
X121273333Y-51040476D01*
X121178095Y-51088095D01*
X122606666Y-50802380D02*
X122416190Y-50802380D01*
X122320952Y-50850000D01*
X122273333Y-50897619D01*
X122178095Y-51040476D01*
X122130476Y-51230952D01*
X122130476Y-51611904D01*
X122178095Y-51707142D01*
X122225714Y-51754761D01*
X122320952Y-51802380D01*
X122511428Y-51802380D01*
X122606666Y-51754761D01*
X122654285Y-51707142D01*
X122701904Y-51611904D01*
X122701904Y-51373809D01*
X122654285Y-51278571D01*
X122606666Y-51230952D01*
X122511428Y-51183333D01*
X122320952Y-51183333D01*
X122225714Y-51230952D01*
X122178095Y-51278571D01*
X122130476Y-51373809D01*
X123130476Y-51802380D02*
X123130476Y-50802380D01*
X123463809Y-51516666D01*
X123797142Y-50802380D01*
X123797142Y-51802380D01*
X124273333Y-51802380D02*
X124273333Y-50802380D01*
X124273333Y-51278571D02*
X124844761Y-51278571D01*
X124844761Y-51802380D02*
X124844761Y-50802380D01*
X125225714Y-51135714D02*
X125749523Y-51135714D01*
X125225714Y-51802380D01*
X125749523Y-51802380D01*
X131060000Y-64857142D02*
X131060000Y-64285714D01*
X131402857Y-64971428D02*
X130202857Y-64571428D01*
X131402857Y-64171428D01*
X131402857Y-63142857D02*
X131402857Y-63828571D01*
X131402857Y-63485714D02*
X130202857Y-63485714D01*
X130374285Y-63600000D01*
X130488571Y-63714285D01*
X130545714Y-63828571D01*
M02*
